<svg xmlns="http://www.w3.org/2000/svg" xmlns:xlink="http://www.w3.org/1999/xlink" version="1.1" id="Your_Icon" x="0px" y="0px" viewBox="-1245 599 100 100" enable-background="new -1245 599 100 100" xml:space="preserve"><path d="M-1174.2 624.8c-0.1 0.2-0.3 0.3-0.5 0.3 -0.2 0-0.3-0.1-0.5-0.3l-8.4-9.3c0 0.1-0.1 0.3-0.1 0.5v15c0 1 0.6 1.9 1.3 1.9h15.4c0.7 0 1.3-0.8 1.3-1.9v-15c0-0.3 0-0.5-0.1-0.7L-1174.2 624.8z"/><path d="M-1166.7 614.8c0 0-0.1 0-0.1 0h-15.4c-0.1 0-0.2 0.1-0.3 0.1l7.9 8.7L-1166.7 614.8z"/></svg>