<?xml version="1.0" encoding="utf-8"?>
<!-- Generator: Adobe Illustrator 18.1.1, SVG Export Plug-In . SVG Version: 6.00 Build 0)  -->
<svg version="1.1" id="Layer_1" xmlns="http://www.w3.org/2000/svg" xmlns:xlink="http://www.w3.org/1999/xlink" x="0px" y="0px"
	 viewBox="587.2 149.2 23.2 19.1" style="enable-background:new 587.2 149.2 23.2 19.1;" xml:space="preserve">
<style type="text/css">
	.st0{fill:#231F20;}
</style>
<path class="st0" d="M594.6,168.3c-2.7,0-5.3-0.7-7.4-2.2c0.4,0,0.7,0.1,1.1,0.1c2.2,0,4.3-0.7,5.9-2.1c-2.1,0-3.8-1.5-4.4-3.4
	c0.2,0,0.6,0.1,0.9,0.1c0.5,0,0.9,0,1.2-0.1c-2.2-0.5-3.8-2.4-3.8-4.7l0,0c0.6,0.4,1.3,0.6,2.2,0.6c-1.2-0.9-2.1-2.4-2.1-4
	c0-0.9,0.2-1.7,0.6-2.5c2.3,3,5.9,4.9,9.8,5.1c-0.1-0.4-0.1-0.7-0.1-1.1c0-2.7,2.1-4.9,4.8-4.9c1.3,0,2.6,0.6,3.4,1.5
	c1.1-0.2,2.1-0.6,3.1-1.1c-0.4,1.1-1.1,2.1-2.1,2.7c1-0.1,1.8-0.4,2.7-0.7c-0.6,1-1.5,1.9-2.3,2.5c0,0.2,0,0.4,0,0.6
	C608.2,160.8,603.3,168.3,594.6,168.3"/>
</svg>
