<?xml version="1.0" encoding="utf-8"?>
<!-- Generator: Adobe Illustrator 18.1.1, SVG Export Plug-In . SVG Version: 6.00 Build 0)  -->
<svg version="1.1" id="Isolation_Mode" xmlns="http://www.w3.org/2000/svg" xmlns:xlink="http://www.w3.org/1999/xlink" x="0px"
	 y="0px" viewBox="591.2 80.4 19.2 19.1" style="enable-background:new 591.2 80.4 19.2 19.1;" xml:space="preserve">
<style type="text/css">
	.st0{fill:#231F20;}
</style>
<path class="st0" d="M608.2,88.5h-1.7c0.1,0.5,0.2,1,0.2,1.5c0,3.2-2.6,5.8-5.9,5.8S595,93.2,595,90c0-0.5,0.1-1,0.2-1.5h-1.7v8.1
	c0,0.4,0.3,0.7,0.7,0.7h13.3c0.4,0,0.7-0.3,0.7-0.7V88.5L608.2,88.5z M608.2,83.4c0-0.4-0.3-0.7-0.7-0.7h-2.2
	c-0.4,0-0.7,0.3-0.7,0.7v2.2c0,0.4,0.3,0.7,0.7,0.7h2.2c0.4,0,0.7-0.3,0.7-0.7V83.4z M600.8,86.3c-2,0-3.7,1.6-3.7,3.7
	c0,2,1.6,3.7,3.7,3.7c2,0,3.7-1.6,3.7-3.7C604.4,88,602.8,86.3,600.8,86.3 M608.2,99.6h-14.7c-1.2,0-2.2-1-2.2-2.2V82.7
	c0-1.2,1-2.2,2.2-2.2h14.7c1.2,0,2.2,1,2.2,2.2v14.7C610.4,98.6,609.4,99.6,608.2,99.6"/>
</svg>
