<?xml version="1.0" encoding="utf-8"?>
<!-- Generator: Adobe Illustrator 18.1.1, SVG Export Plug-In . SVG Version: 6.00 Build 0)  -->
<svg version="1.1" id="Layer_1" xmlns="http://www.w3.org/2000/svg" xmlns:xlink="http://www.w3.org/1999/xlink" x="0px" y="0px"
	 viewBox="568.4 91.3 42.1 41.8" style="enable-background:new 568.4 91.3 42.1 41.8;" xml:space="preserve">
<style type="text/css">
	
</style>
<path class="svg-pin" d="M589.5,91.3c-11.6,0-21.1,9.6-21.1,21.1c0,8.7,5.1,16,12.7,19.4c0-1.6,0-3.3,0.4-4.9c0.4-1.8,2.7-11.6,2.7-11.6
	s-0.7-1.3-0.7-3.3c0-3.1,1.8-5.6,4-5.6c2,0,2.9,1.3,2.9,3.1c0,2-1.3,4.9-1.8,7.6c-0.4,2.2,1.1,4,3.3,4c4,0,6.7-5.1,6.7-11.3
	c0-4.7-3.1-8-8.9-8c-6.5,0-10.5,4.7-10.5,10c0,1.8,0.4,3.1,1.3,4.2c0.4,0.4,0.4,0.7,0.2,1.1c0,0.4-0.4,1.3-0.4,1.8
	c-0.2,0.4-0.7,0.7-1.1,0.4c-2.9-1.1-4.2-4.5-4.2-8c0-6,5.1-13.1,15.1-13.1c8,0,13.4,5.8,13.4,12c0,8.2-4.7,14.5-11.3,14.5
	c-2.2,0-4.5-1.3-5.1-2.7c0,0-1.3,4.9-1.6,5.8c-0.4,1.6-1.3,3.3-2.2,4.5c2,0.7,4,0.9,6,0.9c11.6,0,21.1-9.6,21.1-21.1
	C610.7,100.9,601.1,91.3,589.5,91.3"/>
</svg>
