<?xml version="1.0" standalone="no"?>
<!DOCTYPE svg PUBLIC "-//W3C//DTD SVG 1.1//EN" "http://www.w3.org/Graphics/SVG/1.1/DTD/svg11.dtd">
<svg xmlns="http://www.w3.org/2000/svg"><metadata>This SVG WebFont was generated by YouWorkForThem.
Copyright (c) 2014 by Cultivated Mind. All rights reserved.</metadata><defs><font horiz-adv-x="1642" id="ywftsvg"><font-face ascent="1638" bbox="99.5663 -31 5249 1468" cap-height="1143" descent="-410" font-family="" font-stretch="normal" font-weight="400" panose-1="2 0 5 7 0 0 0 2 0 4" underline-position="0" underline-thickness="0" unicode-range="U+0020-201D" units-per-em="2048" x-height="1063"/><missing-glyph horiz-adv-x="614"/><glyph glyph-name=".notdef" horiz-adv-x="614"/><glyph glyph-name="glyph1" horiz-adv-x="0"/><glyph glyph-name="glyph2" horiz-adv-x="681"/><glyph glyph-name="space" horiz-adv-x="614" unicode=" "/><glyph d="M102 725v33q2 12 6.5 32.5t10 54t18.5 68.5q12 35 60 127h2q0 29 18 29v2q51 68 107 113l6 6q12 6 35 29l47 25q47 24 53 29q46 38 76 38q12 8 55 28.5t66 20.5h10q8 0 14 6q121 43 162 47l2 2q2 0 52.5 10t238.5 29l33 -4l32 2l29 -2l92 2h6q12 2 39 2q25 -4 45 -4h8 l76 -8q58 0 78 -8.5t25 -8.5l6 -2q109 -10 157 -34h2q8 0 25.5 -7.5t29.5 -10.5t43 -16.5t56 -19.5l4 -2q15 0 25 -9t41 -19t103 -60t110 -88l18 -12q16 -12 31 -41q90 -100 106 -164q41 -154 41 -188v-27l2 -2q0 -72 -34.5 -163t-94.5 -165q-10 -23 -34.5 -43t-34.5 -37h-2 q-25 -35 -95 -79v-3q-9 -4 -39 -25t-51 -30l-67 -22q-18 -10 -25 -17l-4 -2q-2 0 -20.5 -9.5t-133.5 -43.5h-2q-6 0 -10 -4t-13 -6l-140 -27q-30 0 -37.5 -5t-17 -11t-124.5 -6h-8l-84 -5h-6q-53 0 -65 3q-49 0 -56 -3l-30 5h-2q-45 -15 -180.5 8.5t-143.5 25.5h-2 q-16 4 -48 14.5t-62 16.5t-41 4t-27 5t-56 27t-58.5 25t-63.5 31q-61 27 -123 70q-8 8 -11 10l-34 27l-56 53q-18 12 -44 44t-25 46l-2 2q-45 77 -52 107q-43 111 -43 184zM2312 668v4q0 2 2 4v4q4 8 4 12v23l-2 51q-2 31 -3 31t-1 2v4t1 8q3 16 -17.5 61.5t-22.5 49.5 q-41 100 -92 151q-127 125 -235 168q-18 18 -63.5 35.5t-72.5 17.5q-31 6 -148.5 44t-365.5 38q-111 0 -190.5 -7t-83.5 -7t-6 2h-4q-39 0 -49 -10q-2 0 -25.5 5.5t-185.5 -56.5h-2q-20 -8 -64 -19l-20 -8q-10 -4 -99.5 -32.5t-198 -132t-145.5 -185.5l-22 -60 q-15 -54 -15 -82v-48t-1 -46q-1 -28 38 -141q57 -128 142 -193t116 -77.5t51 -24.5t69.5 -31.5t64.5 -25.5l20 -9q16 -5 64 -16l2 -2q16 -6 77 -20q46 -21 72.5 -21t61.5 -10h2q18 -8 45 -8h10q8 0 29 -5q172 0 229 -10l111 4q16 0 116.5 12.5t120.5 16.5l25 6 q91 14 138.5 37t113.5 45t102.5 42t98 68t96.5 99q35 35 73 125q5 8 23 52.5t17 54.5z" glyph-name="exclam" horiz-adv-x="2506" unicode="!"/><glyph d="M1520 573.5q0 -16.5 -4 -24.5q-115 -379 -533 -510q-152 -6 -160 -14q-84 0 -235 34q-127 43 -178.5 80t-76.5 54.5t-67 74.5t-69 111q-74 106 -74 180v6q0 20 -10.5 74.5t-10.5 83.5l2 70v10q0 123 76 274l39 80q49 82 88 103q199 160 400 184q115 14 143 14l61 -10 q23 0 63 -3t138 -42t170 -111q2 -2 44 -43.5t81 -87t51 -90.5q2 -6 40 -87.5t38 -203.5l2 -18q0 -129 -16 -168q-2 -4 -2 -20.5z" glyph-name="quotedbl" unicode="&quot;"/><glyph d="M104 809q0 113 68 248t121 180q174 174 414 203q129 14 133 14h10l61 -10q70 0 159 -31t149 -78q28 -9 103 -82t124 -161t49 -123q13 -10 31 -86l6 -27l6 -143q0 -79 -9 -104t-9 -39.5t-4 -24.5q-39 -133 -189 -320q-123 -123 -344 -190q-18 -8 -88 -10t-72 -5 q-59 0 -182 21q-59 0 -154.5 51t-152.5 111q-92 92 -151.5 200.5t-59.5 151.5v6l-21 158l2 69v21zM1044 102q18 0 41 17l78 39q13 6 17 11t12 13t43 33t51 38t32.5 32.5t26 32t25.5 37t23 34.5q104 150 104 367q0 59 -7 84.5t-12 41.5t-16.5 53t-45.5 103t-50 92t-68.5 74.5 t-66.5 65.5q0 18 -75.5 52t-95.5 46t-69 24.5t-65 12.5l-95 8q-12 -2 -54 -2t-60 -12q-217 -24 -401 -209q-109 -110 -127.5 -190t-18.5 -82q-29 -40 -29 -172t33 -227t53.5 -123t27.5 -36t56.5 -72t77.5 -73q150 -117 217 -117q38 0 65 -15t47 -14q19 1 30 1l73 -9 q125 0 162 23q5 5 57 18h4zM180 702q0 162 71 322t214 242q27 16 86 41.5t70 31.5q-4 -4 3 -2q116 33 216 33l55 -4q55 0 119 -30t80 -36t30.5 -13t29.5 -18.5t26.5 -19.5t28 -23.5t37.5 -34t37.5 -38.5t49.5 -53q88 -96 117 -303q4 -66 4 -97q-4 -156 -146 -375t-466 -219 h-21l-47 -2q-182 0 -345 123t-220 303q-29 72 -29 172z" glyph-name="numbersign" horiz-adv-x="1640" unicode="#"/><glyph d="M3422 758q0 -39 -43 -129q-35 -50 -85 -78.5t-76.5 -42.5t-76 -33.5t-99.5 -40t-127 -45.5t-191 -76q-84 -33 -277.5 -95t-294.5 -105q-254 -92 -391 -93q-179 0 -626 171t-531 201t-108 44t-111.5 48t-139.5 59.5t-97.5 82t-45.5 126.5t22.5 102.5t129.5 99.5 q33 18 111.5 43t121.5 46t105.5 35t92.5 29t119.5 42t319.5 107t382 139t231 59l20 -2l29 2q84 0 205 -48t279 -102.5t228 -84.5t170.5 -56.5t143.5 -44.5t83.5 -27t106.5 -33t151 -52t160 -78.5t92 -90.5t17 -79zM3383 750q0 43 -21.5 73.5t-41 45t-58.5 40.5 q-102 51 -305 123q-158 43 -396 127t-387 143.5t-247 87t-186 27.5t-273 -74q-387 -159 -688 -249t-348 -114t-104.5 -44.5t-90 -35.5t-60 -53.5t-27.5 -104.5t48 -112t164 -93q393 -178 609 -246q43 -12 129 -45t114 -41t215 -79t343 -71l49 6q125 18 288.5 75t182.5 63 q330 96 870 338q137 59 172 102q49 68 49 111z" glyph-name="dollar" horiz-adv-x="3524" unicode="$"/><glyph d="M648 1452q15 0 69.5 -32t82.5 -38t55.5 -19t61 -31.5t41.5 -22.5t49 -25.5t76 -21.5q6 -4 63.5 -25.5t57.5 -36.5l8 -22q-12 -98 -12 -269l4 -75l-2 -5q0 -20 -3 -136.5t7 -205.5l-1 -4l-1 -34l-10 -191q0 -6 2 -8l-14 -14q-133 -68 -273 -121q-8 -4 -84 -43.5 t-153 -53.5q-59 0 -160.5 46.5t-126.5 56.5q-268 104 -268 127q0 2 2 6l-10 278l4 160l-2 41l1 47q1 47 -1 54l2 16l-2 113q-4 29 -2 107.5t-7 105.5q0 8 4 21t62.5 40t71.5 27q129 43 290 127q4 4 53.5 32.5t64.5 28.5z" glyph-name="percent" horiz-adv-x="1314" unicode="%"/><glyph d="M113 1108q0 7 -11 51q0 27 15.5 37t51.5 23.5t64 35.5l9 2q17 0 71 27q35 12 122 59.5t132 57.5l35 22q33 23 51 23t68 -29h4q29 -20 63 -33l3 -2q35 -12 43 -16q166 -88 221 -100q139 -46 153 -70q9 -26 9 -30t-5.5 -98.5t-5.5 -197.5q4 -14 4 -32t-4 -23q2 -16 2 -51 l-2 -82l4 -150v-8l-2 -75v-9l-4 -104v-4l-4 -72l2 -10q0 -12 -8 -14q-43 -23 -393 -179q-8 -2 -68.5 -23.5t-62.5 -23.5h-2q-33 0 -181 62q-74 18 -98 43q-272 106 -272 135l2 2v4l-8 172v4l-2 107q2 2 2 22.5v41t2 34.5l-2 76l2 55l-2 61v9l2 4v12l-2 98v6l1 9zM1165 1038 l-2 129l-51 23q-117 39 -165 67.5t-101 47.5q-16 2 -73.5 33.5t-90.5 43.5q-17 17 -47.5 -1.5t-42.5 -22.5q-37 -23 -75 -33t-118 -55h-4l-61 -31q-112 -37 -125 -49q-43 -14 -51 -21l2 -22q-6 -49 -6 -119l6 -141v-4l2 -23l-6 -319q0 -23 4 -113l4 -72q0 -20 -1 -25 t-2 -21.5t4 -33.5t40 -34q6 -4 25 -9.5t129 -57.5t223 -87h2q2 0 30.5 -13.5t54.5 -13.5t90 32t109 47.5t56 19.5l18 10q66 33 78 32t56.5 27t74.5 35q12 0 12 234l-4 194l2 195v2zM657 1356q16 0 56 -25h2q6 -4 53 -28l2 -3q31 -10 37 -14q131 -76 186 -88q57 -28 115 -47 l2 -2q4 -2 16 -21v-2q4 -6 2 -24t-2 -86l-6 -146l4 -57q0 -2 -2 -6l2 -250v-49l-2 -4v-4l2 -17l-4 -98v-4q0 -23 -4 -55v-17q0 -9 -2 -10l-32 -19q-22 -14 -116 -53t-179 -83t-119 -44h-2q-39 0 -152 54l-36 18q-36 18 -48 18q-229 100 -229 119v2l2 4l-6 150v4l-2 84v8 l1 13l1 116l2 107q0 8 -2 10v31q2 16 2 49l-2 37q-8 35 -9 188q0 25 18.5 34t50.5 18.5t52 29.5h2l4 2q2 2 8.5 4t14.5 5t17.5 7.5t32 12t90 44t104.5 48.5q40 29 49.5 34t25.5 5zM242 403v-7l-2 -32q0 -27 6 -34.5t12 -15.5t21.5 -15.5t47 -20t45.5 -19.5t51.5 -18 t170.5 -73h2q37 -23 54 -23t34 7l4 4q6 2 9 4t10.5 5t12.5 6t12 6t21 9.5t31 6.5l6 2q7 2 64 31.5t115 39.5q63 24 82 41q32 0 32 21l-2 133q0 53 4 65l-4 170l4 287v129q-6 2 -17 8.5t-25 12.5q-15 5 -47.5 17.5t-39.5 14.5l-2 2q-8 2 -24.5 11.5t-23.5 12.5q-8 3 -18 6 t-208 103l-2 3l-19 6q-10 0 -41.5 -19.5t-44.5 -23.5q-18 -14 -36.5 -20.5t-98.5 -43.5h-2l-35 -18q-63 -38 -122 -51q-18 -10 -43 -19l2 -18q-10 -92 0 -230v-4l2 -18l-7 -279q0 -35 5 -100z" glyph-name="ampersand" horiz-adv-x="1318" unicode="&amp;"/><glyph d="M657 1343h5q14 0 61 13.5t63 21.5t105 34t252 26l33 -4h6h45q18 -2 55 1t51 3l97 -6q127 0 323 -50q45 -23 91 -31t122 -44q8 -8 80.5 -33t169.5 -133q2 -2 23.5 -16.5t27.5 -39.5l2 2q27 -21 64 -81t43 -82q39 -166 41 -189q0 -100 -35 -192q-25 -106 -146 -228 q-8 -2 -67 -52.5t-105 -80.5q-20 -18 -74.5 -35.5t-76.5 -33.5l-39 -13q-274 -96 -498 -96q-92 0 -110 2h-64l-26 2l-33 -4q-193 0 -420 76l-61 18h-5q-10 2 -61.5 26t-69.5 28t-59 22t-122.5 74.5t-135.5 140.5q-19 38 -43 74q-45 59 -64 235v47q5 110 53 199.5t54 108.5 q67 92 161.5 154.5t145.5 80.5l82 41q37 14 59 14zM732 1251q-24 0 -45 -8t-48 -21.5t-45 -18.5t-77 -35t-69 -44t-30 -26t-31 -27q-48 -67 -72 -80q-4 -2 -24.5 -41t-41 -102.5t-20.5 -114.5h-4l1 -3l-1 -21h4q0 -31 4 -45q29 -119 78 -203q16 -37 51 -66q6 -10 40 -36.5 t36 -28.5q29 -39 160 -94q19 -16 66.5 -31t75.5 -15t70 -19q137 -62 345 -62l31 4l22 -2h23l133 -2q12 0 33 4q2 -4 56.5 -2t80.5 13t92 15.5t96 20.5t75.5 24.5t90.5 36.5l39 12q100 36 182 129q27 10 66 68q113 166 113 279q-6 127 -56 223q-23 43 -35 57.5t-60 63.5 t-95.5 81t-65.5 46t-67 29.5t-59 23.5t-44.5 17t-67.5 23q-34 13 -163 36q-76 0 -152 20l-16 -2q-6 0 -43 6l-133 -4l-17 2l-28 -2l-31 4q-98 -10 -262 -35q-8 -2 -72.5 -24.5t-88.5 -22.5zM270 709h2v24h-2q0 127 146 307q102 94 133 95q2 0 86 41t123 41q10 2 75 25.5 t121 23.5q14 14 80 14h10l106 6q106 6 206 6q200 0 456 -86q72 -20 166.5 -75.5t149.5 -129.5q27 -27 66.5 -97t39.5 -120v-4l2 -2v-1l5 -56l-5 -55l-2 -7v-4q0 -27 -24.5 -85t-41.5 -82t-45 -58.5t-86.5 -82.5t-109.5 -65t-78 -29.5t-159 -55.5q-88 -18 -219.5 -34 t-157.5 -16t-35 3q-121 0 -162 4l-170 22q-34 2 -106 23.5t-98 28.5t-62.5 19.5t-81 27t-117.5 75.5q-2 2 -20.5 13.5t-33.5 24.5t-46.5 40.5t-71 104.5t-39.5 176z" glyph-name="quotesingle" horiz-adv-x="2521" unicode="'"/><glyph d="M812 135q-85 0 -257 60q-10 4 -49 25.5t-55 37.5q-117 115 -172.5 221.5t-55.5 241.5q0 76 23 156q0 25 19.5 75.5t49.5 97.5t114 118q166 141 409 141q197 0 391 -174q43 -43 98 -125q78 -101 78 -236l8 -80q0 -8 -4 -28q-39 -281 -258 -422q-25 -16 -31 -25 q-39 -39 -131 -61.5t-177 -22.5zM123 545v6q0 9 -10 37t-11 119l2 69v10q3 181 93 314t110 143q90 72 236 146q35 18 110 26.5t89 16.5t31.5 9t37.5 1t29 2l71 -12q86 0 193.5 -43t185.5 -121t123 -141.5t80 -165.5q14 0 28.5 -68t14.5 -127l2 -21q0 -162 -22 -210 q-35 -121 -104 -220.5t-212 -195.5t-319 -109q-170 0 -293 33q-117 42 -196 106t-99 78q-8 12 -42 55.5t-46 65.5t-47 77.5t-35 119.5zM903 1354h-8l-55 4l-107 -6q-72 -16 -86 -14q-15 3 -129 -52q-338 -188 -338 -596q0 -240 195 -430q72 -55 114.5 -84t121.5 -56.5 t163 -27.5l35 2h33q180 -2 332 105q270 194 280 489q0 199 -73.5 324t-215.5 235q-39 33 -121.5 70t-140.5 37z" glyph-name="parenleft" unicode="("/><glyph d="M1767 1370h2q8 -2 39 -18t115 -35l4 -2q2 -2 13.5 -5t17.5 -8t35.5 -15t59.5 -32t56 -34v-2q63 -41 95 -80h2q2 -2 18.5 -12t30.5 -44q16 -10 54 -63t52 -98q8 -39 24.5 -95t16.5 -94v-28q2 0 2 -3q0 -133 -129 -327q-16 -33 -41.5 -54.5t-29.5 -25.5q-29 -35 -152 -117 q-6 -6 -55 -31.5t-70 -25.5l-17 -6q-16 -6 -30 -12.5t-22 -8.5t-42 -15t-47 -13h-2l-22 -13q-37 -15 -135 -22q-9 -3 -66 -13q-49 -14 -119 -14h-8q-20 0 -45 -4q-33 0 -39 2h-6l-92 2l-29 -2l-30 2h-2l-33 -4q-116 10 -291 39l-2 2q-14 2 -46 13.5t-45 13.5t-43 14t-46 12 l-2 -2q-4 0 -16 4t-42.5 10t-76.5 35q-45 29 -93.5 53t-72.5 42q-25 25 -35 28l-6 6q-47 39 -107 113v2l-4 4q-14 8 -14 25h-2q-47 88 -52 108q-43 92 -43 185q0 2 2 4l-2 18q0 72 43 184q6 27 52 107l2 2l14 25q104 113 127 131q23 17 45 35q23 18 76 40q33 23 82 45 q50 21 54 23l22 11q18 9 25 13.5t8 4.5l26 2q25 2 170 43h2q32 7 116 23t134 16q49 0 51 -2l55 2q8 -2 13 -2l108 2h6l84 -4h8l93 -9q43 -14 86 -14l6 -2l80 -12q45 -23 77 -23zM2312 651q0 4 3 7q3 4 3 44t-1 54t-2 17t-2 4t-1 5t1 10t-11 44.5t-29 66.5q-47 106 -92 152 q-135 135 -249 173t-122 48q-43 7 -78.5 24.5t-180 35.5t-149.5 18l-124 4l-100 -4q-106 0 -152 -11h-16q-16 0 -45 -8h-2q-10 -4 -33 -4l-33 -8q-88 -17 -145 -39l-2 -2q-8 -2 -30 -7t-34 -9l-20 -9q-12 -4 -34 -13t-32 -13t-50 -27t-71 -26q0 -2 -51 -43t-115.5 -106.5 t-89.5 -123.5q-39 -78 -39 -166q2 -4 2 -22q4 -16 -2 -23q0 -59 39 -166q55 -121 166 -206l43 -39q53 -41 86 -41q66 -35 148 -64l20 -8q14 -6 34.5 -10t29.5 -8h2q59 -25 92 -25q25 -8 49.5 -10t69.5 -17h2q18 -8 45 -8h10l29 -4l247 -12q151 0 233 16.5t281 67.5l5 2 q55 12 112 43q93 30 148 80.5t103.5 92t94.5 154.5l21 40q20 41 19 58t-1 21zM1663 1274q4 0 47 -19t105 -26l104 -43q41 -20 85 -52t81 -54t47 -58h2q43 -39 72 -98q55 -86 55 -182t-29 -173q-15 -60 -60.5 -108.5t-62.5 -77.5q0 4 -55.5 -43.5t-97.5 -71.5 q-18 -16 -66.5 -29.5t-66.5 -29.5l-56 -14q-135 -41 -204 -52q-74 -25 -205 -24l-96 2h-58l-5 1l-46 -3q-199 0 -299 45q-8 4 -77.5 19.5t-149.5 54.5q0 -6 -61.5 26.5t-90.5 50.5q-115 93 -119 107.5t-46 68.5t-62 214h-4l2 12q0 6 -2 12h4q6 55 20 113q43 127 64 141 q4 2 24.5 30.5t71.5 71.5t93 63q157 73 204 87q-2 -2 39 5.5t90 31.5q16 4 31.5 8t79 19.5t188.5 15.5l7 -1l50 1q8 -2 12 -2l124 2q94 0 161 -20.5t156 -20.5z" glyph-name="parenright" horiz-adv-x="2506" unicode=")"/><glyph d="M5247 391v-12l2 -74l-8 -123l4 -88q0 -57 -6 -59q-7 -2 -17 -2t-36 -7q-26 -8 -166 -8q-138 0 -228 5l-51 -3q-18 0 -44 6t-187 5l-160 -6l-360 6l-220 -6l-32 2l-109 -7l-84 3h-141l-178 4l-265 -9l-200 5l-66 -3l-96 3l-78 -3l-4 3q-94 -4 -127 -5l-264 9l-178 -4h-142 l-84 -3q-4 0 -108 7l-33 -2l-217 6l-363 -6l-159 6l-230 -11l-53 3q-82 -5 -97 -5h-120q-104 0 -170 9.5t-66 14.5l5 146l-9 121l4 82l-2 55v25l2 203q0 135 5 203l-5 51q0 32 9 104l-2 51q-2 25 3 70t5 64l-4 178q0 27 6 29t29 12h6l24 -2l119 8h37l78 -4h26l72 -4 q18 -2 53 3t51 5l162 -8l92 4l193 -4l115 6h51l301 10l59 -2l35 2l45 -4q10 0 15 2l12 -2q18 4 55 4l301 -10h111l164 4l155 -2v2q0 -2 50 -2t85 4l47 -6l35 4l23 -2h47l82 4q14 0 14 -2v-2l156 2l166 -4h108l301 10q37 0 56 -4l14 2q4 -2 14 -2l11 1l67 1l62 2 q86 0 188 -10h162l114 -6l193 4l23 -1l172 5l163 -8l70 4h29l78 4q121 0 135 -4t20 -4l25 2q41 0 41 -15.5v-23.5l-2 -39l6 -273q0 -27 -2 -38l8 -119l-4 -51q6 -99 6 -486zM324 1389q-152 0 -152 -21v-39l-8 -309l6 -184q-8 -86 -8 -125v-21l-6 -182l8 -244v-55l6 -78v-20 q0 -35 12 -35h17l176 -10l203 8h67l90 6l62 -2l22 2q14 2 44 0t38 -2l381 4l41 -2l90 6q27 0 60 -4h34l16 -2l126 2l82 -4h211l133 4h20l70 6l125 -12l315 8q23 0 72 -4q57 4 170 4l215 -8l125 12l69 -6h19l135 -4h213l78 4l78 -6l65 6h35q37 4 59 4l88 -6l43 2l138 -4 l325 2l23 -2l61 2l90 -6h68l205 -8l176 10h14q12 0 12 33v22l9 78l-2 74q0 104 8 186v23l-6 198v27l-7 131l3 172l-7 285q0 37 2 53q0 16 -3 19t-19 3l-131 9h-90l-152 -11l-110 8l-29 -2l-49 7l-172 -13q-129 0 -221 11h-86l-283 12l-162 -8l-27 1l-188 -3 q-42 4 -82.5 -0.5t-56.5 -4.5l-246 13l-283 -13l-75 7l-22 -1l-148 -1h-13l-86 6q-23 -2 -65 -2l-105 4l-245 -13l-117 7l-21 -2l-27 1l-190 1l-159 8l-285 -12h-64l-241 -11l-164 13l-57 -7l-31 2l-111 -8l-151 11h-90z" glyph-name="asterisk" horiz-adv-x="5351" unicode="*"/><glyph d="M1507 1323q84 0 84 -18l-2 -39l6 -179l-2 -149v-154q0 -188 -4 -200q0 -74 6 -148l-2 -88h2l-4 -164v-32q0 -20 -168 -21l-92 8l-71 -6l-15 2l-45 -4q-16 -2 -45 3t-41 5l-194 -8l-213 8l-84 -8l-48 4l-14 -2l-17 1l-147 -3q-168 0 -168 21v34l-2 203h-4q0 111 4 141 l-6 285l8 457v33q0 18 84 18h84l86 -6l92 6h7l41 2l114 -8l60 2l286 -2l117 8l37 -2h8l23 -1l155 1h84zM1710 342h2l-2 -31v-37l-4 -98l1 -76q1 -76 -8 -79t-16 -5h-24l-113 -6h-4l-53 4h-21l-67 2q-49 0 -96 -6l-80 6l-60 -2l-143 2h-25v-4q-131 4 -194 4l-150 -2h-15 l-124 -4q-39 6 -96 6l-70 -2h-20l-52 -4q-92 0 -110 6h-25q-27 0 -28 15q-2 6 -2 14l2 131l-7 96q0 14 3 23h-5v170l-2 53v55l2 52l-2 153l11 500l-2 129q0 31 32 31l15 -2l102 6h4l16 -1l80 -1q37 -4 58 -4q30 6 57 6l117 -8l74 6l79 -2l150 6l102 -4v-2l25 -2l129 4l72 -6 l73 8l105 -6q20 0 57 4l33 -2l63 4q86 0 94 -3t13 -3l12 2q32 0 33.5 -9.5t1.5 -14.5v-7l-2 -27l4 -200v-25l2 -43h-2v-487l2 -52l-2 -28q2 -10 2 -27l-2 -53v-123zM223 1354q-28 0 -28 -18v-9q0 -14 2 -22l-9 -529q0 -84 2 -127l-2 -51q0 -18 2 -29l-2 -30l2 -191h3v-14 l4 -90l-2 -117q0 -15 8 -19t14 -6h21q47 -4 94 -4l51 2h25l63 2l94 -4l62 4l55 -2l133 2l90 -4l84 2v2h23l127 -2h15l101 -2l95 4l61 -2h27l51 -2q76 0 88 4h20q27 10 29 25l-2 117l4 90v16l2 39h-2v109l2 45q0 16 -2 24l2 27l-2 45v428h2l-2 27v26l-4 94l2 113q0 23 -8 25 t-16 2h-15l-104 6h-4l-129 -6q-43 0 -86 6l-18 -2l-107 -2l-150 -2v4h-16l-90 4l-119 -8l-82 2l-55 -4l-70 8q-37 -6 -86 -6l-129 6l-98 -4q-4 -2 -11 -2h-10z" glyph-name="plus" horiz-adv-x="1814" unicode="+"/><glyph d="M1708 614v-84l-2 -61l2 -111v-6q0 -14 -2 -22v-37l-4 -96l2 -127q0 -31 -12.5 -37t-51.5 -6q-16 -4 -102 -4l-37 1l-196 -1h-9l-4 -3l-75 9l-16 -1l-132 -1h-4l-72 -4q-6 2 -20 2l-39 -2l-184 4h-5l-83 -2q-23 0 -52 4l-78 -9l-12 3h-10l-84 4l-147 -4h-17 q-104 0 -128.5 6t-24.5 41l4 127q0 10 -5.5 71.5t-5.5 224.5v91q0 20 2 30l-2 162q0 219 11 502l-4 125q0 45 47 45l16 -2q66 6 107 6l33 -2l198 2h10l78 -6l64 4l83 -2h3l129 6l143 -8l45 2h4l84 2q23 0 51 -4l92 6h9l102 -6l131 6q98 0 104 -6h5l4 2q33 0 43 -9t10 -36 l-2 -125l4 -96v-37l2 -25v-4l-2 -467q0 -23 2 -35zM485 1382h-4q-10 -2 -37 -2l-102 6q-131 0 -162 -6h-4v-39l-10 -505l8 -234v-4l-2 -2v-4l2 -14l-2 -52v-2l2 -4v-2q0 -57 -6 -106v-6l2 -52l6 -258l2 -4h2l90 -4l174 6q27 0 37 -2h4l41 -4l15 2l41 -4l102 8l238 -8 q33 0 110 8l193 -8l43 4l20 -2l41 4h4q12 2 37 2l174 -6q94 0 94 6l-2 37l6 166l-2 16l5 74l-7 129v86l2 25v2q2 75 2 225l3 285l-9 202l2 37q0 8 -94 8l-174 -6q-25 0 -37 2h-4l-94 7l-102 -9l-551 9l-37 -5q-37 -2 -60 -2z" glyph-name="comma" horiz-adv-x="1810" unicode=","/><glyph d="M3422 737q0 -39 -43 -129q-34 -48 -84.5 -77t-80.5 -45.5t-133.5 -56t-150.5 -55.5q-47 -15 -116.5 -44.5t-121.5 -49.5t-245.5 -82.5t-294.5 -105.5q-254 -92 -391 -92q-179 0 -626 171t-531 201t-106 42t-106.5 41.5t-147 64.5t-99.5 88q-43 86 -43 139t22.5 86 t129.5 101q33 18 111.5 42.5t119.5 47.5q45 20 107.5 33.5t92.5 28.5t119.5 42t319.5 107q230 79 382 139t231 60l20 -2l29 2q84 0 209 -50t281.5 -104.5t234.5 -85.5q55 -27 158.5 -53.5t144.5 -43.5t81.5 -26t106.5 -33t123 -43q297 -96 297 -258z" glyph-name="hyphen" horiz-adv-x="3524" unicode="-"/><glyph d="M1708 338q0 -14 -2 -23v-36l-4 -97l2 -127q0 -31 -12.5 -37t-51.5 -6q-16 -4 -102 -4l-37 1l-196 -1h-9l-4 -2l-75 8l-16 -1l-132 -1h-4l-72 -4q-6 2 -20 2l-39 -2l-184 4h-5l-83 -2q-23 0 -52 4l-78 -8l-12 2h-10l-84 4l-147 -4h-17q-104 0 -128.5 6t-24.5 41l4 127 q0 11 -5.5 71.5t-5.5 225.5v90q0 20 2 31l-2 162q0 219 11 502l-4 125q0 45 47 45l16 -2q66 6 107 6l33 -2l198 2h10l78 -6l64 4l83 -2h3l129 6l143 -8l45 2h4l84 2q23 0 51 -4l92 6h9l102 -6l131 6q98 0 104 -6l5 2h4q33 0 43 -9.5t10 -35.5l-2 -125l4 -97v-37l2 -24v-4 l-2 -467l2 -62v-57l-2 -61l2 -111v-6zM485 1368h-4q-10 -2 -37 -2l-102 6q-131 0 -162 -6h-4v-39l-10 -506l8 -233l-2 -4l2 -21l-2 -57l2 -2q0 -57 -6 -107v-8l2 -51l6 -256l2 -4h2l90 -4l174 6q27 0 37 -2h4l41 -4l15 2l41 -4l102 8l238 -8q33 0 110 8l193 -8l43 4l20 -2 l41 4h4q12 2 37 2l174 -6q94 0 94 6l-2 37l6 166l-2 16l5 74l-7 129v86l2 24v2q2 76 2 226l3 284l-9 203l2 37q0 8 -94 8l-174 -6q-25 0 -37 2h-4l-94 6l-102 -8l-551 8l-37 -2q-37 -4 -60 -4zM1552 117q-4 0 -6 2h-4q-8 -4 -14 -4l-80 -2l-49 4q-6 0 -10 -2l-68 4l-74 -6 h-8l-68 6l-127 -2h-2l-20 2l-43 -4l-170 4l-41 -2h-2q-104 0 -117 2l-78 -6h-8l-19 1l-112 1l-20 2l-50 -4l-43 1q-43 1 -51 5h-4q-2 -2 -16 -2q-32 0 -31 39l2 108l-6 76l2 16q-4 4 -4 104v136l2 53q-2 45 -2 199t8 334l-2 108q0 39 41 39q4 0 6 -2h4q8 4 15 4l79 2l50 -4 q6 0 10 2l67 -4l74 6h8l68 -6l127 2h2l123 6q88 0 96 -8l55 2h2q104 0 117 -2l78 6h8l74 -6l57 4l21 -2l49 4l43 -1q43 -1 51 -5h4q2 2 16 2q32 0 31 -39l-2 -108l4 -84v-29l2 -18v-4l-2 -429l2 -26v-43l-2 -25l2 -24v-105l-2 -18v-29l-4 -84l2 -108q0 -39 -41 -39z M1534 629v2q4 147 4 432l-6 170l2 35l-143 6l-88 -8l-31 2l-4 2l-35 2q-8 0 -10 -2l-37 4l-111 -8l-33 2l-307 -2l-104 8l-37 -4l-16 2l-35 -2l-4 -2l-31 -2l-88 8l-144 -6v-31l-8 -471l6 -158v-71l-4 -125q14 -27 10 -109t-4 -94v-31l144 -6l88 8l31 -2l4 -2l35 -2 q8 0 10 2l37 -4l110 8l183 -8l157 8l105 -8l37 4l16 -2l35 2l4 2l31 2l88 -8l143 6l-2 31l6 217l-6 111v77q2 6 2 15z" glyph-name="period" horiz-adv-x="1810" unicode="."/><glyph d="M102 707v24q0 8 3 11t13.5 68t26.5 105q8 37 52 107l2 2q0 12 12 20q7 18 113 123l41 33l4 2q78 55 88 55t12 3l43 16q12 8 20 16l121 49h2l33 7q111 37 160 49h4q7 0 39 7t61 11t80 12.5t111 8.5l12 -2l53 2q8 -2 13 -2l108 2h8l84 -4h6l93 -9q41 -14 88 -14l6 -2 l80 -12q74 -23 78 -23h2q129 -43 153 -55h4q2 -2 12.5 -5t16.5 -7.5t40.5 -15.5t50.5 -26q17 -14 52 -33t71 -55t55.5 -52t29.5 -38q14 -12 52 -64t54 -97q8 -39 24.5 -93.5t16.5 -97.5v-26q0 -37 -41 -191q-10 -45 -58.5 -98.5t-76.5 -102.5l-14 -14q-14 -14 -23.5 -21.5 t-34 -30t-36.5 -29.5l-66 -40q-12 -10 -62 -34t-63 -23l-157 -55h-2l-9 -9l-155 -28l-37 -6q-18 -18 -144 -19h-6q-18 0 -47 -4l-37 2h-8l-92 2l-29 -2q-14 0 -20 2l-45 -4q-233 23 -291 41h-4q-70 10 -121 35q-57 6 -72 20h-2q-55 20 -67 27l-27 4q-49 14 -82 47l-20 10 q-76 38 -92 54l-41 32q-6 6 -31.5 27t-75.5 86v2l-4 4l-14 23l-2 2q-49 95 -52 108q-43 96 -43 183zM2322 649q0 4 3 9q3 4 3 62t-3 62t-3 9v6q0 15 -38 109t-86 143q-12 27 -86 87t-122 78t-97.5 39t-69.5 29q-31 0 -149 42t-371 42q-39 0 -123 -4q-137 0 -215 -19h-2 q-10 -4 -33 -4q-4 -4 -73 -17t-107 -32h-2q-10 -6 -32 -10t-32 -8l-20 -8q-12 -4 -82 -38t-103 -42t-128 -100.5t-132 -174.5l-10 -20q-31 -89 -30 -120q1 -30 1 -40v-27l-2 -4q0 -90 33 -149q31 -92 90 -159.5t99 -91.5t94 -50t102.5 -46t67.5 -28l20 -8q47 -10 64 -16 l2 -3q14 -6 40 -11t48 -12t51 -10t74 -18h2q23 -8 45 -8h10l80 -8q10 -2 89 -3t89 -3l115 4q16 0 118.5 12t118.5 16h8q11 4 68 14.5t133 40.5q76 31 119 44.5t80 44.5l26 16q119 85 134 125q55 55 90 152q35 76 34 100v6zM1819 193q-4 0 -37 -15.5t-66 -15.5h-2 q-31 -16 -50 -17.5t-43 -5.5l-48 -8h-4q-21 0 -33 -6l-4 -6q-23 -10 -123 -10l-6 2l-76 -5h-6q-47 0 -57 3q-43 0 -50 -3l-28 3h-2q-18 0 -21 -3q-96 0 -268 33h-2q-4 2 -13.5 4t-16.5 4.5t-48 20.5t-80 16h-4q-8 0 -53 17.5t-53 23.5t-13 2q-14 -12 -145 78l-4 2q-4 4 -7 5 l-30 24q-70 57 -94 98h-2q-8 6 -17 25v2q-33 48 -47 90q-39 127 -39 143t2 24q2 7 -2 15q0 49 39 154q10 40 47 92v2l17 25h2q51 68 94 96q10 10 21.5 18t15.5 13l94 51l2 2q45 10 62 26q82 41 110 41l33 15q74 23 129 30l2 2q25 4 35 7l86 13q85 13 139 13l7 -1l44 -1h8 l107 2h6l76 -4h6l68 -6q20 0 92 -14h6q4 -1 70 -13l69 -18h2l47 -14q9 0 38.5 -9.5t49.5 -23.5h2q80 -14 119 -53q18 -14 45 -27q12 -12 44 -35.5t42 -34.5v-2q4 -4 17.5 -13t27.5 -32q22 -15 54 -62.5t43 -78.5q37 -111 36 -162v-22q-8 -137 -94 -254q0 -2 -29.5 -31.5 t-28.5 -35.5t-7 -13q-55 -61 -103 -84q-6 -6 -11 -9l-40 -24q-12 -10 -43 -20q-51 -29 -70 -29q-32 -16 -36 -16zM2208 708v38q0 39 -8.5 56t-22.5 59.5t-47 88.5q-23 45 -113 120t-182 99q-18 8 -20 9q-13 -4 -71 18q-116 44 -155 45q-162 29 -313 29l-88 -4l-135 -9h-17 q-33 0 -41 -8q-14 0 -188 -43l-2 -2q-13 -5 -57 -14l-19 -8q-6 -2 -40 -12.5t-74.5 -26.5t-112.5 -68q-12 -12 -58.5 -54t-62.5 -62.5t-42 -75.5t-33 -97t-6 -46.5t0 -5.5t4 -12t-5 -22q-4 -66 29 -127q63 -121 153 -194q68 -68 117 -68q12 -6 131 -55q32 -10 49 -14t27 -9 h2q18 -10 82.5 -26.5t105.5 -16.5q8 -8 41 -8h11q8 -2 69 -8q127 0 160 -4q150 0 260.5 20.5t113.5 20.5t70 17t115 42q122 24 188 97t86 93t43 68q23 47 37.5 75t14.5 56q4 14 4 49z" glyph-name="slash" horiz-adv-x="2508" unicode="/"/><glyph d="M5247 387v-12l2 -76l-8 -123l4 -86q0 -47 -3 -55t-32 -8q-50 -15 -70 -15l-215 2l-141 2l-47 -2q-14 0 -47 6t-180 7l-195 -7l-278 7q-207 0 -258 -9l-33 2l-123 -4l-92 2l-84 -2l-277 7l-209 -11l-163 6l-115 -4l-107 4l-184 -6h-2l-207 11l-278 -7h-21h-153l-125 4 l-33 -2q-51 8 -256 9l-281 -7l-194 7q-59 0 -174 -4q-41 -8 -52 -9l-49 2l-102 -2q-4 0 -84 -1t-174.5 4.5t-100.5 33.5l5 131l-9 121l4 84l-2 55v24l2 204q0 135 5 202l-5 50q0 23 9 104l-2 53q-2 25 3 70t5 63l-4 177v15q0 14 5 16.5t14.5 4t13.5 3.5t8 2l4 2l18 -2l113 8 h33l80 -4h38l95 -4l131 8l104 -11l86 7l184 -4l187 6l74 -2l237 12l62 -2h24l47 -2h23q16 4 51 4l301 -12l94 2h29l119 4q61 0 192 -4v2q0 -2 13 -2l67 4l105 -4l36 4q16 0 62 -4l35 2q33 2 49 2t16 -2v-2q131 4 195 4l119 -4h28l94 -2l299 12q33 0 52 -4h24l45 2h27l61 2 l236 -12l74 2l184 -6l186 4l86 -7l105 11l133 -8l92 4h41l80 4q106 0 120 -4t21 -4l19 2q43 0 45 -11.5t2 -18.5v-9l-2 -41l6 -271q0 -27 -2 -39l8 -120l-4 -50q6 -96 6 -485zM172 1362v-39l-2 -77v-417q-8 -82 -8 -124v-21l-6 -180l8 -246v-53l6 -78v-21q0 -37 14 -36h21 l164 -11l383 17l53 -2h41l301 -2l139 6l41 -2l84 6l35 -4h61l15 -2h90h37l67 -2h15l192 -2l154 6l28 -2l52 8l133 -12l315 6q47 0 72 -2q55 4 170 4l215 -8l133 12l51 -8l29 2l155 -6l193 2h12l66 2h39l10 -1l94 3h62l34 4l84 -6l41 2l142 -6l299 2h39l55 2l383 -17l166 11 h20q12 0 12 32v25l3 19l4 130q0 107 8 189v22l-6 197v27l-7 131l3 172l-7 284q0 38 1 54t-2 19t-89 8t-164 5l-139 -12l-112 8h-29l-47 6l-187 -14l-227 12h-65l-275 13l-197 -11l-90 7l-118 -7h-19l-100 -4l-244 11l-80 -2h-65l-140 -9l-67 4l-96 -6q-147 10 -168 11 l-99 -2l-86 4l-243 -11l-101 4h-16l-121 7l-88 -7l-197 11l-276 -13h-64l-229 -12l-176 14l-55 -6h-25l-119 -8l-139 12q-254 0 -254 -22zM221 446l2 402l-2 41l6 86l-2 39l6 112l-2 148q0 31 10.5 33t16.5 2h2l21 -2l106 6h4l62 -2h30l72 -4l102 8l21 -3l139 -1l143 -4 l127 6l58 -2l106 8h144l34 -2h19q12 4 39 4l235 -10h68l180 4l88 -4l76 4l59 -2l95 2l112 -4h70l233 10q27 0 41 -4h17l34 2h142l127 -8l223 12l279 -12h67l236 10q27 0 39 -4h18l35 2h141l109 -8l57 2l127 -6l143 4l78 -6l84 10q16 -2 100 -8l72 4h31l61 2q90 0 98 -3t9 -3 l18 2q18 0 27.5 -6.5t9.5 -7.5v-21l-4 -88l6 -172l-2 -31l6 -102l-2 -33q9 -113 6.5 -227t-2.5 -175v-14l2 -59l-2 -23v-149q0 -45 -4 -47t-9 1.5t-15 -8.5q-34 -10 -162 -10t-158 4l-41 -2q-13 0 -29 4t-151 4l-148 -4l-256 4q-123 0 -157 -6l-25 2l-21 -1l-132 -1l-127 -2 l-174 6l-150 -8l-377 10q-125 0 -160 -6l-24 2l-20 -1l-134 -1l-127 -2l-172 6l-149 -8l-24 1l-208 -1l-151 8l-172 -6l-125 2l-74 -2l-82 4l-24 -2q-35 6 -158 6l-256 -4l-148 4l-178 -8l-41 2q-49 -4 -110 -4t-113 3t-77 1t-36.5 14.5t-11.5 48.5t2 42l-6 125z" glyph-name="zero" horiz-adv-x="5351" unicode="0"/><glyph d="M1534 641q0 -8 -2 -14v-78l6 -111l-6 -213v-4l2 -31l-143 -6l-88 9l-31 -3l-4 -2l-35 -2q-8 0 -10 2l-37 -4l-111 9l-157 -9l-183 9l-104 -9l-37 4l-16 -2l-35 2l-4 2l-31 3l-88 -9q-23 0 -71 4.5t-73 1.5v31l-1 47q-1 47 4.5 90t-9.5 66l4 125v72l-6 157l8 471v31l144 6 l88 -8l31 2l4 2l35 2q8 0 10 -2l37 4l110 -8l33 2l307 -2l105 8l37 -4l16 2l35 -2l4 -2l31 -2l88 8l143 -6l-2 -35l6 -170q0 -285 -4 -432v-2zM1708 350q0 -14 -2 -22v-37l-4 -96l2 -127q0 -31 -12.5 -37t-51.5 -6q-16 -4 -102 -5l-37 1l-196 -1h-9l-4 -2l-75 9l-16 -1 l-132 -1h-4l-72 -5q-6 2 -20 3l-39 -3l-184 5h-5l-83 -2q-23 0 -52 4l-78 -9l-12 2h-10l-84 5l-147 -5h-17q-104 0 -128.5 6.5t-24.5 41.5l4 127q0 10 -5.5 71.5t-5.5 223.5v92q0 20 2 30l-2 162q0 219 11 502l-4 125q0 45 47 45l16 -2q66 6 107 6l33 -2l198 2h10l78 -6 l64 4l83 -2h3l129 6l143 -8l45 2h4l84 2q23 0 51 -4l92 6h9l102 -6l131 6q98 0 104 -6l5 2h4q33 0 43 -9.5t10 -35.5l-2 -125l4 -96v-37l2 -25v-4l-2 -467l2 -61v-58l-2 -61l2 -109v-8zM766 1341q-102 0 -117 -2l-78 7h-8l-74 -7l-57 4l-20 -2l-50 5l-43 -2q-43 -1 -51 -5 h-4q-2 2 -16 2q-32 0 -31 -38l2 -109q-8 -180 -8 -334t2 -198l-2 -54v-49l2 -51q0 -137 2 -139l-2 -17l6 -76l-2 -108q0 -39 41 -39q4 0 6 2h4q8 -4 15 -4l79 -2l50 4q6 0 10 -2l67 4l74 -6h8l68 6l127 -2h2l20 2l109 -4q5 0 42.5 -3t47.5 7l55 -2h2q104 0 117 2l78 -6h8 l74 6l57 -4l21 2l49 -4l43 1q43 1 51 5h4q2 -2 16 -2q32 0 31 39l-2 108l4 84v29l2 19v6l-2 123l2 24v43l-2 58l2 397v4l-2 18v29l-4 84l2 109q0 39 -41 38q-4 0 -6 -2h-4q-8 4 -14 4l-80 3l-49 -5q-6 0 -10 2l-68 -4l-74 7h-8l-68 -7l-127 2h-2l-20 -2h-2l-7 1l-23 4l-99 4 l-123 -7h-2z" glyph-name="one" horiz-adv-x="1810" unicode="1"/><glyph d="M113 1120q0 7 -11 51q0 18 7 27q-2 10 28.5 28.5t64.5 32t47 13.5t64.5 24.5t121 58.5t112.5 48q70 49 108 55q16 0 66 -28h4q29 -20 63 -33l3 -2q35 -13 124 -59t140 -58q29 -16 137 -55q23 -9 24 -31t-4.5 -116.5t-5.5 -192.5q4 -15 4 -33t-4 -23q2 -16 2 -53l-2 -80 l4 -149v-8l-2 -78v-6l-4 -105v-4l-4 -72l2 -10q0 -29 -289 -143q-29 -11 -45 -19q-146 -77 -198 -77h-2q-35 1 -110 31t-113.5 43t-55.5 30q-272 106 -272 135l2 2v4l-8 172v2l-2 99q0 92 4 106l-2 78l2 55l-2 60v8q2 4 2 6v12l-2 99v6l1 9zM1165 1051l-2 129l-47 20 q-2 0 -2 1t-36 11t-85 35t-71 38t-58 25t-93.5 43t-88.5 42l-2 2l-21 6q-16 -6 -139 -70q-59 -20 -127 -53q-69 -33 -121 -50q-52 -18 -63 -28l-23 -9q-22 -9 -28 -13l2 -21q-6 -49 -6 -119l6 -141v-6l2 -21l-6 -319q0 -39 4 -113l4 -71q0 -19 -1 -57t7 -38q43 -16 119 -59 l53 -27q106 -45 240 -88h2q35 -27 75 -26h3q12 -8 145 55q23 0 74 23.5t65.5 27.5t40 19t95.5 37t71 43q10 57 10 231l-4 192l2 197v2zM656 1368q17 0 57 -25h2q10 -10 53 -28l2 -2q19 -6 50.5 -23.5t34.5 -20.5t13.5 -8.5t14.5 -6.5t24.5 -10t41 -17t64.5 -26.5t95 -39.5h2 q16 -6 16 -22q4 -6 2 -24t-2 -87l-6 -145l4 -58q0 -2 -2 -6l2 -250v-8l-2 -49l2 -18l-4 -97v-4q0 -23 -4 -55v-19q0 -7 -38 -29.5t-249 -113.5q-102 -63 -161 -63h-2q-54 0 -100 22.5t-56 27.5l-80 40q-6 4 -117.5 51t-111.5 68v2l2 4l-6 149v2l-2 86l2 121v16l2 105l-2 33 v10q2 16 2 49l-2 37q-8 33 -9 188q0 25 17.5 33t49.5 17.5t54 31.5h2q22 3 113.5 51t140.5 64l19 10q55 37 72 37z" glyph-name="two" horiz-adv-x="1318" unicode="2"/><glyph d="M113 1106q0 7 -11 51q0 18 7 27q-2 10 28.5 28.5t65.5 31.5t47 13t131.5 58t165.5 74q70 49 108 55q16 0 66 -29h4q29 -20 63 -33l3 -2q35 -12 124 -58t140 -58q29 -16 137 -56q21 -8 23 -31q2 -22 -3.5 -116t-5.5 -193q4 -16 4 -34t-4 -21q2 -16 2 -53l-2 -80l4 -150v-8 l-2 -78v-6l-4 -104v-4l-4 -72l2 -10q0 -29 -289 -144q-29 -10 -46 -18q-166 -78 -197 -78h-2q-35 0 -181 60q-86 43 -98 43q-272 106 -272 137q0 2 2 6l-8 172v2l-2 98q0 92 4 107l-2 78l2 55l-2 59v6q2 6 2 9v12l-2 98v4l1 10zM1165 1036l-2 129l-47 21q-6 0 -65 24.5 t-83 35.5t-46 24.5t-58 25.5t-93.5 43t-88.5 41l-2 2l-21 7q-16 -6 -139 -70q-59 -20 -127 -53q-69 -33 -121 -50q-52 -18 -63 -28q-17 -6 -31 -13.5t-20 -9.5l2 -20q-6 -35 -6 -115l6 -145v-6l2 -21l-6 -319q0 -39 4 -113l4 -72q0 -18 -1 -56t7 -38q43 -16 119 -59l53 -27 q106 -45 240 -88h2q35 -27 75 -27h3q12 -7 145 56q23 0 74 23.5t65.5 27.5t40 19t95.5 37t71 42q10 55 10 232l-4 192l2 197v2z" glyph-name="three" horiz-adv-x="1318" unicode="3"/><glyph d="M2605 727l-2 -68q-2 -12 -12.5 -38.5t-13.5 -48.5t-15 -46t-32 -55t-36 -61t-86 -99q-172 -137 -399 -227q-156 -69 -469 -92h-16q-16 2 -29 2l-217 -4q-37 8 -130 15t-177 22q-221 25 -502 145q-125 51 -231 176q-96 134 -112.5 209.5t-23.5 130.5l11 100q0 53 67 189 q20 47 83 125t138 108l150 64q133 52 189 68t244 49q186 33 323 32l184 -2q43 0 49 2q119 -10 138 -16t104.5 -21.5t204 -43t219.5 -97.5q12 -12 108 -70.5t123 -105.5l41 -55q44 -55 60 -84t30.5 -72t21.5 -58t10 -41t5 -32zM145 688q0 -82 60 -194q27 -92 194 -230 q23 -18 69 -40.5t54 -29t84 -36t96 -32.5t112.5 -28.5t139.5 -31.5h19q25 0 160 -23q139 -8 221 -8q266 0 454 35q180 39 433 172q49 13 108 77t67 71q38 35 58 55.5t30 49.5q11 29 23.5 60.5t19.5 60.5t7 102t-25 138q-2 4 -7 23.5t-18.5 45.5t-54.5 67q-40 40 -78.5 80.5 t-72.5 66.5q-61 37 -66 41q-80 63 -256 118q-43 8 -161 42t-222 34l-239 6q-102 0 -237.5 -16t-143.5 -16l-19 2q-23 -2 -77 -16.5t-77 -17.5t-57.5 -14.5t-48.5 -13.5t-89 -32.5t-85 -38.5t-55 -29t-66 -37l-26 -21q-107 -91 -133.5 -134.5t-34.5 -73.5l-12 -25 q-48 -92 -48 -170h2l-1 -5l1 -34h-2z" glyph-name="four" horiz-adv-x="2707" unicode="4"/><glyph d="M5087 299q0 -113 -14 -113h-16l-127 -8l-295 15q-25 -4 -37 -5l-37 2l-229 -2l-105 5l-35 -3l-71 7q-16 -4 -41 -4h-27l-45 -7l-66 7l-61 -5h-147l-115 5h-19l-49 6l-90 -11l-131 5l-164 -5l-104 5l-33 -3l-72 7q-16 -4 -43 -4h-24l-47 -7l-64 7l-61 -5h-150l-114 5h-19 l-47 6l-90 -11l-178 5v2h-52v-2l-178 -5l-88 11l-49 -6h-20l-115 -5h-148l-61 5l-66 -7l-45 7h-24q-27 0 -43 4l-74 -7l-31 3l-104 -5l-231 2l-37 -2q-12 0 -37 5l-295 -15l-127 8h-14q-16 0 -17 113v57l-6 189l6 149v23l4 114q0 25 -2 37l4 349v30q0 25 117 25h80l108 -8 l91 6h18l45 4l123 -10q59 0 170 8h65l220 10l135 -6l76 2l94 -4h18l99 -4l161 10l68 -4l135 4l137 -4l66 4l164 -10l96 4h18l24 1l146 1l135 6l242 -12l178 8h20l142 2l164 -10l96 4h19l94 4l76 -2l135 6l219 -10h49l186 -8l123 10l47 -4h17l90 -6l108 8h80q117 0 117 -17 v-38l4 -250l-2 -142l6 -131l2 -53v-18l2 -93l-6 -188v-43zM5247 389v-12l2 -74l-8 -123l4 -88q0 -57 -6 -59q-7 -2 -17 -2t-36 -7q-26 -8 -166 -8q-138 0 -228 4l-51 -2q-18 0 -44 5t-187 6l-160 -6l-360 6l-220 -6l-32 2l-109 -7l-84 2h-141l-178 5l-242 -9l-186 4l-115 -4 l-107 4l-211 -4l-239 9l-178 -5h-142l-84 -2q-4 0 -108 7l-33 -2l-217 6l-363 -6l-159 6l-230 -11l-53 2q-66 -4 -123 -4h-99q-99 0 -165 9.5t-66 14.5l5 146l-9 121l4 82l-2 55v25l2 203q0 135 5 202l-5 52l9 102l-2 53q-2 25 3 70t5 63l-4 179q0 41 18.5 41h26.5l18 -2 l121 8h37l78 -4h26l97 -4q86 8 131 8l110 -8l92 4l193 -4l166 6l74 -2l227 12l59 -2q18 0 27 2l30 -2q31 -2 38 0l12 -2q16 4 51 4l324 -10h100l119 4l192 -2v2q0 -2 21 -2l121 2l40 -4l9 1l65 -1l27 2h4l82 4q14 0 14 -2v-2l195 2l119 -4h98l323 10q33 0 52 -4l14 2 q6 -2 16 -2l50 4q8 -2 26 -2l62 2l225 -12l74 2l165 -6l193 4l23 -1l172 5l141 -8l92 4h29l78 4q121 0 135 -4t20 -4l19 2q43 0 45 -12.5t2 -26.5l-2 -39l6 -273q0 -27 -2 -39l8 -118l-4 -52q6 -96 6 -485zM1978 139l103 4l4 -2l4 2h4l6 -1q6 -1 6 0t2 1l103 -4l203 8 l137 -4h166q29 0 90 4l24 -2l205 7l338 -13l203 8l139 -4h166q29 0 90 4l25 -2l204 7q121 -6 242 -7l115 5l182 -9l37 2l80 -2l198 4h33q33 0 35 6.5t5 10.5t3 6l2 35l-4 78l6 94l-2 59v15q0 346 -4 401l2 33l-6 102l2 31l-6 172l4 88q0 35 -6 35h-47l-119 6h-4l-55 -4h-21 l-55 -4l-119 8l-21 -3l-137 -1l-147 -4l-127 6l-57 -2l-174 10l-48 -2q-14 0 -20 2l-41 -2h-10l-4 -2h-6q-14 4 -21 4l-250 -10l-71 2h-23l-258 10l-125 -10h-113l-176 8l-47 -2q-14 0 -20 2l-39 -2h-10q-2 0 -7 -2h-4q-14 4 -43 4l-227 -10l-74 2h-22l-123 2h-58l-63 2 l-76 -4l-78 4l-168 -4h-22l-72 -2l-227 10q-29 0 -43 -4l-10 2h-11l-41 2q-8 -2 -20 -2l-47 2l-174 -10l-58 2l-127 -6l-147 4l-19 -1l-137 5l-120 -8l-56 4h-20l-56 4q-98 0 -116 -6h-25q-33 0 -33 -5v-30l2 -146l-6 -114q0 -18 2 -27l-6 -98l2 -41l-2 -401l-4 -74l6 -127 q-2 -10 -2 -51t5 -43t22 -2q35 -10 219 -11l108 2l37 -2q12 0 26 4t159 5l112 -5l244 7l203 -7l26 2q57 -4 88 -4h168l138 4z" glyph-name="five" horiz-adv-x="5351" unicode="5"/><glyph d="M1710 336h2l-2 -29v-39l-4 -96l2 -131q0 -29 -33 -29h-16l-113 -6h-4l-141 6l-96 -6l-80 6l-60 -2l-168 2v-4h-106l-103 4l-135 -2h-15l-124 -4l-96 6l-142 -6q-92 0 -110 6h-25q-30 0 -30 3v26l2 131l-3 56q-4 55 -1 63h-5v168l-2 53q0 16 2 27l-2 30l2 52l-2 153 l11 498l-2 131q0 29 3 29h40l2 2h4l114 4l144 -6l96 6l19 -2l120 -2l92 -2l146 8l92 -4h14v-4l168 2l60 -4l80 8l96 -6l143 6l109 -4q4 -2 10 -2h12q29 0 31 -8.5t2 -13.5v-7l-2 -27l4 -200v-25l2 -43h-2v-487l2 -52l-2 -30q2 -10 2 -27l-2 -53v-123z" glyph-name="six" horiz-adv-x="1814" unicode="6"/><glyph d="M661 -2q-28 0 -75 15.5t-115 51.5q-69 36 -211.5 93.5t-142.5 68.5q0 2 2 6l-10 277l4 162l-2 41l2 80q0 12 -2 22l2 84q0 213 -11 256q0 40 60.5 60t68.5 26q27 0 69 21.5t62 29.5t52 22.5t59 27t53.5 26t39.5 20.5l57 33l28 11q31 0 81 -31t70 -45t108 -51t106 -42 t46 -15.5t85 -31.5t57 -36l8 -23q-12 -94 -12 -268l4 -76l-2 -184q0 -127 4 -162l-1 -5l-1 -34l-10 -190q0 -6 2 -9q0 -27 -287 -135q-71 -34 -123.5 -54t-74.5 -31t-50 -11zM657 23q14 0 44 11t68.5 28.5t70.5 28.5t89.5 33.5t86 35t31.5 14.5t49 20.5t49 23.5q4 5 14 10 t12 14q10 90 11 264l-4 172v178q12 36 9 104t-3 88t-2 60q-2 41 -1 56t-112 53q-43 10 -124 51t-115 52t-62 30q0 -2 -33 14t-46 26t-29 11q-16 0 -59.5 -25.5t-55.5 -25.5q-36 -28 -93 -48t-115 -48t-87 -36q-29 -7 -73 -27t-44 -26l2 -24q-4 -33 -4 -151t6 -132l-6 -334 l8 -188l-2 -43q0 -51 15.5 -61.5t51.5 -27t68 -34.5q14 -14 115 -47q123 -59 169 -71t66.5 -20.5t34.5 -8.5zM166 786v35l-2 105q-8 29 -5 99.5t-3 94.5l6 25q11 21 59.5 37t59.5 20q23 0 117 49t110 55t44 21.5t58.5 31t43 15.5t36.5 -12q35 -25 47 -35q13 -11 55 -27 t144 -59q94 -33 102 -39t60.5 -25t52.5 -34q8 -8 6 -27t-1 -101.5t-7 -109.5q0 -94 2 -96l-2 -14l2 -78l-2 -29l4 -201q0 -102 -5 -158q-5 -57 -4 -65t-51.5 -33.5t-129 -55.5t-79.5 -32t-35 -17t-78 -39.5t-101 -33.5q-45 0 -139.5 43.5t-120.5 53.5t-135.5 60.5 t-104.5 55.5l2 4v4q0 152 -10 207l4 193l-2 39z" glyph-name="seven" horiz-adv-x="1314" unicode="7"/><glyph d="M117 219q0 2 2 8l-6 160l-4 117l4 160l-2 41l2 79l-2 25l2 84q0 203 -11 256q0 41 61.5 59.5t66.5 23.5t30 14t54.5 19.5t84.5 42.5t101 44q45 12 95 41.5t61 29.5t31 -9t40.5 -22.5t40.5 -21.5t138 -65.5t169 -69.5q32 0 60 -19.5t42.5 -29.5t22.5 -17.5t8 -5.5 q4 -8 4 -14q-12 -88 -12 -266l4 -78l-2 -184q0 -129 4 -160l-1 -5l-1 -34l-10 -193q0 -6 2 -8q0 -25 -287 -135q-27 -10 -116.5 -53t-129.5 -43t-108 27.5t-102 48.5q-158 65 -247 108t-89 45zM663 14q16 0 78 31q248 84 293 115q6 0 58.5 23.5t54.5 29.5q4 4 12.5 7 t11.5 16q10 111 11 262l-4 172v178q12 40 9 105t-3 85t-4 86l2 31q-4 25 -113 55q-63 12 -138 52.5t-97 48.5t-160 80q-12 4 -20 4t-56 -24.5t-62 -36.5t-44.5 -25t-64 -24t-97.5 -41t-80 -34q-117 -35 -117 -53l2 -22q-4 -33 -4 -152t6 -133l-6 -334l8 -188l-2 -43 q0 -43 13.5 -59.5t72.5 -39.5q51 -27 98 -43t69 -29t73 -34t90 -32t44 -12t27.5 -11.5t38.5 -10.5zM684 1357l88 -52q55 -14 154.5 -65.5t117.5 -51.5q10 -8 60.5 -26.5t50.5 -31.5q8 -8 6 -30t-1 -98t-7 -107q0 -94 2 -94l-2 -62l2 -30l-2 -80l4 -148q0 -104 -5 -158 t-3 -59q0 -25 -262 -125q-27 -10 -111.5 -49t-111.5 -39q-81 14 -160.5 52.5t-147.5 64.5t-178 84q-12 6 -11 11t-4 42t-5 215l4 148l-2 37l1 43q1 43 -1 51l2 78q0 193 -10 233q2 43 124 80q47 16 146.5 64.5t152.5 66.5q63 41 81 41t28 -5zM178 484q0 -52 8 -124 q-2 -2 -2 -24t1 -35.5t11.5 -26t17.5 -16.5t38 -19.5t55 -29.5q15 -15 78 -35l27 -8q32 -8 134 -50t123 -42t64 28q238 94 268 105q41 0 117 57h-2q12 4 12 51v17l7 194l-5 310q13 42 10 99t-3 75t-4 80l2 28q2 18 -77 38t-148.5 57.5t-78.5 39.5q-82 20 -157 78 q-12 4 -22 4q-10 -1 -55 -27t-67 -40t-98 -45t-135 -52.5t-89 -32.5t-30 -18l2 -18l-2 -146l6 -127q-12 -94 -9 -193.5t3 -151.5z" glyph-name="eight" horiz-adv-x="1314" unicode="8"/><glyph d="M2605 727l-2 -68q-2 -14 -12.5 -40.5t-14.5 -46.5t-15 -44t-31.5 -56t-29 -46t-32 -37.5t-31.5 -42.5q-51 -76 -211 -160q-43 -40 -123 -68t-94 -34q-88 -37 -260 -60.5t-207 -31.5h-10l-62 2l-192 -2l-141 14q-137 0 -363 57q-96 22 -212 71.5t-122 52.5l-39 20 q-27 6 -80 54.5t-105 114.5t-73.5 117.5t-40.5 196.5q0 82 13 115q70 186 143.5 280.5t210.5 157.5q162 82 502 148q53 6 151.5 20t155.5 14l192 -2q61 0 70 2q20 -6 71.5 -9t67.5 -7t203.5 -37.5t323.5 -126.5q12 -8 81.5 -46t116.5 -83t97 -125q14 -29 49 -91t55 -173z " glyph-name="nine" horiz-adv-x="2707" unicode="9"/><glyph d="M5247 387v-12l2 -74l-8 -123l4 -88q0 -57 -6 -59q-7 -2 -17 -2t-36 -7q-26 -8 -166 -8q-138 0 -228 4l-51 -2q-18 0 -44 5t-187 6l-160 -7l-360 7l-220 -7l-32 3l-109 -7l-84 2h-141l-178 5l-265 -9l-163 4l-115 -4l-27 1l-266 -1l-264 9l-178 -5h-142l-84 -2 q-4 0 -108 7l-33 -3l-217 7l-363 -7l-159 7l-230 -11l-53 2q-66 -4 -123 -4h-104q-105 0 -165.5 10t-60.5 14l5 146l-9 117l4 74v22q-2 20 -2 45v25l2 203q0 135 5 202l-5 52l9 102l-2 53q-2 25 3 70t5 63l-4 179q0 32 11 36.5t12 4.5h22l18 -2l121 8h37l78 -4h26l72 -4 l156 8l110 -8l92 4l193 -4l115 6l125 -2l227 12l59 -2q18 0 27 2l30 -2q31 -2 38 0l12 -2q16 4 51 4l324 -10h92l127 4l192 -2v2q0 -2 50 -2t85 4l47 -6l9 1l65 -1l27 2h4l82 4q14 0 14 -2v-2l195 2l127 -4h90l323 10q33 0 52 -4l14 2q6 -2 16 -2l50 4q8 -2 26 -2l62 2 l225 -12l125 2l114 -6l193 4l23 -1l172 5l163 -8l70 4h29l78 4q121 0 135 -4t20 -4l19 2q43 0 45 -10.5t2 -18.5v-10l-2 -39l6 -273q0 -27 -2 -39l8 -118l-4 -52q6 -96 6 -485z" glyph-name="colon" horiz-adv-x="5351" unicode=":"/><glyph d="M1708 346q0 -14 -2 -22v-37l-4 -97l2 -127q0 -31 -12.5 -37t-51.5 -6q-16 -4 -102 -4l-37 1l-196 -1h-9l-4 -2l-75 9l-16 -1l-132 -2h-2l-74 -4q-6 2 -20 2l-39 -2l-184 4h-5l-83 -2q-23 0 -52 5l-78 -9l-12 2h-10l-84 4l-147 -4h-17q-104 0 -128.5 6.5t-24.5 40.5l4 127 q0 11 -5.5 72.5t-5.5 223.5v92q0 20 2 30l-2 162q0 219 11 502l-4 125q0 45 47 45l16 -2q66 6 107 6l33 -2l198 2h10l78 -6l64 4l83 -2h3l129 6l143 -8l45 2h4l84 2q23 0 51 -4l92 6h9l102 -6l131 6q98 0 104 -6l5 2h4q33 0 43 -9.5t10 -35.5l-2 -125l4 -96v-37l2 -25v-4 l-2 -467l2 -61v-58l-2 -61l2 -109v-8zM485 1376h-4q-10 -2 -37 -2l-102 6q-131 0 -162 -6h-4v-39l-10 -506l8 -233v-4q0 -2 -2 -6l2 -15l-2 -51v-2q2 -2 2 -4v-2q0 -57 -6 -106v-9l2 -51l6 -256l2 -4h2l90 -4l174 6q27 0 37 -2h4l41 -4l15 2l41 -4l102 8l238 -8q33 0 110 8 l193 -8l43 4l20 -2l41 4h4q12 2 37 2l174 -6q94 0 94 6l-2 37l6 166l-2 16l5 74l-7 129v86l2 25v2q2 75 2 225l3 285l-9 202l2 37q0 8 -94 8l-174 -6q-25 0 -37 2h-4l-94 6l-102 -8l-551 8l-37 -2q-37 -4 -60 -4zM1552 125q-4 0 -6 2h-4q-8 -4 -14 -4l-80 -2l-49 4 q-6 0 -10 -2l-68 4l-74 -6h-8l-68 6l-127 -2h-2l-20 2l-43 -4l-170 4l-41 -2h-2q-102 0 -117 2l-78 -6h-8l-19 1l-112 1l-20 2l-50 -4l-43 1q-43 1 -51 5h-4q-2 -2 -16 -2q-32 0 -31 39l2 108l-6 76l2 17q-4 4 -4 104v135l2 53q-2 45 -2 199t8 334l-2 108q0 39 41 39 q4 0 6 -2h4q8 4 15 4l79 2l50 -4q6 0 10 2l67 -4l74 6h8l68 -6l127 2h2l123 6q88 0 96 -8l55 2h2q104 0 117 -2l78 6h8l74 -6l57 4l21 -2l49 4l43 -1q43 -1 51 -5h4q2 2 16 2q32 0 31 -39l-2 -108l4 -84v-29l2 -18v-4l-2 -398l2 -57v-43l-2 -25l2 -24v-105l-2 -18v-29 l-4 -84l2 -108q0 -39 -41 -39z" glyph-name="semicolon" horiz-adv-x="1810" unicode=";"/><glyph d="M1204 428l-10 -192q0 -6 2 -9q0 -25 -287 -135q-27 -10 -116.5 -53t-129.5 -43t-108 27.5t-102 48.5q-158 65 -334 151l-2 2q0 2 2 8l-6 160l-4 117l4 160l-2 41l2 82l-2 22l2 84q0 203 -11 256q0 41 61.5 59.5t66.5 23.5t29 14.5t53.5 19.5t68.5 28t90 41t79 37.5 t44 23.5t24.5 14t14.5 9q6 5 19 5q25 1 36 -4l96 -58q5 -3 43 -16q201 -109 248 -109q10 -10 69.5 -32.5t59.5 -32.5l8 -21q-12 -106 -12 -268l4 -78l-2 -184q0 -125 4 -160l-4 -18zM1184 1044q0 20 -4 86l2 31q0 14 -113 56q-61 12 -137 52t-98 48t-160 80q-12 4 -22 3 t-107 -52q-57 -35 -139 -68t-98 -41t-95.5 -36.5t-79.5 -37.5l2 -24q-4 -33 -4 -154l4 -110l2 -29l-6 -326l8 -186l-2 -45q0 -43 13.5 -59.5t72.5 -38.5q51 -25 97.5 -42.5t66.5 -27.5q152 -76 272 -103q49 0 104.5 31t99.5 47t96.5 36t67.5 27t28.5 13t54.5 30t59 27h2 q-2 2 4 62t7 211l-4 172v178q12 40 9 105t-3 85z" glyph-name="less" horiz-adv-x="1314" unicode="&lt;"/><glyph d="M1085 1106v-129l-2 -115v-2q0 -10 -2 -14l4 -326q-2 -6 -2 -82t-8 -121q-35 -31 -92 -49l-8 -8q8 14 -49 -8t-142 -66q-77 -47 -110 -47t-78 23h-2q-63 31 -133 51q-22 15 -54.5 25t-130.5 59q-37 0 -36 78l2 22l-4 62q-5 40 -5 100l7 279l-2 18v4l-5 98q0 100 5 129 l-2 13q-4 4 4 9t13 7t12 4t9 4l64 27q65 27 98 43l2 2q29 12 43 21l37 14q38 14 55 29q8 0 39 21.5t47 21.5l19 -7l2 -2q66 -37 128 -65.5t146 -69.5h2q14 -6 44 -16t44 -19q21 -5 41 -18zM113 1102q0 7 -11 51q0 27 25 51q16 6 68 23t65 30q33 10 135.5 60.5t151.5 66.5 q70 49 108 56q16 0 66 -29h4q29 -20 63 -33l3 -2q35 -12 124 -58t140 -58q29 -16 137 -56q21 -8 23 -29q2 -20 -3.5 -115t-5.5 -196q4 -14 4 -32t-4 -23q2 -16 2 -51l-2 -82l4 -150v-8l-2 -78v-6l-4 -104v-4l-4 -72l2 -10q0 -29 -289 -144q-29 -10 -46 -18 q-166 -78 -197 -78h-2q-35 0 -181 59l-45 19q-43 16 -53 27q-272 106 -272 135q0 2 2 6l-8 172v2l-2 108q2 2 2 43t2 54l-2 78l2 55q0 12 -2 37v28q2 6 2 9v12l-2 98v4l1 9zM311 1188h-2l-8 -6q-2 0 -21.5 -7.5t-39 -14.5t-36 -21.5t-16.5 -32.5l11 -225q0 -33 -2 -50v-30 q2 -2 2 -3l-2 -40v-88q0 -98 -2 -107l2 -100v-4q0 -68 6 -142l-2 -14q0 -6 6 -12t12 -6q41 -23 133 -62t178 -84t136 -45h2q31 0 108.5 38t97.5 46q242 96 242 123v6l4 68v4l4 98l-2 17l2 49v8l-2 96l2 160l-4 57l4 62q0 133 6 176q0 33 -20 41h-2q-82 35 -100 45 q-12 0 -98.5 44.5t-139.5 61.5l-2 2q-43 18 -53 29h-2q-43 25 -58 25q-98 -53 -252 -125q-54 -37 -92 -37z" glyph-name="equal" horiz-adv-x="1318" unicode="="/><glyph d="M274 729q0 156 168 311q24 29 89 63t76 43t78 33.5t77 26.5q119 18 246 50t346 30q98 -6 187 -6t154.5 -13.5t146.5 -38t114 -31.5t104.5 -47t85.5 -40q49 -16 115 -87t75 -78q45 -35 66 -105q25 -62 25 -108t-4 -71.5t-8.5 -41t-15.5 -38t-15 -30.5t-18.5 -30.5 t-17.5 -26.5q-19 -25 -85 -94t-117 -85l-30 -18q-164 -80 -327 -119t-435 -39q-86 0 -207 13.5t-143 13.5t-109 22.5t-115 27.5t-95 29.5t-72 29.5t-10 7.5t-11 3.5t-10 3q-70 35 -146 98.5t-110 142.5q0 2 -26 48t-26 118h2v4v29h-2zM2605 731l-2 -67q-2 -14 -12.5 -41 t-14.5 -47t-16 -45t-30 -53.5t-36 -60.5t-86 -100q-90 -78 -153.5 -112.5t-113 -59.5t-134.5 -60q-86 -34 -258 -57.5t-207 -31.5h-10l-62 2l-192 -2q-59 0 -156.5 14.5t-150.5 20.5q0 -4 -64.5 5t-303 79.5t-365.5 238.5q-74 92 -95.5 143.5t-40.5 196.5q0 82 13 115 q70 186 143.5 280.5t210.5 157.5q162 82 502 148q53 6 155 20.5t152 14.5l192 -3q61 0 70 3q20 -4 71.5 -8.5t64.5 -8.5t200 -35t330 -129q140 -84 202 -141q68 -68 88 -105t54.5 -99t54.5 -173zM2470 696h2v33h-2q0 23 -10.5 55t-14.5 50t-32.5 62t-34.5 56q-10 34 -66 82 t-98.5 74.5t-95 53t-90.5 50.5t-102 41t-149 30t-117 21t-75 10.5t-65 8.5q-6 -2 -62 -2l-172 2q-160 0 -450 -61q-188 -53 -295 -104.5t-183 -139.5l-4 -6q-111 -152 -110 -228v-8l-6 -47h-2v-33h2l6 -47v-10q0 -6 24 -68q90 -217 234 -286l246 -92q49 -18 88 -29 q291 -61 450 -62l172 2q55 0 62 -2q39 4 114.5 16.5t89.5 14.5q156 20 310.5 85t261.5 159q8 6 21.5 24.5t22.5 27.5t31.5 37t60.5 100.5t38 129.5z" glyph-name="greater" horiz-adv-x="2707" unicode=">"/><glyph d="M158 -2q-52 0 -52 9l5 161l-9 121l4 82l-2 55v25l2 202q0 135 5 203l-5 51l9 103l-2 53q-2 25 3 70t5 63l-4 178q0 41 17.5 41h27.5l18 -2l121 8h37l78 -4h26l97 -4q86 8 131 8l110 -8l92 4l193 -4l166 6l74 -2l227 13l59 -3q18 0 27 3l30 -2q31 -3 38 -1l12 -2 q16 4 51 5l324 -11h100l119 4l192 -2v2q0 -2 21 -2l121 2l40 -4l9 1l65 -1l27 2h4l82 4q14 0 14 -2v-2l195 2l119 -4h98l323 11q33 0 52 -5l14 2q6 -2 16 -2l50 5q8 -2 26 -3l62 3l225 -13l74 2l165 -6l193 4l23 -1l172 5l141 -8l92 4h29l78 4q121 0 135 -4t20 -4l19 2 q43 0 45 -10.5t2 -18.5v-10l-2 -39l6 -272q0 -27 -2 -39l8 -119l-4 -51q6 -98 6 -485v-13l2 -73l-8 -123l4 -88q0 -58 -6 -60q-7 -2 -17 -2t-36 -7t-166 -7q-138 0 -228 4l-51 -2q-18 0 -44 5t-187 5l-160 -6l-360 6l-220 -6l-32 2l-109 -6l-84 2h-141l-178 4l-242 -8 l-186 4l-115 -4l-107 4l-211 -4l-239 8l-178 -4h-142l-84 -2q-4 0 -108 6l-33 -2l-217 6l-363 -6l-159 6l-230 -10l-53 2q-66 -4 -123 -4h-278zM5028 1368h-90l-152 -10l-110 6h-29l-49 6l-172 -12q-129 0 -221 10h-86l-283 12l-162 -8l-108 4l-127 -6h-23l-96 -4l-246 12 l-283 -12l-71 6l-84 -6l-90 4h-13l-86 6q-25 -2 -73 -2l-97 4l-245 -12l-95 4h-22l-129 6l-109 -4l-159 8l-285 -12h-64l-241 -10l-164 12l-57 -6h-31l-111 -6l-151 10h-90q-152 0 -152 -20v-39l-8 -312l6 -182q-8 -86 -8 -127v-18l-6 -183l8 -243v-56l6 -77v-21 q0 -35 12 -35h17l170 -12l209 10h67l23 1l151 3l39 2l297 -2l131 4l41 -2l86 7q27 0 60 -5h34l64 -6q4 0 65 6l80 -4h70l137 -2l154 6h18l68 7l127 -13l315 8q23 0 72 -4q57 4 170 4l215 -8l127 13l67 -7h19l155 -6l136 2h69l80 4q55 -6 64 -6l65 6h35q37 4 59 5l86 -7l41 2 l133 -4l293 2l41 -2l84 2l90 -6h68l209 -10l172 12h14q12 0 12 31v25l9 77l-2 72q0 107 8 189v22l-6 199v26l-7 131l3 170l-7 287q0 37 2 53q0 31 -153 31zM221 430l2 401l-2 41l6 86l-2 39l6 115l-2 145q0 31 10.5 33t21.5 2h26q18 6 116 6l56 -4h20l74 -2l102 6l21 -2 l135 -2l147 -4l127 6l58 -2l174 11l47 -2q12 0 20 2l41 -2h13l4 -3l41 5l233 -11l72 2h22l168 4l78 -4l76 4l63 -2h58l123 -2h22l74 -2l231 11l41 -5l4 3h15l39 2q6 -2 20 -2l47 2l176 -9h113l125 11l258 -11h23l71 -2l234 11l41 -5q2 0 6 3h10l41 2q6 -2 20 -2l48 2 l174 -11l57 2l127 -6l147 4l18 -2l140 6l100 -6l74 2h21l55 4q98 0 117 -6h24q35 0 35 -35l-4 -88l6 -172l-2 -30l6 -103l-2 -33q9 -112 6.5 -222.5t-2.5 -178.5v-14l2 -60l-2 -24v-148q0 -39 -3 -45t-25 -6q-33 -10 -220 -10l-108 2l-37 -2q-9 0 -25 4t-157 4l-115 -4 q-121 0 -242 6l-204 -6l-25 2q-61 -4 -90 -4h-166l-139 4l-203 -8q-128 0 -338 12l-205 -6l-24 2q-61 -4 -90 -4h-166l-137 4l-203 -8q-10 -2 -46 1t-53 3l-133 -4l-202 8l-138 -4h-168q-31 0 -88 4l-26 -2l-203 6q-123 -6 -244 -6l-112 4l-185 -8l-37 2l-79 -2l-102 -1 q-102 -1 -146 11q-23 0 -25 5t-2 43t2 48l-6 127zM5087 281v43q0 115 6 170v18l-2 92v19l-8 184l2 141l-4 250v39q0 16 -188 16l-117 -8l-90 6h-17l-47 4l-123 -10q-55 0 -170 8h-65l-219 11l-135 -7l-76 3l-94 -5h-19l-96 -4l-164 11l-21 -1l-141 -1l-178 -9l-242 13 l-135 -7l-19 1l-151 -3h-18l-96 -4l-164 11l-66 -5l-137 5l-135 -5l-68 5l-161 -11l-99 4h-18l-94 5l-76 -3l-135 7l-220 -11h-49l-186 -8l-123 10l-45 -4h-18l-91 -6l-116 8h-5l-94 1q-90 1 -90 -25v-31l-4 -201l2 -184l-4 -115v-22l-6 -150l6 -188v-57q0 -111 15 -111 l143 -10l295 14q25 -4 37 -4l37 2l231 -2l104 4l31 -2l70 6q18 0 47 -4h24l45 -6l17 2h110h148l115 4h20l49 6l88 -10l178 4v2h52v-2l178 -4l90 10l47 -6h19l114 -4h150l61 4l64 -6l47 6h24q29 4 47 4l68 -6l33 2l104 -4l164 4l131 -4l90 10l49 -6h19l115 -4h147l61 4l66 -6 l45 6h27q29 4 45 4l67 -6l35 2l105 -4l229 2l37 -2q12 0 37 4l295 -14l143 10q14 0 14 111z" glyph-name="question" horiz-adv-x="5351" unicode="?"/><glyph d="M654 1448q24 0 81.5 -27.5t91.5 -52.5q94 -49 195 -90l18 -10h-2l105 -39q23 -8 51 -19q6 -4 8 -11t6 -13t4 -12q-12 -98 -12 -269l4 -76l-2 -2q0 -12 -5 -128.5t9 -213.5l-4 -18l2 -23l-10 -190q0 -6 2 -8q0 -4 -14 -13q-127 -68 -273 -122q-8 -4 -86.5 -45t-150.5 -52 q-55 0 -110.5 24.5t-105.5 48.5t-66 30t-53.5 21.5t-128.5 53t-91 52.5q0 2 2 8l-10 276l4 160l-2 41l1 47q1 47 -1 53l2 17l-2 115q-6 29 -4 105.5t-5 104.5q0 7 4 21t62.5 41t71.5 27q116 40 204 84t106.5 55.5t49 30t54.5 18.5zM1145 285l8 219l-4 147l2 82l-2 31 q0 53 2 55l-4 25l-1 104q-1 105 13 191q0 12 -8 20q0 12 -61.5 35t-65.5 27t-92 34t-168 83t-111 53q-6 0 -51 -27t-76 -36t-127.5 -60t-126.5 -51q-2 -2 -59 -24t-57 -56q10 -43 10 -234l-2 -78l2 -22l-2 -74l2 -37q0 -90 -4 -133l10 -268v-2q-2 -2 -2 -7q0 -4 74 -42 t134 -61q61 -23 141.5 -61t144.5 -48q28 0 113 41t108 49q260 109 260 125zM1124 392l1 -44q1 -43 -10.5 -60t-27.5 -20q-35 -18 -24 -16l-153 -60q-109 -44 -163 -71t-78 -27t-36 6l-47 19q-126 45 -150 57t-68.5 25.5t-58.5 27.5q-77 40 -87.5 46t-21 18t-11.5 25.5 t-1 39.5t2 25q-8 72 -8 152l4 145l-6 336l4 108q0 18 -2 21q0 18 107 51q30 4 68.5 25.5t46.5 24.5q124 44 151 71q8 0 47 23.5t51 23.5t56 -25.5t86 -42.5q42 -16 121.5 -56t146.5 -58q67 -19 67 -35v-6q-2 -4 -2 -13l5 -120q0 -131 -7 -148q4 -100 4 -305z" glyph-name="at" horiz-adv-x="1314" unicode="@"/><glyph d="M1172 8q-50 0 -218 22t-351 94.5t-226 102.5q-160 113 -238 320q-35 88 -35 164q-2 8 2.5 44t10.5 51t27.5 78.5t39.5 103.5t81 118t138 108l150 64q133 54 184 68t236 47q303 35 336 34l184 -2q43 0 49 2q118 -10 140 -16t106 -21.5t143.5 -28.5t140 -44t136.5 -68 q12 -12 108.5 -70.5t122.5 -105.5l43 -55q66 -88 84.5 -143.5t25.5 -70.5t10 -41t5 -32l-2 -67q-2 -12 -11.5 -39t-13.5 -49t-16 -46t-32 -55t-36 -61t-86 -99q-150 -133 -399 -227q-156 -69 -469 -92l-45 2l-217 -4q-57 14 -108 14zM975 70q25 0 160 -23q139 -8 227 -8 t242 11t205 22.5t131.5 39t102.5 33.5t104.5 52.5t95.5 46.5q58 22 118 87.5t62 67.5t18.5 17.5t35.5 35.5t29 48q11 28 30.5 75.5t19.5 133.5t-25 151q-2 4 -7 23.5t-18.5 45.5t-54.5 67q-40 40 -83.5 87t-88.5 72.5t-45 28.5q-80 63 -256 119q-43 8 -162 41.5t-221 33.5 l-239 6q-102 0 -237.5 -16t-143.5 -16l-19 2q-23 -2 -77 -16.5t-77 -17.5t-57.5 -14.5t-48.5 -13.5t-89 -32.5t-85 -38.5t-55 -29t-66 -37l-26 -20q-106 -90 -133 -134.5t-35 -74.5l-12 -25q-48 -92 -48 -170h3l-1 -5l1 -34h-3l17 -96q8 -66 76 -162q82 -92 132 -138 t120 -83l22 -10q127 -59 178 -72q29 -4 122 -29.5t142 -31.5h19zM221 637v10l-8 80v2l8 47v8q0 18 37 98.5t74 132.5t86 87t129 76q322 106 397 120q72 8 184 22.5t158 14.5l176 -2q55 0 64 2q18 -4 63 -7t59 -7t186 -32t300 -111q16 -12 84 -53t110 -77t113 -149 q33 -49 58 -172q1 -49 -9 -79l-13 -39t-7 -22.5t-10 -28.5t-18 -41.5t-37.5 -57.5t-47.5 -43q-4 -4 -16 -22t-35 -38t-57.5 -45.5t-80.5 -49t-67.5 -33t-79 -32t-98.5 -38.5t-198.5 -39t-196.5 -31l-10 2h-56l-176 -2q-48 0 -178 18q-131 18 -153.5 20.5t-59.5 9.5 t-146 37.5t-168 56.5t-93.5 43.5t-89 61.5t-83.5 91q-94 158 -94 211z" glyph-name="A" horiz-adv-x="2709" unicode="A"/><glyph d="M3375 1448l807 -18l545 8l246 -8q22 0 22 -14l-2 -99l12 -920l4 -133l-6 -96l2 -117q0 -35 -211 -35l-131 -4l-180 2l-43 9l-184 -3l-469 7l-404 -9l-344 5l-192 -11l-471 2l-113 -2l-147 8l-193 -2l-553 7l-260 -2l-387 2l-92 -11q-268 0 -500 15q-23 0 -22 22l2 119 l-9 129l17 1114q5 20 59.5 21.5t82.5 2.5t78 0t64 -1l146 -2l102 4l109 -6q2 0 665 12l314 4q8 -4 16 -4l236 -8l1314 4q30 0 70 8zM4913 1329q0 25 -19 25h-190l-174 -6l-201 6l-131 -8l-536 18l-36 -1l-241 -1l-315 -6l-227 6l-207 -6l-39 2l-74 -6l-319 8l-351 -2l-415 6 l-502 -18l-197 10l-186 -10l-164 10q-188 0 -188 -25q-15 -540 -15 -884t29 -345h6l164 -10l328 14l198 -2l533 5l368 -5l250 9l170 -9l391 5l338 -3l80 7l393 -11l283 7l393 -3l645 -14q154 0 158 31l12 358zM4631 164v4l-113 -2l-156 8l-604 -4h-235l-242 -2l-320 4 l-884 -6q-567 0 -848 8l-907 -4q-68 0 -68 29l2 82l-2 208q8 508 8 646t4 142.5t23 4.5l407 6l219 -6l338 10l396 -6l204 4l492 -4l235 8l265 -4l280 4l260 -8l363 8l610 -12l397 4h29q29 0 33 -2t19.5 -6.5t15.5 -38.5l6 -780l-2 -148l2 -116q0 -16 -75.5 -23.5 t-151.5 -7.5zM343 242q19 0 62.5 -5.5t318.5 1.5t538 8l243 -4l181 4l487 -4l113 8l196 -8l551 2h145l187 6l225 -6l332 4l743 -12h55q56 0 62 22l6 432l-6 299q-2 33 0 125t-14 96l-236 2h-90l-74 2l-204 -4l-324 13l-403 -9l-166 7l-322 -7l-207 9l-108 -4l-97 2l-188 -7 l-315 9l-396 -9l-356 11l-340 -13l-201 5l-141 -7l-108 4q-4 0 -35 1.5t-45.5 0t-47 -4.5t-32.5 -25l-6 -582l-1 -181q-1 -181 18 -181z" glyph-name="B" horiz-adv-x="5111" unicode="B"/><glyph d="M2189 786v-157l2 -70l-8 -117l6 -90q0 -50 -60.5 -57.5t-350.5 -7.5h-27l-45 -2q-14 0 -32 5t-177 5l-188 -8l-41 1h-121l-334 3h-53l-84 2l-88 -8l-45 2l-99 -2q-334 0 -338 39q0 63 5 88l-9 147l4 70v219h5q-2 8 -2 13l8 140l-2 100q-2 100 9 103.5t12 3.5h48 q18 6 129 6l20 -1l103 -1q54 -4 66 -4t86 6l153 -8l88 4l164 -2l271 4v-4l32 -2l172 4l88 -4l99 8l79 -3q78 -3 128 1l43 -2l80 4q104 0 129 -6h32q20 0 29.5 -7t9.5 -8v-24l-2 -168l6 -133v-24l2 -58h-2zM2134 1145q0 18 -231 18l-146 -8l-108 6h-23l-63 4l-156 -12l-92 4 l-422 -4l-158 12l-63 -4h-21l-110 -6l-146 8l-13 1h-116q-102 1 -102 -29v-50l-6 -243l2 -56h-4q-2 -12 -2 -34l6 -215v-68l8 -74v-20q0 -33 12 -33h19l155 -10l14 1l105 1l78 2h65l54 4l90 -4l20 2h101l161 4l150 -6l115 6l116 -4l80 4l29 -2q14 0 47 4l100 -8l95 4l165 -8 l158 10h19q18 0 18 127v51q0 132 6 195l2 37l-4 96h2l-6 252v45z" glyph-name="C" horiz-adv-x="2293" unicode="C"/><glyph d="M1545 1434q9 0 62.5 -4.5t78 -10.5t213.5 -42.5t309 -119.5q20 -20 112.5 -75.5t118.5 -100.5q2 -6 43.5 -58t57.5 -81t30.5 -72t21.5 -58t10 -41t5 -32l-2 -67q-2 -12 -11.5 -39t-13.5 -49t-16 -46t-32 -54.5t-36 -60.5t-86 -99q-178 -143 -399 -228q-141 -65 -469 -92 h-18q-16 2 -31 2l-184 -2q-101 0 -446 48q-79 11 -264 83t-222 101q-90 68 -137 124q-14 23 -44.5 69.5t-51.5 94t-40 176.5l-2 9q0 6 1 19t2.5 36.5t22.5 78.5q20 56 52 134t102 151.5t189 126.5q311 129 502 146q199 35 336 35l184 -2h52zM147 700q0 -47 31 -135 q0 -8 20.5 -49t64.5 -101.5t93 -101.5q31 -31 94.5 -63.5t72.5 -39.5t84 -38t95 -34t113.5 -28.5t140.5 -31.5h19q25 0 160 -23q139 -8 221 -8q266 0 454 35q174 39 408 160q16 8 32 13t42 24.5t43.5 37t46 48t41.5 43.5l18 18q49 44 70 96q6 14 15 38t19.5 48t10.5 106 t-14 120t-18.5 57.5t-18 45.5t-120.5 131t-183 144q-352 174 -607 174l-239 7q-102 0 -237.5 -16.5t-143.5 -16.5l-19 2q-23 -2 -77 -16.5t-77 -17.5t-57.5 -14.5t-48.5 -13.5t-89 -32.5t-85 -38.5t-55 -28.5t-57 -30.5t-27.5 -22.5t-23 -19t-25 -21.5t-27.5 -25.5 t-25.5 -26t-24.5 -28.5t-25.5 -36.5t-24.5 -56.5q-60 -90 -60 -195h3l-1 -5l1 -34h-3zM213 645v10l-8 50l8 79v11q0 18 42 100t96.5 160.5t172.5 126.5q119 47 246.5 86t183.5 45t170 20.5t162 14.5l178 -2q55 0 64 2q94 -8 118 -14t199 -34t295 -110q18 -12 84 -53t100 -70 q2 -4 14.5 -15.5t64.5 -61.5t104 -253q-1 -16 -17 -92t-37.5 -110.5t-55.5 -73.5t-45 -57t-36.5 -41t-45 -35.5t-62.5 -37t-49 -28.5q-178 -119 -631 -170q-8 2 -64 2l-178 -2q-47 0 -282 31q-260 43 -463 129q-160 61 -232 180q-25 31 -60.5 104.5t-35.5 108.5zM1375 131 q169 0 259 9t134 19.5t90 24t72 18.5t115 38.5t126 70.5q43 11 72.5 39.5t58.5 59t34 35.5t30.5 27.5t52.5 74.5q8 27 24.5 69t16.5 106q0 66 -24 130t-99 141q-2 2 -26.5 28t-32 31t-40.5 36.5t-104 62.5q-236 100 -374 129t-339 29t-303 -14.5t-112 -14.5l-17 2 q-20 0 -105 -22.5t-117 -27.5t-100.5 -31.5t-74.5 -32.5t-16.5 -7.5t-14.5 -3.5q-80 -41 -139.5 -94t-86 -93t-42.5 -71t-22.5 -54.5t-13.5 -56t-13 -51.5h2v-32h-2l16 -87q0 -88 98.5 -177t116 -101t61.5 -37t53 -31t77.5 -32.5t76.5 -28.5t96 -27.5t150 -25.5h17 q95 -19 147 -19q53 -8 222 -8z" glyph-name="D" horiz-adv-x="2709" unicode="D"/><glyph d="M236 1450h167l117 -2l150 4l90 -8l665 14l314 4q24 -12 252 -12l180 4l592 -2l542 2q25 0 70 8l807 -18l545 8l246 -8q22 0 22 -14l-2 -99l12 -919l4 -136l-6 -96l2 -117q0 -33 -211 -32l-131 -4l-315 8h-184l-306 4l-393 -8l-426 4l-192 -8l-471 2l-113 -2l-147 8 l-330 -4l-416 8l-260 -2h-258l-494 -8l-227 14q-23 0 -22 23l1 30l-8 215l17 1116q4 13 54 18t63 5zM186 621q0 -197 15 -488q0 -18 20 -18h15l133 -9l383 13l159 -2l533 6l463 -4l161 6l209 -6l346 4l295 -4l123 8l428 -10l305 4l226 -2l110 2l645 -15q154 0 158 31l12 359 l-12 845q0 31 -95 28t-108 -3l-178 -6l-203 8l-131 -8l-522 18l-145 -6l-146 4l-315 -6l-227 4q-2 0 -199 -6l-41 4l-78 -6l-403 8l-269 -2l-428 6l-489 -18l-48 2l-335 -2l-156 8q-197 0 -196 -25q-15 -525 -15 -722zM4858 471l-2 -145l2 -117q0 -16 -75.5 -23.5 t-151.5 -7.5q-246 8 -363 8l-987 -4l-320 4l-884 -6h-61h-427l-440 6l-256 -2l-201 2l-370 -2q-68 0 -68 27l2 84l-2 65q0 289 8 887q0 43 6 46t21 3l389 4l237 -4l338 11q74 2 207 -2.5t189 -4.5l163 3l533 -3l235 9l265 -4l301 2l254 -7l358 9l221 -11l39 2q225 -4 340 -4 l32 1l245 3q212 3 217 -24z" glyph-name="E" horiz-adv-x="5111" unicode="E"/><glyph d="M812 135q-85 0 -257 60q-10 4 -49 25.5t-55 37.5q-117 115 -172.5 221.5t-55.5 241.5q0 76 23 156q0 25 19.5 75.5t49.5 97.5t114 118q166 141 409 141q197 0 391 -174q43 -43 98 -125q78 -101 78 -236l8 -80q0 -8 -4 -28q-39 -281 -258 -422q-25 -16 -31 -25 q-39 -39 -131 -61.5t-177 -22.5zM123 545v6q0 9 -10 37t-11 119l2 69v10q3 181 93 314t110 143q90 72 236 146q35 18 110 26.5t89 16.5t31.5 9t37.5 1t29 2l71 -12q86 0 193.5 -43t185.5 -121t123 -141.5t80 -165.5q14 0 28.5 -68t14.5 -127l2 -21q0 -162 -22 -210 q-35 -121 -104 -220.5t-212 -195.5t-319 -109q-170 0 -293 33q-117 42 -196 106t-99 78q-8 12 -42 55.5t-46 65.5t-47 77.5t-35 119.5zM903 1354h-8l-55 4l-107 -6q-72 -16 -86 -14q-15 3 -129 -52q-338 -188 -338 -596q0 -240 195 -430q72 -55 114.5 -84t121.5 -56.5 t163 -27.5l35 2h33q180 -2 332 105q270 194 280 489q0 199 -73.5 324t-215.5 235q-39 33 -121.5 70t-140.5 37z" glyph-name="F" unicode="F"/><glyph d="M2728 811l1 -39l2 -107q1 -69 0 -76t-3 -21.5t-5 -23.5t-7 -20.5t-9.5 -21.5t-14.5 -24t-27.5 -31t-45 -32.5t-50 -27.5t-60.5 -27.5t-57.5 -22.5t-61.5 -22.5t-55 -20.5t-125 -48.5t-160 -59.5t-171 -59.5t-234 -79.5q-27 -6 -102.5 -26.5t-121.5 -20.5q-47 0 -91 6 t-101.5 23.5t-96 29t-165.5 62.5q-344 104 -746 289q-59 27 -89 82t-30 116l4 293q16 59 46 88q16 25 59 44.5t104.5 41t92.5 36.5t82.5 26.5t85.5 25.5t127.5 42t121.5 38q63 29 191.5 73t220.5 80t160 38h4h35q72 -2 196 -52t336 -121t230 -77t98 -27t112 -37t138 -51.5 t137 -79.5q47 -57 47 -117zM1394 29q132 0 441 112q266 80 688 267q174 74 174 174l-4 178l2 45v94q0 53 -83 99t-175 76q-549 179 -734.5 255t-283.5 76q-97 0 -211 -49t-310 -117t-254 -83t-117.5 -35.5t-144 -55.5t-104.5 -42t-45.5 -19.5t-59.5 -42t-34 -58.5v-127 l-2 -194q0 -12 15 -56q4 -56 157 -118q343 -150 433 -180t257.5 -92.5t309.5 -90.5q43 -16 85 -16z" glyph-name="G" horiz-adv-x="2836" unicode="G"/><glyph d="M2593 696q0 -31 -12.5 -67.5t-16.5 -60.5t-43 -98.5t-82 -94.5q-4 -2 -17.5 -23.5t-23.5 -32.5q-70 -59 -145.5 -106t-117 -65.5t-117.5 -50.5t-189 -50.5t-145 -28.5t-79.5 -12t-70.5 -8q-8 2 -68 2l-192 -2q-59 0 -156.5 14.5t-135.5 18.5t-83 9t-176 42t-254 98 q-176 80 -252 205q-8 14 -27.5 45t-40.5 69t-34 120q-13 83 -8.5 129t12.5 66t27.5 80t35.5 91q78 162 270 255t517 157q51 6 153 20.5t152 14.5l192 -2q59 0 68 2q16 -4 67.5 -8.5t73.5 -10.5t208 -38t312 -124q94 -47 203 -141q10 -10 23.5 -31.5t17.5 -23.5 q20 -10 68.5 -82t58.5 -127q2 -8 14.5 -46t12.5 -67h2l-1 -5l1 -32h-2zM147 696q0 -55 26 -116.5t32 -77.5q23 -70 109.5 -158t174.5 -127l21 -8q132 -61 158 -67t65 -21t61 -15t77 -16t81 -16h13q71 -23 163 -23q88 -10 218 -10t354 18q134 18 271.5 68.5t194.5 85.5t74 40 t44.5 25.5t43 36t44 47t35.5 38.5t21.5 20.5t32.5 34t30 48.5l22 49.5t12 31t7 26t8.5 34.5t3.5 82t-27 138q-2 6 -6 18.5t-7 17.5t-9.5 18.5t-16.5 25.5t-26 34t-36 42t-49.5 53t-65 68.5t-110.5 64.5q-201 104 -372 144t-469 39q-133 0 -222 -11q-43 0 -98 -11t-65 -11 h-13q-109 0 -265.5 -61.5t-163.5 -66.5t-39 -20q-32 -14 -80 -44.5t-112.5 -98.5t-86.5 -137q-58 -116 -58 -195h3q-7 -22 0 -37h-3zM1278 1339l186 -2q46 0 76 1t74 -8t157 -29.5t171 -40.5q18 -12 79 -33t85 -35t59 -32.5t83.5 -48t114.5 -120.5l11 -10 q41 -63 75.5 -120.5t34.5 -160.5l-4 -28l-2 -6q0 -26 -26.5 -96t-88.5 -132q-59 -98 -181 -157.5t-140 -71.5q-66 -41 -287 -84q-2 0 -28.5 -7t-77 -17.5t-95.5 -9.5t-90 1l-98 -2q-178 0 -365 31q-8 2 -68.5 10t-92.5 17q-327 93 -418 171q-45 31 -74 69t-45 54 q-80 158 -92 252l8 90q8 51 84 203l27 41q40 49 92 82q8 6 39 29l57 32q14 5 30 13t134.5 48t132.5 43t27 7q215 57 436 57zM272 729q-2 -4 -2 -7v-28l21 -92v-4q14 -41 76 -133q63 -80 103 -107.5t87 -50.5l49 -22q6 -6 70.5 -31t83.5 -29t68 -14t61 -14q74 0 127 -23 l166 -20q86 -6 161 -7l23 3l195 4h4q84 0 211 30q23 0 112.5 28t214.5 91h4q15 8 19 12t37 20t88 71h2l33 36q31 39 51 52l6 6l12 16q12 16 30 52t25 62.5t7 84.5q0 129 -54 182q-2 2 -23 31.5t-87 95.5h-2q-63 61 -144 102h-4q-121 58 -271 104t-267 46h-4l-215 6 q-211 0 -253 -11t-74 -12.5t-75 -15.5q-14 0 -18 1t-32 -7q-28 -9 -90 -23t-127 -38.5t-77 -32.5t-57 -30.5t-88 -55.5l-13 -8q-10 -10 -13 -12.5t-15.5 -13.5t-17.5 -17.5t-17 -19.5t-40.5 -53t-47.5 -106q-7 -59 -15 -75t-6 -19z" glyph-name="H" horiz-adv-x="2697" unicode="H"/><glyph d="M148 356q-42 0 -42 33l5 117l-9 106l4 240h3q6 82 6 147l-4 95q0 32 12 34t18 2h3l20 -2l115 7h4l65 -2h33l76 -5q43 0 108 9l92 -11l66 4h37l268 5q14 -2 45 -2l129 8h39l43 2l49 -2h68l4 -2h6q14 4 43 4l109 -6l170 6q29 0 43 -4h4q4 2 6 2h65l52 2l43 -2h36l129 -8 q31 0 48 2l37 -1l268 -4l65 -4l92 11q66 -8 107 -9l78 5h33l65 2q96 1 104 -3t15 -4l14 2q35 0 37 -10t2 -13l-4 -171l6 -121l-2 -131v-14l2 -62l-6 -137q4 -29 4 -52t-1 -33.5t-4 -12.5t-6 -1t-8 1t-12 -6q-43 -10 -233 -11l-119 2l-37 -2q-12 0 -32 5t-154 6l-158 -5 l-272 5q-92 0 -168 -7l-33 2q-66 -4 -96 -4l-74 2l-70 -2l-112 2l-92 -4l-277 11l-250 -5l-157 5l-187 -11l-37 2l-88 -2h-251zM3033 852h2q-4 111 -4 172v37q0 14 -6 20t-195 6l-127 -8l-96 6h-18l-49 5l-130 -11l-225 8h-41l-215 13l-151 -8l-82 4l-82 -6l-17 2l-116 -5 q-129 0 -176 9l-101 -2v4l-162 -11h-43l-223 -8l-131 11l-49 -5h-18l-97 -6l-43 3l-141 5q-99 3 -120 -7.5t-21 -18.5v-33l-4 -244h-5l7 -211v-49l6 -69v-23q0 -27 10 -26h16l140 -9l309 15q29 -4 41 -4l39 2l246 -2l110 4l199 -6l241 2h232l65 4l17 -2l129 4h22l27 2l72 -6 l36 2l111 -4l246 2l39 -2q14 0 39 4l309 -15l141 9h17q16 0 16 118l-2 64l6 166v98z" glyph-name="I" horiz-adv-x="3180" unicode="I"/><glyph d="M4782 252q-6 -23 -16 -23h-101l-743 13l-209 -4l-356 4l-203 -6l-178 2l-494 -2l-196 8l-113 -8l-444 2h-56l-411 2q-262 0 -538 -8t-319 -2t-62 6t-19 50l8 894q0 31 68.5 28.5t76.5 -2.5l107 -4q55 0 157 8l35 -4l477 11l385 -9l316 6l395 -6l221 4h58l108 5l258 -9 l277 6l166 -6l391 6l336 -10l188 4q207 0 416 -6q14 0 14 -358l6 -160zM5003 123q0 -41 2 -80q0 -20 -20 -20q-285 -16 -322 -17l-315 8h-184l-306 4l-393 -8l-426 4l-192 -8l-117 2l-467 -2l-147 8l-330 -4l-416 8l-260 -2h-258q-74 0 -221 -8l-261 -1q-261 -1 -261 38 l2 119l-9 127l7 96l10 1020q4 23 284 23l117 -3l150 5l90 -9l665 15q4 0 17 4l313 -4l236 -8l180 4l592 -2l542 2q25 0 70 8l318 -4l489 -15q170 0 326 9q154 0 465 -9q20 0 20 -20l16 -1147q-6 -92 -6 -133zM4858 188v7l-2 110l2 146l-6 782q0 34 -18.5 40.5t-25.5 6.5h-53 l-397 -4q-115 0 -340 4l-39 -2l-221 10l-358 -8l-254 6l-301 -2l-265 4l-235 -8l-533 2l-163 -2l-396 6l-338 -10l-237 4l-389 -4q-18 0 -22.5 -5t-4.5 -145t-8 -643l2 -209q0 -55 -2 -84q0 -27 68 -26l370 2l201 -2l256 2l440 -6h61h427l884 6l320 -4l987 4q236 0 306 -4 t177 -1t107 27z" glyph-name="J" horiz-adv-x="5111" unicode="J"/><glyph d="M2732 686v-45q0 -45 -1 -52t-3 -21.5t-5 -23.5t-7 -20.5t-9.5 -21.5t-14.5 -24t-27.5 -31t-45 -32.5t-50 -27.5t-60.5 -27.5t-57.5 -22.5t-61.5 -22.5t-55 -20.5t-125 -48.5t-160 -59.5t-171 -59.5t-234 -79.5q-27 -6 -102.5 -26.5t-133.5 -20.5t-149 21.5t-150 52.5 q-35 14 -288 98t-392 147q-39 23 -108.5 48.5t-144.5 75t-75 165.5l4 293q16 59 46 88q16 25 59 44.5t104.5 41t92.5 36.5t82.5 26.5t85.5 25.5t127.5 42t121.5 38q63 29 191.5 73t220.5 80t160 38h4h35q72 -2 196 -52t336 -121t230 -77t98 -27t112 -37t138 -51.5t137 -79.5 q47 -57 47 -117l-2 -61q-2 -25 1 -70t3 -55z" glyph-name="K" horiz-adv-x="2836" unicode="K"/><glyph d="M1417 8q-20 0 -28 2q-190 29 -500 148q-53 20 -237 87t-431 175q-92 37 -104.5 114.5t-12.5 81.5v74h2q0 102 3 221q2 8 8 21.5t6 19.5q0 27 32.5 52.5t71.5 41t97.5 38t90.5 37.5t81.5 26.5t77.5 22.5t238 80t362 130q153 62 231 62h27q78 0 172 -38t218 -81t178 -65 t135 -44t121 -40t123 -41t130 -41q98 -36 160.5 -80t62.5 -140l-2 -53l2 -129l2 -37q0 -139 -64.5 -187t-101.5 -66.5t-113.5 -48t-150.5 -61.5t-136 -55q-63 -24 -215.5 -74t-226.5 -79q-186 -74 -309 -74zM2697 836v73q0 47 -90 100.5t-244 98.5q-57 20 -308 100.5 t-404 147.5q-10 4 -47 16t-51.5 17.5t-55 15.5t-104.5 10q-63 0 -175 -46t-399 -138t-547 -201q-56 -21 -94.5 -56.5t-37.5 -57.5t1 -48v-82l-2 -170q0 -41 15 -81q2 -27 24.5 -46.5t73 -43t72.5 -33.5t87.5 -38t119 -50.5t100.5 -42.5q274 -103 408 -147t229.5 -76.5 t175.5 -18.5q81 14 142 31.5t138.5 42.5t129.5 41t120 39.5t146 55.5t189 76.5t216 90.5q80 41 125 74t49 102l-4 131v63q2 18 2 50z" glyph-name="L" horiz-adv-x="2836" unicode="L"/><glyph d="M236 1411h167l117 -2l150 4l90 -8l665 14l314 4q24 -12 252 -12l180 4l592 -2l542 2q25 0 70 8l807 -18l545 8l246 -8q22 0 22 -15l-2 -98l12 -919l4 -135l-6 -97l2 -116q0 -33 -211 -33l-131 -4l-315 8h-184l-306 4l-393 -8l-426 4l-192 -8l-471 2l-113 -2l-147 8 l-330 -4l-416 8l-260 -2h-258l-494 -8l-227 14q-23 0 -22 23l2 118l-9 127l17 1117q4 12 54 17t63 5zM186 582q0 -198 15 -488q0 -18 20 -18h15l133 -8l385 12h114l576 4l463 -4l161 6l209 -6l346 4l295 -4l123 8l428 -10l305 4l226 -2l110 2l645 -14q154 0 158 30l12 359 l-12 846q0 30 -95 27t-108 -3l-178 -6l-203 8l-131 -8l-522 18l-145 -6l-146 4l-315 -6l-227 4q-2 0 -199 -6l-41 4l-78 -6l-403 8l-269 -2l-428 6l-489 -18l-48 2l-335 -2l-156 8q-197 0 -196 -24q-15 -525 -15 -723z" glyph-name="M" horiz-adv-x="5111" unicode="M"/><glyph d="M2189 786v-159l1 -17l-7 -168l4 -82q0 -47 -16.5 -56t-77.5 -9q-139 -8 -315 -8h-27l-45 -2q-14 0 -34 5t-175 5l-188 -8l-41 1h-121l-334 3h-53l-84 2l-88 -8l-45 2l-99 -2q-334 0 -338 39l5 125l-9 110l4 70v219h5q-2 8 -2 29l8 190l-4 102q0 32 11 35.5t12 3.5h48 q18 6 129 6l20 -1l103 -1q50 -4 64 -4t88 6l153 -8l88 4l164 -2l271 4v-4l32 -2l172 4l88 -4l99 8l131 -6q27 0 76 4l43 -2l80 4q104 0 129 -6h32q26 0 32.5 -10t6.5 -29l-2 -168l6 -133v-24l2 -58h-2z" glyph-name="N" horiz-adv-x="2293" unicode="N"/><glyph d="M2728 809l1 -39l2 -107q1 -69 0 -76t-8.5 -63t-96.5 -108t-142 -70t-93.5 -33.5t-70.5 -25.5t-195 -75t-216 -80t-209.5 -74.5t-261.5 -59.5t-240 40.5t-231 80.5q-346 106 -746 289q-59 27 -89 82t-30 116l4 295q2 6 7.5 19.5t7.5 21.5q6 37 52 66.5t129 59.5t110 43 t78.5 25.5t83.5 25.5t123 38.5t141 47.5t176.5 65t222.5 81t166 38q4 0 10 -2h4q0 2 13 2q72 0 256 -74t417.5 -140.5t323.5 -109.5q18 -8 81.5 -29.5t104.5 -39t79 -62.5t38 -107z" glyph-name="O" horiz-adv-x="2836" unicode="O"/><glyph d="M1436 793h-2v-115l2 -64l-6 -137q4 -29 4 -61t-25.5 -44t-347.5 -14h-41q-59 0 -174 9l-178 -9q-27 0 -27 4v3l-123 -7h-43l-76 4q-291 0 -295 33l5 117l-7 102l2 64v182h2l7 84l-4 160q0 33 34 33l19 -2l104 8h29l59 -4h25l57 -4l129 8l142 -10l112 6l68 -6l92 10 l127 -8l57 4h25l57 4q107 0 117 -4t16 -4l21 2q35 0 35 -33l-4 -160l6 -123v-28z" glyph-name="P" horiz-adv-x="1538" unicode="P"/><glyph d="M2882 629q0 -132 -129 -198.5t-239 -102.5t-251 -92t-189 -72t-150.5 -53t-220 -72t-239.5 -35q-4 4 -59 12t-89 18q-255 79 -481 154t-403 158q-23 10 -104 43t-151.5 86t-70.5 168l-1 116q-1 116 20 173q6 33 61.5 67.5t91.5 46.5t122.5 48t135.5 44t157.5 46.5 t138.5 47.5t261.5 97t358.5 109q137 0 231 -35q522 -193 940 -322q98 -27 177 -77t79 -125v-7l3 -71v-172zM1483 1384q-43 0 -74 -10q-741 -248 -1116 -393q-41 -16 -84 -48t-43 -67q0 -4 -4.5 -72.5t7.5 -168t85 -123.5q178 -102 618 -258q23 -8 223.5 -82.5t409.5 -104.5 q180 31 297 75t361.5 131t505.5 200q29 18 67 41t55 40t26 60q9 44 9 98t-4 54h2l-2 55l2 37q0 57 -66.5 102.5t-127 65.5t-93 31.5t-83.5 25.5t-617 209q-238 102 -354 102z" glyph-name="Q" horiz-adv-x="2983" unicode="Q"/><glyph d="M106 664v167h3q4 86 4 123l-2 119q0 31 11 33t24 2h28q18 6 111 6l17 -1l89 -1q45 -4 66 -4l65 6l129 -8l72 4l151 -2l99 4h53l252 8h76l39 -2h18q14 4 43 4l164 -6l115 6q29 0 43 -4h18l37 2h76q88 0 159 -8h144l100 -4l154 2l69 -4l78 8l117 -6q25 0 65 4l37 -2l72 4 q92 0 111 -6h26q29 0 33 -10t4 -21l-4 -162l6 -116q0 -98 -4 -135l4 -78l-6 -135q2 -12 2 -40v-32q0 -32 -5 -29.5t-11.5 2.5t-12.5 -6q-35 -10 -233 -10l-117 2l-39 -2q-12 0 -26 5t-160 5l-129 -6l-258 6l-219 -6l-27 2q-61 -4 -94 -4l-84 2l-60 -2q-20 -2 -60 0t-52 2 l-92 -4l-279 10l-276 -6l-131 6l-185 -10l-39 2l-86 -2h-176.5t-116.5 31l3 112l-7 107z" glyph-name="R" horiz-adv-x="3180" unicode="R"/><glyph d="M1870 270h-10l-42 -1q-42 -1 -54 0t-37 0t-55 4t-150 6l-193 -11l-82 2l-260 -2l-170 6l-51 -2q-31 0 -45 2l-123 -6l-51 2q-57 -4 -90 -4l-21 2q-33 10 -146.5 6t-146.5 11q-25 0 -31 10t-6 46t5 65l-9 153q0 18 4 49t3.5 97.5t-4 94t5.5 48.5l-2 24l8 121l-4 172 q0 47 53 47h4l4 -2h6l20 2l43 4l85 3l194 -9l113 9h12l103 -11l22 2h174h4q102 0 156 7h4l139 -3l25 3l96 -7h4l113 4l84 -6l102 11h13l112 -9l195 9h7l29 -1l47 -2l66 -6h2q4 2 24 2q40 0 40 -47l-4 -106l8 -193l-2 -30v-17l2 -33v-6q2 0 2 -2l-4 -143l4 -76l-8 -153 q4 -25 4 -91q-4 -36 -92 -41.5t-161 -4.5t-87 1zM1669 340q221 0 260 -4l92 4q14 4 38 1t46.5 5t22.5 31l12 246q2 61 2 120l-4 97q0 4 2 6v2l-6 231l1 29q1 30 -84 33.5t-103 5.5l-176 -10l-48 2l-6 2l-55 4l-16 -2l-54 6q-39 0 -137 -12l-131 2q-41 0 -163.5 4.5 t-211.5 -6.5l-211 12l-57 -6l-25 2l-55 -4l-4 -2l-49 -2l-33 3l-197 5h-14q-121 0 -121 -10l2 -37l-12 -359q0 -20 1 -29t-2 -146.5t15 -166.5q0 -47 2 -51l197 -10q10 2 33 2l55 -2l209 6q57 0 66 -2l303 4l143 -6l121 8l131 -6l141 6q45 0 80 -6z" glyph-name="S" horiz-adv-x="2316" unicode="S"/><glyph d="M111 1409q0 31 5 31h42q47 4 104 4l16 -1l82 -1q37 -4 61 -4t54 6l117 -8l74 6l79 -2l150 6l102 -4v-2l25 -2l129 4l72 -6l73 8l105 -6q20 0 57 4h8l88 2q86 0 99 -4h18q33 0 35 -9.5t2 -21.5l-2 -27l4 -200v-25l2 -43h-2v-487l2 -52l-2 -28q2 -10 2 -27l-2 -53v-123h2 l-2 -31v-37l-4 -98l1 -76q1 -76 -8 -79t-16 -5h-24l-100 -4h-5l-57 2h-29l-67 2q-49 0 -96 -6l-80 6l-60 -2l-143 2h-25v-4q-131 4 -194 4l-150 -2h-15l-124 -4q-39 6 -96 6l-68 -2h-31l-57 -2q-84 0 -96 4h-25q-27 0 -28 15q-2 6 -2 14l2 131l-7 96q0 14 3 23h-5v170l-2 53 v55l2 52l-2 153l11 500zM1673 297q-2 8 -2 81t-2 126h-2v86h2l2 201v176l4 180l-6 199v36q0 23 -113 23h-75l-95 -8l-92 6h-20l-41 4l-129 -10l-68 2l-321 -2l-129 10l-43 -4h-19l-92 -6l-96 8h-76q-111 0 -110 -23v-36l-11 -539q0 -111 6 -217h2v-86h-2q-4 -53 -4 -160h4 l5 -231v-37q0 -25 186 -25l104 8l78 -6l23 2l45 -4l129 8l211 -8l178 8l127 -8l45 4l22 -2l80 6l103 -8q188 0 188 25q-2 14 -2 47zM1628 391h2l-2 -26v-27l-4 -92l2 -115q0 -24 -10 -26.5t-17 -1.5t-34 -1t-76 -2l-51 2h-27l-61 2l-95 -4l-15 1l-101 1l-127 2h-23v-2 l-84 -2l-90 4l-133 -2l-55 2l-62 -4l-94 4l-63 -2h-25l-51 -2q-76 0 -88 4h-21q-24 0 -26 8.5t-2 20.5t2 21l-4 182v14h-3l-2 193v57l2 51q-6 139 0.5 319.5t6.5 246.5l-2 114q0 25 28 25h10l105 6h4l129 -6l86 6l70 -8l55 4l82 -2l119 8l90 -4h16v-4l150 2l13 -1l112 5 l86 -6l129 6l98 -4q4 -2 10 -2h10q18 0 23.5 -4t5.5 -21l-2 -114l4 -95v-14l2 -39h-2v-428l2 -45l-2 -27q2 -8 2 -22l-2 -47v-109z" glyph-name="T" horiz-adv-x="1814" unicode="T"/><glyph d="M1100 1436h30q47 0 131 -32q149 -57 341 -118.5t353 -115.5t173 -142v-188l-6 -203l2 -35v-96q0 -80 -27 -133q-31 -45 -94.5 -74t-100 -43t-102 -37t-110.5 -41t-162 -57t-176 -62q-141 -57 -223 -57t-185.5 33t-141.5 47t-202 71t-216 83t-106.5 47.5t-86 37 t-58.5 54.5t-27 96l3 102l-1 7l1 51l-3 57v17l-2 119q-2 118 0 204q6 35 30 59.5t48.5 36t74.5 31t80 34.5t76 23.5t76 26.5q241 76 323.5 109.5t151.5 60.5t136 27zM2103 1026q0 29 -21.5 48.5t-74.5 42.5t-83 39t-163 54.5t-174 55.5q-45 14 -214.5 81.5t-270.5 67.5 q-31 0 -166 -45q-140 -62 -341 -118t-304 -109l-82 -25q-82 -26 -82 -92q0 -12 -3.5 -60.5t7.5 -121.5l-2 -41l6 -254l-2 -98l10 -45q6 -34 51.5 -56t71.5 -35q332 -139 451 -177t207 -75.5t179 -37.5t198.5 38.5t136.5 47.5q352 117 598 241q42 22 49.5 47t13.5 52l-4 92 l4 63l-2 25q0 86 6 172l-2 33l2 96v94z" glyph-name="U" horiz-adv-x="2230" unicode="U"/><glyph d="M1942 0q-82 0 -263 74q-41 16 -117.5 35.5t-123.5 44.5q-121 47 -371 108q-76 14 -208.5 61.5t-164.5 56.5t-70 27.5t-138 42.5t-189 64q-180 57 -188 84q-7 20 -7 92q0 163 60 195q31 6 82 31.5t80 33.5q27 2 94 30t78 30q4 4 54 20.5t58 24.5q9 18 118.5 54t128.5 46 t29 9t32 -1t132.5 39t120.5 41q207 47 275 80q29 8 43 8h4q25 0 88 19.5t81 23.5t102.5 31t131.5 29q41 -6 120.5 -33t137.5 -43t226 -73.5t243 -76.5q29 -14 99 -27t357 -101q286 -88 333 -103q47 -14 299 -96q25 -12 34 -23.5t9 -40.5q10 -10 10 -29l-2 -13v-87l-2 -33 l2 -41q-8 -77 -172 -122l-31 -9q-70 -23 -262.5 -93.5t-310.5 -88.5q-80 -16 -175 -51t-110 -35h-8q-9 0 -31 -8t-101 -28.5t-103 -30.5t-29 -11l-12 2q-11 1 -99 -25t-192 -54t-134 -38t-38 -16t-10 -6zM3711 621v129q0 88 -31 98q-249 85 -324.5 103t-93.5 26t-56 17 t-154 46.5t-166 51.5t-100 29.5t-80.5 25t-64.5 13.5q-34 5 -49.5 13.5t-37.5 13.5t-103 35.5t-135 47.5t-198 55.5t-222 67.5h-4l-4 2q-23 0 -213 -58q-451 -111 -618 -172q-21 -8 -153.5 -43.5t-213.5 -81.5q-33 -16 -150 -56t-253 -97q-136 -56 -135 -66v-18l-4 -89 q-5 -88 22 -102t76 -32.5t119 -47.5q71 -30 175.5 -66t210 -67t139.5 -43t110 -32.5t102 -31.5t55 -12t41 -6q342 -121 379 -137q31 0 67.5 -14.5t53.5 -18.5t100 -34.5t115 -30.5q46 0 102 24.5t147 43.5q92 20 295 81.5t261 75.5t67 27q2 2 98.5 25.5t172.5 45.5t181 55.5 t162.5 50.5t106.5 35.5t68 29.5q20 12 78.5 30t58.5 58z" glyph-name="V" horiz-adv-x="3864" unicode="V"/><glyph d="M621 559q-62 0 -66 2l-84 -4l-88 2l-3 -1l-30 1q-78 0 -110 -6q-68 0 -68 14v11q-6 20 -6 127l4 110v14l2 150q0 10 78 10l41 -4l35 2h8l24 2q12 0 37 -4l191 8l61 -4l7 1l46 -1l2 2h5l36 -2l72 2h16l66 2l29 -2h57q27 0 39 -2l68 2h2q2 -2 4 -2l28 2l25 -2l61 4l93 -6 l71 4h72q27 0 39 -2l69 2h2l5 -2l7 1l46 -1l61 4l191 -8q25 4 37 4l24 -2h8l35 -2l41 4h23q24 0 34.5 -5t16.5 -6.5t6 -8.5v-30l-1 -56l3 -123v-55q0 -111 -4 -127v-11q0 -14 -68 -14q-47 6 -110 6l-21 -2l-3 1l-21 -1l-160 4q-6 -2 -20.5 -2t-20.5 -2l-25 2l-28 -2h-60 q-55 0 -65 4q-27 0 -35 -4q-27 0 -39 2l-88 -2l-82 4q-6 -2 -20.5 -2t-22.5 -2l-6 1l-47 -1h-60q-55 0 -65 4q-27 0 -35 -4q-27 0 -39 2l-139 -2q-16 4 -29 4l-67 -4h-64zM1976 489l-149 3l-154 2l-108 -5q-2 0 -6 3h-5l-57 -3l-7 1l-52 -1l-88 3l-105 -5l-37 1q-37 1 -39 4 l-9 -1l-68 1h-17q-39 -5 -57 -5t-51 5l-144 -3l-30 3l-29 -3l-57 3h-5l-6 -3l-108 5l-68 -2l-129 2l-80 -5h-63q-141 0 -142 15l1 14l-3 86q0 201 5 227l-3 19l3 47v14l4 82l-2 43q0 16 18 17h12q2 2 54 2l21 -1h54l58 1h80l49 -2l225 6l45 -2l5 1q5 1 5 0t1 -1l20 2l160 -4 l59 2l86 -2q4 0 14 2h8l37 -2q2 0 4 2h4l6 -1l31 1h35l141 -2l160 4l11 -1q10 -1 10 0v1l10 -2l45 2l225 -6l49 2l33 -2l45 4l51 -4l82 2q51 0 56 -2h12q12 0 15 -3t3 -12v-2l-2 -53l4 -72v-12l2 -49l-2 -19q8 -63 5 -114t-3 -80l1 -9l-3 -67q0 -18 1 -25t-1 -15.5t-4 -14.5 t-9 -9t-12 -5.5t-17 -2.5h-134zM2109 633q0 23 3.5 81t-5.5 107l2 17l-2 34v15l-2 45v63q0 11 -2 11h-61l-66 -2q-25 4 -39 4l-9 -1l-52 -1h-37l-24 -2q-100 0 -138 6h-5l-14 -1l-32 -1h-6q-6 2 -16 2l-10 -1l-66 -1q-14 -2 -43 -2l-111 4l-51 -4h-57q-20 0 -54 4l-20 -2 l-10 2l-21 -2h-4q-6 2 -16 2l-11 -1l-67 -1q-14 -2 -43 -2h-11h-71l-18 2l-31 -2l-15 2l-98 -2q-29 0 -43 2l-37 -2l-41 4q-10 0 -14 -2h-4l-11 1q-12 1 -16 -1h-4l-22 2q-29 -6 -138 -6l-24 2h-37l-27 -2l-34 4q-14 0 -39 -4l-68 2q-63 0 -63 -11l2 -16l-2 -92v-10l-2 -39 l2 -17l-4 -188l4 -51q-2 -8 -2 -31q0 -12 67 -12h25l58 1l44 1h60l116 2l84 -4l4 2h4l43 -2l23 2l25 -2l67 2l80 -2q115 0 131 2l111 -2l6 1l39 -1l43 2l8 -2l84 4l135 -4q27 0 39 2l108 -2l23 2l25 -2l43 2h4l4 -2l84 4l53 -2l98 2q37 -4 60 -4h49q111 0 110 12l-2 47 q0 17 2 23v12z" glyph-name="W" horiz-adv-x="2260" unicode="W"/><glyph d="M2109 752q-6 0 -6 -97l2 -49l-2 -22l2 -70q0 -162 -57 -185.5t-129 -51t-160 -68.5q-215 -90 -333.5 -130t-264.5 -69l-31 -4h-47q-8 0 -137.5 36t-169.5 47t-125.5 43t-217 86t-201.5 82t-98 78t-28 134l3 70l-3 39l3 20q0 35 -3 53v6l-4 58v262q0 41 30 73.5t58.5 47 t87 36t73 27.5t60.5 18.5t85 28.5q125 27 405 140l47 16q90 33 117 31l8 2h64q18 0 108 -27q549 -188 586 -199h2q22 -6 39 -14q6 0 51 -14.5t102.5 -47t69.5 -69.5l2 -2l10 -41v-37l2 -12v-225zM2032 954q0 29 1 47t-14 33q-33 39 -133 76q-58 28 -166 58t-174 55l-28 10 q-29 10 -87.5 30.5t-87.5 30.5l-51 25q-109 49 -192 49q-16 0 -90 -22l-33 -11q-231 -88 -440 -153q-55 -20 -68 -23l-59 -12q-184 -53 -232 -131v-12q0 -307 8 -435l-4 -94q0 -18 13 -43q0 -20 42 -41.5t52 -28.5q291 -129 383 -151q94 -47 234.5 -89t186.5 -42t81 10 q352 90 755 277q4 0 8 4q91 36 91 102l-3 68l7 305v108z" glyph-name="X" horiz-adv-x="2211" unicode="X"/><glyph d="M2251 20q-26 0 -193 52q-166 52 -283 96.5t-343 101.5q-76 14 -209 61.5t-164 55.5t-97.5 40.5t-149.5 48.5t-142.5 40.5t-93.5 37.5t-131 45t-142 50q-201 59 -201 83t65.5 43.5t70.5 21.5l41 18q39 20 61 21q66 16 184 68t178.5 65t149.5 59q4 2 54 17.5t61 29.5 q3 2 81 32t132.5 54.5t65.5 23.5q10 -1 20 -1t100 32t309 82q27 6 92.5 31t87.5 25h7q25 0 90 20.5t84 24.5t94.5 28.5t103.5 25.5t50 -5t151.5 -50t194.5 -44h6q18 0 74 -24t247 -66q12 -2 121.5 -41t133.5 -39t28 2l37 -12q14 -6 126 -43.5t120 -51.5t60 -30.5t64 -22.5 t91 -30t209 -84t206 -76q20 0 60 -19t106 -38.5t70 -35.5v-8q0 -12 -73 -41.5t-128 -44.5q-33 -14 -159 -53.5t-180 -65.5t-165.5 -56t-181.5 -64q-68 -16 -214 -69t-200 -65t-171 -47t-141 -41t-129 -38.5t-155 -55.5q-18 2 -116.5 -36t-124.5 -38zM1034 1055 q-14 0 -47 -13.5t-73 -32t-54 -23.5t-137 -56t-184 -68l-340 -123q15 0 55 -20q246 -82 293 -105t127 -51t185.5 -63t139.5 -47t88 -33t112.5 -43.5t113.5 -33.5t114.5 -32.5t79.5 -21.5h15q63 0 268 -82q128 -64 170 -64q68 -12 287 -84q37 13 153 45q189 51 342 118 q152 67 228 67h14q2 0 34 10t107.5 31.5t240.5 79.5t249 82q84 26 271 100t351 127q51 20 58 20l-389 140q-166 70 -300 121t-146 52.5t-34 15.5t-68 30t-102.5 33.5t-87.5 29.5q-39 8 -108.5 32t-104.5 32q-94 16 -301 81.5t-336 90.5q-61 6 -71 14q-20 -10 -74 -14 q-60 -15 -84 -27q-66 -18 -304.5 -81t-302.5 -83t-157.5 -46t-129.5 -40t-67.5 -28.5t-55.5 -25.5t-38 -11z" glyph-name="Y" horiz-adv-x="4491" unicode="Y"/><glyph d="M2124 506q0 -68 -13.5 -95.5t-21.5 -42t-33.5 -32t-47 -31.5t-140.5 -59t-167 -64q-48 -20 -165.5 -58t-225.5 -80t-168 -42t-104.5 10.5t-79 21.5t-95 31.5t-103.5 33.5t-166.5 61.5t-155.5 59.5t-80.5 26.5t-104 38.5t-101.5 69t-46 117l3 104l-1 7l1 49l-3 57v17 l-4 137q0 100 2 186q12 82 168 135q68 25 122.5 42.5t94.5 33.5q244 78 325 110.5t150 59.5t136 27h30q44 2 190 -54q228 -88 362 -124.5t163 -51.5q76 -18 170 -61t103 -84q10 -55 10 -219l-4 -154l-2 -51l2 -35v-96z" glyph-name="Z" horiz-adv-x="2232" unicode="Z"/><glyph d="M2879 874v-6l3 -71l-3 -154l3 -18q0 -51 -27 -96.5t-87 -95t-306 -128.5q-27 -10 -199 -78.5t-350.5 -133t-386.5 -93.5q-66 0 -68 2q-129 12 -511 144t-515 196q-25 12 -106 44t-150.5 84t-69.5 167l-2 117q-2 116 21 172q6 39 58.5 70.5t146.5 65.5t114 43t71.5 20.5 t83.5 25.5t136 44t325 119t392 120q150 -4 231 -35q586 -225 940 -322q256 -72 256 -203zM2826 721q0 29 -4 29h2l-2 57l2 35q0 45 -52 87t-99 62.5t-127 48.5q-585 186 -717.5 239.5t-196.5 77t-128 23.5t-95 -10q-211 -68 -598 -208t-518 -185q-39 -14 -83 -47t-44 -68 q0 -199 2 -239l14 -52q6 -47 113 -98q213 -109 577 -235q31 -10 144.5 -53.5t230 -83.5t258.5 -48q160 19 299 73t399 147.5t366 140.5q182 81 219.5 122t37.5 185z" glyph-name="bracketleft" horiz-adv-x="2983" unicode="["/><glyph d="M111 1401q0 31 5 31h42q47 4 104 4l66 -4l32 2q48 -5 115 2l119 -9l74 7l77 -2l150 6l102 -4v-2l25 -2l129 4l72 -7l73 9q47 0 86 -3t76 1l33 -2l65 4q84 0 97 -4h18q18 0 27.5 -6.5t9.5 -7.5v-21l-2 -125l4 -98v-25l2 -43h-2v-488l2 -51l-2 -28q2 -10 2 -27l-2 -53v-123 h2l-2 -31v-37l-4 -98l2 -125q0 -18 -2 -21.5t-23 -13.5h-24l-98 -4h-5l-59 2h-29l-67 2q-59 0 -96 -6l-80 6l-60 -2l-143 2h-25v-4q-131 4 -194 4l-150 -2l-61 2l-78 -6q-39 6 -96 6l-68 -2h-31l-57 -2q-84 0 -96 4h-25q-27 0 -28 15q-2 6 -2 14l2 131l-7 96q0 14 3 23h-5 v170l-2 53v55l2 51l-2 140l11 514zM1673 289q-2 8 -2 99t-2 108h-2v86h2q2 49 2 143v233l4 181l-6 198v37q0 23 -113 23h-75l-95 -8l-92 6h-20l-41 4l-129 -10l-68 2l-321 -2l-129 10l-43 -4h-19l-92 -6l-96 8h-76q-111 0 -110 -23v-37l-11 -538q0 -111 6 -217h2v-86h-2 q-4 -86 -4 -119t2 -41h2l5 -232v-36q0 -25 186 -25l104 8l78 -6l25 2l43 -4l129 8l211 -8l178 8l127 -8l45 4l22 -2l80 6l103 -8q188 0 188 25v36zM1628 383h2l-2 -27v-32l-4 -86l2 -115q0 -21 -9 -26t-17 -3t-17 2l-90 -4h-4l-51 2h-27l-59 2l-95 -4l-61 4l-55 -2l-129 2 h-23v-2l-84 -2l-90 4l-133 -2l-55 2l-62 -4l-94 4l-63 -2h-25l-51 -2q-76 0 -88 4h-21q-24 0 -26 8.5t-2 20.5t2 20l-4 183v14h-3l-2 193v57l2 51q-6 139 0.5 319.5t6.5 245.5l-2 115q0 25 28 25h10l105 6h4l129 -6l86 6l70 -8l55 4l82 -2l119 8l90 -4h16v-4l152 2l13 -1 l112 5l86 -6l127 6l82 -2l16 -2q4 -2 10 -2h10q18 0 23.5 -4.5t5.5 -20.5l-2 -115l4 -88v-20l2 -39h-2v-428l2 -45l-2 -27q2 -8 2 -22l-2 -47v-109zM1593 361q0 13 2 22l-6 180l4 164v205l2 149l-6 179l2 38q0 20 -100 21l-152 -8l-94 6h-8l-37 2l-115 -8l-61 2l-287 -2 l-114 8l-41 -2h-7l-92 -6l-153 8q-100 0 -101 -21l2 -43l-10 -446q-2 -39 2 -108.5t4 -100.5l-4 -217h4l4 -195l-2 -41q0 -23 168 -22l23 2h141l14 2l48 -4q14 -2 42.5 3t41.5 5l213 -8l194 8l86 -8l45 4l15 -2l71 6l92 -8q168 0 168 22v31l4 164q-2 6 -2 19z" glyph-name="backslash" horiz-adv-x="1814" unicode="\"/><glyph d="M102 1022q0 33 31 55.5t82 42t73 30.5q49 25 241.5 81.5t357.5 123.5q166 66 208 66t64.5 -4t56 -13t48.5 -13q59 -25 410.5 -141t408.5 -155t57 -73v-76l-2 -121l2 -34l-6 -177l2 -26q0 -14 -4 -51l2 -48l2 -32q0 -121 -137 -168q-295 -131 -545 -213q-12 -4 -122 -46 t-202 -42l-69 6q-111 23 -351.5 107.5t-463.5 187.5q-137 49 -137 137l2 111q-4 25 -5 36l3 15l-5 211v24l-2 51v148zM2103 826q0 87 -2 167v6q0 65 -172 127q-13 0 -250 77t-354 124t-192 47q-12 0 -42 1t-111 -31t-196.5 -69.5t-160.5 -53.5q-172 -47 -218 -65 t-149.5 -52.5t-103.5 -81.5q-12 -61 -12 -177t3.5 -153t3.5 -65l-1 -9l-1 -49l-2 -98q0 -49 21 -76q15 -59 119 -97t178 -63.5t92 -32.5t189.5 -75t357.5 -92q115 0 356 86q350 106 496.5 178t146.5 172l-2 98v25l-2 27l4 55l-2 16q0 12 3 30t3 104zM166 782v27 q0 158 -2 182q0 70 263 148t521 172q94 43 179 43t126 -29q61 -18 211 -73.5t232 -75.5q322 -80 377 -168q6 -6 6 -17l-2 -26l2 -62l-2 -12l2 -33q-2 -14 -2 -45v-22l-4 -191v-14q0 -20 -2 -33l2 -43q0 -78 -21.5 -113t-129.5 -79t-302 -115q-194 -70 -296 -110t-183 -40 q-80 0 -336 84t-506 191q-129 41 -129 125l2 100q-6 53 -6 229z" glyph-name="bracketright" horiz-adv-x="2242" unicode="]"/><glyph d="M2800 338h-9q-33 0 -77 4l-25 -2q-39 0 -57 5t-154 5l-147 -6q-47 0 -72 2h-25q-96 0 -141 4l-217 -8l-23 2l-96 -4q-18 0 -26 2l-328 -4l-275 12l-161 -4h-25q-23 -2 -72 -2l-147 6l-191 -10l-45 2q-45 -4 -77 -4h-9q-4 0 -145 -2.5t-150 45.5l5 117l-9 104l4 76 q-2 23 -2 156l2 12l7 84l-2 155q0 33 12 40.5t45 7.5l4 -3h4l96 9h27l63 -4h33l54 -5l116 9h10l91 -9l71 5l99 -2h4l53 -3l143 7h27q2 0 24.5 -1t61 -2.5t121.5 11.5l44 3q44 3 70 -5l80 4q20 0 58 -4h2q18 -2 78 -2h12q47 0 69 2h3q37 4 55 4t47 -4l55 2q141 0 211 -7 t260 -8l53 3h5l96 2q23 0 59 -5l105 9h8l117 -9l55 5h18l78 4q119 0 119 -4.5t2 -4.5h4l6 3q50 0 53 -14.5t3 -33.5l-3 -155l7 -125v-27l-2 -2v-98l-2 -16l4 -66l-7 -131q11 -83 1.5 -100t-33.5 -15q-43 -12 -260 -12zM2232 410q31 4 167 4h136l109 -6l130 -5q130 -5 144 -1 t31 2.5t26 0t28.5 4.5t19.5 29q-2 4 -2 11l6 98l6 227l-2 72v2l2 4l-4 156l2 45q0 10 -8 10h-2l-187 8l-118 -10q-16 0 -41 4h-4q-86 0 -111 8q-31 0 -117 -12q-63 0 -76 2q-203 0 -419 18l-160 -8q-27 0 -68 4l-61 -4h-8l-142 -4l-73 2l-15 2l-108 4l-96 -2h-3q-4 0 -8 4 l-411 -18l-150 12q-18 -8 -108 -8h-5q-29 -4 -43 -4l-116 10l-197 -8v-55q0 -238 -8 -238q0 -104 4 -156l-4 -94q-2 -92 14 -110l154 -11l67 4l244 11l43 -2l35 2q209 0 246 -4l112 6l195 -6l291 2h4l18 -2h4l222 4l65 -4l57 6h15l59 4l4 -2h3l65 -4q16 0 22 2z" glyph-name="asciicircum" horiz-adv-x="3201" unicode="^"/><glyph d="M1110 1311q47 0 148 -35t339 -106t363 -132q43 -23 43 -69l-2 -17l2 -37h-2q0 -371 -9 -421t-55 -74q-2 0 -41 -21q-426 -186 -774 -256q-217 43 -354 95q-127 33 -428 157q-14 10 -40 23.5t-47.5 30t-20.5 52.5q1 35 1 68l-6 418q31 52 84.5 73t64.5 25.5t35.5 11.5 t34 10t118 33t303.5 100q196 71 243 71zM104 1032q0 17 13 43q8 39 67.5 67.5t153.5 56.5t116 36t148 48t268.5 100.5t226.5 60.5t154 -25q410 -154 604 -205q268 -74 269 -176v-39l2 -18l-6 -324v-13v-81l2 -51q0 -154 -92 -190q-241 -110 -534.5 -211t-403.5 -101 q0 -6 -326 92q-258 88 -565 220q-92 39 -92 190l2 72l-2 39l2 20l-9 193l2 182v14zM2040 989q0 55 -97.5 104.5t-193.5 63.5q-201 51 -508 166q-6 2 -49 7.5t-49 15.5q-46 0 -90.5 -10.5t-66 -15.5t-57.5 -17.5t-52.5 -17.5t-56.5 -20.5t-64 -23.5t-111.5 -32.5 t-132.5 -43.5q-188 -38 -287 -108q-37 -20 -37 -113l7 -289l-2 -112q0 -23 4 -64q0 -104 409 -225q309 -115 488 -143l71 4q217 37 592 188q55 28 134 59t103.5 49.5t33 44t8.5 70.5v17l4 215v231z" glyph-name="underscore" horiz-adv-x="2228" unicode="_"/><glyph d="M1710 348h2l-2 -31v-36l-4 -99l1 -76q1 -76 -1 -76l-23 -7h-24l-113 -7h-4l-53 4h-21l-67 3q-53 0 -96 -7l-80 7l-60 -3l-143 3h-25v-5q-131 4 -194 5l-150 -3l-15 1l-124 -5q-37 6 -96 7l-70 -3h-20l-52 -4q-92 0 -110 7h-25q-27 0 -28 14q-2 6 -2 14l2 131l-7 97 q0 14 3 22h-5v170l-2 53v56l2 51l-2 153l11 500l-2 129q0 29 3 29h40q25 6 110 6l16 -1l80 -1q37 -4 61 -4t54 6l117 -8l63 4h70l170 6l102 -4v-2l25 -2l49 2h90l62 -4l73 8l105 -6q20 0 57 4l33 -2l63 4h20h19l70 -6h12q29 0 31 -8.5t2 -13.5v-7l-2 -27l4 -200v-25l2 -43 h-2v-487l2 -51l-2 -29q2 -10 2 -27l-2 -53v-123zM1673 301q-2 8 -2 82t-2 125h-2v86h2l2 201v176l4 180l-6 199v36q0 23 -113 23l-170 -8l-92 6h-20l-41 4q-16 2 -49 -4t-47 -6l-101 2l-354 -2l-98 10l-41 -4h-19l-92 -6l-172 8q-111 0 -110 -23v-36l-11 -539q0 -111 6 -217 h2v-86h-2q-4 -51 -4 -160h4l5 -233v-35q0 -25 186 -25l104 8l78 -6l23 2l45 -4l129 8l205 -8l184 8l127 -8l45 4l22 -2l80 6l103 -8q188 0 188 25q-2 14 -2 45z" glyph-name="grave" horiz-adv-x="1814" unicode="`"/><glyph d="M102 748q0 49 49.5 92t101.5 66.5t142 56.5t126 49t128 41.5t125 38.5q346 106 821 284q121 45 222 58q180 0 297 -45q453 -176 884 -310q23 -6 143.5 -46.5t210.5 -66.5t188.5 -86.5t98.5 -131.5q0 -64 -37.5 -111t-86 -76t-88.5 -46t-105.5 -41t-195.5 -80t-344 -130 q-212 -74 -344 -122t-246.5 -85t-280.5 -57l-86 2q-190 20 -414 107q-86 33 -339 117.5t-330 117.5t-141 56.5t-97 38.5t-132 53t-184.5 93t-85.5 163zM1854 1364q-52 0 -152 -32t-451.5 -161t-533.5 -183q-183 -54 -207 -66t-125.5 -50t-148 -68t-46.5 -56t7.5 -43 t14.5 -27t26.5 -22.5t26.5 -17.5t32 -15.5t108 -53.5t260 -112.5t440 -160.5t349 -124q281 -104 432 -104q203 31 445 120q76 29 256.5 88.5t418.5 155.5q462 185 527 250q80 80 -105 160q-211 92 -612 223t-466 155t-150.5 56.5t-125.5 45.5t-104 27.5t-116 14.5z" glyph-name="a" horiz-adv-x="3741" unicode="a"/><glyph d="M1100 1450h30q47 0 131 -33q125 -49 261 -91t428 -140q166 -56 178 -144v-188l-6 -203l2 -35v-98q0 -78 -27 -131q-30 -43 -94 -72.5t-100.5 -44t-102 -38t-110.5 -40.5t-162 -56.5t-176 -61.5q-141 -58 -223 -58t-199.5 37.5t-141.5 47.5t-188 66.5t-216 82.5 t-106.5 47.5t-86 37t-58.5 54.5t-27 96l3 103l-3 28l3 29l-3 57v17l-2 119q-2 118 0 204q10 80 168 136q39 14 100.5 33t100.5 35t157.5 51.5t256 94t213.5 58.5zM2103 1040q0 35 -40 61.5t-113 55.5q-59 29 -183.5 63.5t-179.5 59.5q-45 14 -216 82t-269 68q-31 0 -166 -46 q-189 -77 -381.5 -133.5t-263.5 -93.5l-63 -17q-62 -18 -81.5 -51t-19.5 -47t-3.5 -62t7.5 -122l-2 -41l6 -254l-2 -98l10 -45q4 -27 27 -40t35 -20.5t155 -70t560 -207.5q14 -4 65 -23.5t118 -19.5q66 0 121.5 15.5t119 39t94.5 31.5q352 117 598 242q47 14 63 98l-4 92 l4 64l-2 24q0 86 6 172l-2 33l2 96v94zM1102 1382h26q41 2 116 -25t165 -57t125 -44t99.5 -29t95.5 -33q27 -10 87 -27t116 -37q120 -44 134 -116v-170l-6 -185l2 -32v-88q0 -58 -15 -84.5t-23.5 -40t-30 -28.5t-35 -25t-83 -35.5t-97.5 -36.5q-55 -16 -168.5 -59.5 t-147.5 -54.5t-142 -51t-205 -40t-186 37t-198 70t-155 51t-95 36.5t-75.5 28.5t-63.5 24.5t-55.5 24t-68.5 39.5t-50 113l2 94v6v45l-2 54v14l-4 123q0 92 2 170q8 47 37.5 69.5t88 40t91.5 35.5q27 8 61.5 16.5t71.5 24.5t150.5 49t238.5 83t197 50z" glyph-name="b" horiz-adv-x="2230" unicode="b"/><glyph d="M3774 774v-123l3 -51l-7 -82l4 -65q0 -35 -3 -40t-23 -5q-35 -10 -203 -11l-102 2l-33 -2q-12 0 -23 4t-147 5l-105 -5l-225 7q-125 0 -182 -7l-31 2q-53 -4 -82 -4l-63 2l-62 -2q-29 -2 -82 1t-75 3l-189 -6l-116 4l-82 -4q-61 4 -93 4q-16 -4 -116 -4l-189 6l-157 -4 l-15 1l-110 -1q-29 0 -82 4l-29 -2q-61 6 -184 7q-109 -6 -226 -7l-104 5l-168 -9l-35 2l-76 -2q-35 -2 -97 1t-83 3h-36q-37 0 -37 52q0 29 2 39l-7 106l5 66q-2 18 -3 155h5q-2 6 -2 23l6 94l-2 121q0 23 4 25l20 10h23l98 4h4l55 -2h29l68 -2q51 0 94 6l76 -8l61 4 l146 -4l118 6l54 -2l163 8h66l35 -2l51 2l217 -8l66 2h22l84 2l137 -2v2q0 -2 15 -2l90 2l28 -2l39 2l2 -2h29l25 2q27 2 36 2l11 -2v-2l139 2l84 -2h20l68 -2l217 8l51 -2l33 2h66l165 -8l54 2l119 -6l145 4l59 -4l78 8q43 -6 94 -6l68 2h27l57 2q86 0 94 -4h25 q20 0 25 -7.5t5 -21.5l-2 -27l4 -196v-23l3 -43h-3zM3734 1036q0 20 -93 21h-90l-102 -6l-78 4h-16l-50 4q-16 2 -46.5 -3t-45.5 -5l-192 8h-47l-201 8l-129 -6l-70 2l-172 -6l-168 8l-63 -2h-47l-105 -6l-49 4l-16 -1l-115 1h-8l-43 2l-18 -1l-121 3l-41 -2h-299l-70 -2 l-129 6l-201 -8h-45l-192 -8l-94 8l-50 -4h-16l-78 -4l-100 6h-92q-90 0 -90 -21v-26l-5 -236h-4l11 -297v-16q0 -23 8 -23h14l121 -6l131 4h64l75 6l49 -2h58l266 2h16l88 4q6 -2 19 -2h20q68 -6 70 -6l59 4q33 2 98.5 -1t92.5 -3l106 4h19l41 4l96 -8l225 6l52 -2l122 2 l152 -6l96 8l43 -4h17l106 -4q127 4 191 4l59 -4q4 0 72 6h18q12 0 21 2l86 -4h16l90 -2h234l49 2l75 -6h64l131 -4l121 6h14q8 0 8 23v16l1 15l3 94q1 4 7 133v18l-2 82h2l-4 191v26z" glyph-name="c" horiz-adv-x="3878" unicode="c"/><glyph d="M1146 18q34 0 86 18q54 18 149.5 47.5t208 66t222.5 92.5q172 63 213 94q63 45 72 119l-2 198l6 101q6 260 -10 309q-19 63 -133.5 99t-163.5 50q-48 14 -72 23q-24 8 -174.5 57.5t-243.5 88.5t-163 46q-69 0 -103 -6t-85.5 -24.5t-118 -44t-98.5 -37.5t-130 -42 t-130 -44t-68 -22.5t-52 -15.5t-65 -23.5t-83 -30t-63.5 -45t-29.5 -70.5l-1 -48l7 -335q-2 -9 -2 -29t2 -28l-2 -72q0 -47 3 -78t30.5 -61.5t54 -46t117.5 -53.5t131 -50q95 -40 233.5 -88.5t161 -56.5t31.5 -10l47 -14q39 -11 53 -14t35.5 -8t38 -6t37 -3.5t54.5 -2.5z M162 611q0 108 -6 192l2 26l-2 127v46q0 47 53 81q53 33 253 97t396 136t245 72q48 0 134 -28q312 -114 463 -161.5t221 -76.5l21 -8q118 -47 118 -108l-2 -27l2 -41l-6 -399q0 -45 1 -80q2 -63 -109 -113q-200 -96 -369.5 -151t-252.5 -87t-208 -53q-127 10 -428 123 q-406 152 -467 192.5t-61 114.5q2 18 2 126zM2107 627v-68l2 -104q-8 -84 -66.5 -122t-130 -64.5t-93.5 -37.5h-2q-10 -10 -52 -20q-229 -97 -444 -158l-74 -22q-47 -16 -84 -21l-30 -4h-48q-42 0 -90.5 15.5t-56.5 17.5q-211 59 -487 172q-14 6 -75 28.5t-133.5 53 t-99.5 67.5q-37 53 -37 150l3 70l-3 41l3 20q0 35 -3 51v8l-4 58v264q0 51 45 88t77 47t92.5 35t94.5 30t67.5 16t76.5 26.5t123 41.5t225 83l47 18q82 31 117 31l8 2h51.5t37.5 -3q54 -8 252 -87t302.5 -106t118.5 -32h4q6 -2 99 -32.5t153 -92.5q4 -6 8 -18v-2 q12 -12 13 -72v-239zM1087 29q0 -6 -95.5 21.5t-121.5 36.5t-153.5 49t-255.5 97q-77 27 -101 38t-103.5 39.5t-92 56.5t-17.5 32q-16 29 -16 111v190q-4 20 -4 58v264q0 70 129 121q33 10 65.5 21.5t83 28.5t97.5 34q131 29 409 141l47 16q16 6 56.5 15.5t56.5 15.5h66 q34 0 312 -98t382 -127h2q25 -8 37 -14q174 -43 209 -115v-2q10 -10 10 -64v-237l-6 -113l2 -188q0 -125 -275 -203l-2 -2q-2 0 -58 -24t-245 -89q-250 -90 -346 -104l-31 -6h-41zM2071 934q2 0 2 4l-2 47l2 21q0 27 -19 47v2q-41 49 -147 84q-25 12 -228 75l-8 5 q-57 16 -108 36l-29 11q-58 20 -126 44t-115.5 42t-87 31.5t-85.5 16.5q-45 3 -119 -22l-32 -10q-66 -20 -213.5 -75.5t-229.5 -80.5q-74 -14 -132 -38t-101 -41t-69.5 -29t-53.5 -36t-27 -50v-12q0 -307 9 -439l-2 -94q0 -62 27.5 -83t56 -36.5t38.5 -21.5 q229 -104 347 -143t269 -92.5t228 -53.5q15 0 23 4q100 13 193 48.5t118 43.5q273 84 516 205q2 2 16.5 8t20.5 13q12 4 14 5t8.5 4t8.5 6t8 8t15 23t9 58l2 186l3 191v88zM2048 1006q0 20 -14 34q-39 49 -176 95q-160 43 -195 61q-57 16 -109 37l-28 10q-223 80 -293 105 q-65 30 -115 29t-110 -21l-31 -10q-47 -16 -201 -72t-208 -72t-85.5 -27.5t-55.5 -17.5t-84 -31.5t-93 -35.5q-57 -27 -82 -72v-12l2 -191q-2 -4 -2 -12l6 -299q-2 -6 -2 -22t2 -31t8 -26t10.5 -18.5t15.5 -14.5t15 -9t18.5 -8t16.5 -8q19 -13 25 -13q219 -104 493 -194 t340 -92l62 10q81 20 158 48t106 36q233 74 500 194l12 9q29 14 59.5 33t30.5 71l-2 70l6 307v160zM1110 117q-60 0 -111 16q-373 109 -489 160q-43 14 -144 54t-115.5 52.5t-32 35t-17.5 106.5l2 59l-6 336q3 3 6.5 37.5t5.5 42.5q3 40 149 89q74 25 108 32.5t56 16.5 t73.5 23.5t87.5 25.5t173 57.5t223 68.5q98 0 152 -22q51 -16 191.5 -66t202.5 -66q115 -30 204 -57t147 -67q41 -17 41 -99l2 -200q-6 -6 -6 -88l1 -11v-31l1 -81q0 -129 -84 -162q-148 -74 -192 -74q-135 -57 -352 -123t-277 -65z" glyph-name="d" horiz-adv-x="2215" unicode="d"/><glyph d="M2252 20q-27 0 -194 52q-166 52 -283 96.5t-343 101.5q-76 14 -209 61.5t-164 55.5t-97.5 40.5t-149.5 48.5t-166.5 50.5t-188.5 68.5t-150 52q-10 0 -107.5 35t-97.5 50t22.5 26.5t65.5 24t48 14.5l41 18q39 20 61 21q66 16 184 68t178.5 65t149.5 59q4 2 54 17.5 t61 29.5q3 2 81 32t132.5 54.5t65.5 23.5q10 -1 20 -1t100 32t309 82q27 6 92 31t105 25t175.5 48t175.5 50q39 2 61 -4t151.5 -50t173.5 -44t101 -24t247 -66q12 -2 121.5 -41t133.5 -39t28 2l37 -12q14 -6 126 -43.5t120 -51.5t60 -30.5t64 -22.5t91 -30.5t160 -62.5 q82 -38 222 -88t157.5 -55.5t62.5 -19.5t49 -27q0 -16 -65.5 -45.5t-135.5 -48.5q-33 -14 -159 -53.5t-180 -65.5t-165.5 -56t-181.5 -64q-68 -16 -214 -69t-200 -65t-171 -47t-141 -41t-129 -38.5t-155 -55.5q-16 0 -114.5 -37t-125.5 -37zM1034 1055q-14 0 -47 -13.5 t-73 -32t-54 -23.5t-137 -56t-184 -68l-340 -123q15 0 55 -20q246 -82 293 -105t127 -51t185.5 -63t139.5 -47t88 -33t112.5 -43.5t113.5 -33.5t114.5 -32.5t79.5 -21.5q78 0 283 -82q128 -64 170 -64q68 -12 287 -84q61 19 189 55t293 106t241 69q24 0 52 10t103.5 31.5 t240.5 79.5t249 82q84 26 271 100t351 127q51 20 58 20q-112 35 -389 140q-266 110 -738 282q-39 8 -108.5 32t-104.5 32q-94 16 -301 81.5t-336 90.5q-61 6 -71 14q-20 -10 -74 -14q-60 -15 -84 -27q-66 -18 -304.5 -81t-302.5 -83t-157.5 -46t-129.5 -40t-67.5 -28.5 t-55.5 -25.5t-38 -11z" glyph-name="e" horiz-adv-x="4491" unicode="e"/><glyph d="M3772 774v-110l2 -64l-6 -82l4 -94q-4 -27 -153 -27l-178 2l-33 -2l-100 9l-175 -5l-225 7q-125 0 -182 -7l-29 2q-57 -4 -84 -4l-63 2l-84 -2l-135 4l-189 -6l-117 4l-21 -1l-153 1q-14 -4 -73 -4l-232 6l-157 -4l-15 1l-110 -1q-29 0 -82 4l-29 -2q-61 6 -184 7 q-115 -6 -226 -7l-104 5l-168 -9l-35 2l-188 -4q-84 0 -117 13q-20 0 -22 7q-3 7 -3 37t3 40l-7 106l4 66q-4 28 -4 62v16l2 73v4h5l1 29l1 215v6q0 10 2 18.5t147 8.5l152 -4q51 0 94 6l76 -8l61 4l145 -4l119 6l54 -2l163 8l101 -2l51 2l217 -8l172 4l137 -2v2q0 -2 15 -2 l90 2l28 -2l39 2l2 -2h11q-2 0 -2 2q10 2 83 2l11 -2v-2l137 2l172 -4l217 8l51 -2l33 2l231 -8l54 2l118 -6l146 4l59 -4l78 8q43 -6 94 -6l152 4q109 0 129 -5.5t20 -27.5l-2 -27l6 -262h-2zM3674 1004q-8 0 -13 2t-87 2l-115 -4l-80 4l-13 -2h-85l-103 -2l-100 4l-41 -2 l-129 6l-86 -2l-31 4q-121 0 -217 -8l-198 8l-160 -8l-141 6l-86 -2l-31 4q-119 0 -215 -8q-29 0 -82 4l-68 -2h-11l-37 1l-111 1l-127 -4q-102 8 -217 8l-31 -4q-2 0 -6 2l-209 -6l-41 2l-103 -4l-100 2l-12 -1l-86 3l-80 -4l-117 4q-80 0 -97.5 -4.5t-17.5 -20.5l3 -43 v-66q0 -18 -5 -55h-2l-2 -166l2 -17v-106v-18q0 -18 21 -18q65 -13 178 -6.5t207 6.5l86 -5l231 5q57 0 84 -5l23 3q41 -4 63 -5l97 2l34 -2l86 5l146 -7l69 2l95 -2l145 7l84 -5l37 2l58 -1q57 -1 102 4l22 -3q25 4 84 5l299 -9l143 7l86 -5l37 2l95 -2q20 0 65 5l23 -3 q23 4 82 5l231 -5l86 5l293 -9q111 0 112 23q0 41 -2 55q0 14 5 94l-3 117h3l-5 100l2 105q0 25 -16 25zM3660 965q0 -52 4 -146q-6 -55 -6 -178l2 -41q0 -80 -13 -80l-104 -6l-195 8l-36 -2l-13 2l-180 -2l-82 4l-18 -2l-49 4q-34 -6 -66 -6t-53 4l-158 -4l-129 6l-74 -6 l-77 2l-125 -2l-82 4l-17 -2l-51 4q-34 -6 -66 -6t-53 4l-157 -4l-129 6l-74 -6l-117 4l-156 -4l-69 8l-23 -2q-75 -6 -110 -6l-156 4q-20 -4 -56 -4t-65 6l-49 -4l-16 2l-84 -4q-90 0 -135 2l-56 -2l-39 2l-196 -8q-111 0 -111 25l2 18q-8 29 -8 217h2l4 184q0 18 82 19 l33 -1l215 1l96 -8q33 0 111 8l76 -2l116 10l107 -6l78 2l110 -6l139 6l41 -2l25 1l172 -1l43 2l137 -6q70 6 133 6l54 -2l108 6q82 -10 156 -10l145 6l238 -6q66 6 133 6l53 -2l109 6q106 -10 133 -10l47 2l123 -8l94 8l115 -6l135 6q82 0 82 -12z" glyph-name="f" horiz-adv-x="3876" unicode="f"/><glyph d="M1104 1436h22q45 0 160 -41q133 -53 328.5 -113t224.5 -72t104 -39t126 -56.5t59 -86.5v-188l-6 -203l2 -35v-98q0 -53 -27 -133q-38 -51 -168 -103.5t-321 -118t-256 -90.5q-140 -57 -236 -57t-346 92l-82 27q-213 68 -289 108q-76 39 -144.5 69t-108.5 60.5t-40 110.5 l3 104l-1 7l1 51l-3 57v17l-2 119q-2 118 0 204q14 80 168 135q39 14 100.5 32.5t100.5 35.5t163 55t258 94t210 56zM2103 1026q0 35 -40 61.5t-113 55.5q-59 29 -189.5 67t-163.5 50t-117.5 45.5t-187.5 70.5t-172 37q-69 -1 -115 -21t-106.5 -41.5t-137.5 -47t-109 -37.5 t-162 -51t-199 -72l-82 -25q-82 -26 -82 -92l-4 -72q-2 -74 8 -110l-2 -41l6 -254l-2 -98l10 -45q4 -26 27 -40t35 -21t32.5 -17t194.5 -82t363 -135q47 -12 131.5 -49t188.5 -37t406 110.5t515 216.5q47 14 63 99l-4 92l4 63l-2 25q0 86 6 172l-2 33l2 96v94zM172 842 q0 117 5 150.5t28 56.5l88 49q25 10 31 12l36 12q59 23 70 25l76 27q18 4 31 4q16 6 106.5 30t239.5 83t220 59t161 -32t276 -92t221 -64.5t74 -26.5q31 -12 79.5 -28t82.5 -38q27 -8 43 -20t16 -60v-24l2 -127l1 -72q1 -73 -7 -92l2 -56l-2 -12l2 -102q0 -57 -24 -82 q0 -33 -46.5 -53.5t-55.5 -23.5l-73 -28q-25 0 -149 -55q-55 -20 -139 -48t-131 -46q-29 -6 -156 -43t-164 -37q-104 0 -174 37q-104 25 -231 74q-45 14 -126 44.5t-120 41.5q-66 33 -88 32l-78 29q-78 30 -100 80q-20 29 -21 78l2 90l-2 12l2 62q0 39 -4 48t-4 126z M2007 966.5q0 12.5 2 18.5q-35 53 -57 53q0 14 -156 62q-6 2 -84.5 29t-169.5 47q-70 24 -152 51t-100 35q-87 37 -151 43h-2l-82 -7q-37 -6 -132.5 -41t-131.5 -47t-107 -37t-152 -43q-80 -18 -126 -40t-101 -36t-82 -69l2 -166l-2 -22q0 -74 4 -111v-63l2 -52l-2 -59 q0 -39 10.5 -54.5t14.5 -21.5t20 -16.5t142 -69t411 -143.5l19 -6q84 -20 96 -31q14 -4 40 -13.5t56.5 -16.5t79.5 -7t176 37q8 8 55.5 22.5t60.5 16.5t118.5 41t163.5 53q193 84 208 84q74 38 89.5 57t15.5 43l-2 95q0 66 4 98v6l1 18l-1 111l4 133q-2 6 -2 18.5z" glyph-name="g" horiz-adv-x="2230" unicode="g"/><glyph d="M725 453q-6 0 -73.5 -1t-256 -4t-188.5 23q2 18 2 57l-2 148q0 18 2 29h-2l2 174q10 33 18 34l287 5l154 -5l237 7l277 -5l143 3l346 -3l166 7l184 -4l197 4l184 -7l256 7l426 -9l279 2q4 0 35.5 3.5t31.5 -35.5l2 -178h-2l-2 -154l2 -78q0 -27 -157 -27l-2 3l-254 4 l-439 -2l-163 2l-72 -2l-242 2l-616 -4l-649 4h-111zM256 750h2v-193q0 -25 3 -37t21.5 -18t21.5 -6h56q369 8 553 8l170 -2l127 2l121 -2l299 6l137 -6l347 2h35l231 2l78 -2l317 2l520 -8q82 0 82 16l4 193q0 156 -10 155l-291 4l-153 -4l-224 8l-266 -4l-117 4l-182 -4 l-180 4l-72 -2h-59l-127 -2l-248 4l-260 -4l-268 6l-355 -8l-24 2q-66 -4 -99 -4l-69 2l-103 -2q-21 0 -19.5 -53t1.5 -59zM106 365v4q0 96 -4 147l2 189h-2q6 100 7 301q0 16 27 16l171 -2l103 -2l86 4l61 -4l479 10l410 -6l102 2l416 -2l430 6l567 -12l228 6 q342 0 342 -21l-2 -43q0 -2 6 -253h-2l4 -189q-6 -47 -6 -94l2 -55q0 -27 -238 -27l-223 6h-129l-262 4l-225 -6l-297 2l-136 -6l-84 2l-325 -2l-103 6l-135 -2l-387 6l-210 1q-210 1 -260 -4t-57 -5l-181 -1q-175 -1 -175 24zM3478 705h-3q-2 80 -2 241q0 16 -141 17 l-123 -5l-119 5l-129 -7l-364 15l-100 -4l-95 2l-223 -4l-39 1l-268 -1h-21l-53 -4l-285 8l-188 -2l-311 4q-254 -14 -328 -15l-143 7l-131 -7l-113 9l-123 -7q-12 0 -12 -253h-4q0 -129 10 -289q0 -18 113 -19l292 9h93l372 2l127 -2l303 6l154 -6l242 2l190 -2l103 6 l305 -9l188 5l139 -2q96 0 115 2l436 -11q127 0 127 21l9 186v101z" glyph-name="h" horiz-adv-x="3639" unicode="h"/><glyph d="M104 831h2v17l7 100l-2 127q0 20 6 24.5t18 4.5h23l96 4h4l57 -2h29l49 -4l121 6l74 -6l65 4l135 -4l117 6q12 -2 39 -2l180 8h60l37 -2h10q2 0 6 -2l37 4q160 0 285 -8l106 4l137 -2v2q0 -2 12 -2t29 2h17l71 -2h7h36h31l27 2q25 2 34 2l11 -2v-2l139 2l104 -4 q156 8 285 8l37 -4h2q2 2 4 2h10l37 2h58l180 -8q27 0 41 2l116 -6l136 4l65 -4l76 6l117 -6l51 4h29l57 2q82 0 94 -4h23q33 0 32 -25l-4 -82l6 -141l-2 -29q0 -18 4 -43h-2q0 -94 -2 -108l4 -66l-6 -108q2 -16 1 -47t-4 -33t-19 -2q-35 -10 -205 -10l-102 2l-33 -2 q-10 0 -22 4t-146 4l-105 -4l-262 4l-153 -4l-23 2q-53 -4 -82 -4l-73 2l-52 -2q-31 -2 -84 1t-73 3l-189 -6l-133 4l-65 -4q-53 4 -76 4l-133 -4l-189 6l-157 -4l-54 2l-73 -2q-25 0 -82 4l-23 -2l-151 4l-263 -4l-104 4l-170 -8l-33 2l-76 -2q-252 0 -256 26l5 94l-7 82 l2 52v167zM145 547q0 -96 13 -96h16l121 -9l145 7h49l76 6q25 -4 35 -4l33 2l215 -2l96 4l33 -2l57 4q31 0 45 -2h31l10 -1l86 1l47 -2h11l137 -2l104 4h19l43 4l96 -8l225 6l49 -2l125 2l152 -6l94 8l43 -4h19l106 -4l137 2h10l46 2l57 -4l39 4h31q12 2 45 2l59 -4l33 2 l96 -4l213 2l35 -2q12 0 33 4l77 -6h47l146 -7l121 9h14q12 0 10 19t3 37t4.5 97.5t3.5 126.5l-2 100h2l-7 173q0 31 1 48t-183 17l-100 -6l-78 4h-16l-52 4l-120 -10l-164 10l-62 -2l-186 10l-127 -6l-18 1l-125 -3l-15 2l-84 -4l-174 8l-57 -2h-47l-99 -6l-13 1l-95 -1 l-78 4h-10l-43 2l-18 -1l-113 3l-174 -8l-84 4l-15 -2l-73 4l-70 -2l-129 6l-184 -10l-62 2l-164 -10l-123 10l-49 -4h-16l-78 -4l-100 6q-184 0 -185 -20l3 -48l-7 -217h-2l-2 -34l6 -152v-51zM2740 1026l86 -2h82q72 0 107 -6l90 2l63 -6l113 4l47 -4l57 6l72 -4l53 2h21 l43 2q66 0 73 -4h17q25 0 24 -25v-20l5 -160l-3 -27v-77l1 -11v-38l-1 -115q0 -27 -2 -32t-18 -5q-27 -8 -158 -8l-78 2l-26 -2q-14 -2 -55 3t-56 5l-119 -4l-153 4l-146 -4l-18 2q-45 -4 -63 -4l-56 2l-41 -2q-23 -2 -63.5 1t-57.5 3l-145 -6l-242 8l-145 -4l-16 2 q-45 -4 -66 -4l-55 2l-39 -2q-23 -2 -65 1t-58 3l-143 -6l-72 2l-94 -2l-144 6l-122 -4l-41 2l-56 -2q-23 0 -63 4l-19 -2l-145 4l-154 -4l-29 1l-200 -5l-27 2l-57 -2q-193 0 -197 22q0 41 2 55l-1 23l-1 233h2l2 56v104q0 25 23 25h12l76 4h4l43 -2h21l53 -2q14 0 43 4 l84 -6l49 4l113 -4l63 6l29 -2l168 6h86l67 2q42 0 120 -5t105 -2t37 3l111 -2l64 2l32 -2l68 2q53 -4 80 -4q119 8 172 8t74 -4l4 2h100q58 0 90 -6l49 2l344 -2q106 8 166 8z" glyph-name="i" horiz-adv-x="3876" unicode="i"/><glyph d="M106 514q0 20 3 31l-3 78l3 20q0 37 -3 55v7l-4 57v231q0 114 121.5 163t168 61.5t90.5 28.5t194.5 67t230.5 80l47 18q82 31 115 31l10 2h62q66 -12 108 -27q563 -190 596 -203h2q25 -8 37 -14q182 -53 221 -125l2 -2l11 -72v-243l-7 -111l3 -18q0 -152 -15.5 -196 t-24 -62.5t-39 -39t-49 -28.5t-72.5 -29.5t-89 -35.5l-2 -2q-4 0 -58 -23t-180.5 -72.5t-211.5 -78.5t-208 -48l-30 -4h-50q-19 2 -211 50t-444 160t-288 147.5t-36 146.5zM2064 963q0 74 -14 88q-47 55 -371 155l-6 4q-29 4 -110 37l-29 10q-33 12 -192.5 74t-221.5 62 q-61 0 -112 -21l-31 -12q-41 -14 -200 -71t-215 -75t-118 -37.5t-84 -28.5t-60 -22.5t-65.5 -24.5t-53 -32.5t-25.5 -44.5v-12q0 -309 8 -443l-4 -104q0 -74 114 -115q246 -115 390 -155q164 -70 389 -127q10 -2 33.5 -4.5t31.5 -4.5l21 4q97 13 190.5 48.5t120.5 44.5 q180 53 504 196l8 6l16 9q82 27 82 104l-2 33v8v16l2 78zM186 956q0 103 83.5 137t166 56t159.5 43t327 108l45 17q18 6 53 13t53 13h66q57 -6 98 -20q262 -96 547 -176h2q45 -15 57 -18q149 -37 180 -103v-2q10 -10 11 -61v-207l-4 -232q0 -82 -62.5 -131t-202.5 -88h-2 q-2 -2 -6.5 -2.5t-64.5 -24.5t-151 -54t-185.5 -64t-194.5 -47l-28 -4h-43q-31 4 -75 15t-59 13q-344 96 -637 221q-89 24 -109 74t-20 111l3 61q-7 28 0 51q0 31 -3 47v5l-4 51v198zM238 983v-168q0 -150 6 -223l-4 -84l10 -37q14 -55 260 -138t266 -89t137 -44t156 -40 t49 -6q154 32 222.5 51.5t272.5 96.5q205 76 239 92t38 16l15 8l37 10q38 11 38 80l-2 29l4 297v79l3 17q-1 62 -17 78q-30 30 -40 34l-68 25q-202 66 -240 75q-38 10 -94 32l-29 8q-51 20 -110 37q-60 18 -141.5 49.5t-116.5 31.5t-113 -20l-29 -8q-223 -88 -495 -162 q-31 0 -95.5 -24.5t-102.5 -45t-56 -57.5z" glyph-name="j" horiz-adv-x="2220" unicode="j"/><glyph d="M2243 0q-7 0 -179 52t-277.5 92.5t-354.5 105.5q-76 14 -209 61t-164 55t-97.5 41t-151.5 50q-86 16 -143 39.5t-91 36.5t-131 45t-142 51q-201 59 -201 84t65.5 43t70.5 20l41 19q39 20 61 20q66 17 184 69t179 64.5t149 59.5q4 2 54 17t61 30q3 1 81 31t132.5 54.5 t65.5 23.5q10 -1 20 -1t100 33t309 82q25 6 92.5 30.5t87.5 24.5h7q25 0 90 20.5t84 24.5t94.5 29t103.5 26t50 -5t151.5 -50.5t194.5 -44.5h6q18 1 74 -23t247 -67q12 -2 121.5 -41t133.5 -39t28 2l37 -12q14 -6 125.5 -42.5t120.5 -51.5q8 -14 60 -30.5t64 -22.5t91 -31 t209 -84t206 -76q20 0 60 -19.5t106 -37.5t70 -35v-8q0 -12 -73 -42t-128 -44q-33 -14 -159 -53.5t-180 -65.5t-165.5 -56t-181.5 -65q-68 -16 -214 -69.5t-200 -64.5t-171 -47t-141 -41t-129 -38t-155 -55q-18 2 -116.5 -36t-132.5 -38z" glyph-name="k" horiz-adv-x="4491" unicode="k"/><glyph d="M3715 623q0 -39 -29.5 -68t-61.5 -42t-58 -21t-56 -15q-30 -6 -129 -44t-133 -47t-135.5 -45t-170.5 -47t-166 -47t-111.5 -36t-38.5 -10q-24 -9 -86 -25t-97 -28.5t-44 -12.5t-13 2l-10 -2h-2q-55 -23 -210 -62.5t-214 -58.5l-29 -14q-49 0 -163 42t-136 42h-4 q10 -5 -19 4q-33 12 -48 17t-122.5 44t-273.5 80q-6 4 -92 26t-367 116l-16 4q-24 0 -47 14t-23 19q-47 23 -132 41t-151.5 46.5t-80.5 28.5q-113 49 -127.5 63.5t-14.5 69.5v2l11 164v4q0 12 14 32t29 26q0 4 44 21.5t94 42t81 24.5l209 76q2 0 20 12t45 20h2q24 14 52 22 q28 9 94.5 38.5t91.5 29.5h6q4 -2 8 -2t88.5 32.5t167.5 43.5q199 57 346 95t218.5 66t150.5 28q47 -10 122 -35t135 -41t195.5 -61.5t144.5 -47.5q102 -23 132 -41q55 -20 149 -39.5t116 -27.5t75 -21.5t98 -36.5q84 -35 237.5 -76t193.5 -55t69 -24t45 -16.5t34.5 -11.5 t28 -10t19.5 -9t14 -9.5t11.5 -10.5t13.5 -42v-4q10 -12 10 -29l-2 -20v-2q-4 -16 -4 -29l1 -11l1 -65v-36zM2024 99q48 17 77 26t115 33t155 48.5t252 63.5q90 14 115 39q6 5 87 25t137.5 39.5t93.5 19.5l138 46q138 46 165.5 56.5t60.5 20.5t101.5 40t86.5 35t24.5 11 t6.5 11v87q0 43 -12 123q0 4 -13 9l-268 88l-22 4l-88 24q-27 10 -74 24t-156.5 48.5t-175.5 52.5q-37 0 -65 25q0 -2 -78.5 13t-151.5 48q-61 12 -165.5 53t-159.5 56q-168 35 -338 96h-2l-2 2q-10 -8 -31 -12h-2q-14 -6 -58 -14.5t-62 -16.5t-52.5 -17.5t-79.5 -19.5 t-67 -16l-99 -25l-22 -4q-193 -34 -246 -70q-2 0 -58.5 -24.5t-105.5 -24.5q-25 -8 -114 -33.5t-169 -66.5v-2q-4 -2 -16 -3t-18 -7q-303 -119 -416 -164q-59 -27 -72 -27l2 -26l-8 -111q0 -4 -1 -16.5t6.5 -30t189 -78t203.5 -70.5t51.5 -17.5t65.5 -23.5t193.5 -62 t233.5 -75l2 -2l123 -26q111 -29 157 -49t98 -38t161.5 -51.5t169.5 -54t71 -20.5t26 7t34 7q18 0 66 17z" glyph-name="l" horiz-adv-x="3821" unicode="l"/><glyph d="M1104 1432q4 0 8 -2h4q2 2 10 2q51 0 160 -41q244 -100 348 -123q73 -27 211 -66l105 -37q92 -33 130 -64.5t48 -76.5v-188l-6 -205l2 -35v-96q0 -65 -11.5 -94t-15.5 -39q-51 -72 -397 -191q-51 -20 -170 -59t-178 -64q-131 -55 -239 -55t-234 55q-18 8 -197 61.5 t-369 149.5q-106 39 -156.5 81t-50.5 120l3 104l-3 27l3 29l-3 59v16l-4 136q0 102 2 188q7 58 78 99.5t293.5 109t268.5 83.5t164.5 66t195.5 50zM2103 1022q0 78 -258 154q-261 75 -457 154t-265 79t-202 -50.5t-174 -64.5t-203.5 -64t-252.5 -91l-29 -11 q-135 -47 -135 -106l-2 -70q-2 -69 6 -112l-2 -41l6 -256l-2 -37l10 -105q2 -25 39 -50t84 -40q186 -86 369 -149q53 -14 187 -63.5t174 -57.5t53 -15.5t55 -7.5q43 0 132 20.5t134 45.5q41 14 128 46t216.5 78.5t321.5 139.5q31 10 43 30.5t20 65.5l-4 93l4 65l-2 25 q0 86 6 172l-2 32l2 97v94zM1106 1364h18q45 0 152 -37q178 -68 524 -170q174 -68 216 -91.5t50 -70.5v-170l-6 -186l2 -31v-88q0 -76 -26.5 -106.5t-38.5 -45t-48 -30.5t-55 -26t-76 -29q-56 -19 -266 -104.5t-415 -112.5q-120 0 -249.5 48t-154.5 54q-59 23 -143 51.5 t-128 44t-113 42.5t-125 70.5t-56 112.5l2 95v6v43l-2 53v16l-4 123q0 92 2 170q8 48 64 76.5t131.5 58t230 74t295 102.5t219.5 58zM188 993v-65l2 -109l-2 -28q4 -102 5 -156v-23l2 -57l-2 -84l10 -41q2 -18 18.5 -30.5t50 -28t45.5 -23.5q27 -10 187.5 -77.5 t308.5 -106.5q213 -80 312 -80t292 80q141 42 213 70t139 54q66 26 106 43t86 41.5t61.5 47t15.5 51.5l-2 96q2 12 2 33v12l4 179v6v43v67l2 86q0 37 -61.5 69t-182.5 71q-410 129 -516 170q-86 41 -165 41t-171 -41q-371 -137 -665 -226q-95 -40 -95 -84z" glyph-name="m" horiz-adv-x="2230" unicode="m"/><glyph d="M104 537l2 53l-2 26v39q0 131 2 156v13l3 87v19l2 55l-2 76q0 10 20 10h10q2 2 56 2l84 -2l51 4l43 -4l33 2l51 -2l223 6l45 -2l10 2l2 -2l19 2l162 -4l59 2l84 -2h14l10 2l37 -2h4l4 2l25 -2h6l4 2h37l139 -2l162 4l11 -1q10 -1 10 0v1l10 -2l45 2l223 -6l51 2l33 -2 l43 4l53 -4l82 2q51 0 56 -2h10q20 0 20 -24v-7q-2 -14 -2 -55l2 -55v-12q0 -16 4 -50l-2 -18l2 -195l1 -9l-3 -87q2 -10 2 -37q-4 -14 -129 -14h-83q-6 6 -33 4t-49 -1t-35 -1l-154 2l-106 -4l-13 2l-55 -2l-31 2l-28 -2l-88 2l-107 -4q-45 4 -74 4h-9h-70q-57 0 -74 -4 q-18 0 -51 4l-142 -2h-7h-52l-57 2q-2 0 -7 -2h-4l-108 4l-70 -2l-127 2l-80 -4h-63l-72 -2q-72 -2 -72 31zM1544 532q79 0 86 3l109 -5h131l26 2l43 -4h35l76 -4q78 0 78 19v12q4 8 4 29l-2 28q0 25 4 74v64l-6 92l2 63l-2 135q0 12 -103 13l-57 -4l-51 4h-4l-9 1 q-10 1 -65 -5q-106 0 -240 10l-45 -4q-43 0 -65 2l-25 -1l-77 -1l-205 -2l-9 1l-63 -1l-72 4l-32 -2l-33 2l-25 -1l-178 1q-20 -2 -63 -2l-48 4q-113 -10 -237 -10l-57 6l-19 -2h-4l-49 -4l-60 4q-102 0 -102 -13v-20l-2 -90l2 -96q-6 -54 -6 -104t-2 -96.5t8 -78.5v-12 q0 -18 76 -19l78 4h34l43 4l27 -2h33l207 5l55 -5h8h60l172 5l51 -7l231 4l78 -4l51 7l17 -3l78 -2z" glyph-name="n" horiz-adv-x="2258" unicode="n"/><glyph d="M728 1456q15 0 70 -35t165 -94l45 -24q63 -47 131.5 -76t82 -35t44 -22.5t56.5 -34t26 -35.5q6 -16 6 -35v-3v-28l-4 -43q-4 -41 -4 -69l4 -52q0 -14 -2 -22v-19v-9v-30l-2 -94l2 -16l-5 -41q0 -25 5 -78l-2 -49v-12l-1 -14l1 -70q0 -46 -49 -79t-61 -39l-91 -46 q-16 -8 -89 -55t-125 -73t-108.5 -63.5t-84.5 -37.5q-27 0 -43.5 7t-38 21.5t-57.5 32.5q-37 18 -115 66q-78 46 -93 59q-31 6 -106.5 56t-118.5 63q-55 14 -55 80q0 25 2 36l-4 117q0 43 2 66l-5 51l3 18l-3 74q2 10 3 33l-3 26l3 15l-5 26q6 37 7 52l-5 24v62l-4 26 q0 55 21 86.5t145.5 83.5t180.5 99q6 1 135 77t144 76zM1313 713q-2 12 -2 68t-2 81l2 27l-4 59v10q-2 8 -2 19l6 104v2q0 8 -59.5 48t-80.5 49q-125 51 -159 80l-189 100q-37 23 -54 34t-27.5 16t-14.5 7q-4 -4 -14.5 -9t-20.5 -12t-165.5 -94.5t-208.5 -108.5t-113 -61 t-60 -49l2 -112v-33l-4 -53l2 -19l-2 -78v-75q0 -27 4 -80l-2 -45q2 -10 2 -31v-14l3 -45v-90q0 -25 38.5 -49.5t135.5 -65.5q8 -6 72 -39t278 -168q37 -20 53 -31l55 31q6 4 75 42t110 69q25 0 71.5 34.5t73.5 50.5t69 37t59 31t32.5 16.5t19.5 15.5t6 13t9 25l-2 78l2 37 v8l2 51v12z" glyph-name="o" horiz-adv-x="1456" unicode="o"/><glyph d="M111 967l-2 61q0 25 20 25h10q2 2 56 2l81 -2l54 4l43 -4l33 2l51 -2l223 6l45 -2h4l4 2l2 -2h2l19 2l162 -4l57 2l86 -2q4 0 12 2h10l39 -2l2 2h4l27 -2l4 2h43l139 -2l162 4l17 -2l2 2l12 -2l43 2l225 -6l51 2l31 -2l11 1l85 -1l84 2q51 0 56 -2h10q12 0 15 -3t3 -12 v-16l2 -111v-12l4 -262v-66q-2 -27 -2 -30l2 -23q0 -37 -39.5 -33t-44.5 4h-122l-123 3l-154 2l-108 -5l-11 3l-57 -3l-7 1l-52 -1l-22 1l-171 -3q-12 2 -36.5 0.5t-39.5 4.5l-9 -1l-68 1h-17q-45 -5 -60 -5t-48 5l-144 -3l-28 3l-31 -3l-55 3l-13 -3l-106 5l-70 -2l-129 2 q-49 -4 -80 -5h-24q-176 0 -181 15q0 27 2 37l-4 63l4 227l-2 19l5 43v18zM1544 514q79 0 86 2l109 -4h131l26 2l43 -4h35l76 -4h30q29 0 40.5 10t7 26.5t6.5 125.5q0 74 -6 147l2 25l-2 161v21q0 12 -103 12l-15 -1l-93 1h-4l-19 2l-57 -6q-111 0 -240 10l-45 -4 q-43 0 -63 2l-25 -1l-178 1l-104 -4l-35 2l-37 -2l-72 4h-8h-57l-25 -1l-178 1q-23 -2 -65 -2l-46 4q-117 -10 -239 -10q-55 6 -56 6l-18 -2h-4l-51 -4l-60 4q-100 0 -100 -6v-6l-4 -135l2 -64l-4 -92v-49l2 -88v-29q0 -51 23.5 -55t56.5 -4l76 4h36l43 4l27 -2h33l207 4 q10 -4 15 -4h38h8h62l172 4l49 -6l233 4l78 -4l51 6l90 -4h5zM2009 539h-59q-25 0 -62 4l-33 -2l-118 2l-84 -4l-8 2l-43 -2l-6 1l-40 -1l-67 2l-82 -2l-135 4l-82 -4l-8 2l-45 -2l-5 1l-40 -1l-68 2l-82 -2q-115 0 -131 2l-109 -2l-24 2l-21 -2l-45 2l-8 -2l-82 4l-53 -2 l-98 2q-41 -4 -64 -4h-18q-137 0 -139 12q0 23 2 31l-5 51l5 188l-2 17q4 20 4 39l-2 18l2 37v59q0 6 2 10l26 5h33l68 -2q25 4 41 4l8 -1l51 -1h37l24 -2q109 0 138 6l22 -2h2h29h4q4 2 14 2l11 -1l67 -1q14 -2 45 -2l45 2l68 -2h7h40l37 2l45 -2q29 0 43 2l39 -2l39 4 q10 0 16 -2h4l21 2h2h28q33 -4 54 -4h57l51 4l111 -4q29 0 43 2h9l69 2q10 0 16 -2h4l21 2l10 -2l20 2q35 -6 140 -6l22 2h37l27 -2l34 4q16 0 41 -4l66 2q43 0 53 -2.5t10 -12.5l-2 -12l2 -92v-10l2 -215l2 -29q0 -31 -2 -47.5t-3 -28.5t-12 -15t-15 -4t-29 0t-39 1z" glyph-name="p" horiz-adv-x="2256" unicode="p"/><glyph d="M728 1442q15 0 67 -33t168 -98l45 -23q60 -45 130 -74.5t83.5 -36t42 -21t56.5 -33.5t28 -38q6 -16 6 -34l-2 -11l2 -20l-4 -41q-4 -43 -4 -72l4 -51q0 -14 -2 -22v-19v-9v-31l-2 -93l2 -16l-5 -41q0 -25 5 -78l-2 -49v-13l-3 -55l3 -29q0 -45 -49 -78t-61 -39l-91 -46 q-16 -8 -89 -55t-125 -73t-109.5 -64t-83.5 -38q-27 0 -45 8t-64 39q-67 33 -145 80t-93 60q-31 6 -106.5 56t-118.5 62q-55 14 -55 80q0 25 2 37l-4 117q0 43 2 65l-5 52l3 18l-3 74q2 10 3 32l-3 27l3 14l-5 27q6 37 7 51l-5 25v61l-4 27q0 55 21.5 86t145.5 83t180 99 q6 0 135 77t144 77zM1251 469v160l2 37v4q2 2 2 6q-2 4 -2 16v19l2 4l-2 63l1 5v14v17l-3 69q4 6 4 45v12l5 33v26q0 10 -5 31v2q-12 12 -24 27q-70 49 -127 69q-48 40 -96 52q-132 71 -179 100t-67 41t-34 12t-42 -18h-2q-4 -2 -20 -13t-84 -49t-77 -43.5t-14.5 -7.5 t-11 -3.5t-14.5 -10.5q-57 -16 -88 -47q-12 -6 -40 -19.5t-59 -28.5t-75 -61v-2q-4 -20 -4 -55v-2l4 -33v-12l2 -49l-4 -43q0 -8 4 -19v-4q-2 -9 -2 -19v-12l2 -4l-2 -63v-4l2 -21l-2 -20l2 -4v-37l2 -107v-4q-2 -4 -2 -11t2 -9v-29l-2 -18q0 -37 18.5 -56.5t61.5 -37 t54 -24.5t42 -22.5t41 -25.5l59 -41q16 -8 23 -8q102 -52 147 -85.5t65 -33.5q19 0 44.5 11t48 23.5t59.5 34t54 29.5q23 23 41 23q10 12 48 25t72 48q28 13 65.5 34.5t50.5 28.5t33.5 26t20.5 69zM1219 1016l-2 -105v-4l2 -61l-1 -8q-1 -7 0 -7t1 -2l2 -61q-2 -12 -2 -69.5 t-2 -63.5l2 -37l-5 -29l3 -10l-3 -67v-5q0 -47 -12 -65.5t-58 -37t-62 -28.5t-29 -16t-21 -10t-41 -26.5t-57 -33.5h-2q0 -20 -205 -123q-4 2 -43 27l-145 84q-14 10 -15 12h-2q-47 21 -88 48.5t-45 28.5t-31 18l-26 14q-92 35 -92 61l2 47v5l-4 106q0 8 2 14l-4 90 q0 94 2 107l-2 39l4 59v4l2 23q-4 33 -4 80q4 12 48 41.5t68 40.5l101 59q51 25 69 25q174 87 203 116l85 -50q85 -50 94 -54l61 -29q18 -14 78.5 -39.5t76.5 -37.5t54 -34t43 -36z" glyph-name="q" horiz-adv-x="1456" unicode="q"/><glyph d="M734 1440q26 0 79 -45q265 -151 358.5 -194t135 -69t41.5 -47q6 -18 6 -34l-2 -11l2 -20l-8 -113l4 -53q0 -14 -2 -20v-19l-2 -39l4 -43l-4 -53l2 -16l-5 -39q0 -29 5 -78l-2 -49v-13l-3 -55l3 -29q0 -37 -18.5 -54t-28 -23.5t-32.5 -17t-76.5 -44t-86.5 -47.5t-82 -48.5 t-96 -58.5t-103.5 -63t-83.5 -39q-28 0 -45.5 9.5t-36 23t-57.5 31.5q-40 18 -72 38q-36 23 -48.5 25.5t-88.5 61.5q-27 2 -104.5 54t-120.5 64q-55 14 -55 80q0 23 2 37l-4 117q0 43 2 63l-5 52l3 18l-3 74q2 12 3 32l-3 29l1 3l-3 36q6 43 7 53l-5 25v59l-4 29q0 53 33 90 t152 90t162 88l43 23q122 68 169 98q47 31 73 31zM1313 698q-2 12 -2 69t-2 81l2 26l-4 60v2l-2 27l6 102v2q0 10 -59.5 49t-75.5 46q-122 52 -164 83l-195 105q-33 18 -49 28t-41 25q-21 -15 -81 -50.5t-82.5 -50t-61.5 -34t-56.5 -27.5t-75 -35.5t-86 -42t-84 -50.5 t-55.5 -46l5 -94q0 -4 -3 -17v-32l-4 -56l2 -16l-2 -78v-76q0 -29 4 -82l-2 -43q2 -10 2 -32v-13l3 -45v-92q0 -29 34 -45q18 -10 50 -23.5t90 -46.5q162 -82 403 -237q35 21 47 29t104.5 55.5t92.5 60.5q31 14 84 47t78 45q79 50 108 61t44.5 23t21.5 46l-2 77l2 37v8l2 52 v12zM729 1331q13 0 27 -9t16 -9t3 -1t5 -4t10.5 -7.5t20.5 -11.5t128.5 -75t179.5 -95q64 -27 91 -40t45 -49q4 -23 5 -55v-2l-5 -33v-12q0 -41 -4 -45l4 -56q0 -8 -2 -12l1 -4l-1 -27l2 -71l-2 -2v-19q0 -12 2 -18l-2 -2v-6l-2 -37q2 -12 2 -35l-2 -72v-53q0 -33 -16 -57.5 t-31.5 -34.5t-54.5 -29.5t-51 -28.5l-17 -8q-5 -5 -16 -9q-65 -26 -102 -62q-16 -12 -26.5 -18.5t-34.5 -21.5t-66 -30q-20 -20 -57.5 -37.5t-51.5 -17.5q-41 0 -190 100q0 -2 -195 115q-12 8 -57 25.5t-63.5 38t-18.5 57.5l2 18v27q-2 4 -2 10t2 10v6l-2 25v119l-2 2l1 5 l-1 38v2l2 65l-2 2v12q0 10 2 21q-4 8 -4 21l4 45l-2 18v43l-4 33v2q1 63 31 85q62 44 84 54l171 82q14 11 84 50.5t87.5 51t40 22.5t34.5 11z" glyph-name="r" horiz-adv-x="1456" unicode="r"/><glyph d="M734 1454q26 0 79 -45q265 -151 357.5 -194t135 -68t42.5 -47q6 -18 6 -35v-3v-28l-8 -112l4 -54q0 -14 -2 -20v-19l-2 -38l4 -43l-4 -54l2 -16l-5 -39q0 -29 5 -78l-2 -49v-12l-3 -56l3 -28q0 -49 -28 -66.5t-51.5 -29t-69.5 -40t-86 -47.5q-40 -18 -89 -52.5t-96 -58.5 t-103.5 -63t-83.5 -39q-28 0 -45.5 9.5t-36 23t-57.5 31.5q-40 18 -72 39q-35 21 -49.5 25t-87.5 61q-27 2 -104.5 54t-120.5 65q-55 14 -55 80q0 23 2 36l-4 117q0 43 2 64l-5 51l3 18l-3 74q2 12 3 33l-3 28l1 3l-3 36q6 43 7 54l-5 24v60l-4 28q0 53 33 90t152 90t162 89 l43 24q83 43 149 82q67 45 93 45zM1313 713q-2 12 -2 68.5t-2 80.5l2 25l-4 61v2l-2 27l6 102v2q0 10 -59.5 48.5t-75.5 46.5q-138 63 -164 84l-195 104q-33 18 -49 28t-41 25q-14 -10 -29 -16q-41 -27 -76.5 -48.5t-58 -35.5t-61.5 -33.5t-56.5 -28t-75 -36t-86 -42 t-84 -50t-55.5 -46.5l2 -110v-33l-4 -55l2 -17l-2 -78v-75q0 -29 4 -82l-2 -43q2 -10 2 -33v-12l3 -45v-92q0 -29 34 -46q18 -10 50 -23t90 -46q155 -78 403 -238q10 4 34 20.5t117 64t93 61.5q31 14 84 47t78 45q75 48 106 59.5t46.5 23.5t21.5 46l-2 78l2 37v8l2 51v12z M203 793v34q-4 8 -4 21l4 45l-2 20v41l-4 33v2q0 51 18 78t54 43l214 100q14 11 84 50.5t87.5 51t34 19.5t23.5 11.5t18 3.5q12 0 26 -10t16 -9.5t3 -0.5t5 -4t10.5 -7t22 -12.5t128.5 -75.5t178 -94q64 -27 90.5 -39t45.5 -50q4 -23 5 -55v-2l-5 -33v-12q0 -41 -4 -45 l4 -55q0 -8 -2 -13l1 -4l-1 -26l2 -72l-2 -2v-18q0 -12 2 -19l-2 -2v-6l-2 -37q2 -12 2 -35l-2 -71v-54q0 -33 -16 -57.5t-31.5 -34.5t-25.5 -15l-97 -50q-6 -6 -17 -11q-64 -26 -101 -61l-35 -24q-36 -23 -92 -46q-18 -18 -56.5 -36.5t-52.5 -18.5q-41 0 -190 100 q0 -2 -195 115q-12 8 -57 25.5t-63.5 38t-18.5 57.5l2 18v27q-2 4 -2 10t2 10v7l-2 24v119l-2 2l2 20l-2 23v2zM1217 930l2 98q-6 10 -53.5 42t-63.5 38q-139 55 -170 86q-90 45 -180 102l-25 13q-2 0 -42.5 -28t-104.5 -59q-64 -32 -66 -32l-74 -32q-73 -33 -118 -71 q-72 -37 -84 -59q0 -47 4 -80l-2 -18v-8l-4 -62l2 -12l-2 -68l4 -155q-2 -4 -2 -15l4 -106v-2l-2 -49q0 -10 24.5 -28.5t67.5 -31.5q2 -2 27.5 -16.5t65.5 -38.5t97 -55h2q33 -27 203 -121q6 0 41 19.5l70 39t94 62.5h2q90 49 126 72t82 41t59 37.5t13 68.5v2l3 69v5l-3 4 l5 28q0 10 -2 15l4 90q-2 9 -2 31t2 34l-4 66l2 12l-2 64v8z" glyph-name="s" horiz-adv-x="1456" unicode="s"/><glyph d="M1356 1059l-6 -182l2 -19l-4 -473q0 -41 -56 -73t-221 -125.5t-238 -140t-110 -46.5q-165 75 -315 179t-248 130q-47 14 -47 97l-4 315l4 186q0 78 -9 101q0 78 25 94q83 55 219 124.5t249 138.5t138 69q176 -109 333 -188t218.5 -112.5t65.5 -64.5q0 -6 4 -10zM139 739 q0 -209 6 -313h-2q0 -57 16.5 -76.5t78.5 -44.5t136.5 -66.5t192 -115.5t135.5 -85t28 -11q11 0 18 4q395 231 532 301q29 16 34 72t5 99v52q2 61 2 184l-4 228q0 29 4 86q0 16 -12 24q-96 72 -307 181.5t-259 138.5q-12 4 -15 4q-2 1 -110 -63t-229 -119 q-250 -115 -250 -170l4 -74l-4 -135v-101z" glyph-name="t" horiz-adv-x="1458" unicode="t"/><glyph d="M2245 428h-86l-103 4q-23 0 -35 -2l-172 2l-118 -4l-13 2l-63 -2h-9h-57l-98 2l-117 -4l-84 4l-33 -2l-55 2l-84 -4q-18 0 -55 4l-160 -2l-33 2l-32 -2l-64 2l-12 -2l-119 4l-78 -2l-129 2l-102 -4h-70q-158 0 -160 16q0 29 2 41l-4 70l4 254l-2 22q2 8 2 22.5t3 23.5v22 l2 59l-2 80q0 17 7 18t8 1l13 -2l64 4h4l9 -1l48 1q10 -2 35 -2l63 2l10 -1l70 -1l90 -2q135 0 201 8l31 -2l14 2l29 -2h6q8 2 23 2l135 -6l106 4l86 -2v2q4 -2 9 -2t16 2h10l45 -2l16 2h5q4 -2 6 -2l59 2h4v-2l86 2q35 -4 107 -4l133 6q16 0 24 -2h7l28 2l15 -2l30 2 q66 -8 201 -8l90 2l39 -2l39 4l65 -2q25 0 35 2l21 -2l37 2h6l59 -4h2l12 2q2 -2 8.5 -2t6.5 -13v-20l2 -123v-14q0 -20 4 -54l-2 -22l2 -217l2 -37l-4 -70q2 -13 1 -31t-3 -18q-10 -2 -19 -5t-120 -3z" glyph-name="u" horiz-adv-x="2492" unicode="u"/><glyph d="M106 717l5 186q-1 78 -9 101q0 54 3 59l18 27q15 22 92.5 62.5t507.5 277.5q26 0 66 -30.5t189 -109.5q148 -79 257 -130.5t115 -94.5q4 -10 4 -61q-6 -12 -6 -132l2 -157l-4 -334q0 -31 -31 -57.5t-168 -94.5q-82 -49 -197.5 -115t-160.5 -92t-68 -26q-98 45 -295 167 t-268 142q-51 17 -54 108.5t5 147.5l2 25q-4 90 -5 131zM137 735q0 -209 6 -313q-2 -8 -2 -41q0 -43 81 -75t317 -179q29 -16 103 -60t85 -44q12 0 18 4q418 250 555 317q27 11 23 187.5t-4 203.5l-4 228l4 86q0 45 -199 140t-379 204q-12 4 -15 4q-3 -1 -127 -71t-212 -112 q-250 -115 -250 -170l4 -73l-4 -135v-101zM1264 429q0 -40 -54 -71q-28 -16 -190 -107t-212 -126t-87 -35q-165 82 -198 106q-33 23 -61 41.5t-96 62t-110 54.5q-43 10 -56.5 40.5t-13.5 59.5l4 251l3 174l-7 86q0 4 -1 15t0 18.5t2 20t20 28.5q50 37 176.5 101t226.5 124.5 t123 60.5q56 -40 175.5 -102t141.5 -74t82 -41t96 -52.5t42 -55.5l-2 -54q-10 -147 -7 -316t3 -209z" glyph-name="v" horiz-adv-x="1458" unicode="v"/><glyph d="M2359 1057l11 -1q12 -1 12 -18l-2 -80q4 -37 4 -61l-2 -16l4 -50l-2 -16q0 -96 4 -143q0 -68 -2 -80l2 -43l-1 -11l-1 -69q0 -35 -22.5 -39t-25.5 -4l-93 2h-86l-103 4h-2q-23 0 -35 -2l-170 2l-120 -4l-13 2l-63 -2l-33 2l-33 -2l-98 2l-117 -4l-84 4l-33 -2h-13 l-124 -2q-16 0 -57 4l-158 -2l-35 2l-30 -2l-64 2l-12 -2l-121 4l-78 -2l-127 2l-104 -4h-70l-79 -1q-79 -1 -79 17l2 58l-4 47l2 43v239l2 50v16q0 25 5 61l-2 80q0 17 6 17t8 2l12 -2h2l11 1l55 3l37 -2l20 2q12 -2 35 -2l65 2l39 -4l39 2l92 -2q135 0 199 8l31 -2l16 2 l29 -2h6q8 2 23 2l133 -6l106 4l86 -2v2q4 -2 10.5 -2t16.5 2h10l45 -2l3 1l24 -1l59 2h4v-2l86 2q33 -4 107 -4l133 6q14 0 22 -2h7l28 2l17 -2l30 2h2l5 -1l30 -2l58 -2l104 -3l92 2l10 -1l68 3l65 -2q23 0 35 2l21 -2l37 2q57 0 61 -2h2l4 -2zM2363 627v24l-2 74v18 l-4 56l4 98l-4 125v6q0 8 -67 8l-26 -2l-175 2l-76 -6q-43 0 -90 6l-47 -2q-35 0 -109 8l-98 -6l-35 2l-51 -2h-14q-25 0 -37 -2l-107 4h-69l-64 -4l-26 2l-43 -2l-72 4h-88l-105 -4q-12 2 -36 2h-15l-51 2l-35 -2l-98 6q-74 -8 -109 -8l-39 2l-98 -6l-19 2l-153 -2 q-6 0 -104 6q-68 0 -68 -8v-6l-4 -150l2 -73l-4 -56l2 -18l-4 -74q0 -78 4 -133t28.5 -63.5t61.5 -8.5l172 9l5 -1l24 1l145 -2l25 2h43l49 2q20 0 29 -2h18q12 0 19 -2l45 2l32 -2h86l62 2h14l33 4l47 -6l147 4l8 -1l54 1l145 -4l11 1l71 1h15l61 -2h86l33 2q23 0 31 -2 l32 2h19q8 2 28 2l50 -2h10l57 -2q72 0 109 2l47 -2l18 2l172 -9l82 7q10 0 10 174zM2054 485q-209 0 -219 -2l-14 2q-25 -4 -35 -4l-31 2h-35l-75 2l-91 -4q-27 -2 -80 2t-97 4t-60 -4l-14 2q-25 -4 -35 -4l-31 2h-33q-51 0 -76 2l-90 -4l-45 2l-57 -2l-90 4l-76 -2h-35 l-30 -2q-10 0 -35 4l-15 -2q-12 2 -147 2l-109 2l-71 -6l-19 2l-41 -2q-111 0 -114 15v13l2 64l-2 11v34q0 119 2 144l-2 47q0 16 4 45v18l2 50l-1 40q-1 39 15 39h10q2 2 47 3l29 -3l14 3q10 -2 37 -2t35 4l39 -5h72q141 0 180 7l22 -2l13 2h6h39q14 2 44 -1t42 -3l98 2 q39 0 60 -2l49 2l20 -2l41 2l51 -2l133 4q12 0 19 -2l26 2l13 -2l24 2q33 -4 60 -4l119 4l122 -4l136 4q12 0 18 -2l27 2l12 -2l22 2q12 -2 63.5 -2t78.5 -5h110l39 5q6 -4 34 -4t38 2l14 -3l29 3q43 0 47 -3h10q14 0 15.5 -5t0.5 -20t-1 -54l2 -50v-12l2 -51v-12l2 -179 v-34l-2 -23v-31q2 -10 2 -34q-4 -14 -115 -15l-8 2l-51 -2q-37 0 -72 6zM2316 729v76l-2 149v19q0 12 -88 12l-51 -4l-33 2h-10l-29 2q-14 0 -39 -4l-213 8l-67 -4l-27 2l-39 -2h-41l-80 2h-81l-78 -4l-105 6l-67 -4l-27 2l-39 -2h-41l-80 2h-18l-74 2l-33 -2h-61 q-29 0 -43 -2h-78l-39 2l-26 -2l-70 4l-164 -8l-88 4l-27 -2h-10l-35 -2l-49 4q-88 0 -88 -12v-29q0 -53 -2 -74l2 -88q-4 -25 -4 -39l2 -14l-4 -61v-39q0 -92 9 -111.5t63 -19.5l65 4h31l37 4q8 -2 22 -2h29l135 2l10 -2l29 2q43 0 51 -2h7h51l145 4l47 -6l74 4l96 -4l53 6 q10 -4 74 -4l96 2q12 0 19 -2l59 2l29 -2l10 2l51 -2h66l61 -2l53 6q6 -4 72 -4l98 2q12 0 17 -2l61 2l29 -2h4q4 2 6 2l51 -2h113q14 0 23 2l36 -4h31l64 -4q68 0 67 18v10q4 17 4 121v21z" glyph-name="w" horiz-adv-x="2490" unicode="w"/><glyph d="M728 141q-8 1 -36 17t-121 73.5t-121 72.5t-95.5 47t-100.5 54.5t-33 49.5t2 32q-6 129 -6 271l4 205l-2 65q0 16 14 29q86 59 258.5 149t202.5 108t36 17q7 0 11 -2q184 -106 332 -178q168 -88 168 -115l-2 -82l-2 -16l6 -178q0 -8 1 -60.5t0 -90.5t-2.5 -111.5 t-16.5 -77.5q-88 -59 -260 -152.5t-200 -109.5t-37 -17zM1356 1081l-6 -182l2 -18l-4 -473q0 -41 -56 -73t-213.5 -121.5t-237 -140t-118.5 -50.5q-159 72 -315 178t-248 131q-47 12 -47 96l-4 315l4 187q0 78 -9 100q-6 74 31 100t94.5 56.5t152.5 78.5t210 119.5t143 71.5 q176 -109 343 -193t218.5 -112t55.5 -59q0 -7 4 -11zM1266 453l6 538q0 66 -25 86q-78 51 -230.5 130t-182.5 95t-62.5 37t-46.5 21q-37 -20 -111 -62.5t-100 -56.5t-128.5 -64.5t-150 -83t-47.5 -59.5l7 -129l-2 -31q0 -29 -6 -178.5t12 -267.5q3 -31 64 -56.5t128 -65.5 t332 -189q23 0 44 14t40 24t131 76t184.5 103t108 63t35.5 56z" glyph-name="x" horiz-adv-x="1458" unicode="x"/><glyph d="M2241 524.5q0 -14.5 -3 -20.5l3 -51q0 -14 -93 -15l-440 4l-139 -4l-187 2l-84 -4l-204 2l-50 -2l-389 6l-114 -2h-43l-295 -2q-98 0 -99 17l2 51l-4 86q2 4 2 12q0 451 13 451l137 2h43l53 2l39 -4q279 8 426 8l137 -6l547 2q6 2 16.5 2t14.5 2l352 -8l238 4 q115 0 114 -10v-43q6 -201 7 -402l2 -57q-2 -8 -2 -22.5zM2190 471q12 0 12 39l4 149q0 356 -15 361h-80h-21l-144 2l-64 -4l-229 8h-15h-104q-51 -2 -158 -2l-78 2l-88 -4l-22 2q-10 -2 -16 -2l-154 2h-152l-182 2l-221 -8l-82 4q-23 0 -64 -4l-88 4q-84 0 -84 -10l-6 -365 q0 -172 15 -172l71 -4l172 6h58l233 2l201 -2l69 2l93 -2l151 2l148 -2q20 4 34 4l191 -6l104 2h170l265 -6h76zM2177 647l-2 -80q0 -33 2 -47q0 -16 -100 -16l-117 4l-453 -4l-192 2l-457 -2l-264 4l-397 -2q-29 0 -29 12q2 12 2 35l-2 92l4 334q0 14 188 14l97 -2l147 4 l477 -2l25 1l192 -1l148 2l88 -4l156 6l102 -6l18 2q49 -2 148 -2l174 2q4 -2 22.5 -0.5t18.5 -19.5zM219.5 532h28.5l360 7l107 -2l133 2l158 -2l49 4l86 -4l215 2h76l79 2l166 -2l90 2q80 -6 212 -6t143.5 2t16.5 9t6 10t0 15.5t-1 16.5l2 145l-4 90l2 39q-4 0 -3 48 t-5 48l-180 5q-45 -4 -68 -5l-159 7q-61 0 -173 -4l-71 4l-142 -4l-94 4l-168 -4l-137 4l-172 -4l-156 4l-219 -4l-16 2q-45 -4 -64 -5l-41 3q-74 0 -73 -13l-2 -377q0 -39 18.5 -39z" glyph-name="y" horiz-adv-x="2344" unicode="y"/><glyph d="M1356 1055l-6 -183l2 -18l-4 -473q0 -41 -56 -73t-221 -125.5t-238 -140t-110 -46.5q-165 75 -315 179t-248 130q-47 14 -47 96l-4 316l4 186q0 78 -9 101q0 78 25 94q97 64 233 132t241 134t132 66q176 -109 333 -188t218.5 -112.5t65.5 -64.5q0 -6 4 -10zM139 735 q0 -209 6 -313h-2q0 -57 16.5 -76.5t78.5 -44.5t136.5 -66.5t192 -115.5t135.5 -85t28 -11q11 0 18 4q395 231 532 301q29 16 34 72t5 99v52q2 61 2 184l-4 228q0 29 4 86q0 16 -12 24q-96 72 -307 181.5t-259 138.5q-12 4 -15 4q-2 1 -110 -63t-229 -120 q-250 -115 -250 -170l4 -73l-4 -135v-101zM195 879l-7 86q0 56 18.5 75t21.5 20l46 27q252 131 451 246q14 0 46.5 -20.5t62.5 -36.5t182.5 -95t230.5 -130q25 -20 25 -86l-6 -539q0 -44 -52.5 -71t-81 -42t-56.5 -31t-79 -44.5t-111.5 -63.5t-78.5 -45t-39.5 -24.5 t-44.5 -14.5q-177 100 -288 164q-111 65 -172 90.5t-64 56.5q-18 127 -12 272.5t6 174.5zM221 428q0 -27 33 -49.5t115 -60.5t214 -120.5t143 -82.5q10 1 38 17t200.5 109t260.5 152q15 4 16.5 78t2.5 112t0 90t-1 60l-6 178l4 97q0 29 -168 116q-147 72 -332 179 q-4 2 -11 2q-6 1 -36 -17t-202.5 -108t-258.5 -150q-14 -12 -14 -29l2 -65l-4 -205q0 -141 6 -270q-2 -6 -2 -33z" glyph-name="z" horiz-adv-x="1458" unicode="z"/><glyph d="M2116 1087q118 0 118 -14l7 -500q0 -98 -11 -102l-219 -6q-27 10 -78 7t-61 -3l-164 2l-141 -4l-185 2l-364 -4l-39 4l-264 -2q-41 4 -62 4l-440 -6q-109 0 -109 16l-2 150q0 453 15 452l114 2l43 -2l74 4l39 -4q145 0 291 7l137 2q6 -6 109 -7l573 2q11 1 31 5l438 -9 q32 4 150 4zM2128 500h22q21 0 23 1t14.5 3.5t12.5 34.5l4 129q0 379 -3 379l-92 2l-69 -2l-96 4q-41 -4 -64 -4l-223 8l-17 -1l-106 -1l-139 -2l-99 2l-88 -2h-14l-33 -2l-180 4l-117 -2l-194 4l-160 -8l-127 4l-104 -4q-16 2 -76 2t-60 -9l-6 -364q0 -172 15 -172l73 -4 l142 6l86 -2q170 4 503 4l95 -2h37h260l26 2l191 -4l112 2h172q276 -6 279 -6z" glyph-name="braceleft" horiz-adv-x="2344" unicode="{"/><glyph d="M1356 1059l-6 -182l2 -19l-4 -473q0 -41 -56 -73t-221 -125.5t-238 -140t-110 -46.5q-165 75 -315 179t-248 130q-47 14 -47 97l-4 315l4 186q0 78 -9 101q-6 74 31 100t94.5 56t158.5 81.5t210.5 120t136.5 68.5q176 -109 333 -188t218.5 -112.5t65.5 -64.5q0 -6 4 -10z M139 739q0 -209 6 -313h-2q0 -57 16.5 -76.5t78.5 -44.5t136.5 -66.5t192 -115.5t135.5 -85t28 -11q11 0 18 4q377 221 532 301q29 16 34 72t5 99v52q2 61 2 184l-4 228l4 86q0 41 -195 139q-109 51 -383 205q-12 4 -15 4q-2 1 -110 -63t-229 -119q-250 -115 -250 -170 l4 -74l-4 -135v-101zM180 1012q0 27 25 45q74 53 226.5 131t216.5 116t77 39h10q35 -15 69 -37t263 -145q211 -90 211 -143v-2q2 -2 2 -4v-43q-4 -4 -2 -6q-4 -4 -4 -107l2 -16l-4 -410q0 -19 -9.5 -30t-14.5 -18t-16 -14.5t-17.5 -12.5t-20.5 -12t-19.5 -10t-20 -12 t-42.5 -23t-77.5 -46t-93.5 -54t-105 -61t-101 -49h-14l-12 6q-143 66 -215 121h-2q-149 92 -196.5 112.5t-77.5 38t-30 76.5v4q0 59 -2 89v6l-2 192v8q6 23 6 29l-1 33l-9 166v43zM229 455q0 -39 15.5 -55.5t49.5 -28.5q85 -30 185 -96t129 -84.5t65.5 -42t48.5 -23.5 q11 0 19 4q272 166 430 246q41 16 50.5 26.5t9.5 30.5l2 143v23q2 45 2 131t-2 125v20l-2 60q0 24 2 54t-4 36q-72 49 -175.5 102.5t-129.5 69.5q-27 12 -100.5 59.5t-86.5 47.5q-12 0 -14 -3l-23 -12q-233 -129 -264 -143q-211 -98 -211 -137l4 -76l-4 -109 q0 -23 -3 -157.5t9 -200.5l-2 -4v-6z" glyph-name="bar" horiz-adv-x="1458" unicode="|"/><glyph d="M1436 799h-2v-115l2 -63l-6 -136q4 -29 4 -61t-22.5 -44.5t-340.5 -12.5h-18l-37 -2q-12 0 -30 4t-73 4t-67 2l-178 -8q-27 0 -27 4v2l-119 -8l-39 2h-18q-51 -2 -147 3t-114 5h-22q-46 0 -62 14t-16 41t5 55l-7 136l2 63v182h5l4 84l-4 162q0 31 18 31h33q23 6 121 6 l65 -2h33l78 -4l65 6l174 -8l123 4l68 -4l84 8l114 -6l78 4h33l66 2l120 -6h15q23 0 30 -7.5t7 -27.5l-4 -158l6 -121v-30zM1391 866h2q-4 111 -4 172v37q0 14 -6.5 20.5t-194.5 6.5l-127 -8l-94 6h-19l-51 4l-141 -12l-181 6l-94 -4l-127 8h-15q-15 0 -31.5 1t-57.5 -1 t-68.5 -7t-27.5 -9l2 -68l-6 -219h-5l7 -197v-63q0 -119 16 -119h16l140 -8l125 6l25 -2l185 2h123l84 -2l49 2l76 -6l99 6l30 -2l234 4h16q16 0 16 119l-2 63l7 166v98z" glyph-name="braceright" horiz-adv-x="1538" unicode="}"/><glyph d="M1082 -14q-64 0 -130 37q-74 20 -247 79q-76 16 -171 56t-256 86.5t-161 120.5l2 28l-8 103l2 36l-4 66q4 61 4 94l-9 109l5 112l-3 27v29l-1 27q-1 26 13.5 33t25 13t158.5 74t240 98q91 30 162.5 57t153.5 62t143 60l27 12q29 14 42 14q14 0 64 -20t277 -102t406 -171 q4 -2 46 -17t111.5 -42.5t69.5 -67.5l-2 -30v-39l2 -68v-71l-10 -109l6 -84l-1 -12l1 -90l-10 -103l2 -37q0 -30 -13.5 -37.5t-28 -14t-36.5 -20.5t-111.5 -43.5t-104.5 -36.5t-49 -15.5t-66 -24.5t-80 -32.5t-119.5 -39t-104.5 -33.5q-20 -2 -43 -12q-130 -61 -194 -61z M1997 905q0 23 -2 35v4l-4 17q0 8 4 24q0 16 -10 19q-35 6 -116 48t-97 48t-53.5 16t-208.5 84t-221 90q-50 17 -118.5 47.5t-95.5 30.5l-43 -12q-121 -41 -305 -119t-219 -92t-71 -24.5t-56 -18.5l-25 -10q-202 -75 -202 -107l4 -24l-2 -11l-2 -80l-2 -43q0 -20 4 -30 q12 -187 11 -249t-1 -88t2 -36l-2 -18q0 -12 2 -26t21.5 -27t19.5 -15q-2 -16 105.5 -54t267 -88.5t227.5 -76.5q56 -27 145.5 -52.5t120.5 -35.5q23 8 120 36.5t230 82.5t308 102q27 10 92.5 34.5t108 43.5t46.5 43l2 33v106q1 262 15 305q2 6 2 19l-2 34v35z" glyph-name="asciitilde" horiz-adv-x="2146" unicode="~"/><glyph d="M104 1028q0 6 3.5 10t5.5 7.5t9 6.5t10 5t13.5 6t20.5 9t113.5 54t141.5 60q37 10 73 27t84 33t117 42.5t158 64.5t125 50t58.5 24.5t37.5 12.5t37.5 -12.5t50.5 -21.5t262 -94.5t393 -164.5q4 -2 115.5 -42t111.5 -87l-2 -29v-41l2 -65v-72l-10 -109l6 -84l-1 -12l1 -92 l-10 -102l2 -35q0 -30 -17 -39.5l-51 -28.5t-122.5 -48.5t-103.5 -35.5t-50 -15.5t-67 -25.5t-74 -31.5t-111.5 -36t-116.5 -36.5q-19 0 -103 -38t-138 -38q-52 0 -93 22t-70 28t-37 10t-77 30.5t-96 26.5q-98 27 -176 59t-152.5 53.5t-167 61t-92.5 90.5l2 29l-8 100l2 39 l-4 65q4 61 4 93l-9 110l5 111l-3 26v31l-2 27v12zM1997 926q0 23 -2 35v4l-4 14q0 11 2 27t-8 18q-27 4 -114 52t-142 57q-90 25 -260.5 97.5t-202.5 84.5t-97 43t-91 31t-175 -66q-86 -29 -256 -100.5t-266 -100.5q-227 -90 -227 -116l1 -7l1 -24l-2 -39l-2 -88 q0 -20 4 -33q12 -197 11 -253t-1 -82t2 -36l-2 -18q0 -14 4 -35q0 -23 113.5 -71t314.5 -107q274 -94 477 -162q35 12 138.5 44t158.5 55q469 156 555 198q49 27 53 43l2 35v106q1 263 15 306q2 6 2 18l-2 35v35zM1363 217q-42 0 -89.5 -20.5t-61.5 -22.5t-64 -19.5 t-86 -17.5t-93 31q-14 0 -134 36t-148 45t-73 25.5t-80 29.5t-122.5 39t-134 49.5t-46.5 51.5l2 27l-8 82l2 33l-2 51l4 80l-8 78v57q0 18 2 29v59l-2 23q0 14 8 24q8 27 584 225q23 8 118 50.5t126 42.5q30 0 50.5 -9.5t142.5 -50.5t378 -141q299 -100 299 -139l-2 -23 l2 -35q-2 -4 -2 -12l2 -39v-65l-8 -78l4 -76v-8l-1 -11l1 -65l-8 -82l2 -31q0 -21 -43.5 -44.5t-147.5 -62t-145 -38.5q-176 -78 -218 -78z" glyph-name="exclamdown" horiz-adv-x="2146" unicode=""/><glyph d="M1082 -8q-64 0 -130 37q-74 20 -247 80q-76 16 -171 56t-256 86t-161 120l2 28l-8 103l2 37l-4 65q4 61 4 94l-9 109l5 113l-3 26v29l-2 29v8q0 8 3.5 12t5.5 7t9 6t10 5t13.5 7t158.5 73t238 98q91 30 162.5 57.5t153.5 62t143 59.5l27 14q29 12 42 12q14 0 64 -20 t274.5 -101t408.5 -171q4 -2 46 -17.5t78.5 -30t69.5 -37t33 -42.5l-2 -31v-39l2 -68v-71l-10 -109l6 -84l-1 -12l1 -90l-10 -103l2 -37q0 -28 -13.5 -36.5t-28 -15t-36.5 -20.5t-111.5 -43.5t-104.5 -36.5t-49 -15.5t-66 -24.5q-68 -33 -304 -104q-20 -2 -43 -13 q-130 -61 -194 -61zM1087 1290q-34 0 -75 -20q-434 -147 -592 -215l-55 -19q-144 -51 -144 -86l2 -24v-33l-2 -55v-58l2 -20l2 -135q0 -18 2 -29l-1 -14l7 -125l-2 -27q0 -24 10.5 -30.5t23.5 -12.5t29 -15t51.5 -21.5t81 -27t59.5 -19.5t48 -11.5t44 -16.5q66 -31 170 -57 l10 -6q30 -10 52 -10t67 -20.5t63 -21.5t63 -18.5t81 -17.5q36 -1 68 15t77 27t172 52q41 10 139 45t180 57.5t139.5 48t57.5 56.5l-2 31l8 82l-1 9l1 66q0 38 -2 58l-2 26l8 78v66l-2 39q0 8 2 12l-2 35l2 22q0 14 -5 20.5t-21.5 12.5t-30.5 12q-201 89 -268 105 q-45 23 -158.5 61.5t-218 83.5t-138.5 45zM1874 553v-39q0 -20 -2 -31v-4v-25q0 -20 -23.5 -37.5t-93 -46t-197.5 -54.5t-214 -66q-85 -41 -166.5 -61.5t-102.5 -26.5q-100 30 -136 39q-35 10 -73 23.5t-58 19.5t-94 33t-167 47q-94 20 -183.5 58t-89.5 85q0 8 2 12l-2 25 l2 41l-14 266v9v63v5l1 15l1 35q0 14 10 16q33 6 108 43t116 45q68 23 211 78.5t184 68.5t92.5 37.5t75.5 24.5t178.5 -51t300.5 -109q145 -57 244.5 -93t99.5 -56l-1 -14q-1 -13 3 -25v-57v-7l-2 -55q-10 -127 -10 -231z" glyph-name="cent" horiz-adv-x="2146" unicode=""/><glyph d="M1515.5 1061q10.5 0 14.5 2l352 -8l238 4q117 0 116 -12l-2 -27l9 -473l-5 -60l2 -21q1 -20 -92 -28l-438 4l-203 -4l-123 2l-84 -4l-206 2l-50 -2l-389 6l-112 -2h-43l-297 -2q-96 8 -97 13v55l-4 55q0 494 15 494l139 2h41l53 2l39 -4q283 8 426 8l137 -6l547 2 q6 2 16.5 2zM2170 471q32 0 32 39l4 149q0 15 3.5 182t-16.5 179h-82h-21l-144 2l-64 -4l-229 8h-15h-104q-51 -2 -158 -2h-20l-146 -2l-22 2q-10 -2 -16 -2l-154 2h-152l-182 2l-221 -8l-82 4q-23 0 -64 -4l-88 4q-84 0 -84 -10l-6 -365q0 -172 15 -172l71 -4l172 6h58 l233 2l201 -2l69 2l93 -2l37 1l262 -1q25 4 34 4l191 -6l104 2h172l265 -6h54zM196 504q-26 0 -26 14l2 451q0 29 90 26.5t100 -2.5l95 -2l147 4l172 -2l408 2l114 -2l97 2l139 -4l156 6l102 -6l18 2q49 -2 148 -2l57 2l150 -2q12 0 12 -344l-2 -80l2 -47q0 -16 -100 -16 l-117 4l-453 -4l-192 2l-350 -2l-371 4l-102 -2h-33z" glyph-name="sterling" horiz-adv-x="2344" unicode=""/><glyph d="M1061 8q-37 0 -111 37q-90 27 -248 80q-98 27 -178 61t-148.5 52.5t-164.5 58.5t-96 92l2 29l-8 100l2 39l-5 66q4 57 5 92l-9 110q4 74 4 111l-2 27v30l-2 27q0 27 17 36t37 17t126 57.5t140 59.5t70 26t86 34t186.5 76t189.5 74t78.5 30t45.5 14t120 -43t307 -121 t261 -104t165 -67t111 -87l-2 -29v-41l2 -67v-70l-10 -100l6 -92l-1 -13l1 -92l-10 -102l2 -35q0 -36 -29 -47.5t-43 -19.5t-126 -52q-113 -43 -147 -51t-49 -14q-70 -37 -192 -72l-55 -21q-41 0 -92.5 -24.5t-77.5 -26.5q-14 -4 -67.5 -24.5t-90.5 -20.5zM1995 930 q0 23 -2 35v4l-4 14q0 11 2 27t-9 18q-37 6 -120.5 49t-97.5 49t-50 15.5t-152 60.5t-224 90t-169 70t-85 31t-54 -15q-176 -60 -291 -110t-247 -102t-236 -96t-104 -60l1 -7l1 -24l-2 -39l-2 -88q0 -20 4 -33q12 -185 11 -247t-1 -88t2 -35l-2 -19q0 -14 2 -28t21.5 -25.5 t19.5 -14.5q0 -25 141 -64.5t261 -89.5q121 -50 217 -76t155 -47.5t92 -29.5q27 9 66 23t114.5 36.5t116.5 39.5q39 10 140.5 51t152.5 49q125 35 218 77t97 64l2 33v107q1 266 15 307q2 6 2 18l-2 35v35zM1060 141q-36 0 -93 31q-36 0 -253 74t-304.5 100.5t-134 50 t-46.5 52.5l2 26l-8 82l2 31l-2 53l4 80l-8 78v57q0 18 2 29v59l-2 23q-1 14 21 25t109 49t132 52.5t70 27.5t154 59t226.5 87.5t125.5 41.5t48.5 -9.5t31.5 -11.5q369 -121 589 -217q4 -2 41 -14.5t69 -23.5t60.5 -29.5t28.5 -34.5l-2 -23l2 -35q-2 -4 -2 -14l2 -37v-65 l-8 -78l4 -76v-8l-2 -45l2 -31l-8 -82l2 -31q0 -21 -43.5 -44.5t-147.5 -62t-145 -38.5q-154 -76 -227 -78q-33 0 -80.5 -20.5t-61.5 -22.5t-64 -19.5t-86 -17.5zM1833 430q0 4 19.5 16.5t19.5 29.5v95q0 215 7 235t7 30l-2 28v37l-1 9l-1 51q0 8 -201 90q-12 4 -49 14 t-230 83t-248.5 96.5t-77.5 23.5t-80 -24t-234 -84t-299 -109l-33 -13q-168 -58 -168 -82v-5v-17q-2 -12 -1 -12t0 -4t-1 -17v-9v-63l2 -26q12 -147 12 -240l-2 -43l2 -20q-2 -6 -2 -17l2 -26q2 -6 28 -24.5t94 -46.5t134 -40t165.5 -48t142.5 -46q43 -20 128 -43t107 -31 q12 5 62 23q176 47 348 104t261 83t89 42z" glyph-name="currency" horiz-adv-x="2144" unicode=""/><glyph d="M2142 809l2 -21l2 -69q2 -29 0 -79t-2 -67l1 -27q1 -26 -52 -26l-326 6l-90 -2l-166 2l-79 -2h-76l-215 -2l-86 4l-791 -6l-32 -1q-31 -1 -31 38l2 377q0 12 63 12l51 -2q23 0 64 4l16 -2l219 6l175 -6l153 4l162 -4q20 0 57 4h11h75l123 -2l113 2l71 -2l173 2l159 -6 q23 0 68 4q121 0 180 -4q6 0 5 -47t3 -47zM2243 604q0 -88 -5 -112l3 -52q0 -16 -109 -16l-139 4l-80 -2l-150 2l-194 -2q-123 0 -185 2l-59 -4l-670 4l-452 -4q-98 0 -99 16q2 16 2 52l-4 55l9 487q0 10 122 10h16h101l39 -2l297 7l240 -5l604 5l352 -9l141 4 q213 0 213 -12l-2 -41q9 -299 9 -387zM172 965q0 -223 -4 -334l2 -62v-69q0 -8 29 -8l161 2l132 -2l102 2l371 -5l385 5l139 -2q309 0 348 2l240 -5q100 1 100 17l-2 47l2 80l-4 325q0 20 -41 21l-174 -2l-268 6l-156 -4l-104 2h-207l-142 -2l-215 2l-90 -2l-172 2l-147 -4 l-95 2q-190 0 -190 -14z" glyph-name="yen" horiz-adv-x="2344" unicode=""/><glyph d="M109 526v74l2 92l-9 193l2 100q0 25 -2 37q13 38 131.5 85t184.5 77t302 118.5t343 135.5q18 0 40.5 -13t84.5 -33t265.5 -104t298.5 -120t169 -74q74 -37 83 -40t15.5 -7.5t12.5 -18.5t3 -33.5t-3 -27.5l4 -168q-8 -47 -8 -107l2 -123l-9 -159l2 -37q0 -35 -66.5 -65 t-109.5 -43t-45 -13l-160 -55q-6 1 -36 -17t-96 -41.5t-139 -42t-174 -56.5t-142 -36q-57 8 -168 50t-146 50q-201 72 -217 78t-152 53.5t-169 64.5t-48.5 26.5t-26 20t-15 55.5t-4.5 124zM156 422h-2q0 -47 50.5 -76.5t100 -47t102 -36t100.5 -35t124 -42t128 -43.5 t150.5 -49.5t124.5 -42.5t34 -11t104 35t396 134q300 98 332 114t47 29.5t22 22.5t11.5 25.5t5.5 23.5t0 27.5t-1 21.5l-3 38l17 379l-4 94l2 33q0 23 -117 66.5t-147 56.5l-33 10q-462 182 -538 215t-92 33t-38 -8.5t-54 -21.5t-138 -53t-227 -92q-120 -52 -216.5 -88 t-174.5 -74t-81 -44l2 -33l-4 -143q17 -225 17 -418zM1925 929q0 -34 4 -69l-10 -162l4 -86l-8 -159l2 -31q0 -20 -14.5 -28.5t-18.5 -10.5t-14 -6t-12 -6l-37 -19q-190 -82 -252 -82q-53 -35 -234.5 -86t-255.5 -78q-20 0 -22 3q-36 0 -139 43q-513 156 -678 239 q-25 10 -25 164v76l2 67q0 27 -8 93l4 155q0 12 -2 30t29 32l14 6q201 92 332 137q449 170 477 182q21 -1 65 -19t202.5 -77t238.5 -92l203 -76q157 -67 157 -94q-4 -12 -4 -46z" glyph-name="brokenbar" horiz-adv-x="2140" unicode=""/><glyph d="M1896 842q0 -58 -14 -277q0 -12 4 -43t-5.5 -65t-65.5 -64q-51 -23 -129 -45q-111 -39 -298.5 -98.5t-219.5 -70.5t-59.5 -21.5t-36.5 -10.5q-10 -1 -38 11t-160 47q-180 64 -263 91.5t-133 44.5t-80.5 27.5t-86 32.5t-55.5 72v55q0 127 -14 303l6 127q-2 8 -2 25 q0 6 70 38t156.5 62.5t167.5 64.5t310 122q111 39 117 39q7 0 81 -26t233 -90.5t249 -94.5l29 -11q233 -80 233 -104l-2 -29l4 -20v-12q2 -22 2 -80zM102 811l2 94q0 111 -1 126t24 32q55 27 192.5 82t206.5 90q373 139 537 213q25 0 44 -13t107 -43t416 -165l209 -80 q197 -84 197 -119l-4 -51l4 -82l-8 -193l2 -122l-9 -160l2 -37q0 -66 -505 -227q-111 -31 -437 -142q-66 0 -105 23t-101 40t-82 25q-51 12 -158 54.5t-155 52.5t-104.5 32.5t-130 56.5t-105.5 46t-31 193v71l2 94q0 39 -9 109zM215 565q0 -128 10.5 -141.5t12.5 -17t18 -11 t41 -23.5t139.5 -50.5t161.5 -57.5l328 -106q94 -41 130 -41t189 53q14 4 126 30.5t198 78.5q23 13 79 29t65 19t30.5 9t52 14.5t76 33t45.5 48.5l-2 31q0 29 8 78l-4 168q0 82 10 92q0 88 -4 114q0 56 2 68t-4 18.5t-20.5 12.5t-62.5 30t-187 76q-285 123 -527 201 q-6 2 -22 12t-41 10q-100 -45 -305 -117t-363 -140t-186 -97l4 -33q0 -78 -4 -86l8 -163l-2 -66v-76z" glyph-name="section" horiz-adv-x="2138" unicode=""/><glyph d="M102 807l2 94q0 111 -1 126t24 32q55 27 192.5 82t206.5 90q373 139 537 213h12q388 -151 555 -221l209 -80q197 -84 197 -119l-4 -51l4 -82l-8 -193l2 -123l-9 -159l2 -37q0 -49 -221 -121q-33 -12 -132 -52t-198 -68t-391 -128q-66 0 -105 23t-101 40t-82 25 q-51 12 -158 54.5t-155 52.5t-104.5 32.5t-130 56.5t-105.5 46t-31 192v72l2 94q0 39 -9 109z" glyph-name="dieresis" horiz-adv-x="2138" unicode=""/><glyph d="M1057 6q0 2 -94 31l-41 14q-203 49 -383 129q-25 12 -145 55t-165 60.5t-78.5 36t-33.5 55.5q-8 90 -8 143v72l2 94l-9 191l2 100l-2 39q10 31 131 81t135 56t60 23.5t106 47.5t253.5 99.5t275.5 106.5q18 0 40.5 -11.5t131.5 -48.5q109 -38 409 -166t341 -149 q23 -7 34 -20t17 -19l-4 -57l4 -166q-8 -49 -8 -107l2 -123l-9 -159l2 -37q0 -57 -133 -96t-257 -85t-206 -75q-160 -71 -259 -93t-111 -22zM156 424h-2q0 -43 17 -52t63 -37t88 -40q158 -61 389 -134t291 -95t63 -23q5 0 101 32t304 102.5t308 102.5t129 48t46 29.5 t24.5 32t8.5 27.5t0 33.5t-1 25.5l-3 38l17 379l-4 92l1 23q1 23 -71 55.5t-120 50.5t-85 33l-20 6q-178 63 -602 242q-14 6 -30 6t-62.5 -18t-69.5 -29q-203 -78 -322 -129t-290 -118t-183 -87l2 -33l-4 -145q17 -209 17 -418zM1935 985q2 0 2 -4v-2q-2 0 -2 -2l-2 -45 l4 -68v-71l-8 -78l2 -92v-70l-8 -100l2 -29q0 -41 -149 -90q-10 -4 -17 -6l-133 -37q-43 -16 -53 -27q-39 -23 -99.5 -45t-93.5 -22q-46 -25 -120 -43t-111.5 -35t-69.5 -17h-20q-41 0 -73 18t-225 73t-284 100q-113 31 -239 94h-2q-31 18 -31 166l2 27l-2 45l4 92 q0 45 -8 76v71l4 86l-4 29v2q0 18 26 35q119 63 353 145q15 7 203 75.5t276 109.5h16l580 -224h2q233 -88 278 -133v-4zM250 852v-16l16 -344l-2 -29q6 -23 7 -26t10.5 -9t17.5 -14q20 -29 217 -84q19 -7 49.5 -16t54.5 -19t182.5 -57.5t260.5 -87.5q67 2 193 53t327 110.5 t287 122.5q10 301 14 350l4 58l-6 104q0 6 1 15t-2 14.5t-17 9t-50 21.5t-157 63t-162 64h-4q-164 72 -336 129q-63 31 -78 31q-16 -1 -50.5 -13.5t-300.5 -108.5t-394 -161q-78 -33 -78 -37l2 -33q-6 -18 -6 -90z" glyph-name="copyright" horiz-adv-x="2138" unicode=""/><glyph d="M727 1434q18 0 93 -46t147 -81l43 -25q30 -26 100 -58t95.5 -44.5t85 -40t59.5 -60.5q6 -18 6 -35v-2v-28l-8 -113l4 -53q0 -14 -2 -21v-18l-2 -39l4 -43l-4 -53l2 -15l-4 -41q0 -29 4 -77l-2 -49v-13l-2 -55l2 -29q0 -37 -31 -66.5t-98.5 -62.5t-72.5 -36t-57 -26.5 t-85 -58.5l-96 -55q-26 -12 -84 -50t-83 -38q-26 0 -42.5 7t-40 23t-74.5 42q-52 26 -70 38t-32 14.5t-89 61.5q-27 2 -104.5 54.5t-120.5 64.5q-55 14 -55 80q0 23 2 37l-4 117q0 43 2 63l-4 53l2 17l-2 74q2 12 2 34l-2 27l1 3l-4 36q6 43 7 53l-4 25v59l-5 29 q0 39 7.5 72t137 86.5t202.5 109.5q6 0 192 109q66 43 84 43zM1315 692q-2 12 -2 69t-2 81l2 26l-4 60v2l-2 26l6 103v2q0 10 -58.5 49t-80.5 49q-111 39 -160 80l-189 100q-82 51 -96 58q-9 -9 -29 -17q-16 -12 -111 -65t-102 -55q-83 -53 -153 -81t-128.5 -69t-58.5 -49 l5 -111l-2 -12v-20l-5 -54l2 -18l-2 -78v-76q0 -25 5 -82l-3 -43q2 -10 3 -30v-15l2 -45v-92q0 -25 21.5 -41t74 -38t66.5 -30t50.5 -23.5t191.5 -111.5t173 -106q41 21 51.5 28t79.5 46t113 69q31 14 84 47t78 45q37 23 75.5 41.5t63.5 30.5t35 57l-2 78l2 37v8l2 51v13z " glyph-name="ordfeminine" horiz-adv-x="1458" unicode=""/><glyph d="M1223 766q-2 -12 -2 -69t-2 -64l2 -37l-4 -29l2 -8l-2 -70v-2q0 -61 -25 -76.5t-59.5 -30.5t-82.5 -46t-114 -66h-2q-28 -25 -115.5 -71.5t-89.5 -49.5l-24 13q-117 60 -179 108h-2l-135 80q-14 0 -80.5 36t-66.5 56l2 47v2l-4 107q0 10 2 16l-4 90q0 94 2 107l-2 37 l4 61v2l2 25q-4 33 -4 80q6 14 59 43q54 42 169 94.5t187 97.5t74 45l25 -12q90 -57 180 -102q6 -6 90.5 -45.5t139 -75t57.5 -45.5q0 -47 -4 -80l2 -25v-2l2 -63l-2 -13q2 0 2 -4zM727 1440q18 0 58 -26t130.5 -76t94.5 -50q30 -26 100 -58t114.5 -53t85 -46t40.5 -46 q6 -18 6 -34l-2 -11l2 -20l-8 -113l4 -53q0 -14 -2 -20v-19v-9v-31l-2 -95l2 -14l-4 -41q0 -29 4 -78l-2 -49v-13l-2 -55l2 -29q0 -37 -31 -66.5t-98.5 -62t-72.5 -35.5t-57 -27.5t-85 -57.5q-67 -43 -95 -55q-28 -13 -85.5 -51t-83.5 -38q-27 0 -43.5 7.5t-37 21 t-73.5 41.5q-54 28 -72 40t-33 14.5t-88 62.5q-27 2 -104.5 54t-120.5 64q-55 14 -55 80q0 23 2 37l-4 117q0 43 2 63l-4 54l2 16l-2 74q2 12 2 34l-2 27l1 3l-4 36q6 43 7 53l-4 25v59l-5 29q0 39 7.5 72t137 86.5t202.5 109.5q2 -2 192 109q66 43 84 43zM1255 666v45l2 4 l-2 63l2 21l-2 14l2 14v13q-4 20 -4 43q4 4 4 45v12l5 33v2l-2 20q2 2 2 4t1 11.5t-1 12.5t-10 15.5t-44 35.5q-36 22 -79 41t-54 30q-39 10 -108 57q-105 58 -142 80.5t-59 35.5t-36 13t-30 -9q-16 -8 -36 -22t-96 -56q-75 -42 -81 -46q-6 -6 -74 -38q-67 -32 -108 -56 l-20 -6q-20 -8 -38 -17.5t-33 -37t-15 -68.5v-2l4 -33v-12l2 -49l-4 -45q0 -12 4 -21q-2 -11 -2 -21t2 -14l-2 -63v-4l1 -5l-1 -36l2 -4v-37l2 -107v-4q-2 -4 -2 -11t2 -11v-27l-2 -18q0 -37 18.5 -56.5t61.5 -37t105 -55.5q193 -117 233 -132q66 -47 100 -55q33 0 115 55 q86 28 125 68q12 12 51 27.5t69 45.5q54 29 86 45.5t58 39.5t26 73v160z" glyph-name="guillemotleft" horiz-adv-x="1458" unicode=""/><glyph d="M728 1438q15 0 67 -33t168 -98l45 -23q60 -45 130 -74.5t83.5 -36t70 -35.5t56.5 -57q6 -18 6 -34v-3v-28l-4 -41q-4 -43 -4 -72l4 -51q0 -16 -2 -23v-18v-9v-31l-2 -93l2 -16l-5 -41q0 -25 5 -78l-2 -49v-13l-3 -55l3 -29q0 -45 -52 -80.5t-98.5 -58t-56.5 -28.5 t-83 -52t-125 -72t-109.5 -64t-83.5 -38q-27 0 -43.5 7t-38 22t-57.5 33q-37 18 -115 65t-93 59q-31 6 -106.5 56.5t-118.5 62.5q-55 14 -55 80q0 25 2 37l-4 117q0 43 2 65l-5 51l3 19l-3 74q2 10 3 32l-3 27l1 3l-3 38q6 37 7 51l-5 25v61l-4 27q0 55 19.5 85.5t145.5 83 t182 99.5q6 0 135 77t144 77zM1313 694q-2 12 -2 69t-2 81l2 26l-4 60v12q-2 6 -2 16l6 103v2q0 10 -58.5 49t-81.5 49q-109 39 -159 80l-189 100q-37 23 -54 33t-27.5 16.5t-14.5 8.5q-5 -5 -29 -17q-16 -12 -172.5 -99t-208.5 -109q-52 -21 -112 -62t-60 -49l2 -111v-32 l-4 -54l2 -18l-2 -78v-76q0 -27 4 -80l-2 -45q2 -10 2 -30v-15l3 -45v-90q0 -25 27.5 -42t44 -25.5t49.5 -23t47 -22.5t71 -35.5t285 -172.5q37 -20 53 -31l55 31q6 4 71 39.5t114 70.5q24 0 71 35t74 51t69 37t59 31t32.5 16t19.5 15.5t6 13.5t9 24l-2 78l2 37v8l2 51v13z M1253 707v-45l-2 -37q2 -10 2 -35l-2 -72v-53q0 -53 -34.5 -80t-45.5 -33l-90 -45q-4 -6 -33 -20.5t-59 -30.5l-2 -2l-4 -2h-2l-2 -2h-2l-2 -2l-139 -82q-68 -53 -98 -53t-59.5 17t-75 46t-67.5 38t-24 10t-25.5 24.5t-130 68.5t-130 69t-23.5 60l2 19v29q-2 2 -2 9t2 11v4 l-2 25v119l-2 4l1 4l-1 37v4l2 63l-2 4v12q0 10 2 19l-4 22l1 11l1 82v12l-4 33v2q0 37 4 55v2q12 27 24 27q63 41 254 137l2 2q11 3 84.5 46.5t92 54t38 22.5t33.5 12t52 -24t114 -68q92 -52 129 -66t57 -34q4 -2 59.5 -27t114.5 -82v-2q4 -20 5 -31l-3 -4l3 -20v-2l-5 -33 v-12q0 -39 -4 -45l4 -54q0 -10 -2 -14l2 -16l-2 -13l2 -71z" glyph-name="logicalnot" horiz-adv-x="1456" unicode=""/><glyph d="M734 1456q26 0 79 -45q250 -143 307 -169t103 -48.5t85.5 -46t39.5 -45.5q6 -18 6 -35l-2 -10l2 -21l-8 -112l4 -54q0 -14 -2 -20v-19l-2 -38l4 -43l-4 -54l2 -14l-5 -41q0 -29 5 -78l-2 -49v-12l-3 -56l3 -28q0 -37 -31 -66.5t-98.5 -62.5t-72.5 -36t-56 -27t-87 -58 q-81 -48 -101 -58q-21 -10 -76.5 -48.5t-90.5 -38.5t-65.5 22.5t-68.5 40.5q-37 18 -71 39q-34 20 -50 24.5t-87 61.5q-27 2 -104.5 54t-120.5 65q-55 14 -55 80q0 23 2 36l-4 117q0 43 2 64l-5 53l3 16l-3 74q2 12 3 33l-3 28l1 3l-3 36q6 43 7 54l-5 24v60l-4 28 q0 49 6 67.5t44 43.5t134 73l188 94t164 94q70 48 96 48zM1313 715q-2 12 -2 68.5t-2 80.5l2 27l-4 59v2l-2 27l6 102v2q0 10 -58.5 49t-81.5 50q-111 39 -159 80l-195 104q-33 18 -49 28t-26.5 15.5t-14.5 9.5q-4 -4 -14.5 -9t-19.5 -11t-107 -64l-101 -55 q-179 -90 -201 -98t-80.5 -49t-58.5 -50l2 -110v-33l-4 -53l2 -19l-2 -77v-76q0 -29 4 -82l-2 -43q2 -10 2 -33v-12l3 -45v-92q0 -27 22.5 -42.5t72.5 -35t79 -37.5q146 -72 403 -238q10 6 28.5 16.5t24.5 15.5t98.5 52.5t92.5 61.5q31 14 84 47t78 45q37 23 75.5 41 t62.5 30.5t36 57.5l-2 78l2 37v8l2 51v12zM1255 944q0 -41 -4 -45l4 -55q0 -8 -2 -13l1 -4l-1 -26l2 -72l-2 -2v-18q0 -12 2 -19l-2 -2v-6l-2 -37q2 -12 2 -35l-2 -71v-54q0 -52 -33.5 -79t-66.5 -42.5t-54 -27.5q-19 -12 -39 -22t-60 -35t-56 -33q-10 -10 -49 -31.5 t-57 -28.5q-82 -55 -107 -55t-61.5 20.5t-83 50.5t-58.5 36t-19 14t-126 70q-23 23 -70 41t-77.5 39.5t-30.5 64.5l2 18v27q-2 4 -2 11t2 12v4l-2 24v119l-2 2l1 5l-1 38v2l2 66l-2 2v12q0 10 2 20q-4 8 -4 21l4 45l-2 18v43l-4 33v27q0 59 28 59q27 18 40.5 27.5t39.5 23.5 t99 49t80 39t43 25t73 42.5t54.5 32.5t34 19t23.5 11.5t20 3.5q14 0 26 -10t14 -9.5t3 -0.5t5 -4t10.5 -7t22 -12.5t128.5 -75.5t226 -115q75 -38 88 -67q4 -25 5 -31l-3 -4l3 -21v-2l-5 -33v-12zM1214 504v2l3 69l-3 9l5 28q0 10 -2 15l4 92q-2 8 -2 30t2 33l-4 66l2 12 l-2 64v2l-3 24q4 33 5 80q-6 10 -51.5 42t-65.5 37t-84 33.5t-86 53.5q-90 45 -180 102l-25 13q-2 0 -42.5 -28t-160.5 -87l-10 -4q-156 -78 -175 -90t-58 -36t-43 -36q0 -47 4 -80l-2 -24v-2l-4 -62l2 -12l-2 -68l4 -153q-2 -6 -2 -17l4 -106v-2l-2 -47q0 -12 24.5 -30.5 t67.5 -31.5q2 -2 27.5 -16.5t65.5 -38.5t97 -55h2q33 -27 203 -121q6 0 41 19.5l70 39t94 62.5h2q64 35 114 65t84.5 46t58 28t23.5 80z" glyph-name="registered" horiz-adv-x="1456" unicode=""/><glyph d="M123 532v7l-17 86l-4 108l2 31v20q0 123 76 265q59 119 113 163q174 174 414 203q20 2 54.5 8.5t52.5 6.5t26 2l71 -13q72 0 160 -31.5t148 -76.5q26 -8 84 -65q102 -101 147 -193.5t45 -106.5q12 -8 24.5 -56t12.5 -59l6 -141q-26 -174 -33.5 -196.5t-8.5 -28.5 t-13.5 -29.5t-21.5 -43.5q-23 -51 -76 -118.5t-58 -72.5q-133 -133 -344 -191q-40 -16 -55 -16l-150 4q-126 0 -192 28.5t-134 64.5t-143 110q-40 23 -112 149q-29 41 -51.5 97.5t-22.5 84.5zM141 698q0 -227 121 -368q0 -2 49 -65.5t78 -74.5q80 -64 147 -89t93 -37 q27 -11 47 -11q40 -8 47 -8h25l73 -8q125 0 162 22q16 16 48 19.5t38 9.5q27 27 84 43h6q12 4 23.5 16.5t13.5 12.5q47 16 103.5 78t90.5 122t58.5 116t42.5 153l6 102q0 61 -7 88t-7 31q-24 48 -29 62l-35 106q-18 21 -26.5 43t-11.5 23t-29 28.5t-41 61.5q-69 74 -102 93 t-40 23q-59 39 -129.5 59.5t-81.5 26.5q-78 0 -127 13q-12 -2 -54.5 -3t-59.5 -12q-137 -16 -256 -92q-73 -46 -145 -116t-99 -126.5t-37 -100.5t-10 -46q-29 -39 -29 -195zM903 1341q55 0 138 -36.5t124 -69.5q145 -113 217 -237t72 -322q-10 -295 -280 -490 q-152 -106 -332 -104h-33l-35 -2q-84 0 -163 27.5t-122 56.5t-114 84q-195 195 -195 430q0 408 338 596q98 45 108.5 49t26 4t80.5 12l107 7l55 -5h8zM223 709q0 -135 55.5 -242t172.5 -221q16 -16 55 -38t49 -26q172 -59 257 -59t177 22.5t131 61.5q6 8 31 24 q225 143 258 422q4 20 4 29q0 207 -86 315q-55 82 -98 125q-197 174 -391 174q-127 0 -226.5 -34.5t-209.5 -125.5t-156 -272q-23 -79 -23 -155z" glyph-name="macron" horiz-adv-x="1640" unicode=""/><glyph d="M730 12q-26 0 -72 25.5t-99 59t-79 47.5t-102.5 61t-119.5 71t-71.5 35t-52 23t-23.5 88q2 0 0 36t-2 72l2 80q0 76 -5 111l3 78l-3 20l1 3l-3 36l7 60l-5 65v21l-4 47q0 35 41 74.5t194 106t355 198.5q29 14 35 14q45 0 303 -166q51 -34 154.5 -85.5t144.5 -78.5 q23 -12 23 -53v-23l-6 -120q0 -14 4 -48l-4 -30l2 -27q-2 -12 -2 -33l2 -43q0 -20 -2 -28l2 -39l-2 -68v-57l-3 -90q-1 -35 1 -58t-48.5 -67t-177.5 -105l-57 -26q-127 -76 -184.5 -109t-83.5 -49q-37 -29 -63 -29zM830.5 87.5q96.5 54.5 123.5 75.5t104 65t137 71t90 44 t30 32l6 325v105l-2 53v29l-4 84q0 4 6 102q0 18 -34 39t-50.5 32t-30.5 20t-56 33t-78 40t-68 31l-33 14q-16 8 -103.5 58.5t-111.5 63.5t-31.5 13t-120.5 -72t-168 -85q-55 -41 -123.5 -71t-74.5 -34t-54.5 -34.5t-48.5 -45.5l4 -104l-6 -88l2 -33l-2 -166l2 -80v-20 l4 -148q0 -57 14 -74t197 -108q68 -39 219.5 -130t158 -91t103 54.5z" glyph-name="degree" horiz-adv-x="1454" unicode=""/><glyph d="M225 784q0 100 6 156l-4 90q0 8 35 34t133 74t212 114t119.5 65.5t79.5 -43.5t331 -174q7 -7 48.5 -33.5t41.5 -36.5l-2 -80l4 -131l-6 -307l2 -66l-2 -14q-26 -17 -99 -56t-152.5 -87.5t-101.5 -60.5t-73.5 -46.5t-62.5 -34.5q-10 1 -24 9t-98 61t-96 53 q-27 12 -76.5 43t-73.5 45t-45.5 26.5t-35 18t-24.5 10.5t-20.5 9t-9.5 20l-4 162l2 10l-4 93v77zM111 618l-2 146l-3 63l3 11l-5 26l7 62l-5 63v21l-4 47q0 41 13 49q-6 18 107.5 79.5t170.5 82.5q84 41 168 90t116 71.5t44 22.5t18 -2t12.5 -6l32.5 -20t126 -70t139 -78 t123 -68t132 -62t48 -79v-23l-6 -120q0 -16 4 -45l-4 -33l2 -10v-12v-81q0 -18 -2 -28l2 -39l-2 -14v-109l-3 -57q-3 -31 1 -82t-66 -89t-79 -40t-36.5 -18.5t-86 -51.5t-130.5 -78t-107.5 -65.5t-64.5 -38t-47 -15.5t-48 16.5t-67 40t-54 31.5t-159 96t-197 109t-71 35 t-20 43q0 33 2 41l-4 107zM205 523.5q0 -29.5 2 -44.5h-2q0 -45 8 -63.5t36 -26.5t53.5 -21.5t64.5 -37t57 -33.5q59 -45 108 -64q160 -106 186 -106t54 18q121 80 199 120t137.5 75t85.5 48t38.5 31.5t16.5 54.5t5 57.5t0 78t-1 74.5l-2 25l2 12l-2 110l4 19q-4 20 -4 29 l4 102l2 12q0 57 -20 70q-49 29 -222 120t-226 125t-62 35l-25 -10q-16 -12 -219 -127l-98 -47q-102 -44 -144 -82.5t-42 -64.5l2 -64v-33l4 -24l-6 -45l4 -25l-2 -92q4 -29 4 -92l-2 -70q2 -14 2 -43.5z" glyph-name="plusminus" horiz-adv-x="1454" unicode=""/><glyph d="M111 434h2q-4 70 -4 107l2 80q0 76 -5 110l3 78l-3 22v5l3 6l-5 26l2 15v110v21l-4 47q0 29 16.5 51.5t30 31.5t22.5 14l69 34q150 80 312 172t172 92q9 0 15 -2t12.5 -6t30.5 -20t254 -144q49 -16 150.5 -75.5t115.5 -66.5q50 -26 50 -71v-22l-6 -121q0 -16 4 -45l-1 -9 l-1 -51q-2 -10 -2 -32l2 -43q0 -18 -2 -29l2 -39l-2 -66v-57l-3 -92q0 -33 3 -49q0 -70 -123 -125t-144 -74q-111 -56 -139 -77.5t-44 -28.5q-15 -8 -74.5 -48t-85.5 -40q-27 0 -63 17t-68 36.5t-68.5 44t-50.5 29.5t-47 29t-45 30t-99.5 56.5t-125.5 62.5t-48 35.5 t-10 70.5zM726 43q2 0 22 10t102 61.5t120 69.5t128 74.5t127 67.5q66 31 75 47q16 35 17 172l4 168v102l-2 53v29l-4 84l6 104q0 16 -104 80q-29 20 -103 54.5t-90 46.5t-36 19t-137 75q-118 66 -121 68q-4 2 -68 -34t-156 -87.5t-138 -75t-82.5 -41t-93.5 -54.5t-57 -51 l4 -104l-6 -88l2 -31l-2 -166l2 -82v-20l4 -148q0 -68 19.5 -82t76.5 -39.5t129 -68.5t134.5 -80t85 -50t55.5 -32.5t59 -35.5t28 -15zM1253 597q0 -9 1 -27.5t0 -43t-2 -37t-4.5 -40.5t-47.5 -54q-111 -58 -186.5 -104.5t-86.5 -52.5t-41 -25.5t-80 -50.5t-69 -31 q-20 0 -49 14q-27 18 -101.5 56.5t-140.5 89.5q-30 0 -79.5 35.5t-60.5 41.5t-39.5 16.5t-43 23t-18.5 36.5q0 37 2 39q-4 28 -4 88l2 70q0 63 -4 92l2 41l-4 76l6 45l-4 25v30l-2 66q0 51 155 127q8 4 44 25.5t46 21.5q35 23 117 65t118 67.5t48 25.5h2q51 -25 127 -70 t102 -59t93 -46t104 -51.5t69.5 -53.5t32.5 -71l-2 -14l-4 -78q0 -35 4 -53l-4 -18l2 -15l-2 -106l2 -25v-91z" glyph-name="uni00B2" horiz-adv-x="1454" unicode=""/><glyph d="M111 432h2q-4 70 -4 107l2 79q0 76 -5 111l3 78l-3 22v5l3 6l-5 26l2 15v110v21l-4 47q0 46 27 67t38 28t40 20.5t93 43.5t137 70.5t144.5 83t102.5 62.5t40 20t15 -2t12.5 -6t30.5 -20t254 -144q49 -16 150.5 -75.5t115.5 -66.5q50 -26 50 -71v-22l-6 -121q0 -16 4 -45 l-4 -33l2 -27q-2 -10 -2 -33l2 -43q0 -18 -2 -28l2 -39l-2 -66v-57l-3 -92q0 -33 3 -49q0 -69 -123 -125t-144 -74q-100 -51 -137 -76t-51 -33t-74.5 -47t-83.5 -39q-52 0 -237 123q-31 16 -59.5 37t-45 29t-99.5 56.5t-122 60.5t-49 35.5t-10 70.5zM726 41q2 0 22 10 t102 61.5t120 69.5t128 74.5t127 67.5q66 31 75 47q16 35 17 172l4 168v102l-2 53v29l-4 84l6 104q0 16 -104 80q-39 31 -139 77t-126 62q-211 124 -220.5 123.5t-71.5 -35.5t-154 -86t-138 -74.5t-82.5 -41t-93.5 -54.5t-57 -51l1 -26l-3 -166l2 -31l-2 -166l2 -82v-20 l4 -148q0 -68 19.5 -82t76.5 -39.5t129 -68.5t134.5 -80t85 -50t55.5 -32.5t59 -35.5t28 -15zM205 479h2q-2 14 -2 44t-2 46l2 70q0 61 -4 92l2 92l-4 25l6 45l-4 25v30l-2 66q0 27 16 43t25.5 24.5t29 18.5t27.5 14t30.5 14t71.5 34q118 57 215 119.5t111 63.5t56 -23 t108 -64.5t171 -92.5t177 -102q20 -10 20 -68l-6 -114q0 -10 4 -31l-4 -19l2 -108l-2 -12l2 -25q0 -23 1 -88t-5.5 -125t-48.5 -80q-330 -182 -309 -178q-27 -12 -81.5 -49t-85.5 -37q-32 0 -192 107q-42 16 -82 44q-140 95 -184 106q-45 11 -53 31.5t-8 61.5zM231 438 q0 -2 8.5 -12t29.5 -14t98 -54q23 -12 73 -43t66 -37t53 -27.5t88 -53t63 -39.5t19 -8q22 0 190.5 110.5t243.5 134.5q52 25 57 35t5 19l-2 65l6 307l-4 131l1 48q1 47 -89 100q-39 29 -117 63.5t-102 46.5t-89 52.5t-92 54.5l-3 1l-15 -1q-203 -117 -225 -124t-55 -23.5 t-57 -31t-44 -26.5l-21 -12q-90 -61 -90 -70l4 -88q-6 -55 -6 -156v-79l4 -91v-6l-2 -4l4 -117v-51z" glyph-name="uni00B3" horiz-adv-x="1454" unicode=""/><glyph d="M1352 1059v-23l-6 -118q0 -14 4 -48l-4 -32l2 -11v-11v-81q0 -18 -2 -28l2 -39l-2 -15v-108l-3 -58q-3 -27 1 -78t-58 -85q-172 -100 -221 -125q-17 0 -57 -30t-50 -34t-96.5 -64.5t-126.5 -60.5t-102 41t-76 48t-163.5 97.5t-198 109t-64.5 32.5t-20 43q0 35 2 41 l-4 108l2 80q0 76 -5 111q0 25 3 37l-3 61l3 10l-5 29l2 15v110v18l-4 48q0 41 13 49q-10 8 45 43q121 76 233 119q43 27 133.5 74t139 78.5t63.5 31.5t75 -41t249.5 -139.5t259.5 -139.5h2q37 -9 37 -65zM143 365q2 0 6.5 -5.5t16 -14.5t61.5 -30q72 -31 283 -157.5 t215 -126.5q3 0 23 10t76.5 44t65.5 39t42 28.5t45 23.5q37 18 119 68.5t131 69t73 42.5q21 4 21 328v121l-2 51v29l-4 86q0 4 6 102q0 14 -49 48t-92 57q-217 104 -445 237l-2 1l-14 -1q-215 -127 -328.5 -181t-148.5 -77l-76 -47q-31 -23 -31 -35l1 -27l-3 -167l2 -19 l-2 -61l2 -197v-20l4 -95q0 -8 -3 -54.5t7 -67.5v-2zM724 1323q19 -1 57 -27q39 -26 173 -98t150 -80t78.5 -36t62.5 -68v-2q2 -10 2 -31v-4l-6 -90l4 -49l-2 -166q-2 -2 -2 -99v-20q2 -84 -6 -112.5t-47 -51.5l-39 -22q-12 -6 -63.5 -42t-79.5 -36v-2q-38 -38 -88 -54 q-156 -100 -191 -100l-20 4q-45 31 -119 66t-94 57q-2 0 -20.5 18.5t-43.5 18.5q-98 70 -166 88q-40 9 -46.5 48.5t-5.5 81.5t1 50v58q0 90 -2 98l2 63v4l-4 46q0 27 6 45l-2 12v2l-6 106q0 19 6 25q0 37 203 127q53 25 146 78t118 73.5t44 20.5zM726.5 168q4.5 0 6.5 2 l12 6q227 135 250 150l2 2q8 4 35 19t41 22l4 4q12 4 17 7l41 21q43 14 54 27.5t11 20.5l-2 65l4 84l2 78v69l-4 170q0 35 4 97q0 2 -48.5 30t-70.5 50q-12 0 -64 27.5t-55 31.5t-5 6q-11 0 -84 42q-74 42 -106 62.5t-44 20.5q-23 -12 -93.5 -56t-123.5 -65q-20 0 -143 -71 l-2 -3q-12 -4 -113 -73l4 -88l-6 -150l2 -149v-17l2 -30v-5l2 -88q0 -49 2 -51q-2 -4 53 -33q43 -13 203 -108t184 -111t28.5 -16z" glyph-name="acute" horiz-adv-x="1454" unicode=""/><glyph d="M1352 1071v-22l-6 -121q0 -14 4 -47l-4 -31q0 -2 2 -6v-4v-12v-80q0 -20 -2 -29l2 -39l-2 -16v-109l-3 -57q0 -70 3 -84q0 -39 -58.5 -77t-133.5 -72t-93 -56q-10 -6 -107 -66q-180 -121 -229 -120q-23 0 -88.5 39.5t-81.5 48.5l-33 22l2 -2l-291 168q-16 10 -51 22.5 t-51 28t-20 43.5q0 33 2 41l-4 107l2 80q0 86 -5 110q0 25 3 37l-3 61l1 3l-3 36l2 15v110v21l-4 47q0 43 13 49q-8 23 262 152q43 29 144.5 81t144 82.5t55.5 30.5q12 0 41 -14q83 -53 162.5 -96t111.5 -62q61 -43 277 -147l6 -2q17 0 25 -22.5t8 -41.5z" glyph-name="uni00B5" horiz-adv-x="1454" unicode=""/><glyph d="M876 1444q24 0 69 -32q46 -32 104.5 -64.5t111.5 -61t89 -52.5t104 -56q69 -32 174.5 -81t105.5 -89q6 -20 6 -43l-2 -23v-160l-6 -108v-15l-4 -129q2 -12 2 -38q0 -46 -27.5 -71t-99.5 -61q-78 -45 -119 -65q-14 -10 -55 -30.5t-45 -24.5q-90 -70 -211 -127 q-16 -8 -85.5 -55.5t-110.5 -47.5t-127 60q-33 16 -99.5 55t-88.5 49t-78.5 48t-81.5 48t-100 57.5t-120 59.5q-68 16 -67 98q0 31 2 45l-8 215l4 43l-9 140q0 59 7 80q0 23 72.5 64.5t183.5 96t137 71.5t134 75.5t161 93.5t77 35zM158 707q2 -18 2 -72l4 -82q-2 -9 -2 -27 t2 -26v-21q0 -33 39 -54.5t127 -61.5t198 -109t199 -119q90 -51 95 -55l50 -29q8 4 146 84t153 94q37 16 104 57.5t117 69.5t89 44t57 25t27.5 18.5t11.5 15.5t3 21.5t3 19.5l-2 84l4 51l-2 72l-2 34q0 27 4 80l-2 41l4 125q4 32 -418 242l-262 147q-18 12 -35 21 q-8 -8 -34 -21l-263 -147q-170 -91 -220 -111t-123.5 -70.5t-73.5 -60.5l4 -125l-2 -22v-6q0 -41 2 -62z" glyph-name="paragraph" horiz-adv-x="1742" unicode=""/><glyph d="M869 1442q26 0 110 -53q68 -47 238 -134q39 -31 123 -71l105 -50t36.5 -17t84 -42t68.5 -69q6 -23 6 -43l-2 -23v-160l-6 -108v-15l-4 -129q2 -12 2 -38t-13 -48t-25.5 -31.5t-46.5 -27t-48 -27.5t-52.5 -30.5t-54.5 -29.5t-56 -28.5t-55 -32.5t-62 -39t-73 -46t-94 -52 q-68 -34 -107.5 -61t-65.5 -27q-25 0 -45.5 9.5t-45 27t-44.5 27.5t-81 47t-102 51t-100 68q-37 6 -130 68.5t-147 76.5q-68 16 -67 98q0 31 2 45l-8 215l4 43l-9 140q0 61 7 80q0 35 165.5 116.5t210.5 108.5q356 211 382 211zM158 705q2 -18 2 -72l4 -82q-2 -9 -2 -27 t2 -26v-21q0 -31 16 -33q37 -29 81 -46.5t114 -57.5q100 -37 432 -252q20 -14 65 -39q8 5 41 25t133 74t125 79q39 16 107 58.5t116 68.5t86 43t57 26t28.5 18.5t11.5 15.5t3 21.5t3 19.5l-2 86l4 49l-2 72l-2 34q0 27 4 80l-2 41l2 53q2 55 3 69t-71.5 63t-114.5 65 t-138 68q-96 51 -154.5 83.5t-123 69.5t-74.5 43t-21.5 12.5t-18.5 8.5q-199 -120 -345 -194q-145 -75 -185 -91t-112 -65.5t-72 -59.5q0 -16 2 -72l2 -53q0 -6 -2 -16v-10q0 -43 2 -64zM868.5 1310.5q20.5 0.5 66.5 -27.5t181 -101l45 -25q94 -53 142.5 -69.5t77 -28.5 t76.5 -43.5t63 -61.5q4 -16 4 -24v-47l-4 -39l4 -86q-10 -102 -11 -185l3 -38q0 -44 -66 -88.5t-106 -61.5q-41 -16 -64 -26.5t-56.5 -24.5t-61.5 -42q-27 -27 -124 -69q-12 -6 -71.5 -45t-88.5 -39q-28 0 -45.5 8.5t-39 22.5t-70.5 38t-90 50q-61 25 -117 70 q-31 6 -111.5 56t-125.5 62q-57 14 -58 80v47l-6 162l4 35l-2 31v57l-4 68q0 37 12 43q8 20 65.5 49t146.5 68.5t138 70.5l48 25q45 25 95 52.5t90 51.5t60.5 24.5z" glyph-name="periodcentered" horiz-adv-x="1742" unicode=""/><glyph d="M1475 873v-50l2 -12l-2 -104l2 -45l-2 -82v-60q0 -37 -115 -76q-4 -2 -45 -25t-104 -50q-62 -27 -93 -58q-81 -59 -164.5 -99t-85.5 -42l-55 31q-18 6 -104 55t-97 59q-41 18 -235 129q-115 35 -115 80v90l-2 48v12q0 20 -2 33l2 41v10l2 82q-4 33 -4 94q-2 8 60.5 49 t84.5 49q125 47 168 80l181 92q46 27 68 39t32 18.5t16 8.5q10 -4 30 -16t120 -65.5t104 -56t68.5 -36t115.5 -52.5q50 -20 112.5 -61t62.5 -49q-6 -24 -6 -61zM872 1440q28 0 94 -48t251 -141q16 -14 80.5 -49t94.5 -47t136 -61t106 -90q6 -20 6 -43l-2 -23v-162l-6 -108 v-15l-4 -127q2 -12 2 -39q0 -46 -27.5 -70.5t-99.5 -60.5q-79 -45 -101 -57t-60 -37.5t-58 -25.5q-68 -57 -211 -127q-16 -8 -85.5 -55.5t-110.5 -47.5t-127 60q-86 44 -123 66t-85 47.5t-81 56.5q-31 0 -131.5 66.5t-147.5 78.5q-68 16 -67 100q0 31 2 45l-8 213l4 43 l-9 142q0 59 7 80q0 18 53 50.5t162.5 89t321.5 176.5t224 120zM1524 928q0 31 -13 37q-7 31 -159 95t-191 95l-47 25q-122 62 -172 96q-50 33 -74 33t-82 -39t-163 -90l-48 -25q-36 -29 -258 -129l-26 -12q-29 -12 -40 -19.5t-24.5 -27t-13.5 -43.5l4 -68v-14l2 -74l-4 -37 l6 -162v-8q0 -41 3.5 -72.5t54.5 -44.5q33 -8 96 -44t118 -61.5t89 -57.5q13 0 57.5 -27t57.5 -33t71 -45t86 -39t47 9.5t40.5 22.5t33.5 18t83 49.5t97 44.5q28 25 70.5 45t68.5 34t69.5 35t71 36t54.5 42t27 53l-3 43q0 33 11 187l-4 86l4 37v49z" glyph-name="cedilla" horiz-adv-x="1742" unicode=""/><glyph d="M872 1440q28 0 94 -48t251 -141q16 -14 80.5 -49t94.5 -47t136 -61t106 -90q6 -20 6 -43l-2 -23v-162l-6 -108v-15l-4 -127q2 -12 2 -39q0 -46 -27.5 -70.5t-99.5 -60.5q-79 -45 -101 -57t-60 -37.5t-58 -25.5q-68 -57 -211 -127q-16 -8 -85.5 -55.5t-110.5 -47.5 t-127 60q-86 44 -123 66t-85 47.5t-81 56.5q-31 0 -131.5 66.5t-147.5 78.5q-68 16 -67 100q0 31 2 45l-8 213l4 43l-9 142q0 59 7 80q0 18 53 50.5t162.5 89t321.5 176.5t224 120zM158 702q2 -18 2 -73l4 -82q-2 -7 -2 -25t2 -26v-21q0 -45 133 -94l41 -21 q-127 62 469 -274q35 -23 65 -39l299 176q41 20 108 61.5t107 63.5t92 48t73.5 38t31.5 62l-2 84l4 49l-2 73l-2 33q0 25 4 82l-2 41l4 123q2 14 -80 64.5t-149 84.5l-53 31q62 -48 -398 211q-18 12 -35 21q-8 -9 -27 -19t-85 -47t-123 -69.5t-69 -36.5t-102.5 -53.5 t-126.5 -62.5t-108.5 -63.5t-72.5 -60.5l4 -123l-2 -22v-7q0 -45 2 -63zM868.5 1309q24.5 0 79.5 -37t166 -92l47 -25q30 -27 177.5 -84t181.5 -119q4 -20 4 -24v-49l-4 -37l4 -86q-10 -154 -11 -187l3 -4v-4q0 -64 -46 -99.5t-96.5 -60t-61.5 -29.5q-121 -55 -157 -91 q-10 0 -55.5 -27t-59.5 -33t-73.5 -45t-88.5 -39q-28 0 -45.5 8.5t-38 21.5t-78.5 41t-74 40q-16 10 -34 17.5t-92 58.5q0 -4 -97 52.5t-140 67.5q-57 14 -58 80v45l-6 162l4 37l-2 31v57l-4 68q0 25 45.5 63.5t161.5 87.5t155 80l48 25q130 66 175 98q46 31 70.5 31z M258 934l4 -111l-2 -12v-63l-2 -41q2 -12 2 -33v-12l2 -48v-92q0 -43 115 -78q2 -2 25.5 -14t47.5 -25t86 -43t82 -51q72 -51 250 -141q36 20 50 28t103.5 56t102.5 61q27 12 104 57.5t132 71.5q115 33 115 74v19q0 80 2 96l-2 74q0 61 2 92l-2 41q0 70 6 94q0 25 -197 123 q-12 6 -58 24.5t-61 30.5l-143 70q-68 37 -106 60t-48 28q-6 -2 -16 -8.5t-21 -13.5t-112 -60t-105.5 -55.5t-66 -35.5t-114.5 -53t-114 -60t-61 -50z" glyph-name="uni00B9" horiz-adv-x="1742" unicode=""/><glyph d="M1636 872l2 -73q0 -16 3 -183.5t-31 -201.5q-69 -69 -218.5 -140.5t-318.5 -173.5t-194 -108q-35 0 -118 54t-226 128q-43 33 -135 82t-110 61t-75 36t-79.5 47.5t-22.5 70.5l-7 268l5 31l-9 195q13 47 47.5 69t102.5 58t175.5 94.5t236.5 128t202 110.5q30 0 72 -29.5 t60 -39.5t188 -102t262 -136.5t138 -77t52 -63.5l4 -74zM152 457q0 -16 17 -33.5t37.5 -27t49.5 -22t76 -36.5q93 -48 314 -180.5t225 -132.5q6 0 263.5 153t405.5 219q29 16 40 30.5t11 41.5v29q2 47 2 141l-2 147l6 179q0 27 -155 120q-2 0 -2 2q-307 143 -553 295 q-13 4 -19 4q-18 0 -118 -67q-29 -16 -469 -248q-133 -86 -134 -100l5 -121l-5 -170l7 -158q-2 -12 -2 -65z" glyph-name="ordmasculine" horiz-adv-x="1744" unicode=""/><glyph d="M872 1290q6 0 42 -20t255 -136t332 -186q10 -10 10 -20l-4 -279q0 -18 2.5 -68t-10.5 -91.5t-92 -72.5q-78 -32 -276.5 -148.5t-226.5 -132.5t-32 -15.5t-22 10.5t-201.5 117.5t-235.5 134.5t-111.5 49t-59.5 60q0 57 2 57l-6 135l2 121q0 41 -4 123q0 10 8 16 q94 66 292 168t264 140t72 38zM1645 965l-7 -93l2 -73l-6 -328q0 -33 -35.5 -67.5t-75.5 -57t-104.5 -54.5t-82.5 -42t-76 -47t-80 -47t-132.5 -87t-181.5 -77q-61 27 -171.5 92.5t-157.5 87.5q-217 160 -363 201q-78 17 -71.5 181.5t6.5 184.5l4 31q0 90 -9 133 q-4 90 29 115q91 64 263 151t309 171.5t176 84.5q92 -45 256.5 -140t196.5 -113t129 -65t125 -67t33 -27t8 -13.5t7.5 -16.5t8.5 -18zM1550 930q0 29 -40 57.5t-126 69.5t-152 79t-164 88q-99 50 -135.5 75.5t-64.5 25.5q-88 -45 -277 -146t-253 -135t-79 -42.5t-34.5 -29 t-27.5 -42.5l8 -168l-2 -29q0 -25 -3 -104.5t8.5 -138t46.5 -69.5q36 -11 102.5 -43t144 -83t84.5 -51q264 -143 280 -152q18 0 78 34t180.5 100.5t231.5 122t168 106.5q18 14 21 77.5t4 92t0 82t-1 63.5l-2 80q0 8 4 24v56z" glyph-name="guillemotright" horiz-adv-x="1746" unicode=""/><glyph d="M1638 807l-6 -328q0 -46 -34.5 -71t-76 -46.5t-61.5 -33.5t-87.5 -50t-107.5 -60t-92.5 -52.5t-113.5 -68t-105 -63.5t-75 -34q-33 0 -70 24t-143.5 82t-155.5 95q-27 16 -145 88.5t-194 91.5q-77 19 -71 188.5t6 178.5l5 30l-9 195q8 34 32 54t34 27.5t182 99.5t516 280 q32 0 92.5 -43.5t231.5 -134.5q171 -90 232 -119t135 -68t81 -84l4 -74l-6 -30zM152 465q0 -18 26.5 -43.5t112.5 -54.5q127 -66 350 -200t227 -134t17 4q49 29 249.5 151t295.5 166q94 43 127.5 63t33.5 60v29q2 47 2 141l-2 146l6 180q0 20 -157 121q-377 188 -553 297 q-5 2 -17 2q-12 -1 -170 -95t-227 -120q-199 -98 -317 -187q-8 -6 -9 -14l5 -119l-5 -170l7 -158q-2 -10 -2 -65zM195 953q0 11 26 30q78 53 225 125.5t272.5 148.5t160.5 76q99 -62 262 -146q163 -85 285 -141.5t122 -107.5l-4 -80l2 -80l-6 -264q0 -37 -38 -68.5 t-128 -75.5t-100 -49t-61.5 -38t-72.5 -42t-120 -75t-156 -66q-16 8 -280 152q4 0 -115.5 75.5t-210.5 100.5q-59 15 -59 48l2 226l2 68q0 82 -8 113v70z" glyph-name="onequarter" horiz-adv-x="1744" unicode=""/><glyph d="M1645 973l-7 -92l2 -74l-6 -328q0 -33 -35.5 -67.5t-75.5 -57t-104.5 -54.5t-82.5 -42t-76 -47t-80 -47t-133.5 -87t-180.5 -77q-61 27 -171.5 92.5t-157.5 87.5q-217 160 -363 201q-78 17 -71.5 181.5t6.5 185.5l4 30q0 90 -9 133q-4 90 29 115q91 64 263 151t310 172 t175 85q92 -45 256.5 -140.5t196.5 -112.5t129 -65t125 -68t33 -27t8 -13.5t7.5 -16.5t8.5 -18z" glyph-name="onehalf" horiz-adv-x="1746" unicode=""/><glyph d="M1636 889l2 -72q0 -10 2.5 -182t-27.5 -202q-38 -38 -140 -89q-307 -172 -435 -249t-159 -85q-33 0 -101 44t-247 145t-220 125t-97 46.5t-78.5 46t-22.5 70.5l-7 269l5 30l-9 197q10 27 33 50.5t38 32.5t209 112t484 266q30 0 73 -31t73 -49t184 -100q154 -84 248 -129 t141 -77t53 -63l4 -75zM152 473q0 -18 19 -36.5t38.5 -28t67 -25.5t319 -179t277.5 -163q5 -1 35 17t244 147t326 180t113 100v31q2 47 2 139l-2 148l6 178q0 20 -75.5 69.5t-81.5 53.5q-432 225 -553 295q-13 4 -19 4t-27.5 -11.5t-54 -33t-44.5 -28.5t-234.5 -121.5 t-351.5 -209.5q-8 -6 -9 -12l5 -121l-5 -170l7 -157q-2 -10 -2 -66zM1544 866l2 -78q0 -10 2.5 -148t-26.5 -167q-55 -55 -201.5 -124t-280.5 -150q-134 -82 -161 -88q-34 0 -152.5 68.5t-131.5 74.5t-145.5 86t-191.5 96q-46 12 -54 95t-5.5 146.5t2.5 74.5l2 26l-8 168 q8 25 28.5 45.5t32.5 27.5t68 35t246 131t296 156q28 0 78.5 -33.5t199.5 -112.5q148 -79 237 -120t128 -70.5t39 -58.5zM240 508q0 -34 78.5 -64.5t294 -156t235.5 -137.5t23 -13q3 0 12 4q427 245 493 277t83.5 45.5t27.5 24t14 35t5 34.5t0 50t-1 59l4 280q0 20 -65.5 59 t-73.5 46q-68 37 -232.5 120.5t-252.5 133.5q-3 2 -13 2t-29.5 -10.5t-45.5 -28t-217 -109.5t-277 -155q-4 -4 -37 -22.5t-33 -37.5q4 -82 5 -121l-2 -123l6 -135q-2 0 -2 -57z" glyph-name="threequarters" horiz-adv-x="1744" unicode=""/><glyph d="M1358 711q0 -162 -76 -326q-14 -45 -73.5 -108.5t-100.5 -92.5q-59 -59 -84 -66l-133 -32q-35 -10 -94 -10l-49 6h-5l-2 -2q-142 0 -253.5 76t-142 114.5t-26.5 38.5q-29 18 -59.5 71.5t-45.5 98.5t-11 43q-31 43 -31 177t18 182q4 12 38.5 126t179.5 235.5t303 121.5h49 q31 0 47 -2h22q104 0 176 -41t83 -47t34 -24.5t37.5 -33t37 -40t28.5 -31.5q45 -47 75 -117q55 -123 56 -244q2 -12 2 -34v-39zM780 1337q-123 0 -164 -16q-219 -82 -260 -176q-10 -25 -54 -80t-51 -83t-28.5 -98t-21.5 -124l6 -96l-2 -17q0 -64 24.5 -116t28.5 -56 q10 -50 52 -103t50 -65q16 -12 50 -53t57 -53q145 -84 225 -82h6l78 -13q88 0 217 46q2 -2 6 -2q45 0 150 110q174 176 180 428l-1 11l-1 67q-4 25 -14.5 98.5t-38.5 136.5q-10 14 -29 51.5t-33 50.5t-44.5 50t-68 76.5t-124.5 70.5q-168 37 -195 37zM768 4q-180 0 -320 78 t-192 168q-80 104 -116 200t-38 235q0 140 12.5 193.5t31 107.5t20.5 58q20 63 84.5 144.5t150.5 140.5q59 51 164 80t199 29q383 0 582 -355q38 -59 48.5 -113.5t21.5 -126t12 -119.5t-18 -173t-64 -195q-197 -352 -578 -352zM131 540.5q0 -139.5 225 -360.5l6 -6 q98 -88 140 -88h4q-5 0 71 -24.5t109 -30.5q121 0 194.5 10t159.5 49q141 51 275 270q86 144 86 330q0 285 -125 455q-2 2 -15.5 20.5t-57 78t-163.5 106.5q-4 4 -22.5 8t-36.5 16q-82 29 -98.5 32t-134.5 3q-199 0 -377 -135q-72 -72 -156 -193q-66 -119 -86 -331l2 -21v-4 l-2 -4l1 -3l-1 -28q2 -10 2 -149.5z" glyph-name="questiondown" horiz-adv-x="1531" unicode=""/><glyph d="M834 1329q39 0 103 -21.5t71 -23.5q213 -109 282 -283q107 -256 51 -479q-45 -188 -86 -211q-4 0 -4 -4q-72 -102 -143 -157q-29 -23 -85 -55t-79 -32h-6q-18 0 -47 -12q-61 -8 -94 -8l-52 4l-23 2q-22 2 -55.5 11.5t-62.5 17.5t-38 11t-111 41.5t-219 275.5 q-4 10 -14.5 39.5t-18.5 43.5q-31 47 -31 175l-1 68q-1 68 19 114q49 156 109 241q55 84 162.5 163t236.5 79h13l65 2l39 -2h19zM102 686q0 201 85 366t240 258t336 93t320 -80q170 -98 263 -274q37 -57 49 -112.5t19 -109t10 -75.5t3 -71t-3 -75t-7 -63t-13.5 -92.5 t-57.5 -126.5q-86 -154 -231.5 -254.5t-323.5 -100.5l-23 2l-27 -2q-205 0 -399 156q-240 193 -240 561zM846 1376h-98q-74 0 -146 -22.5t-110.5 -43t-120.5 -69.5q-146 -146 -173.5 -219.5t-32.5 -86.5t-10 -39t-7.5 -33t-6.5 -37.5t-4 -34t-4 -37.5l-4 -37l1 -5v-14l1 -20 l-2 -21q0 -110 22.5 -171.5t38.5 -103t36 -77.5t36.5 -58t26.5 -33t36.5 -36.5t29.5 -27.5t7 -7q90 -92 144 -92q17 -10 39 -18t62 -22.5t87 -14.5l21 2q16 -2 50 -2t52 2l19 -2q84 2 188 51t166.5 115.5t124.5 163.5q86 134 86 331q4 242 -86 390q-123 199 -275 270l-94 35 q-6 2 -14 4t-26.5 8t-33.5 9t-26 3z" glyph-name="Agrave" horiz-adv-x="1529" unicode=""/><glyph d="M748 4q-196 0 -347 107q-154 123 -226.5 266t-72.5 344t85 365t240 258t353 94t359 -117t247 -334q38 -85 42 -262q1 -41 -3 -76t-7 -72t-15.5 -94t-56.5 -125q-92 -176 -247 -265t-351 -89zM776 1366q-148 0 -220.5 -33t-139 -84t-118.5 -120.5t-89 -182t-37 -248.5 q17 -187 84.5 -290.5t74.5 -115.5t52 -59t144.5 -100t203.5 -53q6 0 10 2l56 -4l141 20h6q41 0 110.5 45t91.5 72t63.5 79t53.5 59t39 79t41 127t15 191l-8 81q-10 139 -69.5 233.5t-156.5 180.5q-135 121 -348 121zM1327 768l-4 -37l6 -43q-8 -219 -123 -358 q-42 -69 -107 -124.5t-100 -55.5q-2 0 -6 2h-4l-96 -29q-59 -14 -98 -14l-97 10q-68 0 -160 43t-132 98q-129 129 -148 215q-14 14 -33.5 76.5t-19.5 95.5l2 17l-6 96q0 62 21.5 127t24.5 79t34 80.5t69 92.5q-8 0 20.5 27.5t39.5 35.5q135 135 376 135q31 0 189 -37 q80 -26 126.5 -72.5t106.5 -121.5q45 -51 66.5 -105.5t35 -134.5t17.5 -98z" glyph-name="Aacute" horiz-adv-x="1531" unicode=""/><glyph d="M717 1368q123 0 143 -6q63 -5 99 -23t75 -36.5t43 -20.5q59 -29 122 -104.5t89 -137.5q4 -10 27 -66t41 -237q0 -133 -47 -274q-12 -55 -39 -82q0 -22 -51.5 -74.5t-73.5 -76.5t-76 -58q-53 -35 -92 -47l-78 -25q-31 -6 -51 -6h-2q-29 -4 -45 -4l-53 4h-3q-80 0 -144 28 t-75 28q-76 33 -182 139q-8 10 -51 61.5t-76 159.5q-41 82 -41 168t2 113l-2 4l-1 30q-1 30 28 99q14 70 77.5 173t101.5 127.5t42 30.5q170 113 293 113zM771 141q56 0 106 13q18 0 58 15t48 15t10 -2l8 4q168 98 246 258q55 166 58 252l-7 45l1 7l1 55q-2 41 -21 111 t-56 128t-40 63t-61 79.5t-155 99.5q-18 4 -61 20.5t-124 16.5l-49 -2q-106 -2 -221 -62q-14 -8 -66 -52t-57 -44q-6 -14 -18.5 -25.5t-20.5 -29.5q-10 -10 -33.5 -47t-23.5 -45q-4 0 -36 -73.5t-32 -172.5l6 -94l-2 -23q16 -82 33 -127q20 -72 117 -192q53 -39 70 -74 q31 -31 104 -68q4 0 83 -24.5t135 -24.5zM748 12q-196 0 -347 107q-154 123 -226.5 266t-72.5 344t85 366t240 258t353 93t359 -117t247 -334q38 -85 42 -261q1 -42 -3 -76t-7 -72t-16 -96t-56 -123q-92 -176 -247 -265.5t-351 -89.5zM131 671q0 -19 2 -39t7 -50.5t11.5 -52 t19.5 -55.5t19.5 -47t24 -51t27.5 -58t56 -65.5t58 -64.5q43 -43 162 -98q55 -33 119.5 -42t179.5 -9q201 0 371 164q55 53 134 177t79 307q0 184 -44.5 293.5t-64.5 149.5q-78 129 -178 189q-12 6 -36.5 18.5t-43 20.5t-20.5 10q-86 51 -215 51v-2h-66v2q-115 0 -182 -37 q-73 -18 -138 -70t-71 -57q-133 -137 -165 -241.5t-36 -136t-12 -119.5l1 -5v-12v-12l-1 -29q2 -10 2 -29z" glyph-name="Acircumflex" horiz-adv-x="1531" unicode=""/><glyph d="M748 4q-198 0 -347 107l-24 20q-27 18 -36 26.5t-37 33t-41 42t-38.5 50t-57 102t-48.5 153.5t-17 183q0 199 82 362q94 168 245 261.5t335 93.5q266 0 402 -132t204 -284q55 -124 58 -311q0 -57 -20 -173t-62 -180q-92 -176 -246 -265t-352 -89zM715 31q191 -1 335 63 t265 266q86 144 86 330q0 82 -6 118t-8.5 55.5t-11.5 48t-11 40t-6 18.5l-16 39q-13 31 -30.5 69t-24.5 54t-27.5 41t-56.5 60t-44 41t-54.5 44t-80.5 38l-68 28q-70 25 -120 25h-142q-66 0 -143 -35q-164 -68 -195 -114q-98 -104 -135 -168t-56.5 -127.5t-23.5 -95 t-12 -119.5l2 -21v-4l-2 -4l1 -3l-1 -28q4 -20 4 -57q8 -233 223 -453q49 -53 162 -98q98 -51 197 -51z" glyph-name="Atilde" horiz-adv-x="1531" unicode=""/><glyph d="M721 1425q8 0 12 2q172 0 321.5 -62t233.5 -196q80 -111 112 -221t32 -272q-18 -211 -83 -337t-165.5 -205t-190.5 -103q-106 -37 -278 -37q-254 14 -425 201.5t-181 445.5q-5 19 -5 129q-1 205 170 436q29 53 152 129t283 88q4 2 12 2zM1395 720q0 218 -115 392 q-72 88 -121 132t-147 93t-183 49h-108q-104 0 -206.5 -52t-152 -99t-81.5 -92q-137 -164 -138 -434q0 -203 87 -363t266 -254q94 -61 313 -61q96 0 187 40t182 126t133 165q84 140 84 358z" glyph-name="Adieresis" horiz-adv-x="1533" unicode=""/><glyph d="M731 1440q172 0 321.5 -61.5t233.5 -194.5q78 -109 111 -220.5t33 -273.5q-18 -211 -74 -319q-82 -158 -217 -253t-293 -108q-20 -4 -129 -4q-211 0 -381 160t-209 336q-25 137 -25 264t45.5 235.5t124.5 219.5q219 219 459 219zM1393 718q0 234 -115 408 q-74 88 -126 135.5t-134 86.5q-10 0 -41 14t-88 26t-70 13h-98q-145 0 -264 -82t-178 -162q-137 -184 -138 -434q0 -412 353 -619q8 -2 90 -31.5t166 -29.5h45q145 0 289.5 89t197.5 198q111 154 111 388zM741 91q0 1 -2 1q-246 35 -352 156q-59 59 -74 88 q-123 188 -123 383q0 294 173.5 466.5t361.5 172.5q121 0 151 -8t97.5 -22t124.5 -71q243 -209 243 -546q0 -143 -41.5 -243t-113.5 -190t-205 -155q-88 -35 -182 -35q-18 0 -47 4l-6 -1q-5 -1 -5 0z" glyph-name="Aring" horiz-adv-x="1531" unicode=""/><glyph d="M717 -12q-190 0 -367.5 149.5t-222.5 345.5q-4 27 -11 89.5t-14 95.5q4 244 74 389q14 29 53 78t52 77q135 123 245.5 166t276.5 43q262 -12 438 -204.5t186 -442.5l3 -35q0 -100 -23 -243q-35 -201 -227 -363q-145 -145 -463 -145zM1341 692q0 174 -41 254l-22 70 q-88 209 -285 287q-94 37 -211 36q-211 0 -342 -104q-250 -197 -250 -533q0 -149 28 -213.5t42 -89t45 -65.5t43 -60q51 -80 170 -141t225 -61l9 2q29 -4 47 -4l137 20h8q186 74 316 266q42 103 67 193q14 66 14 143zM1296 764l-2 -37l4 -49q0 -209 -149 -393 q-33 -41 -84 -85t-80 -44l-65 -22q-66 -23 -114 -23t-67 5q-18 5 -45.5 10t-76 14.5t-64.5 25.5q-166 82 -229 229q-29 68 -43 82q-2 8 -23.5 58t-21.5 98l2 12q-6 92 -7 96q0 137 111 320q51 104 165 168.5t234 70.5q33 0 39 3q160 -18 233.5 -63.5t162.5 -156.5 q45 -45 67.5 -97t35.5 -131t17 -91z" glyph-name="AE" horiz-adv-x="1531" unicode=""/><glyph d="M1427 706q0 -50 -3 -76t-7 -63t-13.5 -91t-57.5 -128q-98 -174 -249 -264t-329 -90l-2 2l-2 -2q-227 0 -422 156q-240 193 -240 561q0 201 85 365t240 257.5t336 93.5q181 -1 335 -89t248 -265q37 -58 49 -113t19 -108.5t10 -75.5q3 -20 3 -70z" glyph-name="Ccedilla" horiz-adv-x="1529" unicode=""/><glyph d="M733 1425q379 0 555 -256q78 -115 112 -225t32 -268q-18 -215 -79 -330t-148 -194.5t-184 -111.5t-160.5 -40t-145.5 -8q-252 14 -424 202.5t-182 444.5q-5 21 -5 117t26 193.5t72 164t74.5 97t71.5 65.5q172 145 385 149zM1395 728q0 176 -107 366q-16 51 -83.5 115.5 t-108.5 84.5q-123 63 -132.5 63.5t-59.5 13.5t-75 13h-28q-27 2 -93 2t-146.5 -29.5t-159.5 -93t-121 -122.5q-137 -164 -138 -432q0 -203 88 -365t265 -254q153 -57 215 -61h86q127 0 236.5 55t179 139t113.5 172t56 164q12 77 13 169zM193 705q0 401 360 602q67 37 183 37 t183.5 -19.5t159.5 -67.5q131 -66 224 -307q40 -86 40 -250t-81 -340q-113 -170 -279 -251q-106 -37 -182 -37l-51 4h-9q-285 39 -391 200q-2 4 -35.5 52.5t-62 96.5t-44 128.5t-15.5 151.5zM782 1303h-26q-123 0 -242 -68t-170 -172q-76 -125 -106 -277q-4 -25 -5 -41 l7 -98l-2 -4v-6q0 -47 20.5 -95t24.5 -61q10 -10 25.5 -44t17.5 -38q37 -88 118.5 -155.5t126.5 -81.5q137 -47 229 -47t179 43h8q47 0 164 131q154 176 149 391l-4 51l2 35q-6 23 -16 86t-22 96q-47 102 -125 198.5t-172 121.5q-138 33 -181 39v-4z" glyph-name="Egrave" horiz-adv-x="1536" unicode=""/><glyph d="M102 762q84 41 246 166q70 45 209 135t287.5 185t361.5 204q41 0 107.5 -42t102.5 -62t158 -99t301 -189t295 -183t157 -109q10 -6 10 -23q-50 -50 -148 -110t-118 -74q-8 0 -95.5 -61.5t-107.5 -75.5l-375 -250q-37 -29 -106.5 -74t-93.5 -61t-72 -21q-59 12 -167 84 t-124 80q-227 168 -797 531q-31 22 -31 49zM1221 1408q0 1 -6 1t-23.5 -9t-43.5 -25.5t-115 -69.5t-209 -132t-222 -137t-126.5 -75t-141.5 -91t-178 -122l118 -77q118 -77 140 -93t28 -21l72 -50q27 -18 112 -71t121 -82t101 -67.5t96 -63.5t113 -73t115 -70t57 -23 q49 10 188 113q80 47 207 135t183 120t121 74t127.5 88t76.5 56t68.5 49.5t85.5 57.5q-75 75 -132 108l-233 131q-78 39 -201 117t-135 84t-53 36.5t-154 97.5t-135 75t-22 9z" glyph-name="Eacute" horiz-adv-x="2441" unicode=""/><glyph d="M2327 750q8 -4 10 -7q0 -23 -35 -51t-96.5 -64t-73.5 -44t-27.5 -17.5t-26 -15.5t-61.5 -45t-253 -169t-250 -165t-136 -98.5t-129 -73.5q-77 0 -179.5 72.5t-139.5 91.5q-160 120 -382 262t-259 166t-112 68t-75 83q33 16 93.5 61.5t103.5 77.5t103.5 69.5t151 89 t160.5 95.5t164.5 105.5t141.5 91.5q162 100 209 101q297 -164 421 -251t169 -112t173 -103t208.5 -125t126.5 -93zM2136 734q0 13 -31 32q-33 16 -109.5 71.5t-129.5 75.5q-39 24 -127 81t-226.5 133.5t-205.5 127.5q-63 43 -83 43t-48 -14q-362 -215 -436 -263t-148 -93 t-100 -68l-23 -12q-40 -17 -102 -56.5t-62 -60.5q0 -14 12 -20q63 -33 178 -113t175 -109q29 -18 145.5 -98t179.5 -117q27 -10 109 -73.5t112 -63.5t52 17q410 281 536 354q76 57 90 57q169 130 228 148q14 8 14 21zM1224 178q-11 0 -32 15q-279 188 -354 225 q-106 76 -255 168t-225 145q76 49 119 71t201 131q158 107 236 149q76 42 130 75t60 36t49.5 35t66.5 32t130 -71q106 -71 190 -117t138 -84t94 -57q41 -19 101.5 -64.5t80.5 -55.5t63 -39t66 -39q-150 -78 -209 -137q-156 -92 -328 -217q-230 -139 -257 -161.5t-40.5 -31 t-24.5 -8.5z" glyph-name="Ecircumflex" horiz-adv-x="2439" unicode=""/><glyph d="M102 727q12 6 65.5 49t459.5 285q27 27 63 47t146 94t348 207q29 8 45 8q142 -73 298 -172.5t216 -134.5q121 -84 368 -229q14 -10 95.5 -60.5t96.5 -66.5t24.5 -19.5t9.5 -23.5q-54 -54 -149 -111t-117 -72q-31 -31 -107 -76.5t-106 -67.5t-112 -76t-253 -169 q-37 -18 -126.5 -86.5t-145.5 -68.5q-59 12 -164 82.5t-127 83.5q-143 102 -414.5 278t-382.5 252q-31 24 -31 47zM2286 715q-84 84 -219 159.5t-167 93.5t-152 92.5t-148 88.5t-48 27.5t-54 38t-130.5 83t-144.5 76.5q-14 0 -124 -62q-109 -62 -193 -120q-84 -56 -427 -260 q-51 -43 -168.5 -117t-154.5 -100q25 -16 125 -85t153 -102q39 -39 75.5 -58t54.5 -35t88.5 -57.5t135.5 -90.5t240 -152l66 -39q111 -76 135 -73q49 10 188 112q68 38 138.5 87.5t80.5 53.5q146 100 196 130t134 86.5t178.5 123t141.5 99.5zM1212 123q-20 0 -41 14 q-290 200 -440.5 293.5t-212.5 140.5q-166 99 -189 119t-23 32t28 32t82 48.5t240 151.5t266 167t171.5 103.5t125.5 59.5q31 -6 91 -48t256.5 -156.5t299.5 -180.5q106 -74 124 -80t73 -40t64 -43t9 -16q0 -14 -7 -19t-43 -25t-135 -87t-159 -103t-185 -120t-157 -104 t-111.5 -79.5t-111.5 -59.5h-15z" glyph-name="Edieresis" horiz-adv-x="2439" unicode=""/><glyph d="M102 764q86 86 246 166q440 297 836 516q12 8 45 8q104 -55 293.5 -172t220.5 -135q74 -51 233.5 -143.5t253.5 -163.5q106 -70 107 -90q-31 -39 -146 -108.5t-163 -105.5t-138 -97.5t-219 -146t-161 -104.5t-135 -94t-154 -74q-57 12 -164 84t-127 82q-80 57 -535 361 q-29 18 -128 76t-165 122v19zM1229 59q25 0 100 52.5t191 126.5t201 137q85 64 187.5 133.5t220.5 144t157 101.5q-256 168 -320 211q-276 159 -504 311q-188 117 -239 135q-22 0 -60.5 -24.5t-96.5 -56.5t-146 -91q-57 -33 -171.5 -108.5t-198.5 -119.5t-394 -259 q27 -18 128 -84t150 -103q18 -18 61 -44.5t65 -45.5t93.5 -61.5t98.5 -61.5q133 -100 262 -174t159.5 -96.5t55.5 -22.5zM1220.5 160q-26.5 0 -68.5 25.5t-90 63t-88 61.5t-304 200q-33 16 -91.5 58t-82.5 56q-190 113 -191 130q0 37 187 129q340 227 684 422q30 16 50 14 t52.5 -20.5t76.5 -48t96 -59.5t211 -130t230 -143q39 -20 109 -66.5t104 -65.5q31 -12 31 -30q0 -28 -124 -99t-148 -87t-246.5 -163t-349.5 -233q-21 -14 -47.5 -14zM1226 201q10 0 60 36q49 36 215 137t373 244q104 51 203 132q4 4 6 4q-47 47 -117 73l-24 13 q-131 94 -175 114t-143.5 87t-177.5 107t-215 132q-4 2 -13 2q-25 0 -116 -68q-51 -33 -175 -104.5t-213 -128.5t-159 -104q-69 -47 -124 -76t-73 -49q133 -76 345 -219.5t288 -184.5q18 -12 65.5 -46t82.5 -56.5t56 -33.5t31 -11z" glyph-name="Igrave" horiz-adv-x="2439" unicode=""/><glyph d="M2343 742q0 -8 -20.5 -24t-53.5 -35t-42 -27t-77.5 -47.5t-83.5 -57.5q-62 -40 -274 -184q-66 -39 -142.5 -93.5t-89 -62.5t-20.5 -11t-14 -7.5t-45 -30.5t-124 -90t-124 -64t-68 21q-143 96 -241 155q-53 45 -210.5 144.5t-207.5 135.5t-78.5 52t-151.5 98 q-29 14 -101.5 61.5t-72.5 63.5q125 102 173.5 128.5t90.5 56.5t97 66t123 75t96 56t155.5 102t245 152t131.5 67q13 0 34.5 -12.5t91.5 -47.5t236.5 -142.5t174.5 -113.5q49 -40 107 -67q16 -12 119.5 -66.5t144.5 -95.5q31 -16 87 -56t87 -57q26 -26 36.5 -30t10.5 -12z " glyph-name="Iacute" horiz-adv-x="2447" unicode=""/><glyph d="M2345 742q0 -4 -5 -9.5t-7 -7.5t-110.5 -66.5t-154.5 -109.5q-213 -141 -274 -184q-59 -37 -135 -90.5t-92 -63.5t-24.5 -13t-15.5 -7.5t-45 -32.5t-75 -54t-55.5 -40.5t-28.5 -20.5t-34.5 -21.5t-53.5 -15.5t-78 27t-69 43t-73.5 48.5t-56.5 39.5q-13 0 -72.5 43 t-91.5 67t-142 94t-152 100t-69.5 45t-151.5 99q-174 104 -175 125q0 4 5.5 8.5t12.5 11.5t21 18t57.5 39t55.5 37t41 24t69 45q93 68 330 206q244 163 301 195q57 33 128.5 76t87.5 43t22 -4t146 -81.5t209 -124.5q69 -48 154.5 -101.5t105.5 -66.5t121 -64t153 -103 q31 -16 87 -56t87 -57q29 -28 38 -32t9 -8zM2140 740q0 9 -20.5 23.5t-54 33t-45.5 27.5t-68 42t-80 49t-103 63.5t-127 81.5t-178 106t-176 105.5t-68 33.5t-71 -34t-55 -38q-242 -127 -281 -166q-25 -12 -242 -154q-35 -35 -92 -63t-113.5 -64t-56.5 -46t107 -73.5 t135 -91.5q55 -39 88 -56q33 -16 150.5 -97.5t159.5 -105.5q86 -49 162 -110t105 -61t50 13q46 44 132.5 95.5t105.5 63.5t169 117t221 139q37 37 115 87t123 67q8 4 8 13zM2099 736q0 -8 -37 -28t-85 -53.5t-74 -48.5l-23 -14q-150 -84 -197 -131q-67 -53 -151 -101 t-92 -56q-8 -9 -58.5 -35.5t-66.5 -41.5q-49 -49 -73 -50t-108 46t-108 71t-51 41t-68 41t-53 32t-40 22.5t-46 32.5q-41 20 -109.5 70.5t-101.5 67.5t-120 71.5t-87 64.5t89 61.5t116 78.5q18 14 79.5 45.5t80.5 50.5q59 59 260 160q29 29 85 55t96 56t65 34 q138 -46 227 -131q119 -60 221.5 -126.5t175.5 -109.5q49 -37 133 -87.5t117 -75.5q4 -4 4 -12z" glyph-name="Icircumflex" horiz-adv-x="2447" unicode=""/><glyph d="M2138 734q0 -5 -2 -8t-5 -5t-8 -3.5t-49 -31.5t-130 -80q-50 -50 -106 -78t-124 -74t-88 -58t-130 -84t-172 -122.5t-92 -50.5q-29 0 -48 13q-55 41 -259 173t-360 236q0 8 -61 43q-190 102 -197 127q-3 14 63 51t76 44t29 20.5t64 45.5t102 63q166 93 195 120 q25 14 115.5 69.5t123.5 73.5t76 49t71 31t83 -45q203 -115 270 -157l41 -23q41 -20 63 -43q37 -20 140.5 -94t175.5 -105q10 -6 45 -25.5t62.5 -37t31.5 -23.5t4 -11zM2343 734q0 -7 -38 -36.5t-75 -48.5q-16 -12 -81.5 -51t-82.5 -55q-27 -16 -87 -56.5t-104 -70 t-81 -58.5q-100 -59 -272 -182q-136 -89 -168.5 -114t-79 -55.5t-101.5 9.5q-55 39 -121.5 76t-95.5 66l-16 12q-143 84 -269 173t-162 114.5t-41 30t-22.5 15.5t-23.5 15t-49 29t-77 45t-114 66.5t-80 74.5q0 6 37 33q19 19 105 72t138 91t152.5 93t159.5 98 q41 25 152.5 99.5t158.5 100.5t117 70t90 44q19 0 70 -31q154 -70 319.5 -187.5t234.5 -151.5t228.5 -141.5t231.5 -146.5q26 -26 36.5 -30.5t10.5 -11.5zM141 729q0 8 83.5 -49.5t97.5 -71.5q30 -28 77 -57.5t132 -87.5t174 -109q53 -53 124 -84q8 -4 11 -6 q78 -78 247 -162q23 -4 68 -38.5t71 -34.5t81 37l57 34q27 12 71 42.5t103 67t72 52.5l37 19q61 37 71 52t78 53t107 70t49 38t186 122q158 95 168 113q0 4 -34 32t-140.5 88t-145.5 94t-102 66.5t-92 57.5q-55 31 -190 113l-41 32q-47 32 -93 56t-123 72.5t-122 64.5 q-4 -2 -34 -15.5t-39 -19.5t-116.5 -62t-167.5 -116l-61 -33q-10 -7 -29 -25t-94.5 -59t-93.5 -55q-92 -43 -113 -64l-6 -4q-37 -34 -96 -66q-58 -32 -86.5 -51.5t-87 -57.5t-58.5 -48z" glyph-name="Idieresis" horiz-adv-x="2445" unicode=""/><glyph d="M2148 727q0 -10 -4 -14t-12 -7.5t-24 -15.5t-75 -48t-83 -52h-2h-2l-32 -30q-32 -29 -89 -54q-61 -34 -233 -152t-222 -143q-8 -6 -58 -47t-79 -41q-30 0 -55 14q-116 89 -186 128t-173 115t-198 126q-55 26 -82 54t-39 28l-115 71q-44 20 -65 38t-22 27t13.5 26.5 t26.5 17.5q55 29 145 88l2 2q29 14 80 51q31 16 96.5 62.5t98.5 62.5l2 2q55 35 98 62l2 2q8 4 28 18t106 60.5t108 60.5t34.5 23.5t35 25t49.5 15.5t73 -37q145 -98 285 -168l22 -14q22 -15 25 -16q4 -1 6 -2t8.5 -5t15.5 -10.5t55 -40.5t109.5 -67.5t139.5 -84.5l2 -2 l23 -12q58 -23 99.5 -53t51.5 -42t10 -22zM1226 1255q-9 0 -27.5 -11t-46.5 -28.5t-38 -22.5t-53 -36t-55 -31l-5 -4q-66 -33 -83 -45q-29 -8 -85.5 -48t-78.5 -50v-2q-16 -8 -39 -25.5t-57 -31.5t-99 -64l-2 -2q0 -2 -4 -6t-16 -20t-70 -35q-84 -45 -107 -68q26 -20 53 -33 q27 -14 97 -64t117 -74t116.5 -75t94.5 -65q23 -8 69.5 -42t75.5 -44v-2q14 -6 34 -23t45 -28q26 -12 75 -52q49 -49 82 -49t88 47v2q16 12 64.5 38t64.5 43t36 28l179 104q57 32 125 88q80 46 100 66l64 34q64 35 147 103q-10 8 -46 27.5t-61 40.5q-8 0 -72.5 50t-140.5 85 q-11 0 -38 20.5t-37 26.5v2q-107 50 -252 147q17 0 -33 21q-104 57 -120 73q-15 15 -22.5 20t-18.5 10t-20 5zM2343 727q0 -6 -20.5 -22.5t-53.5 -36t-42 -26.5t-77.5 -47t-83.5 -58q-119 -77 -274 -185q-66 -39 -142.5 -93t-89 -62.5t-20.5 -11.5t-46 -28t-130 -94 t-131 -69t-68 20q-143 96 -241 156q-53 45 -210.5 144.5t-207.5 135.5t-78.5 52t-151.5 98q-29 14 -101.5 61.5t-72.5 63.5q125 102 173.5 128.5t90.5 56.5t97 66t123 75t96 56t149 98t171 109t123 70.5t87 42.5q15 0 36.5 -12t110.5 -56t245 -149q155 -104 182.5 -123.5 t71.5 -42.5q16 -12 119.5 -66t144.5 -95q31 -16 87 -56.5t87 -56.5q27 -29 37 -31q10 -6 10 -12zM2304 724q0 5 -35 34t-141.5 88t-153.5 102q-18 14 -82.5 50t-93.5 58t-91 54.5t-105 65.5l-66 47q-41 27 -86 50t-114.5 64t-112.5 62q-4 -2 -34 -15.5t-39 -19.5t-118.5 -64 t-165.5 -114q-67 -33 -78 -43q-20 -23 -72 -48.5t-68.5 -38t-65.5 -38.5t-265 -170q-16 -8 -96 -60.5t-80 -64.5l33 -23q91 -69 113 -81q22 -11 71 -43.5t68 -43.5q27 -27 61 -40l226 -150q53 -53 114 -76q6 -2 16.5 -11t22.5 -16t75 -54.5t146 -88.5q25 -4 69 -38.5 t68 -34.5q24 -1 62 21t72.5 42t70 45t45.5 32t63.5 48t75.5 50q23 9 63 36t45 34t77 47t88 56t39.5 35t136.5 88q18 18 64 47t86.5 54.5t66 43t25.5 22.5z" glyph-name="Eth" horiz-adv-x="2447" unicode=""/><glyph d="M2343 735q0 -14 -47 -43q-166 -125 -250 -164q-98 -66 -408 -272q-122 -92 -147 -100l-39 -27q-63 -43 -82 -57q-98 -72 -135 -74t-79 26t-113.5 71.5t-118.5 80.5l-281 189q-27 17 -74 49t-78.5 53.5t-41 26t-17.5 8.5t-83 54t-161 103t-86 72q0 5 14.5 16t22.5 19 q73 37 126.5 75t104 72.5t74.5 51.5q61 33 142.5 87t107.5 66q41 25 152.5 99.5t158.5 102.5t117 71t87 43q18 0 40.5 -13.5t106.5 -55.5t265 -163t200 -133q238 -119 301 -182q29 -12 106.5 -72t95.5 -67t19 -13zM2304 729q0 4 -27 25q-45 41 -150.5 100t-142.5 91 t-115.5 73t-121.5 72q-23 10 -59.5 36.5t-53.5 34.5l-24 6q18 -6 6 4q-20 25 -176 113q-39 18 -111 59t-106 60q-4 -2 -33 -14.5t-38 -19.5t-117 -62.5t-169 -116.5l-47 -21q-19 -12 -29 -21t-122.5 -67.5t-194.5 -126.5q0 -17 -156 -102q-32 -20 -104 -64t-72 -61 q0 2 72.5 -49.5t83.5 -57.5q12 -6 50 -34t79 -49q-7 0 20 -17.5t41 -23.5q-10 0 27 -27q36 -27 74 -48t48.5 -28.5t27 -17t114.5 -73.5t164.5 -113t115.5 -72t96.5 -56.5t74.5 -33.5t66.5 23.5t76 52t56.5 38.5q20 9 36 21t77 55t78 51t57 35t43 31t75 44t98 66t21 23 l151 96q35 35 61 46q25 11 94 59t74 50.5t8 4.5t3 6z" glyph-name="Ntilde" horiz-adv-x="2445" unicode=""/><glyph d="M1520 530q0 -8 2 -12q0 -96 -144 -282q-75 -92 -127.5 -124t-78.5 -52t-99.5 -50t-111.5 -30l-162 -9l-11 -2q-14 4 -74 8.5t-82 15.5t-119.5 50t-180.5 115q-88 88 -147.5 188t-59.5 160v8l-14 84q0 12 -4.5 47t-2.5 55q0 104 48 236q2 2 39 97.5t106 150.5 q176 176 422 205q63 14 119 14t131 -17q155 -35 241 -97t157 -135t128 -236q0 -2 18.5 -55.5t18.5 -65.5v-45l8 -52q0 -104 -10 -134q-10 -28 -10 -36zM816 1374q-40 0 -87 -3t-77.5 -11t-45 -12.5t-33 -15.5t-20.5 -11q-195 -90 -266 -193q-29 -29 -60.5 -76.5t-38.5 -82.5 q-32 -99 -41.5 -159t-13.5 -84t-4 -42l4 -35v-12q0 -94 40 -199.5t87 -152.5q14 -29 56 -72t126 -110.5t158 -67.5q39 -2 74 -23l92 -14q186 0 227 22q6 6 36 12q30 7 43 14t15 7l3 -2q8 0 33.5 18.5t31.5 18.5h2q12 0 30.5 18.5t29.5 18.5l20 14q20 16 24.5 20.5t24 20 t26.5 22.5t22.5 21.5t25.5 27.5t54 85t70.5 157t26.5 222l-8 76q0 10 1 22t-26.5 75.5t-27.5 72.5l-53 106q-12 3 -35 39.5t-47 60.5t-78 66l-18 16q-89 66 -257 112q-11 3 -53 4.5t-48 5.5q-5 3 -45 3z" glyph-name="Ograve" unicode=""/><glyph d="M1520 555q0 -6 2 -10q0 -55 -50.5 -141.5t-88.5 -132.5t-67.5 -75.5t-42.5 -40t-48 -33t-41 -26.5q-51 -35 -213 -88q-37 -14 -56 -14l-116 2l-11 2q-69 0 -132.5 17.5t-65.5 17.5q-164 63 -258 151q-20 29 -52 60.5t-44 57.5t-55.5 94.5t-55.5 135.5v9l-14 86l-7 100 q0 121 48 236q2 4 15 39.5t31 75t72 106.5q78 78 107 97t59.5 36.5t88.5 47.5q57 29 126.5 37.5t98.5 18.5q28 11 116 11t182 -40t230 -124q106 -106 131 -148q78 -102 119 -272q4 -25 4 -39v-31l8 -51q0 -102 -10 -134t-10 -38zM885.5 1393q-17.5 0 -25.5 5t-20 5 q-6 -5 -122 -17t-257 -88q-6 -6 -28.5 -17t-33.5 -21q-88 -70 -112 -105q-18 0 -58 -74t-49 -115.5t-18 -58.5q-33 -53 -33 -194l4 -37v-12q0 -100 42 -205t85 -148q33 -70 168 -170q70 -47 105 -54t69.5 -22.5t46.5 -15.5l78 -18l4 1l35 -7q178 0 227 22q18 18 48 19.5 t38 9.5q53 23 65 32t13 8q2 -1 6 -1q11 0 17 5l61 48q137 119 203.5 252t66.5 323l-8 76q0 8 2 15q0 47 -51 143q-23 20 -51 106q0 56 -150 164.5t-212 121.5t-100 18.5t-55.5 5.5zM906 1354q20 0 51.5 -10.5t70.5 -29t64 -26.5q78 -29 194 -145q4 -6 46 -60.5t78 -108 t36 -122.5q20 -74 20 -152q0 -248 -176 -424q-10 -16 -75.5 -72.5t-90.5 -64.5q-119 -57 -272 -67h-4l-14 -2q-100 0 -168 16q-172 43 -236 107q-50 39 -108 109t-96 141t-38 114q0 8 -3 12t-9 13t-6 73t4 97v2q2 4 2 40t36 142t93 164q55 88 150 143l2 2q31 14 176 84 q6 0 59 14.5t148 14.5l41 -6q5 2 25 2zM1411 690v21q0 53 -8 71q0 58 -30 137.5t-60 110.5q-94 117 -226 197q-65 45 -142 54t-89 13h-2l-61 -6l-33 2q-78 0 -212 -55t-183 -145l-3 -3q-47 -94 -83 -131v-2q-51 -111 -52 -245q0 -49 6 -70q0 -59 27.5 -135.5t79.5 -128.5 q76 -109 190 -178l29 -15q76 -39 159 -46t101 -11q141 0 260 57q14 6 36 22.5t32 22.5q111 68 145 140q119 119 119 323z" glyph-name="Oacute" unicode=""/><glyph d="M1520 544q0 -7 2 -12q0 -55 -50.5 -140t-88.5 -133t-67.5 -77.5t-44 -40t-46 -30t-41.5 -27.5q-59 -41 -213 -88q-66 -23 -172 -12q-113 0 -161 17t-77 30.5t-31 13.5q-100 35 -198 127q-14 23 -49 57.5t-47 61.5q-37 37 -74 109.5t-37 119.5v8l-3 21l-18 166 q0 109 48 235q2 4 37.5 97t107.5 151q176 176 422 205q68 14 125 14l24 2q19 -19 58 -14h12q139 0 285 -107l61 -56q62 -56 83.5 -77.5t41.5 -56.5q78 -106 119 -272q4 -29 4 -39v-31l8 -51q0 -104 -10 -134t-10 -37zM840 1389q-104 0 -127 -15q-78 0 -120 -20.5t-84 -44 t-56 -29.5q-133 -90 -166 -137q-27 -27 -58.5 -76t-48.5 -101t-34 -152t-17 -116l4 -34v-13q0 -66 19.5 -133t40 -105t47 -79t31.5 -53t33 -41t61.5 -57.5t37.5 -32.5q74 -76 197 -101q39 -2 74 -22l53 -9h4l35 -6q188 0 227 23q4 4 56 18q41 0 104 49q2 2 4 1t8 -1 t23.5 18.5t28.5 18.5l20 17q20 14 24.5 18t24 19.5t26.5 22.5t22.5 21.5t25.5 27.5t54 87t70.5 158t26.5 221l-8 76q0 8 1 20t-26.5 77t-27.5 73l-53 104q-12 3 -35 39.5t-34 48.5t-28.5 26.5t-35 30.5t-39.5 31l-6 7q-104 78 -197 96q-12 2 -54 8t-72 11t-37 7t-13 3h-6z M885 1343q61 0 143 -32.5t143 -77.5q297 -221 297 -545q0 -158 -59 -264q-70 -139 -186 -238q-47 -39 -97 -63q-150 -68 -333 -68q-254 0 -428 176q-113 143 -155 231t-42 222t63.5 284t186.5 240q63 53 176 96.5t244 43.5l43 -7q2 2 4 2z" glyph-name="Ocircumflex" unicode=""/><glyph d="M197 721q0 156 57 268q14 27 44 69t40 60q51 86 180 149.5t242 63.5h24l43 4q156 4 273 -69q2 -2 33.5 -21.5t97.5 -64.5t110 -133q68 -101 91 -259l8 -94q-2 -170 -125 -332q-44 -59 -163 -156t-308 -97q-115 0 -238 36q-106 23 -190 105q-219 219 -219 471zM1538 739 l-20 -157q0 -22 1 -26q1 -5 -1 -7q-27 -104 -78 -185t-104.5 -130.5t-153.5 -122.5q-133 -100 -357 -101q-125 0 -209 29q-92 18 -217 100q-16 10 -42.5 37t-41.5 37q-14 6 -49 49t-49 74q-20 25 -57 93.5t-37 117.5v6q0 11 -10 39t-11 123l2 76q0 96 59.5 231t145.5 221 l33 27q33 29 48.5 39t59.5 38.5t152.5 62.5t263.5 34q25 -5 44.5 -7.5t120 -27t179.5 -82.5q35 -16 131.5 -112.5t116.5 -163.5q0 -2 36 -68.5t36 -161.5v-30zM893 1368h-10l-45 4q-20 0 -93 -14.5t-93 -14.5t-27 -3q-8 -3 -50 -17t-61 -25q-166 -98 -257 -247.5t-91 -339.5 q0 -92 29 -187q74 -203 233.5 -322.5t355.5 -119.5h27l23 -2q102 2 269.5 57t303.5 314q32 65 59 215q0 354 -206 520q-4 2 -32 25.5t-111.5 90t-223.5 66.5z" glyph-name="Otilde" horiz-adv-x="1640" unicode=""/><glyph d="M1520 551q0 -93 -140 -271t-352 -241q-111 -31 -172 -31h-8h-62q-62 0 -127 16.5t-71 20.5q-154 47 -246 139t-109 131q-39 39 -74.5 113t-35.5 117v6l-21 162q0 129 48 262q4 8 42.5 102.5t102.5 145.5q178 178 422 204l153 15q35 -10 36 -10h7q7 0 20 -2.5t34 -6.5 q184 -20 309 -145q18 0 80.5 -81t75.5 -96t29 -43t26 -59.5t17 -55t13.5 -51.5t9.5 -37t3 -36v-28l8 -54q0 -105 -10 -133t-10 -47l2 -2v-4zM131 676q0 -102 42 -205.5t85 -146.5q13 -30 49.5 -66.5t50 -47.5t22.5 -20.5t21 -17.5q129 -98 197 -98q36 -2 58 -16t89 -15 q6 -6 106.5 -6t139.5 22q55 4 90 31h4q8 0 37 18.5t39 18.5t28.5 18.5t24.5 18.5q86 43 193 207q104 166 102 383l-8 75q0 10 1 33t-51 127t-71 129q-53 82 -110 123q-12 8 -54 40t-83.5 59t-112.5 44l-182 29q-66 0 -145 -14t-110.5 -27.5t-80.5 -41t-72 -38.5 q-31 -10 -82 -57t-67 -72q-27 -27 -57 -75t-44 -94t-23.5 -84t-14.5 -77.5t-10 -67.5t-5 -42l4 -35v-12zM784 80q-207 0 -364.5 130t-224.5 312q-29 94 -29 187q0 190 91 339.5t257 247.5q16 10 51 20.5t56 22.5q45 0 118.5 15.5t98.5 15.5l45 -4h10q182 0 360 -174l33 -37 q66 -68 96.5 -113t57 -141t26.5 -237q-12 -72 -37.5 -185.5t-152.5 -212t-141 -110.5q-14 -33 -197 -66q-70 -12 -104 -12l-23 2h-27zM760 1329q-111 0 -239 -61.5t-183 -149.5q-10 -23 -44 -72t-40 -59q-25 -25 -41 -111.5t-16 -156.5q0 -139 56 -252t175 -229 q172 -129 404 -129t425 184q80 78 131.5 186.5t51.5 212.5q0 209 -88 334q-150 213 -365 289q-53 18 -160 18l-43 -4h-24z" glyph-name="Odieresis" horiz-adv-x="1640" unicode=""/><glyph d="M1538 764l-20 -158q0 -20 1 -25t-1 -8q-35 -135 -193 -333q-22 -22 -75.5 -58t-75.5 -54t-97.5 -51.5t-118.5 -33.5l-133 -8q-129 0 -209 28q-158 31 -286 160q-63 63 -85 97t-72 105t-50 146v7q0 12 -10 40t-11 121l2 86q23 115 91 285l104 145q16 47 147.5 109.5 t217.5 83t150 20.5t75 -8q74 0 166.5 -31t130.5 -59t84.5 -67t110 -109t77.5 -119q0 -2 36 -68.5t36 -160.5v-31z" glyph-name="multiply" horiz-adv-x="1640" unicode=""/><glyph d="M1505 965q33 -111 33 -213t-9 -130t-9 -43.5t-4 -21.5q-39 -135 -189 -321q-100 -100 -285 -170q-84 -33 -264 -33q-70 0 -190 33q-127 45 -223.5 122.5t-143.5 150.5t-81 168t-34 152l-4 109q0 49 25 153.5t41 137.5q74 145 125 188q117 117 268.5 168t278.5 51l71 -12 q115 0 217.5 -49t166 -114.5t125 -159.5t85.5 -166zM1497 730q0 54 -2 73.5t-4 34t-5 27t-3 18.5l-31 84q-31 84 -39 94t-17 31t-14 26q-10 3 -42 51t-95 99l-18 16q-80 61 -144 84q-119 55 -227 55t-139 -14q-93 -11 -135.5 -32t-81 -41.5t-58.5 -28.5t-44.5 -27.5t-42 -37 t-40 -41t-24.5 -25.5q-84 -84 -102.5 -165t-18.5 -83q-29 -43 -29 -193q0 -229 121 -370q0 -2 49 -66t78 -74q115 -88 147 -92t62.5 -15.5t50 -19.5t28.5 -13t71 -5l73 -8q123 0 162 22q16 16 48 19.5t36 7.5t38 22.5t43 17.5t28 15l20 19q47 14 102.5 76.5t89.5 120.5 t52 93t37.5 113t19.5 132z" glyph-name="Oslash" horiz-adv-x="1640" unicode=""/><glyph d="M657 1343h5q14 0 61 13.5t63 21.5t105 34t252 26l33 -4h6h45q18 -2 55 1t51 3l97 -6q127 0 323 -50q45 -23 91 -31t122 -44q8 -8 80.5 -33t169.5 -133q2 -2 23.5 -16.5t27.5 -39.5l2 2q27 -21 64 -81t43 -82q39 -166 41 -189q0 -100 -35 -192q-25 -106 -146 -228 q-8 -2 -67 -52.5t-105 -80.5q-20 -18 -74.5 -35.5t-76.5 -33.5l-39 -13q-274 -96 -498 -96q-92 0 -110 2h-64l-26 2l-33 -4q-193 0 -420 76l-61 18h-5q-10 2 -61.5 26t-69.5 28t-59 22t-122.5 74.5t-135.5 140.5q-19 38 -43 74q-45 59 -64 235v47q5 110 53 199.5t54 108.5 q67 92 161.5 154.5t145.5 80.5l82 41q37 14 59 14zM732 1251q-24 0 -45 -8t-48 -21.5t-45 -18.5t-77 -35t-69 -44t-30 -26t-31 -27q-48 -67 -72 -80q-4 -2 -24.5 -41t-41 -102.5t-20.5 -114.5h-4l1 -3l-1 -21h4q0 -31 4 -45q29 -119 78 -203q16 -37 51 -66q6 -10 40 -36.5 t36 -28.5q29 -39 160 -94q19 -16 66.5 -31t75.5 -15t70 -19q137 -62 345 -62l31 4l22 -2h23l133 -2q12 0 33 4q2 -4 56.5 -2t80.5 13t92 15.5t96 20.5t75.5 24.5t90.5 36.5l39 12q100 36 182 129q27 10 66 68q113 166 113 279q-6 127 -56 223q-23 43 -35 57.5t-60 63.5 t-95.5 81t-65.5 46t-67 29.5t-59 23.5t-44.5 17t-67.5 23q-34 13 -163 36q-76 0 -152 20l-16 -2q-6 0 -43 6l-133 -4l-17 2l-28 -2l-31 4q-98 -10 -262 -35q-8 -2 -72.5 -24.5t-88.5 -22.5zM270 709h2v24h-2q0 127 146 307q102 94 133 95q2 0 86 41t123 41q10 2 75 25.5 t121 23.5q14 14 80 14h10l106 6q106 6 206 6q200 0 456 -86q72 -20 166.5 -75.5t149.5 -129.5q27 -27 66.5 -97t39.5 -120v-4l2 -2v-1l5 -56l-5 -55l-2 -7v-4q0 -27 -24.5 -85t-41.5 -82t-45 -58.5t-86.5 -82.5t-109.5 -65t-78 -29.5t-159 -55.5q-88 -18 -219.5 -34 t-157.5 -16t-35 3q-121 0 -162 4l-170 22q-34 2 -106 23.5t-98 28.5t-62.5 19.5t-81 27t-117.5 75.5q-2 2 -20.5 13.5t-33.5 24.5t-46.5 40.5t-71 104.5t-39.5 176z" glyph-name="quoteleft" horiz-adv-x="2521" unicode=""/><glyph d="M657 1343h5q14 0 61 13.5t63 21.5t105 34t252 26l33 -4h6h45q18 -2 55 1t51 3l97 -6q127 0 323 -50q45 -23 91 -31t122 -44q8 -8 80.5 -33t169.5 -133q2 -2 23.5 -16.5t27.5 -39.5l2 2q27 -21 64 -81t43 -82q39 -166 41 -189q0 -100 -35 -192q-25 -106 -146 -228 q-8 -2 -67 -52.5t-105 -80.5q-20 -18 -74.5 -35.5t-76.5 -33.5l-39 -13q-274 -96 -498 -96q-92 0 -110 2h-64l-26 2l-33 -4q-193 0 -420 76l-61 18h-5q-10 2 -61.5 26t-69.5 28t-59 22t-122.5 74.5t-135.5 140.5q-19 38 -43 74q-45 59 -64 235v47q5 110 53 199.5t54 108.5 q67 92 161.5 154.5t145.5 80.5l82 41q37 14 59 14zM732 1251q-24 0 -45 -8t-48 -21.5t-45 -18.5t-77 -35t-69 -44t-30 -26t-31 -27q-48 -67 -72 -80q-4 -2 -24.5 -41t-41 -102.5t-20.5 -114.5h-4l1 -3l-1 -21h4q0 -31 4 -45q29 -119 78 -203q16 -37 51 -66q6 -10 40 -36.5 t36 -28.5q29 -39 160 -94q19 -16 66.5 -31t75.5 -15t70 -19q137 -62 345 -62l31 4l22 -2h23l133 -2q12 0 33 4q2 -4 56.5 -2t80.5 13t92 15.5t96 20.5t75.5 24.5t90.5 36.5l39 12q100 36 182 129q27 10 66 68q113 166 113 279q-6 127 -56 223q-23 43 -35 57.5t-60 63.5 t-95.5 81t-65.5 46t-67 29.5t-59 23.5t-44.5 17t-67.5 23q-34 13 -163 36q-76 0 -152 20l-16 -2q-6 0 -43 6l-133 -4l-17 2l-28 -2l-31 4q-98 -10 -262 -35q-8 -2 -72.5 -24.5t-88.5 -22.5zM270 709h2v24h-2q0 127 146 307q102 94 133 95q2 0 86 41t123 41q10 2 75 25.5 t121 23.5q14 14 80 14h10l106 6q106 6 206 6q200 0 456 -86q72 -20 166.5 -75.5t149.5 -129.5q27 -27 66.5 -97t39.5 -120v-4l2 -2v-1l5 -56l-5 -55l-2 -7v-4q0 -27 -24.5 -85t-41.5 -82t-45 -58.5t-86.5 -82.5t-109.5 -65t-78 -29.5t-159 -55.5q-88 -18 -219.5 -34 t-157.5 -16t-35 3q-121 0 -162 4l-170 22q-34 2 -106 23.5t-98 28.5t-62.5 19.5t-81 27t-117.5 75.5q-2 2 -20.5 13.5t-33.5 24.5t-46.5 40.5t-71 104.5t-39.5 176z" glyph-name="quoteright" horiz-adv-x="2521" unicode=""/><glyph d="M1520 573.5q0 -16.5 -4 -24.5q-115 -379 -533 -510q-152 -6 -160 -14q-84 0 -235 34q-127 43 -178.5 80t-76.5 54.5t-67 74.5t-69 111q-74 106 -74 180v6q0 20 -10.5 74.5t-10.5 83.5l2 70v10q0 123 76 274l39 80q49 82 88 103q199 160 400 184q115 14 143 14l61 -10 q23 0 63 -3t138 -42t170 -111q2 -2 44 -43.5t81 -87t51 -90.5q2 -6 40 -87.5t38 -203.5l2 -18q0 -129 -16 -168q-2 -4 -2 -20.5z" glyph-name="quotedblleft" unicode=""/><glyph d="M1520 573.5q0 -16.5 -4 -24.5q-115 -379 -533 -510q-152 -6 -160 -14q-84 0 -235 34q-127 43 -178.5 80t-76.5 54.5t-67 74.5t-69 111q-74 106 -74 180v6q0 20 -10.5 74.5t-10.5 83.5l2 70v10q0 123 76 274l39 80q49 82 88 103q199 160 400 184q115 14 143 14l61 -10 q23 0 63 -3t138 -42t170 -111q2 -2 44 -43.5t81 -87t51 -90.5q2 -6 40 -87.5t38 -203.5l2 -18q0 -129 -16 -168q-2 -4 -2 -20.5z" glyph-name="quotedblright" unicode=""/></font>
</defs>
</svg>
