<svg xmlns="http://www.w3.org/2000/svg">
<defs>
<font horiz-adv-x="1114" id="ywftsvg"><font-face ascent="1638" bbox="-174.038 -535 3166 1950" cap-height="1432" descent="-410" font-family="" font-stretch="normal" font-weight="400" panose-1="2 0 5 4 0 0 0 2 0 0" underline-position="0" underline-thickness="0" unicode-range="U+0020-FB05" units-per-em="2048" x-height="1428"/><missing-glyph d="M1065 1378q0 -14 -2 -22t-2 -142l4 -174q0 -47 8 -133l6 -53q4 -176 4 -266l-6 -252l4 -154l-4 -102q0 -29 -18 -60t-150 -30l-204 -2l-226 10l-110 -2l-160 4l-80 -2h-55q-45 4 -51 47q-10 78 -15 184l-8 148l4 121l-4 170l6 213l-2 63l8 178q0 244 2 262q4 45 43 54 q23 6 131 6h28l84 -1l232 -3l28 2l206 6l104 -6l64 6l96 2q14 0 24.5 -29t10.5 -43zM985 1358q0 33 -35 33l-65 -7l-121 -4l-39 4l-186 -4l-39 4l-43 -2l-135 11l-179 -9h-10q-35 0 -40 -5t-5 -27v-31l4 -98l-2 -17l-2 -125l4 -186l-4 -113q-2 -141 -2 -426v-16l-2 -107 l2 -22l-2 -31l2 -92q12 -25 31 -25h108q57 6 117 7l260 4l205 -8l49 2l41 2l47 -2q43 0 60 6q6 18 6 61l-9 92l-6 148l2 125l-4 264l-6 266l2 92l-8 82l2 51q2 16 2 103zM963 141q0 -8 -2 -8l-21 21l-20 16q-80 98 -94 118t-52 80t-58 98t-27 49t-28 42t-41 71t-40 65 q-20 26 -19 40q0 33 172 291q10 16 34.5 43t58.5 79t122 169q4 -33 4 -49v-105l4 -153l7 -111l-5 -102l5 -172l-5 -220l5 -235v-27zM502 730q0 -15 -13 -36q-70 -100 -217 -348q-129 -202 -141 -196q-6 0 -6 40v117l2 39l-6 45l-2 105l6 147l-2 90l6 246q0 55 -2 82l-4 45 l-4 151l6 68q4 -6 15.5 -15.5t19.5 -21.5t28.5 -52t64.5 -102t82 -129t81 -126q8 -16 73 -113q13 -21 13 -36zM860 1350l37 -4h18l-20 -37q-10 -23 -38 -57.5t-69 -96.5q-40 -61 -74 -103t-65 -88t-65.5 -103.5t-55.5 -88.5q-124 180 -155 242q-147 229 -152 237l-33 49 l-22 46l117 8l84 -4l102 -7l131 5h14l95 2h151zM911 113l-159 -11l-138 11l-198 -11l-43 9l-19 -3l-133 -2l-7 1l-40 -1q-6 0 -10 3q17 40 64.5 102.5t52.5 73.5q20 49 45 77q8 12 21 37t22 35l63 98q10 14 37 63t68 97l43 -65q27 -43 74.5 -128t73.5 -127t73 -106t58 -80 t18 -24q7 -18 34 -49zM328 180l209 -10q190 0 227 2l2 6q-14 25 -41 61.5t-39 56.5t-63.5 109t-83.5 134q-43 -55 -128 -189.5t-83 -163.5v-6zM766 1257h-12l-209
<glyph d="M997 823q0 -64 -12 -88t-98 -24l-297 -6l-98 2q-70 0 -74 -21q-10 -43 -10 -106l4 -43l-9 -60l9 -71l-2 -62q0 -111 -7 -143q-4 -45 -4 -61v-95q-2 -31 -12 -42t-43 -11h-37q-135 0 -135 37l4 39l-4 141l4 246v43l2 67l-10 99l2 282l6 84l-2 17l-2 120l-6 50l-2 147 q0 38 19 46.5t63 8.5q29 4 49 4l285 13l288 -9q92 0 134 -2t47 -49q4 -46 4 -84t-6.5 -48.5t-21.5 -14.5t-25.5 -5t-33 0t-28.5 1h-176q-147 6 -150 6l-73 -6q-43 0 -129 -4q-10 -139 -11 -166q0 -129 21 -133q12 -2 39 -2q80 8 172 8l71 4q197 0 267 -8q18 -2 23 -20t5 -81 zM961 1317q0 27 -46 26l-59 -2l-29 5l-63 -3l-102 5q-74 2 -222 2l-37 -4q-12 0 -35.5 -1.5t-42 -2.5t-34.5 -3q-18 -4 -19 -47l2 -104l-6 -170l4 -53l-4 -154l4 -68l-4 -77l2 -117l-4 -17l6 -170v-112q4 -41 4 -62q0 -98 18.5 -98t18.5 47l-2 162l-4 53q-2 59 -2 178l4 74 l-2 94q0 94 2 95q49 -4 76 -5l88 7l170 -2l37 4h29l104 6l78 -2q18 0 18 12q0 29 -20 29l-94 -6h-66l-29 -1l-82 -2l-221 -2l-88 3v36q-2 38 -2 134t2 155l2 78l-2 61l162 9l59 4l199 -8l23 1l176 -4q33 1 33 17zM2222 1292q0 -38 -6 -48.5t-21.5 -14.5t-25.5 -5t-32.5 0 t-29.5 1h-176q-147 6 -149 6l-74 -6q-43 0 -129 -4q-10 -139 -10 -166q0 -129 20 -133q12 -2 39 -2l21 2q49 6 151 6l72 4q197 0 266 -8q18 -2 24 -20t5 -81q0 -64 -12.5 -88t-98.5 -24l-297 -6l-98 2q-70 0 -74 -21q-10 -43 -10 -106l4 -43l-8 -60l8 -71l-2 -62 q0 -112 -5 -150t-5 -59v-90q-2 -31 -13.5 -42t-42.5 -11h-36q-135 0 -136 37l5 39l-5 141l5 246v43l2 67l-11 99l2 282l7 84l-2 17l-3 120l-6 50l-2 147q0 36 18.5 45.5t63.5 9.5q29 4 49 4l71 3l503 1q92 0 134 -2t46 -49q4 -46 4 -84zM2130 1317q0 27 -45 26l-60 -2l-28 5 l-64 -3l-102 5q-74 2 -221 2l-37 -4q-12 0 -36 -1.5t-42 -2.5t-35 -3q-18 -4 -18 -47l2 -104l-6 -170l4 -53l-4 -154l4 -68l-4 -77l2 -117l-4 -17l6 -170v-112q4 -41 4 -62q0 -98 18.5 -98t18.5 47l-2 162l-4 53q-2 59 -2 178l4 74v94q-2 94 0 95q49 -4 75 -5l88 7l170 -2 l37 4h29l104 6l78 -2q18 0 19 12q0 29 -21 29l-94 -6h-66l-112 -5l-103 3l-116 -3l-88 3v36q-2 38 -2 134t2 155l2 78l-2 61l161 9l60 4l198 -8l22 1l177 -4q33 1 33 17z" glyph-name="uniFB00" horiz-adv-x="2338" unicode="ff"/><glyph d="M997 823q0 -64 -12 -88t-98 -24l-297 -6l-98 2q-70 0 -74 -21q-10 -43 -10 -106l4 -43l-9 -60l9 -71l-2 -62q0 -111 -7 -143q-4 -45 -4 -61v-95q-2 -31 -12 -42t-43 -11h-37q-135 0 -135 37l4 39l-4 141l4 246v43l2 67l-10 99l2 282l6 84l-2 17l-2 120l-6 50l-2 147 q0 38 19 46.5t63 8.5q29 4 49 4l285 13l288 -9q92 0 134 -2t47 -49q4 -46 4 -84t-6.5 -48.5t-21.5 -14.5t-25.5 -5t-33 0t-28.5 1h-176q-147 6 -150 6l-73 -6q-43 0 -129 -4q-10 -139 -11 -166q0 -129 21 -133q12 -2 39 -2q80 8 172 8l71 4q197 0 267 -8q18 -2 23 -20t5 -81 zM961 1317q0 27 -46 26l-59 -2l-29 5l-63 -3l-102 5q-74 2 -222 2l-37 -4q-12 0 -35.5 -1.5t-42 -2.5t-34.5 -3q-18 -4 -19 -47l2 -104l-6 -170l4 -53l-4 -154l4 -68l-4 -77l2 -117l-4 -17l6 -170v-112q4 -41 4 -62q0 -98 18.5 -98t18.5 47l-2 162l-4 53q-2 59 -2 178l4 74 l-2 94q0 94 2 95q49 -4 76 -5l88 7l170 -2l37 4h29l104 6l78 -2q18 0 18 12q0 29 -20 29l-94 -6h-66l-29 -1l-82 -2l-221 -2l-88 3v36q-2 38 -2 134t2 155l2 78l-2 61l162 9l59 4l199 -8l23 1l176 -4q33 1 33 17zM1532 -8q-96 0 -143 4q-41 2 -43 45v109l-3 124v72l-8 84 l-2 275l4 77l1 40l-5 265l2 60l2 113l-2 83l-2 41q0 31 30 38q30 8 87 8q58 0 76 -4q44 -11 44 -24l-3 -231l6 -153l-6 -133l-2 -64l12 -164l-2 -57l10 -86l-10 -47l12 -109l-2 -34l4 -140l-10 -143q0 -18 -13.5 -33.5t-33.5 -15.5zM1475 1253h2v42q0 42 -27 42 q-10 0 -10 -12l-2 -108l4 -134v-209l4 -151l-2 -47l2 -137l-2 -117l6 -191l-1 -67q-1 -66 19 -66q6 0 13.5 9.5t6.5 12.5t-1 48l2 47l-4 86q0 37 2 55l-8 162l4 174l-4 316l-4 120v125z" glyph-name="uniFB01" horiz-adv-x="1753" unicode="fi"/><glyph d="M997 823q0 -64 -12 -88t-98 -24l-297 -6l-98 2q-70 0 -74 -21q-10 -43 -10 -106l4 -43l-9 -60l9 -71l-2 -62q0 -111 -7 -143q-4 -45 -4 -61v-95q-2 -31 -12 -42t-43 -11h-37q-135 0 -135 37l4 39l-4 141l4 246v43l2 67l-10 99l2 282l6 84l-2 17l-2 120l-6 50l-2 147 q0 38 19 46.5t63 8.5q29 4 49 4l285 13l288 -9q92 0 134 -2t47 -49q4 -46 4 -84t-6.5 -48.5t-21.5 -14.5t-25.5 -5t-33 0t-28.5 1h-176q-147 6 -150 6l-73 -6q-43 0 -129 -4q-10 -139 -11 -166q0 -129 21 -133q12 -2 39 -2q80 8 172 8l71 4q197 0 267 -8q18 -2 23 -20t5 -81 zM961 1317q0 27 -46 26l-59 -2l-29 5l-63 -3l-102 5q-74 2 -222 2l-37 -4q-12 0 -35.5 -1.5t-42 -2.5t-34.5 -3q-18 -4 -19 -47l2 -104l-6 -170l4 -53l-4 -154l4 -68l-4 -77l2 -117l-4 -17l6 -170v-112q4 -41 4 -62q0 -98 18.5 -98t18.5 47l-2 162l-4 53q-2 59 -2 178l4 74 l-2 94q0 94 2 95q49 -4 76 -5l88 7l170 -2l37 4h29l104 6l78 -2q18 0 18 12q0 29 -20 29l-94 -6h-66l-29 -1l-82 -2l-221 -2l-88 3v36q-2 38 -2 134t2 155l2 78l-2 61l162 9l59 4l199 -8l23 1l176 -4q33 1 33 17zM1333 1372q0 49 78 49l105 4q38 0 43.5 -13t7.5 -17t1 -25.5 t-1 -26.5l2 -221v-344l-4 -67l6 -154h-2q4 -53 4 -82l-2 -69l8 -154q4 -25 10 -29t19 -4l293 8q96 0 96 -102t-12.5 -109.5t-18 -11.5t-10.5 -4l-45 -2l-62 -2l-71 2l-127 -2l-58 2l-166 -10q-57 0 -68 49t-11 100l4 115l-9 209l-1 145zM1905 109q0 16 -7 16l-188 -2l-76 2 l-112 -2q-23 0 -29 24q-6 29 -6 156l2 12l-6 127l-6 170l2 107l-4 63l4 205l-1 17l-1 120l-2 105h2v37q0 72 -25 71q-16 0 -16 -37l4 -145l-2 -55l4 -74l2 -440l-2 -82l6 -207l4 -121q0 -2 -2.5 -49t41.5 -47l104 6l209 2l64 -2q37 0 37 23z" glyph-name="uniFB02" horiz-adv-x="2119" unicode="fl"/><glyph d="M997 823q0 -64 -12 -88t-98 -24l-297 -6l-98 2q-70 0 -74 -21q-10 -43 -10 -106l4 -43l-9 -60l9 -71l-2 -62q0 -111 -7 -143q-4 -45 -4 -61v-95q-2 -31 -12 -42t-43 -11h-37q-135 0 -135 37l4 39l-4 141l4 246v43l2 67l-10 99l2 282l6 84l-2 17l-2 120l-6 50l-2 147 q0 38 19 46.5t63 8.5q29 4 49 4l285 13l288 -9q92 0 134 -2t47 -49q4 -46 4 -84t-6.5 -48.5t-21.5 -14.5t-25.5 -5t-33 0t-28.5 1h-176q-147 6 -150 6l-73 -6q-43 0 -129 -4q-10 -139 -11 -166q0 -129 21 -133q12 -2 39 -2q80 8 172 8l71 4q197 0 267 -8q18 -2 23 -20t5 -81 zM961 1317q0 27 -46 26l-59 -2l-29 5l-63 -3l-102 5q-74 2 -222 2l-37 -4q-12 0 -35.5 -1.5t-42 -2.5t-34.5 -3q-18 -4 -19 -47l2 -104l-6 -170l4 -53l-4 -154l4 -68l-4 -77l2 -117l-4 -17l6 -170v-112q4 -41 4 -62q0 -98 18.5 -98t18.5 47l-2 162l-4 53q-2 59 -2 178l4 74 l-2 94q0 94 2 95q49 -4 76 -5l88 7l170 -2l37 4h29l104 6l78 -2q18 0 18 12q0 29 -20 29l-94 -6h-66l-29 -1l-82 -2l-221 -2l-88 3v36q-2 38 -2 134t2 155l2 78l-2 61l162 9l59 4l199 -8l23 1l176 -4q33 1 33 17zM2222 1292q0 -38 -6 -48.5t-21.5 -14.5t-25.5 -5t-32.5 0 t-29.5 1h-176q-147 6 -149 6l-74 -6q-43 0 -129 -4q-10 -139 -10 -166q0 -129 20 -133q12 -2 39 -2l21 2q49 6 151 6l72 4q197 0 266 -8q18 -2 24 -20t5 -81q0 -64 -12.5 -88t-98.5 -24l-297 -6l-98 2q-70 0 -74 -21q-10 -43 -10 -106l4 -43l-8 -60l8 -71l-2 -62 q0 -112 -5 -150t-5 -59v-90q-2 -31 -13.5 -42t-42.5 -11h-36q-135 0 -136 37l5 39l-5 141l5 246v43l2 67l-11 99l2 282l7 84l-2 17l-3 120l-6 50l-2 147q0 36 18.5 45.5t63.5 9.5q29 4 49 4l71 3l503 1q92 0 134 -2t46 -49q4 -46 4 -84zM2130 1317q0 27 -45 26l-60 -2l-28 5 l-64 -3l-102 5q-74 2 -221 2l-37 -4q-12 0 -36 -1.5t-42 -2.5t-35 -3q-18 -4 -18 -47l2 -104l-6 -170l4 -53l-4 -154l4 -68l-4 -77l2 -117l-4 -17l6 -170v-112q4 -41 4 -62q0 -98 18.5 -98t18.5 47l-2 162l-4 53q-2 59 -2 178l4 74v94q-2 94 0 95q49 -4 75 -5l88 7l170 -2 l37 4h29l104 6l78 -2q18 0 19 12q0 29 -21 29l-94 -6h-66l-112 -5l-103 3l-116 -3l-88 3v36q-2 38 -2 134t2 155l2 78l-2 61l161 9l60 4l198 -8l22 1l177 -4q33 1 33 17zM2701 -8q-96 0 -143 4q-41 2 -43 45v109l-2 124v72l-8 84l-2 275l4 77l1 40l-5 265l2 60l2 113l-2 83 l-2 41q-1 31 29 38q30 8 88 8t76 -4q42 -10 42 -23l-2 -232l6 -153l-6 -133l-2 -64l12 -164l-2 -57l11 -86l-11 -47l13 -109l-2 -34l4 -140l-11 -143q0 -18 -14 -33.5t-33 -15.5zM2631.5 98q14.5 0 20.5 9.5t5 12.5t1 48v47l-4 86q0 37 2 55l-8 162l4 174l-4 316l-4 120v125 h2v42q0 42 -27 42q-10 0 -10 -12l-2 -108l4 -134v-209l4 -151l-2 -47l2 -137l-2 -117l6 -191l-1 -67q-1 -66 13.5 -66z" glyph-name="uniFB03" horiz-adv-x="2922" unicode="ffi"/><glyph d="M997 823q0 -64 -12 -88t-98 -24l-297 -6l-98 2q-70 0 -74 -21q-10 -43 -10 -106l4 -43l-9 -60l9 -71l-2 -62q0 -111 -7 -143q-4 -45 -4 -61v-95q-2 -31 -12 -42t-43 -11h-37q-135 0 -135 37l4 39l-4 141l4 246v43l2 67l-10 99l2 282l6 84l-2 17l-2 120l-6 50l-2 147 q0 38 19 46.5t63 8.5q29 4 49 4l285 13l288 -9q92 0 134 -2t47 -49q4 -46 4 -84t-6.5 -48.5t-21.5 -14.5t-25.5 -5t-33 0t-28.5 1h-176q-147 6 -150 6l-73 -6q-43 0 -129 -4q-10 -139 -11 -166q0 -129 21 -133q12 -2 39 -2q80 8 172 8l71 4q197 0 267 -8q18 -2 23 -20t5 -81 zM961 1317q0 27 -46 26l-59 -2l-29 5l-63 -3l-102 5q-74 2 -222 2l-37 -4q-12 0 -35.5 -1.5t-42 -2.5t-34.5 -3q-18 -4 -19 -47l2 -104l-6 -170l4 -53l-4 -154l4 -68l-4 -77l2 -117l-4 -17l6 -170v-112q4 -41 4 -62q0 -98 18.5 -98t18.5 47l-2 162l-4 53q-2 59 -2 178l4 74 l-2 94q0 94 2 95q49 -4 76 -5l88 7l170 -2l37 4h29l104 6l78 -2q18 0 18 12q0 29 -20 29l-94 -6h-66l-29 -1l-82 -2l-221 -2l-88 3v36q-2 38 -2 134t2 155l2 78l-2 61l162 9l59 4l199 -8l23 1l176 -4q33 1 33 17zM2222 1292q0 -38 -6 -48.5t-21.5 -14.5t-25.5 -5t-32.5 0 t-29.5 1h-176q-147 6 -149 6l-74 -6q-43 0 -129 -4q-10 -139 -10 -166q0 -129 20 -133q12 -2 39 -2l21 2q49 6 151 6l72 4q197 0 266 -8q18 -2 24 -20t5 -81q0 -64 -12.5 -88t-98.5 -24l-297 -6l-98 2q-70 0 -74 -21q-10 -43 -10 -106l4 -43l-8 -60l8 -71l-2 -62 q0 -112 -5 -150t-5 -59v-90q-2 -31 -13.5 -42t-42.5 -11h-36q-135 0 -136 37l5 39l-5 141l5 246v43l2 67l-11 99l2 282l7 84l-2 17l-3 120l-6 50l-2 147q0 36 18.5 45.5t63.5 9.5q29 4 49 4l71 3l503 1q92 0 134 -2t46 -49q4 -46 4 -84zM2130 1317q0 27 -45 26l-60 -2l-28 5 l-64 -3l-102 5q-74 2 -221 2l-37 -4q-12 0 -36 -1.5t-42 -2.5t-35 -3q-18 -4 -18 -47l2 -104l-6 -170l4 -53l-4 -154l4 -68l-4 -77l2 -117l-4 -17l6 -170v-112q4 -41 4 -62q0 -98 18.5 -98t18.5 47l-2 162l-4 53q-2 59 -2 178l4 74v94q-2 94 0 95q49 -4 75 -5l88 7l170 -2 l37 4h29l104 6l78 -2q18 0 19 12q0 29 -21 29l-94 -6h-66l-112 -5l-103 3l-116 -3l-88 3v36q-2 38 -2 134t2 155l2 78l-2 61l161 9l60 4l198 -8l22 1l177 -4q33 1 33 17zM3070 227q96 1 96 -101t-18 -114t-23 -12l-45 -2l-61 -2l-72 2l-127 -2l-57 2l-166 -10q-57 0 -68 45 q-12 53 -12 104l4 115l-8 209l-1 145l-5 588q-4 119 -4 160t15.5 54t61.5 13l72 2q73 2 77.5 -11t6.5 -17t1 -25.5t-1 -26.5l2 -221v-344l-4 -67l6 -154h-2q4 -53 4 -82l-2 -69l8 -154q3 -24 10 -28.5t19 -4.5zM3074 109q0 16 -27 16l-168 -2l-75 2l-113 -2q-23 0 -29 24 q-6 29 -6 156l2 12l-6 127l-6 170l2 107l-4 63l4 205l-2 17v120l-2 105h2v37q0 72 -25 71q-16 0 -16 -37l4 -145l-2 -55l4 -74l2 -440l-2 -82l6 -207l4 -121q0 -2 -2.5 -49t41.5 -47l105 6l209 2l63 -2q37 0 37 23z" glyph-name="uniFB04" horiz-adv-x="3289" unicode="ffl"/><glyph d="M1065 1378q0 -14 -2 -22t-2 -142l4 -174q0 -47 8 -133l6 -53q4 -176 4 -266l-6 -252l4 -154l-4 -102q0 -29 -18 -60t-150 -30l-204 -2l-226 10l-110 -2l-160 4l-80 -2h-55q-45 4 -51 47q-10 78 -15 184l-8 148l4 121l-4 170l6 213l-2 63l8 178q0 244 2 262q4 45 43 54 q23 6 131 6h28l84 -1l232 -3l28 2l206 6l104 -6l64 6l96 2q14 0 24.5 -29t10.5 -43zM985 1358q0 33 -35 33l-65 -7l-121 -4l-39 4l-186 -4l-39 4l-43 -2l-135 11l-179 -9h-10q-35 0 -40 -5t-5 -27v-31l4 -98l-2 -17l-2 -125l4 -186l-4 -113q-2 -141 -2 -426v-16l-2 -107 l2 -22l-2 -31l2 -92q12 -25 31 -25h108q57 6 117 7l260 4l205 -8l49 2l41 2l47 -2q43 0 60 6q6 18 6 61l-9 92l-6 148l2 125l-4 264l-6 266l2 92l-8 82l2 51q2 16 2 103zM963 141q0 -8 -2 -8l-21 21l-20 16q-80 98 -94 118t-52 80t-58 98t-27 49t-28 42t-41 71t-40 65 q-20 26 -19 40q0 33 172 291q10 16 34.5 43t58.5 79t122 169q4 -33 4 -49v-105l4 -153l7 -111l-5 -102l5 -172l-5 -220l5 -235v-27zM502 730q0 -15 -13 -36q-70 -100 -217 -348q-129 -202 -141 -196q-6 0 -6 40v117l2 39l-6 45l-2 105l6 147l-2 90l6 246q0 55 -2 82l-4 45 l-4 151l6 68q4 -6 15.5 -15.5t19.5 -21.5t28.5 -52t64.5 -102t82 -129t81 -126q8 -16 73 -113q13 -21 13 -36zM860 1350l37 -4h18l-20 -37q-10 -23 -38 -57.5t-69 -96.5q-40 -61 -74 -103t-65 -88t-65.5 -103.5t-55.5 -88.5q-124 180 -155 242q-147 229 -152 237l-33 49 l-22 46l117 8l84 -4l102 -7l131 5h14l95 2h151zM911 113l-159 -11l-138 11l-198 -11l-43 9l-19 -3l-133 -2l-7 1l-40 -1q-6 0 -10 3q17 40 64.5 102.5t52.5 73.5q20 49 45 77q8 12 21 37t22 35l63 98q10 14 37 63t68 97l43 -65q27 -43 74.5 -128t73.5 -127t73 -106t58 -80 t18 -24q7 -18 34 -49zM328 180l209 -10q190 0 227 2l2 6q-14 25 -41 61.5t-39 56.5t-63.5 109t-83.5 134q-43 -55 -128 -189.5t-83 -163.5v-6zM766 1257h-12l-209 -4l-156 11q-78 0 -88 -7q10 -16 52.5 -70t101.5 -164t77 -130q10 14 46 73.5t57 90.5q18 33 44 63t87 127v10 zM676 706q0 -16 8 -32q59 -94 109.5 -190.5t74.5 -127.5q6 3 6 31l7 123l-4 139l4 156l-7 217q0 12 -10 22q-25 -33 -106.5 -177.5t-81.5 -160.5zM418 728q0 18 -15 36q-15 19 -42.5 58.5t-48.5 73.5q-69 114 -93 134q-6 -29 -6 -88l-8 -543l4 -8q27 31 118 175t91 162z" glyph-name=".notdef" horiz-adv-x="1083"/><glyph glyph-name="glyph1" horiz-adv-x="0"/><glyph glyph-name="glyph2" horiz-adv-x="681"/><glyph glyph-name="space" horiz-adv-x="716" unicode=" "/><glyph d="M244 418q-31 0 -44.5 23.5t-19.5 72.5v2q0 8 6 30t7 83l-3 100l3 115l-3 45v35l-8 47l2 61v66q-2 68 0 67l9 117l-9 74q0 84 52 84h34l64 2q68 0 67 -43l-2 -66l4 -80l-4 -22l4 -121l-4 -43l11 -399l-2 -66l-2 -18l2 -109q0 -43 -50 -47l-75 -8q-8 -2 -39 -2zM164 129 q0 49 39 92t94 43t94 -42t39 -93q0 -14 -6 -33l-4 -26q-10 -31 -41 -57.5t-62 -26.5l-43 8q-30 0 -70 43t-40 92zM289 1368q-8 0 -8 -20l-2 -82l-1 -41l1 -385v-174l-3 -101q0 -55 27 -55l4 2h4q8 4 8 78l3 270l-7 86l-2 193l2 63q0 120 -1 136t-9 23t-16 7zM342 128 q0 13 -14.5 22.5t-28.5 9.5q-35 0 -35 -31q0 -16 15.5 -26.5t29.5 -10.5t23.5 11.5t9.5 24.5z" glyph-name="exclam" horiz-adv-x="595" unicode="!"/><glyph d="M408 1417q0 -184 -37 -360q-4 -23 -15.5 -34t-128.5 -11q-43 0 -53 47l-29 338q0 31 7.5 38t12.5 12t11 5h60l139 -6q24 -4 28.5 -10.5t4.5 -18.5zM776 1417q0 -184 -37 -360q-4 -23 -15 -34t-128 -11q-43 0 -53 47l-29 338q0 31 7 38t13 12t12 5h58l139 -6 q12 -2 22.5 -3.5t10.5 -25.5zM659 1352q0 2 1.5 6t-2 17.5t-15.5 13.5q-27 0 -27 -31l5 -94l2 -90q0 -78 20 -78q23 -1 23 34l-7 207v15zM291 1352q0 2 1.5 7t-2 17.5t-16.5 12.5q-27 0 -26 -31l4 -94l2 -90q0 -78 20 -78q23 -1 23 34l-6 207v15z" glyph-name="quotedbl" horiz-adv-x="919" unicode="&quot;"/><glyph d="M1321 558q0 -13 125 -13q104 -7 142 -13t38 -28q0 -51 -22 -105q-16 -37 -68 -37l-242 -10q-4 0 -13 1t-14 0t-15.5 -2.5t-15.5 -18.5q-70 -251 -108 -334q-70 -12 -116 -12t-68 4t-22 19t16 63t41 98q8 23 19.5 66.5t19.5 71.5t8 36t-112 8t-185 4l-84 4q-16 0 -22 -16 q-77 -198 -99 -266t-33 -80t-17 -12h-52q-51 0 -125 18q14 72 62.5 198t60.5 169q-225 10 -256 10q-62 0 -62 33q0 16 20 66t36 55q35 6 69 6l49 -4l183 4q16 0 26 18l27 68q72 229 88 276l-115 4l-79 -4q-29 0 -82 4q-20 2 -21 21v18q0 20 23 78q23 43 65 43h250 q18 0 23 14q10 29 32 92.5t31 88.5q10 26 23.5 76t29.5 81q8 21 41 21t115 -4q23 0 22 -17q0 -39 -46 -176t-52 -170q8 -2 23 -2l39 2l27 -1l186 -3l127 -2q12 0 14 2.5t13 36.5t46 135.5t47 140.5q18 59 76 60h84t51 -9l-50 -193q-50 -183 -45 -183l136 2q94 0 140 -2 q30 -4 30 -30t-18 -81q-18 -47 -70 -49l-143 -4l-41 2q-52 0 -72 -2t-30 -27t-59.5 -163t-49.5 -145zM1673 979q0 23 -39 22l-67 -2q-31 0 -92.5 -1t-92.5 -1q111 319 111 342q0 18 -27 19q-6 0 -15 -45t-108 -316l-167 -2l-107 4l-104 -6h-43l-50 -4l-102 6h-18 q18 72 28.5 96.5t14.5 44.5t24 78l35 109q0 6 -7 15.5t-16 9.5q-15 0 -122 -357l-185 -2q-98 0 -100 -2t-2 -8q0 -27 31 -27h159l80 2q-63 -242 -84 -301l-67 -186l-33 -2l-197 -2l-78 2q-25 0 -28 -2v-4q-2 -12 8 -20.5t23 -8.5l30 4l94 -6h162q-4 -14 -58 -159t-54 -162 t14 -17q2 0 16 6t17.5 19.5t13 48.5t45.5 131l53 137l74 6l82 -6l166 -4q41 0 124 1t124 1q-6 -29 -52.5 -167.5t-46.5 -150.5t4.5 -17t10.5 -3h4q11 0 56.5 146.5t66.5 195.5q61 -4 90 -4l166 -2q86 0 86 25q0 12 -126 12t-204 4q61 170 68 186l28 86l82 228q0 -2 113 -2 l112 2l48 -4q28 0 28 14zM1241 967l66 -2h18q-78 -242 -176 -502h-105l-258 6q-39 0 -59 -2l-70 4q-49 0 -73 -2l73 215l29 104q14 57 51 168q82 -2 250 2q29 4 45 5h84zM1085 897h-141l-70 1q-69 1 -73 -11q-20 -55 -107 -340l37 -2l57 6l185 -8l43 4l69 -4q20 0 23 16 q2 6 6 22.5t11 36.5t25.5 87t31.5 100l24 84q-37 8 -121 8z" glyph-name="numbersign" horiz-adv-x="1906" unicode="#"/><glyph d="M1176 436q0 -66 -4 -99q-4 -32 -26 -95.5t-42 -85.5l-39 -37q-65 -61 -99 -80t-101.5 -30t-88.5 -16t-20 -32l1 -47q1 -46 -15.5 -60t-55.5 -14t-58.5 12.5t-19.5 51.5l1 47q1 47 -31 47q-31 16 -69 22.5t-50.5 10.5t-34 14t-27.5 12q-203 94 -241 273q-12 41 -13 61 q0 51 34.5 51h45.5l107 2q14 0 22 -11t22 -58t30 -69t28 -36t26.5 -25.5t21.5 -18.5t58 -20.5t68 -19.5l2 273q2 37 0 102.5t-2 85.5q-55 10 -219 72q-39 14 -111 77.5t-79 131.5q0 6 -11 36t-12 66l6 64q6 70 22.5 107.5t69.5 92.5t147.5 90t184.5 35l2 68l-2 35 q0 16 2 26.5t3 16.5t9.5 8t13.5 3t19.5 0t24.5 -1h29q16 0 21 -5t7 -22l4 -118q27 0 42.5 -2.5t22.5 -3.5t25.5 -7.5t76.5 -22.5t78 -31t47 -35.5t52 -61.5q63 -115 64 -154q0 -51 -49 -51l-111 6q-33 4 -40 11t-11 24q-29 119 -201 141v-98l2 -291q25 -8 86.5 -31 t103.5 -37t76 -43q106 -86 164 -221q11 -20 11 -86zM1092 386q0 36 -4 52t-6 35.5t-7 42.5q-43 125 -217 201q-14 6 -39.5 13t-51.5 17t-81 19v207l2 86l-4 256h18q51 2 134.5 -26.5t113.5 -63.5q44 -43 52 -57t22 -13.5t14 13.5q0 12 -45 68t-125 79l-30 6q-72 25 -154 31 q-4 16 -2 28v78q0 78 -25 78q-4 0 -4 -66t-2 -120q-10 6 -99 -7t-125 -34t-58.5 -38.5t-32.5 -23.5l-6 -8q-23 -20 -36.5 -55t-19.5 -44t-6 -71q0 -123 125 -229q54 -43 145 -73t113 -34l4 -123q6 -141 7 -143v-274l-3 -87q0 -2 -13 -2t-46 9q-127 25 -199.5 76t-115.5 161 h-4q-21 4 -21 -24q0 -18 10.5 -32.5t14.5 -23.5q35 -78 133 -135t188 -61q8 0 56 -11v-7v-40l4 -47v-6q-2 -31 20 -31q10 0 10 15l-2 90q0 18 2 29q76 6 110 10t92 24.5t93 57.5q19 25 29 41t22.5 33.5t15.5 28.5t18.5 50t15.5 75zM1057 394q0 -28 -23 -85 q-56 -139 -131 -168q-45 -30 -209 -39l-2 70v131q0 131 -2 182l-2 136q0 18 1 53t1 51q8 -8 45 -8q16 -4 100 -34t140.5 -84t68.5 -115q12 -62 13 -90zM647 776q-31 0 -69 19q-106 27 -136 55q-6 6 -47 34t-65.5 85t-24.5 110q0 100 78 160q106 78 231 78q23 0 35 -2l4 -205 v-96l-2 -101l2 -102l-1 -17q-1 -18 -5 -18zM784 186q74 0 116 66.5t42 144.5t-53 129q-73 66 -99 75t-47 11l-2 -12l-2 -192l4 -105v-90q2 -27 41 -27zM590 1243q-14 0 -56 -6t-78 -56.5t-36 -106.5t33.5 -105t87.5 -70l57 -16q10 -1 10 24l-2 140l2 86l-2 110h-16z" glyph-name="dollar" horiz-adv-x="1312" unicode="$"/><glyph d="M924 1096q0 -56 -32 -129.5t-83 -110.5q-86 -61 -205 -82q-12 -2 -35 -2q-168 0 -274 76q-4 4 -17.5 10t-19.5 12q-57 45 -72 88q-43 124 -43 176t28 131q29 79 103 127t92 51t82 15t101 12h14q68 -8 132 -21t139 -77q10 -6 16 -16q50 -82 62 -144q12 -60 12 -116z M1937 320q0 -56 -31.5 -129.5t-80.5 -110.5q-84 -61 -205 -82q-12 -2 -35 -2q-170 0 -274 74q-6 6 -18.5 12t-18.5 12q-57 45 -72 86q-43 129 -43 184.5t28 129.5t102 122t93 51t81.5 15t86.5 12q34 0 127.5 -16t171.5 -82q10 -6 17 -16q49 -90 55 -119q16 -85 16 -141z M705 -8q-74 0 -74 39q0 23 74 170q73 165 109 271t62 164t62.5 138t48.5 112t56 138q44 105 80.5 177.5t52.5 117.5t34.5 80t46.5 35t109 -11q39 -3 39 -32q0 -12 -27 -84l-55 -131q-16 -41 -46 -115t-95.5 -235t-216.5 -513q-39 -102 -45 -116t-23 -67t-45 -97 q-21 -29 -50.5 -33t-59 -6t-37.5 -4v2zM1558 633q-106 0 -186 -49t-101 -126t-21 -118t23 -101.5t64 -91.5l13 -12q31 -33 86 -53l47 -10q14 -6 89 -6q74 0 106 14t52 32t63.5 54.5t43.5 126.5l2 61l-12 64q-12 104 -87.5 159.5t-181.5 55.5zM544 1409q-105 0 -185.5 -49.5 t-102.5 -123.5t-22 -118t23.5 -104t64.5 -88q8 -6 14 -15q50 -50 86.5 -54.5t50.5 -9.5t87 -5t104 15t63 44l51 45q45 55 45 123v61l-10 64q-14 104 -89 159.5t-180 55.5zM793 1096q-1 -26 -11 -67q-10 -42 -61 -92t-105 -58q-54 -9 -79 -9t-65 10t-58 17q-147 82 -148 236 q0 63 32 122.5t87 83.5l23 11q44 20 70 26t77 6t101 -24t59 -35l16 -18q6 -6 15.5 -21.5t19.5 -31.5t18 -72q8 -58 9 -84zM1628 102q-56 -8 -97 -8t-101 27q-147 80 -148 235q0 63 32 123t87 84l22 10q45 19 65 25t80 6q58 0 104 -22t57 -35l18 -19q18 -18 27 -41 q20 -29 24 -67.5t6 -48.5l2 -35q0 -47 -10 -86t-61 -89.5t-107 -58.5zM1704 340q0 78 -40 148.5t-101 70.5t-105 -31q-12 -10 -28 -39q-37 -57 -37 -147q0 -20 4 -31q16 -76 48.5 -116.5t110.5 -40.5t113 54t35 132zM688 1116q0 76 -40 147.5t-115 71.5t-95 -31.5t-24 -35.5 q-35 -59 -35 -150q0 -20 2 -31q16 -76 49 -116.5t111 -40.5q79 0 113 55t34 131zM723 57q24 -8 27 -8q14 4 43 82q29 63 78 184t67 162t61 141t62 155q19 56 35 86t47 111t40 95t13 22.5t10 21.5t32 80q24 67 73 138l4 8q0 20 -31 21q-9 0 -31 -49l-102 -230 q-29 -66 -64 -155q-39 -84 -51 -115t-56 -141t-60.5 -143.5t-22.5 -47.5t-12.5 -38.5t-12.5 -34.5t-42.5 -95.5t-71.5 -165.5l-35 -80v-4z" glyph-name="percent" horiz-adv-x="2119" unicode="%"/><glyph d="M1155 0q-29 0 -73 26.5t-71.5 54.5t-30.5 28t-24.5 -14.5t-46 -32t-33.5 -23.5t-39 -13t-85 -23.5t-109 -16.5l-100 6q-63 0 -137 32t-100 56t-34 29q-129 100 -129 317q0 68 26 126t55.5 92t83.5 87t83 86q-28 28 -60 65.5t-35 43.5t-15.5 24.5t-14.5 27.5t-13 38 t-11 113q0 83 51 159l20 29q82 129 283 129q96 0 160 -23q147 -53 182 -156t35 -137q1 -34 -19 -110q-20 -74 -48.5 -112t-99.5 -96t-71 -64t21 -29q25 -20 65.5 -63.5t54.5 -55.5t38 -33.5t50.5 -45.5t34.5 -29q12 18 42 70t49 73q18 25 36 25t89 -28t80 -35t9 -17t-48 -93 t-84.5 -131t-36.5 -64q0 -15 74.5 -89.5t96.5 -94.5t23 -40l8 -25q0 -15 -17 -21t-76.5 -14t-88.5 -8zM600 784q0 10 13 18l73 46q60 38 79 59t38 41q67 82 67 171t-36 132q-84 96 -205 97q-160 0 -234 -88q-35 -43 -47 -71t-12 -79q0 -109 158 -270q2 -2 12 -9.5t15 -13.5 t5 -14t-30.5 -35t-68.5 -56.5t-44 -35.5t-48 -45t-67 -89q-24 -50 -24 -101t4 -65t9 -40.5t11 -51t42 -71.5q36 -46 92 -76t61 -33q79 -24 121 -24t130 14t134 45q8 6 40.5 28t73.5 60.5t46 38.5q18 -4 90 -91t80 -87t15 7.5t7 13.5q-6 19 -85 103.5t-79 86.5 q147 221 148 229q-5 19 -20 19t-19 -8l-17 -33q-37 -61 -114 -170l-4 -2l-6 2q-10 8 -43 45t-48 52t-51.5 55t-52.5 56t-41 44t-37 41l-51 53q-3 7 -41.5 53.5t-38.5 48.5zM559 768h2q8 -2 14 -16q45 -62 139.5 -160t123.5 -129l80 -84q4 -4 18 -20.5t28 -28.5t15 -27 q0 -16 -33 -43l-82 -65q-31 -23 -47 -29t-33.5 -16.5t-71.5 -21.5t-120 -11q-87 0 -154 39q-57 27 -104 89t-49 124l-6 59l2 31q14 61 29 86q51 86 149 154.5t100 68.5zM842 1137q0 -20 -10.5 -61.5t-20.5 -57.5q-82 -111 -168 -160q-61 -31 -71 -31t-50.5 37t-52.5 54 l-18 26q-27 27 -30 34t-27.5 41.5t-24.5 92.5q0 57 16 80l21 29q61 96 204 96q88 0 160 -48t72 -132zM844 290q0 5 -10 21q-78 93 -174 199t-108 116q-13 10 -17 9q-25 0 -76 -54.5t-65 -96.5t-15 -87q0 -94 69.5 -145t167.5 -51q20 0 54 8q100 14 166 67q8 9 8 14z M739 1124q0 119 -135 119q-63 0 -101 -37t-38 -100v-10q0 -16 18.5 -50t27.5 -44t25.5 -29t31 -35t20.5 -16t12 6q139 63 139 196z" glyph-name="ampersand" horiz-adv-x="1452" unicode="&amp;"/><glyph d="M408 1417q0 -184 -37 -360q-4 -23 -15.5 -34t-128.5 -11q-43 0 -53 47l-29 338q0 31 7.5 38t12.5 12t11 5h60l139 -6q24 -4 28.5 -10.5t4.5 -18.5zM291 1352q0 2 1.5 7t-2 17.5t-16.5 12.5q-27 0 -26 -31l4 -94l2 -90q0 -78 20 -78q23 -1 23 34l-6 207v15z" glyph-name="quotesingle" horiz-adv-x="550" unicode="'"/><glyph d="M680 -76q0 -20 -50 -68.5t-82 -48.5t-89 64q-92 96 -127 162q-34 67 -60 103t-59 128t-40 130.5t-18 123.5t-11.5 97t1.5 39.5t2 116.5t41 212q17 70 30 102q13 33 52 99q23 57 32 73.5t32 59.5t40 61t42.5 48t35.5 40t66 52q10 8 36 8t44 -12q20 -12 55 -47.5t35 -46.5 t-17.5 -33.5t-40 -48t-54.5 -74.5t-111 -237q-78 -189 -78 -370l10 -108q2 -27 15.5 -73t20.5 -89t21 -72t19 -52q6 -23 28.5 -57t27.5 -48t18.5 -35t16.5 -27t9.5 -21.5t14.5 -23.5q92 -92 92 -127zM559 -104q10 0 10 15t-17 44t-62.5 96.5t-65.5 104.5q-72 123 -133 409 q-6 37 -6 121q0 203 125 481q16 39 34 63t39 60q21 35 49 64t27 35q0 20 -27 20q-28 -1 -96 -105t-88 -171l-6 -13q-64 -92 -100 -422v-4q0 -119 22 -220t76 -253q4 -10 17 -26.5t33 -62.5t122 -202q6 -8 21.5 -21t25.5 -13z" glyph-name="parenleft" horiz-adv-x="782" unicode="("/><glyph d="M102 1417q0 14 46 60.5t80 47.5t44 -7q56 -42 66 -52t36 -39t40 -45t26.5 -36.5t25.5 -46t21.5 -40t18.5 -40t14 -35.5q51 -86 64.5 -135.5t35.5 -117.5t23 -235l2 -47q2 -47 -4 -89t-15 -114t-45 -173q-35 -101 -61 -138t-61 -102t-109 -145t-107 -80q-32 0 -82 48 t-50 68q0 35 92 127q8 8 14 23.5t9 21.5t16.5 27t18.5 35t27.5 48t28.5 58q5 24 19 52t21 71t20.5 89t15.5 73l10 108q0 180 -71 355q-96 222 -146 295q-4 6 -44 51t-40 59zM221 -89q0 -15 10 -15q18 0 48 34q103 156 123 202t32 62.5t17 26.5q53 152 65 209q33 157 33 264 v4q-38 337 -100 422l-7 13q-20 68 -88 172t-96 104q-27 0 -27 -20q0 -5 28 -35t47 -62t31.5 -49.5t19.5 -26.5t24 -49q125 -279 125 -481q0 -84 -6 -121q-61 -287 -133 -409q-20 -37 -65.5 -103.5t-63.5 -96.5t-17 -45z" glyph-name="parenright" horiz-adv-x="782" unicode=")"/><glyph d="M439 1559h44q23 -3 24 -25t2 -86t5 -98q8 4 91.5 52t91.5 48q9 0 35 -41t26 -54t-17 -22q-137 -68 -172 -88q10 -12 103.5 -63t93.5 -69q0 -19 -28.5 -53t-47 -34t-88.5 47t-90 55l-8 -184q0 -27 -14.5 -35t-45.5 -8h-16q-27 0 -27 27q-4 61 -4 92v113 q-23 -12 -90.5 -59.5t-97.5 -47.5q-14 0 -35.5 42t-21.5 58t12 25l82 53q4 2 16 6t19 9l45 32l-160 72q-23 9 -23 27t19.5 54t38 36t92.5 -47t102 -52v48l-4 135q0 28 13.5 31.5t34.5 3.5zM459 1210h10q139 -80 168 -102q31 -18 43 -18t12 11t-221 138q29 14 95 56.5 t88 52.5t26 12t4 8q-2 10 -15 10t-34 -12l-62 -41q-6 -4 -40.5 -21.5t-47.5 -29.5l-18 -17q-4 78 -4 121l1 70q1 71 -18 72q-8 0 -8 -13l-2 -106v-135l-24 10q-10 4 -90.5 52t-96.5 48l-18 -12q9 -9 38 -22t76.5 -42t108.5 -57l-41 -22q-9 -9 -23 -16t-26 -16t-17 -12 t-26 -14.5t-27 -16.5t-25.5 -14.5t-19.5 -20.5t11 -11t97.5 52t98.5 58q6 -92 6 -188q0 -20 21 -21q8 0 8 19l-10 180q0 2 2 6v4z" glyph-name="asterisk" horiz-adv-x="909" unicode="*"/><glyph d="M729 1057l-2 -131q-2 -131 -4 -154q12 -6 22 -6l273 6q23 0 37 -9t14 -99l-4 -76q0 -24 -13.5 -28.5t-23.5 -8.5t-49 -4l-139 -6l-111 2h-12l-2 -51l6 -121l-6 -90q0 -35 -6 -45q-26 -29 -195 -16q-39 3 -39 34l-4 156l4 122q0 18 -18 19l-127 -8h-164q-20 2 -26.5 7.5 t-11.5 57.5t-5 97t10 60t53 15h64l108 2q76 0 115 2q6 29 6 86l-4 134q0 66 2 92t31 34q28 8 94 8q126 0 127 -81zM971 666q0 25 -23 24h-6q-74 -6 -151 -6l-72 2q-45 -4 -68 -4h-41v47l4 164q0 102 -2 154q-2 12 -20.5 12t-18.5 -12l5 -142q0 -147 -7 -217l-26 -2l-318 4 q-12 0 -12 -14q0 -29 23 -29l94 2h182q18 0 59 -4l5 -125v-178q4 -16 23 -16t20 36l-7 154q-4 50 -4 129l275 6l57 -4q29 1 29 19z" glyph-name="plus" horiz-adv-x="1193" unicode="+"/><glyph d="M473 186q0 -31 -57 -161l-82 -203l-20 -33q-21 -33 -62 -33h-37v2q-113 0 -113 36t123 364q0 14 12 35.5t31 21.5l117 -6l59 2q29 0 29 -25zM342 129q0 18 -31 18q-2 0 -6 -15t-4 -17l-14 -41q-6 -24 -42 -130t-36 -115t10 -9q9 0 21 5t26 60q12 55 44 149t32 95z" glyph-name="comma" horiz-adv-x="575" unicode=","/><glyph d="M717 737q66 0 82 -13.5t16 -63.5q0 -94 -51 -99h-22l-275 -6l-127 4l-45 -2q-133 0 -149.5 6t-19.5 11.5t-3 15.5v8l2 96q2 43 141 43l20 -1l60 -2l162 -7l190 10h19zM745 647q0 27 -47 24t-49 -3l-393 2q-63 0 -63 -18t14 -20q14 -3 145 -3l180 4h62l141 -2q10 0 10 16z " glyph-name="hyphen" horiz-adv-x="937" unicode="-"/><glyph d="M377 119q0 -68 -47 -92l-15 -11q-19 -20 -77 -20t-97 36t-39 97t40 97t84 36q86 0 120 -67q4 -10 17.5 -25t13.5 -51zM272 125q0 16 -11 27.5t-25 11.5q-25 0 -25 -32q1 -32 31 -32t30 25z" glyph-name="period" horiz-adv-x="473" unicode="."/><glyph d="M856 1392q0 -26 -18 -64t-26.5 -60.5t-20 -49t-17.5 -40.5l-145 -365q-39 -94 -139.5 -327.5t-129.5 -321.5t-46 -114q-17 -27 -41.5 -42.5t-114.5 -15.5h-2q-20 0 -47 10t-27 32t88 197q33 76 86.5 222.5t73.5 192.5t58 127t54 124t48 118t56 128t52 132q30 79 51 126 q20 35 51 35l119 -11q37 -7 37 -33zM186 68q0 -12 10 -12q15 -1 26.5 17.5t21.5 33.5t70 171t80 199q22 43 25 52l23 69q63 172 187 451q4 10 9 31.5t9 31.5l84 184l19 37q0 17 -14 17t-16 -2t-11 -23l-95 -207q-8 -16 -20 -53t-41 -103t-42 -100t-34.5 -86t-39.5 -100 t-25 -64l-25 -57q-6 -16 -23.5 -53t-26.5 -63q-9 -25 -17 -39t-15 -38l-37 -102q-8 -20 -45 -100t-37 -92z" glyph-name="slash" horiz-adv-x="937" unicode="/"/><glyph d="M464 18q-51 26 -74 37q-23 10 -99 92q-37 43 -55 90t-34.5 85t-19.5 69q-18 58 -28.5 159t-10.5 150l7 66q4 61 4 92q0 125 55 262l14 41q41 115 128 189.5t191 74.5t130 -9q28 -9 33 -9q59 -6 124.5 -49t96.5 -96l39 -54q20 -33 32.5 -78.5t19.5 -65.5t18.5 -64 t22.5 -74t11 -156l-4 -45l6 -107q0 -35 -9 -109.5t-23 -107.5t-21 -62q-6 -30 -41 -116q-8 -16 -41 -60t-44 -53t-23.5 -26.5t-50.5 -39.5t-83.5 -37t-132.5 -15t-138 26zM252 896l-8 -138v-74l4 -57q4 -109 41 -230t94 -204q17 -28 42.5 -43t48 -27t32.5 -19 q45 -27 117 -26q8 0 66 13t81 29.5t32 28t32 37.5q68 78 92 174.5t35 235.5l10 84l-4 61q0 244 -66 379q-2 6 -5 18.5t-6 17.5t-12.5 19.5t-13.5 22.5q-14 33 -76 80q-6 4 -116 47q-28 8 -92 8t-130.5 -35.5t-91.5 -78.5q-6 -14 -23 -39.5t-31 -53.5t-33 -103t-19 -127z M580 1294q108 0 188 -53t104 -147q4 -14 20.5 -61.5t25.5 -91.5t10 -150l2 -76l-2 -88q0 -90 -17 -140q0 -3 -7 -43t-15 -61t-9 -29q0 -8 -26 -60t-84 -114t-156 -61q-135 0 -213 117q-10 12 -23.5 39.5t-19.5 38.5t-12 28.5t-11 41.5t-27 114t-23 176l4 82l-4 55 q-1 59 25 191t94 212t176 80zM838 854q0 37 -14.5 102.5t-28.5 89.5t-45 63q-30 41 -62 57t-74 16t-74 -10t-64 -40t-40 -57l-12 -43q-18 -51 -18 -88l-17 -104l-4 -201q0 -105 12 -133t22.5 -64t14.5 -47q45 -153 187 -168q104 0 167 201q31 78 33 105q1 29 11 55t10 96 l-2 13l-2 83v74z" glyph-name="zero" horiz-adv-x="1214" unicode="0"/><glyph d="M580 496v-281l2 -88l3 -51q3 -51 -7.5 -60.5t-24.5 -9.5l-33 2l-127 -8q-8 0 -22.5 13t-18.5 37t-4 140l4 54l-2 329l4 459q0 25 -2 37q-72 -33 -99 -56t-44 -24q-27 0 -35 33q-31 86 -31 112.5t21 47.5q139 135 196 182l43 35q20 29 94 29t74 -29l15 -127l4 -297 l-6 -119l2 -37l2 -90l-4 -67l2 -54q-6 -111 -6 -112zM461 1343q-16 1 -41 -29q-26 -30 -58 -58t-73.5 -58.5t-55.5 -58.5q10 -10 23 -11q29 0 133 105q20 18 57 37q2 -16 3 -51v-121l2 -105q0 -170 -2 -254l-7 -217l4 -41l-6 -82v-186l-6 -80q0 -12 11.5 -25.5t24.5 -13.5 t14 32t1 97l2 215v174l7 115l-7 76l-2 430l-2 39q0 2 3 36.5t-25 34.5z" glyph-name="one" horiz-adv-x="755" unicode="1"/><glyph d="M143 137q0 61 31 103q55 86 82 110t42 50q31 56 71 89q69 90 99 123t38 45.5t32 34.5t48 64l69 88q4 6 16.5 18t16.5 21q35 75 35 147t-54.5 120t-114.5 48t-139 -32.5t-116 -63.5q-86 -74 -102 -74q-29 0 -29 70t5.5 126t74.5 95l55 37q143 82 235 82t169 -33 q2 -2 39.5 -15.5t54.5 -27.5q96 -84 125 -156q4 -10 28 -46t25 -124q0 -88 -76 -239q-4 -12 -19.5 -29.5t-33.5 -50.5t-30 -51q-11 -18 -84.5 -97t-121.5 -150q-49 -71 -79 -102q-80 -70 -82 -98q14 -8 51 -8l114 8h138l159 6q45 0 46 -67q1 -12 -3 -22q-6 -16 -6 -30v-71 q-2 -29 -30 -32t-72 -3h-102l-105 -8l-88 8l-231 2l-136 -16q-16 0 -22 14q-20 51 -20.5 63.5t-1.5 37t-1 36.5zM857 137l-155 -6l-59 2l-145 -4h-111l-76 -4q-8 0 -8 16t34 67.5t54 65.5q4 6 10.5 17.5t17.5 22.5t37 49.5t36 48.5t22 23.5t19.5 23.5t13.5 22.5t22.5 31.5 t22.5 28l24 37q18 27 96.5 122t123.5 171.5t45 140.5q0 22 -13 80q-10 109 -105 179t-187 70t-177.5 -32.5t-134.5 -81.5q-8 -12 -8 -25q0 -23 18 -22q4 0 43 30q41 41 86 56q115 34 160 34t111 -26t104 -74q4 -4 27 -49q33 -53 33 -121t-41 -133q-16 -25 -23 -37 q-15 -43 -72 -108.5t-67 -79.5q-12 -27 -51 -71.5t-54 -70.5t-47 -62t-38.5 -41t-20.5 -20t-36.5 -48t-37.5 -48l-14 -16q-10 -18 -44 -59.5t-41 -59.5t-7 -63q0 -35 55 -35l84 8l137 -6l185 8l98 2q86 0 86 23q0 8 -9.5 16t-22.5 8z" glyph-name="two" horiz-adv-x="1124" unicode="2"/><glyph d="M372 256l116 -6q22 0 79.5 14.5t81.5 30.5l47 39q37 31 37 85t-31 92t-65.5 52.5t-39.5 17.5t-16.5 8t-77.5 19q-65 14 -89 15l-74 -7q-78 0 -78 33l4 53q0 31 -4 89l-4 30q0 25 21 25l20 -2l61 8q121 7 173.5 22t84.5 22q32 6 42 26q12 20 31.5 42t19.5 70l-4 25 q0 47 -63.5 90t-172.5 43q-110 0 -167 -20q-89 -30 -112 -46t-34 -16q-27 0 -27 35l-2 108q0 53 7 75t26 34q118 72 314 72q38 0 66 -6t56.5 -8.5t40.5 -7.5t51 -15t150 -78q51 -29 100 -123q20 -45 20 -129t-34.5 -150.5t-89.5 -107.5q-12 -8 -50 -30.5t-55 -37.5 q6 -2 11 -3l34 -14q29 -12 36 -17t19.5 -11.5t43 -33.5t42 -59t17.5 -40q41 -68 41 -125q0 -182 -129 -299q-6 -6 -29 -31.5t-35 -33.5t-93 -40t-103 -34l-60 -4h-106q-145 0 -222 51t-77 82q0 188 33 188q14 0 89 -30.5t129 -30.5zM218 188q-12 0 -11 -14q0 -35 47 -47 q106 -23 240 -23t251 72q18 12 51 45t42.5 49.5t13.5 22.5q35 55 35 100t-18.5 102t-34.5 75t-36 45t-38 45t-47 33.5t-67 29.5t-58 25q66 33 71 34q57 23 120 85.5t74 108.5t11 77q0 109 -103 199t-290 91q-36 0 -82.5 -11t-56.5 -12q-10 0 -58 -22t-49 -32q0 -18 25 -19 q12 0 89.5 28t116.5 28q38 1 92 -5t81 -14t71 -34t54 -48q16 -24 42 -56t25 -102q0 -70 -60.5 -136t-142.5 -93l-153 -49l-48 -1q-48 -1 -48 -26t47 -24l90 8q53 0 168 -55q66 -31 114 -103.5t50 -142.5l2 -37q0 -12 -11.5 -31.5t-13.5 -25.5q-16 -47 -103 -114t-231 -69 l-47 5l-49 -3q-20 0 -74.5 11.5t-67.5 20.5t-25 9z" glyph-name="three" horiz-adv-x="1120" unicode="3"/><glyph d="M940 240h-72q-4 -57 -4 -84l2 -133q0 -31 -53 -31l-82 8l-61 -2q-41 0 -41 43l4 166l-6 41q-29 4 -45 4l-70 -2h-76q-45 -4 -65 -4l-146 8l-39 -4q-23 0 -41 13t-18 36l-4 164q-1 14 99 183t125 225t87 165l178 326q31 63 46.5 66.5t31.5 3.5l135 -7q35 0 38 -15t3 -38 l-4 -74l10 -108l-8 -57v-123q6 -98 6 -101l-2 -78q0 -4 3 -37.5t-2 -51.5t-5 -126t5 -122t16 -13l94 6q38 0 44.5 -32t5.5 -64.5t-1 -34.5l8 -86q0 -26 -36 -28t-60 -2zM756 76q27 0 26 33l-8 243h49q23 -4 64 1t49 5t18.5 6.5t10.5 13.5q0 17 -33 21t-55 2h-17l-20 -2 l-66 -2l-2 92q0 84 -2 127l-4 70v86l6 86l-6 113l2 88l-8 119l-2 88l4 57q0 27 -28 27t-42 -29q-38 -80 -171 -325q-134 -246 -146 -269l-37 -80q-16 -33 -73.5 -132t-57.5 -131t39 -32l57 2l178 -6q166 0 248 2l8 -190l-2 -43q0 -41 21 -41zM717 1266q12 -222 12 -338 l-4 -97l2 -100v-47l6 -152v-47q0 -59 -2 -90l-158 -4h-102q-37 4 -59 4h-99q-2 0 -59 6q80 135 94 176t41 84.5t92 174.5q88 166 156 282l35 68q33 51 45 80zM627 812q-2 40 -2 59t-17 28q-8 -12 -18 -33.5t-26 -47.5t-83 -155t-67 -145t2 -22q16 -4 82 -4t96 10q29 8 29 37 v49l2 125v53q4 6 2 46z" glyph-name="four" horiz-adv-x="1159" unicode="4"/><glyph d="M1001 522q0 -91 -14 -186q-6 -31 -56 -114t-97 -111q-8 -4 -58.5 -40.5t-97.5 -43.5q-8 -2 -49 -16.5t-183 -14.5q-55 0 -196 82q-12 6 -60 56t-47 76q0 24 65.5 66.5t89.5 42.5t30 -12q8 -12 25 -21.5t35 -27.5t58 -22l66 -9q20 0 31 2q51 -4 114.5 37t84.5 82t32 105 l6 28l-8 68q-12 127 -61 178q-8 8 -25.5 21.5t-37.5 31.5t-60 20q-40 3 -82 3t-80 -11q-36 -11 -53 -12l-17 1l-106 1q-29 0 -37 9.5t-8 39.5l6 134q2 18 2 57l-2 121l4 219l-4 18q0 8 11 21.5t14 13.5l51 -6l65 2l166 10q29 2 86 2q33 4 53 4h41l119 7l51 -7l45 5 q18 0 35 -11t17 -33t-11 -155q-2 -14 -14 -27.5t-30 -15.5t-28 -2h-94l-153 -4l-25 4l-37 -4q-82 0 -124 -2l-3 -174l3 -19l94 6q121 0 250 -41q49 -16 89 -63t50 -72.5t19.5 -52t22.5 -58.5t20 -64t7 -122zM885 1314q1 18 -53 21q-54 2 -166 2h-58l-239 -6l-33 1 q-33 1 -33 -21l-4 -256l4 -90l-2 -45q0 -49 86 -50l166 13q126 0 167.5 -38.5t67.5 -60.5q52 -44 74 -140q22 -95 23 -134q0 -256 -199 -358q-41 -20 -129 -20q-87 0 -109 4q-22 5 -80.5 37t-75.5 32t-18 -12q0 -32 57.5 -56t61.5 -26q45 -25 113 -25l102 10 q109 0 210.5 105t101.5 279q0 44 -11 106q-14 125 -99.5 228t-277.5 106l-155 -11q-27 0 -33 38t-6 181l4 66q0 63 -2 96q56 0 116 6t173 6t172 -8l42 1q42 1 42 19z" glyph-name="five" horiz-adv-x="1146" unicode="5"/><glyph d="M1018 449q0 70 -34 156.5t-64 109.5q-134 104 -232 104t-130 -12t-62.5 -28.5t-44 -25t-32 -23.5t-22.5 -17q-61 -43 -110 -140q-14 182 -15 234q0 127 101 309q55 100 102 139q154 113 346 11q31 -16 38 -22t21.5 -26t26 -36.5t15.5 -16.5q20 -1 20 15t-20 43 q-39 61 -122.5 94t-149.5 33t-132 -30t-92 -58q-106 -125 -166 -304q-2 -8 -4 -26t-10 -44t-8 -90t7 -176q7 -114 16 -153t9 -78q2 -16 36 -98q34 -81 140 -149t195 -68q90 0 152.5 25.5t143.5 99.5t81 248zM981 440q-1 -82 -21 -126t-42.5 -69.5t-34 -34.5t-49.5 -40 q-78 -57 -176.5 -57t-188.5 63q-57 37 -68 47q-102 118 -102 266q0 29 23 72q68 127 208 193q68 31 125 30q119 0 240 -100q27 -26 57 -94t29 -150zM889 440q0 91 -24 141t-78 79.5t-116 29.5t-133 -33t-102 -87t-30.5 -134t82 -157.5t173.5 -77.5t160 74t68 165zM1112 420 q0 -103 -47 -197q-33 -111 -153.5 -171t-260 -60t-193.5 30.5t-76 37.5t-56 44l-27 27q-120 100 -143 463q-12 127 -12 188.5t18 127.5t31.5 114.5t31.5 106t62 104.5l39 41q2 2 11 17t39 41t67.5 48.5t73.5 27.5t67.5 12.5t50.5 7.5l63 4q76 0 174 -43q8 -4 19.5 -15.5 t17.5 -15.5q35 -16 49 -44t33 -53.5t25 -37.5l10 -21q2 -2 12.5 -27.5t10.5 -27.5q0 -12 -13 -16q-18 -8 -77.5 -30t-72.5 -22t-29.5 23.5t-30 53.5t-44 53.5t-84.5 23.5q-54 1 -103 -17q-50 -18 -106.5 -94.5t-60.5 -124.5q-33 -43 -33 -137q0 -10 1 -30.5t1 -30.5l54 37 q18 14 87.5 32.5t96.5 18.5h14l58 4q43 0 102 -19q63 -16 98 -36.5t83 -71.5t69 -100.5t37 -123.5t16 -122z" glyph-name="six" horiz-adv-x="1251" unicode="6"/><glyph d="M997 1409q0 -111 -90 -377q-6 -16 -31.5 -106t-39.5 -116t-24 -62.5t-24 -62.5q-14 -27 -21 -57t-21 -64t-16.5 -57.5t-9.5 -37.5t-14 -47t-27 -76t-22 -66q-2 -22 -20.5 -62t-20.5 -50t-3 -20.5t-3 -14.5l-8 -29q-27 -94 -33 -98t-51 -4l-74 4l-38 -8l-72 6q-18 0 -25 2 q-10 0 -10 14q0 51 100 279q9 16 17 46t16 45t14.5 42.5t11.5 41.5t21.5 64t26.5 74t21 69t41 113t35 84t25 94.5t40 129.5t20 86q0 27 -57 26l-31 -2l-12 1l-72 -1l-104 7l-41 -5l-56 -10l-127 4h-77q-8 2 -17.5 13.5t-10.5 23.5t-1 21v75q0 20 4 62q0 10 10 10 q55 12 203 12l41 -8l176 10h96q104 6 109 7l13 -2h87l111 -9q65 0 65 -14zM881 1311q0 29 -29 28l-188 9l-129 -5l-89 3l-110 -3h-164q-18 0 -18 -16t26 -20t152 -4l47 -3l74 5l25 -1l188 5q31 0 91 -4.5t79 -4.5q-18 -76 -58 -204t-51.5 -174t-120.5 -334q-24 -72 -32 -102 t-35 -105l-17 -57q-70 -186 -70 -210t17 -24q14 0 23 14q47 123 50 151t31 101q43 154 51 174t37.5 106.5t45.5 115.5l18 61q8 25 29.5 83t29.5 95t17 62l24 75q15 51 35.5 108t20.5 75z" glyph-name="seven" horiz-adv-x="1122" unicode="7"/><glyph d="M1059 1082q0 -50 -4 -86t-24.5 -91t-35.5 -76q-51 -61 -51 -70q0 -15 68.5 -61t89.5 -141v-5q0 -4 8 -18t8 -55q0 -117 -51 -225q-14 -29 -61.5 -80t-51.5 -59q-10 -25 -74 -55t-122 -44q-20 -8 -35 -8l-29 2l-86 -6q-35 0 -86 14l-51 13q-33 10 -91 42t-81 48t-49 51 l-6 6q-49 43 -75 124.5t-26 133.5q-1 52 7 66t16 40t11 34t11.5 17t10.5 13q33 76 143 160q-3 19 -43 56.5t-49 101.5q-2 14 -12.5 57t-10.5 87t47 173q6 15 46 57t135 101q53 33 151 33l11 -1l69 3q26 0 96 -22t100 -44t70 -63q107 -119 107 -223zM1016 454q0 110 -66 189 q-57 75 -101 91t-79 26t-49 16q6 6 23.5 12t54.5 30t43 30q102 106 102 211q0 65 -20 115q-47 125 -203 172q-41 12 -125 12q-14 0 -80 -26t-78 -32q-61 -33 -98 -94.5t-37 -119.5t26.5 -130.5t59.5 -99.5q78 -66 104 -76t48 -10q-14 -5 -29 -13q-14 -9 -47.5 -19t-92.5 -63 q-58 -53 -86 -117t-28 -178t115.5 -199t240.5 -85q72 0 106 5t100 36t91 64q4 6 17.5 17t50.5 68q37 58 37 168zM826 701q48 -19 86 -67q40 -48 55.5 -88t15.5 -78t-10 -116q-4 -12 -29 -54q-54 -91 -149 -134q-6 -4 -21.5 -9t-41.5 -15t-82 -11q-58 -1 -109 13t-70.5 23 t-40.5 16t-47 34q-88 94 -88 184q0 176 145 289q8 6 76 36t123 30t187 -53zM911 1059q0 -49 -28 -99t-40 -64q-11 -13 -27.5 -26.5t-30 -20.5t-36.5 -17.5t-47 -23.5t-94 -13t-106 22q-36 23 -78 57q-41 34 -63.5 90t-22.5 101q0 109 87 182.5t217 73.5t199.5 -73.5 t69.5 -188.5zM868 442q0 54 -2 60t-8 16t-8.5 23t-5.5 18q-43 84 -199 84q-89 0 -147 -37q-100 -57 -111 -139l-6 -53q-1 -39 21 -84t66 -63.5t100 -27.5t98 -9t84 24q4 2 61 26.5t57 161.5zM815 1059q0 31 -15.5 71.5t-37.5 57.5q-57 35 -132 35t-128 -48.5t-53 -120.5 t61 -118q12 -12 21 -14t40 -12.5t45 -10.5q74 0 136.5 45t62.5 115z" glyph-name="eight" horiz-adv-x="1261" unicode="8"/><glyph d="M1116 860q0 -58 -18 -266l-4 -76l-11 -43q-16 -135 -67 -233q-18 -32 -26 -52t-28 -46.5t-28 -32.5l-96 -58q-88 -53 -163 -53t-101 7t-54 7t-42 10t-46 19q-30 10 -96 45t-88 66q-55 87 -60 120q0 23 25 37q121 63 153 63t109 -100q41 -47 133 -47q45 0 88 19 q78 29 122 134t44 202q0 33 -6 69q-25 -12 -35 -20q-96 -76 -231 -76q-84 0 -106 7t-37 13.5t-67 26.5t-85 47q-106 80 -137 254q-14 90 -15 123l13 90q4 20 14 31q8 3 28 41t48 78q30 40 53 56.5t54 33t51 28.5t80.5 32t90.5 20l91 -2q76 0 90 -8t34 -8q20 -1 56 -32 q67 -40 81.5 -53.5t27 -31t22.5 -29.5q73 -78 99 -190t33 -138t7 -84zM664 1350q-72 0 -142.5 -16.5t-105.5 -39.5q-70 -49 -119 -128t-49 -158q0 -32 6 -58t11 -55t11 -47q39 -94 128.5 -144.5t191.5 -50.5t201.5 50.5t136.5 134.5q32 64 37 114q27 -45 26 -137 q0 -203 -61 -416q-5 -24 -23 -53q-24 -74 -127 -170q-25 -23 -79 -38t-92 -15t-97.5 20.5t-73.5 36.5t-23 24t-28 29t-33 21t-14 -16.5t10.5 -28.5t27.5 -24.5t33 -25.5t38 -24l24 -12q16 -13 48 -23t35 -10h23l103 8q121 14 182 109q6 8 40 48.5t85 219.5q5 14 17 92 t13 96.5t4 29.5t3 40l2 80q0 57 -34 217t-95 207t-67 53q-9 9 -23 16t-46.5 25.5t-104.5 18.5zM948 1034q0 -43 -14 -96q-23 -109 -84.5 -158t-179.5 -84q-20 -6 -74 -6t-121 20.5t-104 57.5q-33 39 -40 52t-23 53t-15 61l-8 76q0 39 20.5 92.5t35.5 69.5t29.5 31.5 t20.5 21.5t24.5 22.5t44.5 30t94 23.5q69 11 73 12q85 0 135 -25q25 -7 49.5 -27t32.5 -26q37 -23 70.5 -90.5t33.5 -110.5zM840 1025q0 41 -6 55t-12.5 28t-8.5 22q-20 61 -111 91q-47 14 -73 14q-25 0 -35 -2t-34.5 -5t-46.5 -7t-52 -25q-94 -68 -94 -217q0 -45 36 -109 q2 -2 4.5 -13t6.5 -15l20 -17q20 -23 65.5 -39t89.5 -16t103.5 23.5t87.5 57.5t44 84t16 90z" glyph-name="nine" horiz-adv-x="1259" unicode="9"/><glyph d="M375 123q0 -20 -13.5 -50t-31.5 -42q-63 -47 -78 -47q-82 0 -116 41t-34 73q0 82 42 125t92 43t94.5 -45t44.5 -98zM383 760q0 -62 -40 -97.5t-84 -35.5q-84 0 -120 67q-4 10 -16 25.5t-12 50.5q0 68 45 92q8 2 21 16t72 14t96.5 -35t37.5 -97zM274 766q0 16 -11 27.5 t-25 11.5q-25 0 -25 -32t30.5 -32t30.5 25zM268 127q0 14 -10 25.5t-25 11.5q-25 0 -25 -32t30 -32t30 27z" glyph-name="colon" horiz-adv-x="485" unicode=":"/><glyph d="M487 130q0 -20 -55 -167l-84 -201l-2 -8q-25 -47 -38 -53t-40 -6l-37 2v2q-129 0 -129 19t66 192.5t70 182.5t8 22.5t11 26t26 12.5l118 -7l60 3q26 0 26 -20zM541 784q0 -82 -38 -116t-73 -33q-84 0 -127 42t-43 92t44 94t97 44q86 0 138 -108q2 -7 2 -15zM358 62 q0 16 -12 16q-6 0 -11 -3t-15 -29t-57.5 -140t-47.5 -124q-1 -11 17 -11t26 22q37 106 96 242q4 11 4 27zM434 774q0 14 -11 26.5t-26 12.5q-25 0 -25 -33t29 -32q33 -1 33 26z" glyph-name="semicolon" horiz-adv-x="630" unicode=";"/><glyph d="M813 369q0 -189 -25 -189t-258 135l-180 97q-127 68 -231 163q-17 19 -17 102t9.5 111.5t44.5 49.5l118 67q14 8 65.5 33.5t94.5 57.5t82 50t145.5 70.5t121.5 52.5t16 -22v-115l4 -59q0 -31 -29 -47q-82 -49 -240.5 -130t-195.5 -102q12 -15 51 -34t48 -25t57 -42 t150 -87q102 -52 136 -78t33 -59zM178 698q0 -30 10 -41q94 -79 122 -99t140 -90t150.5 -95t68 -42.5t44 -18t14.5 15.5t-37 36t-88.5 56t-103.5 62t-123 75t-113 92q-39 33 -39 47v4q2 51 301 195q23 12 69.5 44t60.5 38t32.5 13.5t18.5 19.5q1 20 -19 20t-76 -37 t-180.5 -104.5t-185.5 -112.5q-46 -29 -56 -39q-10 -9 -10 -39z" glyph-name="less" horiz-adv-x="940" unicode="&lt;"/><glyph d="M705 905q66 0 82 -13.5t16 -63.5q0 -94 -51 -99h-22l-275 -6l-127 4l-45 -2q-119 0 -146 6q-27 2 -26 27v8l2 96q2 43 141 43l20 -1l60 -2l162 -7l190 10h19zM803 598v-8l-2 -96q-2 -43 -142 -43l-81 4l-76 -6l-84 12l-191 -10h-39q-38 0 -42.5 3t-12.5 6t-9 8t-6 12 t-5 10l-2 59q0 29 13 52.5t41 24.5t43 1h132q78 4 119 4l127 -2l45 2q137 0 154.5 -8t17.5 -25zM180 539q0 -27 47 -24t49 3h394q61 1 61 18t-13 20t-147 3l-180 -4h-201q-10 0 -10 -16zM733 815q0 27 -47 24t-49 -3l-393 2q-63 0 -64 -19q0 -16 14 -19t146 -3l180 4h62 l141 -2q10 0 10 16z" glyph-name="equal" horiz-adv-x="995" unicode="="/><glyph d="M139 1147q0 23 19 22q12 0 118.5 -52.5t145.5 -70.5t82 -50t94 -57.5t66 -33.5l118 -67q35 -20 44.5 -49t9.5 -112t-17 -102q-104 -96 -231 -163l-180 -97q-233 -135 -258 -135t-25 189q0 33 34 59t100 60t86 45.5t44.5 26t37.5 22.5t45 32t74 44.5t54 35.5 q-37 20 -195.5 101.5t-240.5 130.5q-29 16 -29 47l4 59v115zM760 698q0 30 -10 39q-10 10 -56 39q-61 45 -185 112.5t-180 104.5q-55 37 -75 37t-20 -16t18 -23.5t32 -13.5t60.5 -38t69.5 -44q299 -143 301 -195v-4q-1 -14 -23 -34t-44.5 -41t-89.5 -67t-119 -72t-103 -62 t-88 -56t-37 -35q0 -33 51 -3t121 77q217 135 245 155t122 99q10 11 10 41z" glyph-name="greater" horiz-adv-x="940" unicode=">"/><glyph d="M1029 1256q63 -86 63 -212q0 -125 -38 -180t-44 -65q-45 -74 -162 -131q-6 -4 -17.5 -7.5t-18.5 -6.5t-44 -17.5t-52 -26.5t-46 -20t-46.5 -33t-18.5 -46.5t-3 -62t-2 -51.5q0 -30 -57 -30q-145 0 -175 5t-32 42l-6 49q0 128 86 229q29 31 53 42t68.5 35t68.5 32 q76 27 154 94.5t78 136.5q0 25 -9 43q-47 104 -157 105l-14 1l-91 -5q-41 0 -94 -23t-78.5 -69t-36 -79.5t-28.5 -33.5q-74 0 -127 10t-66.5 21.5t-13.5 25.5l10 62q4 29 53 135q2 4 21 26t29 37q10 14 19 22.5t19 19.5q20 22 97.5 52.5t114.5 42.5q38 12 137 13 q209 0 325 -84q18 -12 81 -98zM981 1034q1 64 -23 122t-55 87q-106 98 -272 98q-233 0 -342 -153q-12 -16 -27.5 -51t-21.5 -44t-7 -20q0 -16 15 -16t41.5 53t30.5 58t15 16.5t15 17.5q33 49 121.5 75t140.5 26q52 -1 139 -21t138 -82.5t51 -138.5t-33 -142.5t-86 -103.5 q-96 -66 -137 -83t-66.5 -29.5t-53.5 -22.5t-44 -18q-33 -14 -54.5 -55.5t-21.5 -80.5v-53q0 -20 22.5 -20t22.5 22l-4 49q0 93 121 131q33 8 89 43t77 46.5t42.5 26t56.5 42.5t53 61l24 44q33 52 33 116zM566.5 213.5q-0.5 -7.5 17.5 -38.5q18 -32 18 -38q0 -82 -41 -116 q-41 -33 -73 -33t-62 6t-68.5 43t-38.5 87t45.5 94t98.5 44q63 -7 83.5 -24t20 -24.5zM489 115q0 14 -11 26.5t-25 12.5q-25 0 -25 -33t30 -33t31 27z" glyph-name="question" horiz-adv-x="1208" unicode="?"/><glyph d="M872 178q-80 0 -168 30t-143 82t-69 91l-13 25q-35 61 -35 215q0 49 11 81q45 150 108 228q102 123 232 166q90 29 137 28q184 0 280 -90q6 -6 15.5 -22.5t17.5 -22.5q6 14 10.5 33.5t9.5 34t39 14.5q32 0 44 -2t37.5 -5t49 -12t23.5 -65q0 -57 -50 -204t-50 -252 t31 -121t71 -16t71.5 38.5t51 124t19.5 195.5t-36 201t-118 200q-32 44 -94 82.5t-70 44.5q-61 43 -154 47l-67 4q-16 0 -109 -10l-39 -4q-39 1 -73 -17t-69.5 -33.5t-53.5 -25.5t-51 -38.5t-72 -55.5q-40 -27 -102 -107t-113 -194t-51 -257t26 -237t82 -158t118 -102 t86 -48.5t52.5 -21t44.5 -18.5q97 -41 203 -41t172 37t80 39t41 19.5t49 17.5t45 -29q37 -63 37 -83t-16 -32q-180 -145 -383 -145q-41 0 -72 5t-85 9.5t-85 12.5t-209 86l-45 24q-328 190 -328 586q0 117 37 283q57 270 281 477q4 4 43 44.5t116 82.5t122.5 57.5t58.5 20.5 q74 27 270 26q14 0 82 -11t156 -38t229 -139q116 -85 196 -299q38 -100 48 -170l14 -109q0 -72 -36 -221t-127 -233t-236 -84l-51 -2q-102 4 -160 88q-8 -8 -26.5 -19.5t-26.5 -17.5q-82 -68 -261 -68zM1388 305q-126 -1 -126 143q0 84 12 136t14 80t18 88t29 100.5t25 75.5 t12 40t-11 12t-21 7t-15 -16l-41 -142q-57 111 -131 166.5t-186 55.5q-12 0 -101 -11q-49 -8 -135 -68t-106 -95q-4 -8 -33.5 -51.5t-47.5 -90.5t-18 -127t29 -161.5t90 -120.5q106 -70 216 -70t180.5 38t172.5 136q4 -78 50 -125t130 -47t150 45q84 66 115 123 q8 18 18.5 55t14.5 49q24 60 24 202t-25 215t-79 167t-99 129q-162 131 -251 165t-222 34l-39 -2h-24q-78 0 -190.5 -41t-170.5 -90l-12 -9l-2 -2q-56 -29 -91.5 -64.5t-70 -73.5t-49.5 -54t-56 -82q-40 -66 -56 -109q-76 -209 -76 -355t16 -193q2 -8 6 -28t8 -30l31 -61 q39 -86 65.5 -118t100.5 -97q63 -51 162 -92q8 -4 33.5 -19t50.5 -20q66 -27 100 -33l33 -6l90 -6q84 0 194.5 22.5t172.5 59.5q2 2 10 7t8 10t-10 18.5t-16 13.5t-24 -18q-20 -18 -43 -23q-23 -6 -52 -14.5t-37 -10.5t-31.5 -8t-60 -13t-94.5 -7t-74.5 2t-45 12t-45.5 13 t-27 6t-35 15.5t-52 22.5q-27 11 -67 35t-71.5 39.5t-47.5 26.5q-59 44 -132 156t-73 263q0 211 39 312l41 110q14 37 80 135l30 45q20 31 87 94t89 79t47 28t35 21q117 90 330 90q145 0 211 -25q76 -21 121 -61.5t82 -64.5t61.5 -52.5t30.5 -34.5t14 -20.5t12 -20.5 q117 -162 117 -360q1 -115 -23 -206q-24 -92 -31 -104t-18.5 -26t-11.5 -16q-39 -61 -103 -82t-98 -21zM1260 773q0 -13 -10 -61t-19.5 -101.5t-23 -102.5t-77.5 -100q-133 -111 -266 -111q-33 0 -51.5 10t-30.5 12t-70 26t-99.5 92.5t-41.5 154.5q0 10 3 26t12.5 105 t132.5 188q97 77 161 91q22 4 85 6q152 0 241 -138q54 -84 54 -97zM956 926q-68 0 -132 -47.5t-95 -110.5q-57 -123 -57 -198t53 -121t109 -46q56 -1 103 9q48 10 97 47q88 70 121 241l6 35q0 59 -33 94q-10 12 -20 27q-49 70 -152 70z" glyph-name="at" horiz-adv-x="1937" unicode="@"/><glyph d="M82 39q0 14 7 41t18 89.5t29 114.5t33 113t25.5 94t43.5 158t52 178t30 89t38 140t36 134t27.5 88.5t28.5 94.5t22.5 50.5t51.5 12.5h21q47 0 65.5 -16t123.5 -438q9 -38 26.5 -85t22.5 -76t30 -77t29 -84t38 -164q55 -205 99.5 -317t44.5 -140q0 -27 -29 -33l-92 -8 l-41 4h-16q-48 0 -59 50t-12 54t-3 14.5t-3 16.5t-4 14.5t-5 13.5t-12 20t-54 17q-45 3 -73 3l-152 -12l-35 4l-69 -4q-25 -1 -29 -7t-6 -13t-6.5 -42t-12 -82t-47.5 -47q-114 0 -148 8t-34 29zM899 120q1 26 -33 119t-42 137t-27 97t-22 73t-29.5 102t-39.5 110 q-12 28 -28 90q-23 91 -103 323q-29 106 -49 106.5t-24 -26.5q-12 -66 -33 -118l-14 -35q-7 -17 -15 -62q-25 -96 -31 -110t-16 -51t-22.5 -80t-15.5 -57t-10 -44t-7 -35l-49 -176q-2 -8 -8.5 -24.5t-12.5 -36.5t-20.5 -85t-24.5 -97l-37 -138q0 -16 33 -16q7 0 15 35t24 86 t21 78l88 -2l276 6q98 0 145 -8q16 -1 24 -23t22 -81t22 -71t25 -12q18 0 18 26zM500 319q-188 0 -209 3q2 18 12 54t12 52l11 49q0 2 2 2l16 60v2q18 78 26 99t20.5 79.5t22 83t15.5 56.5q6 31 13 51t43 133.5t40 117.5l8 19q18 -45 80 -246t103 -318.5t57 -183.5 q13 -37 25 -115q-109 2 -297 2zM426 416q0 -10 38 -12t159 -3q14 1 51 9q-28 106 -35 127q-8 19 -33 115t-61 216q-37 -37 -82 -276q0 -21 -3 -28t-9.5 -34.5t-15.5 -43.5t-9 -70z" glyph-name="A" horiz-adv-x="1110" unicode="A"/><glyph d="M1155 451q0 -98 -47 -236q-20 -55 -55 -82l-43 -41q-49 -47 -166 -69.5t-215 -22.5l-86 -2l-144 10q-33 2 -192 8q-31 0 -37 29q-4 16 -4 145v115l-4 78l4 127v72l8 161l-6 62v131q6 61 6 63l-4 109l6 96l-2 37l4 59v84q0 37 31 39l176 13l64 -2q219 0 257 -10 q39 -10 54 -9l33 2q27 0 83 -22.5t76 -38.5l92 -84q12 -12 24 -50t26 -68t14 -64l-6 -66l2 -27q0 -55 -42 -113.5t-93 -84.5q-4 -2 -11.5 -9.5t-9.5 -7.5l33 -22q57 -31 107.5 -97.5t58.5 -119.5t8 -92zM285 1307l-9 -172l3 -41l-7 -68v-61l4 -58l-6 -147v-86l-4 -92l6 -142 l-2 -65l6 -84l-4 -111q0 -66 1 -79t42 -13q135 0 269 6l104 4l123 11h8q10 4 36 9t38 11q129 76 149 221q11 83 11 99q1 16 -7 62q-19 118 -98 179q-15 12 -41.5 35t-55 34t-36.5 15t-10 4h-2l-2 4q80 37 89 46t64 53.5t55 153.5q1 109 -28 140t-38 40.5t-13 15.5 q-56 67 -146 91t-213 24l-151 -9l-33 2l-27 -2q-75 0 -75 -30zM458 123q-30 0 -59 2l-59 6q-18 0 -22.5 4t-4.5 25v37q-8 70 -8 108l6 41l-6 119v88q0 115 2 162t39 47h29l41 4l159 2l84 -2q57 0 76 -8t27 -11.5t19 -5.5t65 -27t100 -83q47 -58 50 -75t6.5 -39.5t8.5 -48.5 t5 -28l-6 -43q-19 -118 -28 -129.5t-16.5 -20.5t-11.5 -14q-41 -49 -71 -61q-79 -31 -237 -40t-188 -9zM973 1025q0 -9 -9 -38t-23.5 -50.5t-25 -31.5t-36 -29.5t-39.5 -31.5q-45 -39 -146 -39l-41 -2l-51 4l-37 -2l-106 2l-80 -4q-23 0 -72 4v42q0 42 2 60l2 101l-4 77 l4 62q0 69 5 105t36 40q33 4 49 4l134 9l13 -1l77 1q164 0 252 -78.5t92 -136.5t4 -67zM918 428q0 32 -10 70t-14 50q-5 11 -28 34q-45 55 -59 63q-76 39 -129 41t-115 2l-69 -6l-42 1q-42 1 -42 -24q-4 -54 -7 -391q0 -41 9 -63l174 -8q2 0 51 6l82 12q111 10 166 119 q33 62 33 94zM870 1055q0 29 -10 47v6q0 18 -38.5 65.5t-231.5 47.5l-72 -7q-86 0 -108 -4q-18 -38 -9 -249l2 -64q0 -18 8.5 -22.5t69.5 -4.5t113 2l96 9l41 -2q14 0 47 28q92 72 92 148z" glyph-name="B" horiz-adv-x="1284" unicode="B"/><glyph d="M1212 1220q0 -108 -41 -108q-25 0 -57 29q-12 10 -59 20q-127 37 -185 37q-156 0 -269.5 -90t-164.5 -242q-18 -48 -18 -154q0 -179 76 -274q86 -115 179 -164t207 -49t234 39q8 2 24 10.5t36 8.5t24 -15q14 -39 14 -90t-4 -81.5t-30 -45.5q-78 -41 -162 -45l-98 -10 q-322 0 -539 180q-99 100 -145 180t-80 234q-8 37 -9 149q0 233 131 414q92 127 125 150q79 59 219 96t179 37l16 -2l62 4q176 0 249 -45l52 -35q34 -30 34 -138zM857 1296q91 0 131 -11t65.5 -19.5t60.5 -17t35 11.5t-86 46.5t-117 26.5l-31 -2l-59 6q-57 -1 -142 -23 t-93.5 -26t-25.5 -13t-44.5 -22t-57.5 -45t-57.5 -55t-37.5 -32t-36 -50t-32 -55q-64 -158 -68 -197t-4 -102l6 -70q0 -20 8 -69l7 -25q6 -68 45 -129l55 -88q21 -38 139 -133q10 -8 70 -35q55 -31 64 -34t83 -19q84 -23 156 -23t158 18.5t86 63.5l-2 12l-11 7q-6 0 -10 -5 q-72 -41 -125 -41q-9 0 -23 -6t-57 -6l-61 4q-158 6 -318 109q-30 18 -61 49q-37 25 -119 160q-12 20 -23.5 69t-19.5 74t-8 135l8 94q2 41 37 118t57 110q82 104 189 174q16 10 97 37q81 28 172 28z" glyph-name="C" horiz-adv-x="1312" unicode="C"/><glyph d="M254 -4q-2 0 -16.5 1t-18.5 2t-27.5 8t-23.5 48v39l6 438l-10 273l2 145v27l4 192l-2 25q-2 55 -2 135t19.5 92.5t70.5 12.5l53 -4l137 8q45 0 132 -17l120 -24q182 -39 357 -217q47 -52 69 -102t41 -90t35.5 -80t16.5 -93l4 -125q0 -129 -41 -217l-6 -31q-6 -29 -35 -71 q-27 -49 -64 -84q-23 -20 -77 -72.5t-107 -95t-175 -81.5q-123 -40 -138 -40l-45 1l-113 -7l-131 4h-35zM319 82q121 0 238 10q45 6 153 44t171 88t135 138q10 10 35 62q43 72 46 90t18 59t15 123q0 173 -49 248q-4 8 -12 25.5t-13 27.5q-82 163 -170 207q-26 12 -33 17.5 t-11 7.5l-54 33q-16 10 -85.5 33.5t-86.5 25.5l-34 4l-27 8l-35 2l-55 13l-23 -5l-86 -6q-29 0 -43 -2q-41 -3 -43 -57t-2 -84l8 -98l-4 -78l2 -66l2 -188l-2 -105v-36l-4 -82l4 -117l2 -178l3 -82l-1 -41q-2 -41 41 -41zM1098 717q0 -182 -121 -328q-6 -8 -30 -41t-40 -45 t-45 -38t-59 -42q-158 -98 -348 -98l-56 2l-47 -4q-27 0 -30 35q-4 70 -5 311l2 35l-8 143l8 268l-10 224l8 123q0 25 25 32q74 12 90 12t67 -8t85 -12t59 -15t76 -22q75 -30 98 -53t47 -32t56 -42q33 -33 51 -57.5t26.5 -40.5t21.5 -46t25 -48t19 -34q8 -16 11.5 -35 t13.5 -51t10 -93zM506 221q149 0 334 148q20 14 32 28l56 80q27 35 43 100.5t16 118.5v68q0 57 -35 117q-4 9 -8 31t-54 86t-94 98t-77 52t-97 36t-110 18q-68 0 -81.5 -4.5t-18.5 -53.5q-6 -49 -6 -85l4 -58v-149q6 -135 6 -137l-10 -170l4 -58q4 -193 10 -231 q0 -35 86 -35z" glyph-name="D" horiz-adv-x="1359" unicode="D"/><glyph d="M719 719l-163 10q-54 0 -159 -12l-6 -365l-1 -14l1 -100v-11q0 -6 27 -6q51 -10 129 -10l78 6l15 -1l103 3l35 -4l78 4l27 -4l88 -2h53q54 0 61 -14.5t12 -23.5t6 -23.5t1 -31t-4 -48.5t-5 -45t-16.5 -19t-16.5 -6h-52l-66 4l-110 -8h-80l-31 2l-59 -10l-84 6 q-90 0 -164 8l-49 14l-48 -10h-65q-72 0 -84 11.5t-12 52.5l2 51l-8 121l6 370l2 222l6 69l-2 45q-2 16 -2 97l4 143l-8 143q0 33 2 49q2 29 35 29q140 0 179 7q40 7 120 7l94 2l168 5l94 -9l61 9q113 0 146 -11q18 -7 19 -33t1 -67v-32q0 -32 -1 -34t-3 -7t-8.5 -12 t-22.5 -9t-69 0t-72 2l-100 -10l-15 1l-110 7l-123 -6l-64 4q-23 0 -67 -4q-18 0 -19 -21l-8 -92l4 -35l-6 -127l4 -16h191l53 -8l51 8l111 -6l15 2l100 -4h51q39 -2 39 -94t-10.5 -102.5t-96.5 -10.5l-65 2l-62 6zM1014 102q0 25 -35 25l-78 4l-158 -10l-57 8l-51 -2l-94 8 q-31 2 -76 2t-57 -2l-66 8l-45 2v144l6 510q6 2 59 2l158 8l22 -1l171 -1l164 -8q51 0 51 18q0 10 -13 19q-14 8 -182 8h-23l-151 2l-103 -3q-102 -3 -155 1q0 110 -4 180l-4 90q0 33 10 180l176 6q176 0 264 -2l33 -2l107 4l59 -1q59 -1 59 13.5t-7 23.5t-132 10l-110 -11 l-74 8l-123 -4l-35 2l-96 -8l-82 -2q-8 0 -29.5 2t-32.5 0q-20 -4 -20 -21v-85q-4 -57 -4 -86l6 -428l-4 -95l2 -28l2 -246q0 -86 -4 -148t-4 -65q0 -35 37 -35l51 4l432 -14l76 6l141 -2q23 0 23 12z" glyph-name="E" horiz-adv-x="1236" unicode="E"/><glyph d="M1057 1361q0 -32 -4 -97q-4 -45 -90 -45l-64 -5l-21 2l-151 1q-39 -2 -121 -3h-53l-68 -4l-51 2q-18 0 -18 -20l-2 -143v-86q0 -39 10 -48.5t47 -9.5h12q61 8 90 8l111 -4l82 6q72 0 219 -4q29 0 31 -28l2 -25l-3 -74q-3 -75 -10.5 -82.5t-29.5 -9.5l-82 -10l-72 2 l-86 -6l-92 10l-147 -10l-45 4q-31 0 -33 -24t-7 -136t-5 -138t6 -52t6 -137l-2 -15l-4 -112q0 -16 -6 -40t-59 -26q-53 0 -71 -5t-30 -5t-53 10q-19 8 -19 46t-3 45t-3 83l-2 53l8 103l-4 141l-6 72l8 98l-4 51l2 123v176l-2 160q0 217 8 246q6 18 35 18l227 3 q228 2 247 10t44 8l62 -4q4 0 14.5 2t34.5 -4t57 -7l94 7q29 0 47.5 -19.5t18.5 -51.5zM977 1315q0 8 -8 18t-17 10q-362 -6 -364 -6l-103 4q-193 0 -206 -16q-4 -6 -5 -25l2 -51l-4 -233l4 -172l-2 -115l2 -133l-6 -147l4 -43l-4 -211q0 -106 11 -111q4 -2 10 -2 q20 0 20 39l-4 274l2 21l-4 22l6 37l-4 49l3 94q3 93 7 154l162 8h189l127 8l102 -4q55 0 55 25q0 20 -26 20q-238 0 -297 -6l-27 -4h-49l-5 1l-15 1h-52l-104 -6l-60 2q-6 133 -6 264l-2 95q0 4 6 120q178 10 213 11l131 -4l281 -3q37 1 37 15z" glyph-name="F" horiz-adv-x="1181" unicode="F"/><glyph d="M143 711q0 35 18.5 138t31.5 126q80 156 149 215q16 12 48 48t86 72t156.5 76.5t190.5 40.5l92 15h56q221 0 221 -96l-4 -86v-41q0 -41 -26.5 -41t-70.5 16t-98 20l-84 9q-17 0 -33 -4t-87.5 -13t-131.5 -42t-118 -91q-35 -27 -62 -75t-31 -58q-34 -42 -45 -92 q-16 -90 -16 -130t2 -63.5t9 -48t11.5 -40t18.5 -42t29.5 -59t38.5 -62.5l6 -10q14 -15 66 -59t75 -53q102 -37 135 -41t56.5 -11.5t77.5 -7.5t70.5 17.5t16.5 101.5l-2 57q0 164 -7 171t-46 7l-68 -6q-69 0 -67 47q-2 31 -2 95l-4 41q0 37 45 36q10 0 70 8t251 7 q46 0 54 -32t7 -68.5t-1 -40.5h2l-4 -103l6 -115v-235l-6 -94l4 -33q0 -33 -29 -39q-72 -27 -104 -29l-66 -12l-115 -4q-141 0 -309 49q-14 4 -42 20.5t-46 19.5t-39 15l-104 86q-16 14 -45 44t-39 40q-53 48 -85 132t-32 102l2 18q0 12 -6 19q-27 47 -27 168zM1102 297 l-1 -71q-1 -70 -30 -70l-29 -6h-4q-37 -8 -55 -9l-90 6l-37 -2l-47 9q-97 0 -129 16t-109 51t-135 103q-26 22 -52.5 76.5t-55.5 116.5t-29 120l-8 90q0 33 4 91t45 138l27 60q70 104 155 162q77 58 103 69q154 59 352 62h24l86 -15q6 0 13.5 6.5t7.5 14.5q0 35 -188 35 q-90 0 -205 -34t-139 -51t-57.5 -40t-43.5 -31t-16 -17t-33 -35t-43 -42q-131 -164 -131 -387q0 -152 47 -240q59 -121 122 -189.5t167 -116.5t192 -57t150 -10l51 2v-4l133 19q16 0 25 8q4 6 4 19t-5 46t-5 103l2 127q-5 118 -5 180t-4 84q0 28 -57 29l-125 -6 q-76 0 -76 -11q0 -29 29 -28l193 8q8 -78 8 -115v-94l4 -49l-2 -27z" glyph-name="G" horiz-adv-x="1394" unicode="G"/><glyph d="M1075 989v141l-8 56l4 45l-10 164q0 27 33 35q61 14 98 14q89 0 105 -27.5t16 -97.5l-4 -141l8 -234l-2 -102l10 -203l-8 -193q-4 -188 -4 -282l6 -86q0 -55 -22 -63.5t-68 -8.5l-88 -2q-27 0 -39 12t-17 47q-4 70 -4 207l1 26l-1 183l2 125l2 78q0 31 -8 35 q-30 10 -145 10l-137 -4l-191 6q-4 0 -194 -18v-29l2 -158l2 -41l-6 -65l4 -31l-4 -213l4 -98q0 -20 -4 -62q-4 -22 -88 -22t-106 11t-26 30q-10 51 -10 125l-8 372l4 156l-8 219l4 78l-4 96l2 43l-4 47l4 88l-2 80q0 31 1 45.5t13.5 32t36.5 17.5l15 -2l106 -3q57 0 59 -55 q6 -295 6 -297l-1 -9l6 -81l-5 -24l3 -5v-6l59 -4q47 -2 145 -2l158 4l104 -2l82 8q43 6 90 7l29 -3q2 10 2 31zM655 858l-204 -6q-70 0 -101 2t-35 33q-4 66 -4 96l-4 150l-2 51l4 131q0 23 -26 22q-12 0 -13 -14l2 -27l-4 -172l8 -190l3 -90l-3 -39l3 -53l-3 -113 q0 -248 -2 -373l-2 -26l7 -72l-5 -47q0 -33 20.5 -33t20.5 31l-6 221l2 115l-2 69l4 41v221q0 25 15 25l73 -4l279 8l94 -4q70 0 88 4t29 4l31 -2l28 -1l203 1q29 0 29 -4q2 -29 2 -88l6 -256l-6 -219l2 -55l-4 -70v-21q0 -22 22 -22t21 27l-4 309l6 131l-6 59l-2 189l2 116 l-7 265q0 92 -1 131t-23 39q-16 0 -16 -76t4 -96q4 -21 4 -46l-4 -53l6 -182q0 -6 -4 -27l2 -8l-95 -6l-159 4l-121 -6l-90 6l-27 -2z" glyph-name="H" horiz-adv-x="1499" unicode="H"/><glyph d="M195 68v53l-2 112l2 29l-5 94q-2 68 -2 201l5 109q-1 88 -5 100t-4 174l4 37q0 12 -6 24q4 20 4 31l-6 125l8 141q0 10 -2.5 41t5.5 61t55 30l37 2l59 -9q8 0 28.5 1t37 -5.5t16.5 -42.5l-2 -307l4 -154l-4 -36l4 -109l-2 -33l8 -305v-137l2 -25v-4l2 -102 q0 -111 -12 -144q-8 -18 -29 -20l-100 -8q-90 0 -95 37t-5 39zM299 1339q-12 0 -12 -20l4 -184l4 -242l-4 -137l4 -68l2 -442l-4 -117q0 -35 18.5 -35t18.5 31l2 197h2q-4 52 -4 138t2 161l2 38l-6 68l2 313l-6 50l2 25l-2 181q0 4 2.5 23.5t-27.5 19.5z" glyph-name="I" horiz-adv-x="585" unicode="I"/><glyph d="M476 -8q-28 0 -89.5 12t-107.5 35q-45 13 -93 63t-66 64t-18 34t12 34q12 16 72 57t69 41t43 -42t63.5 -60.5t46 -21.5t75.5 -13l27 -2q47 0 86 32q8 8 12 11q59 41 60 157l-4 53l6 152l-6 96l4 47l-9 136l5 94l-5 45v61l-8 121l8 76l-6 106q0 39 49 45q50 7 108 7 t70.5 -10.5t12.5 -69.5h4v-154l6 -55l-8 -80l2 -209l-4 -45l16 -90l-4 -78l8 -135q0 -55 -6 -95t-11 -79t-9 -60q-29 -135 -129 -213q-51 -39 -158 -63h-72q-24 -4 -52 -4zM758 1146q0 -13 2 -40l8 -287v-299q0 -215 -45 -280l-12 -19q-63 -96 -183 -108l-55 -7h-12 q-107 20 -153 60q-22 20 -31 28.5t-17 8.5q-20 0 -20 -19q0 -28 90 -73q61 -35 114 -37h35q116 0 156 27t62 40q22 12 53 68q31 41 32 63v9q20 143 23 213l2 47l-4 73l4 60q0 72 -4 219l-8 154l4 260q0 33 -35 32q-10 0 -10 -3l4 -68v-122z" glyph-name="J" horiz-adv-x="1056" unicode="J"/><glyph d="M993 1436q56 0 56 -23q0 -4 -75.5 -117.5t-120 -199.5t-83.5 -149t-39 -68l17 -52q2 -6 21 -70.5t71 -188.5t108 -292l37 -110q47 -140 47 -150t-16 -10l-53 2l-113 -2q-47 0 -59 23q-18 37 -44 113t-35 100t-42.5 106t-58 155.5t-44.5 108.5q-35 -35 -178 -288 q-8 -20 -8 -31v-219q0 -41 -2 -52q-2 -10 -13 -16t-141 -6q-68 0 -71 25q-4 14 -4 77l4 156l-4 479v213l-7 172l4 107l-4 63q0 72 2 103t25 32q25 5 57 5l84 2h33q33 0 33 -31l-4 -219l6 -174q0 -113 6 -230h2q20 33 74.5 114t146.5 239q88 141 172 282q12 20 41 21h172z M889 84q22 0 22 14t-44 126t-98 244t-62 153l-48 122q-4 10 -19 60.5t-28 75.5q6 7 28 45t36 57.5t54 88.5q46 80 98.5 160.5t52.5 100.5t-13 21q-16 0 -20 -17v-2l-4 -4l-64 -108l-22 -41q-14 -25 -43 -68t-83 -133t-72 -115t-29 -45t-26.5 -38.5t-27.5 -44.5 q-11 -26 -55 -84q-44 -60 -81.5 -121.5t-55.5 -88.5q-2 20 -2 64l6 164l-4 131l4 106l-1 13l1 100l-2 67q0 68 2 68l4 84l-6 41l1 33q1 33 -18 33t-17.5 -41t1.5 -43v-31l2 -160l-4 -121l2 -196l-8 -357l4 -73l-4 -207q0 -43 20.5 -43t20.5 24l-4 201l2 78q87 134 108 163 t32 51.5t27 43.5t40 63t94 144q30 -72 39.5 -109t16.5 -53t23.5 -52t23.5 -57t24.5 -63.5t25.5 -63.5l58 -133q6 -12 25.5 -66.5t38 -104.5t18.5 -52q8 -4 10 -4z" glyph-name="K" horiz-adv-x="1191" unicode="K"/><glyph d="M440 217l248 8q74 0 86 -4t18.5 -12t11.5 -18.5t5 -18.5v-72q0 -104 -66 -104l-63 4l-195 -8l-151 2h-66q-45 0 -63 8q-31 18 -31 137l-6 539l2 53l-2 45q-4 139 -4 209l2 90l-2 203q0 86 4 108q6 49 121 50q31 0 72.5 -8.5t41.5 -26.5l-2 -150l-6 -88l4 -135l-4 -188 l4 -146v-217l-4 -47q0 -121 8 -213h37zM727 109q0 27 -27 26l-180 -10l-147 2l-62 -2l-6 211l-4 332l2 92l2 219l-4 178v160q0 18 -12 18q-18 0 -19 -18l2 -39l-4 -145v-654l4 -92l-2 -98l2 -86q0 -79 3 -97t26 -20h6l53 -2l125 8l21 -1l143 3l39 -1q39 -1 39 16z" glyph-name="L" horiz-adv-x="935" unicode="L"/><glyph d="M1343 -6q-37 0 -54 19t-25.5 103t-12.5 118t-16 107.5t-26 239.5t-24 198q-9 33 -9 59t-6.5 47.5t-6.5 25.5q-14 -14 -31 -47t-95 -198q-79 -166 -91 -206t-92 -181q-16 -43 -41 -43q-12 0 -23 18q-95 151 -211.5 378.5t-140.5 264.5q-22 -186 -24 -267t-12 -234 t-11 -183v-63l-8 -82q0 -76 -123 -76q-37 0 -55.5 1t-40 16.5t-21.5 43.5l15 133q2 27 3 82.5t15 169.5t17 303q4 41 12 84l6 86q12 190 12 193l-2 43l10 84q4 53 9 151q2 20 22 38t56 18t60 -4t32 -12q6 -8 17 -32t41 -72t40 -68t24.5 -52.5t22.5 -46.5q123 -258 248 -469 q10 -16 14 -16q12 0 41 69.5t35 81.5t23.5 39.5t53.5 101.5t76 147q81 149 110 227t46 100q16 16 78 16t73 -7t15 -32l6 -41q2 -14 17.5 -112.5t15.5 -149.5l-2 -19v-6q8 -16 12 -65l10 -125l9 -60q2 -39 10 -109.5t16 -160.5t31 -256q18 -184 18 -188l-8 -54l2 -26 q0 -29 -28 -35q-31 -8 -134 -8zM1382 88q27 0 27 29q0 72 -14 125l-2 14l1 9l-5 57l-19 139l-4 53q-10 66 -12 132t-13 102l-2 14l1 9l-5 56l-18 140q-4 29 -9.5 86t-9.5 87t-4 90t-3 89t-29 29q-16 0 -20.5 -8.5t-28 -67.5t-44.5 -80q-12 -20 -47 -90t-53 -100t-80.5 -165 t-157.5 -317l-16 -31q-12 20 -33.5 62.5t-47.5 85.5t-175 334q-63 129 -101 189t-60 116q-23 57 -56 57q-15 0 -17.5 -22.5t-4 -32.5t-3.5 -34t-7 -106t-8 -110q-4 -28 -16 -176t-12 -154v-59q-12 -72 -12 -117v-69l-8 -86l-16 -250q0 -16 6 -17l18 3q17 3 17 14q4 14 4 49 l6 86l-4 29q0 2 2 6v4l14 170v47l6 80q0 43 6 90l6 49l-2 27l5 45q0 25 -2 49t13 119q16 94 23 179t11 105q149 -291 172.5 -329.5t33.5 -63.5t60 -115q33 -68 44 -83t21 -33l66 -131q38 -68 61 -68q18 0 37 47l74 172q63 139 119 238t69 133l35 82q0 2 23 40t73 132 q6 -25 11 -117h-2q8 -43 12 -125t10 -119l8 -49q2 -20 7.5 -80t7.5 -78t4 -47.5t7 -55.5t10 -97.5t9 -97.5l9 -50q2 -20 7 -80.5t9 -93.5l6 -78q6 -16 12 -16z" glyph-name="M" horiz-adv-x="1654" unicode="M"/><glyph d="M305 -10q-119 0 -119 61l2 262l5 70l-11 215l-8 174l2 31l-12 454l8 103q-4 35 10.5 52.5t32.5 17.5l96 2q33 0 57 -41t124 -189l77 -125q75 -115 135 -196t100.5 -144.5t86.5 -119t61 -89.5l47 -61q47 -61 52 -66l-4 148l4 41q2 31 2 96l-6 148l2 55l6 96q0 29 -7 81 t-8 142l-2 176q0 45 49 56q74 6 76 6l58 -6q27 0 44 -2t17 -14l-6 -189l6 -100l-4 -125v-189l-8 -102l8 -80l-8 -184l6 -166l-8 -92l4 -131q0 -29 -17.5 -44.5t-34 -17.5t-49.5 -2l-108 4q-29 0 -66 57q-47 63 -73 91t-35.5 45t-31.5 35q-23 18 -63 74t-83 108t-57 72 t-51.5 73t-59.5 80q-49 70 -86 131l-39 47l-6 -4v-160l4 -110l-6 -127l8 -72q2 -20 2 -127l6 -84l-8 -53l2 -29q0 -16 -2 -24q-2 -14 -25 -23q-82 -16 -88 -16zM1165 1337q-18 0 -18 -32l6 -80q0 -23 -8 -39q4 -16 4 -60l-10 -192l10 -98l-8 -60l2 -94l8 -70l-10 -129 l6 -106q0 -78 -8 -225l-107 141q-35 35 -55 59l-59 80q-14 20 -50.5 58t-46.5 52t-88 115l-43 68q-10 16 -41 54t-43 61l-55 90q-4 6 -13.5 18.5t-13.5 21.5t-18.5 28.5t-40.5 70.5l-21 21q-8 12 -21 46t-23 46t-28 34.5t-26 36.5q-10 27 -31 29h-6q-35 0 -35 -39l5 -219 q0 -102 2 -154l2 -112l-7 -279l5 -104q0 -154 10 -264q10 -20 14 -23q33 0 30 40t-3 44l-10 188q-2 0 -3 66l3 63q0 41 4 115v246l-7 80l5 43v15l-2 122l2 49l-1 15q-1 14 0 20t1 8q71 -117 122 -196l13 -19q2 -4 7 -5t7 -5q166 -260 201 -305t55 -86q6 -8 21.5 -24 t33.5 -40t92 -112t96 -118t38 -46.5t54 -72.5t54 -77q12 -14 33 -14t27 20q6 29 6 121l-2 90l10 244l-4 47l2 33l-6 82l4 72l-6 116l2 23v168l4 78q0 37 4 57l2 22q0 82 -29 82z" glyph-name="N" horiz-adv-x="1445" unicode="N"/><glyph d="M1610 631q0 -27 -14 -95t-36 -105t-40 -75t-52 -84.5t-46 -53.5t-29 -25.5t-77 -63.5t-114 -70l-104 -41q-68 -31 -189 -30q-4 0 -108 16l-6 2l-27 -4q-16 0 -46 10.5t-42 12.5q-137 27 -197 86q-2 2 -8 5t-11 7t-27.5 16.5t-38 22.5t-28 22.5t-50.5 41.5t-51 54 t-34.5 66.5t-33.5 61.5t-15.5 33.5t-5.5 29.5t-6 29l-10 45q-12 43 -12 49l2 18l-7 43q-4 37 -4 64q1 27 11 80t16 73.5t6 30.5l-2 19q0 12 12 32q14 20 22 41t30 63t36.5 64.5t32 41t27.5 27.5t38 30t42 33t28.5 27t25.5 24t29.5 19.5t44.5 23t78 36.5t107 36t156 12 q268 0 467 -162q4 -4 31.5 -28t33.5 -34t50 -58t98 -192q4 -14 20 -53t16 -74l9 -53l-2 -28l8 -56l-4 -26v-37zM811 96q160 0 281.5 46t223.5 142t134 156q68 125 68 328q0 66 -48 176t-122 186q-12 12 -47 52t-67 59q-32 21 -58 29t-52 22t-86 32t-111 18q-52 0 -161 -19 q-109 -18 -201 -74q-66 -45 -92 -59t-97 -106t-89 -169q-27 -137 -27 -196l2 -35l-2 -31q0 -8 9 -36q9 -27 19 -79q27 -144 115 -229l35 -37q213 -176 373 -176zM297 706q0 58 12 142q0 115 110.5 235.5t229.5 163.5q10 4 70 28.5t211 24.5q20 0 99 -22t101 -30 q22 -9 52 -20t62 -46t52.5 -52.5t25.5 -24.5t22.5 -28.5t25.5 -34.5q113 -168 113 -305l-10 -69q0 -8 -11 -66q-25 -135 -106 -221l-21 -25q-35 -44 -90 -84t-71 -49q-88 -41 -121 -53q-74 -29 -238 -29q-95 0 -132 28t-69 36t-71 41l-31 24q-84 69 -109.5 101.5t-35.5 57.5 l-22 50t-14 34t-7.5 39t-15.5 62q-11 34 -11 92zM1364 618l8 97q0 41 -18 107t-32.5 99t-19.5 50q-4 17 -38 51t-52 57q-31 41 -180 95q-53 18 -151 18l-52 -6q-113 0 -176 -31q-33 -14 -99 -79t-97 -111.5t-53 -114.5t-21 -72l8 -33l-4 -51q0 -125 78 -248 q20 -30 33.5 -43.5t23.5 -24.5t29 -26t64 -53t102 -44.5t81 -13.5q94 -27 285 29q23 8 43 25q72 43 84 59t36 44t51.5 62t41.5 79l17 55q8 20 8 24z" glyph-name="O" horiz-adv-x="1757" unicode="O"/><glyph d="M1157 923q0 -48 -12 -123t-29 -106q-70 -139 -142 -186q-72 -48 -106 -66t-74 -25t-61 -12t-59 -6l-70 2l-96 -10q-70 0 -107 -4q-3 -19 -5.5 -127t-3.5 -134t-1 -29v-56q-1 -45 -75 -45t-113 13t-39 50l-2 168l10 148l-6 145l4 94l-6 80l8 66l-6 135l-4 356v107 q0 35 19.5 52t39 19.5t58.5 2.5h180l45 -2l57 4q57 4 156 -13q207 -33 270 -102q6 -8 23.5 -21.5t25.5 -23.5q66 -84 94 -194t27 -157zM1059 922q0 78 -34 174t-120 157q-51 35 -53 35l-45 21q-1 0 -65 15t-93 15l-246 13l-106 -9q-35 -6 -35 -38l-2 -64l-2 -133 q0 -80 4 -244v-110l-2 -115l6 -287l-2 -78l4 -26l-4 -94q0 -55 29 -56q12 0 12 21l-2 125l2 39l-2 53l4 127l6 4h21l158 2q32 0 52 -1t118 14.5t146 33.5t85 55l33 23q21 15 43 49q66 82 78 174.5t12 104.5zM1020 952q0 -263 -129 -331q-2 -2 -4 -6.5t-4 -7.5t-5.5 -6 t-13.5 -12t-33.5 -21.5t-43 -20.5t-50 -15.5t-86 -16.5t-168.5 -9h-8l-13 2l-38 1l-113 3q-10 20 -10 109l2 57l-4 262l4 154l-4 84l6 98q0 31 8 35q6 2 15 2l104 4q30 0 66 -5t155 -12t166 -34q145 -82 173 -182t28 -132zM911 922q0 66 -26 131l-4 6q-10 29 -31 49l-39 43 q-63 63 -158 68l-96 10l-137 -4q-29 0 -29 -33v-293l-4 -90l6 -74v-121q0 -20 13 -24q41 -10 44 -10h22h116q53 0 123.5 24.5t97.5 61.5q23 27 37 36q65 48 65 220z" glyph-name="P" horiz-adv-x="1286" unicode="P"/><glyph d="M1438 246q0 -23 96 -127t96 -128t-55 -24l-139 2h-21q-72 0 -108.5 64.5t-45.5 64.5t-18 -8q-152 -98 -330 -98l-55 6q-8 2 -49 2t-85 11t-66 13t-84 37q-61 36 -85 35q-20 10 -65 45t-55 45t-28.5 26t-32.5 36t-58.5 85t-54.5 91q-9 26 -17 62t-20 81t-12 146 q-1 103 0 117t3.5 19t7 15.5t11 45.5t48.5 117q42 81 89 144q76 100 254 185q81 41 105 49q23 8 106.5 17.5t114.5 9.5l55 -5q33 0 78 -12t59 -14q90 -12 248 -115q12 -8 22.5 -22.5t18.5 -20.5q150 -135 180 -239q10 -39 22 -67t23 -102.5t11 -119.5l-9 -84l9 -29 q0 -43 -82 -223q-27 -57 -64 -105q-18 -18 -18 -28zM849 98q102 0 170 16.5t106 33t88 40.5t59 27l43 -55q14 -20 46 -53t45 -51t24 -17q27 0 26 18q0 10 -6 17q-106 113 -141 168q144 173 192 393q15 61 15 84l-9 78q-3 89 -46.5 164t-56.5 100q-29 55 -112 131 q-33 39 -159 88q-10 4 -29 14.5t-27 14.5q-23 2 -88 13t-110 11q-45 -1 -147 -19t-124 -27t-50 -25t-58 -32t-54 -42t-77 -90q-66 -90 -75 -114t-19.5 -63.5t-20.5 -60.5l-10 -147l6 -72l16 -98l-2 -13q10 -16 50 -92t69 -112q25 -24 43 -48t67.5 -59t86 -51t102.5 -43 t167 -27zM1473 739q1 -41 -13 -87t-20 -78t-12 -46t-19.5 -39.5t-23.5 -53.5q-13 -36 -58 -88.5t-55 -67.5q-94 117 -170 227q-18 18 -26 18t-34 -6q0 -10 91.5 -131t99.5 -133q-76 -48 -173 -78t-116 -33q-92 -6 -96 -6q-113 0 -204 42t-116 59q-76 55 -141 153 q-35 51 -41 77t-21.5 47.5t-18.5 42.5t-11 70.5t-8 57.5l-4 82q0 10 19 94q18 84 40 126t48 69q26 28 57.5 67.5t62.5 61.5q141 98 252 98l39 8q55 0 71 4t25 4l35 -6q20 -4 61 -7t79 -16t102 -49t84 -52q22 -17 61.5 -68.5t47.5 -66.5q7 -15 23 -29t30 -44t33.5 -106 t19.5 -117zM1378 711q0 47 -7 73t-11 65.5t-10 52.5t-16.5 23.5t-18 33t-35.5 61.5q-37 57 -82 82q-10 6 -28.5 24.5t-35 22.5t-49 22.5t-54.5 24.5t-63.5 9t-60.5 9h-18q-20 -4 -62.5 -8t-66.5 -8t-79.5 -23.5t-74.5 -31.5q-68 -51 -107.5 -92t-82.5 -121t-43 -133l6 -37 l-2 -74q0 -48 14.5 -79.5t14.5 -39.5t6 -19t15 -25.5t11 -20.5q24 -66 110 -140t105 -81q102 -49 142 -50q133 1 151 9t35 12q39 2 88 37q12 6 12 13t-84 117.5t-84 130.5t33 23l162 15q49 0 76 -39q53 -74 57.5 -91t26.5 -26q43 47 76.5 139.5t33.5 139.5z" glyph-name="Q" horiz-adv-x="1773" unicode="Q"/><glyph d="M1119 1210q75 -92 75 -257t-32 -228t-38 -77t-60 -74t-62.5 -65t-19.5 -10t-17 -10l-45 -36q70 -82 183.5 -235.5t113.5 -192.5q0 -16 -19 -19q-96 -18 -156 -18t-92 39q-29 39 -109 148.5t-147 186.5l-16 15q-12 12 -29 12l-24 -4l-62 6q-109 0 -130 -4t-21 -18v-156 q0 -129 -6 -193q-4 -31 -27 -38q-14 -7 -25 -7h-88q-78 0 -86 52q-4 27 -4 221l-14 270l4 64v174v44l-6 306l-4 248q0 68 22 80q8 4 21 4l137 -6l137 4q215 0 281.5 -11.5t95.5 -15.5t133 -68l47 -30q14 -9 89 -101zM1077 82q0 12 -10 34t-90 122q-128 184 -180 254 q70 31 166 112q23 23 63.5 84t46.5 88t16.5 63.5t10.5 133.5h2l-2 12q0 14 -27 94q-10 41 -33 72q-82 113 -137 139q-131 66 -328 66l-290 -8q-12 0 -17 -11v-2q-4 0 -4 -2l4 -78l-4 -153l6 -213l-6 -88l6 -262q4 -295 4 -443q0 -29 25 -28q8 0 12 2q6 12 6 18v141l2 72 l-6 115q0 33 3 39t28 6l31 -2l117 2l71 -6l176 12q19 0 45 -45q20 -29 87 -111.5t104 -141t52 -79t32 -20.5q18 0 18 12zM313 605l2 116v59l-4 113v172l-2 90v137q0 4 6.5 7.5t10.5 0.5q12 8 133 9h88q160 0 297 -45q68 -23 145 -109q2 -2 10.5 -25.5t16.5 -23.5l4 -4 q37 -108 37 -178q1 -70 -15 -112t-44 -90t-50 -67q-137 -125 -233 -147q-18 -4 -78 -4l-21 -1l-155 3h-21q-57 -4 -91 -4t-34 30q-2 29 -2 73zM466 1237h-48q-20 0 -21 -18l4 -78q13 -280 13 -391l-2 -95q0 -27 8 -92l149 6q131 0 267 95q40 28 72 100t32 119l-4 96 q0 14 -25 92q-27 70 -94 111t-145 45l-150 14l-39 -2q-12 -2 -17 -2z" glyph-name="R" horiz-adv-x="1357" unicode="R"/><glyph d="M1110 519q0 -50 4 -88t4 -40q0 -86 -78 -237q-14 -27 -36 -40.5t-44 -31.5t-106 -53t-125 -35l-53 2q-104 0 -230 45q-29 10 -122 63q-34 14 -48 28t-63 89q-70 106 -70 236q0 18 3 19l18 10q16 8 21 8h59q68 0 92 -1t33 -22q35 -119 37 -125q33 -61 107.5 -95t154.5 -34 q143 0 182 72l31 55q14 31 14 72q0 109 -61 139q-158 76 -248 96.5t-110 28.5t-60 14t-113 49q-29 16 -59.5 65.5t-45.5 89.5q-16 40 -16 118t25 148t35 83q106 152 278 180q108 17 128 17t173 -33q106 -27 166 -89t88 -171q0 -6 10.5 -44.5t10.5 -64.5t-11 -41.5t-65 -15.5 t-121 12q-27 6 -37 31q-6 12 -28 76t-76.5 86t-190.5 22q-57 0 -103 -34.5t-48 -90.5v-18l-2 -37q0 -30 26 -70t106 -71t90 -34t92 -15q81 -12 153 -47l108 -58q49 -25 85 -96.5t36 -121.5zM262 418q-18 0 -18 -19q0 -8 12 -45q8 -53 43 -104q39 -66 72 -84q4 -2 38 -24.5 t85 -30.5l116 -23q29 -4 43 -4q131 0 183 27q98 57 133 104q6 10 14 31.5t14 32.5q39 78 39 176q0 37 -16 90t-31 73q-17 20 -33 31q-16 12 -32.5 20.5t-25.5 14.5t-36.5 16.5t-63.5 30.5t-87 27l-53 18q-52 17 -74.5 17t-32.5 4q-111 49 -117 49t-37 20q-6 8 -32 21 q-2 2 -27 45q4 4 -2 4l-2 2l2 2l-4 4q-20 55 -21 82l4 74q0 6 24 61t65.5 85t105.5 49t106 19q44 0 113 -14t103 -36t64 -48q30 -24 35 -48t10 -29q5 -6 8 -18.5t5 -18.5q12 -8 19 -8h12q8 4 8 16t-14 49l-35 72q-8 11 -46 43t-47 34t-18.5 6.5t-15.5 6.5l-129 25 q-41 8 -61 8q-94 0 -217 -54q-47 -23 -87.5 -75t-48.5 -131l-6 -62q0 -43 17.5 -96t46.5 -74q111 -74 207 -102q12 -2 34.5 -5t40.5 -7t207 -74q14 -6 41 -21.5t41 -21.5q88 -41 88 -166l-4 -74q0 -18 -14.5 -56t-17.5 -49t-33.5 -52t-44.5 -46l-21 -10q-92 -51 -200.5 -51 t-202.5 43q-59 23 -99 76q-45 55 -59 119l-6 28l-6 17q-10 4 -12.5 6t-8.5 2z" glyph-name="S" horiz-adv-x="1255" unicode="S"/><glyph d="M117 1351q0 81 13 81l89 -2l320 4q86 0 249 -4l273 -5q20 0 31 -2q32 -8 32 -80l-4 -38q0 -2 2.5 -51.5t-41.5 -49.5l-141 -2l-59 -2q-95 0 -107 -1t-12 -7l4 -186l-8 -107l4 -104l-6 -50l6 -88l-6 -198l4 -121l-2 -279q0 -71 -100 -71t-122 18.5t-22 29.5l2 93l-4 156 l2 129q0 494 -7 628t-3 144q-72 10 -178 10l-158 -4q-49 0 -49 35q-2 43 -2 124zM1036 1318q0 15 -14 18t-88 3l-195 -6l-37 1l-256 1l-208 6q-23 0 -28 -6t-5 -20t16 -17q51 -2 154 -2l178 4q51 0 51 -8v-14l8 -49q2 0 2 -66l-2 -63l9 -152l-3 -43l3 -82l-5 -88l2 -157 q2 -86 0 -244t-2 -207l2 -41v-10q0 -22 23 -18t23 7v205l-7 140l7 59v43l-5 330l5 98l-11 176l4 47l-2 97l2 32l2 4q4 2 13 2l282 -2l58 -2q16 0 20 4.5t4 19.5z" glyph-name="T" horiz-adv-x="1245" unicode="T"/><glyph d="M614 258q211 0 211 326v67l6 137l-8 72q0 158 2 238l2 76l-2 206q0 27 14.5 39.5t27 13.5t44.5 1q131 0 142 -25q18 -45 18 -100v-105h-4l2 -45l-4 -49l8 -149l-6 -39q-2 -27 -2 -84l-1 -20l5 -142l-6 -115l-12 -112v-64q-43 -223 -205 -330q-82 -53 -228 -53 q-57 0 -136 19t-99 39t-52 43.5t-44 39.5q-117 152 -117 379q0 68 -9 215.5t-7 223.5v45q2 33 -4.5 95t-6.5 91l4 94l-4 86q0 58 15 58l100 -3l21 3q98 0 98 -25l8 -29l-1 -16l1 -45l1 -53l3 -82l-4 -25l12 -63l-6 -78l2 -219l-4 -33l1 -16l1 -109l6 -76l6 -67 q17 -144 73 -190t138 -46zM629 113q154 0 229 84q54 57 58 75t10 29.5t8 16.5t29 176q16 151 16 282v125l-10 82l2 76l-4 241l-1 18q0 19 -18 19q-18 -1 -21 -23t-2 -85.5t1 -78.5v-22q0 -22 -2 -28q6 -31 6 -62l-2 -61l6 -88v-252q0 -88 -19 -213l-8 -43q-8 -55 -40 -104 t-42 -60q-74 -63 -179 -63q-229 0 -275 129q-58 116 -58 151l-4 334l-4 100l-4 125l-4 58q0 12 4 32q-6 18 -6 230q-1 18 -21 18t-20 -22l4 -133l-2 -134l4 -84l-2 -65l6 -45v-105l8 -145l-2 -59q0 -16 14 -115t40 -149q26 -49 61 -87t152 -65q39 -10 92 -10z" glyph-name="U" horiz-adv-x="1210" unicode="U"/><glyph d="M1198 1411q0 -11 -38 -125t-46 -149t-12 -48.5t-10.5 -30t-38.5 -130.5t-86 -262q-61 -195 -76 -238l-33 -84q-57 -162 -76 -225q-12 -55 -41 -103q-10 -20 -47 -18t-49 2h-29q-30 0 -37.5 4t-19.5 12t-20 33q-57 166 -97 287q-27 94 -81 236t-102 294t-112.5 333 t-64.5 201q0 21 17 24t161 3q39 0 50 -15t19.5 -44.5t20.5 -57.5t101 -290l51 -135q53 -167 147 -410l13 25q60 155 91 269.5t41 138.5t66 220t61 212t13 29t10 22q14 33 58 37t110 4h8h43q35 0 35 -21zM222 1337q-16 0 -15 -19q0 -19 82 -250.5t88 -251.5t21.5 -55 t22.5 -59t29 -83t40 -123q96 -330 137 -387l6 -3h22q29 0 35 21q0 1 46 145t52.5 164.5t30 105.5t42 127.5t35.5 112.5q18 70 28 92t44 132q44 144 76.5 223.5t32.5 87.5q0 23 -28 22q-16 0 -23 -14l-10 -37l-64 -182l-18 -68q-16 -49 -20 -63t-19 -50.5t-40 -119.5 q-24 -84 -47 -160t-49.5 -153.5t-44.5 -143.5t-36 -110q-18 -45 -29 -44.5t-37 68.5t-79.5 235t-67.5 210l-29 67q-4 8 -10 28.5t-10 28.5l-49 140q-29 82 -40 122t-32 92l-49 138q-8 14 -24 14z" glyph-name="V" horiz-adv-x="1284" unicode="V"/><glyph d="M1548 1399q0 -6 -18 -89t-31.5 -164t-23.5 -123t-21.5 -129t-56.5 -283t-62 -277.5t-32 -126.5t-25 -96.5t-21 -75.5q-13 -35 -79 -35t-100 2t-52 30t-42.5 118t-76 341.5t-84.5 358.5q-8 -18 -14 -51t-38 -162t-34 -133l-37 -148q-6 -20 -18 -71t-20 -79t-20.5 -83 t-20.5 -84q-10 -41 -46 -41h-131q-35 0 -51.5 12t-38.5 133q-42 190 -80 326q-23 111 -81 414q-21 72 -25 101q-4 28 -21.5 100t-21.5 98t-23.5 104t-19.5 111t107 33t120 -10.5t19 -48.5q6 -39 14 -77t29.5 -134.5t23.5 -106.5t25.5 -129t35.5 -158q12 -40 15 -64 q4 -24 18.5 -79.5t16.5 -74.5t6 -26q10 26 24 84t30 121.5t21 88.5t11 68.5t10 63.5l21 92q55 279 71 336q12 41 80 41l29 -2l55 2q48 0 64 -35q16 -36 32 -138t35 -178q20 -76 111 -425l29 -104h6q6 27 21 121t42.5 222t57.5 288t51 218q12 39 51 39l143 -4q41 1 41 -22z M1416 1323q-16 0 -26 -31.5t-16 -73.5t-9 -52t-7 -42t-18 -68t-30 -126t-21 -112t-14 -70t-13 -64l-19 -78q-6 -29 -16 -86t-19 -86l-26 -100q-2 -6 -4 -17.5t-4.5 -20.5t-4.5 -17l-32 -105q-25 46 -35 98t-22 95t-54.5 203t-56.5 222t-29.5 138t-48.5 200t-37 148 q-6 37 -43 37q-18 0 -25 -19l-18 -55q-41 -147 -74 -309l-22 -115q-2 -10 -31 -119.5t-34 -140.5t-18 -79t-35.5 -156t-35.5 -125l-8 -4q-4 12 -10 38.5t-13 38.5q-25 86 -34 129q-25 84 -25 100t-12 46q-4 20 -17.5 63t-19.5 70t-19.5 89.5t-20.5 84.5t-9 54t-6 44l-31 129 q-25 92 -53 234q-2 25 -33 24q-12 0 -12 -6t15 -69.5t33.5 -140.5t21.5 -91t5 -32t7 -38t17.5 -80.5t18.5 -82.5l25 -99l21 -87.5t31 -118.5t28 -113q72 -258 77 -263t13 -5q33 -1 43 25t18.5 74t13.5 62t8 36t5 30l16 74q2 6 21.5 81.5t20.5 99.5q1 33 37 163t65.5 273 t40.5 181.5t24 34.5q7 -10 97 -381t108 -427t33.5 -135.5t19.5 -97.5t8.5 -31t5.5 -17t8 -15.5t33 -11.5q27 0 33 23q49 142 61 198t40 207l8 33q25 68 41 170q17 102 25 143t19 79t19.5 81t15.5 69t21 105l15 61q0 25 -16 25z" glyph-name="W" horiz-adv-x="1615" unicode="W"/><glyph d="M1065 1331q-1 15 -17 15t-22 -11l-61 -98q-6 -12 -22.5 -33.5t-24.5 -37.5t-84 -134q-16 -19 -32 -51.5t-30 -50.5t-47 -74q-18 -39 -51 -74q-72 103 -95 146t-87 128t-162 267q-10 18 -28.5 18t-18.5 -10t83 -144t179 -283.5t104 -164.5q-43 -72 -126 -204t-116 -187 t-53 -91t-39.5 -65.5t-36 -54t-16.5 -29.5t10.5 -11.5t16.5 -6.5q13 0 33 34t53 81t53 93t45 80q24 33 33.5 54t14.5 28t130 204q16 35 23 34l8 -14q8 -14 13 -20t15 -24t73.5 -104t122.5 -211q60 -125 124 -204q20 -27 36 -27t15 21q0 8 -50.5 80.5t-112.5 183.5 q-62 110 -96 157.5t-42 65.5t-43 70l-18 37l-19 30q10 18 35.5 55t59.5 96q34 58 52.5 87t22.5 39t36 58t51.5 83t63.5 97t44 77zM1207 1427q42 0 46 -2q0 -8 -49 -69q-48 -82 -64 -112t-53.5 -88.5t-82.5 -123.5t-72 -107t-50.5 -80t-33.5 -44q-10 -5 -10 -17t-4.5 -18 t-10.5 -12t-8 -11q23 -45 49.5 -80t33.5 -51t51 -90t103.5 -174t77.5 -126q152 -209 152 -216q-24 -6 -114 -6t-122 2q-44 3 -59 29.5t-65 97.5t-58 83t-26 42t-34 54t-23 38t-17 24t-21 34t-61 102q-50 -60 -104 -149t-65 -107t-38 -56t-37 -56t-30.5 -59t-33.5 -59 t-30 -20q-94 -4 -173 -4t-89 8l31 45q31 47 41 71.5t32 55.5t31 55q42 76 71 113.5t45 69.5t50 75q17 25 27 47t14 29.5t10 17t10 15.5t37 63.5t51 86.5q-80 111 -86 125t-20 34l-252 410q-33 47 -43 69t-18 29h-2v2q3 6 4 6l30 -2l84 9l11 -2l79 -3q45 0 52 -10 q10 -23 40.5 -65t40.5 -60t26 -41.5t32 -50.5t76.5 -117t89.5 -141q2 4 13 17.5t16 21.5q10 2 13 12t39 64.5t36 62.5l-2 4q49 66 62 96t36 62q23 33 34 57q11 25 46 72q10 18 35 18l81 -6l43 4q37 2 79 2z" glyph-name="X" horiz-adv-x="1363" unicode="X"/><glyph d="M541 424q0 154 -41 221q-25 47 -133 223q-74 127 -151 284t-110 208q-10 29 -24 53v8q12 17 213 19q27 0 37 -19q47 -71 132 -233t185 -328q10 -14 35 -43q4 8 22 40t42 83t115.5 228t107.5 212.5t22 38.5q53 27 224 27q24 0 30 -10v-6q-123 -260 -215 -422t-207 -379 l-14 -31q-18 -33 -20 -110q-6 -215 4 -386l6 -61q0 -12 -10 -45t-230 -12q-27 0 -26 24v8l2 150l-7 43l9 108q2 35 2 107zM670 651q-14 1 -42 57t-50.5 91t-32.5 53t-34.5 60t-92.5 150t-146 271q-8 21 -27 21t-20 -13q0 -25 420 -735q4 -70 4 -102l4 -211l-6 -187 q0 -35 29 -34q18 0 18 55l-4 113l4 63l-2 66q0 143 -2 215l2 18q4 10 22.5 32t21.5 28t15.5 25.5t15.5 26.5t7 17t30 54q26 43 60 111q33 68 58 110l90 161q10 18 38 78t40 77t15 24.5t5 11.5q-4 23 -23 22q-10 0 -13 -6t-34 -70t-75 -141q-43 -77 -50.5 -93t-16.5 -30 t-29.5 -55t-32.5 -61t-34 -62q-22 -41 -48.5 -86t-33.5 -59t-25.5 -40t-24.5 -26z" glyph-name="Y" horiz-adv-x="1308" unicode="Y"/><glyph d="M371 1198q-56 0 -86 -4h-88q-39 0 -45 80l-9 98q0 49 101 49l28 -2h7l36 6h9l114 7l58 -11h104q190 0 287 2l31 2q38 0 38 -96q0 -97 -4 -121t-42 -93t-62.5 -120t-36.5 -75l-117 -234q-231 -441 -231 -453l4 -4l350 -6l72 2q41 0 59.5 -12t18.5 -51q0 -104 -6 -154 l-234 -14l-217 4l-125 -4l-113 4l-49 -2q-51 0 -57 59q-4 78 -4 109q0 32 9 50t157 283t207 412q10 25 38.5 80t39.5 89t40 104v10l-49 2l-59 -2l-80 10q-38 -4 -94 -4zM891 114q0 19 -10 23h-4q-20 -4 -35 -4l-148 4l-9 -1l-67 3l-43 -6h-73l-90 4l-38 -2q-38 -2 -55 4 q84 200 106 240q23 41 30.5 59.5t11.5 26.5l43 88q2 4 8 12.5t9 16.5t48 94q43 72 59 120t35 88t25 57t34 71t57.5 111t38.5 76t26.5 42.5t17.5 46.5v4q4 33 -41 33l-217 2l-192 4l-109 -2q-4 0 -40 3t-36 -27q0 -18 25 -19l113 6l75 -6l172 4h168q18 0 29 -4 q0 -31 -20.5 -66.5t-27.5 -54.5t-40 -72t-103 -214q-69 -161 -92.5 -202.5t-31.5 -60t-122 -244.5t-114 -249q0 -33 70 -33l53 4l96 -4l60 6l149 -4l101 6l51 -4q47 1 47 20z" glyph-name="Z" unicode="Z"/><glyph d="M614 -262q0 -94 -24 -96q-12 -2 -20 -2l-134 -11l-19 1l-136 1l-50 4l-24 -2q-18 0 -30.5 13.5t-12.5 29.5l4 101q2 70 1 207t1 206l6 80v176q0 358 -4 537l-4 113l2 135l-6 123q0 31 13 59.5t40 26.5l86 -2q8 4 90 4l74 -6l27 4l77 4q29 0 35 -10.5t8 -40.5l2 -101 q0 -61 -26 -61l-154 -4l-20 2l-2 -25q-2 -74 -2 -221l6 -166l-6 -500q0 -8 2 -33.5t-2 -74.5t-4 -53l6 -72l2 -166l-4 -61q0 -12 51 -13l47 9l5 -1l40 1q47 0 53 -10.5t6 -104.5zM526 -250q0 25 -22 25l-82 -2l-33 -2h-80q-2 41 -2 120v250l2 166q0 201 -8 363l-2 86l2 209 l-4 125l2 24q0 166 6 191l12 2l111 2h94q2 6 2 16q0 18 -26 18h-107l-31 -2l-36 2l-31 -2q-19 0 -25 -11t-6 -281l4 -91v-161l13 -508l-5 -39v-412l-4 -69q0 -25 8 -30t95 -5l59 4h88q6 6 6 12z" glyph-name="bracketleft" horiz-adv-x="739" unicode="["/><glyph d="M877 34q0 -22 -27 -32t-47 -10h-2q-92 0 -115.5 15.5t-32.5 27.5q-31 51 -67 168q-33 84 -125 300t-131 310l-146 365q-6 14 -17 40.5t-20 48t-27 60.5t-18 65t37 33l119 11q31 0 51 -35q20 -47 50 -126t76 -183t72 -171q25 -67 63 -149t58 -127t74 -191.5t86 -222.5 q89 -175 89 -197zM772 68q0 12 -37 92t-45 100l-37 102q-6 24 -14 38t-17 39t-26.5 62.5t-24.5 53.5l-24 57q-7 16 -25 64t-39 99.5t-35 85.5q-14 35 -42 101t-41 103t-21 53l-94 207q-2 2 -4.5 13.5t-19.5 11.5t-17 -17l102 -221q4 -10 9.5 -32t69.5 -166t96 -233t44 -125 t34 -79t82 -199t67 -168q8 -12 19.5 -31.5t21.5 -21.5q0 -1 9 -1t9 12z" glyph-name="backslash" horiz-adv-x="978" unicode="\"/><glyph d="M561 446v-176l6 -80q2 -68 1 -207t1 -206l4 -101q0 -16 -12 -29.5t-31 -13.5l-24 2l-49 -4l-20 1l-136 -3q-3 0 -41 5t-69 5.5t-44 2.5q-25 2 -25 96t6.5 104.5t53.5 10.5l6 -1l39 1l47 -9q51 0 52 13l-4 61l2 166l6 72q0 4 -4 53t-2 74.5t2 33.5l-7 500l7 166 q0 147 -2 221l-2 25l-21 -2l-90 2q-90 2 -90 63l1 73q1 73 15.5 76t18.5 3l88 -4l26 -4l74 6q82 0 90 -4l86 2q27 2 40 -27t13 -59l-6 -123l2 -135l-4 -113q-4 -178 -4 -537zM211 -250q0 -6 6 -12h88l60 -4q86 0 94 5t8 30l-4 69v412l-4 39l12 508v161l4 91q0 283 -7 287.5 t-14 4.5h-10l-30 2l-37 -2l-31 2h-106q-27 0 -27 -18q0 -10 2 -16h94l111 -2l12 -2q6 -25 6 -191l2 -24l-4 -125l2 -209l-2 -86q-8 -162 -8 -363l2 -166v-250q0 -80 -2 -120h-80l-33 2l-82 2q-22 0 -22 -25z" glyph-name="bracketright" horiz-adv-x="739" unicode="]"/><glyph d="M123.5 757.5q0.5 18.5 70.5 160.5t117 206q39 60 74 140q6 10 31.5 52t41.5 72t44 39t112 9t101 -17q88 -88 166 -231l96 -180q14 -29 52.5 -92.5t60.5 -103.5t22 -60q0 -27 -188 -27q-35 0 -64 37t-82 147q-90 155 -108 178q-19 23 -37 61t-35 52q-27 -49 -101 -196 t-132 -242q-14 -27 -48 -27l-57 4l-50 -1q-50 -1 -67 1q-20 0 -19.5 18.5zM595 1360q-30 0 -38 -8.5t-22.5 -30t-38.5 -53.5t-91 -156.5t-105 -181.5q-38 -56 -38 -76t17 -20t21.5 18t11.5 30t39 58.5t44 73.5q150 299 195 299l6 2q18 0 45 -39l27 -27q41 -41 106 -151 t106.5 -172.5t53.5 -89.5t29 -27q16 0 16 19t-30.5 64.5t-51.5 77.5t-76 123t-81 126q-27 36 -107 131q-8 10 -38 10z" glyph-name="asciicircum" horiz-adv-x="1234" unicode="^"/><glyph d="M877 -140q0 -56 -15.5 -71.5t-52.5 -15.5l-111 -2l-716 -2l-86 2h-27q-43 0 -43 81t6.5 89t163.5 8l350 -4q398 0 434 -1q36 0 66 -14t31 -70zM776 -134q0 15 -43 15l-239 -6h-93l-299 2l-57 2l-88 -2l-29 1q-30 1 -30 -18t47 -20l23 1l145 -1l96 4l74 -4l104 2l188 -4 q187 0 194 6.5t7 21.5z" glyph-name="underscore" horiz-adv-x="702" unicode="_"/><glyph d="M0 1411q0 23 97 23t133 -3t57 -30q143 -195 143 -246q0 -20 -43 -20l-117 4q-46 0 -94 59q-84 115 -145 168q-31 31 -31 45z" glyph-name="grave" horiz-adv-x="430" unicode="`"/><glyph d="M770 927q0 -7 22.5 -89t49 -176.5t28.5 -104.5l33 -96q10 -31 29.5 -100t59.5 -184t40 -145t-28 -30q-35 -4 -113 -8v2h-39q-47 6 -53 55q-2 10 -31 109q-6 25 -33 26q-129 6 -133 7l-106 -7l-43 4l-66 3q-20 0 -28.5 -6.5t-22.5 -67.5t-21 -89t-33 -33t-82 -5 q-118 0 -118 33q0 6 23.5 102.5t31.5 114.5q7 18 23 86t42 145q26 76 35.5 120t18.5 60q10 16 13 46t6 43t24 74t23 75t3 26.5t4 21.5l11 35q12 34 28 114t38 124q20 42 34.5 99t21.5 79t16 28.5t40 8.5l70 5q43 0 67 -118q12 -60 78 -265q9 -47 23 -81t14 -41zM924 112 q0 17 -34 120.5t-38 127.5t-39 101q-6 16 -15.5 58t-21.5 73t-22 70t-27 73q-8 23 -25 87t-36 117q-19 52 -52.5 149t-33.5 118t-10.5 42.5t-29 21.5t-28.5 -38t-26 -91t-20 -75t-22 -82t-21 -66q-3 -7 -25 -83t-25 -93q-4 -17 -11.5 -47.5t-7.5 -35.5l-153 -557 q0 -16 30 -16q13 0 28 69.5t21 94.5t39 24l207 -4l138 4q82 0 147 -8q23 -4 31 -22q39 -134 43 -142t22 -8q17 1 17 18zM309 330q0 22 16.5 77.5t18.5 69.5t4 23.5t6 20.5t14 55t20 68q10 26 20 63q11 70 21.5 95t15.5 55q5 29 17 65t22 72l15 54t21.5 63.5t24.5 68.5 q23 -68 50 -142t32.5 -103t11.5 -47q7 -18 29 -90t47.5 -150.5t36 -109t26.5 -84.5t27.5 -84t13.5 -46l6 -17l-114 -4q-186 0 -375 6q-27 -1 -27 21zM545 866q-33 -33 -82 -278q0 -20 -6 -37t-19.5 -66t-21.5 -71l2 -11q214 -12 266 3l-14 47q-10 41 -35 112.5t-39 125.5 t-51 175z" glyph-name="a" unicode="a"/><glyph d="M574 -4l-99 2q-99 2 -134 8q-36 6 -75 6h-30q-23 0 -42.5 16t-19.5 48l2 231l-6 64q0 48 10 190v10q-8 14 -8 35l8 109l-6 49l4 84l-8 102l4 74l-6 90l-4 172l2 66l2 30q2 47 80 48l59 -3l150 5l45 -2l65 6l66 -9l143 7q35 0 109 -25l41 -14q26 -11 50.5 -33.5 t33.5 -28.5q66 -55 84 -126t18 -113t-9 -72t-25 -68q-17 -37 -57 -77.5t-67 -53.5q4 -4 29 -20q57 -29 97 -88t46 -97t18 -62q11 -24 11 -75l-4 -30q0 -131 -35 -193q-87 -155 -151 -174q-84 -32 -117 -46t-131.5 -28t-142.5 -14zM1055 455q0 162 -86 229q-8 6 -25.5 21.5 t-40 32t-79.5 34.5q-56 17 -62 16l37 13l18 10q18 12 23 14q141 78 159 181q2 10 8.5 40.5t6.5 47.5q0 106 -82 173.5t-128 75.5t-173 9l-129 4q-131 0 -195 -10q-41 -8 -41 -50l-4 -57l4 -51l-4 -123l8 -203v-100l-2 -45l11 -352l-5 -29l5 -86l-5 -70q0 -80 58 -80l51 2 l15 -2h91l46 -2q148 0 159 11q143 0 214 52t109 133t38 161zM1016 481q0 -94 -35 -164.5t-66 -95.5q-80 -61 -137 -69q-156 -20 -274 -21l-150 8q-20 0 -28.5 12t-8.5 142l-6 92l2 66l-6 141l8 139q0 35 39 35h97l73 4l78 -6q131 0 168 -12l33 -9q33 -8 102 -53 q111 -74 111 -209zM973 1087q0 -23 -2 -34q-6 -94 -100.5 -163t-183.5 -78t-249 -9l-125 8q-8 87 -8 277t-2 215l82 14l147 6l162 -8h29q20 -4 72.5 -9.5t85 -42t39.5 -42.5q53 -40 53 -134zM537 213l127 10q78 0 127 33.5t85 95.5t37 113l-2 29q-12 111 -62 147.5 t-167 44.5l-121 6q-148 0 -151 -28l6 -101q0 -4 -6 -219v-98q2 -14 4 -17.5t53 -9.5t70 -6zM544 879q106 0 167 7q61 8 112 66t51 142q0 41 -30 75q-49 63 -164 64l-197 -4l-63 2q-14 0 -19.5 -7.5t-5.5 -144.5l4 -135v-61q39 -4 145 -4z" glyph-name="b" horiz-adv-x="1288" unicode="b"/><glyph d="M1159 293q58 0 58 -135q0 -74 -39.5 -101.5t-51.5 -27.5q-12 -8 -73.5 -22.5t-79.5 -14.5l-115 10q-54 0 -198 32t-270 126t-173 211q-20 45 -47 117t-27 214t49.5 267t129.5 205l47 55q71 71 151 111t100 45t92.5 26t151.5 21q182 0 316 -91q31 -18 30 -90v-51h2v-55 q0 -55 -32 -55q-12 0 -66 32q-90 64 -238 64t-265 -65.5t-167 -198.5q-2 -8 -21 -47t-20 -177q0 -84 61 -221t206 -207q61 -28 88 -32t112 -5l50 -2q43 0 130 31t109 31zM852 1294q96 0 160 -28q94 -47 110 -47t17 16q0 23 -92.5 58.5t-124.5 35.5l-76 4q-31 0 -120 -17.5 t-114 -29.5q-111 -57 -143 -94q-7 -8 -63 -57t-87 -119l-55 -144q-18 -51 -18 -196q0 -2 18 -101l6 -20q6 -68 66 -168l35 -53q9 -17 30 -35.5t30 -28.5t37 -28t44 -32t74 -42q99 -48 139 -47q85 -23 141 -23t135.5 10.5t107.5 26.5t15 41q-6 6 -12 6q-37 -19 -78 -24 q-70 -16 -137 -17l-61 4q-156 6 -316 109q-10 6 -31.5 23.5t-32.5 24.5t-24.5 21.5t-28 35t-22.5 34t-22.5 38t-21.5 35.5t-13.5 32.5t-12.5 49t-14 53.5t-8 136l6 92q0 39 20.5 81t38.5 82t37 63q76 102 187 172q16 10 61 24q117 43 213 43z" glyph-name="c" horiz-adv-x="1320" unicode="c"/><glyph d="M168 540l6 124l-10 288l8 240l-4 108v30q0 30 3 39t6 18.5t18.5 25t89.5 17.5l63 -5l64 2q78 0 176 -15t147 -44l51 -22q80 -28 148 -86t113 -99q23 -25 43 -63q88 -137 98 -219q0 -7 11 -57t11 -81l4 -77v-7q-8 -99 -40 -181t-44 -100t-33.5 -54t-41.5 -51t-92 -81 q-82 -66 -120 -87t-73 -33q-176 -61 -262 -64l-129 -8q-14 8 -33 8l-55 -4q-43 0 -71 10t-36 19.5t-10 24t-3 24.5t0 29.5t1 23.5l8 80l-4 66v124q0 91 -4 109t-4 28zM1100 823q-37 164 -109 250q-19 29 -29 36t-19 19.5t-54 51.5t-118 70q-73 30 -113 50t-138 29 q-98 8 -99 8l-22 -2l-51 4l-49 -6q-25 0 -25 -5l-8 -116q-4 -143 -4 -215l2 -19v-140l2 -30l8 -212v-21v-153l-4 -168l4 -53l-4 -38q-4 -38 6.5 -52.5t18.5 -14.5l90 -4l57 -2l138 14q24 0 66 16t60.5 20.5t26.5 9.5l31 18q25 8 57 35q31 20 49 31t73 64q56 53 71 77 q14 24 35.5 58t26.5 51t20.5 64t15.5 137q0 89 -12 138zM350 1296q134 0 188 -6t107 -28t74.5 -29.5t32.5 -13.5l90 -56q57 -37 78.5 -60t45.5 -59t31 -54t17 -34t16 -32.5t11.5 -35t18.5 -48.5t13 -154t-47 -213l-20 -37q-12 -27 -44 -60.5t-42 -45.5q-74 -80 -203 -138.5 t-238 -58.5l-39 2l-61 -6q-63 0 -66 37q-4 47 -4 145l2 56l2 204l-2 275l-6 145v4l2 19l-4 55v4l2 4q-2 16 0 103.5t6 115.5h39zM979 676q0 16 -4 44t-19.5 148.5t-186.5 229t-312 108.5h-29q-16 -2 -21.5 -7t-5.5 -155l7 -213q0 -168 2 -251l6 -82l-6 -117l6 -123 q2 -20 7 -25.5t26 -5.5l65 -2q96 0 254 103q72 47 96 80q115 145 115 268z" glyph-name="d" horiz-adv-x="1357" unicode="d"/><glyph d="M1004 209q76 0 92 -18.5t16 -73.5q0 -113 -53 -113l-111 -8l-88 6l-137 -4q-221 0 -332 -2l-178 -4q-51 0 -51 45l2 23l-2 159l10 45l-8 152l4 76q0 2 -6 346l-2 82l4 116l-14 205l4 43l-4 29q0 111 75 110l142 7l245 2l82 -5l146 7l63 -7l125 3q23 -2 32 -10.5t9 -30.5 l-4 -64l2 -33q0 -36 -28.5 -47.5t-34.5 -11.5h-62l-326 6q-186 0 -201.5 -9t-15.5 -24l-8 -162h2l-2 -92q0 -29 19 -28l92 -2l262 4l143 4q88 0 90 -34t2 -79t-10 -64t-28.5 -19.5t-65.5 -3.5t-92 -3l-76 2q-2 0 -143 -6q-164 0 -173.5 -7t-9.5 -30l5 -174l-9 -219v-72 q0 -27 18.5 -26.5t55.5 3.5t55 3l82 -6q160 0 240 7t156 7zM1022 94q0 25 -45 25l-240 -2q-135 0 -274 -6v4q-135 0 -145 12t-11 43l4 219l-8 96l4 111l-4 84q0 84 4 127h64l63 -4l156 4h74q173 0 237 8q17 2 17 18t-13 17h-127l-63 -4l-45 2l-95 -4l-202 2q-45 0 -70 2v78 l-4 82l2 32l-8 183l2 73q143 10 178 11l55 -2l312 6l67 -4q72 0 72 12q0 24 -7 24h-118l-51 5l-266 -7l-66 5l-156 -7q-63 0 -63 -36l2 -25l4 -131l-2 -25l10 -250v-67q2 -68 0 -68l-2 -71l2 -127l-2 -41l6 -146q0 -193 2 -229q2 -47 54 -47l163 4l66 -4l143 2l52 -2 q131 0 256 6q16 0 16 12z" glyph-name="e" horiz-adv-x="1251" unicode="e"/><glyph d="M997 823q0 -64 -12 -88t-98 -24l-297 -6l-98 2q-70 0 -74 -21q-10 -43 -10 -106l4 -43l-9 -60l9 -71l-2 -62q0 -111 -7 -143q-4 -45 -4 -61v-95q-2 -31 -12 -42t-43 -11h-37q-135 0 -135 37l4 39l-4 141l4 246v43l2 67l-10 99l2 282l6 84l-2 17l-2 120l-6 50l-2 147 q0 38 19 46.5t63 8.5q29 4 49 4l285 13l288 -9q92 0 134 -2t47 -49q4 -46 4 -84t-6.5 -48.5t-21.5 -14.5t-25.5 -5t-33 0t-28.5 1h-176q-147 6 -150 6l-73 -6q-43 0 -129 -4q-10 -139 -11 -166q0 -129 21 -133q12 -2 39 -2q80 8 172 8l71 4q197 0 267 -8q18 -2 23 -20t5 -81 zM961 1317q0 27 -46 26l-59 -2l-29 5l-63 -3l-102 5q-74 2 -222 2l-37 -4q-12 0 -35.5 -1.5t-42 -2.5t-34.5 -3q-18 -4 -19 -47l2 -104l-6 -170l4 -53l-4 -154l4 -68l-4 -77l2 -117l-4 -17l6 -170v-112q4 -41 4 -62q0 -98 18.5 -98t18.5 47l-2 162l-4 53q-2 59 -2 178l4 74 l-2 94q0 94 2 95q49 -4 76 -5l88 7l170 -2l37 4h29l104 6l78 -2q18 0 18 12q0 29 -20 29l-94 -6h-66l-29 -1l-82 -2l-221 -2l-88 3v36q-2 38 -2 134t2 155l2 78l-2 61l162 9l59 4l199 -8l23 1l176 -4q33 1 33 17z" glyph-name="f" horiz-adv-x="1169" unicode="f"/><glyph d="M926 1438q137 0 239 -39q41 -14 41 -47q0 -104 -18 -160q-6 -31 -37 -31h-12q-20 4 -98.5 21.5t-145.5 17.5q-68 0 -94 -6q-141 -39 -173 -64.5t-47.5 -39t-21.5 -17.5q-72 -53 -127 -135q-14 -20 -31.5 -83.5t-17.5 -92.5l-8 -76q0 -55 45 -164q25 -54 36 -74 t39.5 -44.5t35.5 -34.5t79 -60q12 -8 41 -16t39 -14q84 -43 258 -43q49 0 49 26l-4 98l4 154q0 47 -22 47q-121 0 -135 2q-33 2 -35 35q-4 24 -4 56t-1 54.5t0 29.5t3 20.5t7 17.5t18.5 12.5t57.5 8.5t122 -4q16 6 30 6l11 -1l88 -5l24 2q45 0 45 -70v-9v-71l-2 -72l4 -43 l-4 -61q-2 -31 -2 -96l6 -103l2 -153q0 -51 -22 -65q-91 -62 -299 -62q-59 0 -107 10t-94 18t-74 21l-120 55q-102 51 -165 123t-71 84q-43 78 -49 109q-5 8 -25 44t-28 95l-3 15l-6 108l-4 86l15 143q2 23 11 34t26 44q20 55 55 129q8 12 47 57t55 58q158 119 289 166 q6 2 51.5 18t59.5 16l16 -2l80 13q53 4 78 4zM1006 96q27 0 104 25q18 6 18 41l-4 98v176q-4 16 -4 25l4 24v76l-1 23l-2 67q-1 45 -34 45l-69 -4q-127 0 -146 -4v-6q0 -25 52 -25h129q27 -1 31 -33t3 -51l-4 -75l7 -52l-5 -139l7 -110q0 -59 -95 -60l-6 -1l-53 -1 q-73 0 -197 31t-131 35q-126 67 -162 99q-130 119 -157 263q-20 140 -12 170l8 41q4 86 18 125t26.5 65t18.5 42t22.5 34.5t39 38t30.5 29.5q84 86 212 142.5t247 56.5l66 -7l108 -14q27 0 27 14q0 25 -41 25l-35 6h-25l-106 10q-238 0 -446 -176q-90 -74 -130 -143 q-80 -143 -79 -350q0 -43 12 -108.5t30 -98.5t29 -57q10 -24 59.5 -79t61.5 -73q10 -6 39 -25.5t66 -41.5t68 -30q32 -7 93 -32q2 0 78 -14t78 -15l76 2q49 -4 76 -4z" glyph-name="g" horiz-adv-x="1402" unicode="g"/><glyph d="M1329 47q0 -51 -17 -51h-91q-119 0 -121 45l-8 115l2 28l-9 52l7 49l6 100l-8 82q0 245 -14 251t-46 5l-84 -8l-43 4q-68 6 -137 6l-137 -8l-78 4l-13 -1l-79 -1q-25 0 -35 -7t-10 -30v-133l2 -84l-2 -45q0 -25 1 -34l11 -69v-6l-2 -13l-2 -91q0 -88 -6 -174 q0 -25 -33 -33t-93 -8q-116 0 -116 35l8 36l-2 74l-6 99q6 30 6 102t-6 174l-10 147l4 138l-2 131l2 20l2 133l4 49l-6 76l2 72l-6 104q0 45 22 45l33 -4l150 7q25 0 35 -14.5t11 -25t1 -42.5l-2 -29l-2 -105v-237q2 -18 7 -24.5t23 -6.5l95 4l204 -10l258 8q91 0 93 15v5 v48l-2 59l8 78v70l-4 51l2 63l-1 47q-1 46 38 46h131q37 0 45 -12.5t8 -53.5l-4 -96l1 -14l-1 -83l1 -29l7 -206v-84l2 -64l-2 -34l6 -62l-2 -37l4 -82l-2 -59l1 -9l-3 -63l6 -92l-1 -11l1 -71l-4 -71zM1214.5 86q20.5 0 20.5 51v180l-6 117l-6 252l4 72l-6 22v6q4 16 4 25 l2 209l-2 80q0 80 2 80l6 104l-4 35q0 25 -12 24q-23 0 -23 -5v-40l2 -28l-4 -140q0 -215 -4 -278l-150 2l-71 -2l-52 -4l-356 8l-156 -8l-69 4q-16 0 -17 6l-2 322q0 80 2 118q4 16 5 23q0 20 -22 20t-21 -22v-84l-3 -135l-2 -187l5 -149l-5 -623q0 -45 25 -45q14 0 14 66 l-2 217l6 160l-6 127q0 133 6 143h50l18 2l31 -4l22 2q43 6 133 6l74 -2l80 4l180 -4q188 0 281 2l6 -55q2 -12 0 -41t-2 -35v-11l-2 -83l4 -86v-35q0 -14 4 -47l2 -80l-4 -219q0 -37 20.5 -37z" glyph-name="h" horiz-adv-x="1495" unicode="h"/><glyph d="M362 -8q-96 0 -143 4q-41 2 -43 45v109l-2 124v72l-8 84l-2 275l4 77l1 40l-5 265l2 60l2 113l-2 83l-2 41q0 31 30 38q30 8 87 8t75 -4q42 -10 42 -23l-1 -232l6 -153l-6 -133l-2 -64l13 -164l-2 -57l10 -86l-10 -47l12 -109l-2 -34l4 -140l-10 -143q0 -18 -14.5 -33.5 t-33.5 -15.5zM293 98q14 0 20 9.5t5 12.5t1 48v47l-4 86q0 37 2 55l-8 162l4 174l-4 316l-4 120v125h2v42q0 42 -26 42q-10 0 -11 -12l-2 -108l4 -134l-2 -104q0 -104 2 -105l4 -151l-2 -47l2 -137l-2 -117l7 -191l-1 -67q-1 -66 13 -66z" glyph-name="i" horiz-adv-x="583" unicode="i"/><glyph d="M517 -10q-73 0 -133 17t-144 65l-58 28q-14 6 -47 43t-33 47t11 35q14 20 73.5 64.5t77.5 44.5q28 0 64.5 -53t103.5 -60l60 -12q27 0 69.5 11.5t49.5 23.5t18.5 27.5t28 40t16.5 71.5l-2 33l4 57l-2 49l8 334l-2 125l-6 129l2 64l-1 14l1 84l-2 68q-2 69 8 79.5t29 12.5 l92 4v-2h53q27 -2 44.5 -23.5t17.5 -46.5l-3 -74l3 -47l-1 -23l7 -161l-9 -273l3 -36l2 -78l-1 -24l-1 -171q0 -99 -19 -169t-23 -84t-26 -48q-115 -164 -223 -180q-37 -6 -110 -6zM782 1348q-10 0 -10 -33l2 -39q2 -59 3 -177t3 -177l4 -107v-190l-2 -27v-88h2 q4 -373 -241 -393l-33 -4l-4 2q-33 -4 -125 20q-16 4 -62.5 36t-56.5 32q-10 1 -10 -15t12 -26q57 -38 74 -47q57 -35 161 -35t140 22l57 35q33 18 68 74q2 4 5 14.5t13 24.5t12 33q2 18 10.5 54t10.5 56l4 148l-6 75l6 148q0 43 -4 129l-4 88l-2 147l2 189q0 18 -6 24.5 t-23 6.5z" glyph-name="j" horiz-adv-x="1067" unicode="j"/><glyph d="M1018 1427q2 0 8.5 1.5t22.5 -1.5t16 -18q0 -14 -19 -43q-117 -179 -182.5 -302.5t-83.5 -149.5t-18 -44t78 -255.5t96 -272.5l18 -27q8 -16 20.5 -52t16.5 -44l72 -192q2 -23 -21 -23h-165q-31 0 -43 6t-34 62t-88.5 234t-72.5 192t-18 52.5t-31 65.5 q-12 -25 -96 -145.5t-84 -163.5l4 -129l-6 -55q-2 -14 -2 -21v-67q-2 -35 -50 -35l-63 4l-53 -1q-52 -1 -58 32q0 2 -5 99t-5 276v94l-4 792q-4 57 -4 92t26 39q35 4 197 5q14 0 14 -31l-2 -311q0 -33 4 -99l3 -160l-3 -73l5 -2q29 43 217 350q39 58 48 76t28.5 52t25.5 46 l57 102q25 48 72 50l148 -5h14zM925 72q15 0 15 9t-10 36.5t-22.5 58.5t-14.5 41t-6 30.5t-7 28.5t-19.5 40t-20.5 55t-31 67.5t-36 67.5t-33.5 94.5t-45.5 118.5t-30 93t-21 71l21 47q10 20 41.5 65t36.5 53t28 43t45.5 71t45 75t37.5 67.5t15 37t-15 8.5q-14 0 -34 -31 t-67 -114t-113 -183q-104 -170 -139 -212t-61 -83t-36 -53t-27.5 -38t-60.5 -82t-59 -91v47q-2 4 -2 14l1 22l-3 163l2 280l-2 135l4 168q0 49 -19 49t-20 -22l4 -74l-2 -41l4 -188l-2 -178l2 -140l-4 -340l6 -90l-6 -157q0 -23 15 -23q29 0 28 59l-6 148q0 90 2.5 111 t50 80.5t49.5 62.5l-2 2q8 14 30.5 42t58.5 85t124 174q2 -2 47 -136.5t55 -155.5q11 -22 16 -40t18.5 -41t18.5 -37t23.5 -53t23.5 -52t18.5 -57.5t30.5 -79.5t25.5 -66.5t14 -46.5t20.5 -15z" glyph-name="k" horiz-adv-x="1187" unicode="k"/><glyph d="M731 227q96 1 96 -101t-12 -110t-17.5 -12t-10.5 -4l-46 -2l-61 -2l-72 2l-127 -2l-57 2l-166 -10q-57 0 -68 45q-12 53 -12 104l4 115l-8 209l-2 145l-4 588q-4 119 -4 160t15.5 54t62.5 13l72 2q72 2 76.5 -11t6.5 -17t1 -25.5t-1 -26.5l2 -221v-344l-4 -67l6 -154h-2 q4 -53 4 -82l-2 -69l9 -154q4 -25 10 -29t18 -4zM735 109q0 16 -26 16l-168 -2l-76 2l-113 -2q-22 1 -28 27t-7 153l2 12l-6 127l-6 170l2 107l-4 63l4 205l-1 17l-1 120l-2 105h2v37q0 72 -24 71q-16 0 -17 -37l4 -145l-2 -55l4 -74l2 -440l-2 -82l11 -328q0 -2 -2.5 -49 t41.5 -47l104 6l209 2l63 -2q37 0 37 23z" glyph-name="l" horiz-adv-x="950" unicode="l"/><glyph d="M1387 -4l-14 -4l-64 2q-37 8 -46 63t-11 79t-10.5 41.5t-9.5 31.5t-2 60t-5 72t-5.5 75t-11.5 99t-10 69q0 125 -31 282h-6q-33 -59 -90 -182l-12 -25q-12 -15 -41 -77t-92.5 -184.5t-78.5 -140.5q-15 -19 -30 -19q-51 0 -223 342q-64 133 -93.5 191t-54.5 85l-6 -2 q-6 -41 -26 -246t-21 -219l-6 -92q0 -78 -6 -156l-10 -41l2 -22q0 -52 -18.5 -62t-27 -15t-17.5 -5h-88q-79 0 -79 59t10.5 178t12.5 168l6 60q12 86 12 256l4 86l19 160q6 35 8 95t8 88t10 113q4 86 9 132q4 53 96 53q47 0 65 -25q63 -90 80 -133q8 -33 17 -43 q18 -39 67 -121t90.5 -180.5t81.5 -150.5q35 -70 68 -107q39 45 126 230.5t92 194.5t20 29t29 46t55 105t53 101t17 28.5t9 10t10.5 7.5t10.5 6t12 3t12 2t7 1h47q45 0 49 -45q0 -7 16 -121t28 -243t24 -197t12 -119t6 -90t9 -73t6 -76t5 -60t5 -97t17 -162t13 -113 q0 -30 -6 -40t-20.5 -13t-23.5 -4t-29.5 0t-30.5 1zM1393 117q0 68 -15 121v51l-6 28l-18 136l-4 51q-12 94 -14 147t-7 69q-4 16 -4 28v34l-6 29q-4 39 -12 101t-13.5 117.5t-9.5 86.5t-4 91.5t-3 86.5t-30 25q-16 -1 -40 -55t-31 -70l-19 -27q-18 -29 -50 -92t-55 -106 t-69 -144q-86 -176 -158 -313l-16 -33q-12 20 -33.5 62.5t-56.5 101.5t-162 309q-65 123 -99 178t-65 130q-18 45 -49 45q-16 0 -16 -19q-6 -24 -8 -56t-21 -286q-20 -254 -20 -260l-15 -172v-68l-8 -84l-14 -245q0 -21 8 -13h4q2 2 14.5 3.5t12.5 11.5q4 14 4 47l4 84 l-2 28q0 8 4 23t6 65t6 89l-2 45q8 53 8 77l10 138v24l1 11l2 71q-2 20 10 102.5t12 90.5l16 141q0 20 7 72q137 -269 165 -315t58 -116t59 -111t40 -61t33 -66t30 -60t22 -42t45 -34q16 0 64 116t151 316q66 117 78 145l35 80q12 27 27 45q14 23 36.5 66t30.5 57 q6 -25 10 -112h-2q8 -41 12.5 -122t10.5 -118l8 -49q4 -29 8 -85.5t6 -75.5t3 -44t7 -51t11.5 -99t7.5 -92l8 -47q11 -90 17 -176t18 -86q27 0 27 29z" glyph-name="m" horiz-adv-x="1640" unicode="m"/><glyph d="M1227 -4q-87 0 -155 7t-95 60.5t-41 60.5t-23 19q-27 45 -86 122t-127 177.5t-108 151.5t-83 118q-42 67 -95 134l-6 -2q-4 -20 -5 -29l7 -299l-2 -237l4 -121l-2 -82v-21q0 -41 -29 -52t-66 -11t-84 5t-47 44q-8 113 -8 250l6 258l-2 72l2 45q0 20 -4 61q0 66 -2 98 l-8 207l4 72l-8 231q0 43 15.5 62.5t58.5 19.5l81 -4q37 -1 55 -27t73 -116.5t79 -114.5q45 -55 80 -109t55.5 -85t46 -69t48.5 -68t39 -66q16 -35 145 -197q98 -129 107 -133l2 25q0 106 -2 159l-1 12l1 91l-7 123l-6 217l8 61l-2 12l-2 84q6 152 9 181q4 45 83 45l15 -1 l98 3q39 0 45 -29q10 -61 10 -186l-4 -47q0 -358 -2 -404l-2 -12l-2 -82l4 -399l-2 -64q-4 -139 -18 -188q-8 -33 -45 -33zM300 1307q-42 0 -42 -34v-20l2 -133l6 -110l6 -471l-2 -222q0 -135 3 -171t3 -46t13 -10q25 0 24 23q2 27 2 77l-6 142l1 42l7 290q0 80 -4 239 l-1 23l-1 68l-4 182q0 4 2 23.5t0 29.5q61 -65 131.5 -182.5t114.5 -186.5q4 -4 13.5 -12t14.5 -16t30.5 -49.5t41.5 -61.5l68 -84l74 -107q251 -336 285 -393.5t43.5 -60t17.5 -2.5q25 0 28 20q12 41 13 76l-2 133l12 256v182l6 62l-6 192l4 39l-4 58l2 36l-2 48l6 79v40 q0 40 -31 40q-16 0 -16 -37q0 -317 2 -477l-2 -22q-4 -119 -4 -176v-66l-2 -21l-2 -163l-2 -62q-4 -111 -4 -168q-51 57 -113 146l-168 231q-72 100 -76 107q-49 54 -58 71t-50 70q-42 54 -62 90t-47.5 72.5t-36.5 48.5l-16 27q-46 91 -63 102.5t-32.5 46.5t-21.5 44 t-27.5 35t-29.5 44q-14 29 -38 29z" glyph-name="n" horiz-adv-x="1466" unicode="n"/><glyph d="M930 -10h-6l-80 8q-10 -4 -56 -4t-67 12l-25 8q-9 2 -57.5 11.5t-85 21t-58.5 29.5q-21 18 -51 36t-50 42t-62 59q-94 95 -154 283q-6 20 -13 62t-14.5 74t-7.5 66q-1 34 5 77q6 44 31.5 127t43.5 114q117 195 226 260l26 14q133 84 217 110t119 27l111 9h4q81 0 112 -17 l9 -2h6q12 0 70.5 -23.5t84.5 -39.5q18 -6 85 -37t75 -41q52 -60 84 -102q53 -41 113 -166q12 -28 22 -75t25 -93t14 -86l-2 -29l2 -45q0 -133 -45 -254q-2 -2 -14.5 -35t-22.5 -47l-47 -86q-20 -43 -127 -119q-10 -6 -23.5 -21.5t-24.5 -21.5t-44.5 -20t-61.5 -32 t-128.5 -36t-157.5 -16v-2zM260 625q0 -27 19 -90q16 -78 26 -101q57 -94 69 -110t36 -40l34 -34q34 -34 101 -74q33 -12 45 -20t30.5 -11.5t27.5 -9.5t30 -12q100 -35 202 -35t228 43l57 19q100 31 187.5 113.5t131.5 205.5t44 174q0 4 -6 78l2 27q0 20 -5 40t-6 31 q-6 72 -38 133q-150 279 -383 344l-50 17q-55 18 -116 18l-58 -8q-139 -9 -178 -29t-43 -22l-35 -12q-84 -49 -161 -127q-57 -49 -89 -103q-44 -59 -51 -84l-37 -104q-14 -43 -14 -217zM900 133q-56 0 -115 10.5t-77 18.5t-51 17q-107 29 -165 87q-10 10 -34 33t-50 49 t-40 54q-15 28 -23.5 52.5t-15.5 57.5t-21 78t-13 78l6 61l6 53q8 114 86 224t144 153q64 53 84 60q20 5 68 27t104 28l75 14l31 -4l7 1l20 1h73q18 -2 50 -16.5t59 -22.5t96.5 -45t138.5 -127q49 -57 54 -82q41 -68 48 -89t25 -66q8 -29 13 -121l4 -39q4 -39 -27 -148 l-6 -26q0 -26 -40 -98t-74 -100t-89 -66q-55 -39 -175 -73t-176 -34zM1380 643q0 188 -88 342q-33 55 -59 74l-21 14q-16 25 -20 29q-39 25 -143 76q-59 26 -151 26t-114 -10q-112 -44 -180 -102t-94 -95l-2 -2q-12 -6 -13 -7t-5.5 -4.5t-9.5 -17.5t-34 -59 q-53 -84 -53 -252q0 -41 1 -47l11 -31q9 -26 11 -31l20 -50q14 -35 46 -86.5t57 -63.5t55 -40t52 -32t130.5 -26.5t166.5 -22.5q57 -1 111 17t75 36.5t43 25.5t61.5 42t58.5 74q12 16 13 26v5q0 4 13 22.5t15 22.5q47 94 47 147z" glyph-name="o" horiz-adv-x="1763" unicode="o"/><glyph d="M410 190v-137q-4 -39 -33 -41q-61 -6 -66 -6l-84 6l-32 -4q-13 0 -15 20t-2 117v174q-4 37 -4 54l6 137v16q-12 210 -12 318l4 174q0 135 -4 177t-4 73l4 118q2 27 12.5 39.5t61.5 12.5l106 -4l9 1l77 -5q201 0 240 -7q150 -27 188 -39t60 -30q22 -16 28 -19 q57 -20 104.5 -76.5t65.5 -117.5q41 -143 41 -170l-8 -43q0 -166 -66 -291q-20 -39 -81 -90q-94 -72 -162 -100.5t-136 -35.5t-173 -8.5t-123 -7.5v-112q-2 -31 -2 -93zM293 86q20 0 20 29l-1 41l3 282v19q-2 18 0 18q135 -6 187 -6t67 2q14 2 44.5 3.5t102.5 19.5t103 34 t42 26.5t20 14.5q72 54 112 125q25 29 43.5 82t18.5 94l4 64q0 86 -25.5 142.5t-87.5 135.5q-14 14 -56 43q-84 58 -210 80q-55 6 -97 15t-118 -2q-78 0 -166 -7q-27 0 -31 -28v-213l-2 -230v-53l4 -90l-1 -13l-1 -44l-2 -140l4 -161l-2 -105l2 -90l-4 -41q0 -47 27 -47z M570 1311q30 0 56 -5t71.5 -13t88.5 -27l78 -37q45 -23 88 -82q68 -98 68 -225q0 -53 -19.5 -124t-50.5 -106q-7 -2 -14.5 -18.5t-16 -23.5t-18.5 -17t-24 -17l-25 -18q-31 -27 -122.5 -57.5t-315.5 -30.5q-37 0 -103 4l-2 156l2 65l-6 131l6 95l-4 188l1 17l-1 112 q0 25 29 29l151 6q10 2 31.5 0t51.5 -2zM823 678q67 80 81 160t14 131q0 50 -25 112q-31 59 -80 93t-121 50.5t-82 16.5h-55q-16 4 -23 4l-98 -8q-29 -3 -33 -10.5t-4 -28.5v-6q-2 -66 4.5 -193t6.5 -184l-5 -33q-1 -2 3 -56t3 -76.5t1.5 -39t23 -18.5t53.5 -2l97 6 q66 0 135 20.5t104 61.5z" glyph-name="p" horiz-adv-x="1284" unicode="p"/><glyph d="M1618 726q0 -46 -10 -99t-14.5 -85t-9.5 -48t-38 -88t-47 -90t-36.5 -43t-28.5 -33q25 -31 88.5 -99.5t79.5 -92.5t33.5 -36t17.5 -24t-16.5 -23.5t-94.5 -19.5t-103 -8q-26 0 -45 5t-45 30.5t-60 68.5t-36 45q-215 -92 -331 -92l-52 8q-147 0 -235 49q-18 10 -92 34 t-115 75q-10 10 -44 32t-63 54q-28 34 -67 94q-66 119 -94 231q-2 10 -15 115v6l1 12l-1 72q1 20 13 74t15 79t7 41t20.5 45t22.5 56t77 107t189 157q2 2 35 13l74 30q119 54 296 54t335 -62q15 -9 61.5 -45.5t65.5 -50.5q25 -23 65.5 -70.5t54.5 -63.5t30 -57t36 -69 t48 -135t28 -153zM1468 -10q29 0 29 16t-77 113.5t-87 113.5q4 6 7 9l22 22l43 64q125 205 125 350l-8 82q-4 68 -58 189t-67 135q-12 14 -24.5 30t-20.5 25l-39 39q-37 43 -217 133q-16 2 -67.5 14t-133.5 12q-120 0 -172 -26l-55 -11q-40 -6 -70 -24t-71 -37t-56 -35 q-14 -16 -53.5 -54t-51.5 -52t-44 -70q-25 -37 -32 -55t-17.5 -59.5t-20.5 -61.5q-4 -49 -4 -87t4 -136q2 -18 14.5 -55t12.5 -52l-3 -6q12 -20 52.5 -95t56.5 -95t26.5 -30.5t14.5 -16.5q66 -90 217 -146q6 -2 25.5 -7t39.5 -12t132 -18l61 -6q104 0 238 55q14 6 60.5 20.5 t88.5 41.5q20 -25 34 -45t57 -72t61 -76t28 -24zM1487 676q1 -44 -17 -108t-31 -80t-28 -48q-35 -96 -111 -164q-16 18 -161 209q-15 21 -33 21t-29 -10l94 -131q8 -12 37 -44t37 -45l15 -32l-50 -27q-34 -17 -103 -40t-79 -27.5t-32.5 -10.5t-38 -7t-38.5 -3t-71 -2 q-48 1 -94 15t-77.5 22t-55 15.5t-95.5 56.5q-73 48 -149.5 177t-81 217t-7.5 110t-3 34t16 94q29 117 68 164l30 35q8 8 41 48.5t66 64.5q33 23 78 43q115 68 194 67l41 8q55 0 71 4t18 4l42 -8l51 -4q68 -3 124.5 -39t64.5 -41l27 -14q14 -8 57 -43t49 -45 q49 -61 113 -197q23 -43 37 -119.5t14 -119.5zM375 771q0 -13 6 -99t8 -92q60 -128 112.5 -181t74.5 -67t58 -37t54 -37q57 -41 162 -41t221 35q31 12 39 27l-57 77q-4 6 -59.5 71t-55.5 98q0 32 35 36q119 14 160 14t86 -57q23 -37 65 -84q14 27 40 72.5t38 80t12 126.5 q0 145 -88 274q-48 48 -61 78l-6 10q-55 37 -65 50t-23 18.5t-19 11.5q-59 59 -188 59h-37l-62 3q-84 0 -173 -47.5t-137 -100.5t-66.5 -81.5t-46.5 -115.5q-27 -88 -27 -101z" glyph-name="q" horiz-adv-x="1779" unicode="q"/><glyph d="M1171 974q0 -38 -12 -140q-6 -36 -44 -128t-85 -135q-18 -18 -59 -43.5t-58 -38.5q76 -149 236 -348q65 -84 65 -104q0 -33 -204 -33h-6q-49 -2 -82 47l-115 168q-78 113 -92 135t-39 42t-41 20q-156 0 -193 -8q-18 -6 -18 -21l4 -326q0 -31 -20 -49t-99 -18t-105 14 t-26 94v88v24v159l-8 73l4 109l-10 141l4 123l-4 76l2 49l-4 33l-4 88l2 13l1 37l3 112l-4 30q-4 78 -4 118t37 50q18 4 180 5l260 4q196 0 278 -48.5t93 -54.5q55 -33 98 -112l16 -33q17 -33 26 -45t18 -70.5t9 -96.5zM1047 88q15 0 16 10q0 34 -44.5 90t-60.5 78 t-77.5 109.5t-96.5 132.5q78 33 164 113q51 41 109 157q6 12 7 26t11 51t10 91t-2 68t-5 24.5t-9 26.5t-13 42t-30 56q-82 111 -135 137q-127 66 -326 66l-276 -8q-27 0 -29 -10v-2q-4 0 -4 -3l2 -75l-2 -154l6 -211l-6 -88l6 -262q2 -82 2 -248l4 -102q0 -12 -2 -41 t1 -53.5t24 -24.5l12 2l6 18v172l2 43l-6 113q0 43 8 45h21l31 -2l118 2l66 -4l178 10q8 0 23 -14q16 -20 29 -39t79 -102t110 -152t58 -80q6 -8 21 -8zM537 1319q119 -1 159 -11t63 -15t32.5 -7t27 -7t27.5 -10t28 -13.5t60 -48.5q43 -39 63 -81q45 -86 45 -172t-14 -127 t-45 -92t-65 -81t-66.5 -56.5t-87.5 -52t-107 -25.5l-120 -2l-82 2l-113 -4q-35 0 -35 31q-4 57 -4 79t3 38q3 14 1 73v58l-4 110v172l-2 90v140q0 8 16 8q2 2 9 2l112 2h99zM472 584q62 0 171 14t133 41q10 10 37 27.5t37 31.5q88 117 88 258q0 59 -53 162q-39 70 -127 103 q-16 8 -42 8t-69 14q-8 2 -221 2q-2 0 -20 -6l-3 -215l5 -174v-23l4 -176l-1 -33q-1 -34 61 -34z" glyph-name="r" horiz-adv-x="1361" unicode="r"/><glyph d="M397 1052q0 -60 52 -96q76 -53 155 -73q23 -6 60.5 -20.5t47.5 -17.5t30 -5t35 -8t57.5 -18.5t87 -28.5t79.5 -51t84 -91q23 -25 37.5 -99t14.5 -106t-27 -139q-25 -82 -82 -137q-57 -56 -80 -72q-24 -16 -60 -36t-50 -19q-14 0 -81.5 -21.5t-100.5 -21.5t-52 6 q-96 6 -112.5 18.5t-52.5 26.5t-96.5 51.5t-82.5 57.5t-47 67q-70 102 -70 264q10 16 37 21l139 4q43 0 54 -31l10 -45q10 -55 51 -108q68 -92 223 -93q113 0 177 70q26 25 36 45t23 76l2 27q0 128 -174 163q-117 23 -283 82q-68 23 -137 78q-67 47 -85 133q-18 87 -18 147 t28 143t83 130q25 23 68 47q111 72 241 72q16 0 92 -9.5t87 -13.5q111 -52 128 -65t30.5 -27t30.5 -35.5t36 -49.5l14 -21q54 -106 54 -151t-14.5 -48.5t-18.5 -4.5t-18.5 0t-20.5 1l-94 -6q-43 0 -58 33l-30 65q-12 22 -43 47t-50.5 37.5t-79.5 21.5q-59 10 -87 10t-82 -22 l-9 -6q-88 -88 -88 -148zM260 390q0 -20 18 -72t60 -101q53 -66 95.5 -84.5t118.5 -32.5t114 -14q110 0 163 37q6 4 61.5 38t74.5 75l36 71q33 74 33 119q0 113 -33 168l-32 33q-53 53 -67 59t-27 10t-47 24t-230 64q-37 10 -92 33t-73.5 34t-25.5 14t-40 36t-41 125h-2 l4 53l12 60q0 8 24 54t66 73q88 57 180 57q45 0 122.5 -20t85.5 -27l38 -39q38 -30 45.5 -50t16 -43.5t14.5 -36.5t22.5 -13t16.5 20q1 20 -15 52t-22 44.5t-18.5 26.5t-14.5 16t-23.5 20.5t-34 29t-29.5 18.5t-39.5 13t-39 9.5t-43 8.5t-45.5 7t-47 3t-162 -43 q-14 -7 -28.5 -18t-18.5 -13q-31 -18 -63 -78q-4 -8 -20.5 -35t-16.5 -63l-6 -25q-4 -37 -4 -75t23 -86t56 -73.5t121.5 -66t91.5 -38.5q281 -51 361 -146q63 -77 63 -125t-16 -96q-6 -47 -55 -125q-16 -23 -57.5 -52.5t-49.5 -37.5q-43 -35 -143 -35t-133 11.5t-41 13.5 l-39 10q-61 20 -103.5 84.5t-58.5 136.5q0 13 -25 23q-16 0 -16 -20z" glyph-name="s" horiz-adv-x="1284" unicode="s"/><glyph d="M1081 1331q0 -65 -10 -108q-8 -31 -55 -31h-125l-137 2q-16 0 -20.5 -7t-4.5 -26l2 -131l-2 -82l6 -129l-4 -121l2 -139l1 -45l-3 -313l6 -121q0 -47 -19.5 -63.5t-68.5 -16.5l-88 2q-53 4 -60 16t-9 27l-5 98l5 64l-5 98q0 14 2.5 58.5t-0.5 66.5l-2 180l5 101 q0 121 -3 182l-6 125l4 43l-4 63q-4 62 -8 66t-20 6l-58 2q-147 0 -223 2q-45 2 -47 51q-4 78 -4 115q0 74 47 74l41 -4l240 2l94 -2l17 1l124 -1q25 0 139 2.5t215 -8.5q20 -2 30.5 -18t10.5 -81zM1016 1318q0 15 -14 18t-89 3l-196 -6l-37 1l-254 1l-207 6q-20 0 -25.5 -6 t-5.5 -20t17 -17q49 -2 149 -2l176 4q53 0 54 -8l6 -63q2 -29 2 -103t4 -118l2 -60l-2 -43l2 -82l-2 -88l2 -370l-2 -279h2q0 -23 4 -25t16 -2q25 0 25 5v36q0 184 -4 275l-2 35l6 59v43l-6 330l4 98l-8 176l4 47l-4 97q0 12 4 32l2 4q4 2 12 2l230 -2l63 -1q62 -1 67 3.5 t5 19.5z" glyph-name="t" horiz-adv-x="1206" unicode="t"/><glyph d="M578 -8q-46 0 -164 33q-41 14 -76 43q-123 86 -166 299q-10 42 -10 69v207l-10 444l-9 244q0 72 15.5 83t93.5 11t100 -8t23 -26q12 -127 12 -207l-2 -103l2 -41l-1 -15l1 -105l-6 -60l8 -237l-2 -41q0 -88 35 -228q14 -61 66.5 -98t117.5 -37q12 0 41 4q61 15 73 23 t24 21.5t20 34t11 29.5t10.5 38t15.5 63t8 109l-2 67l4 103l-14 397l2 80l-4 158q0 61 16 73.5t80 12.5q135 0 139 -48q6 -86 6 -88l-2 -100l8 -180v-129l-4 -64l4 -37l-4 -118l4 -82q0 -43 -7 -90t-11 -136.5t-20 -112.5q-17 -24 -35 -71q-53 -80 -77 -96.5t-46 -28.5 t-40 -24q-18 -11 -62 -15t-82 -12t-84 -8zM612 96q154 0 228 82q45 47 57 94q2 10 13.5 35t15.5 41l18 131q4 25 4 35v84q4 64 4 193l-8 196l2 78l-2 127l1 70q1 71 -15 71q-23 0 -23 -18q-2 -27 -1 -104.5t-5 -104.5q6 -18 6 -57v-64l6 -227l-2 -115q0 -352 -112 -453 q-49 -41 -88 -47t-100.5 -6t-102.5 6t-85 45t-50 50q-41 80 -49 124q-35 213 -35 230l2 160l-4 288q0 41 4 60l-4 209q0 18 -23 18q-16 0 -16 -22l2 -119q2 -25 0 -70t-2 -48l2 -89l-4 -197q0 -160 11 -243t28 -191q4 -16 15 -40.5t16 -50.5q6 -26 48 -73t158 -78 q47 -10 90 -10z" glyph-name="u" horiz-adv-x="1179" unicode="u"/><glyph d="M1208 1403q0 -27 -12 -69t-35.5 -107.5t-25.5 -72.5t-10.5 -37t-14.5 -46l-49 -123q-4 -12 -11.5 -37t-16.5 -49t-21 -71t-19.5 -68t-9.5 -29l-61 -186l-11 -41q-23 -85 -53 -167t-57 -162.5t-45 -121.5q-12 -20 -35 -20q-101 0 -119 1t-28 15t-25 55.5t-23 51.5 q-8 11 -12 29t-21.5 61t-22.5 63t-25.5 69.5t-26.5 78.5l-15 37q-16 40 -40.5 110t-36.5 103q-14 23 -29 72t-27 69t-100 300t-88 296t31 20q87 9 141 9t65 -21q18 -25 40 -96.5t36 -104.5t103 -331l32 -99q4 -14 15.5 -40.5t15.5 -41.5l68 -176q16 -49 28 -71l111 331 q59 143 60 165t12 55l82 260q2 8 6.5 32.5t15.5 62.5q12 38 13 46t20.5 17.5t34.5 9.5l104 -4q92 0 92 -27zM220 1337q-18 0 -17 -17q0 -17 84 -248.5t91 -253.5t23.5 -57t23.5 -61t30 -87t41 -121t71 -212t70 -171l6 -3h23q29 0 36 21q10 23 23.5 70t20.5 69t28 81t52 167 t54 156q22 46 38 118t25 88t11 21v2q89 277 117.5 344.5t28.5 73.5q0 23 -27 22q-18 0 -24 -14l-11 -37q-12 -35 -67 -182q-4 -14 -23.5 -85t-31.5 -95t-38 -112t-55 -167l-16 -55q-8 -25 -33.5 -99.5t-58.5 -186.5q-33 -113 -56 -113t-190 514q-11 39 -23 59t-26 65 l-94 263q-2 8 -5 23t-17 47l-60 159q-6 14 -24 14z" glyph-name="v" horiz-adv-x="1275" unicode="v"/><glyph d="M1362 1448q2 0 27 -6l131 -12q27 -2 33 -7t6 -48q1 -43 -19 -103t-32 -130t-33 -157l-17 -92q-2 -10 -31 -113l-18 -123q-6 -33 -25.5 -95t-25.5 -90t-12.5 -79t-10.5 -86t-10 -63t-23.5 -94t-20.5 -82t-5 -25.5t-4.5 -25t-24.5 -21.5l-73 -6l-54 6l-34 -1q-34 -1 -52 17 t-22 41q-16 45 -22 77t-39 157t-46 192q-4 23 -17.5 122t-28.5 158t-15 89q-12 76 -17 80q-2 -12 -7 -47t-9 -53t-16.5 -50t-17.5 -50t-14 -78t-21 -98t-16 -68t-18 -82q-14 -54 -22 -112t-22 -124q-14 -65 -17.5 -90t-5.5 -37q-16 -51 -70 -51l-75 2q-72 0 -89.5 14 t-25.5 30.5t-13.5 38t-9.5 47t-10 53.5t-28.5 108.5t-33.5 143.5t-40 150q-6 23 -22 127t-36 174q-18 72 -21.5 97.5t-44 178.5t-40.5 210q0 70 113 70q2 0 94 -7q35 -4 45 -26q14 -39 36 -149t34 -172t16 -86t13 -67t12 -63t13 -65t28 -141.5t28 -145.5l18 82q4 14 17 71.5 t21 85.5t9 40t6 38.5t7 40.5l10 66q21 42 28 75t11 48l6 22q0 33 19.5 87.5t24.5 105.5t36 127q18 43 59 43q111 0 127 -17q29 -29 35 -61l31 -145q4 -14 14.5 -48t29.5 -116t40 -179q20 -98 38.5 -193t33.5 -144h6q10 45 29.5 161.5t35.5 178.5l6 34l15 66q0 33 9 69.5 t11 55.5l13 88q6 37 23 105.5t22 91.5q16 59 57 59zM514 92q23 0 32 24t17.5 72t14.5 64t8 38.5t4 28.5l16 74l29 113q6 23 12 65.5t12 65.5l50 197q2 10 6 35.5t8 37.5t14 53t21.5 74.5t19.5 71.5t12 50t8.5 30t8.5 28l14 41q72 -229 82 -287t23.5 -103.5t17.5 -59.5 q10 -66 22 -110q12 -43 24 -119t20 -90q6 -14 10 -34t7 -34t15.5 -55t16.5 -64l35 -145q5 -45 34 -50q29 0 35 25q41 119 68 236l10 47q4 20 11.5 76.5t15.5 81.5t16 73.5t18 75.5t22 112t20 113.5t18 62t30 119.5t36 134q18 49 18 67t-19 19q-14 0 -21 -29t-12 -46 t-14.5 -44t-12.5 -37t-10 -52.5t-17 -64.5t-26 -102t-20 -110.5t-10 -56.5t-21.5 -100.5t-23.5 -108.5t-21.5 -106.5t-42.5 -186.5t-38 -114h-4q-16 8 -45 135t-35 145t-23 79l-16 96q-60 243 -70 297t-41 173.5t-41 184.5q-6 39 -45 39q-16 0 -22 -18q-23 -76 -35 -131 l-10 -47q-11 -28 -29 -108q-18 -79 -66 -267t-55 -229q-8 -41 -15 -68t-11 -43q-8 -28 -17 -82q-30 -180 -46 -180q-10 0 -43 128q-32 128 -38 148.5t-8 35.5t-10 52l-37 134l-29 137q-8 39 -28.5 114t-25.5 97t-7 40t-7 38q-4 20 -12 57t-20.5 86t-16.5 76q-6 27 -30 26 q-12 0 -13 -6l11 -45q10 -43 27.5 -126t25.5 -118t25.5 -107.5t21.5 -98.5t10 -46q18 -56 33 -129.5t36 -148.5q20 -74 32 -126t42.5 -164t36.5 -116q4 -10 27 -10z" glyph-name="w" horiz-adv-x="1642" unicode="w"/><glyph d="M514 740q0 5 -65 104q-65 115 -181 296t-132 200t-42 77q51 10 123 10l23 -4l40 3q40 4 50 2t31.5 -22t27.5 -36l49 -80q74 -115 113 -170l80 -123q6 -8 14 -25.5t25 -35.5q145 252 166 287q96 151 111 177t100 25h77q94 0 98 -4t5 -18q0 -14 -37 -69t-72 -109 q-35 -53 -61.5 -95.5t-34.5 -50.5t-10 -19t-6 -16l-17 -24q-47 -72 -176 -289q8 -14 36.5 -64t41.5 -65t17.5 -35t84.5 -127q-1 -10 15 -26t53 -90q0 6 -4 10l12 -19q32 -52 72 -111q39 -59 44 -67t8 -17.5t14 -21.5t40 -61l10 -29q-18 -6 -135 -6l-84 2l-28 -2l-23 27 q-20 27 -42.5 57.5t-26.5 34.5q0 8 -15 33q-33 44 -75 112t-50 75t-10 11l-100 152q-48 -78 -66 -104t-45 -70.5t-43 -69.5l-39 -55q-14 -20 -35.5 -61.5t-29.5 -55.5t-17.5 -33.5t-13.5 -25.5t-8 -11.5t-5 -8.5t-8.5 -9.5t-148.5 0.5l-78 4l-33 -4q-11 0 -16 10q0 6 11 24 t32.5 63.5t44.5 70.5q22 24 38.5 56t25.5 45t14 21l31 64q6 10 20 31t20 31l66 112q13 6 21 24t34.5 62.5t50 82.5t23.5 43zM1098 102q0 6 -39 64t-50.5 78t-17.5 28l-57 93q-10 16 -39 55t-41 61l-37 68q-6 15 -19 33t-44 71q-41 57 -60 88q78 109 132 200t81 131t30 48 t7 13l39 53q12 16 44 66.5t32 56.5q0 25 -25 24q-10 -1 -21 -17t-36 -56t-41 -61t-24 -33t-17.5 -34t-16.5 -34t-32 -46t-32 -46t-18.5 -35t-20.5 -33t-27 -40.5t-29 -41.5q-43 -70 -49 -76l-107 154q-4 6 -13 24t-46 67q-37 50 -86 129t-72.5 114t-35.5 54t-32 19 q-18 0 -18 -10t88 -145t186.5 -282.5t110.5 -172.5q-156 -229 -254 -387l-67 -119q-78 -117 -78 -119q0 -14 24 -14t47 43l37 64q47 70 54 80q33 68 56 100t32.5 51.5t23.5 39.5t34 50q19 30 64.5 90t59.5 80q116 -176 144 -226t49.5 -80t35.5 -56t65.5 -102t71.5 -120 q20 -38 37 -24t17 20z" glyph-name="x" horiz-adv-x="1341" unicode="x"/><glyph d="M1249 1405q-1 -11 -53 -97t-163 -294t-129 -240t-56.5 -96t-51.5 -92q-12 -28 -14 -72t-2 -152l-4 -71l12 -219q0 -35 -14 -64q-4 -8 -20 -12q-45 -2 -110 -2t-83 10t-18 47l-2 303q0 210 -11 230l-38 67q-133 236 -158 275t-66 124t-56 110t-45.5 82.5t-56.5 101.5 t-27 48t-1 13q0 23 37 22l59 -4l98 11q49 0 65.5 -10.5t27.5 -30.5q135 -254 196 -385t94 -170q123 187 177 319.5t116 239.5q16 33 41 33l35 -3q125 0 173 -1t48 -21zM248 1354q-10 0 -10 -14q0 -29 397 -734q4 -70 4 -102l4 -211l-4 -187q0 -22 7.5 -28t21.5 -6t14 55 l-4 113l4 63l-2 66q0 143 -2 215l2 18q4 8 23 31t49 84l12 28q48 81 76 145t84 160t67 117q57 125 71 149t16.5 31t4.5 11q-4 23 -20 22q-10 0 -13 -6t-8 -18l-79 -160q-111 -195 -187 -350l-74 -135q-32 -59 -38 -59t-13.5 8t-15.5 21t-14.5 25.5t-12.5 26t-11 23.5 t-27.5 46t-32.5 54t-83 146t-101 182q-27 54 -29 62q-2 6 -6 14t-14 30q-9 22 -16 33q-7 12 -8 16t-5.5 8.5t-10.5 5.5t-16 1z" glyph-name="y" horiz-adv-x="1347" unicode="y"/><glyph d="M975 104q0 -100 -53 -100l-146 6l-201 -8l-124 4l-162 -6q-63 0 -89 1t-33 10t-9 44t-8 70q26 115 34 134t22 43t114 234q127 268 159 356q31 87 55.5 145.5t43 105.5t18.5 57t-2 17q-16 4 -25 4l-219 -7q-158 0 -192 11q-12 47 -12 118t26 72q29 2 84 4t82 4l68 2 l106 -8l123 6l194 11q49 0 67.5 -18.5t18.5 -108.5q1 -8 -21 -68q-22 -61 -38 -91t-28.5 -56.5t-27 -59.5t-42.5 -90q-28 -58 -43 -108q-14 -50 -44 -109t-37 -81t-15.5 -48.5t-69.5 -142.5t-74 -174q-4 -12 -14 -35t-12 -29q25 -6 30 -6l31 4l63 -4l29 1l191 -1l127 6 q14 0 20 -2q35 -9 35 -109zM879 122q0 22 -33 21l-107 -4q-297 -10 -356 -10h-68q-27 1 -27 15t46.5 106t82.5 171t75 152l49 93q121 263 131 292l33 74l24 68q11 16 55.5 110.5t44.5 100.5q0 39 -67 39l-109 -2l-35 2l-67 -2h-74q-74 0 -88 -1t-89 -6t-75 -14q0 -29 23 -29 l82 9l49 -2l39 1l260 -1l72 4q28 1 28 -9t-20 -61q-102 -213 -116 -247t-24 -55.5t-15 -33.5t-20.5 -51t-29.5 -67.5t-39 -71.5q-26 -43 -40.5 -76t-21.5 -48t-24.5 -48t-23.5 -47t-12.5 -31t-10.5 -25l-62 -133l-13 -31q-12 -31 -40 -80t-28 -67q0 -39 51 -39l237 6 q160 0 181 2l90 6l43 -2q39 0 39 22z" glyph-name="z" unicode="z"/><glyph d="M610 -264q-30 0 -116 8q-110 22 -161.5 58t-70.5 94q-2 8 -11 30.5t-9 274.5l6 110q0 39 -11 92t-74 111.5t-118 95.5t-55 51t28 23q58 16 110 64t70.5 109t18.5 147l-4 86q0 57 6 114t9 90t5.5 41t6.5 34t8 35t12 29.5t33 45.5t55 45t159 20q130 -1 130 -10 q10 -55 10 -84v-35q0 -35 -18 -35l-90 6q-61 0 -71 -80t-11 -128q0 -49 1 -117t-1.5 -145t-12.5 -100t-24 -42.5t-19 -32.5q-29 -55 -98 -88l23 -20q33 -18 90 -80q37 -41 37 -127q-1 -174 -7 -240t-6 -92q0 -168 127 -168l72 2q20 0 23 -20q0 -2 6 -96l8 -43 q0 -14 -18 -23.5t-48 -9.5zM580 -172q24 0 24 19t-64 19t-106 15t-66 59t-24 93l-4 65v119v25l6 164q0 132 -62.5 178.5t-70.5 54.5q1 12 21 34q20 23 39 57t32 46q20 33 27 51q23 68 24.5 282t32.5 263q18 27 54 48.5t65 21.5t29 8q0 23 -31 23q-12 0 -33 -5 q-68 -18 -101.5 -63t-40.5 -95t-7 -165t-5 -180q-8 -123 -104 -244q-4 -4 -12 -13.5t-17.5 -20t-13.5 -28.5v-12q0 -18 64 -74t67 -129l6 -67l-4 -68q-2 0 -2 -80l2 -79l-2 -91q0 -47 12 -90q29 -90 90.5 -115.5t174.5 -25.5z" glyph-name="braceleft" horiz-adv-x="798" unicode="{"/><glyph d="M219 -240q-55 0 -55 52l4 135q0 338 2 405l6 86v187q0 379 -4 567l-4 119l2 139l-6 135q0 31 13 61.5t40 30.5q51 0 150 -4q41 -4 45 -55q6 -36 6 -82h-2q-4 -229 -4 -342l6 -176l-6 -373l12 -225l-10 -180l2 -164l-4 -80l4 -113q0 -117 -58 -121q-45 -2 -139 -2z M301 -152q14 0 14 21v401l2 191v168l5 71l-2 60l-3 418l-8 77v146l8 164q0 23 -22 22q-16 0 -19 -20q-6 -109 -6 -215l9 -187v-176l4 -270l-4 -41l4 -240l-4 -49l-3 -514q0 -27 25 -27z" glyph-name="bar" horiz-adv-x="587" unicode="|"/><glyph d="M188 -264q-30 0 -47.5 9.5t-17.5 23.5l8 43q6 94 6 96q2 20 23 20l71 -2q127 0 127 168q0 26 -6 92t-6 240q0 86 37 127q57 61 90 80l23 20q-70 33 -99 88q-4 12 -17.5 31.5t-21.5 37.5t-12 67t-5 82.5t0 101t1 117.5t-10 129q-10 80 -72 79l-90 -6q-18 0 -18 5v49 q0 45 10 100q0 10 130 10t157 -18q28 -18 43.5 -33.5t26.5 -27t19.5 -32t12.5 -29.5t8 -35t9 -46t5 -70q12 -106 13 -163l-4 -86q0 -86 18 -147t70 -109t110 -64q29 -10 29 -23.5t-55.5 -50.5t-118 -94.5t-73.5 -111.5t-11 -93l6 -110q0 -233 -3 -249t-9 -32t-8 -24 q-18 -57 -60.5 -85.5t-101.5 -46.5t-70 -20q-87 -8 -117 -8zM195 -153q0 -19 24 -19q172 0 223.5 63.5t53.5 167.5l-2 91l2 79q0 80 -2 80l-5 68l7 67q3 73 67 129t64 74v12q-6 25 -43 62q-96 121 -105 244q-4 78 -6 218t-22 187q-33 72 -125 98q-20 4 -33 5q-31 0 -31 -23 q0 -8 29 -8t64.5 -21.5t54.5 -48.5q31 -49 32.5 -263t24.5 -282q8 -25 28.5 -52t37.5 -58t51 -64q2 -6 2 -14q-8 -8 -71.5 -55t-61.5 -178l1 -22l5 -167v-119l-4 -65q0 -49 -24 -93t-65.5 -59t-105.5 -15t-65 -19z" glyph-name="braceright" horiz-adv-x="798" unicode="}"/><glyph d="M1092 779q0 -49 -10 -81t-25.5 -73.5t-37.5 -78.5t-67 -53t-67 -16t-51 4q-141 27 -242 107q-12 10 -65.5 66.5t-104.5 56.5q-22 0 -52 -25t-48 -65q-33 -96 -66 -97q-12 0 -56 7.5t-61 14.5q-17 8 -17 34t17 84q27 102 95.5 170.5t168.5 68.5q31 -1 91 -25t108 -73 q152 -162 248 -162q62 0 74 60t14 91t19.5 44.5t61.5 13.5t58.5 -12.5t14.5 -60.5zM1012 770q-14 0 -22.5 -49t-37 -97.5t-90.5 -48.5q-32 1 -74 15t-70 33.5t-43 28.5t-61.5 42.5t-62.5 55.5q-17 22 -69 52t-91 30t-98 -44q-61 -37 -92 -167q-2 -2 -2 -5q0 -14 19 -14t22 6 q4 12 9 33t7 27q45 119 145 118q16 0 49.5 -8t97.5 -72t112 -92q48 -26 65.5 -36.5t22 -12.5t28.5 -13t80 -11q96 0 120.5 44t29.5 50q32 95 32 115t-26 20z" glyph-name="asciitilde" horiz-adv-x="1216" unicode="~"/><glyph glyph-name="uni00A0" horiz-adv-x="716" unicode=""/><glyph d="M350 1010q31 0 44.5 -23.5t19.5 -73.5v-2q0 -9 -6 -31t-7 -81l2 -101l-2 -114l2 -45v-35l9 -47l-2 -62v-67q2 -66 0 -66l-9 -117l9 -73q0 -84 -52 -84h-34l-64 -2q-68 0 -67 43l2 65l-5 80l5 23l-5 120l5 43l-11 400l2 65l2 17l-2 110q0 43 50 47l75 9q8 2 39 2z M430 1298q0 -49 -39 -92t-94 -43t-94 42t-39 93q0 14 6 33l4 27q10 31 41 57.5t61 26.5l43 -8q31 0 71 -44t40 -92zM305 59q8 0 8 21l2 82l1 41l-1 385v174l2 100q0 55 -26 56h-4q-12 -9 -13 -80l-2 -271l7 -86l2 -192l-2 -64q0 -119 1 -135t9 -23.5t16 -7.5zM252 1299 q0 -13 14.5 -22t28.5 -9q35 0 35 30q0 16 -15.5 26.5t-29.5 10.5t-23.5 -11.5t-9.5 -24.5z" glyph-name="exclamdown" horiz-adv-x="595" unicode=""/><glyph d="M758 229q39 0 80 42t55 83q4 8 20 76q6 18 21 19q72 10 84 10q108 0 108 -39q0 -23 -16 -79t-38.5 -105.5t-74.5 -102.5q-25 -20 -45 -45t-84.5 -48.5t-105.5 -29.5q-16 -2 -17 -18v-66q0 -6 1.5 -19t0 -20.5t-4 -35t-52.5 -27.5q-29 0 -85 5t-56 54q-4 78 -2 117v25 q-10 4 -37 12q-28 8 -108 43t-143.5 107.5t-99.5 192.5t-36 155q0 264 59 370q6 12 22.5 36t20.5 30q55 74 105 104q120 70 160 80t45.5 17t5.5 112v14q0 52 41.5 55t67.5 3t54 -5t37 -15.5t11 -37.5v-10q0 -84 2 -101t22 -20q100 -20 167 -67t118 -138t51 -157 q0 -31 -39 -37t-85 -6t-62 2q-37 2 -45 41q-35 117 -138 143l-2 -100l-2 -379q0 -180 1 -210t18 -30zM1016 356q0 20 -21 21q-4 0 -10 -6l-20 -54q-57 -145 -234 -163l-45 -7h-20l-4 142l-3 270l5 96l-5 86l3 21l-7 188q0 39 4 113q150 -4 201 -55q4 -6 16.5 -12.5 t16.5 -10.5q43 -49 52 -90t27.5 -41t18.5 15t-2 24q-33 98 -88 135q-25 16 -35 27q-45 41 -211 53q6 141 7 143q0 27 -25 27q-10 0 -19 -4v-172q-34 -2 -126 -39t-136 -98l-28 -39q-20 -20 -36 -58t-24 -45q-8 -18 -15 -56.5t-16 -70.5t-9 -97t4 -91q6 -26 10 -52 t11.5 -65.5t61.5 -124.5q103 -141 201 -147t109 -8l2 -52q0 -77 3 -109t21 -32t19 33l-2 39q0 76 -2 114q14 2 63 6.5t90 19.5t70 37.5t57 55.5t34.5 45.5t13 29t14.5 30.5t8 28zM625 152h-31q-66 0 -134 42t-95 74q-59 72 -84 160l-17 172q0 31 2 40t11.5 73.5t19.5 89.5 t29 53q25 47 76.5 94.5t77.5 59.5t43.5 21t27.5 11l65 17l2 -74v-123l7 -203l-2 -45l6 -292l-4 -140v-30zM362 605q0 -110 48 -214q27 -63 100 -119q23 -18 35 -20v686q-86 -25 -134.5 -124t-48.5 -209z" glyph-name="cent" horiz-adv-x="1249" unicode=""/><glyph d="M655 1434q152 0 285 -88l10 -9q39 -57 72 -108q10 -21 10 -41.5t-55 -59t-81 -52.5t-46.5 -13.5t-57 58t-109.5 57.5t-118 -62q-61 -61 -61 -153q0 -41 41 -150q8 -16 22 -16l76 4l49 -4l99 4l100 -2q20 0 31 -2q33 -2 42 -38t9 -77t-2 -55.5t-4 -25.5t-10.5 -19.5 t-10.5 -13.5t-15 -9t-20 -7t-15 -3h-81l-74 2q-55 0 -94 -10l8 -95q0 -84 -23.5 -136t-27.5 -68l27 -2l162 10q154 0 196 -14q31 -2 35 -31q6 -33 6 -51t-6 -123q-2 -16 -22.5 -29.5t-38.5 -13.5l-156 6h-47l-84 4l-72 -2l-106 2q-188 0 -224 13t-36 110v84q2 35 32 49 q33 14 68 49q61 63 61 148l-6 55v16q0 33 -67 33l-37 -4l-105 -6q-61 0 -61 51l4 121l-4 49q0 41 65 41l56 -2q14 0 35 4q-35 96 -35 160l-11 47l7 43q0 68 34 135q125 240 381 240zM948 129q0 16 -22 16l-54 5l-84 -5q-33 0 -47 2l-45 3l-125 -7l-106 11q-66 0 -66 12 l37 61q4 8 39 47q4 6 57 121q22 51 11 107q-2 10 -2.5 38t-14.5 74t-16 54q61 4 88 4l74 -2l121 4l75 -8q14 0 14 19t-18 20l-80 4l-141 -2l-98 2q-61 0 -68 14q-23 49 -58.5 147.5t-35.5 126.5q0 76 6 101q12 63 78 141q63 70 180 70t181.5 -55.5t70.5 -55.5q14 0 14 16 q0 4 -4 13q-27 55 -110.5 85.5t-162.5 30.5t-106 -12q-119 -59 -159 -168q-29 -74 -29 -116l8 -76q5 -74 41.5 -151t41.5 -92t9 -23q-74 4 -219 4q-23 0 -22 -17q-1 -22 55 -22t190 -8q20 0 25 -11q33 -66 33 -174v-33q-2 -49 -78 -156.5t-76 -131.5q0 -49 47 -50l84 5 l131 -5l60 3l174 -3l65 3q31 0 35 6q2 6 2 14z" glyph-name="sterling" horiz-adv-x="1155" unicode=""/><glyph d="M1223 374q0 -26 -46.5 -66t-66.5 -40t-71.5 59.5t-60.5 59.5t-17 -4q-106 -51 -179 -51q-269 0 -322.5 28.5t-70.5 28.5t-88.5 -53t-85.5 -53t-63.5 53t-49.5 66t65.5 57.5t65.5 54.5l-6 18q-77 118 -77 250t73 240q4 8 4 10q-18 18 -55 54t-51 52q-15 16 -15 34t80 98 q18 18 38 18t77 -54t63 -54t85 39q36 28 78 31t61.5 4t54.5 0t73 -1t108 -17q70 -16 100 -38q29 -22 35 -22t71.5 57t86.5 57t63.5 -50t42.5 -69q0 -33 -125 -129q43 -68 61.5 -116.5t18.5 -118.5q0 -127 -74 -260q-8 -19 -8 -25t63.5 -64t63.5 -84zM977 1044q0 10 18 23 q135 105 135 112t-10 17t-20 10t-27 -14t-62.5 -53t-70.5 -58q-8 4 -15 12.5t-19 11.5t-32 16t-89 28.5t-87 16.5t-56 1t-118 -19.5t-112 -43.5t-42 -23q-10 0 -18 5t-15 12.5t-15.5 17.5t-13.5 15t-24.5 21t-29.5 30t-28 14t-29 -14q2 -10 68.5 -66.5t66.5 -73.5 q0 -4 -44.5 -63.5t-44 -187.5t45.5 -205q2 -8 19.5 -28.5t17.5 -38.5t-62.5 -63.5t-62.5 -53.5t10 -15.5t21 -7.5t65.5 50t70.5 50t65.5 -24.5t74.5 -30.5q141 -23 156 -23q122 0 210 39t102 39t65 -60.5t63 -60.5q24 0 24 18t-51 65.5t-55 52.5l-29 30q11 16 17 22t49 81 q18 37 22 98l9 68q0 9 -14 79t-68 136q-2 4 -16.5 15t-14.5 21zM1047 786q-1 -42 -17 -100t-19 -65q-3 -6 -16 -32.5t-28 -41.5q-104 -102 -297 -103q-121 0 -211 39q-35 14 -105 84l-16 17q-25 27 -39 84t-14 97t5 86t42 112q59 104 194 141q20 7 48 8.5t60 6.5t59 5 q28 0 78 -17t91 -27t101 -89q6 -8 20 -23.5t23.5 -28.5t25.5 -62t15 -91zM938 762q0 133 -79 201.5t-212 68.5q-215 0 -262 -196q-8 -40 -8 -62t8 -59q33 -86 59 -111q96 -82 207 -82q231 0 279 178q8 27 8 62z" glyph-name="currency" horiz-adv-x="1325" unicode=""/><glyph d="M1186 1407v-33q-29 -29 -107 -186l-82 -156q-35 -66 -94 -186.5t-76 -153.5q74 4 117 4q42 0 56 -2t18 -12q2 -16 2 -100q-8 -16 -199 -17h-49q-2 -29 -2 -57t-2.5 -64t35.5 -36l129 4q43 0 59 -2t17 -91q0 -34 -123 -34l-11 1l-73 -1q-41 0 -41 -43v-236 q-31 -10 -126 -10t-95 27l2 100q0 104 -9 156q-33 2 -117.5 -0.5t-111.5 1.5t-27 23l-2 23q0 23 2 54t21 32q47 4 143 4l49 -2q20 0 31.5 7t9.5 25l-2 125q-111 -4 -176 -4q-65 1 -67 9t-2 56t14 48h4q109 0 164 2q-74 123 -182 319l-50 93l-69 116q-82 143 -82 185 q0 10 26 14q26 3 56 15t32 12l93 8q18 0 32 -18t30 -45t32.5 -60t30.5 -59t62 -107.5t94 -165.5t57 -102q12 -18 30 -31q18 12 21 21q64 152 88.5 199.5t34.5 79.5q11 32 35 82t43.5 98t35.5 73q18 25 99 25l80 -9q92 0 92 -18zM715 670q0 4 18.5 36t24.5 47t11 24t7 19 t15.5 39t30 62t19.5 41t6 19.5t11 24.5t30 58.5t32 63.5t20 44t15 35t10.5 18t11.5 20.5t9 16.5t17.5 32t37 58t22.5 41q-1 9 -21 9t-32 -24q-84 -143 -116 -213t-48 -98t-39 -83t-32 -74t-30.5 -71.5t-37.5 -79.5l-31 -57q-12 -23 -33 -23t-53.5 51.5t-68.5 126t-86 155.5 q-50 80 -102 186t-61 122q-29 63 -55 64q-14 0 -20 -6q-4 -14 46 -94q51 -80 123 -218t90 -166t58.5 -111t60.5 -122h-16q-193 0 -202 -8t-9 -14q0 -18 35 -19l29 4l106 -4l78 6q12 0 18 -2l9 -41q4 -57 4 -170v-24l-43 -4l-195 -9h-9q-9 0 -17 1t-26 -2t-18 -17t29 -14 l127 4l41 -4l43 2q43 2 64 -2q4 -10 4 -120t11 -117t23 -7t13 12l-6 144l2 43q-4 16 -4 24t6 14l-4 3h28l166 12q123 0 123 20t-45 21l-43 -4l-195 -9q-25 0 -24 23l-14 174v6l8 41l84 12l159 -10q49 0 49.5 20.5t-36.5 20.5l-113 -4q-100 0 -100 25z" glyph-name="yen" horiz-adv-x="1267" unicode=""/><glyph d="M278 811q-46 0 -74 8t-30 47l-8 191l-2 145l8 262q0 72 33 72l102 -4l27 2q41 0 41 -57l8 -332l2 -205q0 -125 -35 -127q-27 -2 -72 -2zM383 -206q0 -3 -2 -7t-5 -13.5t-8.5 -11.5t-12.5 -7t-27 -7t-47 -2t-80 8q-29 8 -30 44t-1 232t4 359q0 59 39 62h55q51 0 80 -2 t29 -43v-148l6 -266v-198zM285 891q18 0 18 7l-10 226l2 33l-2 158h2q0 137 -27 137q-12 -2 -12 -27l6 -403l-1 -66q-1 -65 24 -65zM289 231h4v67q0 67 -27 67q-10 -1 -10 -97t-4 -276l-4 -119q0 -12 6 -31.5t16 -19.5q18 0 19 31l-4 190l4 37v151z" glyph-name="brokenbar" horiz-adv-x="548" unicode=""/><glyph d="M123 -125q0 49 11 73t40 68.5t39 44.5t133 -60.5t166 -68.5t75 -8t90 14t60 13q45 4 74 57q18 27 18 43t-5 26.5t-14 22.5t-15 30t-45 44t-74 36q-35 11 -109.5 32.5t-149 45t-149.5 68.5q-38 30 -76 88.5t-38 112.5q0 55 9 91t33.5 66.5t41 46t59.5 47.5t61 46 q-8 6 -37.5 24.5t-72 45t-72.5 110.5q-14 53 -14 92q0 147 149 248q35 24 77 31.5t95 19.5t156 13h47q35 -2 131 -27t115 -43l31 -29q33 -29 33 -57t-46 -127q-8 -20 -48 -20t-79 34q-17 13 -37 17t-63 31t-105 27t-120 -31t-58 -81t26 -70t52.5 -31t60 -21.5t54.5 -18.5 t67 -26.5t56 -22.5t23.5 -11t24.5 -12t37.5 -17.5t37.5 -16.5q57 -27 99 -111t42 -141t-17.5 -111.5t-46.5 -81.5q-41 -33 -61 -71q4 -2 11.5 -7.5t19.5 -11.5l20 -10q20 -10 32.5 -20.5t23.5 -19t17.5 -18t31.5 -34.5q55 -65 55 -146t-49 -159q-6 -10 -24 -40.5t-42 -49.5 q-86 -76 -194 -117l-21 -1l-110 1l-52 -4q-33 0 -109.5 13t-88.5 14t-25.5 3t-25 3.5t-27.5 11.5t-64 18q-50 8 -135 60q-16 6 -16 20zM899 1275q0 15 -81 45t-99 32t-52.5 9t-90.5 7t-80 -8t-42 -15.5t-24 -9.5q-80 -25 -139 -116q-23 -35 -23 -96t33 -109.5t73 -69t79 -40 t45 -32.5q-4 -2 -20.5 -14t-26.5 -16q-111 -57 -158 -115t-47 -125t33 -108l20 -31q39 -59 87.5 -75t111.5 -42q63 -27 186 -50t145 -36q123 -70 123 -162q0 -72 -51 -142t-115 -78.5t-90 -15.5t-62 -7t-130 13t-176.5 50t-91.5 37q-10 0 -11 -12q0 -29 68 -58 q164 -72 323 -71q47 0 82 7t81.5 7t117 58.5t78.5 111.5q16 88 16 98q0 43 -37 101l-20 32q-20 39 -87 61.5t-87 45.5q12 8 35.5 25.5t33.5 23.5t56.5 57.5t48.5 65.5l2 18l10 66q0 114 -83 186t-214 94q-88 18 -192.5 68t-126.5 102t-22 72t3 41q39 174 297 174 q63 0 99 -12t65 -20.5t34 -10.5l77 -26q16 0 16 15zM662 350q-27 0 -84 10q-74 18 -122 38t-108.5 76t-60.5 120q0 145 237 242q12 6 41 6t45 -4t74.5 -9.5t134.5 -62.5t82 -121l4 -53q0 -53 -44 -110.5t-95 -88.5q-39 -29 -61 -33q-16 -10 -43 -10zM399 612q0 -50 41 -77 q4 -2 18.5 -15.5t24.5 -17.5q102 -53 166 -53t100.5 31.5t36.5 78.5t-30 105q-4 10 -22.5 23t-20.5 15q-59 51 -105 52l-41 4q-25 0 -78 -24.5t-67 -45.5q-23 -26 -23 -76z" glyph-name="section" horiz-adv-x="1228" unicode=""/><glyph d="M618 1321q0 -80 -79 -107q-43 -14 -76 -14t-78 25q-16 8 -27.5 47.5t-11.5 75.5t35 70t82 34l59 -8q43 -4 69.5 -41t26.5 -82zM262 1311q0 -51 -37 -90t-82 -39t-112 47q-31 19 -31 80q0 23 5 36t6 36.5t9.5 34.5t32.5 18l68 18q43 0 81 -19.5t49 -65.5t11 -56z" glyph-name="dieresis" horiz-adv-x="618" unicode=""/><glyph d="M1542 752q0 -145 -23 -275t-135 -258q-51 -76 -122 -127l-35 -26q-21 -18 -52.5 -22.5t-41.5 -8.5q-147 -49 -222 -49q-373 0 -551 186q-104 109 -119 143t-35 86t-28 72q-35 90 -35 203q0 114 31 226t74 192t162 180q195 160 469 160q164 0 354 -88q115 -53 233 -242 q76 -119 76 -352zM1479 726q0 102 -6 142q-35 172 -130 279q-54 73 -78 94t-40 33q-81 52 -177 76t-158 24t-125 -13q-64 -13 -93 -25.5t-41 -16.5q-86 -27 -168 -84t-133 -131q-23 -31 -59 -114q-36 -82 -48 -146t-12 -191q0 -172 147 -385q51 -72 146 -135l33 -18 q160 -70 303 -70q134 1 279 55q73 28 93 46q20 20 40 39.5t41.5 41t34.5 42.5t52 79t69 167t30 211zM811 80q-115 0 -221 53q-18 10 -55 23q-29 18 -60 41q-231 199 -231 524q0 101 26 169t33 95q23 82 102.5 159t167.5 116q4 2 29.5 16.5t126.5 40.5q101 25 156 25t91 -9 q36 -8 95.5 -18.5t173.5 -97.5q8 -6 16.5 -20.5t14.5 -20.5q74 -74 133 -218q31 -70 31 -208l2 -72q0 -50 -33 -164t-106 -221q-98 -137 -287 -193l-45 -10q-45 -10 -160 -10zM1384 737q0 87 -28 185t-52 134t-53.5 64t-49.5 50t-113.5 67t-233.5 45h-6q-123 -2 -196.5 -36 t-137.5 -86t-74 -64.5t-22 -37t-16 -30.5t-20.5 -33.5t-23.5 -46.5q-51 -143 -51 -254q0 -132 70 -276q8 -20 33.5 -54t39.5 -54t42 -38q66 -51 159 -85.5t189 -34.5t159.5 16t153.5 70t143 160q53 108 70.5 180.5t17.5 158.5zM487 750q0 146 154 294q104 96 281 97 q76 0 125 -29q33 -16 33 -82t-15 -76q-106 41 -154 41q-137 0 -202 -83t-66 -146v-37q0 -51 4 -90t44 -93t87 -71q86 -29 150 -29t116 41q8 6 19 7q29 -1 29 -62q0 -26 -13 -56.5t-71.5 -46.5t-75.5 -16l-49 4l-56 -2q-43 0 -64 10.5t-55 24.5t-102 76t-94 161 q-25 99 -25 163zM868 1081q-57 0 -119.5 -27.5t-108.5 -79.5q-65 -74 -81 -145q-18 -49 -18 -96t14 -108l10 -47q8 -27 44 -80t65 -70q86 -59 254 -59q23 0 69.5 10t46.5 24.5t-17 14.5t-41.5 -7.5t-33.5 -9.5l-55 -2q-293 0 -322 299v27q0 135 99 238l26 28q49 33 80 39 q41 18 111 19l72 -11q37 0 36 15q0 28 -131 28z" glyph-name="copyright" horiz-adv-x="1685" unicode=""/><glyph d="M578 1466l116 -14q172 -29 178 -373l9 -262q0 -80 -22.5 -83t-53.5 -3h-82q-18 0 -22.5 5t-8.5 24l-6 28q-27 0 -53 -16q-86 -47 -212 -47t-212 57.5t-86 165.5q0 72 49 150q31 48 145 88q31 12 64 12l65 -4q117 0 207 -35l9 -2l6 2q11 79 -47 114.5t-129.5 35.5 t-145.5 -35q-66 -27 -67 -29h-5q-2 -2 -4 -2q-14 0 -37.5 39t-23.5 47t4 17q31 57 148.5 88.5t207.5 31.5h9zM770 768q23 0 23 49l-7 78v129l-2 94q0 55 -2 82q-4 78 -47 127l-17 26q-18 26 -42 36q-82 20 -101 20q-104 0 -258 -47q-18 -4 -18 -18q1 -14 21 -13 q20 0 86.5 21.5t111.5 21.5l41 4q125 0 172 -108q20 -45 21 -197q-131 68 -314 68q-88 0 -165.5 -55.5t-77.5 -141.5q0 -43 29.5 -84.5t87.5 -61.5t72 -21q16 -1 52 -1t57 4t51.5 14.5t55.5 17.5t141 54q0 -98 29 -98zM459 813q-121 0 -171 41t-50 83t22 77q47 92 168 88h51 q164 0 248 -64q23 -14 23 -49l-2 -47q-4 -30 -43 -45.5t-55 -25.5t-98 -34t-93 -24zM649 968q0 40 -45 61.5t-86 21.5q-8 2 -22 2q-12 4 -23 4q-106 0 -141 -72q-6 -12 -6 -27q0 -37 49 -55t97 -18t112.5 21.5t64.5 61.5z" glyph-name="ordfeminine" horiz-adv-x="1003" unicode=""/><glyph d="M-10 675q0 9 76 100t98 115t78 75q12 12 42 12t119 -14q16 0 17 -13q0 -14 -113.5 -136t-113.5 -128t18 -31.5t39.5 -53.5t27.5 -39t64.5 -75t58.5 -83t-12 -21t-92 -14v2h-16q-19 0 -33 10t-40 40t-31 35t-30.5 31.5t-49 51t-50.5 54.5t-42 51.5t-15 30.5zM717 393 q0 -8 -42 -15t-70 -7t-40 16q-18 16 -132 153.5t-114 144.5t74 81t91.5 93.5t59 66.5t64.5 47l88 -10q23 0 37 -23q-18 -20 -61.5 -65.5t-57.5 -63.5t-53 -52t-67 -79q10 -14 116.5 -143t106.5 -144zM76 687q0 -11 6 -23.5t99 -122t104 -117.5q12 -6 19 -6t7 13t-10 24 q-43 43 -114.5 127t-71.5 103t100 121.5t100 111.5q0 10 -14 10t-29 -21l-63 -65q-113 -120 -123 -132t-10 -23zM385 689q0 -3 14 -21t21 -25l100 -117q4 -4 9.5 -13t11.5 -16t29.5 -32t31.5 -39q8 -8 20 -8t17 2q0 12 -103.5 132t-103.5 136v6q0 2 18 20t34 35t27 28t32 39 t29 35q60 56 61 66q-1 11 -13 11t-34 -23t-68 -76l-69 -73q-2 -2 -9.5 -11.5t-11.5 -13.5l-37 -33q-6 -6 -6 -9z" glyph-name="guillemotleft" horiz-adv-x="868" unicode=""/><glyph d="M950 706q0 -54 -4 -112q0 -61 -2 -82q-4 -41 -57 -41l-94 2q-57 4 -58 51v94q0 16 -22 17h-88v-2q-119 4 -183 4l-274 -8q-43 0 -43 33l-2 116q0 18 15 22t208 3l82 4q289 0 492 -10q27 -4 28 -23q2 -14 2 -68zM872 723q0 16 -49 16l-61 -4l-342 4q-27 0 -166 -10v2 l-47 2q-12 0 -12 -14q-1 -27 31 -27t102 4l86 6l143 -6l98 4l109 -6l33 2q16 0 24 -2l1 -15l1 -93q0 -31 24.5 -31t24.5 53v115z" glyph-name="logicalnot" horiz-adv-x="1073" unicode=""/><glyph d="M717 737q66 0 82 -13.5t16 -63.5q0 -94 -51 -99h-22l-275 -6l-127 4l-45 -2q-133 0 -149.5 6t-19.5 11.5t-3 15.5v8l2 96q2 43 141 43l20 -1l60 -2l162 -7l190 10h19zM745 647q0 27 -47 24t-49 -3l-393 2q-63 0 -63 -18t14 -20q14 -3 145 -3l180 4h62l141 -2q10 0 10 16z " glyph-name="uni00AD" horiz-adv-x="911" unicode=""/><glyph d="M1542 752q0 -145 -23 -275t-135 -258q-51 -76 -122 -127l-35 -26q-21 -18 -52.5 -22.5t-41.5 -8.5q-147 -49 -222 -49q-373 0 -551 186q-104 109 -119 143t-35 86t-28 72q-35 90 -35 203q0 114 31 226t74 192t162 180q195 160 469 160q164 0 354 -88q115 -53 233 -242 q76 -119 76 -352zM1479 726q0 102 -6 142q-35 172 -130 279q-54 73 -78 94t-40 33q-81 52 -177 76t-158 24t-125 -13q-64 -13 -93 -25.5t-41 -16.5q-86 -27 -168 -84t-133 -131q-23 -31 -59 -114q-36 -82 -48 -146t-12 -191q0 -172 147 -385q51 -72 146 -135l33 -18 q160 -70 303 -70q134 1 279 55q73 28 93 46q20 20 40 39.5t41.5 41t34.5 42.5t52 79t69 167t30 211zM811 80q-115 0 -221 53q-18 10 -55 23q-29 18 -60 41q-231 199 -231 524q0 101 26 169t33 95q23 82 102.5 159t167.5 116q4 2 29.5 16.5t126.5 40.5q101 25 156 25t91 -9 q36 -8 95.5 -18.5t173.5 -97.5q8 -6 16.5 -20.5t14.5 -20.5q74 -74 133 -218q31 -70 31 -208l2 -72q0 -50 -33 -164t-106 -221q-98 -137 -287 -193l-45 -10q-45 -10 -160 -10zM1384 737q0 87 -28 185t-52 134t-53.5 64t-49.5 50t-113.5 67t-233.5 45h-6q-123 -2 -196.5 -36 t-137.5 -86t-74 -64.5t-22 -37t-16 -30.5t-20.5 -33.5t-23.5 -46.5q-51 -143 -51 -254q0 -132 70 -276q8 -20 33.5 -54t39.5 -54t42 -38q66 -51 159 -85.5t189 -34.5t159.5 16t153.5 70t143 160q53 108 70.5 180.5t17.5 158.5zM1153 823q0 -130 -135 -231l41 -64l35 -45 q69 -85 69 -121q0 -31 -100 -30q-31 0 -57.5 32.5t-55 105.5t-76.5 77h-57l-31 2q-31 0 -30 -2q-16 0 -17 -21v-145q-2 -33 -37 -35q-30 -4 -52 -4t-34 9t-14 23t0 150v508l4 58q0 25 9.5 32.5t30.5 11.5q20 4 132 3t181 -17t143 -98q41 -42 46 -106t5 -93zM1085 394 q0 13 -45 67q-16 23 -46.5 73t-47.5 74q70 39 103.5 83t42.5 120q4 17 4 27q0 167 -106.5 210.5t-170.5 43.5q-147 0 -149 -14t-2 -74v-58l-6 -129l-3 -160l9 -77l-2 -162q0 -31 12 -31t12 33l-2 47q0 66 6 137l193 2q18 0 28 -2q8 -14 28 -35.5t26 -31.5l12 -25 q16 -31 52 -82t50 -51q2 2 2 15zM824 1061q58 0 102 -19l26 -6q53 -12 85 -72.5t32 -121.5q0 -125 -82 -176q-6 -2 -16 -11.5t-27 -11.5l-102 -12q-98 0 -150 -2l-6 104l2 43v29l4 51l-4 41l6 111v47q72 6 130 6zM1020 856q0 37 -12 69t-53 57.5t-77 29.5t-75 4t-44 -1 t-7 -3t-3 -7.5t0 -8.5t1 -4v-218q0 -58 3 -80t19 -22q248 0 248 184z" glyph-name="registered" horiz-adv-x="1685" unicode=""/><glyph d="M467 1384q0 -43 -4 -63q-6 -39 -51 -43q-147 -4 -224 -4h-73l-47 -1t-56.5 16t-9.5 67t9 60.5t71 10.5l35 -2l270 11l29 4q51 -1 51 -56z" glyph-name="macron" horiz-adv-x="464" unicode=""/><glyph d="M666 1159q0 -201 -168 -252q-34 -12 -100 -12t-124.5 21.5t-104.5 90.5t-46 137q0 184 99 242t153 58l20 -2l23 2q33 0 78 -19q92 -41 131 -102.5t39 -163.5zM610 1171q0 93 -63.5 151t-147.5 58q-35 0 -69 -12q-150 -55 -150 -190t88 -187q66 -39 152 -39t138 63t52 156 zM580 1192q0 -180 -131 -205h-3q-16 -2 -62 -2q-46 1 -90 27t-63.5 58.5t-19.5 103.5t50 124.5t144 53.5t138 -70q37 -55 37 -90zM281 1190q0 -55 17 -96t88 -41q70 0 96 40t26 94t-26.5 87t-79.5 33t-87 -31t-34 -86z" glyph-name="degree" horiz-adv-x="800" unicode=""/><glyph d="M729 1057l-2 -131q-2 -131 -4 -154q12 -6 22 -6l273 6q23 0 37 -9t14 -99l-4 -76q0 -24 -13.5 -28.5t-23.5 -8.5t-49 -4l-139 -6l-111 2h-12l-2 -51l6 -121l-6 -90q0 -35 -6 -45q-26 -29 -195 -16q-39 3 -39 34l-4 156l4 122q0 18 -18 19l-127 -8h-164q-20 2 -26.5 7.5 t-11.5 57.5t-5 97t10 60t53 15h64l108 2q76 0 115 2q6 29 6 86l-4 134q0 66 2 92t31 34q28 8 94 8q126 0 127 -81zM971 666q0 25 -23 24h-6q-74 -6 -151 -6l-72 2q-45 -4 -68 -4h-41v47l4 164q0 102 -2 154q-2 12 -20.5 12t-18.5 -12l5 -142q0 -147 -7 -217l-26 -2l-318 4 q-12 0 -12 -14q0 -29 23 -29l94 2h182q18 0 59 -4l5 -125v-178q4 -16 23 -16t20 36l-7 154q-4 50 -4 129l275 6l57 -4q29 1 29 19zM1006 82q34 0 48.5 -9t14.5 -100l-4 -75q0 -24 -13.5 -28.5t-23.5 -8.5t-49 -4l-139 -7l-50 1l-624 2q-20 2 -26.5 8t-11.5 57t-5 96t10 60.5 t53 15.5h64l108 2q442 0 528 -5t120 -5zM971 -25q0 25 -23 25h-6q-74 -6 -151 -6l-72 2q-45 -4 -174 0l-318 4q-12 0 -12 -14q0 -29 23 -29l94 2h182q205 0 371 2l57 -4q29 0 29 18z" glyph-name="plusminus" horiz-adv-x="1193" unicode=""/><glyph d="M424 1280q-41 0 -63.5 -27.5t-32 -55.5t-23.5 -28q-95 1 -119 5t-24 22q0 66 28 106t50 68q23 29 70.5 49.5t92.5 20.5q170 0 238 -82q55 -72 55 -129l-2 -33q0 -145 -96 -235l-115 -107q-8 -8 -42.5 -30.5t-43.5 -37.5q20 -8 185 -8l65 4q25 0 25 -68t-14.5 -82 t-73.5 -14l-92 5q-30 -1 -54 -5t-125 -4h-15h-112q-43 0 -43 35q0 27 31 150q14 51 199 194q37 29 48 41t24.5 34t22.5 33t22 23.5t17.5 23t4.5 44.5l2 18q0 33 -24.5 51.5t-65.5 18.5zM635 1181q0 44 -13 87t-80 80.5t-120 37.5q-104 0 -178 -129q-4 -8 -4 -11t20 -23 q8 6 15.5 19.5t12.5 19.5t21.5 30.5t26.5 28.5q12 4 37 17.5t64 13.5q40 0 91.5 -29t61.5 -67t10 -64q0 -100 -182 -246q-10 -8 -46 -40t-75 -62q-76 -57 -78 -133q0 -41 41 -41l92 8h62l63 6l98 -6q41 0 41 14q0 20 -36 21l-248 -4q-39 0 -78 8q15 64 64 101.5t59 47.5 q11 10 37 30t54 44.5t40 32.5q70 45 96 108q6 16 18 36t13 64z" glyph-name="uni00B2" horiz-adv-x="839" unicode=""/><glyph d="M256 1186h-33q-33 0 -33 35q0 98 70 159.5t165 61.5t156.5 -60.5t61.5 -134.5t-17.5 -104.5t-41.5 -63.5l18 -14q86 -60 86 -195t-80 -210.5t-213 -75.5q-72 0 -134 43t-90 108.5t-28 116.5t8.5 64.5t66.5 13.5t85 -7q26 -7 27.5 -64.5t27 -83t72.5 -25.5t70.5 36.5 t23.5 80.5t-24.5 69t-48 30t-51.5 8t-59.5 3t-45.5 4q-25 4 -25 29v47q0 47 10 47h115q105 0 105 80q0 37 -17.5 62.5t-52.5 25.5t-56.5 -12.5t-22.5 -27.5t-13.5 -30.5t-81.5 -15.5zM436 1372q-66 0 -95 -13q-30 -13 -59 -41q-28 -28 -28 -39t7 -17.5t11 -6.5 q4 2 27.5 37.5t91.5 42.5l43 6q49 0 89 -37.5t40 -87t-47 -103.5t-93 -56q-46 -1 -46 -21t41 -20l31 2q59 -4 98 -49t39 -113t-22 -106t-95 -60q-25 -10 -43 -10q-112 0 -150 76q-2 2 -11 36t-9 57t-14 23q-49 0 -16.5 -79.5t68 -113.5t122.5 -34q88 0 145 50t57 134l3 45 q0 78 -76 140q-6 4 -53 30q6 6 40 37q62 55 62 128t-46 118t-112 45z" glyph-name="uni00B3" horiz-adv-x="843" unicode=""/><glyph d="M0 1155q0 51 143 246q20 27 56 30q35 3 133 3t98 -23q0 -14 -31 -45q-61 -53 -145 -168q-44 -59 -94 -59l-117 -4q-43 0 -43 20z" glyph-name="acute" horiz-adv-x="430" unicode=""/><glyph d="M905 42q0 36 -6 77q-2 -2 -71 -53.5t-136 -51.5l-33 4l-43 -4q-57 0 -178 47l-10 -217v-30l8 -97q0 -8 -10 -65q-18 -25 -72 -25l-71 6q-45 2 -66.5 17.5t-21.5 60.5l-5 174l-6 387q-4 53 -4 76l2 105l-16 381v86q0 85 29 127q4 10 32 14q87 4 117 4t50 -13.5t20 -29.5 l-4 -31l6 -37q4 -57 4 -88l-6 -143l8 -113l-4 -67l18 -125v-15q-2 -55 23 -83.5t77 -57.5t121 -29q168 0 252 148q6 10 6 15l-4 151l2 59l-2 199q0 33 -8 115v6l6 114q0 35 41 35t140 -4l16 2q43 0 43 -17v-93l-1 -21l-1 -143v-41q0 -47 10 -105v-20l2 -74l-6 -186l10 -217 q0 -102 -12 -142q-10 -28 -122 -28t-118 10t-6 46zM997 293q23 -23 23 -87t-4 -79q4 -8 4 -21v-14q8 -16 24 -16q27 -1 27 22l-12 371l-4 70l2 63l-4 88l-4 184l2 97q0 20 -17 26l-24 -12q0 -12 -4 -37q6 -25 6 -51l-2 -90l4 -145l-2 -93l2 -43q0 -74 -4 -90 q4 -23 -14.5 -57.5t-39.5 -42.5q-35 -66 -155 -158q-82 -57 -174 -57q-8 0 -13 2q-197 18 -243 119q-14 8 -30.5 40t-16.5 44t4 24q-12 20 -13 51l4 197l-4 53q-6 104 -6 169t1 79t3.5 44t-30.5 30q-14 0 -15 -45l2 -107v-184l2 -86l-8 -115l8 -164v-82q4 -41 4 -59l-2 -74 l11 -114l-2 -72l2 -68l-2 -63q0 -33 26 -33q10 0 18.5 8.5t8.5 10.5l-10 57l4 27l-6 157l2 41l-2 158q0 6 4 16.5t4 14.5q18 -6 22 -11q82 -76 183 -92q83 -18 119 -18t49 4q155 56 211 128q28 36 81 85z" glyph-name="uni00B5" horiz-adv-x="1329" unicode=""/><glyph d="M782 330l-2 -22l-4 -105q-2 -43 -2 -209t-4 -291q-2 -45 -53 -45l-82 4q-23 0 -37 16.5t-14 38.5l4 240l-8 211l4 154q0 240 -9 264q-2 14 -16 16l-27 2q-68 4 -159 45q-59 29 -127 114t-90 150q-2 8 -18 41t-16 113t35.5 145.5t88.5 106.5q6 2 8 8q43 49 135 76t172 27 l53 -7l86 9h56l112 2q195 0 293 -4q59 -2 62 -60v-106l10 -119v-53q0 -147 -2 -222l-10 -84q0 -143 -7 -263t-8 -146l6 -213l-6 -78l6 -84l-2 -74q0 -217 -4 -237q-4 -29 -37 -29q-6 0 -24.5 -1t-30.5 0t-61 3.5t-49 56.5l6 123q2 61 2 187l-4 84q0 321 8 419q8 97 8 171 l-8 90l6 133l-4 116v236q-119 12 -180 12l-47 -2q-16 -3 -19.5 -7.5t-3.5 -12.5l2 -121l-4 -90l8 -438l-2 -72zM1098 -233q0 -27 26 -27t25 29l-12 227q-6 117 -7 233l3 86l6 68l-6 68l-3 157v135l7 177l-7 313q0 111 -20 110q-16 0 -16 -34l4 -60q2 -51 2 -151l-4 -137 l-2 -115l6 -240l-4 -215l-4 -115l6 -202v-307zM680 -256q20 0 20 47l-8 203q8 56 8 121l-2 241l2 80v117q-12 96 -12 154l2 26l-6 139l1 18l-3 140l4 172l-2 47l2 21q0 70 -22 69q-6 0 -13.5 -11t-7.5 -19l6 -43v-533q4 -12 4 -18l3 -87l8 -376l4 -72l-2 -160l-9 -239l-2 -8 q0 -29 25 -29z" glyph-name="paragraph" horiz-adv-x="1396" unicode=""/><glyph d="M397 745q0 -68 -47 -92l-14 -10q-20 -20 -78 -20t-96.5 35.5t-38.5 97.5t40 97.5t84 35.5q85 0 120 -68q4 -10 17 -25t13 -51zM293 752q0 16 -11.5 27.5t-25.5 11.5q-25 0 -25 -32t31 -32t31 25z" glyph-name="periodcentered" horiz-adv-x="518" unicode=""/><glyph d="M383 -121q0 -8 -4 -24q-23 -102 -75 -136t-159 -34q-43 0 -94 11t-51 36q0 18 10 42.5t14 24.5l95 -14q98 0 98 70q0 27 -18.5 46t-44.5 19l-48 -8q-18 0 -36.5 9t-18.5 30q-1 21 15 36t63 101q20 35 53 35l51 -4q18 0 19 -10q0 -14 -41 -82q6 -2 27.5 -8.5t27.5 -8.5 t23.5 -9t23.5 -12t19.5 -14.5t25 -27t18.5 -38.5q7 -22 7 -30z" glyph-name="cedilla" horiz-adv-x="382" unicode=""/><glyph d="M175 1145q-9 0 -20.5 1.5t-11.5 33.5l7 92q2 16 16 31q37 33 84 96q16 23 41 28q72 10 88 11q31 0 37 -41t6 -240l-8 -309v-162l-6 -72q-6 -43 -46 -43l-69 -2q-45 0 -53.5 22t-8.5 46v76h2l3 237l-5 111l2 24l-2 39q-4 20 -45 21h-11zM317 1360q-14 0 -19 -4l-34 -35 q-70 -59 -76 -68q-4 -8 -4 -12q0 -14 14 -14t49.5 32.5t48.5 32.5t13 -45l-4 -108l4 -76l-10 -397q0 -45 14 -45q23 0 23 47v209l4 131l-4 102l2 125q2 125 -21 125z" glyph-name="uni00B9" horiz-adv-x="610" unicode=""/><glyph d="M487 731q-125 0 -192 37q-82 43 -127 137t-45 193q0 190 131 305q41 37 92 43q60 12 96 12q96 0 183 -44t121 -127t34 -212l-8 -63q-10 -57 -14 -66q-98 -215 -271 -215zM698 1083v43q-4 106 -70.5 183t-168.5 77q-51 0 -97 -16q-57 -20 -74.5 -39t-43.5 -53 q-49 -61 -49 -143q0 -219 112 -283q81 -47 139 -47l64 6q43 6 115.5 71t72.5 201zM670 1098q0 -108 -66 -189q-42 -47 -76 -60t-70 -13t-64 10q-90 32 -109 67q-5 14 -18 36t-20 39.5t-9 25.5t-7.5 27t-5.5 57q0 90 51.5 172t163.5 82q114 0 172 -73t58 -181zM600 1104 q0 74 -44 131t-104 57t-99.5 -45t-43.5 -87t-4 -60q0 -80 40 -136.5t113 -56.5t107.5 61.5t34.5 135.5z" glyph-name="ordmasculine" horiz-adv-x="917" unicode=""/><glyph d="M866 675q0 -9 -26.5 -47t-96.5 -108q-69 -69 -94 -99t-39 -40t-35 -10h-16v-2q-80 12 -92 14t-12 16t25.5 47t58.5 69t39 47t27.5 39t40 53.5t18.5 31.5t-114 128t-114 135t17 14q89 14 119 14t42 -12q55 -51 78 -75t98.5 -115t75.5 -100zM537 685q0 -7 -114 -144.5 t-132 -153.5q-12 -16 -40 -16q-27 0 -69 7t-43 15q0 15 106.5 144t116.5 143q-32 48 -69 81t-50 51t-57.5 63t-62.5 65q14 23 37 23l88 10q23 0 79.5 -64.5t132.5 -140.5t77 -83zM780 687q0 11 -10 23t-123 132l-63 65q-14 21 -28 21t-15 -10q0 -10 100 -111t100 -121 t-71.5 -104t-97.5 -110t-27 -40q0 -14 7 -14t19 6q10 8 103.5 117.5t99.5 122t6 23.5zM471 689q0 3 -6 9l-37 33q-4 4 -11 13.5t-9 11.5l-70 73q-82 97 -98 98t-17 -12q0 -8 34 -39q34 -32 55.5 -60t32.5 -39t27 -28t34 -35t18 -20v-6q0 -16 -103.5 -136t-103.5 -132 q5 -2 17 -2t20 8q8 14 31.5 38t29.5 32t11.5 17t9.5 13l100 117q7 7 21 25t14 21z" glyph-name="guillemotright" horiz-adv-x="868" unicode=""/><glyph d="M1337 430q0 -20 37 -20h21q34 -4 42 -32q7 -27 7 -53t-2 -37t-10.5 -17.5t-26 -10.5t-25.5 -4h-41q-2 -14 -2 -100t-4 -118t-11 -36t-32 -6l-59 -6q-59 0 -60 82l5 97q6 97 -19 97q-92 6 -182 6l-96 -2q-18 0 -24.5 23t-6.5 61q0 37 21 76t62.5 104.5t57.5 93.5t127 210 q16 27 49 28q74 0 133 8h9q41 0 41 -81l-11 -295l-2 -35q0 -33 2 -33zM1237 1335q0 -16 -86.5 -151.5t-97.5 -160.5t-23 -39t-40.5 -60.5t-39.5 -61.5l-98 -155q-232 -359 -308 -501t-126 -200q-16 -16 -56 -16t-83 8q-25 0 -25 18q0 33 82 154t96 145l98 166 q45 70 133.5 210t135.5 210l51 80q4 6 10 19.5t44 69.5t157 267q25 45 61 45q115 0 115 -47zM175 1145q-9 0 -20.5 1.5t-11.5 33.5l7 92q2 16 16 31q37 33 84 96q16 23 41 28q72 10 88 11q31 0 37 -41t6 -240l-8 -309v-162l-6 -72q-6 -43 -46 -43l-69 -2q-45 0 -53.5 22 t-8.5 46v76h2l3 237l-5 111l2 24l-2 39q-4 20 -45 21h-11zM1268 324q0 4 14 4q100 0 100 12v4q0 23 -39 23l-36 -2q-33 0 -37 6q-2 10 -2 30l2 48l6 303q0 39 -4 44t-35 5l-35 2q-14 0 -19 -3t-24 -34l-37 -59q-41 -55 -56 -82t-42 -62t-36 -53t-73 -119q-12 -25 -12 -41 q0 -23 25 -22l73 -2l129 6l99 -2q4 -33 4 -49l-4 -213q0 -14 12 -15l16 -2q12 0 13 31l-4 174l2 39v29zM948 375q0 2 39 61l103 162q10 16 50.5 81.5t63.5 88.5q6 2 17 2h18q6 -68 6 -158t-14 -243q-4 -2 -17 -2l-194 -5q-72 0 -72 13zM371 49q8 0 30 37l54 92q38 56 43 71 q6 15 62 106t64 103q7 12 41.5 59t101.5 161q66 114 123.5 197t140.5 228.5t101.5 177.5t18.5 36l-21 20q-8 -4 -184 -307l-55 -94q-12 -20 -39 -57t-37 -52l-121 -196l-55 -82l-61 -107q-12 -18 -48 -70t-100 -169l-63 -103q-14 -18 -15 -39q0 -12 19 -12zM317 1360 q-14 0 -19 -4l-34 -35q-70 -59 -76 -68q-4 -8 -4 -12q0 -14 14 -14t49.5 32.5t48.5 32.5t13 -45l-4 -108l4 -76l-10 -397q0 -45 14 -45q23 0 23 47v209l4 131l-4 102l2 125q2 125 -21 125zM1184 489l4 113v37l-8 2q-18 -27 -138 -221l23 -2l55 -2q60 0 62 17t2 56z" glyph-name="onequarter" horiz-adv-x="1665" unicode=""/><glyph d="M1356 594q0 70 -90 70q-41 0 -63.5 -27t-32 -54.5t-23.5 -27.5q-103 0 -123 3t-20 22q0 68 30 112t50 67q20 24 69 45t92 21q170 0 238 -82q55 -72 55 -131l-2 -30q0 -150 -96 -236q-20 -18 -57 -54t-51 -49t-49.5 -36t-43.5 -37q20 -8 184 -8l66 4q25 0 25 -68 t-13.5 -81t-75.5 -13l-92 2q-23 0 -53 -4t-125 -4l-61 2l-66 -2q-43 0 -43 35q0 27 31 149q16 55 196 195q37 25 54 47l43 61q10 14 25.5 28.5t17.5 24t2 37.5zM1237 1335q0 -16 -86.5 -151.5t-97.5 -160.5t-23 -39t-40.5 -60.5t-39.5 -61.5l-98 -155q-232 -359 -308 -501 t-126 -200q-16 -16 -56 -16t-83 8q-25 0 -25 18q0 33 82 154t96 145l98 166q45 70 133.5 210t135.5 210l51 80q4 6 10 19.5t44 69.5t157 267q25 45 61 45q115 0 115 -47zM175 1145q-9 0 -20.5 1.5t-11.5 33.5l7 92q2 16 16 31q37 33 84 96q16 23 41 28q72 10 88 11 q31 0 37 -41t6 -240l-8 -309v-162l-6 -72q-6 -43 -46 -43l-69 -2q-45 0 -53.5 22t-8.5 46v76h2l3 237l-5 111l2 24l-2 39q-4 20 -45 21h-11zM1477 566q1 44 -13 87t-80.5 80t-119.5 37q-109 0 -179 -129q-4 -4 -4 -9t21 -26q8 6 15 21.5t12 20.5t20.5 29.5t26.5 29.5 q12 4 37.5 17t65.5 13t101.5 -35t61.5 -131t-182 -241l-44 -36q-44 -36 -82 -69q-38 -32 -57 -60t-18 -69q0 -43 43 -43l92 10l16 -1l109 6l98 -7q41 0 41 15q0 23 -37 22l-247 -4q-49 0 -78 6q5 57 58.5 99.5t72.5 59.5t37 29t45.5 37t40.5 33q68 43 94 107l10 20 q23 37 23 81zM371 49q8 0 30 37l54 92q38 56 43 71q6 15 62 106t64 103q7 12 41.5 59t101.5 161q66 114 123.5 197t140.5 228.5t101.5 177.5t18.5 36l-21 20q-8 -4 -184 -307l-55 -94q-12 -20 -39 -57t-37 -52l-121 -196l-55 -82l-61 -107q-12 -18 -48 -70t-100 -169 l-63 -103q-14 -18 -15 -39q0 -12 19 -12zM317 1360q-14 0 -19 -4l-34 -35q-70 -59 -76 -68q-4 -8 -4 -12q0 -14 14 -14t49.5 32.5t48.5 32.5t13 -45l-4 -108l4 -76l-10 -397q0 -45 14 -45q23 0 23 47v209l4 131l-4 102l2 125q2 125 -21 125z" glyph-name="onehalf" horiz-adv-x="1738" unicode=""/><glyph d="M1511 430q0 -20 37 -20h21q34 -4 42 -32q7 -27 7 -53t-2 -37t-10.5 -17.5t-26 -10.5t-24.5 -4h-42q-2 -14 -2 -108t-3 -118q-3 -25 -11 -28.5t-33 -5.5l-59 -6q-57 0 -57 82l4 97q4 97 -21 97q-88 6 -182 6l-94 -2q-17 0 -25 17.5t-8 61.5t22 82t63.5 103.5t57.5 93.5 t127 210q14 25 49 28q72 0 132 8h8q41 0 41 -81l-11 -295v-68zM256 1186h-33q-33 0 -33 35q0 98 70 159.5t165 61.5t156.5 -60.5t61.5 -134.5t-17.5 -104.5t-41.5 -63.5l18 -14q86 -60 86 -194t-80 -210.5t-213 -76.5q-72 0 -134 43t-90 108.5t-28 116.5t8.5 64.5t66.5 13.5 t85 -7q26 -7 27.5 -64.5t27 -83t72.5 -25.5t70.5 36.5t23.5 80.5t-24.5 69t-48 30t-51.5 8t-59.5 3t-45.5 4q-25 4 -25 29v47q0 47 10 47h115q105 0 105 80q0 37 -17.5 62.5t-52.5 25.5t-56.5 -12.5t-22.5 -27.5t-13.5 -30.5t-81.5 -15.5zM1413 1335q0 -16 -31 -62t-55 -87 q-85 -126 -97 -156t-24 -46t-44 -66t-110 -168t-201 -320q-122 -203 -167 -287t-92 -137q-16 -16 -56 -16t-83 8q-25 0 -25 18q0 2 11 30t41 76t71 108.5t54 82.5t47 80t67 108t121 189.5t129 201.5t50 78t15 30t54 84t147 253q25 45 61 45q117 0 117 -47zM1456 328 q100 0 100 12l3 4q0 23 -41 23l-35 -2q-33 0 -39 6l-2 30l2 48l6 303q0 39 -4 44t-35 5l-35 2q-14 0 -18 -3q-4 -4 -18 -24t-26 -39.5t-22 -34.5q-10 -16 -38 -60t-55.5 -79t-38.5 -57t-36.5 -63.5t-35.5 -56.5t-11 -36q0 -23 25 -22l74 -2l129 6l100 -2q2 -16 2 -49 l-4 -213q0 -14 12 -15l17 -2q14 0 14 31l-6 174l2 39q0 33 14 33zM1122 375q0 3 24 39t62 94t52 80t52.5 86.5t67.5 93.5q4 2 17 2h18q4 -90 4 -158t-12 -243q-6 -2 -18 -2l-195 -5q-72 0 -72 13zM436 1372q-66 0 -95 -13q-30 -13 -59 -41q-28 -28 -28 -39t7 -17.5t11 -6.5 q4 2 27.5 37.5t91.5 42.5l43 6q49 0 89 -37.5t40 -87t-47 -103.5t-93 -56q-46 -1 -46 -21t41 -20l31 2q59 -4 98 -49t39 -113t-22 -106t-95 -60q-25 -10 -43 -10q-112 0 -150 76q-2 2 -11 36t-9 57t-14 23q-49 0 -16.5 -79.5t68 -113.5t122.5 -34q88 0 145 50t57 134l3 45 q0 78 -76 140q-6 4 -53 30q6 6 40 37q62 55 62 128t-46 118t-112 45zM540 49q14 0 38 37q59 102 72 123t57 100q44 80 93 150q50 70 60 88l144 235q184 275 239 389q2 4 43 71.5t41 74.5l-22 20q-4 -5 -118 -197t-129 -214l-50 -76q-50 -74 -87.5 -135.5t-52.5 -83.5 l-53 -82q-18 -29 -46 -77q-27 -48 -53 -84t-36 -54l-74 -131q-78 -117 -79 -136q-1 -18 13 -18zM1360 489l4 113l-2 37l-8 2q-41 -59 -135 -221l22 -2l53 -2q61 0 64 16q2 18 2 57z" glyph-name="threequarters" horiz-adv-x="1814" unicode=""/><glyph d="M592 -12q-209 0 -326 84q-18 12 -80 98t-63 212q0 126 38 180t44 65q45 74 162 131q6 4 17 7t18 6t43.5 18.5t52.5 26.5q16 12 47 20t46 32.5t18 46t3 62.5t2 51q0 31 58 31q145 0 175 -5t32 -42l6 -49q0 -127 -86 -230q-29 -31 -53 -42t-69 -34t-95 -41t-127.5 -85.5 t-77.5 -137.5q0 -25 8 -43q45 -104 158 -104l57 -4l47 8q41 0 94.5 22.5t79 68.5t35.5 80t29 34q74 -1 127 -11t66.5 -21t13.5 -26l-11 -61q-4 -29 -53 -135q-2 -3 -18 -23t-24.5 -32.5t-12.5 -18.5t-13.5 -14.5t-19.5 -18.5q-33 -33 -222 -97q-28 -9 -126 -9zM233 392 q0 -64 24 -122t54 -88q106 -98 273 -98q233 0 342 154q12 16 27.5 51t21.5 44t6 22t-12 13t-26.5 -23t-30 -53t-18.5 -35t-14.5 -16.5t-15.5 -17.5q-33 -49 -121 -74.5t-140 -25.5t-139 20t-138.5 83t-51.5 139t33 142t86 103q96 66 137 84t66.5 29.5t53.5 21.5t44 19 q33 14 54.5 55t21.5 80v53q0 20 -22.5 20.5t-22.5 -22.5l4 -49q0 -93 -121 -131q-33 -8 -89 -43t-76.5 -46t-71 -45.5t-67.5 -62.5t-24.5 -41.5t-13.5 -23.5q-33 -52 -33 -116zM647 1204l-35 84q0 82 41 116t73 34t62 -6t68.5 -43t38.5 -87t-45 -94.5t-98 -44.5 q-59 6 -82 23.5zM725 1311q0 -14 11.5 -26.5t25.5 -12.5q24 0 24 33t-28 32q-33 1 -33 -26z" glyph-name="questiondown" horiz-adv-x="1208" unicode=""/><glyph d="M82 39q0 14 7 41t18 89.5t29 114.5t33 113t25.5 94t43.5 158t52 178t30 89t38 140t36 134t27.5 88.5t28.5 94.5t22.5 50.5t51.5 12.5h21q47 0 65.5 -16t123.5 -438q9 -38 26.5 -85t22.5 -76t30 -77t29 -84t38 -164q55 -205 99.5 -317t44.5 -140q0 -27 -29 -33l-92 -8 l-41 4h-16q-48 0 -59 50t-12 54t-3 14.5t-3 16.5t-4 14.5t-5 13.5t-12 20t-54 17q-45 3 -73 3l-152 -12l-35 4l-69 -4q-25 -1 -29 -7t-6 -13t-6.5 -42t-12 -82t-47.5 -47q-114 0 -148 8t-34 29zM899 120q1 26 -33 119t-42 137t-27 97t-22 73t-29.5 102t-39.5 110 q-12 28 -28 90q-23 91 -103 323q-29 106 -49 106.5t-24 -26.5q-12 -66 -33 -118l-14 -35q-7 -17 -15 -62q-25 -96 -31 -110t-16 -51t-22.5 -80t-15.5 -57t-10 -44t-7 -35l-49 -176q-2 -8 -8.5 -24.5t-12.5 -36.5t-20.5 -85t-24.5 -97l-37 -138q0 -16 33 -16q7 0 15 35t24 86 t21 78l88 -2l276 6q98 0 145 -8q16 -1 24 -23t22 -81t22 -71t25 -12q18 0 18 26zM500 319q-188 0 -209 3q2 18 12 54t12 52l11 49q0 2 2 2l16 60v2q18 78 26 99t20.5 79.5t22 83t15.5 56.5q6 31 13 51t43 133.5t40 117.5l8 19q18 -45 80 -246t103 -318.5t57 -183.5 q13 -37 25 -115q-109 2 -297 2zM426 416q0 -10 38 -12t159 -3q14 1 51 9q-28 106 -35 127q-8 19 -33 115t-61 216q-37 -37 -82 -276q0 -21 -3 -28t-9.5 -34.5t-15.5 -43.5t-9 -70zM188 1788q0 22 98 22t133 -3q36 -3 56 -29q143 -195 143 -246q0 -20 -43 -21l-116 5 q-49 0 -94 59q-84 115 -146 168q-31 31 -31 45z" glyph-name="Agrave" horiz-adv-x="1110" unicode=""/><glyph d="M82 39q0 14 7 41t18 89.5t29 114.5t33 113t25.5 94t43.5 158t52 178t30 89t38 140t36 134t27.5 88.5t28.5 94.5t22.5 50.5t51.5 12.5h21q47 0 65.5 -16t123.5 -438q9 -38 26.5 -85t22.5 -76t30 -77t29 -84t38 -164q55 -205 99.5 -317t44.5 -140q0 -27 -29 -33l-92 -8 l-41 4h-16q-48 0 -59 50t-12 54t-3 14.5t-3 16.5t-4 14.5t-5 13.5t-12 20t-54 17q-45 3 -73 3l-152 -12l-35 4l-69 -4q-25 -1 -29 -7t-6 -13t-6.5 -42t-12 -82t-47.5 -47q-114 0 -148 8t-34 29zM899 120q1 26 -33 119t-42 137t-27 97t-22 73t-29.5 102t-39.5 110 q-12 28 -28 90q-23 91 -103 323q-29 106 -49 106.5t-24 -26.5q-12 -66 -33 -118l-14 -35q-7 -17 -15 -62q-25 -96 -31 -110t-16 -51t-22.5 -80t-15.5 -57t-10 -44t-7 -35l-49 -176q-2 -8 -8.5 -24.5t-12.5 -36.5t-20.5 -85t-24.5 -97l-37 -138q0 -16 33 -16q7 0 15 35t24 86 t21 78l88 -2l276 6q98 0 145 -8q16 -1 24 -23t22 -81t22 -71t25 -12q18 0 18 26zM500 319q-188 0 -209 3q2 18 12 54t12 52l11 49q0 2 2 2l16 60v2q18 78 26 99t20.5 79.5t22 83t15.5 56.5q6 31 13 51t43 133.5t40 117.5l8 19q18 -45 80 -246t103 -318.5t57 -183.5 q13 -37 25 -115q-109 2 -297 2zM426 416q0 -10 38 -12t159 -3q14 1 51 9q-28 106 -35 127q-8 19 -33 115t-61 216q-37 -37 -82 -276q0 -21 -3 -28t-9.5 -34.5t-15.5 -43.5t-9 -70zM455 1534q0 51 143 246q20 28 56 30t134 2t97 -22q0 -14 -31 -45q-61 -53 -145 -168 q-44 -59 -95 -59l-116 -5q-43 0 -43 21z" glyph-name="Aacute" horiz-adv-x="1110" unicode=""/><glyph d="M82 39q0 14 7 41t18 89.5t29 114.5t33 113t25.5 94t43.5 158t52 178t30 89t38 140t36 134t27.5 88.5t28.5 94.5t22.5 50.5t51.5 12.5h21q47 0 65.5 -16t123.5 -438q9 -38 26.5 -85t22.5 -76t30 -77t29 -84t38 -164q55 -205 99.5 -317t44.5 -140q0 -27 -29 -33l-92 -8 l-41 4h-16q-48 0 -59 50t-12 54t-3 14.5t-3 16.5t-4 14.5t-5 13.5t-12 20t-54 17q-45 3 -73 3l-152 -12l-35 4l-69 -4q-25 -1 -29 -7t-6 -13t-6.5 -42t-12 -82t-47.5 -47q-114 0 -148 8t-34 29zM899 120q1 26 -33 119t-42 137t-27 97t-22 73t-29.5 102t-39.5 110 q-12 28 -28 90q-23 91 -103 323q-29 106 -49 106.5t-24 -26.5q-12 -66 -33 -118l-14 -35q-7 -17 -15 -62q-25 -96 -31 -110t-16 -51t-22.5 -80t-15.5 -57t-10 -44t-7 -35l-49 -176q-2 -8 -8.5 -24.5t-12.5 -36.5t-20.5 -85t-24.5 -97l-37 -138q0 -16 33 -16q7 0 15 35t24 86 t21 78l88 -2l276 6q98 0 145 -8q16 -1 24 -23t22 -81t22 -71t25 -12q18 0 18 26zM500 319q-188 0 -209 3q2 18 12 54t12 52l11 49q0 2 2 2l16 60v2q18 78 26 99t20.5 79.5t22 83t15.5 56.5q6 31 13 51t43 133.5t40 117.5l8 19q18 -45 80 -246t103 -318.5t57 -183.5 q13 -37 25 -115q-109 2 -297 2zM426 416q0 -10 38 -12t159 -3q14 1 51 9q-28 106 -35 127q-8 19 -33 115t-61 216q-37 -37 -82 -276q0 -21 -3 -28t-9.5 -34.5t-15.5 -43.5t-9 -70zM678 1505q-38 -1 -58 23t-44.5 60t-36.5 50l-62 -108q-16 -29 -47 -29q-141 0 -161 1t-19 14 q0 4 36 63t76.5 126t45.5 73q25 43 118 43q29 0 75 -3t75 -37t84.5 -108t73.5 -96t20 -30.5t1 -15.5t1 -15q-6 -10 -29 -11h-149z" glyph-name="Acircumflex" horiz-adv-x="1110" unicode=""/><glyph d="M82 39q0 14 7 41t18 89.5t29 114.5t33 113t25.5 94t43.5 158t52 178t30 89t38 140t36 134t27.5 88.5t28.5 94.5t22.5 50.5t51.5 12.5h21q47 0 65.5 -16t123.5 -438q9 -38 26.5 -85t22.5 -76t30 -77t29 -84t38 -164q55 -205 99.5 -317t44.5 -140q0 -27 -29 -33l-92 -8 l-41 4h-16q-48 0 -59 50t-12 54t-3 14.5t-3 16.5t-4 14.5t-5 13.5t-12 20t-54 17q-45 3 -73 3l-152 -12l-35 4l-69 -4q-25 -1 -29 -7t-6 -13t-6.5 -42t-12 -82t-47.5 -47q-114 0 -148 8t-34 29zM899 120q1 26 -33 119t-42 137t-27 97t-22 73t-29.5 102t-39.5 110 q-12 28 -28 90q-23 91 -103 323q-29 106 -49 106.5t-24 -26.5q-12 -66 -33 -118l-14 -35q-7 -17 -15 -62q-25 -96 -31 -110t-16 -51t-22.5 -80t-15.5 -57t-10 -44t-7 -35l-49 -176q-2 -8 -8.5 -24.5t-12.5 -36.5t-20.5 -85t-24.5 -97l-37 -138q0 -16 33 -16q7 0 15 35t24 86 t21 78l88 -2l276 6q98 0 145 -8q16 -1 24 -23t22 -81t22 -71t25 -12q18 0 18 26zM500 319q-188 0 -209 3q2 18 12 54t12 52l11 49q0 2 2 2l16 60v2q18 78 26 99t20.5 79.5t22 83t15.5 56.5q6 31 13 51t43 133.5t40 117.5l8 19q18 -45 80 -246t103 -318.5t57 -183.5 q13 -37 25 -115q-109 2 -297 2zM426 416q0 -10 38 -12t159 -3q14 1 51 9q-28 106 -35 127q-8 19 -33 115t-61 216q-37 -37 -82 -276q0 -21 -3 -28t-9.5 -34.5t-15.5 -43.5t-9 -70zM190 1532q0 209 144 258q61 22 114 22t121 -69.5t121 -69.5q25 0 41.5 33t17.5 56t17 30 q24 4 88 4t64 -29q0 -76 -39 -161q-53 -111 -193 -111q-57 0 -97 22.5t-70.5 72.5t-68.5 50t-61.5 -31t-23.5 -61t-2.5 -45.5t-38.5 -15.5l-91 2q-43 2 -43 43z" glyph-name="Atilde" horiz-adv-x="1110" unicode=""/><glyph d="M82 39q0 14 7 41t18 89.5t29 114.5t33 113t25.5 94t43.5 158t52 178t30 89t38 140t36 134t27.5 88.5t28.5 94.5t22.5 50.5t51.5 12.5h21q47 0 65.5 -16t123.5 -438q9 -38 26.5 -85t22.5 -76t30 -77t29 -84t38 -164q55 -205 99.5 -317t44.5 -140q0 -27 -29 -33l-92 -8 l-41 4h-16q-48 0 -59 50t-12 54t-3 14.5t-3 16.5t-4 14.5t-5 13.5t-12 20t-54 17q-45 3 -73 3l-152 -12l-35 4l-69 -4q-25 -1 -29 -7t-6 -13t-6.5 -42t-12 -82t-47.5 -47q-114 0 -148 8t-34 29zM899 120q1 26 -33 119t-42 137t-27 97t-22 73t-29.5 102t-39.5 110 q-12 28 -28 90q-23 91 -103 323q-29 106 -49 106.5t-24 -26.5q-12 -66 -33 -118l-14 -35q-7 -17 -15 -62q-25 -96 -31 -110t-16 -51t-22.5 -80t-15.5 -57t-10 -44t-7 -35l-49 -176q-2 -8 -8.5 -24.5t-12.5 -36.5t-20.5 -85t-24.5 -97l-37 -138q0 -16 33 -16q7 0 15 35t24 86 t21 78l88 -2l276 6q98 0 145 -8q16 -1 24 -23t22 -81t22 -71t25 -12q18 0 18 26zM500 319q-188 0 -209 3q2 18 12 54t12 52l11 49q0 2 2 2l16 60v2q18 78 26 99t20.5 79.5t22 83t15.5 56.5q6 31 13 51t43 133.5t40 117.5l8 19q18 -45 80 -246t103 -318.5t57 -183.5 q13 -37 25 -115q-109 2 -297 2zM426 416q0 -10 38 -12t159 -3q14 1 51 9q-28 106 -35 127q-8 19 -33 115t-61 216q-37 -37 -82 -276q0 -21 -3 -28t-9.5 -34.5t-15.5 -43.5t-9 -70zM844 1626q0 -80 -80 -106q-43 -14 -76 -14t-78 24q-16 8 -27.5 48t-11.5 76t35 69.5t82 33.5 l60 -8q43 -4 69.5 -41t26.5 -82zM487 1616q0 -51 -36.5 -90t-81.5 -39t-113 47q-31 19 -31 80q0 23 5 36t6.5 36.5t9.5 35t24 15.5t37.5 12t51.5 8t68 -19.5t49 -65.5t11 -56z" glyph-name="Adieresis" horiz-adv-x="1110" unicode=""/><glyph d="M82 39q0 14 7 41t18 89.5t29 114.5t33 113t25.5 94t43.5 158t52 178t30 89t38 140t36 134t27.5 88.5t28.5 94.5t22.5 50.5t51.5 12.5h21q47 0 65.5 -16t123.5 -438q9 -38 26.5 -85t22.5 -76t30 -77t29 -84t38 -164q55 -205 99.5 -317t44.5 -140q0 -27 -29 -33l-92 -8 l-41 4h-16q-48 0 -59 50t-12 54t-3 14.5t-3 16.5t-4 14.5t-5 13.5t-12 20t-54 17q-45 3 -73 3l-152 -12l-35 4l-69 -4q-25 -1 -29 -7t-6 -13t-6.5 -42t-12 -82t-47.5 -47q-114 0 -148 8t-34 29zM899 120q1 26 -33 119t-42 137t-27 97t-22 73t-29.5 102t-39.5 110 q-12 28 -28 90q-23 91 -103 323q-29 106 -49 106.5t-24 -26.5q-12 -66 -33 -118l-14 -35q-7 -17 -15 -62q-25 -96 -31 -110t-16 -51t-22.5 -80t-15.5 -57t-10 -44t-7 -35l-49 -176q-2 -8 -8.5 -24.5t-12.5 -36.5t-20.5 -85t-24.5 -97l-37 -138q0 -16 33 -16q7 0 15 35t24 86 t21 78l88 -2l276 6q98 0 145 -8q16 -1 24 -23t22 -81t22 -71t25 -12q18 0 18 26zM500 319q-188 0 -209 3q2 18 12 54t12 52l11 49q0 2 2 2l16 60v2q18 78 26 99t20.5 79.5t22 83t15.5 56.5q6 31 13 51t43 133.5t40 117.5l8 19q18 -45 80 -246t103 -318.5t57 -183.5 q13 -37 25 -115q-109 2 -297 2zM426 416q0 -10 38 -12t159 -3q14 1 51 9q-28 106 -35 127q-8 19 -33 115t-61 216q-37 -37 -82 -276q0 -21 -3 -28t-9.5 -34.5t-15.5 -43.5t-9 -70zM539 1950q156 0 223 -160q14 -29 14 -66q0 -90 -82 -168q-41 -39 -71.5 -57t-75.5 -18 q-92 0 -182 71q-31 28 -49 76t-19 62l6 63q4 70 55.5 126t116.5 65q31 6 64 6zM633 1726q0 45 -33 72t-74 27t-65.5 -33t-24.5 -69t28 -67.5t66 -31.5t70.5 28.5t32.5 73.5z" glyph-name="Aring" horiz-adv-x="1110" unicode=""/><glyph d="M1280 743q-4 0 -19.5 -1t-22.5 -4t-23 -8.5t-26 -21.5q-11 -17 -11 -30l4 -98l-4 -64q0 -16 10 -82q-6 -27 -7 -79t-4 -65t-3 -24q0 -41 47 -41l245 6l31 -2q102 -4 150 -4l75 2q94 0 95 -20v-43q1 -80 -5 -110t-28 -31h-72l-135 -5l-338 2l-125 7h-37v-4l-37 -3 q-20 0 -39 7q-4 113 -12 151h-53l-141 8l-250 -8q-37 0 -56 2q-39 0 -82 -76t-61 -86t-137 -10t-127 12q27 53 87 148.5t81 132.5q53 107 61 119t27.5 47t33.5 54t36 57t34.5 63t17.5 33t206.5 351.5t236.5 365.5q39 16 144 20v2q68 6 71 6l60 -2l241 4l168 2l142 9 q59 0 75.5 -15.5t16.5 -70.5l-6 -78q-2 -29 -31 -29l-113 2l-168 -8q-51 -4 -146 -6t-126 -4q-41 0 -41 -41l-10 -205q0 -51 43 -51l32 2l119 -10l314 10q14 0 34 -8v-7q2 -27 0 -83t-6 -67t-16 -13q-63 -8 -144 -9l-96 2l-76 -2l-59 2h-45zM1106 1006l-6 122q0 16 4 58h-2 l2 96q0 27 20 29l37 6q57 10 70 10l35 1l237 -3h228q16 0 16 14q0 31 -27 31l-41 -6l-82 -2l-190 4l-113 -4l-202 -12l-37 2l-56 -6l-34 2q-30 0 -58 -84l-102 -174q-43 -76 -120 -216.5t-110 -199.5l-32 -51q0 -2 -139.5 -254.5t-139.5 -270.5q6 -6 22 -6t21 8 q53 116 66 132t68 16t93 9t144 9q108 0 127 2q25 -4 37 -4l67 6l115 4q33 0 41 -7t8 -40l-4 -73q0 -45 18.5 -63.5t63.5 -18.5l90 6l49 -2l90 4l129 -4l76 2l72 -2q78 0 78 18q0 8 -8.5 17.5t-16.5 9.5l-174 -10l-215 8l-127 -2q-27 0 -37 1t-23.5 11.5t-16.5 58.5t-3 535 l-2 61q0 25 21 27q37 6 75 6l70 -4l152 12l172 -6q33 0 43 15q0 10 -10.5 19t-20.5 9l-18 -1l-121 -1l-23 -2l-180 -10h-133q-27 0 -29 29q-4 66 -4 129zM1025 1300q40 0 40 -75q0 -172 5 -207t5 -92l-2 -369v-205q-2 -29 -26 -33q-61 -12 -99 -12h-61q-61 2 -62 0l-379 -14 q-12 0 -40 4q20 35 60 104.5t88 158.5t208 372l45 72q101 195 145 249q33 47 73 47zM575 393v-4l105 -2h59q143 0 182.5 10.5t41.5 42.5q2 25 8 230l8 389v86l-53 -105q-13 -24 -60 -94l-55 -94q-63 -114 -103 -192t-86.5 -157t-46.5 -110z" glyph-name="AE" horiz-adv-x="1943" unicode=""/><glyph d="M1212 1220q0 -108 -41 -108q-25 0 -57 29q-12 9 -107 33t-137 24q-156 0 -269.5 -90t-164.5 -242q-18 -48 -18 -154q0 -179 76 -274q86 -115 179 -164t207 -49t234 39q8 2 24 10.5t36 8.5t24 -15q14 -39 14 -90q0 -50 -3 -74t-13 -36.5t-49.5 -32t-151.5 -33.5l-30 -4 q-4 -10 -35 -66q4 -2 21.5 -7t22.5 -7t20.5 -7t20.5 -8t17 -9.5t17.5 -11.5t13.5 -13t13 -16.5t15.5 -26.5t10.5 -23l-2 -43q-23 -100 -76 -135t-160 -35q-43 0 -94 11.5t-51 36.5q0 18 11 42.5t26 24.5l82 -14q98 0 98 67q0 29 -18.5 48.5t-45.5 19.5l-47 -8q-53 0 -53 35 q0 23 16 42t35 55t27 48q-23 0 -72 8q-227 25 -399 170q-10 8 -55 60q-52 56 -94 128t-76 226q-8 37 -9 149q0 233 131 414q92 127 125 150q79 59 219 96t179 37l16 -2l62 4q176 0 249 -45l52 -35q34 -30 34 -138zM857 1296q91 0 131 -11t65.5 -19.5t60.5 -17t35 11.5 t-86 46.5t-117 26.5l-31 -2l-59 6q-57 -1 -142 -23t-93.5 -26t-25.5 -13t-44.5 -22t-57.5 -45t-57.5 -55t-37.5 -32t-36 -50t-32 -55q-64 -158 -68 -197t-4 -102l6 -70q0 -20 8 -69l7 -25q6 -68 45 -129l55 -88q21 -38 139 -133q10 -8 70 -35q55 -31 64 -34t83 -19 q84 -23 156 -23t158 18.5t86 63.5l-2 12l-11 7q-6 0 -10 -5q-72 -41 -125 -41q-9 0 -23 -6t-57 -6l-61 4q-158 6 -318 109q-30 18 -61 49q-37 25 -119 160q-12 20 -23.5 69t-19.5 74t-8 135l8 94q2 41 37 118t57 110q82 104 189 174q16 10 97 37q81 28 172 28z" glyph-name="Ccedilla" horiz-adv-x="1312" unicode=""/><glyph d="M719 719l-163 10q-54 0 -159 -12l-6 -365l-1 -14l1 -100v-11q0 -6 27 -6q51 -10 129 -10l78 6l15 -1l103 3l35 -4l78 4l27 -4l88 -2h53q54 0 61 -14.5t12 -23.5t6 -23.5t1 -31t-4 -48.5t-5 -45t-16.5 -19t-16.5 -6h-52l-66 4l-110 -8h-80l-31 2l-59 -10l-84 6 q-90 0 -164 8l-49 14l-48 -10h-65q-72 0 -84 11.5t-12 52.5l2 51l-8 121l6 370l2 222l6 69l-2 45q-2 16 -2 97l4 143l-8 143q0 33 2 49q2 29 35 29q140 0 179 7q40 7 120 7l94 2l168 5l94 -9l61 9q113 0 146 -11q18 -7 19 -33t1 -67v-32q0 -32 -1 -34t-3 -7t-8.5 -12 t-22.5 -9t-69 0t-72 2l-100 -10l-15 1l-110 7l-123 -6l-64 4q-23 0 -67 -4q-18 0 -19 -21l-8 -92l4 -35l-6 -127l4 -16h191l53 -8l51 8l111 -6l15 2l100 -4h51q39 -2 39 -94t-10.5 -102.5t-96.5 -10.5l-65 2l-62 6zM1014 102q0 25 -35 25l-78 4l-158 -10l-57 8l-51 -2l-94 8 q-31 2 -76 2t-57 -2l-66 8l-45 2v144l6 510q6 2 59 2l158 8l22 -1l171 -1l164 -8q51 0 51 18q0 10 -13 19q-14 8 -182 8h-23l-151 2l-103 -3q-102 -3 -155 1q0 110 -4 180l-4 90q0 33 10 180l176 6q176 0 264 -2l33 -2l107 4l59 -1q59 -1 59 13.5t-7 23.5t-132 10l-110 -11 l-74 8l-123 -4l-35 2l-96 -8l-82 -2q-8 0 -29.5 2t-32.5 0q-20 -4 -20 -21v-85q-4 -57 -4 -86l6 -428l-4 -95l2 -28l2 -246q0 -86 -4 -148t-4 -65q0 -35 37 -35l51 4l432 -14l76 6l141 -2q23 0 23 12zM242 1784q0 22 97 22t133 -3t56 -29q143 -195 144 -246q0 -20 -43 -21 l-117 4q-48 0 -94 60q-84 115 -146 168q-30 31 -30 45z" glyph-name="Egrave" horiz-adv-x="1236" unicode=""/><glyph d="M719 719l-163 10q-54 0 -159 -12l-6 -365l-1 -14l1 -100v-11q0 -6 27 -6q51 -10 129 -10l78 6l15 -1l103 3l35 -4l78 4l27 -4l88 -2h53q54 0 61 -14.5t12 -23.5t6 -23.5t1 -31t-4 -48.5t-5 -45t-16.5 -19t-16.5 -6h-52l-66 4l-110 -8h-80l-31 2l-59 -10l-84 6 q-90 0 -164 8l-49 14l-48 -10h-65q-72 0 -84 11.5t-12 52.5l2 51l-8 121l6 370l2 222l6 69l-2 45q-2 16 -2 97l4 143l-8 143q0 33 2 49q2 29 35 29q140 0 179 7q40 7 120 7l94 2l168 5l94 -9l61 9q113 0 146 -11q18 -7 19 -33t1 -67v-32q0 -32 -1 -34t-3 -7t-8.5 -12 t-22.5 -9t-69 0t-72 2l-100 -10l-15 1l-110 7l-123 -6l-64 4q-23 0 -67 -4q-18 0 -19 -21l-8 -92l4 -35l-6 -127l4 -16h191l53 -8l51 8l111 -6l15 2l100 -4h51q39 -2 39 -94t-10.5 -102.5t-96.5 -10.5l-65 2l-62 6zM1014 102q0 25 -35 25l-78 4l-158 -10l-57 8l-51 -2l-94 8 q-31 2 -76 2t-57 -2l-66 8l-45 2v144l6 510q6 2 59 2l158 8l22 -1l171 -1l164 -8q51 0 51 18q0 10 -13 19q-14 8 -182 8h-23l-151 2l-103 -3q-102 -3 -155 1q0 110 -4 180l-4 90q0 33 10 180l176 6q176 0 264 -2l33 -2l107 4l59 -1q59 -1 59 13.5t-7 23.5t-132 10l-110 -11 l-74 8l-123 -4l-35 2l-96 -8l-82 -2q-8 0 -29.5 2t-32.5 0q-20 -4 -20 -21v-85q-4 -57 -4 -86l6 -428l-4 -95l2 -28l2 -246q0 -86 -4 -148t-4 -65q0 -35 37 -35l51 4l432 -14l76 6l141 -2q23 0 23 12zM547 1532q0 51 143 246q20 28 56 30t134 2t97 -22q0 -14 -31 -45 q-61 -53 -145 -168q-44 -59 -94 -59l-117 -5q-43 0 -43 21z" glyph-name="Eacute" horiz-adv-x="1236" unicode=""/><glyph d="M719 719l-163 10q-54 0 -159 -12l-6 -365l-1 -14l1 -100v-11q0 -6 27 -6q51 -10 129 -10l78 6l15 -1l103 3l35 -4l78 4l27 -4l88 -2h53q54 0 61 -14.5t12 -23.5t6 -23.5t1 -31t-4 -48.5t-5 -45t-16.5 -19t-16.5 -6h-52l-66 4l-110 -8h-80l-31 2l-59 -10l-84 6 q-90 0 -164 8l-49 14l-48 -10h-65q-72 0 -84 11.5t-12 52.5l2 51l-8 121l6 370l2 222l6 69l-2 45q-2 16 -2 97l4 143l-8 143q0 33 2 49q2 29 35 29q140 0 179 7q40 7 120 7l94 2l168 5l94 -9l61 9q113 0 146 -11q18 -7 19 -33t1 -67v-32q0 -32 -1 -34t-3 -7t-8.5 -12 t-22.5 -9t-69 0t-72 2l-100 -10l-15 1l-110 7l-123 -6l-64 4q-23 0 -67 -4q-18 0 -19 -21l-8 -92l4 -35l-6 -127l4 -16h191l53 -8l51 8l111 -6l15 2l100 -4h51q39 -2 39 -94t-10.5 -102.5t-96.5 -10.5l-65 2l-62 6zM1014 102q0 25 -35 25l-78 4l-158 -10l-57 8l-51 -2l-94 8 q-31 2 -76 2t-57 -2l-66 8l-45 2v144l6 510q6 2 59 2l158 8l22 -1l171 -1l164 -8q51 0 51 18q0 10 -13 19q-14 8 -182 8h-23l-151 2l-103 -3q-102 -3 -155 1q0 110 -4 180l-4 90q0 33 10 180l176 6q176 0 264 -2l33 -2l107 4l59 -1q59 -1 59 13.5t-7 23.5t-132 10l-110 -11 l-74 8l-123 -4l-35 2l-96 -8l-82 -2q-8 0 -29.5 2t-32.5 0q-20 -4 -20 -21v-85q-4 -57 -4 -86l6 -428l-4 -95l2 -28l2 -246q0 -86 -4 -148t-4 -65q0 -35 37 -35l51 4l432 -14l76 6l141 -2q23 0 23 12zM891 1518h-150q-39 0 -58 23t-44 59t-37 51l-61 -109q-16 -29 -47 -29 q-141 -1 -161 1t-20 11t77 134t81 131q25 43 119 43q29 0 75 -3q47 -3 75 -37t84.5 -108.5t73.5 -96.5t19.5 -30t1.5 -15t1 -15q-6 -10 -29 -10z" glyph-name="Ecircumflex" horiz-adv-x="1236" unicode=""/><glyph d="M719 719l-163 10q-54 0 -159 -12l-6 -365l-1 -14l1 -100v-11q0 -6 27 -6q51 -10 129 -10l78 6l15 -1l103 3l35 -4l78 4l27 -4l88 -2h53q54 0 61 -14.5t12 -23.5t6 -23.5t1 -31t-4 -48.5t-5 -45t-16.5 -19t-16.5 -6h-52l-66 4l-110 -8h-80l-31 2l-59 -10l-84 6 q-90 0 -164 8l-49 14l-48 -10h-65q-72 0 -84 11.5t-12 52.5l2 51l-8 121l6 370l2 222l6 69l-2 45q-2 16 -2 97l4 143l-8 143q0 33 2 49q2 29 35 29q140 0 179 7q40 7 120 7l94 2l168 5l94 -9l61 9q113 0 146 -11q18 -7 19 -33t1 -67v-32q0 -32 -1 -34t-3 -7t-8.5 -12 t-22.5 -9t-69 0t-72 2l-100 -10l-15 1l-110 7l-123 -6l-64 4q-23 0 -67 -4q-18 0 -19 -21l-8 -92l4 -35l-6 -127l4 -16h191l53 -8l51 8l111 -6l15 2l100 -4h51q39 -2 39 -94t-10.5 -102.5t-96.5 -10.5l-65 2l-62 6zM1014 102q0 25 -35 25l-78 4l-158 -10l-57 8l-51 -2l-94 8 q-31 2 -76 2t-57 -2l-66 8l-45 2v144l6 510q6 2 59 2l158 8l22 -1l171 -1l164 -8q51 0 51 18q0 10 -13 19q-14 8 -182 8h-23l-151 2l-103 -3q-102 -3 -155 1q0 110 -4 180l-4 90q0 33 10 180l176 6q176 0 264 -2l33 -2l107 4l59 -1q59 -1 59 13.5t-7 23.5t-132 10l-110 -11 l-74 8l-123 -4l-35 2l-96 -8l-82 -2q-8 0 -29.5 2t-32.5 0q-20 -4 -20 -21v-85q-4 -57 -4 -86l6 -428l-4 -95l2 -28l2 -246q0 -86 -4 -148t-4 -65q0 -35 37 -35l51 4l432 -14l76 6l141 -2q23 0 23 12zM928 1624q0 -80 -80 -106q-43 -14 -76 -14t-78 24q-16 8 -27.5 48 t-11.5 76t35 69.5t82 33.5l59 -8q43 -4 70 -41t27 -82zM571 1614q0 -51 -36.5 -90t-81.5 -39t-113 47q-31 19 -31 80q0 23 5 36t6.5 36.5t9.5 35t32 17.5l68 18q43 0 81 -19.5t49 -65.5t11 -56z" glyph-name="Edieresis" horiz-adv-x="1236" unicode=""/><glyph d="M195 68v53l-2 112l2 29l-5 94q-2 68 -2 201l5 109q-1 88 -5 100t-4 174l4 37q0 12 -6 24q4 20 4 31l-6 125l8 141q0 10 -2.5 41t5.5 61t55 30l37 2l59 -9q8 0 28.5 1t37 -5.5t16.5 -42.5l-2 -307l4 -154l-4 -36l4 -109l-2 -33l8 -305v-137l2 -25v-4l2 -102 q0 -111 -12 -144q-8 -18 -29 -20l-100 -8q-90 0 -95 37t-5 39zM299 1339q-12 0 -12 -20l4 -184l4 -242l-4 -137l4 -68l2 -442l-4 -117q0 -35 18.5 -35t18.5 31l2 197h2q-4 52 -4 138t2 161l2 38l-6 68l2 313l-6 50l2 25l-2 181q0 4 2.5 23.5t-27.5 19.5zM-55 1790 q0 22 97 22t133 -3t56 -29q143 -195 144 -246q0 -20 -43 -21l-117 5q-49 0 -94 59q-84 115 -146 168q-30 31 -30 45z" glyph-name="Igrave" horiz-adv-x="585" unicode=""/><glyph d="M195 68v53l-2 112l2 29l-5 94q-2 68 -2 201l5 109q-1 88 -5 100t-4 174l4 37q0 12 -6 24q4 20 4 31l-6 125l8 141q0 10 -2.5 41t5.5 61t55 30l37 2l59 -9q8 0 28.5 1t37 -5.5t16.5 -42.5l-2 -307l4 -154l-4 -36l4 -109l-2 -33l8 -305v-137l2 -25v-4l2 -102 q0 -111 -12 -144q-8 -18 -29 -20l-100 -8q-90 0 -95 37t-5 39zM299 1339q-12 0 -12 -20l4 -184l4 -242l-4 -137l4 -68l2 -442l-4 -117q0 -35 18.5 -35t18.5 31l2 197h2q-4 52 -4 138t2 161l2 38l-6 68l2 313l-6 50l2 25l-2 181q0 4 2.5 23.5t-27.5 19.5zM225 1538 q0 51 144 246q20 28 56 30t133 2t97 -22q0 -14 -30 -45q-61 -53 -146 -168q-44 -59 -94 -59l-117 -4q-43 0 -43 20z" glyph-name="Iacute" horiz-adv-x="585" unicode=""/><glyph d="M195 68v53l-2 112l2 29l-5 94q-2 68 -2 201l5 109q-1 88 -5 100t-4 174l4 37q0 12 -6 24q4 20 4 31l-6 125l8 141q0 10 -2.5 41t5.5 61t55 30l37 2l59 -9q8 0 28.5 1t37 -5.5t16.5 -42.5l-2 -307l4 -154l-4 -36l4 -109l-2 -33l8 -305v-137l2 -25v-4l2 -102 q0 -111 -12 -144q-8 -18 -29 -20l-100 -8q-90 0 -95 37t-5 39zM299 1339q-12 0 -12 -20l4 -184l4 -242l-4 -137l4 -68l2 -442l-4 -117q0 -35 18.5 -35t18.5 31l2 197h2q-4 52 -4 138t2 161l2 38l-6 68l2 313l-6 50l2 25l-2 181q0 4 2.5 23.5t-27.5 19.5zM565 1516h-149 q-38 0 -58 23t-44.5 59t-37.5 51l-61 -109q-16 -29 -47 -29q-141 0 -161 1q-19 1 -19 11t76.5 134.5t80.5 130.5q25 43 119 43q29 0 75 -3t75 -38t84.5 -107.5t73.5 -94.5t20 -31t1 -16t1 -15q-6 -10 -29 -10z" glyph-name="Icircumflex" horiz-adv-x="585" unicode=""/><glyph d="M195 68v53l-2 112l2 29l-5 94q-2 68 -2 201l5 109q-1 88 -5 100t-4 174l4 37q0 12 -6 24q4 20 4 31l-6 125l8 141q0 10 -2.5 41t5.5 61t55 30l37 2l59 -9q8 0 28.5 1t37 -5.5t16.5 -42.5l-2 -307l4 -154l-4 -36l4 -109l-2 -33l8 -305v-137l2 -25v-4l2 -102 q0 -111 -12 -144q-8 -18 -29 -20l-100 -8q-90 0 -95 37t-5 39zM299 1339q-12 0 -12 -20l4 -184l4 -242l-4 -137l4 -68l2 -442l-4 -117q0 -35 18.5 -35t18.5 31l2 197h2q-4 52 -4 138t2 161l2 38l-6 68l2 313l-6 50l2 25l-2 181q0 4 2.5 23.5t-27.5 19.5zM602 1647 q0 -80 -80 -107q-44 -14 -76 -14t-77 24q-16 8 -27.5 48t-11.5 76t34.5 70t81.5 34l60 -9q43 -4 69.5 -40.5t26.5 -81.5zM246 1636q0 -51 -37 -90t-82 -39t-113 47q-30 18 -30 80q0 23 5 36t6 37t9 35t24 15t37.5 12.5t51.5 8.5t67.5 -20t49.5 -66t12 -56z" glyph-name="Idieresis" horiz-adv-x="585" unicode=""/><glyph d="M666 1430q68 0 151 -25q55 -10 60 -12q195 -59 266 -146q74 -84 89 -102q28 -33 34 -51l34 -103q50 -143 50 -254l-2 -32q0 -55 -21 -153t-63.5 -175.5t-124.5 -167.5q-25 -28 -83.5 -63t-101.5 -64q-44 -29 -78 -35t-57 -6.5t-113 -22.5t-145 -22l-84 6l-45 -2l-86 6 l-40 -1q-40 -1 -40 9l4 115v98q0 334 -10 406q-160 0 -168 8t-8 61v46q0 45 56 45t130 6l2 10v82l-4 72l2 122l-4 220l6 61q2 6 3 12t2.5 14.5t1.5 12.5q8 33 139 33l209 -8h39zM137 714.5q0 -22.5 72 -22.5h33q33 2 32 0v2h23q35 6 51.5 0t16.5 -41l-3 -104l3 -131 q0 -8 -3 -12q2 -35 3 -105l4 -129l-2 -63q0 -29 36 -29l31 2q20 2 100 2t120 10t126 39q305 98 377 219q74 129 94 254q6 37 6 41l7 86l-7 66q-4 84 -32 137q-30 79 -97 172q-47 63 -165 137q-53 37 -69 41t-66 21.5t-78 20.5t-88 18q-60 16 -101 16t-123 -6t-86 -14t-4 -13 l6 -63l-6 -117l2 -29q2 -31 8 -198l4 -160q0 -18 -2 -23.5t-18 -5.5l-139 4q-66 0 -66 -22.5zM1214 719q0 -137 -30 -197q-4 -8 -6 -19t-11.5 -27.5t-24 -37t-20.5 -30.5q-53 -90 -131 -127q-83 -50 -216 -105q-134 -55 -279 -55h-29q-51 2 -55 47l-9 174l7 80l-1 10l-1 76 l-2 82l2 65v11q-2 33 79 32l95 -2q45 0 45 22t-68 21l-104 2q-35 0 -54 2l-6 205l-8 150l12 123l-4 45q0 18 13.5 34.5t68.5 16.5q20 6 47 6l29 -4q31 0 81 -13.5t73 -15.5t64.5 -10t57 -11t56.5 -30q109 -55 135 -86q8 -8 101 -84t93 -350zM520 793h45q16 0 47.5 2.5 t46.5 -6.5t15 -76q0 -66 -14 -77t-82 -11t-72 -4q-2 -3 -2 -17t5 -168t13 -198h62q57 0 113.5 20.5t74.5 26.5q94 29 180 114q6 6 24.5 23.5t33 34t24.5 49.5q56 162 56 220t-35 218q-10 43 -71.5 109.5t-92.5 84.5t-68 27t-55 12t-34 14q-17 11 -83.5 17t-87.5 6h-71 l-3 -45v-135q0 -191 4.5 -208t9.5 -21t7.5 -8t9.5 -4z" glyph-name="Eth" horiz-adv-x="1492" unicode=""/><glyph d="M305 -10q-119 0 -119 61l2 262l5 70l-11 215l-8 174l2 31l-12 454l8 103q-4 35 10.5 52.5t32.5 17.5l96 2q33 0 57 -41t124 -189l77 -125q75 -115 135 -196t100.5 -144.5t86.5 -119t61 -89.5l47 -61q47 -61 52 -66l-4 148l4 41q2 31 2 96l-6 148l2 55l6 96q0 29 -7 81 t-8 142l-2 176q0 45 49 56q74 6 76 6l58 -6q27 0 44 -2t17 -14l-6 -189l6 -100l-4 -125v-189l-8 -102l8 -80l-8 -184l6 -166l-8 -92l4 -131q0 -29 -17.5 -44.5t-34 -17.5t-49.5 -2l-108 4q-29 0 -66 57q-47 63 -73 91t-35.5 45t-31.5 35q-23 18 -63 74t-83 108t-57 72 t-51.5 73t-59.5 80q-49 70 -86 131l-39 47l-6 -4v-160l4 -110l-6 -127l8 -72q2 -20 2 -127l6 -84l-8 -53l2 -29q0 -16 -2 -24q-2 -14 -25 -23q-82 -16 -88 -16zM1165 1337q-18 0 -18 -32l6 -80q0 -23 -8 -39q4 -16 4 -60l-10 -192l10 -98l-8 -60l2 -94l8 -70l-10 -129 l6 -106q0 -78 -8 -225l-107 141q-35 35 -55 59l-59 80q-14 20 -50.5 58t-46.5 52t-88 115l-43 68q-10 16 -41 54t-43 61l-55 90q-4 6 -13.5 18.5t-13.5 21.5t-18.5 28.5t-40.5 70.5l-21 21q-8 12 -21 46t-23 46t-28 34.5t-26 36.5q-10 27 -31 29h-6q-35 0 -35 -39l5 -219 q0 -102 2 -154l2 -112l-7 -279l5 -104q0 -154 10 -264q10 -20 14 -23q33 0 30 40t-3 44l-10 188q-2 0 -3 66l3 63q0 41 4 115v246l-7 80l5 43v15l-2 122l2 49l-1 15q-1 14 0 20t1 8q71 -117 122 -196l13 -19q2 -4 7 -5t7 -5q166 -260 201 -305t55 -86q6 -8 21.5 -24 t33.5 -40t92 -112t96 -118t38 -46.5t54 -72.5t54 -77q12 -14 33 -14t27 20q6 29 6 121l-2 90l10 244l-4 47l2 33l-6 82l4 72l-6 116l2 23v168l4 78q0 37 4 57l2 22q0 82 -29 82zM358 1565q0 209 144 258q61 23 114 23t121 -70t121 -70q25 0 40.5 33t17.5 56t18 30q25 4 88 4 t63 -29q0 -76 -38 -162q-53 -111 -193 -110q-57 0 -97 22.5t-70 72.5t-69 50t-62.5 -31.5t-23.5 -61.5t-1.5 -45t-38.5 -15l-91 2q-43 2 -43 43z" glyph-name="Ntilde" horiz-adv-x="1445" unicode=""/><glyph d="M1610 631q0 -27 -14 -95t-36 -105t-40 -75t-52 -84.5t-46 -53.5t-29 -25.5t-77 -63.5t-114 -70l-104 -41q-68 -31 -189 -30q-4 0 -108 16l-6 2l-27 -4q-16 0 -46 10.5t-42 12.5q-137 27 -197 86q-2 2 -8 5t-11 7t-27.5 16.5t-38 22.5t-28 22.5t-50.5 41.5t-51 54 t-34.5 66.5t-33.5 61.5t-15.5 33.5t-5.5 29.5t-6 29l-10 45q-12 43 -12 49l2 18l-7 43q-4 37 -4 64q1 27 11 80t16 73.5t6 30.5l-2 19q0 12 12 32q14 20 22 41t30 63t36.5 64.5t32 41t27.5 27.5t38 30t42 33t28.5 27t25.5 24t29.5 19.5t44.5 23t78 36.5t107 36t156 12 q268 0 467 -162q4 -4 31.5 -28t33.5 -34t50 -58t98 -192q4 -14 20 -53t16 -74l9 -53l-2 -28l8 -56l-4 -26v-37zM811 96q160 0 281.5 46t223.5 142t134 156q68 125 68 328q0 66 -48 176t-122 186q-12 12 -47 52t-67 59q-32 21 -58 29t-52 22t-86 32t-111 18q-52 0 -161 -19 q-109 -18 -201 -74q-66 -45 -92 -59t-97 -106t-89 -169q-27 -137 -27 -196l2 -35l-2 -31q0 -8 9 -36q9 -27 19 -79q27 -144 115 -229l35 -37q213 -176 373 -176zM297 706q0 58 12 142q0 115 110.5 235.5t229.5 163.5q10 4 70 28.5t211 24.5q20 0 99 -22t101 -30 q22 -9 52 -20t62 -46t52.5 -52.5t25.5 -24.5t22.5 -28.5t25.5 -34.5q113 -168 113 -305l-10 -69q0 -8 -11 -66q-25 -135 -106 -221l-21 -25q-35 -44 -90 -84t-71 -49q-88 -41 -121 -53q-74 -29 -238 -29q-95 0 -132 28t-69 36t-71 41l-31 24q-84 69 -109.5 101.5t-35.5 57.5 l-22 50t-14 34t-7.5 39t-15.5 62q-11 34 -11 92zM1364 618l8 97q0 41 -18 107t-32.5 99t-19.5 50q-4 17 -38 51t-52 57q-31 41 -180 95q-53 18 -151 18l-52 -6q-113 0 -176 -31q-33 -14 -99 -79t-97 -111.5t-53 -114.5t-21 -72l8 -33l-4 -51q0 -125 78 -248 q20 -30 33.5 -43.5t23.5 -24.5t29 -26t64 -53t102 -44.5t81 -13.5q94 -27 285 29q23 8 43 25q72 43 84 59t36 44t51.5 62t41.5 79l17 55q8 20 8 24zM489 1794q-1 23 97 23q98 1 134 -3t56 -30q143 -195 144 -246q0 -20 -43 -20l-117 4q-49 0 -94 59q-84 115 -146 168 q-31 31 -31 45z" glyph-name="Ograve" horiz-adv-x="1757" unicode=""/><glyph d="M1610 631q0 -27 -14 -95t-36 -105t-40 -75t-52 -84.5t-46 -53.5t-29 -25.5t-77 -63.5t-114 -70l-104 -41q-68 -31 -189 -30q-4 0 -108 16l-6 2l-27 -4q-16 0 -46 10.5t-42 12.5q-137 27 -197 86q-2 2 -8 5t-11 7t-27.5 16.5t-38 22.5t-28 22.5t-50.5 41.5t-51 54 t-34.5 66.5t-33.5 61.5t-15.5 33.5t-5.5 29.5t-6 29l-10 45q-12 43 -12 49l2 18l-7 43q-4 37 -4 64q1 27 11 80t16 73.5t6 30.5l-2 19q0 12 12 32q14 20 22 41t30 63t36.5 64.5t32 41t27.5 27.5t38 30t42 33t28.5 27t25.5 24t29.5 19.5t44.5 23t78 36.5t107 36t156 12 q268 0 467 -162q4 -4 31.5 -28t33.5 -34t50 -58t98 -192q4 -14 20 -53t16 -74l9 -53l-2 -28l8 -56l-4 -26v-37zM811 96q160 0 281.5 46t223.5 142t134 156q68 125 68 328q0 66 -48 176t-122 186q-12 12 -47 52t-67 59q-32 21 -58 29t-52 22t-86 32t-111 18q-52 0 -161 -19 q-109 -18 -201 -74q-66 -45 -92 -59t-97 -106t-89 -169q-27 -137 -27 -196l2 -35l-2 -31q0 -8 9 -36q9 -27 19 -79q27 -144 115 -229l35 -37q213 -176 373 -176zM297 706q0 58 12 142q0 115 110.5 235.5t229.5 163.5q10 4 70 28.5t211 24.5q20 0 99 -22t101 -30 q22 -9 52 -20t62 -46t52.5 -52.5t25.5 -24.5t22.5 -28.5t25.5 -34.5q113 -168 113 -305l-10 -69q0 -8 -11 -66q-25 -135 -106 -221l-21 -25q-35 -44 -90 -84t-71 -49q-88 -41 -121 -53q-74 -29 -238 -29q-95 0 -132 28t-69 36t-71 41l-31 24q-84 69 -109.5 101.5t-35.5 57.5 l-22 50t-14 34t-7.5 39t-15.5 62q-11 34 -11 92zM1364 618l8 97q0 41 -18 107t-32.5 99t-19.5 50q-4 17 -38 51t-52 57q-31 41 -180 95q-53 18 -151 18l-52 -6q-113 0 -176 -31q-33 -14 -99 -79t-97 -111.5t-53 -114.5t-21 -72l8 -33l-4 -51q0 -125 78 -248 q20 -30 33.5 -43.5t23.5 -24.5t29 -26t64 -53t102 -44.5t81 -13.5q94 -27 285 29q23 8 43 25q72 43 84 59t36 44t51.5 62t41.5 79l17 55q8 20 8 24zM819 1532q0 51 144 246q20 28 56 30t133 2t97 -22q0 -14 -30 -45q-61 -53 -146 -168q-44 -59 -94 -59l-117 -5q-43 0 -43 21 z" glyph-name="Oacute" horiz-adv-x="1757" unicode=""/><glyph d="M1610 631q0 -27 -14 -95t-36 -105t-40 -75t-52 -84.5t-46 -53.5t-29 -25.5t-77 -63.5t-114 -70l-104 -41q-68 -31 -189 -30q-4 0 -108 16l-6 2l-27 -4q-16 0 -46 10.5t-42 12.5q-137 27 -197 86q-2 2 -8 5t-11 7t-27.5 16.5t-38 22.5t-28 22.5t-50.5 41.5t-51 54 t-34.5 66.5t-33.5 61.5t-15.5 33.5t-5.5 29.5t-6 29l-10 45q-12 43 -12 49l2 18l-7 43q-4 37 -4 64q1 27 11 80t16 73.5t6 30.5l-2 19q0 12 12 32q14 20 22 41t30 63t36.5 64.5t32 41t27.5 27.5t38 30t42 33t28.5 27t25.5 24t29.5 19.5t44.5 23t78 36.5t107 36t156 12 q268 0 467 -162q4 -4 31.5 -28t33.5 -34t50 -58t98 -192q4 -14 20 -53t16 -74l9 -53l-2 -28l8 -56l-4 -26v-37zM811 96q160 0 281.5 46t223.5 142t134 156q68 125 68 328q0 66 -48 176t-122 186q-12 12 -47 52t-67 59q-32 21 -58 29t-52 22t-86 32t-111 18q-52 0 -161 -19 q-109 -18 -201 -74q-66 -45 -92 -59t-97 -106t-89 -169q-27 -137 -27 -196l2 -35l-2 -31q0 -8 9 -36q9 -27 19 -79q27 -144 115 -229l35 -37q213 -176 373 -176zM297 706q0 58 12 142q0 115 110.5 235.5t229.5 163.5q10 4 70 28.5t211 24.5q20 0 99 -22t101 -30 q22 -9 52 -20t62 -46t52.5 -52.5t25.5 -24.5t22.5 -28.5t25.5 -34.5q113 -168 113 -305l-10 -69q0 -8 -11 -66q-25 -135 -106 -221l-21 -25q-35 -44 -90 -84t-71 -49q-88 -41 -121 -53q-74 -29 -238 -29q-95 0 -132 28t-69 36t-71 41l-31 24q-84 69 -109.5 101.5t-35.5 57.5 l-22 50t-14 34t-7.5 39t-15.5 62q-11 34 -11 92zM1364 618l8 97q0 41 -18 107t-32.5 99t-19.5 50q-4 17 -38 51t-52 57q-31 41 -180 95q-53 18 -151 18l-52 -6q-113 0 -176 -31q-33 -14 -99 -79t-97 -111.5t-53 -114.5t-21 -72l8 -33l-4 -51q0 -125 78 -248 q20 -30 33.5 -43.5t23.5 -24.5t29 -26t64 -53t102 -44.5t81 -13.5q94 -27 285 29q23 8 43 25q72 43 84 59t36 44t51.5 62t41.5 79l17 55q8 20 8 24zM1001 1507q-39 -1 -58 23t-44 60t-37 50l-61 -108q-16 -29 -47 -29q-141 0 -161 1t-20 10t77 134.5t81 131.5q25 43 119 43 q29 0 75 -3q47 -3 75 -37t84.5 -109t73.5 -96t19.5 -29.5t1.5 -15.5t1 -15q-6 -10 -29 -11h-150z" glyph-name="Ocircumflex" horiz-adv-x="1757" unicode=""/><glyph d="M1610 631q0 -27 -14 -95t-36 -105t-40 -75t-52 -84.5t-46 -53.5t-29 -25.5t-77 -63.5t-114 -70l-104 -41q-68 -31 -189 -30q-4 0 -108 16l-6 2l-27 -4q-16 0 -46 10.5t-42 12.5q-137 27 -197 86q-2 2 -8 5t-11 7t-27.5 16.5t-38 22.5t-28 22.5t-50.5 41.5t-51 54 t-34.5 66.5t-33.5 61.5t-15.5 33.5t-5.5 29.5t-6 29l-10 45q-12 43 -12 49l2 18l-7 43q-4 37 -4 64q1 27 11 80t16 73.5t6 30.5l-2 19q0 12 12 32q14 20 22 41t30 63t36.5 64.5t32 41t27.5 27.5t38 30t42 33t28.5 27t25.5 24t29.5 19.5t44.5 23t78 36.5t107 36t156 12 q268 0 467 -162q4 -4 31.5 -28t33.5 -34t50 -58t98 -192q4 -14 20 -53t16 -74l9 -53l-2 -28l8 -56l-4 -26v-37zM811 96q160 0 281.5 46t223.5 142t134 156q68 125 68 328q0 66 -48 176t-122 186q-12 12 -47 52t-67 59q-32 21 -58 29t-52 22t-86 32t-111 18q-52 0 -161 -19 q-109 -18 -201 -74q-66 -45 -92 -59t-97 -106t-89 -169q-27 -137 -27 -196l2 -35l-2 -31q0 -8 9 -36q9 -27 19 -79q27 -144 115 -229l35 -37q213 -176 373 -176zM297 706q0 58 12 142q0 115 110.5 235.5t229.5 163.5q10 4 70 28.5t211 24.5q20 0 99 -22t101 -30 q22 -9 52 -20t62 -46t52.5 -52.5t25.5 -24.5t22.5 -28.5t25.5 -34.5q113 -168 113 -305l-10 -69q0 -8 -11 -66q-25 -135 -106 -221l-21 -25q-35 -44 -90 -84t-71 -49q-88 -41 -121 -53q-74 -29 -238 -29q-95 0 -132 28t-69 36t-71 41l-31 24q-84 69 -109.5 101.5t-35.5 57.5 l-22 50t-14 34t-7.5 39t-15.5 62q-11 34 -11 92zM1364 618l8 97q0 41 -18 107t-32.5 99t-19.5 50q-4 17 -38 51t-52 57q-31 41 -180 95q-53 18 -151 18l-52 -6q-113 0 -176 -31q-33 -14 -99 -79t-97 -111.5t-53 -114.5t-21 -72l8 -33l-4 -51q0 -125 78 -248 q20 -30 33.5 -43.5t23.5 -24.5t29 -26t64 -53t102 -44.5t81 -13.5q94 -27 285 29q23 8 43 25q72 43 84 59t36 44t51.5 62t41.5 79l17 55q8 20 8 24zM514 1536q0 209 143 258q61 23 115 23t121.5 -70t120.5 -70q25 0 41 32.5t17 56.5t18 30q25 4 88 4t63 -28q0 -76 -39 -162 q-53 -111 -192 -111q-57 0 -97.5 22.5t-70 73t-68.5 50.5t-62.5 -31.5t-23.5 -61.5t-1.5 -45.5t-39.5 -15.5l-90 2q-43 2 -43 43z" glyph-name="Otilde" horiz-adv-x="1757" unicode=""/><glyph d="M1610 631q0 -27 -14 -95t-36 -105t-40 -75t-52 -84.5t-46 -53.5t-29 -25.5t-77 -63.5t-114 -70l-104 -41q-68 -31 -189 -30q-4 0 -108 16l-6 2l-27 -4q-16 0 -46 10.5t-42 12.5q-137 27 -197 86q-2 2 -8 5t-11 7t-27.5 16.5t-38 22.5t-28 22.5t-50.5 41.5t-51 54 t-34.5 66.5t-33.5 61.5t-15.5 33.5t-5.5 29.5t-6 29l-10 45q-12 43 -12 49l2 18l-7 43q-4 37 -4 64q1 27 11 80t16 73.5t6 30.5l-2 19q0 12 12 32q14 20 22 41t30 63t36.5 64.5t32 41t27.5 27.5t38 30t42 33t28.5 27t25.5 24t29.5 19.5t44.5 23t78 36.5t107 36t156 12 q268 0 467 -162q4 -4 31.5 -28t33.5 -34t50 -58t98 -192q4 -14 20 -53t16 -74l9 -53l-2 -28l8 -56l-4 -26v-37zM811 96q160 0 281.5 46t223.5 142t134 156q68 125 68 328q0 66 -48 176t-122 186q-12 12 -47 52t-67 59q-32 21 -58 29t-52 22t-86 32t-111 18q-52 0 -161 -19 q-109 -18 -201 -74q-66 -45 -92 -59t-97 -106t-89 -169q-27 -137 -27 -196l2 -35l-2 -31q0 -8 9 -36q9 -27 19 -79q27 -144 115 -229l35 -37q213 -176 373 -176zM297 706q0 58 12 142q0 115 110.5 235.5t229.5 163.5q10 4 70 28.5t211 24.5q20 0 99 -22t101 -30 q22 -9 52 -20t62 -46t52.5 -52.5t25.5 -24.5t22.5 -28.5t25.5 -34.5q113 -168 113 -305l-10 -69q0 -8 -11 -66q-25 -135 -106 -221l-21 -25q-35 -44 -90 -84t-71 -49q-88 -41 -121 -53q-74 -29 -238 -29q-95 0 -132 28t-69 36t-71 41l-31 24q-84 69 -109.5 101.5t-35.5 57.5 l-22 50t-14 34t-7.5 39t-15.5 62q-11 34 -11 92zM1364 618l8 97q0 41 -18 107t-32.5 99t-19.5 50q-4 17 -38 51t-52 57q-31 41 -180 95q-53 18 -151 18l-52 -6q-113 0 -176 -31q-33 -14 -99 -79t-97 -111.5t-53 -114.5t-21 -72l8 -33l-4 -51q0 -125 78 -248 q20 -30 33.5 -43.5t23.5 -24.5t29 -26t64 -53t102 -44.5t81 -13.5q94 -27 285 29q23 8 43 25q72 43 84 59t36 44t51.5 62t41.5 79l17 55q8 20 8 24zM1188 1634q0 -80 -80 -106q-44 -14 -76 -14t-78 24q-16 8 -27.5 48t-11.5 76t35 69.5t82 33.5l60 -8q43 -4 69.5 -41 t26.5 -82zM831 1624q0 -51 -36.5 -90t-81.5 -39t-113 47q-31 19 -31 80q-1 23 5 36t7 36.5t9 35t24 15.5t37.5 12t51.5 8t68 -19.5t48 -55.5q12 -56 12 -66z" glyph-name="Odieresis" horiz-adv-x="1757" unicode=""/><glyph d="M745 845q0 -17 -79.5 -95t-79.5 -84q0 -16 131 -148q4 -4 10 -14t10 -15q-94 -123 -137 -122q-16 0 -34 12t-72 69.5t-76 73.5q-25 -14 -83.5 -81.5t-78.5 -67.5t-38 12t-56.5 50.5t-38.5 56.5t25.5 47.5t50.5 44.5l82 82l-17 13q-18 13 -30.5 28t-61.5 56t-49 62 q0 20 84 113q29 29 59 29t47 -15l113 -125q59 37 76 68q12 18 47 43t59 25q24 -1 50 -19t56.5 -50t30.5 -49zM254 852q-12 0 -12 -16q0 -6 6 -13q74 -76 145 -151q-8 -8 -50 -52.5t-79 -82t-37 -42.5t9.5 -12.5t16.5 -7.5t54 45t69 71t52 46q37 -33 139 -139q12 -12 35 -12 t23 14q1 6 -39 40t-78 73q-38 40 -41.5 47.5t-5.5 9.5l76 71q6 6 23.5 21.5t25.5 25.5l16 15q33 29 33 44t-17 15t-67 -55t-125 -109q-4 4 -18 16.5t-69 75t-85 62.5z" glyph-name="multiply" horiz-adv-x="868" unicode=""/><glyph d="M877 -12q-135 0 -291 43q-44 11 -87.5 44.5t-52.5 39.5q-18 -18 -32.5 -35t-37.5 -38.5t-33 -21.5q-9 0 -48 31t-39 44t84 122q-49 57 -80 101q-30 44 -64 121t-34 134q-18 78 -18.5 156t44.5 217q68 211 172 285q14 11 33 33t113 78t176 75l12 4q55 25 219 25h13 q29 -8 114 -24t140 -56l28 -29q80 119 111 119q12 0 56 -30.5t44 -42.5t-57 -74l-25 -27q23 -31 98 -123t106 -193q17 -58 31.5 -76t14.5 -48v-103l-2 -51q-13 -124 -21 -148t-16 -60t-16 -51t-20 -34t-30 -47t-81 -96q-165 -182 -277 -223t-247 -41zM1362 1376 q0 8 -9.5 16.5t-19.5 8.5t-24 -19q-98 -141 -115 -141q-4 0 -50 32t-173 57t-193 12q-67 -12 -88 -12t-69 -25q-134 -60 -197 -123q-98 -104 -133 -187t-41 -114q-12 -104 -12 -113l-2 -84q0 -124 44 -220t101 -153l33 -37q12 -12 12 -22t-48 -65.5t-48 -65.5t9 -17.5 t19.5 -7.5t22.5 17q23 41 82 108q76 -70 262 -110q57 -10 68 -11h114l23 2q172 14 235 62q23 18 55 34t105 105q2 2 8 12.5t10 14.5q43 49 74 134t35 159l12 110q0 3 -5 63t-10 80.5t-28 65.5l-24 55q-8 12 -24.5 44t-30.5 48t-31 37t-38.5 45.5t-33.5 38.5q37 58 80 108 t43 58zM1421 720q0 -116 -40 -227.5t-115 -185.5q-8 -8 -53.5 -54.5t-87.5 -59.5q-41 -13 -46 -15q-59 -29 -198 -28l-9 -1l-69 3q-109 6 -185 41l-40 16q-32 11 -50 27t-34 24q25 35 79 105.5t71 96.5t39.5 54t48.5 62t84 109t86 115t87 105l86 111l51 55q56 70 80 98 q6 -6 21.5 -17t27.5 -24q12 -14 49 -64t47.5 -70.5t16.5 -29.5t10 -27.5t8 -27.5q35 -75 35 -191zM838 1303q33 0 107.5 -11.5t96.5 -21.5q92 -40 104 -52t13 -18q0 -27 -90 -125t-335 -425q-244 -326 -275 -361q-63 68 -107 147l-18 29q-53 78 -53 272l12 148 q95 230 144.5 261.5t56.5 35.5l47 37q14 14 39 20t51 23q92 41 207 41zM844 248q39 0 100 14q131 25 203 100l82 84q33 39 61.5 116t28.5 126l-10 90q-4 199 -117 283q-31 -20 -298 -364.5t-278 -374.5l-4 -15q119 -59 232 -59zM391 723q0 -223 92 -320q4 2 10.5 7.5 t11.5 9.5t25 24t78 102.5t66 93.5t30.5 39t32.5 41t82.5 108.5t136.5 174.5t80 105t21 47q-125 47 -191 47l-123 -16q-75 -4 -188 -86q-72 -52 -118 -160t-46 -217z" glyph-name="Oslash" horiz-adv-x="1730" unicode=""/><glyph d="M614 258q211 0 211 326v67l6 137l-8 72q0 158 2 238l2 76l-2 206q0 27 14.5 39.5t27 13.5t44.5 1q131 0 142 -25q18 -45 18 -100v-105h-4l2 -45l-4 -49l8 -149l-6 -39q-2 -27 -2 -84l-1 -20l5 -142l-6 -115l-12 -112v-64q-43 -223 -205 -330q-82 -53 -228 -53 q-57 0 -136 19t-99 39t-52 43.5t-44 39.5q-117 152 -117 379q0 68 -9 215.5t-7 223.5v45q2 33 -4.5 95t-6.5 91l4 94l-4 86q0 58 15 58l100 -3l21 3q98 0 98 -25l8 -29l-1 -16l1 -45l1 -53l3 -82l-4 -25l12 -63l-6 -78l2 -219l-4 -33l1 -16l1 -109l6 -76l6 -67 q17 -144 73 -190t138 -46zM629 113q154 0 229 84q54 57 58 75t10 29.5t8 16.5t29 176q16 151 16 282v125l-10 82l2 76l-4 241l-1 18q0 19 -18 19q-18 -1 -21 -23t-2 -85.5t1 -78.5v-22q0 -22 -2 -28q6 -31 6 -62l-2 -61l6 -88v-252q0 -88 -19 -213l-8 -43q-8 -55 -40 -104 t-42 -60q-74 -63 -179 -63q-229 0 -275 129q-58 116 -58 151l-4 334l-4 100l-4 125l-4 58q0 12 4 32q-6 18 -6 230q-1 18 -21 18t-20 -22l4 -133l-2 -134l4 -84l-2 -65l6 -45v-105l8 -145l-2 -59q0 -16 14 -115t40 -149q26 -49 61 -87t152 -65q39 -10 92 -10zM260 1710 q0 23 97 23t133 -3t57 -30q143 -195 143 -246q0 -20 -43 -20l-117 4q-46 0 -94 59q-84 115 -145 168q-31 31 -31 45z" glyph-name="Ugrave" horiz-adv-x="1210" unicode=""/><glyph d="M614 258q211 0 211 326v67l6 137l-8 72q0 158 2 238l2 76l-2 206q0 27 14.5 39.5t27 13.5t44.5 1q131 0 142 -25q18 -45 18 -100v-105h-4l2 -45l-4 -49l8 -149l-6 -39q-2 -27 -2 -84l-1 -20l5 -142l-6 -115l-12 -112v-64q-43 -223 -205 -330q-82 -53 -228 -53 q-57 0 -136 19t-99 39t-52 43.5t-44 39.5q-117 152 -117 379q0 68 -9 215.5t-7 223.5v45q2 33 -4.5 95t-6.5 91l4 94l-4 86q0 58 15 58l100 -3l21 3q98 0 98 -25l8 -29l-1 -16l1 -45l1 -53l3 -82l-4 -25l12 -63l-6 -78l2 -219l-4 -33l1 -16l1 -109l6 -76l6 -67 q17 -144 73 -190t138 -46zM629 113q154 0 229 84q54 57 58 75t10 29.5t8 16.5t29 176q16 151 16 282v125l-10 82l2 76l-4 241l-1 18q0 19 -18 19q-18 -1 -21 -23t-2 -85.5t1 -78.5v-22q0 -22 -2 -28q6 -31 6 -62l-2 -61l6 -88v-252q0 -88 -19 -213l-8 -43q-8 -55 -40 -104 t-42 -60q-74 -63 -179 -63q-229 0 -275 129q-58 116 -58 151l-4 334l-4 100l-4 125l-4 58q0 12 4 32q-6 18 -6 230q-1 18 -21 18t-20 -22l4 -133l-2 -134l4 -84l-2 -65l6 -45v-105l8 -145l-2 -59q0 -16 14 -115t40 -149q26 -49 61 -87t152 -65q39 -10 92 -10zM526 1454 q0 51 144 246q20 27 56 30t133 3t97 -23q0 -14 -30 -45q-61 -53 -146 -168q-44 -59 -94 -59l-117 -4q-43 0 -43 20z" glyph-name="Uacute" horiz-adv-x="1210" unicode=""/><glyph d="M614 258q211 0 211 326v67l6 137l-8 72q0 158 2 238l2 76l-2 206q0 27 14.5 39.5t27 13.5t44.5 1q131 0 142 -25q18 -45 18 -100v-105h-4l2 -45l-4 -49l8 -149l-6 -39q-2 -27 -2 -84l-1 -20l5 -142l-6 -115l-12 -112v-64q-43 -223 -205 -330q-82 -53 -228 -53 q-57 0 -136 19t-99 39t-52 43.5t-44 39.5q-117 152 -117 379q0 68 -9 215.5t-7 223.5v45q2 33 -4.5 95t-6.5 91l4 94l-4 86q0 58 15 58l100 -3l21 3q98 0 98 -25l8 -29l-1 -16l1 -45l1 -53l3 -82l-4 -25l12 -63l-6 -78l2 -219l-4 -33l1 -16l1 -109l6 -76l6 -67 q17 -144 73 -190t138 -46zM629 113q154 0 229 84q54 57 58 75t10 29.5t8 16.5t29 176q16 151 16 282v125l-10 82l2 76l-4 241l-1 18q0 19 -18 19q-18 -1 -21 -23t-2 -85.5t1 -78.5v-22q0 -22 -2 -28q6 -31 6 -62l-2 -61l6 -88v-252q0 -88 -19 -213l-8 -43q-8 -55 -40 -104 t-42 -60q-74 -63 -179 -63q-229 0 -275 129q-58 116 -58 151l-4 334l-4 100l-4 125l-4 58q0 12 4 32q-6 18 -6 230q-1 18 -21 18t-20 -22l4 -133l-2 -134l4 -84l-2 -65l6 -45v-105l8 -145l-2 -59q0 -16 14 -115t40 -149q26 -49 61 -87t152 -65q39 -10 92 -10zM887 1516h-150 q-39 0 -58 23t-44 59t-37 51l-61 -109q-16 -29 -48 -29q-141 0 -161 1t-19 11q0 10 77 134.5t81 130.5q25 43 119 43q29 0 75 -3q47 -3 75 -38q172 -212 175.5 -227t2.5 -22t1 -15q-6 -10 -28 -10z" glyph-name="Ucircumflex" horiz-adv-x="1210" unicode=""/><glyph d="M614 258q211 0 211 326v67l6 137l-8 72q0 158 2 238l2 76l-2 206q0 27 14.5 39.5t27 13.5t44.5 1q131 0 142 -25q18 -45 18 -100v-105h-4l2 -45l-4 -49l8 -149l-6 -39q-2 -27 -2 -84l-1 -20l5 -142l-6 -115l-12 -112v-64q-43 -223 -205 -330q-82 -53 -228 -53 q-57 0 -136 19t-99 39t-52 43.5t-44 39.5q-117 152 -117 379q0 68 -9 215.5t-7 223.5v45q2 33 -4.5 95t-6.5 91l4 94l-4 86q0 58 15 58l100 -3l21 3q98 0 98 -25l8 -29l-1 -16l1 -45l1 -53l3 -82l-4 -25l12 -63l-6 -78l2 -219l-4 -33l1 -16l1 -109l6 -76l6 -67 q17 -144 73 -190t138 -46zM629 113q154 0 229 84q54 57 58 75t10 29.5t8 16.5t29 176q16 151 16 282v125l-10 82l2 76l-4 241l-1 18q0 19 -18 19q-18 -1 -21 -23t-2 -85.5t1 -78.5v-22q0 -22 -2 -28q6 -31 6 -62l-2 -61l6 -88v-252q0 -88 -19 -213l-8 -43q-8 -55 -40 -104 t-42 -60q-74 -63 -179 -63q-229 0 -275 129q-58 116 -58 151l-4 334l-4 100l-4 125l-4 58q0 12 4 32q-6 18 -6 230q-1 18 -21 18t-20 -22l4 -133l-2 -134l4 -84l-2 -65l6 -45v-105l8 -145l-2 -59q0 -16 14 -115t40 -149q26 -49 61 -87t152 -65q39 -10 92 -10zM913 1638 q0 -80 -79 -106q-43 -14 -76 -14t-78 24q-16 8 -27.5 48t-11.5 76t35 69.5t82 33.5l59 -8q43 -4 69.5 -41t26.5 -82zM557 1628q0 -51 -37 -90t-82 -39t-112 47q-31 19 -31 80q0 23 5 36t6 36.5t9.5 35t24.5 15.5t37.5 12t51.5 8t68 -19.5t49 -65.5t11 -56z" glyph-name="Udieresis" horiz-adv-x="1210" unicode=""/><glyph d="M541 424q0 154 -41 221q-25 47 -133 223q-74 127 -151 284t-110 208q-10 29 -24 53v8q12 17 213 19q27 0 37 -19q47 -71 132 -233t185 -328q10 -14 35 -43q4 8 22 40t42 83t115.5 228t107.5 212.5t22 38.5q53 27 224 27q24 0 30 -10v-6q-123 -260 -215 -422t-207 -379 l-14 -31q-18 -33 -20 -110q-6 -215 4 -386l6 -61q0 -12 -10 -45t-230 -12q-27 0 -26 24v8l2 150l-7 43l9 108q2 35 2 107zM670 651q-14 1 -42 57t-50.5 91t-32.5 53t-34.5 60t-92.5 150t-146 271q-8 21 -27 21t-20 -13q0 -25 420 -735q4 -70 4 -102l4 -211l-6 -187 q0 -35 29 -34q18 0 18 55l-4 113l4 63l-2 66q0 143 -2 215l2 18q4 10 22.5 32t21.5 28t15.5 25.5t15.5 26.5t7 17t30 54q26 43 60 111q33 68 58 110l90 161q10 18 38 78t40 77t15 24.5t5 11.5q-4 23 -23 22q-10 0 -13 -6t-34 -70t-75 -141q-43 -77 -50.5 -93t-16.5 -30 t-29.5 -55t-32.5 -61t-34 -62q-22 -41 -48.5 -86t-33.5 -59t-25.5 -40t-24.5 -26zM590 1458q0 51 143 246q20 27 56 30q35 3 133 3t98 -23q0 -14 -31 -45q-61 -53 -145 -168q-44 -59 -94 -59l-117 -4q-43 0 -43 20z" glyph-name="Yacute" horiz-adv-x="1308" unicode=""/><glyph d="M1341 832q-1 -122 -21 -186q-50 -158 -93 -187q-23 -16 -82 -70q-14 -11 -63 -31t-108 -30.5t-73 -18.5l-303 -8l-145 10l-50 -4l-2 -196v-34q0 -34 -3 -42t-7.5 -20.5t-23.5 -12.5q-119 0 -177 4q-18 0 -18 14q0 92 4 273l6 160l-12 41l4 55q2 41 2 121l-6 135l2 223 v240l-6 65q0 86 29 99h45l34 2q4 0 121 -13q8 -18 8 -102l-4 -68v-49q135 0 240 6l119 9l98 -7q189 0 252 -24q98 -39 129 -74q12 -12 23 -29q81 -129 81 -251zM670 369q149 0 186 12t68.5 20.5t47.5 13.5t44 16t42 14t37 27t25 26q70 57 86 96t20 53q15 48 25.5 80.5 t10.5 75.5q0 42 -16 109.5t-34 87.5t-47 68t-172 57.5t-155 11.5l-19 -2l-119 -5l-88 3l-104 -9l-25 2q-10 2 -26.5 0t-22.5 -2l-88 -8q-37 0 -37 41l2 60l-2 102q-4 29 -33 29q-12 0 -12 -2l4 -37q2 -41 2 -123v-121l-2 -100l-2 -152l4 -158l-2 -96l11 -47l-7 -74 q0 -186 -2 -280l-2 -31q-2 -31 9.5 -40t21.5 -9h2q6 6 6 24l-1 8l3 56v108l-2 15v45q0 46 21 51q4 2 14 2l92 -10l115 -8h121zM1225 770q0 -58 -40 -132q-80 -149 -224 -183q-18 -4 -87.5 -25.5t-187.5 -21.5l-74 6l-110 -2l-144 14q-25 0 -38 9t-13 23l2 136l-6 182l8 115 l-4 149q0 27 34 37t67 8h16l12 5h8q18 4 54 4l94 2l16 -1l101 1l133 2q80 0 114 -8t56 -9t66 -17t53 -24t30 -41l21 -28q43 -58 43 -201zM1130 774q0 25 -24 86v4q-2 35 -41 86t-72 58q-72 16 -137 16l-96 -2l-76 2v4q-151 0 -223 -18q-45 -10 -47 -58l-6 -121l2 -98v-67 l-4 -45q0 -16 8 -37q-2 -20 -2 -51.5t41 -38.5q2 0 145 -7l86 -2q39 0 59 2l59 1q59 1 92.5 15.5t55.5 24.5q70 4 125 89t55 157z" glyph-name="Thorn" horiz-adv-x="1486" unicode=""/><glyph d="M1110 519q0 -50 4 -88t4 -40q0 -86 -78 -237q-14 -27 -36 -40.5t-44 -31.5t-106 -53t-125 -35l-53 2q-104 0 -230 45q-29 10 -122 63q-34 14 -48 28t-63 89q-70 106 -70 236q0 18 3 19l18 10q16 8 21 8h59q68 0 92 -1t33 -22q35 -119 37 -125q33 -61 107.5 -95t154.5 -34 q143 0 182 72l31 55q14 31 14 72q0 109 -61 139q-158 76 -248 96.5t-110 28.5t-60 14t-113 49q-29 16 -59.5 65.5t-45.5 89.5q-16 40 -16 118t25 148t35 83q106 152 278 180q108 17 128 17t173 -33q106 -27 166 -89t88 -171q0 -6 10.5 -44.5t10.5 -64.5t-11 -41.5t-65 -15.5 t-121 12q-27 6 -37 31q-6 12 -28 76t-76.5 86t-190.5 22q-57 0 -103 -34.5t-48 -90.5v-18l-2 -37q0 -30 26 -70t106 -71t90 -34t92 -15q81 -12 153 -47l108 -58q49 -25 85 -96.5t36 -121.5zM262 418q-18 0 -18 -19q0 -8 12 -45q8 -53 43 -104q39 -66 72 -84q4 -2 38 -24.5 t85 -30.5l116 -23q29 -4 43 -4q131 0 183 27q98 57 133 104q6 10 14 31.5t14 32.5q39 78 39 176q0 37 -16 90t-31 73q-17 20 -33 31q-16 12 -32.5 20.5t-25.5 14.5t-36.5 16.5t-63.5 30.5t-87 27l-53 18q-52 17 -74.5 17t-32.5 4q-111 49 -117 49t-37 20q-6 8 -32 21 q-2 2 -27 45q4 4 -2 4l-2 2l2 2l-4 4q-20 55 -21 82l4 74q0 6 24 61t65.5 85t105.5 49t106 19q44 0 113 -14t103 -36t64 -48q30 -24 35 -48t10 -29q5 -6 8 -18.5t5 -18.5q12 -8 19 -8h12q8 4 8 16t-14 49l-35 72q-8 11 -46 43t-47 34t-18.5 6.5t-15.5 6.5l-129 25 q-41 8 -61 8q-94 0 -217 -54q-47 -23 -87.5 -75t-48.5 -131l-6 -62q0 -43 17.5 -96t46.5 -74q111 -74 207 -102q12 -2 34.5 -5t40.5 -7t207 -74q14 -6 41 -21.5t41 -21.5q88 -41 88 -166l-4 -74q0 -18 -14.5 -56t-17.5 -49t-33.5 -52t-44.5 -46l-21 -10q-92 -51 -200.5 -51 t-202.5 43q-59 23 -99 76q-45 55 -59 119l-6 28l-6 17q-10 4 -12.5 6t-8.5 2zM1653 1052q0 -60 51 -96q76 -53 156 -73q23 -6 60.5 -20.5t47.5 -17.5t29 -5t35 -8t58 -18.5t88 -29t83 -55.5q39 -39 71 -75t46 -110t14 -106t-27 -139q-25 -82 -82 -137q-57 -56 -79 -72 t-58 -36t-50 -19q-14 0 -100 -27t-136 -10q-96 6 -112.5 18.5t-52.5 26.5t-97.5 51.5t-81.5 57.5t-44 58q-72 117 -73 273q10 16 37 21l139 4q43 0 53 -31l10 -45q10 -55 52 -108q68 -92 223 -93q113 0 176 70q25 25 36 45t23 76l2 27q0 129 -174 163q-117 23 -282 82 q-68 23 -138 78q-66 47 -79 121q-23 99 -23 159t27.5 143t83.5 130q25 23 67 47q111 72 242 72q16 0 92 -9.5t86 -13.5q113 -53 129.5 -65.5t29.5 -26.5t19 -21.5t20.5 -26.5t26.5 -37t15 -21q53 -106 53 -151t-14.5 -48.5t-18.5 -4.5t-18.5 0t-20.5 1l-94 -6q-43 0 -57 33 l-31 65q-21 37 -66 66.5t-105 39.5t-89 10t-82 -22l-8 -6q-88 -88 -88 -148zM1516 390q0 -20 17 -72t60 -101q53 -66 97 -84.5t120 -32.5t113 -14q109 0 162 37q6 4 63 40t72 73l37 71q33 74 33 119q0 113 -33 168l-33 33q-52 53 -66 59t-27 10t-48 25t-230 63 q-37 10 -92 33t-73.5 34t-25.5 14t-40 36t-41 125h-2l4 53l12 60q0 8 24 54t67 73q88 57 180 57q45 0 112.5 -17.5t87.5 -30.5t30.5 -23.5t22.5 -20.5t25 -26.5t17 -27t12 -34t14 -36.5t22.5 -13t16.5 20t-15 52t-21.5 44.5t-18.5 26.5t-14.5 16t-24 20.5t-33.5 29 t-29.5 18.5t-40 13t-39 9.5t-43.5 8.5t-45 7t-46 3t-162 -43q-15 -7 -29 -18t-18 -13q-31 -18 -64 -78q-4 -8 -20.5 -37t-16.5 -61l-6 -25q-4 -37 -4 -75t24 -86t56.5 -73.5t119.5 -66.5t93 -38q281 -51 360 -146q64 -78 64 -124t-17 -97q-6 -47 -55 -125q-16 -23 -57 -52.5 t-49 -37.5q-43 -35 -144 -35t-133.5 11.5t-40.5 13.5l-39 10q-61 20 -103 84.5t-59 136.5q0 11 -24 23q-16 0 -16 -20z" glyph-name="germandbls" horiz-adv-x="2539" unicode=""/><glyph d="M770 927q0 -7 22.5 -89t49 -176.5t28.5 -104.5l33 -96q10 -31 29.5 -100t59.5 -184t40 -145t-28 -30q-35 -4 -113 -8v2h-39q-47 6 -53 55q-2 10 -31 109q-6 25 -33 26q-129 6 -133 7l-106 -7l-43 4l-66 3q-20 0 -28.5 -6.5t-22.5 -67.5t-21 -89t-33 -33t-82 -5 q-118 0 -118 33q0 6 23.5 102.5t31.5 114.5q7 18 23 86t42 145q26 76 35.5 120t18.5 60q10 16 13 46t6 43t24 74t23 75t3 26.5t4 21.5l11 35q12 34 28 114t38 124q20 42 34.5 99t21.5 79t16 28.5t40 8.5l70 5q43 0 67 -118q12 -60 78 -265q9 -47 23 -81t14 -41zM924 112 q0 17 -34 120.5t-38 127.5t-39 101q-6 16 -15.5 58t-21.5 73t-22 70t-27 73q-8 23 -25 87t-36 117q-19 52 -52.5 149t-33.5 118t-10.5 42.5t-29 21.5t-28.5 -38t-26 -91t-20 -75t-22 -82t-21 -66q-3 -7 -25 -83t-25 -93q-4 -17 -11.5 -47.5t-7.5 -35.5l-153 -557 q0 -16 30 -16q13 0 28 69.5t21 94.5t39 24l207 -4l138 4q82 0 147 -8q23 -4 31 -22q39 -134 43 -142t22 -8q17 1 17 18zM309 330q0 22 16.5 77.5t18.5 69.5t4 23.5t6 20.5t14 55t20 68q10 26 20 63q11 70 21.5 95t15.5 55q5 29 17 65t22 72l15 54t21.5 63.5t24.5 68.5 q23 -68 50 -142t32.5 -103t11.5 -47q7 -18 29 -90t47.5 -150.5t36 -109t26.5 -84.5t27.5 -84t13.5 -46l6 -17l-114 -4q-186 0 -375 6q-27 -1 -27 21zM545 866q-33 -33 -82 -278q0 -20 -6 -37t-19.5 -66t-21.5 -71l2 -11q214 -12 266 3l-14 47q-10 41 -35 112.5t-39 125.5 t-51 175zM188 1788q0 22 98 22t133 -3q36 -3 56 -29q143 -195 143 -246q0 -20 -43 -21l-116 5q-49 0 -94 59q-84 115 -146 168q-31 31 -31 45z" glyph-name="agrave" unicode=""/><glyph d="M770 927q0 -7 22.5 -89t49 -176.5t28.5 -104.5l33 -96q10 -31 29.5 -100t59.5 -184t40 -145t-28 -30q-35 -4 -113 -8v2h-39q-47 6 -53 55q-2 10 -31 109q-6 25 -33 26q-129 6 -133 7l-106 -7l-43 4l-66 3q-20 0 -28.5 -6.5t-22.5 -67.5t-21 -89t-33 -33t-82 -5 q-118 0 -118 33q0 6 23.5 102.5t31.5 114.5q7 18 23 86t42 145q26 76 35.5 120t18.5 60q10 16 13 46t6 43t24 74t23 75t3 26.5t4 21.5l11 35q12 34 28 114t38 124q20 42 34.5 99t21.5 79t16 28.5t40 8.5l70 5q43 0 67 -118q12 -60 78 -265q9 -47 23 -81t14 -41zM924 112 q0 17 -34 120.5t-38 127.5t-39 101q-6 16 -15.5 58t-21.5 73t-22 70t-27 73q-8 23 -25 87t-36 117q-19 52 -52.5 149t-33.5 118t-10.5 42.5t-29 21.5t-28.5 -38t-26 -91t-20 -75t-22 -82t-21 -66q-3 -7 -25 -83t-25 -93q-4 -17 -11.5 -47.5t-7.5 -35.5l-153 -557 q0 -16 30 -16q13 0 28 69.5t21 94.5t39 24l207 -4l138 4q82 0 147 -8q23 -4 31 -22q39 -134 43 -142t22 -8q17 1 17 18zM309 330q0 22 16.5 77.5t18.5 69.5t4 23.5t6 20.5t14 55t20 68q10 26 20 63q11 70 21.5 95t15.5 55q5 29 17 65t22 72l15 54t21.5 63.5t24.5 68.5 q23 -68 50 -142t32.5 -103t11.5 -47q7 -18 29 -90t47.5 -150.5t36 -109t26.5 -84.5t27.5 -84t13.5 -46l6 -17l-114 -4q-186 0 -375 6q-27 -1 -27 21zM545 866q-33 -33 -82 -278q0 -20 -6 -37t-19.5 -66t-21.5 -71l2 -11q214 -12 266 3l-14 47q-10 41 -35 112.5t-39 125.5 t-51 175zM455 1534q0 51 143 246q20 28 56 30t134 2t97 -22q0 -14 -31 -45q-61 -53 -145 -168q-44 -59 -95 -59l-116 -5q-43 0 -43 21z" glyph-name="aacute" unicode=""/></font>
</defs>
</svg>
