<svg xmlns="http://www.w3.org/2000/svg">
<defs>
<font horiz-adv-x="204" id="ywftsvg"><font-face ascent="1413" bbox="-287 -842 1749 1672.14" cap-height="1329" descent="-635" font-family="" font-stretch="normal" font-weight="400" panose-1="3 5 3 0 4 4 7 7 13 4" underline-position="0" underline-thickness="0" unicode-range="U+0020-FB02" units-per-em="2048" x-height="594"/><missing-glyph d="M864 1096q-12 -72 -12 -112q0 -49 -8 -83l-10 -137v-43l-3 -21l-2 -18q0 -150 -11 -241q-11 -92 -11 -132v-10q-2 -35 -10 -109v-12q-4 -4 -4 -16q-14 -84 -70 -96h-12l-6 -3q-12 2 -25 3h-21q-10 -2 -26 -3h-6l-156 7h-31l-135 -4h-2l-82 4h-80q-51 12 -59 88q2 4 2 12 l2 20l4 78q2 31 2 68t4 90v39q0 40 8 90l4 78q3 78 11 110v138q0 135 6 157t6 37v2q0 58 27 60h35l32 2q80 0 230 10h4l51 -2q74 -4 106 -4q74 6 142 6l35 -2h36q31 0 37 -29l-2 -14v-8zM207 1083q0 -13 41 -82t67 -124t65 -128q38 -73 44 -87t13 -27.5t9 -20.5l7 7q0 2 5 8 t11 19t29 44q20 39 57 90q11 22 28 47t33 51t35 51t51 70.5t44 59.5t16 26q-2 2 -10 3h-2l-35 -5h-84q-9 -1 -90 3q-80 4 -121 0t-154 -5h-59zM176 995l-2 -34l2 -33q4 -29 4 -39l-10 -109q0 -96 -5 -132q-9 -65 -9 -113l-6 -74v-31q-2 -37 -2 -92q0 -56 -5 -96 q-4 -40 -2 -66l58 72q23 29 58.5 83t42.5 66t24.5 35t23.5 35q29 37 66 98q-33 55 -52 103q-25 43 -28 57q-25 37 -49 95t-60 122q-10 5 -45 82q0 -8 -4 -29zM307 123q58 4 158 4h102l103 -10l-35 59v2q-8 16 -23 35q-2 12 -18 33q-14 32 -42 72t-36 61t-27 45l-28 49 q-12 25 -15 31q-2 0 -9 -14t-30 -45q-23 -30 -34 -49q-10 -19 -35 -48q-25 -41 -45 -68t-36 -52q-16 -24 -32 -42t-27 -33t-14 -18q-4 -4 -4 -8h41zM772 578q0 66 4 84l2 45q0 124 19 221q0 37 4 55v10q6 18 6 45q-6 -6 -10 -6q-18 -24 -21.5 -29.5t-8.5 -12.5t-8 -11 t-19 -26t-25 -36q-11 -15 -29 -43t-34 -50t-30.5 -48t-33.5 -52l-47 -67q-41 -68 -49 -82t-11 -18l2 -4v-4q15 -19 23 -39t20.5 -42t28 -49.5t27.5 -44.5t32 -54t46 -76q24 -39 29 -47t8 -13.5t10.5 -15.5t12.5 -15.5t5 -7.5q19 67 27 217l8 84q12 66 12 132z" horiz-adv-x="952"/><glyph d="M940 528q0 -16 -12.5 -27.5t-26.5 -13.5l-43 -2l-207 4l-39 -4l-43 4h-209l-77 -4l-168 2q-14 0 -15 11q0 14 14.5 31.5t28.5 17.5l41 -4l37 2l43 -2l84 4l123 -4l39 4l240 -4l174 2q16 -1 16 -17z" glyph-name="endash" horiz-adv-x="1024" unicode="--"/><glyph d="M1452 522q0 -10 -12.5 -22.5t-26.5 -14.5l-332 4h-721l-77 -4l-168 2q-14 0 -15 11q0 14 14.5 31.5t28.5 17.5l512 -2h205l37 -2l27 2h98l240 -4h36l138 2q16 0 16 -21z" glyph-name="emdash" horiz-adv-x="1536" unicode="----"/><glyph d="M773 0q-24 0 -41 14.5t-17 38.5q-1 58 65 72q55 -8 56 -57q0 -35 -19.5 -51.5t-43.5 -16.5zM166 125q18 0 33 -10q23 -10 23 -42q0 -33 -23 -51t-31 -20t-39 4q-45 25 -20 78q16 31 57 41zM467 -2q-20 0 -35 10q-22 10 -22 42t22 50t32 20t38 -3q45 -25 20 -78 q-16 -31 -55 -41z" glyph-name="ellipsis" horiz-adv-x="921" unicode="..."/><glyph d="M-2 244q0 6 2 14l12 25q4 8 26.5 42.5t35.5 61.5l22 41l15 57q2 6 7 50q5 43 14 99t9 58l29 156l20 86l15 55q47 225 162 225q29 0 58.5 -41t8.5 -155l-8 -43q-21 -126 -115 -289q-41 -78 -63 -111l-21 -26l-45 -70q-10 -12 -14 -33l-4 -24q-16 -117 -25 -160l-12 -90 q-6 -47 -14 -141l-13 -326q0 -242 58 -242q10 0 59 37.5t49 253.5q0 141 -66.5 237t-66.5 108q0 11 14.5 22.5t32.5 11.5l29 -14q85 -47 160 25q74 73 184 284l14 57q2 5 6 35t11.5 73.5t9.5 68.5l20 112l29 129l14 55q16 76 48 142q39 84 114 84q31 0 53.5 -31t22.5 -77 t-8 -89l-8 -43q-8 -49 -21 -80q-51 -152 -158 -319q-23 -33 -43 -63.5t-26 -38.5t-10 -27l-5 -25q-12 -84 -20 -129l-12 -90q-6 -47 -15 -141l-12 -326q0 -242 57 -242q10 0 32 16.5t24 22.5q59 80 59 233t-69.5 251.5t-69.5 111.5q0 12 14 23.5t24 11.5t35 -15.5t69 -15.5 t97 45q27 27 39 43l15 19q8 12 20 34.5t17 28.5q16 31 37 23t14 -33l-47 -80q-98 -151 -219 -143q90 -133 90 -320q0 -96 -42 -208.5t-145 -112.5l-16 2q-63 23 -83 86t-20 162t5 159l2 27q4 24 4 125v4q10 160 35 336q-125 -271 -287 -260q84 -123 84 -320l-6 -104 q-12 -96 -64.5 -156.5t-109.5 -60.5l-17 2q-63 23 -82.5 86t-19.5 184l4 137l2 27v2q-2 10 -2 27t4 53l2 43v4q10 156 35 334l-27 -49q-17 -31 -35 -24t-18 20zM836 1053q0 39 -6.5 52t-22.5 13q-76 1 -148 -450l-12 -78q-4 -20 -4 -39l8 10q66 104 99 193q2 6 18 48 t29.5 77.5t26 85t12.5 88.5zM383 1079q0 31 -4 51q-7 18 -25 18q-68 2 -147 -450l-12 -77q-4 -20 -5 -39l9 10l49 90q14 32 27 56t22 46q86 215 86 295z" glyph-name="uniFB00" horiz-adv-x="913" unicode="ff"/><glyph d="M158 -537q10 0 59 37.5t49 253.5q0 141 -66.5 237t-66.5 108q0 11 14.5 22.5t24.5 11.5t34.5 -15.5t68.5 -15.5t98 45q27 27 39 43l14 19q8 12 11 17l38 67q29 55 45 97t35 79q18 59 23 82l8 27l10 20q14 20 35 8l24 -10q10 -8 7 -25l-19 -71q0 -2 -24.5 -103t-24.5 -186 q0 -86 24 -123q14 -20 42 -20t50 15q39 26 83 82.5t61 87.5q16 31 24.5 39.5t22.5 2.5q14 -5 14 -17t-4 -20l-18 -35q-67 -110 -102 -145l-21 -21q-60 -65 -128 -54q-57 9 -83 51q-36 59 -24 165q-2 14 4 54t12 51l-4 4q-33 -70 -51 -97l-29 -49q-56 -87 -108 -117t-111 -26 q84 -123 84 -320l-6 -104q-12 -96 -64.5 -156.5t-109.5 -60.5l-17 2q-63 23 -82.5 86t-19.5 184l4 137l2 27v2q-2 10 -2 27t4 53l2 43v4q10 156 35 334l12 72l8 53l4 29l9 34q2 6 7 53t9 70q-12 -2 -37 -2q-26 0 -56 6t-46 16t-25.5 18.5t-17.5 19t-13 14.5q-45 49 -45 141 q0 43 35 43q16 0 17 -33v-4q0 -25 1 -43t15 -39q12 -25 37 -51q41 -32 83 -32t64 8l2 22l29 156l20 86l15 55q47 225 162 225q29 0 58 -40.5t12 -140.5q-17 -101 -66 -189l-31 -53q-52 -89 -123 -140l-20 -14l-7 -55l-8 -35l-4 -43l-14 -82q-16 -117 -25 -160l-12 -90 q-6 -47 -14 -141l-13 -326q0 -242 58 -242zM383 1071q0 39 -4 59q-7 18 -25 18q-23 1 -52.5 -63.5t-55.5 -189.5l-37 -180l17 13q16 13 20 20l26 32q4 6 31 47l25 45q28 58 39 103l8 26q8 31 8 70zM666 825q20 0 36 -12q29 -37 7.5 -64.5t-41.5 -27.5t-32.5 13.5t-12.5 29.5 l2 22q2 7 12 27q9 12 29 12z" glyph-name="uniFB01" horiz-adv-x="856" unicode="fi"/><glyph d="M625 440v-4q-4 -88 -3 -192t50 -158q23 -16 49.5 -15t39.5 9q32 20 82 84t70 108q16 31 37 23t15 -33l-13 -24q-38 -63 -72 -110t-38 -50l-21 -21q-51 -55 -135 -55q-45 10 -72.5 37.5t-42.5 97.5q-12 36 -12 107l-2 53q-2 12 -2 41q-43 -82 -47 -90l-41 -66 q-56 -87 -108 -117t-111 -26q84 -123 84 -320l-6 -104q-12 -96 -64.5 -156.5t-109.5 -60.5l-17 2q-63 23 -82.5 86t-19.5 184l4 137l2 27v2q-2 10 -2 27t4 53l2 43v4q10 156 35 334l12 72l8 53l4 29l9 34q2 6 7 53t9 70q-12 -2 -37 -2q-26 0 -56 6t-46 16t-25.5 18.5 t-17.5 19t-13 14.5q-45 49 -45 141q0 43 35 43q16 0 17 -33v-4q0 -25 1 -43t15 -39q12 -25 37 -51q41 -32 83 -32t64 8l2 22l29 156l20 86l15 55q47 225 162 225q29 0 58 -40.5t12 -140.5q-17 -101 -66 -189l-31 -53q-52 -89 -123 -140l-20 -14l-7 -55l-8 -35l-4 -43 l-14 -82q-16 -117 -25 -160l-12 -90q-6 -47 -14 -141l-13 -326q0 -242 58 -242q10 0 59 37.5t49 253.5q0 141 -66.5 237t-66.5 108q0 11 14.5 22.5t24.5 11.5t34.5 -15.5t68.5 -15.5t98 45q27 27 39 43l14 19q8 12 11 17l27 49q11 19 35 56.5t60 110.5l2 25q8 31 8 59 l17 160q4 45 16 115l6 43q4 29 17 86l12 55q36 198 117 225q29 14 47 7q84 -25 63 -193l-6 -43q-26 -149 -117 -324q-18 -43 -45 -84l-18 -26q-6 -8 -20.5 -34t-23.5 -40t-9 -33zM807 1106q0 45 -25 45h-10q-3 -3 -23 -33t-24 -41q-51 -159 -74 -381l-10 -80q0 -6 -1 -20 t-1 -18l6 8l2 2l21 41q20 41 24 51l31 68l8 22q86 244 78 326q-2 4 -2 10zM383 1071q0 39 -4 59q-7 18 -25 18q-23 1 -52.5 -63.5t-55.5 -189.5l-37 -180l17 13q16 13 20 20l26 32q4 6 31 47l25 45q28 58 39 103l8 26q8 31 8 70z" glyph-name="uniFB02" horiz-adv-x="907" unicode="fl"/><glyph d="M797 586q45 0 37 -49q-4 -12 -23 -13q-55 12 -102 12t-70 3l-41 -74q-41 -190 -41 -260t25 -107q14 -20 54 -20q74 0 132 76.5t72 102.5q14 27 21.5 35.5t22.5 2.5q15 -5 15 -17t-4 -20l-18 -35q-31 -51 -47 -71t-30 -41t-26 -33l-20 -21q-22 -22 -68 -36 q-47 -15 -65 -11q-76 14 -101 62q-12 16 -20 57t-2 90q-2 14 4 54t12 51l-4 4l-41 -82q-25 -49 -50 -83t-68 -96.5t-147 -62.5q-77 0 -108 57q-12 15 -20 57t-2 91q-2 14 6 59t14 56l-4 4q-33 -70 -43 -86t-33 -11q-16 6 -16 21q0 4 3 9t8 16.5t9 15.5l52 100q4 18 17 46 t17 38t9.5 23.5t6.5 18.5t3 9l-29 4q-57 4 -75 10t-27 10q-8 3 -10 9t2 31q4 12 22 12q55 -18 127 -22q8 41 29 127l2 4q12 53 39 141q33 70 59 92q27 16 47.5 14t28.5 -10q25 -20 24 -49q0 -100 -61 -217q-14 -33 -39 -74l-16 -26l-2 -4h4q29 4 47 4h51l123 -4q78 -2 84 -2 q10 55 18 90l2 4q12 53 39 141q33 70 60 92q25 16 48 14.5t32 -14.5q20 -13 20 -45q0 -82 -49 -174t-53 -96h30l18 -1zM133 190q0 -64 25 -102q14 -20 71 -20t95 50t47 60l37 55q2 2 14 29t16 31l51 100q7 8 23 51t21.5 56.5t7.5 21.5v2l2 4h-47q-106 0 -144 4l-65 3 q-55 0 -72 -3l-37 -67q-45 -211 -45 -275zM668 799l-60 -219q24 32 62 108q85 168 32 168q-18 -4 -34 -57zM258 840l-70 -260q20 28 62 110t56 144q13 63 -13 63q-6 -2 -17 -12v-2q-12 -23 -18 -43z" glyph-name="t_t.liga" horiz-adv-x="839" unicode="tt"/><glyph d="M864 1096q-12 -72 -12 -112q0 -49 -8 -83l-10 -137v-43l-3 -21l-2 -18q0 -150 -11 -241q-11 -92 -11 -132v-10q-2 -35 -10 -109v-12q-4 -4 -4 -16q-14 -84 -70 -96h-12l-6 -3q-12 2 -25 3h-21q-10 -2 -26 -3h-6l-156 7h-31l-135 -4h-2l-82 4h-80q-51 12 -59 88q2 4 2 12 l2 20l4 78q2 31 2 68t4 90v39q0 40 8 90l4 78q3 78 11 110v138q0 135 6 157t6 37v2q0 58 27 60h35l32 2q80 0 230 10h4l51 -2q74 -4 106 -4q74 6 142 6l35 -2h36q31 0 37 -29l-2 -14v-8zM207 1083q0 -13 41 -82t67 -124t65 -128q38 -73 44 -87t13 -27.5t9 -20.5l7 7q0 2 5 8 t11 19t29 44q20 39 57 90q11 22 28 47t33 51t35 51t51 70.5t44 59.5t16 26q-2 2 -10 3h-2l-35 -5h-84q-9 -1 -90 3q-80 4 -121 0t-154 -5h-59zM176 995l-2 -34l2 -33q4 -29 4 -39l-10 -109q0 -96 -5 -132q-9 -65 -9 -113l-6 -74v-31q-2 -37 -2 -92q0 -56 -5 -96 q-4 -40 -2 -66l58 72q23 29 58.5 83t42.5 66t24.5 35t23.5 35q29 37 66 98q-33 55 -52 103q-25 43 -28 57q-25 37 -49 95t-60 122q-10 5 -45 82q0 -8 -4 -29zM307 123q58 4 158 4h102l103 -10l-35 59v2q-8 16 -23 35q-2 12 -18 33q-14 32 -42 72t-36 61t-27 45l-28 49 q-12 25 -15 31q-2 0 -9 -14t-30 -45q-23 -30 -34 -49q-10 -19 -35 -48q-25 -41 -45 -68t-36 -52q-16 -24 -32 -42t-27 -33t-14 -18q-4 -4 -4 -8h41zM772 578q0 66 4 84l2 45q0 124 19 221q0 37 4 55v10q6 18 6 45q-6 -6 -10 -6q-18 -24 -21.5 -29.5t-8.5 -12.5t-8 -11 t-19 -26t-25 -36q-11 -15 -29 -43t-34 -50t-30.5 -48t-33.5 -52l-47 -67q-41 -68 -49 -82t-11 -18l2 -4v-4q15 -19 23 -39t20.5 -42t28 -49.5t27.5 -44.5t32 -54t46 -76q24 -39 29 -47t8 -13.5t10.5 -15.5t12.5 -15.5t5 -7.5q19 67 27 217l8 84q12 66 12 132z" glyph-name=".notdef" horiz-adv-x="952"/><glyph glyph-name="glyph1" horiz-adv-x="0"/><glyph glyph-name="glyph2" horiz-adv-x="681"/><glyph glyph-name="space" horiz-adv-x="409" unicode=" "/><glyph d="M266 885l-20 -103l-23 -96q-10 -39 -10 -47l-25 -113q-14 -68 -24 -104v-2q-2 -2 -2 -4l-31 -127q-4 -16 -25.5 -16.5t-15.5 34.5l119 617l6 47l45 241q6 14 14 15q57 0 58 -35zM119 70q0 -22 -20.5 -46t-43.5 -24t-40 14.5t-17 38.5q-1 58 65 72q25 0 40.5 -16.5 t15.5 -38.5z" glyph-name="exclam" horiz-adv-x="450" unicode="!"/><glyph d="M102 952q-12 0 -12 17q25 53 41 138t30.5 119t36.5 34t40 -17.5t-5 -54.5q-56 -130 -65 -144l-10 -18q-44 -74 -56 -74zM236 932q-16 0 -17 10q4 16 16.5 63.5t24.5 106.5t27 93t37 34t38 -15t-8 -71q-51 -102 -61 -125l-10 -22q-31 -74 -47 -74z" glyph-name="quotedbl" horiz-adv-x="393" unicode="&quot;"/><glyph d="M402 342q-22 0 -21.5 14.5t-1.5 18.5l4 49l37 129l31 131h-134l-14 -59q-4 -25 -8 -33v2l-8 -25q-6 -25 -16.5 -65.5t-23 -100t-50.5 -59.5q-18 0 -19 23v14l21 72q0 16 10 26h-2q16 51 16 58l35 131q4 8 4 16h-20l-123 -2q-29 0 -29 27q0 12 13.5 23t29.5 13l146 -2 l34 148q0 6 4 18l-176 -2q-25 0 -24 21q0 14 14 27.5t31 13.5l168 -2l78 305q6 18 28 18t23 -33l-6 -47l-45 -174q-2 -4 -10.5 -30.5t-8.5 -38.5h135q39 181 86 299q8 20 35 20q14 -14 14 -24l-49 -197q-8 -18 -8 -27l-20 -71h24l121 2q29 0 29 -27q0 -12 -14.5 -22.5 t-30.5 -12.5h-146l-45 -164l180 2q25 0 25 -22q0 -14 -11.5 -27.5t-25.5 -13.5l-39 2l-143 -2l-8 -31q-4 -12 -16.5 -68.5t-18.5 -82.5l-35 -135q-4 -23 -26 -23zM330 741l45 2h92q2 10 6 35t8 35l21 64q0 18 8 32h-131l-29 -96q-14 -37 -20 -72z" glyph-name="numbersign" horiz-adv-x="798" unicode="#"/><glyph d="M168 512q0 37 10 57q-101 23 -125 125q-4 4 -4 10l4 52q31 129 137 121q33 0 61 -24t28 -48q0 -88 -66 -88q-10 0 -25.5 8t-15.5 20q0 25 27 25h2q4 -2 9 -2t11 7t6 16q0 35 -37 35t-63.5 -30t-26.5 -78t43 -76t95 -28t95 33t48 96q0 70 -72 129q-2 0 -9 6.5t-17 12.5 t-33 31q-70 49 -70 143q-4 55 8 68q16 57 41 75l15 15q39 31 92 30h2q20 60 20 82q12 29 12 47t21 23q7 0 19 -12q6 -12 6 -23q-10 -40 -10 -41l-23 -82l4 -2h6q2 -2 6 -2q37 0 66 -46t29 -79q0 -124 -115 -125q-51 12 -64 58q0 63 41 63q27 0 27 -20q0 -12 -7 -24t-7 -13 q0 -10 14 -10q59 0 59 71q0 35 -30 59.5t-58 24.5t-55 -8q-68 -37 -68 -113v-12q0 -29 17.5 -59.5t34.5 -46.5l18 -15q60 -36 95.5 -94.5t35.5 -105.5v-11q0 -59 -49 -116.5t-137 -57.5h-17q-14 -42 -14 -63q-8 -33 -8 -39q-4 -33 -31 -33q-4 0 -16 14t-5 28q11 21 11 38z " glyph-name="dollar" horiz-adv-x="526" unicode="$"/><glyph d="M304 1196q57 0 106 -53q32 -37 20 -139q-20 -116 -70 -166q-59 -82 -129 -82q-16 0 -22 2h-2q-96 25 -96 139l2 35q0 14 20 110q24 77 45 97t45 38.5t81 18.5zM293 1139q-61 0 -95 -75.5t-34 -133.5t21.5 -87.5t52.5 -29.5t69 37.5t62 105.5q10 66 11 98t-27.5 58.5 t-59.5 26.5zM686 440q16 0 23 -2h2q96 -25 96 -139l-2 -35q0 -14 -21 -110q-24 -76 -44.5 -96.5t-45 -39t-81.5 -18.5q-58 0 -105 53q-33 38 -21 140q19 114 70 165q59 82 129 82zM625 57q61 0 95 75.5t34 133.5t-21.5 87.5t-52.5 29.5t-66.5 -34.5t-45.5 -60.5t-14.5 -36 t-6.5 -12l-10 -80q0 -49 28.5 -76t59.5 -27zM74 -6v-2l-8 6q-16 6 -9 27q0 2 4 10l15 20v-2l41 70v-2l90 143q10 18 49 80t57 96l86 127q87 137 181 298t139 241.5t61 101.5q10 25 45 15q4 -4 4 -6h2q10 -8 7 -25l-7 -12l-20 -43l-39 -68q-27 -41 -47 -78l-43 -67 q-129 -233 -197 -324l-16 -31l-27 -45q-29 -45 -47 -69l-18 -27h2q-61 -100 -107 -170l-145 -238q-8 -6 -8 -8l-13 -16q-10 -12 -21 -8t-11 6z" glyph-name="percent" horiz-adv-x="901" unicode="%"/><glyph d="M676 256q44 0 92 43l-2 4v4q-20 80 -72 80h-12q-63 0 -80 -65l6 -31l8 -10q16 -25 60 -25zM795 977q-52 -29 -91 -29t-62.5 12.5t-23.5 26.5t8 23t19 10q0 -2 19.5 -6t23.5 -4l25 2q8 0 26 6l23 16l6 2l16 33q8 16 8 53q1 37 -47 72l-43 18q-68 11 -108 0l-27 -4 q-12 -2 -32 -10h-9q-16 -10 -43 -20h2l-30 -23q-35 -18 -60 -55v2l-33 -62q-10 -14 -16 -36l-6 -25q-6 -20 -6 -45l-2 -43l18 -62v2l4 -8q6 -16 22 -16t30 8l49 8l22 2h15q133 0 133 -86q-8 -41 -41 -59l-23 -8q-12 -4 -20 -4h-35q-35 0 -94.5 27.5t-69.5 27.5 q-51 -10 -86 -47l-66 -70q-3 -4 -20 -33v2l-14 -27q-13 -26 -17 -32q-27 -76 -27 -144t48 -173l16 -21q8 -16 17 -18l38 -31q27 -20 43 -25l23 -10l59 -14q6 -10 45 -10l37 -2h13l110 12q33 6 96 37h-2q49 22 86 84l11 20q-20 -20 -78 -20q-103 0 -133 90v-2q-4 2 -4 22 l6 45q7 29 32 52.5t52 29.5l10 4l29 7h14l47 -7l31 -12l22 -16q2 0 2 2q20 -20 29 -27l14 -33q45 65 101 101l8 6l18 10h-2q8 8 25 16h-2q12 10 69 33l29 10l27 5q109 0 151 -99v2q15 -20 15 -67t-33 -86l-29 -25q-61 -33 -99 -33t-75 23.5t-37 56.5t27 58h-2q14 10 24 10h4 q2 -2 7.5 -4t14.5 -7.5t9 -22.5t-20 -30h-2l-2 -2q0 -12 23.5 -19t33.5 -7q39 0 67.5 29.5t28.5 66.5t-31.5 65.5t-67.5 28.5t-114 -39h2l-10 -6q-12 0 -42 -31.5t-36 -36.5l-35 -30l-32 -41q-1 -77 -34.5 -126.5t-49.5 -62.5l-19 -12h2q-4 -4 -18 -10h2l-19 -12 q-15 -12 -73 -37l-45 -17l-127 -14h-13l-14 2l-31 2q-10 0 -53 6l-51 13q-20 4 -25 8l-12 4l-51 24h2q-41 16 -59 41h2q-8 6 -23 25l-45 59l-29 68q-14 40 -14 106t8 97l35 104l37 70l61 69l31 25q45 37 88 53q0 7 -22 51l-17 60v55l10 55q4 15 15 45l6 21l16 22 q1 4 4.5 10.5t3.5 8.5l17 24q0 10 20 27l43 41l25 18l14 9h-2q6 6 51 24l82 27l62 8q98 0 147 -31h-2l23 -10q20 -16 26 -24l35 -50l6 -32q4 -16 4 -27l-2 -14q7 0 -26 -78l-23 -27zM555 752q-23 18 -129 2l8 -4l35 -13q16 -6 66 -6q23 4 22 14z" glyph-name="ampersand" horiz-adv-x="1310" unicode="&amp;"/><glyph d="M102 952q-12 0 -12 17q23 65 42.5 145t32.5 113t35 33q23 0 39 -16t-14 -83q-31 -67 -73 -138t-50 -71z" glyph-name="quotesingle" horiz-adv-x="270" unicode="'"/><glyph d="M370 -426q-10 0 -20 14t-33.5 43t-40.5 67q-17 37 -34 62q-78 150 -113 258t-43 250q-2 18 0 33q-8 77 0 143v5q0 171 69 344t78 194q9 23 33 67t25 46q80 131 237 260q29 20 47 33q57 28 72 -16q8 -24 -37 -46t-120 -96q-74 -73 -130 -161t-69 -122q-12 -34 -30.5 -74 t-30.5 -78t-28 -82q-15 -44 -34 -160q-18 -116 -14 -238t21 -200q38 -174 153 -362l16 -24q6 -15 44.5 -75.5t15.5 -72.5t-34 -12z" glyph-name="parenleft" horiz-adv-x="593" unicode="("/><glyph d="M220 1405q12 -1 20 -15q10 -14 31 -40t46 -73q24 -47 65 -123q107 -195 122 -443q2 -18 0 -33q8 -77 0 -143v-5q0 -66 -14 -150q-14 -86 -36 -142t-59.5 -155.5t-65.5 -150.5t-28 -53q-84 -133 -240 -260q-29 -20 -47 -33q-59 -28 -69 11q-11 29 33 51t126 102 q69 59 127 151t69 126t29.5 74t30.5 77t28 82q15 44 34 160q18 116 14 238q-12 314 -174 563l-16 24q-10 23 -31 52q-59 80 -27 98q20 10 32 10z" glyph-name="parenright" horiz-adv-x="593" unicode=")"/><glyph d="M285 1102q0 -23 -6 -47q2 0 2 2l30 18q29 16 43 27h2q4 2 10.5 8t20.5 6t14 -8l5 -2q18 -27 -12 -40q-30 -14 -64 -34t-41 -28l4 -5q9 -4 25 -15q41 -27 48 -29q27 -7 21 -35q-8 -16 -25 -17q-6 2 -22 12q-23 21 -37 29t-24.5 15.5t-14.5 9.5l-12 -90v-2q-7 -29 -26 -29 t-23 16v4l12 88q-24 -14 -44 -23t-35 -21q-16 -12 -30 -13q-14 0 -20 12q-13 9 2 29h2q8 8 36 22t51.5 29t33.5 21q-3 0 -19 14t-59 43q-34 28 -16 49q13 10 57 -24q2 -2 7 -6.5t9 -8.5t18.5 -14t20.5 -16q2 4 2 14t7 24q4 33 4 43v13l4 8v15q0 12 12 12q4 0 8 -2 q33 -8 23 -41q-2 -4 -2 -10.5t-2 -10.5v-12z" glyph-name="asterisk" horiz-adv-x="460" unicode="*"/><glyph d="M430 459v-221q-12 -27 -35 -27q-25 2 -24 33l4 82v133h-217q-27 6 -27 32.5t31 26.5l112 -2l95 -2h6v76q0 88 2 131v10q4 31 28.5 31t26.5 -31v-47q-2 -12 -2 -129v-41h76q90 0 135 -2h10q27 -4 27 -28.5t-27 -26.5h-90l-20 2h-111z" glyph-name="plus" horiz-adv-x="819" unicode="+"/><glyph d="M119 -156q-20 0 -21 11q0 6 21.5 16t43 33.5t21.5 51.5q0 45 -43 47.5t-43 41.5q0 59 56 59q43 0 80 -46.5t-15 -135.5q-10 -20 -45 -49t-55 -29z" glyph-name="comma" horiz-adv-x="307" unicode=","/><glyph d="M397 479q0 -10 -7 -21.5t-15 -11.5l-10 3h-66l-106 -3l-35 3q-12 -3 -62 -3t-54 6q-3 6 -3 13v4q0 35 22 35l76 -4l27 2h115l45 2q74 0 73 -19v-6z" glyph-name="hyphen" horiz-adv-x="460" unicode="-"/><glyph d="M166 125q18 0 33 -10q23 -10 23 -42q0 -33 -23 -51t-31 -20t-39 4q-45 25 -20 78q16 31 57 41z" glyph-name="period" horiz-adv-x="307" unicode="."/><glyph d="M54 -174q-12 0 -15 4l2 -2q-18 4 -18 18t2 19l10 29l-2 -3l26 86v-2l54 181q57 186 65 217l53 162q14 35 103 354l61 217q4 14 23.5 97t30.5 108l8 22q0 29 43 29q14 -6 14 -27l-12 -65l-25 -84q-20 -69 -26 -99l-25 -83q-33 -110 -38 -132t-37 -132.5t-44 -139.5 l-10 -37q-27 -96 -45 -145l-12 -35l2 2q-12 -43 -37 -125t-27 -90l-88 -295q-6 -10 -6 -12l-10 -23q-8 -14 -20 -14z" glyph-name="slash" horiz-adv-x="512" unicode="/"/><glyph d="M43 508q0 18 8 47q18 129 41 197q44 178 133 321q39 61 108.5 114.5t166.5 53.5q51 0 137 -22q27 -10 61 -31q78 -74 97 -98l2 -5q57 -93 57 -199t-10 -136q-4 -37 -6 -58q-31 -122 -39 -152t-42 -112t-40 -100q-10 -14 -24 -39.5t-29 -40.5q-43 -57 -78 -101 q-121 -133 -248 -133q-31 0 -55 6l-4 3q-240 66 -240 387l6 73q-2 7 -2 25zM784 888q0 40 -30.5 118.5t-77.5 107.5q-10 4 -10 10q-84 50 -166 50t-175.5 -85t-113.5 -194q-6 -10 -41 -104q-59 -203 -59 -367q0 -35 2 -53v-15q0 -94 45 -161t99 -89t83 -22q86 0 195.5 117.5 t162.5 261.5q53 132 68 233q18 67 18 192z" glyph-name="zero" horiz-adv-x="899" unicode="0"/><glyph d="M154 977q-20 0 -28 7t-10 27q-3 20 15.5 26.5t55.5 18.5t108 57t127 112q22 29 52 11t9 -60q-4 -18 -14 -53.5t-13 -52.5q-4 -17 -16 -60q-12 -44 -16 -62t-15 -60t-23 -88t-33 -132q-20 -88 -36 -144l-8 -24q-41 -188 -53 -228t-25 -122v-7l-12 -67q0 -8 -4 -25v-2 q-12 -25 -33 -29t-37 13q-13 25 -5 52q7 26 14 50l4 6q16 59 27 123t20 88q20 94 41 162q9 44 37 158l8 24q16 43 25 94t26 100q16 50 22 78t11.5 56.5t19.5 73.5q0 4 -37 -23t-135 -71q-49 -27 -69 -27z" glyph-name="one" horiz-adv-x="552" unicode="1"/><glyph d="M128 98q-46 0 -74 -9t-39 -16q-12 -7 -48 9q-14 20 -14 57q10 12 51 43t62 58q37 27 61 49q19 12 33 26q14 13 32 27t35 25.5t31 23.5t37.5 33.5t36.5 32.5l20 20q4 2 7.5 10.5t24.5 22.5t56 49q43 33 68 66l43 55q2 2 7 8l54 80q4 8 26.5 42.5t35.5 98.5q10 27 10 67 t-12 66q-32 101 -140 128q-36 9 -55 12l-31 2q-141 0 -215 -68q-9 -5 -16 -18q-29 -33 -47 -74q-25 -80 -6 -109q4 -2 13 -11t27 -17t46 -3t38 19t19 45q10 20 25 13q35 -12 28 -37q-2 -4 -2 -23t-19 -41t-23.5 -24t-7.5 -3l-27 -14q-33 -8 -49 -5t-39 6q-22 3 -37 18 q-12 6 -19 10q-49 31 -43 117q0 41 14 71t37 67q22 36 82 81q16 10 76 36t111 27l24 2h49q116 -13 168 -65q60 -47 84 -119q0 -2 11 -35q4 -25 4 -81t-29 -109q-4 -18 -16 -42l-19 -38l-26 -41l-31 -43q-4 -4 -8.5 -13.5t-10.5 -15.5t-12 -14t-15.5 -20.5t-15.5 -20.5 t-84 -86q-16 -8 -20 -19q-9 -6 -43 -38q-34 -33 -43 -43l-17 -11l-24 -24q-59 -59 -98 -78q-8 -8 -35 -26.5t-40 -30.5t-24.5 -20.5t-20.5 -21.5q-9 -12 -18.5 -19t-13.5 -13q47 4 80 4t41 -6q11 0 182 -37l29 -8q6 -2 28.5 -7.5t35.5 -9.5q113 -35 171 -6q43 23 49 63 t-2 48q-14 51 -55 43q-20 -14 -47 -47q-6 -6 -33 -6q-33 12 -6 73q6 10 17 17q45 45 112 39q36 -12 58 -40t25 -38.5t4 -49.5q3 -102 -46 -134.5t-67 -43.5q-18 -10 -54 -12t-65 4l-25 6q-14 4 -34 10t-26.5 7.5t-16 3.5t-14.5 4q-18 7 -57.5 15t-55.5 14t-34 9t-63 12 t-91 9z" glyph-name="two" horiz-adv-x="839" unicode="2"/><glyph d="M74 260q0 -25 47 -90q47 -47 90 -61q59 -27 103 -28t122 10q77 11 119 32q43 21 81 77t56 115q4 41 -10 86q4 11 -7 28t-11 26q-26 49 -59 65t-65 34t-63 21l-4 3q-45 6 -49 47q-8 20 16 45q14 4 56 4h24q25 0 33 4q113 25 174 117q31 39 44 105q27 137 -44 208 q-59 53 -145 72q-33 11 -129 6q-55 -8 -99 -41q-70 -57 -86 -115t21 -88q8 -14 33 -16h18q27 8 31 37q4 10 -8 10q-11 0 -21 10t-10 29q4 26 53 26q51 -10 51 -67q6 -45 -22.5 -77t-81.5 -38q-33 -8 -74 23q-39 31 -53 75q-20 80 16.5 134.5t40.5 58.5t6 8q79 98 232 98 q39 0 104 -12q88 -27 127 -53t80 -90l18 -43q21 -85 2 -158q-12 -70 -43 -125q-41 -88 -129 -135q-25 -14 -55 -21q-6 -6 -16 -6q6 -4 17 -10t16 -10q35 -14 71 -62q49 -78 60 -120q2 -25 8 -54q0 -38 -5 -60t-32 -95q-14 -39 -98 -117q-47 -35 -133 -57q-29 -4 -74 -9h-52 q-52 0 -74 4q-137 24 -202 91q-31 16 -67 90q-28 86 2 161q8 39 57 87q27 20 90 32q6 -4 40 -8.5t50.5 -41t11.5 -71.5l2 -8q0 -38 -30 -47q-23 0 -31 29v45q-10 25 -16 31q-29 12 -58 -2q-59 -47 -65 -103v-14q-2 -6 -2 -31z" glyph-name="three" horiz-adv-x="892" unicode="3"/><glyph d="M792 1255q14 0 24.5 -11.5t9.5 -23.5t-5 -32v-37l-28 -94q-28 -94 -31 -115l-2 -4l-33 -123q-8 -21 -14 -54.5t-8 -37.5l-21 -84l-12 -59q107 7 152.5 41t52.5 36q16 16 28.5 16.5t16.5 -3.5q22 -10 16 -32t-27 -38l-39 -25q-86 -52 -196 -71q-23 -2 -25 -4 q-7 -31 -30 -116t-32 -122t-21 -80t-17 -88q-4 -45 -13 -64t-38 -20l-17 2q-23 8 -13 46t20 88q12 50 14 55l41 166q6 18 15 50t13 44l13 41h-11q-10 2 -24 2l-29 4q-16 4 -63 16t-51 13q-49 27 -84 51l-68 39q0 -11 -36 -40q-36 -28 -66 -42q-45 -14 -88 0q-47 23 -66 86 q-2 25 14 59t46 56t90 22h2q37 -4 63 -23q23 -12 26 -13t5 -3q4 11 19 39t29 73q13 45 24 77t23 72t14 69q3 29 10 43q-2 8 1 24t-4 58v28q4 12 16 22t30 1q23 -16 18 -51q6 -63 -25 -199l-6 -22q-7 -16 -29 -99t-38 -113t-19 -36t-14 -29l18 -12q107 -68 141 -78t72 -13 t52 -4q13 -1 26 -4q6 35 14 60q4 33 13 53q10 39 12 45l16 78q20 72 23 82q2 10 14 53l41 152q8 27 17 76v6l2 37q4 38 36 38zM133 612q37 10 74 58l-19 10l-4 4q-6 2 -17 7q-42 19 -81 -7q-25 -14 -20 -43q6 -27 40 -33h3q14 -4 24 4zM254 627v2v-2z" glyph-name="four" horiz-adv-x="962" unicode="4"/><glyph d="M246 778q9 0 51 16q41 16 113 15q70 -6 94 -11t90 -46q33 -25 39 -31q66 -61 100 -158q19 -75 19 -133t-23 -139q-10 -59 -68 -133t-126 -113q-36 -19 -136 -41h-104l-41 4q-7 2 -42.5 10.5t-82.5 37.5q-47 28 -66.5 69t-25.5 47q-36 87 -4 180q0 4 5 12t12 28 q7 22 16 26q22 27 52 48t95 26q6 -2 37 -7t69 -58t-10 -73q-6 -4 -24.5 -1t-40.5 57q-14 10 -33 6q-49 0 -83 -36t-38 -87q-4 -23 2 -66q35 -86 76 -110t90 -39q34 -6 68 -6q80 0 155 22q76 40 121 102q82 114 82 238q0 45 -12 90q-4 10 -39 78q-6 6 -27.5 35t-42.5 44 q-22 15 -71.5 50.5t-188.5 -6.5q-10 -2 -18 -8l-13 -6q-31 -10 -43 -27q-27 -18 -44 -18t-26 16t-9 35v4l24 70q14 43 20 71t23 74l23 74q6 29 7 38t5 19l16 66q10 25 13 51q10 47 63 47q42 -6 82 -6l117 4h45l28 2l84 4q27 0 35 2h13q23 0 28 -14q18 -14 2 -52 q-12 -20 -22 -49q-2 -25 -21 -45l-2 -8q0 -10 -4 -19q-4 -8 -6 -14q-10 -27 -25 -28q-8 -6 -30 0q-16 12 0 55l10 20q10 10 35 84h-15l-86 -2q-18 -2 -51 -2l-115 -6q-33 0 -61 1t-41 -11q-2 -10 -16 -54q-14 -43 -22 -93t-28 -102q-18 -52 -20 -66t-7 -29.5t-5 -24.5z" glyph-name="five" horiz-adv-x="841" unicode="5"/><glyph d="M801 434v-18q0 -84 -25 -137q-23 -73 -59.5 -117.5t-44.5 -57.5q-8 -4 -29.5 -26.5t-40 -31.5t-28.5 -16q-10 -6 -62 -18t-90 -12q-36 0 -58 5t-28 5q-16 8 -27 8l-69 35q-70 43 -107 86q-54 63 -91 223q-11 47 5 153q17 107 19 117q8 30 12 50q18 83 86 205 q54 84 70 103t131 128l2 4q68 57 198 103q45 14 101 14l2 -2h39l10 -4q16 2 57 -8t74 -43h2q10 -10 14 -13q2 -2 7.5 -10t9.5 -12q33 -43 18 -133q-6 -33 -37 -70q-25 -18 -33 0q-23 12 -16 43l10 10q6 10 9.5 27.5t7.5 26.5q-2 8 2 16q0 51 -43 74q-18 18 -47 22 q-98 36 -265 -45q-102 -49 -196 -172q-66 -79 -103 -176q-41 -84 -44 -88t-13 -52t-14 -138t2 -137t26 -105q45 -92 131 -135l76 -33l82 -10q84 0 168 63q92 88 125 227q8 29 4 68q-18 88 -22 98q-45 88 -117 105q-109 22 -215 -49q-39 -25 -74 -99l-8 -26q2 -14 -8.5 -27.5 t-29.5 -12.5t-27.5 8t-12.5 32v12q16 70 39 88q22 39 59 70l21 16q66 51 192 66q41 4 47 -2q59 1 111 -49t66 -82q27 -43 47 -138q2 -4 2 -6z" glyph-name="six" horiz-adv-x="890" unicode="6"/><glyph d="M299 612.5q0 14.5 14.5 26.5t28.5 5q14 -8 44 -26t38 -18l18 43q0 4 4.5 14.5t7.5 19.5t15 37.5t17 43.5t40 96q22 39 43 91t60 110l16 39q-6 0 -14 -9q-45 -23 -137 -18h-2q-14 0 -74 12q-43 12 -81 38t-93 30t-109 -14q-33 -14 -92 -64q-16 -4 -27 0q-35 23 -10 64 q8 15 11 31t8.5 30t9.5 25l2 2q0 4 5 11q5 6 8 20t7 18q0 16 23 16l10 -2q25 -16 21 -40q-5 -24 -11 -32t-8 -17.5t-8 -12.5q0 -2 -2 -4q10 2 10 4q46 26 111 26h6q89 0 129 -30q75 -38 110 -45t79 -7t126 41l13 13q2 -2 14 11t32 11t28 -18q9 -16 4 -26t-8 -12.5t-5 -8.5 t-15 -27t-33 -69t-28 -56q-2 -6 -8 -17.5t-10 -25.5q-3 -14 -17 -39q-14 -26 -32 -69t-25 -57q-7 -15 -25 -49t-59 -157q2 0 5.5 -5.5t47.5 -15.5q44 -11 51 -27.5t-1.5 -29t-20.5 -12.5l-31 4q-25 3 -47 13t-30 10q-4 -6 -11.5 -22t-20.5 -44t-16 -43t-8 -25 q-4 -11 -12 -26.5t-10 -22.5t-5 -15.5t-7 -20.5l-37 -101q-34 -84 -39 -109q-6 -24 -13 -42q-10 -31 -36 -29t-27 15q-12 31 18 90q5 15 11 32t12 39t28 72q21 52 27 66t18.5 46.5t20.5 49.5l12 28q18 49 39 93q-24 24 -80 49q-18 10 -18 24.5z" glyph-name="seven" horiz-adv-x="790" unicode="7"/><glyph d="M690 315q0 -41 -3 -67t-25 -72q-9 -35 -64 -90q-54 -39 -68 -46t-26 -15q-44 -13 -60 -19t-48 -11t-44 1q-64 -12 -155 18q-33 8 -59 26t-48 33q-21 14 -59 81q-7 20 -13 32t-10 36t-5 33t-3 3q-6 63 14 123q4 20 11 27q6 23 28 63q37 49 42 54l42 42q4 2 30 23.5 t44 21.5q27 27 63 41q11 6 54 35q23 8 41 23l-47 41q-2 4 -14 15.5t-39 52.5q-25 40 -33 56q-26 55 -27 99q0 45 3 84t44 84q18 27 51 49l12 14q8 2 63.5 25.5t139.5 13.5q101 0 172 -71q33 -28 39 -44q29 -37 29 -135v-30q-24 -99 -70 -147q-41 -45 -60.5 -56.5 t-37.5 -23.5t-41 -19q-46 -32 -64 -41l17 -19q10 -10 13 -14t18 -14t46 -59t40 -58q8 -14 21.5 -42t17.5 -34t7 -16t12 -38t9 -69zM612 302q0 24 -6 48l2 12q-20 61 -71 156q-16 23 -23 27q-6 8 -70 80q-12 8 -30 26q-91 -27 -117 -49q-31 -14 -43 -16q-12 -16 -38 -35 t-33 -27t-11 -12t-7 -8t-7 -6l-23 -23q-10 -14 -19.5 -35.5t-27.5 -59.5t-18 -85t2 -61.5t22 -60.5t64 -67q14 -14 63 -28t64.5 -16.5t19.5 -4.5l74 11q27 4 53 13t42 15q31 11 79 58q59 76 59 148zM688 1030q0 36 -20 76q-20 27 -68 57q-46 21 -72 21t-60 2t-71 -19 q-8 -2 -19 -7t-16 -7q-49 -37 -56 -51t-24.5 -40.5t-2.5 -100.5l4 -21q30 -83 83 -139q54 -56 70 -74q39 16 41 18q57 16 88 48q2 2 39 30q49 63 54 74q6 10 22 53q4 20 8 35v45z" glyph-name="eight" horiz-adv-x="829" unicode="8"/><glyph d="M29 184q0 50 25.5 98t58.5 48t47 -27l-2 -2v-4q0 -6 -29 -43t-29 -61q0 -64 74 -97q126 -41 246 29t190 169q70 100 94 158t48 146q18 100 22 236l-8 45q-29 184 -170 249q-74 37 -150 37q-115 0 -203.5 -104.5t-88.5 -235.5q0 -82 28 -129q59 -102 148 -102q18 0 63 4 q131 14 197 154q17 40 27 41.5t24 -1.5t18.5 -10.5t-2.5 -48.5q-25 -78 -107.5 -146.5t-199.5 -68.5q-4 0 -6 2h-10q-86 0 -138.5 52.5t-81 111t-28.5 104.5v11l-2 39q0 104 72 221q4 6 21.5 27.5t22.5 29.5t39.5 40t47.5 38q55 41 172 41l67 -6q2 0 92 -35t136 -100.5 t70 -144.5t24 -142q-4 -41 -4 -72q-26 -258 -131.5 -403.5t-195.5 -226.5t-243 -87h-30l-17 -2q-27 0 -47 11q-66 16 -108.5 61.5t-42.5 95.5z" glyph-name="nine" horiz-adv-x="890" unicode="9"/><glyph d="M166 125q18 0 33 -10q23 -10 23 -42q0 -33 -23 -51t-31 -20t-39 4q-45 25 -20 78q16 31 57 41zM250 604q16 0 33 -10q23 -10 23 -42t-23 -50q-21 -18 -31 -20t-39 3q-45 25 -20 78q16 31 57 41z" glyph-name="colon" horiz-adv-x="307" unicode=":"/><glyph d="M119 -156q-20 0 -21 11q0 6 21.5 16t43 33.5t21.5 51.5q0 45 -43 47.5t-43 41.5q0 59 56 59q43 0 80 -46.5t-15 -135.5q-10 -20 -45 -49t-55 -29zM250 604q16 0 33 -10q23 -10 23 -42t-23 -50q-21 -18 -31 -20t-39 3q-45 25 -20 78q16 31 57 41z" glyph-name="semicolon" horiz-adv-x="307" unicode=";"/><glyph d="M483 631l-209 -160q8 -10 68 -43t131 -88t113 -82q14 -14 3 -34t-30 -7l-231 160l-49 29l-48 32q-49 29 -11 59.5t50 41.5t45 33t102 74t93 67l20 14q4 2 20 11t28 5t14 -16q6 -9 -9 -25t-32 -24z" glyph-name="less" horiz-adv-x="819" unicode="&lt;"/><glyph d="M410 541l-254 4l-6 2q-8 6 -10.5 24.5t10.5 32.5q195 0 516 -10q27 -27 4 -57q-72 0 -260 4zM125 413.5q0 16.5 14 28.5l359 -6q57 -2 155 -2q18 -2 19.5 -26.5t-17.5 -30.5q-72 0 -260 4l-252 6l-8 2q-10 8 -10 24.5z" glyph-name="equal" horiz-adv-x="819" unicode="="/><glyph d="M315 326l209 159q-8 10 -38 26t-94 60t-101 72t-78 55q-14 14 -3 34t30 7l231 -159l49 -29l47 -33q39 -23 11 -57q-12 -12 -24.5 -22.5t-24.5 -21.5t-45 -33q-32 -22 -76 -53t-66 -49t-53 -38l-21 -15q-23 -23 -41 -17.5t-20 17.5q-6 9 9 25t32 25z" glyph-name="greater" horiz-adv-x="819" unicode=">"/><glyph d="M186 692q-23 0 -43 8q-63 12 -90 86q-22 58 -8 115q4 37 16 64q41 72 84 106q106 92 257 92t243 -143q38 -67 53 -150q7 -159 -51 -266q-53 -102 -137 -133h-4q-94 -33 -150 -31h-16l-31 2q-14 2 -28 2l-23 -118q0 -17 -4 -25q0 -12 -4 -37v-8q-4 -29 -21 -33h-6 q-33 0 -39 33q-4 14 1 28t32 140v8l10 49q0 29 25 29h20q8 0 13 -2h16q2 -2 12 -2h23q6 -2 22 -2t25 2h8q51 6 115 37q47 27 87 95t52 159q4 10 0 24v13q-2 147 -125 233q-59 39 -131 31l-8 1q-8 1 -25 -3q-72 -4 -137 -45l-4 -4q-70 -41 -99 -106q-28 -65 -20 -121t62 -66 q59 -12 106 34q18 18 29 48v4l6 14v6l2 2q13 34 32 15t21 -29q0 -36 -11 -52t-14 -22t-7 -10l-9 -14q-55 -55 -118 -58h-9zM202 104q22 0 31 -14q12 -12 13 -37q-15 -55 -45 -55q-23 0 -43 20q0 4 -8 18t4 33t20 27q6 8 28 8z" glyph-name="question" horiz-adv-x="768" unicode="?"/><glyph d="M723 522q0 -41 -37 -41q-16 0 -22.5 7.5t-10.5 29.5q-6 35 -43 35t-78 -23q-2 0 -4 -2l-39 -30q-4 -4 -18 -17.5t-22 -34.5l-13 -16l-10 -20q-53 -109 -53 -205q0 -68 37.5 -111.5t98.5 -31.5q62 11 132 126l6 9l2 6q23 39 52.5 134t29.5 97l14 64l7 39q4 25 24 24 q16 0 25 -6q18 -5 18 -19t-4 -29t-11 -36t-10 -33q-2 -12 -8 -38t-16 -55t-24 -71t-15 -104q0 -98 64 -98h12q146 0 193 139t47 229t-15 146q-14 127 -102 215t-242 88q-27 0 -137 -19q-76 -20 -145 -57q-253 -137 -322 -455l-21 -155q2 -162 81 -274.5t198 -155.5 q2 1 50 -13t69 -14h4q90 0 143 14.5t90 66.5t53 52q17 0 29.5 -11t12.5 -25.5t-11 -26.5q-63 -84 -133.5 -111t-148.5 -27t-110 10t-42 11q-88 29 -215 125q-57 66 -96 160t-39 169t11 163t77 245q78 143 140.5 201.5t209.5 132.5q68 27 94 27q82 20 154 20q203 0 307 -108 q63 -66 95 -169.5t32 -183.5q0 -172 -51 -293q-66 -133 -153 -164t-154 -14q-43 16 -55 39q-29 57 -27 94l-19 -32q-14 -25 -55.5 -68t-118.5 -43q-37 0 -99 36t-71 109q-10 73 -4 117q2 47 41 143t117 160q54 39 139 51l10 -2q58 0 91 -51q4 -5 9 -19t5 -20v-2z" glyph-name="at" horiz-adv-x="1038" unicode="@"/><glyph d="M1155 276q0 -6 -2 -14l-12 -24q-10 -18 -18.5 -37t-16.5 -30t-16 -28l-25 -41q-14 -25 -39 -45q-71 -71 -129 -71h-12q-84 10 -112 51q-50 73 -50 166l2 76v8l-8 -19l-12 -18q-37 -74 -117 -129q-96 -97 -254 -119q-32 -4 -82 9q-107 29 -143 73l-15 16q-20 20 -37 43 t-30 76q-29 82 -28 173t15 153l21 117q15 64 25 80q15 26 29 64q13 38 30 56q8 14 28 39q12 28 31 47q55 74 88 96q6 4 23 21q35 41 102 78l8 6l72 40q24 9 74.5 28.5t124.5 9.5q6 -2 18 -2q66 -1 122 -57t59 -68t8 -17q2 6 5 28t6 31t4 14t3 9t3 11q1 8 11 22t31 2l25 -10 q8 -6 8 -25l-19 -71l-41 -197l-4 -39q0 -20 -8 -41l-10 -63q-7 -62 -19 -98t-15 -72t-11 -63t-13 -47.5t-21 -80.5q-16 -59 -18 -141q-6 -201 93 -201q14 0 39 10q55 29 84 72q66 83 92 139q16 31 34 24t19 -20zM836 883q4 17 4 56q0 40 -2 51t-19 46t-26 47q-72 78 -148 78 q-49 0 -81 -13q-33 -13 -38 -13q-8 -8 -16 -9q-80 -26 -119 -62t-57 -48l-37 -37l-6 -4l-25 -29q-98 -125 -121 -184l-12 -29q-25 -57 -29 -88l-26 -135q-6 -47 -6 -90v-23q2 -8 1 -49t21 -115v-4q29 -85 105 -127q70 -33 108 -32h21l18 2q36 0 88 26q134 55 228 208 q54 87 70 132q18 46 30 94t42 151t30 142t2 52v6z" glyph-name="A" horiz-adv-x="1095" unicode="A"/><glyph d="M985 426q0 -70 -24 -160q-51 -144 -125 -190q-108 -66 -220 -74h-30q-4 4 -15 4q-19 -6 -37 -6t-73 10h-6q-20 2 -90 37q-126 63 -117 219l6 25q10 16 18 49t45 59q4 2 9.5 5.5t8.5 4.5t15 7l8 2l15 2q33 0 39 -31q8 -8 4 -20q-10 -12 -17 -13l-12 -4h-2q-25 2 -41 -28 q-27 -38 -29 -82q-4 -78 64 -129l2 -2q61 -45 98 -45q6 -4 19 -5h67q27 0 45 5q82 2 146 34q27 10 84 64q23 23 42 76t22 68.5t9 41.5t7 72v14q-2 4 -2 20t-2.5 23t-6.5 17t-11 33q-14 46 -87 98q-8 2 -16 0q-10 -10 -80 -45q-23 -6 -29 -4h-12q-16 -8 -62 -13h-22 q-41 -4 -62 35v6q-24 46 16 88q20 22 60 33l51 12h9q51 0 106 -20l21 -4q5 1 31 37q49 71 42 159v15q-6 18 -6 30q-14 66 -96 148q-45 37 -76 57q-51 27 -106 37l-21 2q-41 12 -92 12h-21l-36 -4q-68 -6 -129 -18q-19 -6 -33 -14t-35 -14t-59 -28q-38 -24 -72 -63 q-39 -61 -49 -86q-25 -76 30 -137q14 -16 54 -23h2q41 0 66.5 20.5t27.5 53.5l2 6v15h-12q-29 8 -38 28t8 28t34 9q41 0 65 -49t-12 -96l-2 -2q-29 -39 -43 -47q-37 -27 -81 -27t-56 2q-86 20 -117 139q-8 35 14 115q71 167 236 215q44 19 105 28t71 11h49l68 -2l6 -2 q117 -5 137 -25l25 -6q4 -2 11 -7t31 -16t56 -33q31 -22 43 -38q39 -28 47 -43t10 -17q33 -41 56 -124q22 -101 -22 -190q-24 -48 -27 -52q-4 -14 -13 -27t10 -33q111 -81 111 -233zM655 666q-31 0 -50 -12t-19 -18q0 -5 16 -6t56 8t65 28q-12 4 -29 4h-2l-33 -4h-4z M408 930q-17 -35 -51 -121q-33 -86 -43 -117t-43 -135q-34 -104 -41 -141t-11 -49t-9 -36q-5 -23 -15 -49q-11 -26 -11 -62t-8 -62t-12 -63q-4 -36 -10 -64q-16 -40 -58 -8q-18 16 10 135q4 24 8 54t10 51q5 21 8 31t11 46q9 38 17 68t13 47.5t17 64.5t29 85q15 37 19 65 t15 50t17 36t11 22l6 25q2 4 13.5 35t23.5 57t22 59l19 43q6 8 14 33t27 19q23 0 28 -23v-2q4 -14 1 -20t-7 -18.5t-6 -17.5t-4 -12.5t-8 -25.5h-2z" glyph-name="B" horiz-adv-x="1071" unicode="B"/><glyph d="M12 614q0 2 14 69t78 212q41 79 120 159t122 107l55 31q73 32 134 39q61 17 118 -6q8 -8 26.5 -7.5t50.5 -17.5t40 -26q31 -18 41 -39q9 -12 23 -26q14 -13 22 -45t11 -45t-5 -63q-14 -56 -36 -80t-33 -42q-12 -18 -58 -48t-117 -22h-2q-52 6 -82 43t-20 80v4 q14 45 31 51q4 2 19 0q16 -2 20 -18t-6 -30t-7 -32q2 -19 25 -26q43 -18 93 6q106 52 106 162q0 44 -24 80t-66 53l-7 6l-12 2q-16 8 -69 16q-54 8 -97 -2q-12 0 -26 -6q-14 -5 -54 -21t-51 -26q-12 -10 -19 -12t-10 -7q-104 -83 -129 -124q-39 -53 -47 -70q-10 -10 -18 -35 q-10 -18 -22 -49t-24 -63q-13 -32 -26 -80l-14 -105q-18 -114 8 -215q27 -100 82 -156q51 -59 111 -84q15 -10 65 -26t134 -14q84 0 130 12q88 23 166 108q48 58 58 78t17.5 28.5t27.5 0.5q19 -8 6 -35l-19 -35q-12 -19 -47 -65q-123 -160 -325 -160q-63 0 -125 6l-23 4 q-8 0 -29 8l-34 9q-139 41 -205 170q-12 18 -20 27t-11 14v4q-5 18 -25 68t-21 87q-1 39 -2 75t11 97l2 25v22z" glyph-name="C" horiz-adv-x="829" unicode="C"/><glyph d="M400 1221l127 4h25q26 0 38 1t31 -7q119 1 215 -49q32 -16 43 -17q18 -6 104 -55q9 -10 19 -16t24 -17.5t23 -17.5q3 -8 35 -40q32 -31 38 -49t17.5 -44.5t15.5 -34.5t11 -39t16.5 -65t7.5 -54l4 -94q0 -74 -3 -87t-6 -53.5t-14 -60.5q-8 -61 -30 -133q-10 -23 -13 -23 q-4 -8 -12 -26t-49 -82q-84 -117 -193 -146q-56 -28 -120 -34l-4 -2q-2 -2 -12 -2t-17 4q-75 0 -132 15t-90 20q-34 5 -77 21t-51 19q-10 10 -36 -5t-81 -42q-20 -6 -94 -10q-8 2 -16 2t-64 14h-6q-70 23 -76 84q0 16 6 37q23 82 133 72h6q69 -7 101 -25t59 -20h2q2 -2 8 -2 q7 0 13 3t22 66q0 16 4 23l13 125q4 20 7 56t11 75q8 40 9 62q0 22 18 72t20 62q2 11 9 27.5t10 24.5q6 8 12 28t37 68q70 104 159 147l2 3q77 39 95 8t-9 -49t-40 -20q-13 -3 -43 -19t-83 -82q-52 -68 -69 -129q-12 -24 -12 -37q-10 -20 -14 -36t-19 -66q-16 -57 -16 -105 q-18 -51 -15 -121l-2 -20l-8 -45q0 -16 -8 -64t-13 -61q-12 -12 -8 -23q5 -29 83 -39q34 -4 106 -22q14 -8 49.5 -10.5t46.5 -6.5h14q63 -8 87 1t93 29t127 101q23 25 31 56q9 9 24 41t21 41l27 84q2 10 5 31.5t14 62.5t11 89t0.5 61.5t-4 44t-7.5 73.5t-58 156 q-13 25 -59 71q-23 27 -60 47t-47 26.5t-16 8.5l-15 9q-31 25 -65 32q-18 0 -42 10t-71 17q-25 11 -67.5 9.5t-58.5 1.5t-74 3t-156 -18.5t-133 -42.5q-55 -43 -105 -117q-41 -67 -12 -145q27 -53 90 -58q39 -4 68 15q57 29 45 71q-18 28 -8 43q21 24 47 13q43 -18 24 -84 q-20 -98 -127 -119q-71 -15 -127 14q-52 35 -72 77t-16 116q0 16 12 53q70 147 189 199q16 8 41.5 10t40.5 6h2q73 25 107 25zM116 74q18 0 38 -6q36 0 56 7t40 10t20 15l-20 11h-4q-4 2 -17 10t-75 20q-27 2 -66 -10q-18 -9 -19 -23t13 -18q16 -16 34 -16z" glyph-name="D" horiz-adv-x="1269" unicode="D"/><glyph d="M285 877q25 -91 39 -91l45 11l22 4l19 2l32 2h4q39 0 54 -4h4q74 -16 74 -82l-3 -10q-4 -31 -36 -50q-38 -12 -43 -12h-35q-9 0 -51 9q-42 8 -74 28q-31 20 -39 21l-12 -3l-27 -16q-37 -18 -49 -31l-51 -53l-15 -20q-6 -8 -13 -21t-13 -26t-11 -17l-14 -31 q-26 -84 -26 -126q1 -97 40 -195l7 -10l8 -15l20 -22l25 -23q49 -35 63 -39l23 -10l33 -10l26 -6q41 -10 45 -11l29 -2h8q45 0 135 15q26 5 95 43q39 18 75 84l11 20q4 8 7 24.5t11 39.5q0 29 -10 53l-17 31l-14 12q-28 14 -37 14h-12q-27 0 -43 -10l-10 -10 q-19 -10 -22 -21.5t-5 -18.5t-2 -9l6 -33q0 -25 -29 -25q-34 1 -36 55t28.5 84.5t57.5 36.5l10 5q25 6 29 6h14q17 0 47 -6l31 -13q16 -8 22 -14l19 -16l12 -15l14 -26l11 -31l6 -37l-4 -29q0 -23 -17 -63l-8 -19l2 2q0 -9 -30 -48t-71 -67t-65 -38t-34 -16t-29 -11 q-106 -14 -129 -14l-25 2l-31 2q-11 0 -67 8l-33 10l-35 13q-31 12 -35 14l-22 12q-33 14 -55 41q-12 8 -23 25l-12 18l-2 4q-15 15 -33 45l-10 21l-11 31q-20 47 -20 112v47l2 15q0 25 6 49l2 4l15 55l10 31l8 18l6 15l25 47l30 41l27 31l41 36q6 4 25 18t36 25l5 5 q16 8 24 10q-6 10 -29 65l-10 49l-2 11v47l10 57q11 43 21 66l16 22q2 4 4 11.5t4 11.5l17 24q18 25 24 31l21 18l2 7q6 4 34.5 27t67.5 38l31 12q8 2 24.5 8.5t26.5 8.5l35 6l27 2q61 0 147 -20h2l51 -25q25 -16 33 -29l23 -32l12 -19l6 -22q4 -16 4 -27l-2 -16l-10 -41v-2 q-6 -16 -16 -35l-15 -17q-24 -31 -94 -49h-4q-20 -4 -30.5 -4t-38.5 10t-29 15q-41 25 -41 64t22 83q16 12 33 10q14 -8 14 -20t-7 -32t-3 -36q0 -18 18 -28l25 -7l25 3h2q2 2 6 2t22 6l2 2q10 4 25 18l10 21q14 39 15 51v2q0 14 -7 27l-12 30q-2 3 -21 18q-20 15 -53 25 q-74 12 -96 12t-76 -10h-4l-41 -12l-24 -12l-19 -8l-24 -19q-24 -15 -40 -30q-16 -16 -26 -31l-24 -45q-22 -48 -25 -58l-6 -26q-6 -20 -6 -45zM512 731q-8 10 -50 11t-83 -7l10 -8l35 -12q14 -6 65 -6q25 5 25 16z" glyph-name="E" horiz-adv-x="870" unicode="E"/><glyph d="M639 653l37 -10l6 -2h2l4 25q14 74 27 118q4 25 10 37q20 134 35 176v2q16 59 20 99v8q-2 2 -10 2h-8l-43 4q-8 2 -32 3t-47 8q-27 8 -43 11l-83 17q-42 15 -174 41q-127 16 -139 16h-19q-33 0 -57 -6h-8q-63 -14 -90 -37q-55 -39 -43 -127q4 -31 22 -45q27 -31 46 -34 t53 -3t57 21q12 6 18 14q20 14 25 51h-10l-5 2q-33 0 -40 23q-4 17 5 33t31 16t29 -2q55 -27 49 -92q-12 -66 -64 -98t-98 -31q-46 0 -63 4q-59 18 -90 61q-29 34 -29 74q-22 108 70 191q12 10 28 15t22.5 8t10.5 3q35 18 99 19h69q49 0 152 -21l22 -6q82 -14 136 -28 q53 -13 107 -25t142 -12h4q16 0 19.5 3t9.5 19q31 86 72 127q63 55 136 38t85 -81q20 -67 -45 -108q-53 -49 -148 -60q-14 0 -22 -2h-12q-29 0 -33 -18t-13 -62q-8 -20 -12 -47l-14 -61q0 -2 -9.5 -41t-11.5 -60q-6 -18 -16 -77t-16 -84t-7 -44q14 -4 50 -9t43 -7 q72 -12 125 14q27 10 37 33t-15 37q-27 18 -57 0l-35 -16q-12 0 -19 14q-12 14 -7 36t38 38q31 10 43 10q57 0 94 -41q55 -59 15 -123q0 -6 -4 -10q-66 -49 -111 -59q-73 -9 -117.5 0.5t-54.5 9.5l-31 4h-6l-4 2q-3 0 -21 -59t-26 -93l-8 -18q-6 -33 -31 -84 q-15 -45 -43 -96v-2q-6 -11 -10 -15t-26 -34t-51 -58q-29 -27 -59 -40t-47.5 -19t-36.5 -12.5t-54 -13.5q-36 -7 -50 -7t-22 4q-45 4 -68 14q-34 0 -76.5 26t-60.5 50t-28.5 51t-12.5 29q-18 57 12 131t96 90q104 25 168 -55q12 -23 -2 -35t-23 -12t-14 2t-12.5 8t-11.5 8 q-22 22 -60 23q-38 0 -69 -47t-8 -111q10 -20 32 -43q59 -51 140 -53q59 -8 145 24q72 33 109 80t65 99q49 102 61 147q12 44 17 64q6 20 12.5 41.5t9.5 28.5q5 13 -12 16q-8 4 -88 28q-72 16 -123 26t-82 1q-59 -25 -71 -82q-7 -23 -23 -21t-29 24t1 52q28 62 90 88h2 q18 8 61 13h12l41 -9q16 -2 96 -21t99 -26zM1038 1247q10 20 -14 41q-31 23 -61 8q-68 -25 -95 -118q4 -2 6 0q84 8 134 39q10 5 30 30z" glyph-name="F" horiz-adv-x="1071" unicode="F"/><glyph d="M852 467q0 12 -2 14q-4 2 -8 2l-15 -2l-14 -12q-29 -39 -34 -55t-18 -45t-19 -49t-13 -50q-12 -23 -10 -43q18 18 29 26q12 9 26 23q12 16 42 73t36 112v6zM250 -392q0 -1 -1 -10t5 -34q3 -42 51 -53q31 -4 67 14t64 63l31 52q6 14 15.5 37.5t16.5 37.5q7 15 11 27 t11 34.5t9 28.5l15 35q12 37 12 49q-6 -2 -17.5 -7.5t-41 -17t-60.5 -29.5q-31 -19 -34 -20t-12 -9.5t-13 -11.5t-15.5 -10t-17.5 -11q-58 -59 -74 -91l-22 -59v-15zM518 23v-3q-59 -18 -99 -18q-113 0 -186 33q-3 2 -37 14q-64 23 -128 121q-18 27 -33 78v6q-16 16 -21 66 q-6 50 -8 61v8q-8 15 -8 93t14 134q6 58 20 98t28 91t33 77t31 55q12 28 17 36q66 92 121 131q6 8 14 14q2 6 11 15q51 41 77 52t31.5 14t12 5t36.5 18t54 20q77 18 114 18h23q8 -2 27 -3l55 -4q47 -4 98 -24q135 -74 135 -174q0 -97 -64 -161q-89 -89 -188 -89q-49 0 -57 6 t-30 19t-25 24q-27 27 -27 71t43 87q2 4 4 6q25 10 39 -1t0 -40q-2 -11 -11 -23q-27 -38 3 -58q31 -21 49 -22h8q76 10 152 80q20 27 33 66q6 35 2 53t-22.5 41t-38.5 31t-43 22q-24 14 -70 21q-217 18 -308.5 -57.5t-99.5 -82.5q-8 -6 -22 -18t-48 -61h-4q-26 -33 -58 -94 q-32 -62 -39 -86.5t-9 -34.5q-1 -10 -9 -26t-20 -60q-5 -42 -12.5 -78t-7.5 -87t-2 -71t6 -57l8 -37q12 -57 20 -84q25 -70 115 -131q33 -20 92 -37q47 -8 93 -8t133 20l69 29q17 6 24 35q7 30 9 36t2 7l2 4q5 29 40 140q35 110 83 163q4 8 10 14q37 47 94 35q43 -6 50 -63 q6 -27 -2 -72q-8 -44 -18 -66q-11 -22 -12 -26t-2 -7t-4 -14t-46 -69q-16 -12 -30 -30t-28 -28t-37 -32q-60 -43 -82 -134l-4 -24q43 14 95 35l55 24q129 65 176 119q24 28 31.5 36.5t14.5 16.5q7 9 21 33t21 32.5t27 0.5q19 -8 6 -35l-19 -35q-53 -91 -120 -137 q-39 -29 -78 -51l-86 -41q-12 -6 -45 -18.5t-60 -24.5l-30 -14q-19 -4 -22.5 -17.5t-12.5 -40.5l-13 -41q-18 -43 -28 -78l-11 -34q-2 -6 -13 -31t-15 -37l-10 -18l-11 -27q-35 -70 -96 -122t-125 -40q-27 4 -32 7t-21 12t-29 26q-47 51 -28 137q6 20 11 37t12 32t12.5 25.5 t14.5 20.5t18 21.5t21.5 21t44.5 35.5t87 55l35 17q9 6 86 43l20 8q27 14 35 43l6 53l-78 -22h-2z" glyph-name="G" horiz-adv-x="1044" unicode="G"/><glyph d="M676 598l285 -20q4 29 8 43l6 20q4 12 12 35.5t10 36.5q-85 0 -117 40t-36 44t-19 47l-10 28q-10 27 -10 69t16 54q10 13 31 2q8 -8 8 -30l-4 -25v-42q0 -42 59 -98q31 -30 84 -30l9 -2l6 14q2 14 22 86l6 21q28 111 71 207q43 95 77 127q67 67 123 35q25 -10 39 -39 q16 -59 0 -115q-20 -97 -64 -162l-31 -53l-30 -41q-8 -12 -36 -42t-63 -52l-34 -21l-23 -10q-4 -2 -8 -2l-19 -82v-2q-10 -39 -16 -68q49 -4 76 4q47 16 57 74q11 19 23 17t22 -19t0 -43q-22 -57 -86 -84h-2q-18 -8 -61 -12h-41q0 -4 -12 -78l-7 -43q-4 -16 -7 -46t-9 -54 q-8 -66 -7 -110q2 -78 46 -99q16 -8 46 -7t43 10q60 42 105 107q10 16 30 47t29 47t20 15q26 0 26 -30q0 -16 -14 -29q-74 -127 -107 -160l-20 -21q-64 -64 -146 -57q-51 0 -84 37q-16 16 -30 51t-17 64q0 72 4 90t4 61t11 59l4 17l16 102q0 12 8 29q-84 4 -325 33l-177 10 l-2 -21l-6 -49q-2 -23 -10 -53l-12 -61q-4 -14 -8 -40q-4 -27 -12 -51t-18 -64t-52 -121t-79 -101q-36 -20 -71 -20t-46 3q-11 4 -43 29t-41 72t-9 57l-2 35q0 86 29 159t51 99q29 43 55 70l27 26q45 36 68 47t53 25t71 16l8 33q0 23 4 41t6.5 43t11.5 101t9 156 q0 81 -20 134q-24 48 -74 56q-14 0 -45 -3l-25 -12q-41 -20 -45 -69l-2 -21q0 -55 35 -74q24 -8 32 -8t24 -1t36 15h2q6 10 12 11q29 0 29 -23q0 -57 -92 -63q-70 0 -113 43q-37 31 -38 88q0 57 24 89t28.5 36t12.5 9t12 9t8 6t27 15q31 12 61 12h19q54 -4 79 -26 q64 -58 70 -138q4 -31 4 -76v-30q0 -41 -2 -62l-4 -54q-4 -54 -6 -59l-2 -26q-4 -53 -8 -84l-10 -64q72 0 164 -10zM164 43q31 0 43 7q53 31 98 147q4 8 9.5 24.5l13.5 40.5t16 68l8 41q2 8 5 24.5t8 42.5t9 42q4 17 7 59v10q-96 -13 -173 -100q-37 -41 -46.5 -69t-15.5 -39 t-7 -15l-12 -31q-18 -74 -21 -135l3 -23q6 -94 55 -94zM1290 1081q10 29 10 81t-22 52l-4 -2h-4q-37 -16 -51 -49q-51 -80 -72 -145l-8 -21l-6 -26l-33 -103q-13 -30 -16 -44t-6 -21t-3 -15q16 8 25 15l30 22q27 20 31 27l27 31q8 8 33 47l14 22l12 21q31 61 35 82z" glyph-name="H" horiz-adv-x="1259" unicode="H"/><glyph d="M248 242q-12 0 -35 24q1 4 -13 16t-28 13q-66 13 -92 -51q-14 -31 -14 -72q0 -78 108 -115q31 -6 62.5 -6t73.5 12t57 21l24 12q83 42 150 160q44 70 65 146.5t25 86.5q4 9 10 33t13.5 57t17.5 81t18 74q8 27 10 46l7 43q6 27 15 78t26 141l2 23l6 37q4 15 8 57l4 45l2 4 q-8 -2 -18 -12q-8 -4 -36 -26t-60 -33q-32 -12 -58 -24q-25 -12 -50 -20q-24 -7 -66 -17t-68 -11q-167 -13 -219 -80q-41 -45 -33 -100v-11q2 -43 55 -71t102 -4q50 25 50 78q0 12 -26 12t-32 26q-2 8 5.5 18.5t17.5 12.5h31q70 -14 61 -98q-8 -49 -57 -90q-72 -33 -115 -27 h-10q-45 2 -84 35q-25 24 -37 40q-32 41 -24 123q7 82 81 130q39 39 91.5 45t60.5 10t22 6t40 5.5t71 14t67 14.5t38 16q16 10 40 19t58 33.5t41 28.5q18 18 35 32t35 32q18 19 38 14q29 0 29 -37l-10 -45v-10l-5 -25l-14 -88q-8 -32 -8 -51l-4 -35q-3 -19 -8 -55 q-4 -35 -17 -101t-25 -134t-30 -154q-59 -225 -76 -258q-20 -57 -35 -82q-49 -110 -108 -154q-123 -110 -254 -108h-14q-29 0 -43 2h-7q-52 8 -112 40t-72 113q-8 39 0 72q18 94 98 135q25 10 56 11q72 0 114 -70q2 -2 2 -4q12 -33 -10 -43q-4 -6 -16 -6z" glyph-name="I" horiz-adv-x="829" unicode="I"/><glyph d="M172 -392q0 -1 -1 -10t5 -34q3 -41 51 -53q31 -4 67 14t64 63l31 52q6 14 15.5 37.5t16.5 37.5q7 15 11 27l6 18l29 90q12 38 12 50q-6 -2 -16 -7.5t-25 -10t-28 -13.5q-32 -10 -76 -39q-45 -29 -77 -61.5t-38 -47.5q-16 -21 -25 -39l-22 -59v-15zM230 406q88 0 132 75 q15 21 15 47l2 7v18q-2 4 0 22t-23 23q-6 0 -17 -9t-23.5 -9t-24.5 8q-8 14 -4 24q6 29 59 40t86 -54q8 -25 6 -63l-2 -5q-9 -100 -80 -145q-10 -8 -26 -14q-16 -5 -37 -17t-57 -12t-78 4l-47 16q-66 35 -105 95q-10 16 -16 20q-18 31 -21 41l-12 43q-16 41 -4 115 q0 24 14 45q45 125 125 178q105 68 234 96q20 1 42 9t31 10l72 14l43 6q27 6 29 6l135 25q12 6 24 10q2 2 3 10v15q17 105 34 137q40 56 99 63l30 -6q6 0 11 -4q25 -2 40 -24.5t15 -51.5q6 -35 -10 -58t-72 -79q-25 -23 -96 -51v-4q-2 -2 -4 -19t-9 -59t-13 -72t-9 -69 q-12 -57 -14 -94q-1 -37 -11 -109t-13 -88t-7 -52t-25 -138q-21 -101 -41 -172l-30 -130l-5 -24q27 8 74 31l31 18q18 10 78 49t95.5 82t42.5 51q6 9 20 33t21.5 32.5t27.5 0.5q19 -8 6 -35l-19 -35q-22 -39 -62 -85t-59 -58q-37 -33 -75 -55l-76 -43q-12 -6 -31.5 -16.5 t-40.5 -18.5l-24 -10q-19 -5 -22.5 -18t-12.5 -40l-12 -41q-18 -43 -29 -78l-10 -34q-2 -6 -14 -31t-15 -37l-10 -18l-10 -27q-34 -69 -96 -121.5t-126 -40.5q-25 4 -31 7t-22 11.5t-29 26.5q-47 51 -28 137q30 108 85.5 161.5t135.5 96.5l35 17q22 14 86 43l20 8 q27 14 33 43l66 252l8 47q16 104 18 115l6 26q6 30 8 64t13 78l6 43q1 13 27 192q26 178 30 187q-6 0 -54 -14t-102 -20t-112 -19t-70 -16l-24 -6t-42 -10t-86 -34t-81 -49q-63 -61 -82 -117q-49 -89 -10 -172q20 -57 73 -105q38 -38 126 -38zM831 1239q-23 0 -38 -31 q-25 -35 -29 -112q72 35 104 94q12 31 -1 40t-36 9z" glyph-name="J" horiz-adv-x="915" unicode="J"/><glyph d="M420 694q-58 0 -58 -39q-6 -6 5.5 -17t22.5 -15t27.5 -10.5t30.5 -6.5t19 -2l2 19l4 6l6 53q-25 12 -59 12zM528 602q29 0 64 12q-4 1 -25 21q-6 12 -30 20l-11 -53h2zM1121 16q-81 0 -134 37q-84 63 -137 146q-6 12 -22.5 36.5t-68.5 113.5q-51 89 -59 99t-11 17.5 t-5 10.5t-6 11.5t-7 11.5l-14 15q-4 12 -11 20t-9 13q-2 6 -8 12q-53 -18 -73 -19t-36 -5q-8 -29 -8 -43t-5 -38t-15 -54t-15 -48q-27 -117 -86 -221q-27 -51 -85 -90t-101 -39h-2q-169 8 -201 154q-6 25 -2 77t29 93v6q8 16 24 33q18 12 23 12l22 -8q8 -5 10 -17t-4 -20v-2 q-2 -4 -19 -44l-15 -53q-10 -43 4 -88q27 -72 92 -75h14q68 0 131 71t109 240q11 36 31 123l2 22q0 2 2 9v6q-8 4 -31 4h-6q-20 2 -54 17q-86 38 -71 104q2 35 39 71q36 27 66 27t67 -8h2l16 -4l4 16v2l7 104v46q0 100 -11 133q-10 70 -20 90q-33 51 -101 65q-20 8 -64 0 t-83 -45q-20 -16 -27 -28l-6 -5q-23 -29 -35 -61q-10 -41 -10 -73t21 -60q18 -31 46 -31t40 10q23 10 30 33q4 2 5 4q12 31 32 31q12 2 27 -8q10 -18 -8 -63t-80 -66h-2l-12 -4h-13l-26 -2q-29 0 -50 14q-75 45 -75 143q-10 23 0 37q12 82 45 115q40 73 108 98q6 4 33 15 l25 6l2 2q27 -4 55 4h20q89 -26 125 -66q37 -41 53 -97t16 -94q1 -38 1 -102v-41q2 -14 -1 -68t-9 -71q16 -8 22 -14t18 -13t15 -16q2 0 14 -12q4 0 4 -2l29 -29q14 6 43 35q27 23 49 49l23 23q20 23 43 49q4 8 15 19.5t14 15.5t26 28q23 23 123 142l21 26q82 98 116 133 l4 7q77 77 117 84q16 0 27 -21q5 -15 -17 -36t-43.5 -40t-51.5 -49t-104 -120q-73 -90 -137 -152q-37 -45 -53 -62q-18 -25 -22 -26l-9 -13q-57 -66 -79 -85t-62 -58q0 -6 17.5 -32.5t29.5 -47.5t21 -31l4 -12q46 -77 62 -103t42 -73q18 -43 39 -70q70 -83 113 -111t92 -32 l29 -2q49 0 104 55t94 131q19 34 37 25q28 -11 15 -34t-44 -78t-75 -99l-21 -21q-47 -47 -128 -47z" glyph-name="K" horiz-adv-x="1331" unicode="K"/><glyph d="M788 1225q-12 4 -21 4t-36 -33q-35 -53 -55 -166q21 17 24 23q2 0 64 69q27 41 37 76q0 18 -13 27zM164 66q57 0 100 30q-16 8 -34 20t-69 13q-51 0 -81 -20q-6 -10 -4 -23q6 -18 26 -19t43 -1h19zM791 -49h-17q-8 2 -36 3t-53 5q-26 4 -31 6t-23.5 5t-30.5 6t-69 15 t-121.5 39t-68.5 27q-5 0 -13 -4l-4 -4q-66 -41 -140 -51l-22 -2q-93 -9 -135 33q-25 25 -29 65t32 67q36 28 68 34l21 4l31 2h20q18 0 33 -6q55 -12 98 -39q5 0 16 -11h2q2 0 4.5 3.5t7.5 7.5t21 25t34 52t56 127t52 166t21 106t16.5 73t11.5 51t6 28.5t4 22.5l6 29 q6 10 10 36l2 2q-11 -4 -27 -15t-50 -17q-81 -25 -119 -25q-12 -4 -33 -4h-45q-69 10 -93 14t-66 31t-60 67q-34 81 -2 156q8 16 41 56q50 45 109 45q58 0 85 -37q41 -59 -14 -117q-16 -12 -24.5 -12t-18.5 8t-10 23q8 20 12 26l8 21q0 12 -5 18t-29 11t-60 -19 q-53 -43 -47 -115q2 -27 22 -53q16 -27 58 -39q47 -18 114 -18h9q76 -1 150 25t114 63q8 6 18 54t25 109q4 4 15 40t28 63q49 61 102 59t68 -35q26 -54 10 -100q0 -7 -14 -35l-2 -2q-4 -14 -31 -47l-25 -24q-35 -53 -125 -111q-14 -14 -18 -33.5t-8 -27.5l-2 -17l-13 -55 q-7 -17 -13 -51q-7 -35 -14 -68t-9 -44t-7.5 -34.5t-16.5 -79.5t-50 -170t-48 -132t-29 -55q-21 -38 -31 -51t-5 -16q85 -40 191 -63q106 -22 178 -27h16q73 -4 113.5 17.5t56.5 24.5t53 40t71 81t52 75q17 32 24.5 40.5t27.5 0.5q19 -8 6 -35q0 -2 -7.5 -17l-18.5 -37 q-40 -81 -97 -136l-17 -17q-36 -37 -70 -53t-83 -31l-2 -2q-53 -14 -98 -14z" glyph-name="L" horiz-adv-x="1128" unicode="L"/><glyph d="M623 844l-11 -19q0 -9 -13 -45t-15 -52t-19 -50l-2 -10q-8 -8 -11 -24t-17 -46l-5 -4l-6 -18l-22 -48q-14 -24 -29 -61q-15 -38 -33 -75q-18 -38 -30 -66q-8 -10 -19 -32l-23 -46t-73 -98q-98 -127 -254 -84q-68 25 -104 86q-33 68 -7 161q20 69 90 103q34 16 65 16 q32 0 65 -18q51 -35 34 -117q-12 -23 -37 -23q-18 4 -22 27v35q-2 33 -27 37h-2q-79 0 -106 -97q-23 -68 37 -126q25 -23 67 -29q92 0 150 72q43 51 112 176q8 20 29 62t32 71t40 94q29 55 45 100t28.5 80t17.5 51t8 22q3 7 5 16t3 17t9 33v9q-2 2 -5 9q-2 7 -22 45t-22 42 l-22 44q-10 20 -16 66t21 82q28 35 77 39l4 -2h6q33 -4 57 -26q49 -71 33 -150q-2 -53 -35 -141l2 -17q4 0 4 -4.5t9 -13.5q0 -6 21 -48t65 -187q39 -98 55 -157t32 -111q15 -52 29 -110t19 -67q4 -8 4 -14q-1 15 73 140q74 126 107 176t42.5 68t21.5 40l24 49 q4 6 11.5 19.5t13.5 19.5q36 66 66 115t28 106l-2 55q-4 35 -4 111v10q0 59 9 95t41 57.5t82 17.5t68 -49q49 -71 -98 -320q-6 -4 -10 -18l-12 -18q-8 -14 -4 -52v-37l10 -135v-80l4 -65q0 -59 6 -143q6 -15 8 -63q5 -129 51 -202q25 -28 60 -28q69 1 128.5 77.5t75.5 105.5 q15 29 22.5 37.5t22.5 2.5q15 -5 15 -17t-4 -20l-19 -35q-39 -68 -49 -81t-24.5 -33.5t-26.5 -32.5l-20 -21q-31 -31 -72 -49q-29 -8 -71 -1q-88 15 -115 101q-34 86 -43 297l-7 74l-6 80v23q-4 118 -4 150t-2 32t-2 2v2q-12 -29 -22 -41q-2 -8 -18 -34t-24 -42t-12 -24.5 t-8 -15.5t-6 -13q-8 -8 -24 -44t-48 -74q-31 -40 -41 -64q-6 -6 -13 -18.5t-27 -39.5t-36 -65q-16 -39 -22 -51l-9 -18t-8 -13q-5 -6 -25 -53q-21 -47 -36.5 -62.5t-40.5 0.5q-20 23 -30 76q-8 25 -11 39q-12 23 -16 47t-29 115l-8 20q-45 170 -82 260q-12 37 -24 80 q-41 109 -41 111v2zM1333 1016q0 -18 2 -27q2 4 5.5 11.5t5.5 10.5t5 9t7 10q74 135 49 172q-6 16 -25 19v6v-6q-31 0 -41 -31v-8l-8 -56l2 -24l-2 -80v-6zM606 999l19 109v27q-14 55 -41 55q-10 4 -26 -13t-7 -42q6 -47 22 -76q19 -22 33 -60z" glyph-name="M" horiz-adv-x="1689" unicode="M"/><glyph d="M1010 368q0 -16 -3 -31t-6.5 -38t-9.5 -49t-9 -56q-3 -28 -7 -56.5t-6 -47.5v-12q-2 -4 -3 -27t-32 -37h-10q-23 0 -43 17q-6 10 -7 16v4q-4 12 -15 57t-19.5 73.5t-20.5 62.5t-18 69l-8 25q-17 66 -21 86t-8 33t-9 33t-10 46t-11 46q-6 18 -9.5 29.5t-7 21.5t-8.5 51 q-7 26 -11 48t-28 111q-27 98 -42 177q-14 79 -26 119q0 -13 -24 -103l-9 -26q-4 -26 -27 -105q-22 -78 -42 -168t-31 -131l-18 -80l-35 -135q-2 -8 -6 -22.5t-6 -28.5t-10 -39q-8 -24 -10.5 -32.5t-5.5 -15.5t-11 -37t-33 -85q-16 -49 -53 -80t-48 -31q-43 -18 -83 -18h-19 q-45 0 -63 21q-25 12 -35 30q-23 23 -30 63t-2 58q5 20 22 62q17 29 37 42t30 13q37 0 41 -27q3 -14 -27 -43q-57 -56 -24 -117q12 -29 63 -32t78 24t35 39q0 6 5 10t7 9.5t16 29.5t23 57q8 33 12.5 41.5t11.5 34.5t10 39q3 12 11 33l15 62l12 61q18 62 23 78q20 65 49 190 t38 161q10 36 23 90t23 75l6 22q2 8 5 23.5t5 24t6.5 40.5t38.5 46h10q29 -4 34 -10t16 -53q12 -47 14 -65t8 -46.5t12 -54.5t12 -68q9 -29 23.5 -98t18.5 -87t8 -31.5t6 -23.5t8 -30.5t8 -33.5t16 -65t26 -110q14 -56 22 -80t18 -64t17 -58t15 -44t14.5 -49t8.5 -35v-4 q2 6 4 27t11 55q8 34 16 98q10 39 14 96q22 129 30.5 155.5t8.5 32.5q2 6 5.5 23t6.5 25t6.5 28t8.5 27q6 27 20 72l27 90q27 90 79.5 193t70.5 127q35 48 112 52q20 4 56 -6t45 -30q4 -29 -2 -39q-2 -12 -29 -7q-51 29 -111 -2q-42 -22 -112 -180q-4 -14 -11 -22 q-16 -41 -25 -71t-13.5 -42t-10.5 -36t-17 -57q-11 -31 -17 -53t-9 -40.5t-21 -72.5t-38 -169l-2 -35q-4 -7 -4 -23z" glyph-name="N" horiz-adv-x="1177" unicode="N"/><glyph d="M844 954q9 -35 4 -77v-19q-4 -12 2 -22q-2 -8 -2 -28t-2 -30v-14q-13 -153 -23 -172l-4 -27q0 -11 -10 -40t-15 -48q-6 -19 -10 -32t-12 -38.5t-14 -37.5v-4q-4 0 -10 -19v-4q-2 -2 -6 -11.5t-11 -19.5q-8 -23 -13 -30t-8.5 -14t-5.5 -10l-24 -34q-4 -8 -8 -14l-37 -47 q-41 -51 -90 -90t-76 -39q-45 -25 -104 -25l-7 -2q-23 0 -55 4q-37 0 -70 23q-121 60 -184 205q-6 6 -8 14t-7.5 21t-17.5 49t-14 106v25q-4 45 -4 90t14 100t16.5 64.5t4.5 13.5t3 7t3 7v4q26 130 137 320q0 8 6 14q4 6 34 56t116 108q4 6 15 6t18 -10l6 -4q18 -8 6 -33 q-4 -18 -10 -27q-25 -11 -44.5 -32t-27.5 -27q-98 -115 -162 -276q-14 -45 -33 -113l-4 -21q-10 -35 -11 -52t-6 -35.5t-7 -25.5t0 -30t-2 -39l-2 -49v-8q3 -18 4.5 -44t3.5 -42q4 -1 4 -7t13 -52q29 -100 63 -134q2 -6 13 -16t25 -28t50 -27l2 -5q6 -2 19.5 -7t21.5 -7h2 q6 -6 26 -10h58q33 4 92 27q41 20 57 38q66 57 112 131t93 193q8 31 13 55t10 45q17 17 22 86q4 68 6 76l6 109q2 27 1 46t-9 77q-8 57 -10 60t-2 15q-20 57 -43 76q-6 2 -11 6t-39 21q-33 16 -47 15t-62 -4t-77 -32q-20 -14 -30 -32q-23 -27 -45 -70q0 -11 -21 -57 q-2 -10 -2 -27l-8 -18q2 -31 -2 -48l2 -10q0 -37 45 -65q8 -4 33 2l2 4q25 14 35 14l4 -2q20 -6 28 -31q2 -27 -18 -43q-23 -4 -43 -14q-45 -18 -100 23q-39 33 -47 56t-9 46v4q-8 43 6 90v19q8 55 58 131l6 18q8 4 16 16t15 15l4 6q39 41 59 50q72 32 145 24l5 -2 q74 -6 112 -39q16 -10 21 -13q8 -10 25 -24q17 -15 37 -63t26 -103v-25z" glyph-name="O" horiz-adv-x="880" unicode="O"/><glyph d="M-145 892q0 165 186 277q25 18 131 51t238 33h26q131 -15 199 -37t129 -75l8 -4q9 -9 15 -13t6 -6l20 -22q4 -2 10 -13q53 -66 76 -120q41 -88 37 -189v-24q-4 -10 -4 -33q-6 -24 -6 -49q-4 -16 -11 -23l-8 -31q0 -14 -28 -63q-14 -31 -27 -45q-16 -27 -51 -57 q-46 -58 -168 -97q-47 -14 -94 -14h-29q-65 0 -75 8q-11 8 -15 10h-4q-16 8 -24 16l-13 13q-7 4 -21 30t-20 62q-19 46 -6 88q14 28 49 17q12 -12 12 -28t6 -40l2 -22q10 -81 88 -86h39q136 0 234 98v2q39 31 61 88q13 24 15 36t18 44q16 34 12 117l-4 51q0 32 -16 72 q-49 121 -125 180q-12 12 -21 16q-10 12 -26 18q-48 29 -82 36t-53 14q-51 10 -66 10h-84q-179 0 -319 -76h-2q-33 -18 -74 -60t-68 -106l-2 -2q-18 -39 -4 -90q2 -4 2 -16t4 -15q26 -59 95 -59q27 0 59 18q35 33 16 72q-8 12 -4 25q8 8 20 11t20 3q9 0 26 -25 q39 -84 -43 -138q-39 -26 -101 -25l-36 2q-33 5 -70 30q-31 39 -43 71t-12 84zM403 1073q15 0 19 -6q18 -12 8 -39l-16 -29q-3 -3 -11 -16.5t-11 -16.5t-3 -5.5t-24 -45.5t-37 -104q-25 -73 -30 -103t-18 -75t-15 -61q-3 -15 -7 -33.5t-9 -55.5t-13 -81t-16 -92t-12 -84 q-5 -36 -7 -46q-4 -19 -4 -26l-7 -107v-4q0 -43 -36 -43q-43 0 -35 47q5 26 17 127t22 141q0 17 8 82l6 13q2 14 9 56t11 76t20 94q15 60 24 81q30 146 68 219q38 72 44 80t11 18t8 10q21 29 36 29z" glyph-name="P" horiz-adv-x="940" unicode="P"/><glyph d="M727 -133q-39 0 -103 26q-65 26 -116 54t-57 35q-7 -6 -63 -34t-105.5 -44t-112.5 -8q-67 0 -109 16q-23 4 -43 33q-26 49 -18 79t14 44q20 41 72 55q124 44 260 -17q10 -6 35.5 -16t46.5 -20q23 -16 34 -3t27.5 28t28.5 31t29 34q135 150 205 389l6 20q10 35 12 64 q16 66 16 78v22q0 6 7 68v8q0 127 -82 268q-21 21 -43.5 49t-87.5 41q-8 6 -29 11q-66 0 -112.5 -2t-104.5 -43q-104 -88 -143 -153t-63 -149t-28 -117.5t-6 -43.5l-4 -68q-4 -27 -4 -61v-23q0 -82 22.5 -130t36.5 -60q41 -43 103 -43q8 2 46 2t73.5 26.5t72.5 106.5 q14 41 15 102q0 18 -17.5 44t-40.5 26l-20 -6l-2 -4q-25 -14 -35 -15q-33 10 -31 37q0 27 31.5 43.5t69.5 16.5t74 -45t36 -75v-48q0 -35 -10 -58q0 -39 -26.5 -85t-57.5 -76t-76 -45q-46 -15 -65 -15q-58 0 -102 19.5t-95 64.5q-27 25 -45 78q-25 53 -20 182l2 47l4 58 q16 109 22 125q5 33 29 95t41 83q8 23 14 31t18.5 30.5t28.5 40.5l37 47q106 131 291 135q23 0 55 -4q61 0 149.5 -72.5t108.5 -160.5q4 -23 19.5 -71t15.5 -103l2 -88q-6 -162 -98 -365q-9 -38 -47 -98q-37 -60 -57 -93t-35 -53q-23 -43 -49 -67t-32.5 -32.5t-11.5 -10.5 q-14 -14 -8 -15q0 -4 4 -10l4 -2q2 -2 12.5 -9t26.5 -18t74 -34h2q10 -2 38 -10.5t40 -10.5q2 -4 54 4t79 32t31 31t12 19.5t10 18.5t19 32q4 14 22 15q16 -4 21 -12q6 -14 -5 -46q-23 -67 -73 -100q-29 -25 -55 -33q-35 -16 -78 -20h-33zM387 14l-27 15q-27 12 -53 26 q-100 38 -153 19q-57 -16 -72 -31q-23 -29 -14 -47q9 -32 36 -35t33 -6q70 0 117 5t88 29.5t45 24.5z" glyph-name="Q" horiz-adv-x="911" unicode="Q"/><glyph d="M487 879q0 52 11 118v45q6 27 22 27h10q33 -8 29 -57l-2 -43v-21q-6 -18 -6 -43l-2 -39q-6 -12 -6 -86q-6 -10 -6 -96l4 -4q4 -2 20 -15t23 -16q4 -8 16 -16t41 -41q10 -20 16.5 -29.5t8.5 -13.5v-4q15 7 52 18q38 10 73 33q72 43 102 102q0 8 8 15q14 29 17 30 q34 104 34 156v12q0 14 -4 60l-10 20q-8 20 -10 23v4q-38 70 -56 85t-21 18t-5 3q-20 25 -53 43q-20 20 -50 27q-20 10 -92 25h-76q-151 0 -307 -101q-68 -44 -98 -112t-25 -140q6 -37 30.5 -57.5t52.5 -20.5t46 13q29 14 52 53q7 21 0 49q-7 26 -68 4q-20 0 -22 19 q0 20 12 28q73 45 123 -12q20 -34 20 -64t-18 -71q-47 -74 -133 -78q-79 10 -109 42q-55 58 -53 136q8 122 74 190q65 68 129 101q4 2 9 6t7 4l25 13q84 41 153 50t76 9l39 2h12q66 0 82 -8q33 0 53.5 -9.5t28.5 -12.5t26 -13t26 -14q9 -4 23 -17q15 -12 37 -30t29 -23 q37 -37 54 -68l38 -77q21 -61 12 -136t-32 -134t-36 -77q-12 -18 -19 -32q-35 -41 -117 -92q-4 -2 -66 -31q-21 -4 -35 -10t-14 -9q55 -117 60 -124l24 -56q54 -119 135 -190q61 -47 127 -47q65 0 99 18q91 48 159 180q19 34 37 25q27 -10 15 -33q-59 -118 -119 -178 l-21 -21q-18 -18 -63 -37t-113 -20q-96 4 -158 52t-118 153q-8 16 -22 41t-48.5 110t-52.5 113q-7 -7 -74 -12l-39 -2h-4q-2 0 -8 -2h-4q0 -6 -12 -65t-23 -70q0 -27 -47 -134q-31 -57 -57 -92q-41 -45 -60 -55q-68 -31 -129 -31q-69 12 -94 25q-68 33 -84 74 q-32 57 -16 115t50 92t71 34t61 -8q55 -12 67 -57q6 -59 -11 -73t-24 -13q-7 0 -12 4q-23 10 -16 31q0 14 4 14q4 20 -6 34t-31 13q-57 0 -82 -51q-2 -6 -12 -32.5t2 -72.5q2 -4 20 -26l3 -2q33 -37 84 -41h51q68 12 125 84q37 49 63 131q27 82 31 93t7 18q3 6 6 22t9 43 q-6 0 -14 8q-12 4 -30 12q-18 7 -34 13q-14 6 -34 24l-4 2q-43 47 -12.5 93.5t65.5 58.5q16 10 35 12h10q37 8 39 8h10q6 36 6 72zM453 524l14 94v7h-12q-73 -6 -86 -39q-4 -16 12 -30q17 -14 37 -18q20 -5 28 -12zM530 522q58 0 78 10l-12 27q-27 35 -45 42t-21 9 q-6 -32 -8 -52t-6 -36h14z" glyph-name="R" horiz-adv-x="1290" unicode="R"/><glyph d="M561 1210h-24q-5 -2 -13 -3l-63 -13q-27 -12 -48.5 -32.5t-31.5 -26.5q-27 -31 -32 -47t-11 -37t-9 -28t-5 -32.5t-7 -29.5v-23q1 -42 9 -60t11 -26t10 -18t13 -26t41 -63l11 -10q2 0 9 -9t17.5 -17.5t17.5 -13.5t29.5 -26t56.5 -49t74 -81q39 -53 48 -82q37 -78 34 -127 q2 -27 -8 -76t-14 -58t-24 -39t-36 -47t-55 -42t-53 -37q-18 -10 -68 -23q-120 -20 -226 21t-155 118q-14 16 -23 39t-18 31q0 16 -12 41q-8 45 -2 102v2q12 53 17 69t26 49t51 57q20 12 43 20l41 10q30 11 52 11t75 -16t76 -75q12 -41 6 -75q-2 -2 -8 -17.5t-6 -20.5 t-33 -38q-31 -23 -48 -23t-54 17q-12 10 -8 24q8 34 38 19q26 -5 48 21t15 57t-20 38q-29 29 -61 29h-23q-12 0 -18 2q-86 -14 -125 -92q-16 -29 -29 -104v-2q-8 -36 37 -121q16 -27 72 -78q55 -39 70 -45q45 -14 120 -21q82 10 129 31q12 10 35 25.5t35 25.5q41 45 48 54 t20 40q14 78 8 127q-13 66 -25 82t-17 24.5t-9 12.5q-8 23 -23 37q-35 43 -61 64q-6 8 -40 32.5t-47 37.5q-14 14 -18 17t-13 12t-14.5 15t-21.5 22t-27 40q-12 24 -18 30q-2 8 -10 19q-16 45 -23 59q-12 57 -10 83t4 56t12 44q0 14 10 30t26 64t67 73q39 34 95 46t78 11 q21 -1 54 -5q31 -10 34 -11.5t13.5 -3.5t32.5 -16q54 -13 86 -64q54 -84 47 -141v-6q-4 -53 -16 -96q-23 -45 -33 -58q-25 -18 -28 -19t-10 -8t-41 -19q-34 -11 -54 -9t-33.5 5t-19.5 3q-29 6 -52 47q-35 55 17 127q8 9 25 9q16 0 32 -12t-10 -40q-2 -4 -12 -28 q-4 -25 7 -36q37 -37 109 11q42 23 47 50.5t7 29.5l6 49q0 23 -14 62q-14 38 -44 68q-31 30 -120 48q-4 2 -17 2z" glyph-name="S" horiz-adv-x="819" unicode="S"/><glyph d="M12 218q0 16 -2 46q-2 31 4 73q6 43 32 105t85 103q80 51 158 39q69 -6 101 -39t37 -55t-3 -62v-2q-14 -35 -28 -47t-15 -14l-41 -23h-8q-25 0 -31 16l-8 17v4q2 12 18 20q0 2 4 2t7 4q4 5 12 9t19 20q28 40 -1 58q-25 26 -77 30t-113 -37q-15 -15 -21 -24 q-59 -68 -61 -127l-2 -12v-84q10 -57 16 -78t31 -45q74 -70 178 -70q43 0 55 6q74 0 158 68q37 31 73 115t36 139q4 17 8 49t10 76q19 88 23 98q14 39 14 68l18 92q2 10 6.5 31.5t4.5 31.5l30 119q11 72 25 102t22 60q-4 2 -18 2h-37q-112 15 -173.5 37t-101.5 31.5 t-49 10.5t-16 7q-10 2 -45 10q-10 6 -36 8t-34 4h-16q-39 0 -80 -20q-51 -16 -82 -60q-41 -47 -41 -105t41 -93q49 -49 121 -49h4q45 0 85 18t55.5 49t3.5 66q-4 14 -25 14h-4q-8 0 -23 -6h-6l-2 -2q-16 2 -26 20q-8 18 8 29q12 20 51 21q102 0 88 -136q0 -12 -10 -28v-2 q-2 -4 -2 -6q-14 -40 -36 -52t-25 -15t-14 -8t-15 -7h-2q-16 -2 -20 -4t-30 -7l-8 -4q-45 -4 -51 -4h-4l-37 4q-61 20 -96 56q-80 47 -80 155q0 35 12 72q18 35 22 40t7 17q16 27 29 33q88 74 190 74q61 0 181.5 -34t133.5 -40q67 -18 81 -18t53 -7t81 -6h19q6 12 9 31 q12 77 99 133q45 29 111 14q41 -6 57 -51q6 -27 6 -50q-1 -23 -23 -53t-71 -52q-84 -31 -133 -33h-12q-2 -6 -9.5 -39t-19.5 -57l-2 -9l-12 -36q-8 -55 -33 -142l-31 -141l-41 -219q0 -10 -4 -31l-2 -22q-4 -51 -16 -92t-16 -62q-20 -58 -24 -72t-13 -26q-8 -12 -16.5 -23.5 t-10.5 -16.5t-23 -31t-41 -35t-72 -39.5t-114 -28.5h-14l-14 2q-88 0 -129 22t-48 23q-6 4 -26.5 15.5t-32.5 21.5q-11 15 -23 27.5t-26 32.5q-13 20 -19 48t-6 44zM1004 1292q-16 0 -21 -4h-4q-60 -13 -91 -77q-16 -33 -16 -35t2 -5l11 3q49 2 112 43l9 2q8 6 18 20 q10 23 2 33q-6 20 -22 20z" glyph-name="T" horiz-adv-x="868" unicode="T"/><glyph d="M975 1004l2 26q2 16 -2 37t-3 26q1 6 -6 28q-7 23 -20 24l-2 2q-19 0 -47 -68q-8 -20 -14 -59l-19 -92q-3 -30 -17 -105q-42 -215 -26 -313q31 56 37 86q40 102 57 156q3 20 9 36t14 45t14 44v2q4 16 4 26q16 53 19 84v15zM827 362v-8q-3 -30 11 -80q14 -74 41 -108 q20 -32 59 -54t83 -6q104 36 163 166q16 31 34 24t19 -20q0 -6 -2 -14l-12 -24q-47 -80 -69 -108q-60 -76 -140 -93q-14 -4 -64 -4q-71 16 -112 69q-39 55 -62 146q-4 8 -4 12t-2 8v4q-8 -10 -46 -54q-91 -108 -149 -134q-9 -9 -57 -31l-24 -12q-42 -23 -99 -23t-127 39 q-23 16 -39 41q-39 36 -48 86t-9 101t9 125t25 130q16 58 20 86t8 40t6 20l6 31q8 30 29 105q22 74 32 138t6 102t-38 77.5t-134 27.5q-8 -4 -20.5 -7t-16.5 -6q-7 -5 -15.5 -8t-12.5 -7q-43 -20 -64 -54q-14 -14 -27 -52q-13 -39 -11 -75t44 -73q18 -16 58 -11q31 14 30 44 v2h-2q-4 0 -10 -2h-2q-25 -6 -35 11q-11 17 9 38q31 34 86 8q14 -12 18 -27v-2q12 -35 -18 -92q-29 -33 -60 -35q-66 -12 -117 19q-61 43 -67 123q-12 109 74 190q23 20 55 43q37 18 72 23q14 8 24 8l49 4h27q4 -2 13 -2t38 -8t49 -29q24 -19 41 -45q31 -37 31 -96v-31 q0 -67 -47 -234q-4 -23 -17 -67l-6 -37q-4 -10 -11 -39t-11 -43l-6 -29q-2 -6 -31 -157q-18 -150 4 -224q12 -33 34 -51t68 -35q57 -14 129 21q102 50 161 120q59 71 68 88q10 17 26 40t16 43v6q0 31 -4 45q2 23 0 53t-1 41q1 12 -1 23v39q6 37 6 63t8 61v7q8 53 8 54l4 32 v8q2 6 6 25.5t7 27.5l20 105q18 86 33 118q26 62 68 84t75 -6q51 -39 51 -104q8 -53 4 -99q-14 -98 -38 -163q-2 -18 -7 -29l-16 -55q0 -24 -16 -48q0 -4 -4 -14t-13 -33q-2 -14 -12 -28q-18 -64 -30 -87q-13 -22 -16 -30t-6 -15.5t-6.5 -12.5t-6.5 -9t-9 -22q-6 -9 -10 -19 t-7 -14t-5 -14t-8 -16t-5 -26z" glyph-name="U" horiz-adv-x="1177" unicode="U"/><glyph d="M285 221v8l-4 35l10 129l8 56q0 52 10 100q14 123 19 141l4 29l2 37l4 47v43l4 69q0 127 -44 207t-142 80q-57 0 -124 -33.5t-67 -72.5q-49 -97 -5 -153t88 -56t50 45q0 8 -8 10h-8l-23 12q-13 19 4 34.5t29 15.5l21 -7q45 -6 45 -67q0 -37 -27 -72t-87 -35t-114.5 56.5 t-54.5 152.5t74 158h-2q12 4 14 10q41 35 102 47l27 4q31 6 73 6t103 -24h4q63 -32 93 -89t36 -110l4 -37q2 -20 3 -63v-21q0 -49 -19 -243l-6 -33q-4 -35 -13.5 -106.5t-11.5 -108.5l-10 -92l2 -23v-39q0 -197 86 -196q28 0 62 30t50.5 46t32 37.5t24.5 33.5t24.5 40 t21.5 36t22.5 42t18.5 39t20.5 44t18.5 41l12 26q2 8 18.5 39t20.5 47l25 66q14 27 29.5 76t29.5 76l15 36l-33 45q-41 55 -37 138q0 96 55 139q27 20 63 20t58.5 -33.5t24.5 -75.5t-14 -74t-21.5 -68.5t-11.5 -49.5l18 -2q10 0 20 6h-2q33 18 52 39l14 19q12 12 21 12 t21.5 -10t12.5 -28t-22 -40q-66 -66 -115 -65q-10 0 -18 2h-29q-4 -8 -11 -29t-24 -67q-6 -8 -17 -44t-26 -65v2q-2 -4 -10 -24t-12 -29l-31 -72q-16 -37 -23 -47l-18 -39q-6 -10 -12 -27v2l-11 -22q-29 -66 -96 -168l-16 -25v3q-25 -44 -56 -66q0 -2 -69.5 -72.5t-144 15.5 t-74.5 194zM924 1098q-8 0 -13 -4h2q-25 -13 -39 -66q-2 -6 -2 -26t2 -31v-21q2 -31 29 -57l15 53q16 59 20 96v11l2 20q0 25 -16 25z" glyph-name="V" horiz-adv-x="962" unicode="V"/><glyph d="M1032 -39q-29 0 -35 4l-39 8q-14 2 -37.5 18.5t-31.5 28.5v-2q-6 12 -15 21l-20 37q-23 43 -33 215v16q-2 16 -2 53t2 60v24l17 170l6 48h-4v-3q0 -2 -1 -4t-2 -5t-3.5 -8t-4.5 -10t-4 -14.5t-6 -19.5l-43 -102l-16 -41q-2 -1 -9 -19t-8 -24l-47 -88q-12 -37 -61 -125 q-43 -86 -72 -107l-12 -12q-74 -94 -172 -94h-6q-35 0 -65 32t-46 82l-6 21q-8 27 -8 63v19q-4 41 -4 83t6 74v39l6 56q15 130 37 329l6 50q8 82 12 167q0 172 -131 173q-63 0 -96 -27l-18 -10q-39 -27 -68 -79t-29 -106t22.5 -86t49.5 -32t48.5 15t27.5 34v20q-4 4 -20.5 4 t-26 11.5t-9.5 24.5t21 23t29 11q8 0 12 -2h12q45 -25 45 -81t-49 -99l-6 -7h2q-53 -14 -85 -14t-65 17h3l-39 28q-45 57 -45 144q0 18 6 32q47 207 243 238l13 2l20 2h17q92 0 138 -69.5t46 -147.5l-6 -92v-37l-4 -39q0 -10 -5.5 -43.5t-7.5 -60.5l-22 -193l-6 -29l-6 -63 l-13 -182v-33q0 -123 29 -163t48 -40t36 8l20 13q104 88 174 241q6 12 13.5 26.5t9.5 20.5l70 166q0 12 26 66l13 22q14 29 43 115l8 20q4 16 35 91l14 49l10 45q6 8 7 18t7 28q7 17 15 56t16.5 52.5t26.5 13.5t30.5 -13.5t12.5 -32t-12 -61.5q-36 -177 -42 -220.5 t-10 -59.5l-14 -121q-14 -82 -14 -186t6 -136l4 -43l2 -16v-10q12 -170 141 -170q37 0 73 24.5t49 41.5t53 73t77 146t40 106t7 20l19 51q2 18 22 66l23 68q25 57 33 106q7 23 21.5 63t14.5 54t-18 24q-51 20 -88 70t-37 110t37 117.5t104 57.5q109 0 109 -154q0 -33 -2 -51 v-14l-17 -74q4 0 9 2h4l16 8l23 10q33 29 43 39l14 17q29 28 39 28t18.5 -14t8.5 -24t-11.5 -29t-49.5 -49t-91 -48q-6 -4 -18 -8q-24 -8 -27.5 -13.5t-3.5 -16.5l-6 -35q-2 -6 -10.5 -41t-16.5 -53l-6 -27l-47 -137q-2 -18 -16.5 -46t-14.5 -38l-20 -51l-58 -160 q-5 -14 -12.5 -25.5t-7.5 -13.5l-43 -78l-36 -42q-36 -42 -68.5 -76.5t-116.5 -49.5h-17zM1511 1079q0 88 -47 88h-8q-33 -6 -50 -39.5t-17 -74.5t28.5 -82t69.5 -41q8 31 18 86l4 26q2 12 2 37z" glyph-name="W" horiz-adv-x="1566" unicode="W"/><glyph d="M139 2q-25 0 -57 16q-44 27 -64 58t-20 80v39q10 25 28 25t21 -3q20 -6 14 -53q0 -53 33 -74l12 -8l17 -8q93 -44 216 79q29 29 38 42q52 39 190 231q47 54 73 108t36 68q0 2 -2 7.5t-8 33.5l-11 39l-8 33q-16 68 -69 200q-12 39 -28 63t-41 70.5t-77 98.5q-23 18 -72 31 l-43 6q-111 12 -196 -56q-33 -27 -62 -86v-2l-16 -36v-3q-10 -35 -6 -69l4 -21q4 -16 8 -26q10 -43 72 -68q6 -6 37 -10l30 -8q27 0 70 26q29 23 42 54t5 55q-14 16 -48 18t-44 12t-6 31q20 39 72 29q96 -15 96 -127q0 -14 -27 -74q-29 -41 -57.5 -61.5t-79.5 -26.5 q-37 0 -61 6l-23 7q-20 2 -45 16h-2q-23 6 -64 43q-37 43 -43 96t-3 79t22 73l8 22q14 41 64 91t88 63l16 8l18 4q68 23 127 10l54 -8q59 -18 92 -35l2 -2q14 -7 52 -39t58 -73l27 -39l18 -43q4 -8 17 -29l37 -94q2 -2 12 -34t18 -52t17 -60l10 -30q4 -16 8 -25 q8 14 25.5 34t60.5 107l8 9q27 45 82 112l15 17q84 104 95 113l97 81l8 11l76 55q30 10 44 10t24 -11q12 -11 12 -27.5t-5 -19.5q-21 -12 -43 -22t-38 -20q-76 -59 -93 -79t-21 -24l-22 -23q-20 -20 -22 -20l-51 -61l-2 -2q-5 -10 -12 -15q-9 -13 -21 -27t-16 -21t-33 -47 t-49 -76t-53 -78l-31 -50q-4 -6 -7 -10t-5 -8v-2l22 -82q28 -118 52 -164t46 -96q22 -48 29 -58q8 -10 21 -26l18 -23l55 -51q33 -25 68 -24h10q55 0 89 18q91 48 159 180q19 34 37 25q16 -5 16 -17t-4 -20l-18 -35q-55 -96 -98 -139l-15 -14q-4 -6 -20 -21h-2 q-9 -9 -39 -26q-47 -20 -86 -21h-15q-46 2 -61 10h-4l-2 2q-27 6 -37 17l-18 12q-41 33 -54 43q-25 27 -65 94l-15 23l-45 86l-39 96l-16 51l-20 72q-9 -14 -15 -26t-65 -101l-70 -88l-37 -43q-79 -101 -102 -118t-27 -23q-25 -16 -37 -31l-37 -31q-4 -4 -11 -7t-14 -9 t-44 -21t-92 -8h-17z" glyph-name="X" horiz-adv-x="1320" unicode="X"/><glyph d="M909 1120q0 2 -5 8.5t-13 6.5q-9 0 -23 -20t-20 -48q-29 -74 -51 -184l-2 -6q0 -7 -9 -43q-10 -72 -22 -162v-10l-2 -7v-13t-6 -21q6 6 6 14l2 2q0 5 12 25t60 153q31 73 42 129t19 74q0 18 12 72v30zM213 -392q0 -1 -1 -10t5 -34q3 -41 51 -53q31 -4 67 14t64 63l31 52 q6 14 15.5 37.5t16.5 37.5q7 15 11 27t5 18l30 90q12 38 12 50q-6 -2 -16 -7.5t-25 -10t-28 -13.5q-32 -10 -76 -39q-45 -29 -77 -61.5t-38 -47.5q-16 -21 -26 -39l-21 -59v-15zM356 156q-53 0 -112 37q-35 35 -47 57q-29 41 -33 129v6q-4 127 22 258l2 49q9 63 9 101 q8 39 12 147v94q-10 109 -94 109h-17q-70 -8 -120 -60.5t-64 -111.5q0 -8 -4 -25l-8 -16q-7 -106 45 -115l26 -6q31 -5 54 19t30 14q23 -18 15 -35q-4 -31 -30 -46.5t-64 -15.5t-81 26q-87 52 -38 222q21 85 78 136t118 69q12 6 61 6t79 -24q68 -41 73 -129v-123 q-2 -23 -2 -56q-10 -50 -10 -129q-8 -71 -21 -157t-14 -154v-12q-4 -66 5 -104t67 -78q27 -23 61 -23h25q49 10 107 45t69 48q12 13 17.5 19.5t7.5 8.5t4 6t5 7t68 97q3 6 15 62t13 79q1 22 9 46q4 25 4 39q26 127 30 153q4 25 10 51t20 105.5t78 202.5q25 25 59 24h14 q12 -6 33 -18q33 -33 27 -117v-4l-8 -59l-13 -41q-2 -4 -6.5 -23.5t-11.5 -41.5q-6 -22 -15 -56q-9 -35 -52 -132t-48 -102v-4l-12 -24q-16 -29 -35 -68q-23 -37 -47 -84v-2l-8 -14q-3 -24 -14 -70q-11 -48 -24 -104t-24 -94l-30 -130l-5 -24q27 8 74 31l31 18q18 10 78 50 t95.5 82t42.5 50q7 9 21 33t21 32.5t27 0.5q19 -8 6 -35l-19 -35q-23 -39 -63 -85t-58 -58q-37 -33 -75 -55l-76 -43q-12 -6 -31.5 -16.5t-40.5 -18.5l-24 -10q-19 -4 -22.5 -17.5t-12.5 -40.5l-12 -41q-18 -43 -29 -78l-10 -34q-1 -6 -13 -31t-16 -37l-10 -18l-11 -27 q-35 -70 -96 -122t-125 -40q-24 4 -30 7t-22.5 11.5t-29.5 26.5q-47 51 -28 137q30 108 85.5 161.5t135.5 96.5l35 17q22 14 86 43l20 8q27 14 33 43l65 252l7 43q-2 -2 -12 -14.5t-61 -50t-63 -42.5q-53 -35 -129 -34h-4z" glyph-name="Y" horiz-adv-x="956" unicode="Y"/><glyph d="M858 600l-172 10l-4 -6q-18 -45 -43 -80q-8 -16 -30.5 -54t-26.5 -50q-34 -53 -33 -58q-10 -12 -27.5 -40t-33.5 -54t-48 -56t-32 -34t18 -10t47 -29q35 -20 46 -25t26 -18q93 -56 190 -67q90 -5 117 9.5t43 17.5t53 40t71.5 81.5t51.5 75.5q16 31 24.5 39.5t28.5 -0.5 t4 -34q0 -3 -32 -67t-90 -123l-17 -17q-94 -94 -246 -94q-15 0 -41 3q-66 8 -235 99l-51 31q-68 37 -70 39q-86 -69 -186 -66q-57 0 -99 48q-29 29 -17 81t64 68q50 14 114 1t116 -48l61 59q45 45 99 136l26 42q25 42 43.5 74.5t26.5 46.5l20 37q-31 0 -63 -4h-49l-43 -2 q-10 0 -23 8q-8 8 -6 22t9 19q7 4 44 4h35q47 0 74 2l51 2q16 33 27 50l67 137q14 27 34 69.5t32 65.5l16 29l17 39q-26 6 -34 8q-70 16 -175 68.5t-199 76.5q-122 22 -180 -12q-59 -35 -72 -96q-6 -47 39 -70q59 -23 98 4l23 21q25 29 51 4q12 -16 8 -27q2 -8 -10 -32 q-20 -39 -76 -46q-5 -6 -31 -6q-86 0 -118 33q-10 4 -25 24q-14 12 -25 52q-11 41 11 95t67 81q78 47 162 45q76 0 158 -33l219 -88q74 -24 127 -31q18 0 25 15q60 123 147 135q23 4 41 0q43 -2 72 -34q55 -61 10 -120q-25 -39 -71 -55t-140 -17h-27q-6 -12 -21.5 -41.5 t-19.5 -41.5q-25 -43 -26 -50l-43 -81q-43 -82 -60 -113l-28 -58h3l5 1l31 2l45 -2q45 -1 51 -3l22 -2q27 0 15 -43q-4 -12 -23 -12h-4zM150 205q-45 0 -48 -33q-10 -27 26 -38t73 -10t82 40q2 2 2 4q-37 37 -135 37zM1046 1208q-14 0 -36 -12q-12 -12 -30 -36t-28 -34 l-6 -12q2 -2 44 0q89 4 108 39q4 10 0 25.5t-12 19.5t-12.5 6t-9 3t-18.5 1z" glyph-name="Z" horiz-adv-x="1073" unicode="Z"/><glyph d="M618 1403q45 0 50 -39q2 -10 -13 -21l-23 -2q-24 -2 -36 -6h-29l-51 -2q-25 -2 -74 -2q-22 -4 -60 -4t-56 -10q-6 -167 -10 -187t-7 -80q-4 -60 -8 -77l-16 -168q-4 -41 -4 -96q-4 -41 -5 -64l-2 -33q0 -92 -12 -186l-4 -53q-4 -70 -8 -99l-8 -79v-2l-6 -76 q-4 -29 -9 -64l-4 -57q-6 -74 -6 -88l-6 -60q-4 -16 -4 -20l-12 -125l-7 -88q-4 -14 -5 -46t-3 -41t-2 -34h31q57 -4 121 -4t90 3t47 -1q23 -10 27 -41q-2 -8 -25 -24q-25 -4 -39 -7h-188q-66 4 -78 -2h-4q-49 0 -60 37q-4 18 4 66q15 90 15 190l6 60q12 141 16 201t11 120 l2 29l8 72l8 61q12 90 16 143l15 226v51l4 35q0 10 4 34q-1 101 21 251q22 149 28 282v20l2 39l2 4v9q6 33 41 38l74 5q49 4 65 4l123 4q33 4 53 4z" glyph-name="bracketleft" horiz-adv-x="593" unicode="["/><glyph d="M502 -145q0 -23 -19 -27l2 2q-4 -4 -15 -4t-19 14l-11 23q0 2 -6 12l-92 295q-2 8 -26.5 90t-36.5 125l2 -2l-13 35q-18 49 -45 145l-10 37q-12 29 -44 139.5t-37 132.5t-38 132l-24 83q-10 43 -31 99l-25 84l-10 53l-2 12q0 20 14 27q43 0 43 -29l9 -22q2 -6 57 -205 l61 -217q88 -319 103 -354l53 -162q8 -31 66 -217l57 -181v2l27 -86l-3 3l11 -29q2 -4 2 -10z" glyph-name="backslash" horiz-adv-x="512" unicode="\"/><glyph d="M174 1401h266l4 2q73 0 60 -79l-9 -54q-8 -47 -8 -160l-6 -59q-12 -141 -14 -176t-14 -146l-2 -29l-17 -133q-12 -90 -16 -143l-15 -225v-52l-4 -34q0 -10 -4 -35q0 -27 -2 -41l-2 -45q-10 -127 -25 -231q-15 -103 -20 -216v-20l-2 -39v-6q-2 -4 -2 -6q-6 -33 -41 -39 l-74 -4q-49 -4 -65 -4l-123 -5q-33 -4 -53 -4q-45 0 -49 39q-2 10 12 21l23 2q24 2 36 6h29l51 2q25 2 74 2q23 4 61 4t56 10q4 106 8 170q6 38 10 98t8 76l2 27q0 13 7 63t5 78q9 92 9 160l2 33q0 90 12 186l4 54q4 70 8 98l8 80v2l7 76q4 29 8 63l6 57q6 74 6 88l6 60 q4 16 4 21l13 124l4 88q4 14 5 46t3 41t2 34h-31q-57 4 -121 4t-90 -3t-47 1q-23 10 -26 41q2 8 24 25q25 4 39 6z" glyph-name="bracketright" horiz-adv-x="593" unicode="]"/><glyph d="M438 569l-11 15q-11 16 -17 22l-45 -61q-33 -41 -48 -60l-65 -92v2l-35 -49q-14 -14 -20 -27l-15 -20q-16 -20 -30 -12h2q-10 2 -13.5 15t0.5 22l11 24l20 25q6 12 14 18h-2l39 53v-2q18 29 29 39q14 21 47 69t49 65t27 32l12 10q35 29 57 -8l95 -145q64 -99 86 -121h-2 l20 -23l23 -38q12 -18 -10 -32t-31 5q-6 6 -7 10q-10 10 -12 17l-22 32v-2q-33 41 -111 158l-37 61zM602 408l-4 4z" glyph-name="asciicircum" horiz-adv-x="819" unicode="^"/><glyph d="M82 -16q0 12 13.5 29.5t27.5 17.5l41 -4l37 2l43 -2l84 4l123 -4l38 4l240 -4l174 2q16 0 17 -21q2 -10 -10.5 -22.5t-26.5 -14.5l-43 -2l-207 4l-39 -4l-43 4h-209l-78 -4l-168 2q-14 1 -14 13z" glyph-name="underscore" horiz-adv-x="1024" unicode="_"/><glyph d="M70 674l-70 168l-2 6q0 4 9 18q11 17 26 10t22 -22q43 -132 49 -154t2 -28q-22 -17 -36 2z" glyph-name="grave" unicode="`"/><glyph d="M414 522q0 -41 -37 -41q-16 0 -22.5 7.5t-10.5 29.5q-6 35 -43 35t-78 -23q-9 0 -43 -32t-41 -52l-12 -16l-10 -20q-52 -107 -54 -205q0 -67 38 -111t99 -32q62 11 132 126l6 9l2 6q23 39 52.5 134t29.5 97l14 64q6 18 6 39q4 25 25 24q16 0 25 -6q18 -5 18 -19t-4 -29 t-11.5 -36.5t-9.5 -34.5q-6 -10 -10 -41q-6 -18 -15.5 -48.5t-23.5 -72.5t-14 -104q0 -98 63 -98h13q27 2 46 13t62 54q57 73 90 133q16 31 37 23t15 -33l-13 -24q-33 -56 -65 -100t-37 -48l-21 -20q-59 -63 -133 -64q-11 0 -41 10t-43 33q-28 57 -26 94l-19 -32 q-14 -25 -55.5 -68t-118.5 -43q-36 0 -98 36t-72 109t-4 117q2 47 42 145t116 158q54 39 139 51l8 -2q62 0 92 -51q10 -10 15 -39v-2z" glyph-name="a" horiz-adv-x="690" unicode="a"/><glyph d="M440 1104v18q0 50 -22 52l-2 -3h-4q-35 -16 -54 -49q-55 -86 -79 -166l-9 -20l-6 -27l-33 -102q-12 -29 -15 -43t-6 -22t-3 -15q16 8 24 14l31 23q27 20 31 27l26 30q8 8 33 47l27 43q38 74 43 103l8 26q10 29 10 64zM442 537q50 0 62 -105v-24q4 -47 8 -78l6 -33 q19 -65 90 -68q45 0 70 33l14 25q8 10 17 10q26 -1 26 -23t-30 -57q-39 -39 -87 -39t-73 12l-27 17q-16 14 -22 22q-6 -45 -17 -67q-6 -20 -37 -74q-23 -33 -67.5 -60.5t-91.5 -27.5h-11q-82 2 -122 64t-48 128t-8 123l2 68v8q0 5 4 29l2 47l7 29l8 55l2 35l6 43q4 12 4 22 q-87 0 -118 40t-35 44t-19 47l-10 29q-10 27 -10 69t11 51t17 9l4 -2h6q17 0 17 -20v-13l-4 -24q0 -25 2 -39v-6q0 -40 44 -83t97 -42l8 -2l6 14q2 14 23 86l6 20q16 66 53 161t72 151q23 43 68 74t86 4q25 -10 39 -39q8 -25 8 -57t-13 -85q-21 -87 -67 -155l-31 -54 l-31 -41q-8 -12 -36 -42t-62 -52l-35 -20l-22 -10q-4 -2 -10 -2l-3 -23q0 -27 -12 -51q-4 -16 -8 -53v-25l-4 -53q-8 -80 -8 -164v-12q0 -167 63 -205q15 -12 45 -13q100 4 140 80q41 88 40 195v20q0 29 -8 78q-9 33 -20 53q-10 19 -10 26t12 14t18 8h4z" glyph-name="b" horiz-adv-x="675" unicode="b"/><glyph d="M399 512q0 -104 -39 -104h-6q-23 0 -37 24q-8 8 4 32t11 54q-4 47 -58 37q-55 -15 -75 -35q-23 -16 -33 -31q-41 -45 -47 -65l-8 -8q-3 -8 -5 -13t-9 -21t-25 -95q-8 -55 0 -99q0 -37 14 -57q39 -86 117 -79q77 7 113 23t74 56t52 68q28 35 44 69t38 26q22 -7 13 -34 l-13 -24q-25 -47 -61 -91q-37 -61 -62 -75q-47 -49 -110 -68q-31 -12 -79 -12t-103 22q-79 39 -95 112t-15 119q1 45 23 121t58 125v3q39 49 49 61q63 52 137 63q80 0 117 -49q18 -18 18 -37v-6q-2 -4 -2 -12z" glyph-name="c" horiz-adv-x="481" unicode="c"/><glyph d="M481 109q0 -41 72 -41q53 0 112.5 76.5t80.5 114.5q20 38 32 38q25 0 27 -21q0 -10 -4 -18l-19 -35q-67 -110 -102 -145l-21 -21q-54 -57 -106 -57q-47 5 -63.5 17t-36.5 44q-14 31 -23 64l-4 35q0 6 -2 10q-2 0 -8 -10q-78 -160 -207 -160q-55 0 -103 23 q-86 45 -100 124q-6 33 -6 65t4 48q2 63 35 130q33 68 63 102t58 54t30 19q57 35 148 49h35q46 -6 73 -24q4 47 17 125l6 30l20 154q16 118 39 174q47 106 107 107q16 0 29 -6q49 -23 53 -97q-2 -88 -29 -211l-2 -4q-25 -104 -47 -155t-32 -81.5t-15 -43.5l-7 -18 q-7 -17 -13 -31.5t-20 -44.5t-32 -89l-8 -20q-31 -57 -31 -113v-157zM430 377v16q0 45 6 88q-18 2 -22 33q-10 39 -64 39q-92 0 -147 -55q-6 -6 -26.5 -21t-34.5 -33t-13 -22l-10 -12q-8 -12 -45 -109q-10 -31 -10 -85t12 -77q8 -27 20 -41q44 -41 90 -41t60 4 q94 29 155 213q29 94 29 103zM653 1051q0 53 -16 55h-6q-18 0 -27 -27q-2 -4 -24 -71q-35 -134 -44 -205q-13 -109 -18 -141l-8 -60q-8 -59 -6 -65q2 4 6 15t40 107t87 269q16 70 16 123z" glyph-name="d" horiz-adv-x="745" unicode="d"/><glyph d="M82 233q0 -120 61 -157q22 -22 53 -23q31 -2 61 -2t85 23t91.5 71.5t52.5 70.5t32 63q12 23 34 15t13 -34l-12 -24q-25 -47 -61 -91q-27 -45 -60 -71q-40 -44 -119 -72q-16 -8 -56 -8t-56 2q-70 8 -121 55q-61 74 -62 191v4q-23 8 -49 35q-29 18 -47 63q-54 135 2 135 q4 2 10 -2h3q6 -2 10 -26l10 -62q13 -49 68 -86l4 16q0 11 6 23q0 13 12 37q45 129 141 201q37 32 80 32h4l31 2q45 0 80 -30q23 -27 23 -68t-7 -57q-55 -136 -194 -205q-61 -20 -94 -21h-29zM308 561q-14 0 -25 -4q-63 -27 -111 -86q-16 -13 -51 -78q-14 -35 -15 -43 l-8 -22l-10 -41l25 -2q14 0 39 4q57 20 112 69q86 76 78 168q-2 12 -11 23.5t-23 11.5z" glyph-name="e" horiz-adv-x="509" unicode="e"/><glyph d="M158 -537q10 0 59 37.5t49 253.5q0 141 -66.5 237t-66.5 108q0 11 14.5 22.5t24.5 11.5t34.5 -15.5t68.5 -15.5t98 45q27 27 39 43l14 19q8 12 20.5 34.5t16.5 28.5q17 31 35 24t18 -20q0 -6 -2 -14l-47 -80q-56 -87 -108 -117t-111 -26q84 -123 84 -320l-6 -104 q-12 -96 -64.5 -156.5t-109.5 -60.5l-17 2q-63 23 -82.5 86t-19.5 184l4 137l2 27v2q-2 10 -2 27t4 53l2 43v4q10 156 35 334l12 72l8 53l4 29l9 34q2 6 7 53t9 70q-12 -2 -37 -2q-26 0 -56 6t-46 16t-25.5 18.5t-17.5 19t-13 14.5q-45 49 -45 141q0 43 35 43q16 0 17 -33 v-4q0 -25 1 -43t15 -39q12 -25 37 -51q41 -32 83 -32t64 8l2 22l29 156l20 86l15 55q47 225 162 225q29 0 58 -40.5t12 -140.5q-17 -101 -66 -189l-31 -53q-52 -89 -123 -140l-20 -14l-7 -55l-8 -35l-4 -43l-14 -82q-16 -117 -25 -160l-12 -90q-6 -47 -14 -141l-13 -326 q0 -242 58 -242zM383 1071q0 39 -4 59q-7 18 -25 18q-23 1 -52.5 -63.5t-55.5 -189.5l-37 -180l17 13q16 13 20 20l26 32q4 6 31 47l25 45q28 58 39 103l8 26q8 31 8 70z" glyph-name="f" horiz-adv-x="456" unicode="f"/><glyph d="M70 -426q0 -106 73 -111q59 0 88 54q24 39 34.5 69.5t14.5 40.5t8.5 36t6.5 34l8 29q4 16 6 39.5t4 31.5l6 37q6 37 7 39v8l-2 2q-12 -12 -23 -16q-10 -4 -55.5 -35t-61.5 -50.5t-20 -23.5l-27 -26q-67 -83 -67 -158zM194 6q-101 0 -147 59q-47 59 -49 123t8 101 q15 108 109 215q29 33 63 55q23 10 47 21q116 35 162 -17q18 -18 10 -40.5t-26 -22.5q-19 0 -31 17q-26 35 -102 1q-2 0 -5 -2l-40 -27q-6 -6 -21 -18.5t-25 -28.5l-14 -16l-4 -8q-13 -16 -37 -75q-24 -61 -30 -109t6 -68q2 -23 22 -55q25 -25 43 -31q17 -6 53 -5t53 11 t41 23.5t54 72.5l6 8l25 70q6 16 15 56q17 78 27.5 118t12.5 55l6 43l2 23q0 2 6 33t29 30q16 0 22 -4q27 -12 21 -36l-23 -82q-4 -12 -5 -18l-9 -54q-16 -72 -23 -117t-13 -71q-17 -82 -17 -140v-4l-6 -37l-7 -49q37 20 80 64l45 43q6 4 18.5 20.5t18.5 20.5l33 39 q4 6 18 24q14 19 28 43q13 24 21.5 32.5t22.5 2.5q14 -5 14 -17t-4 -20l-18 -35q-33 -60 -96 -129l-49 -47q-61 -55 -82 -72l-33 -22q-19 -13 -21 -22t-3 -11l-5 -35l-6 -43q-8 -43 -14 -82l-4 -34l-17 -72l-6 -21l-6 -26q-66 -199 -186 -199q-58 0 -89 31q-71 55 -55.5 128 t22.5 91t10 28.5t15.5 28t14.5 20.5t18 21l16 19q33 41 82 75l31 23q6 4 29.5 22.5t48.5 34.5l18 13q25 18 27 49l22 135l-4 4q-24 -45 -70 -85t-94 -40z" glyph-name="g" horiz-adv-x="643" unicode="g"/><glyph d="M420 1076q0 19 -2 32q-6 35 -38 35t-49 -32t-36 -101q-33 -144 -40 -205.5t-9 -77.5q41 28 62 60t48 79l13 23q16 29 28 67l11 31l4 25q8 45 8 64zM109 0q-29 0 -29 26q0 14 2 35l14 82q4 27 11.5 80t13.5 94t6 45l2 15l4 24q12 49 17 91l10 86q4 29 8 47q-10 -2 -29 -2 h-14q-31 2 -55 10t-60 43q-20 14 -30 43l-15 24q-31 52 -28 91.5t28 39.5q4 2 10 -2h2q6 -2 11 -26l10 -62q8 -27 22 -39q42 -63 108 -63q32 0 50 6l23 162q3 32 17.5 95t20.5 97q5 34 25 78q37 84 107 84q112 -14 112 -104t-41 -182l-22 -54l-29 -53q-46 -82 -105 -124 q-24 -17 -34 -24.5t-16 -9.5l-7 -57q-2 -16 -11 -58t-12.5 -75t-10.5 -64l12 23q48 100 166 164q18 10 71 10q20 -4 29 -8q14 0 25 -8q43 -33 43 -119q3 -12 -5 -61t-14 -72t-10 -41l-14 -49l-23 -95q-12 -80 41 -80h12q18 2 56 19q29 17 79 81.5t70 108.5q17 31 35 24 t18 -20q0 -6 -2 -14l-12 -24q-38 -63 -72 -110t-38 -50l-21 -21q-27 -29 -64 -46t-61 -17t-33 4q-79 20 -73 100v4q4 66 20 119l12 45q4 12 15 66l8 45q6 31 6 61l-2 43q-8 33 -18.5 44.5t-28.5 11.5q-43 1 -95 -55t-78 -111t-48 -96t-39 -142v-2l-8 -61q0 -53 -10.5 -61.5 t-26.5 -8.5h-8z" glyph-name="h" horiz-adv-x="727" unicode="h"/><glyph d="M210 825q20 0 36 -12q14 -19 14 -37t-14 -36.5t-34 -18.5t-33 13.5t-13 29.5l2 22q2 7 12 27q10 12 30 12zM137 205v-4q0 -133 70 -133q53 0 112.5 76.5t80.5 114.5q20 38 32 38q25 0 27 -21q0 -10 -4 -18l-19 -35q-67 -110 -102 -145l-21 -21q-35 -37 -69 -51 q-23 -6 -55 -3t-52.5 15.5t-34.5 35.5q-14 22 -21 62t-7 62t4 41v10q0 68 16 95v2q0 4 -2 4t-18 -36q-29 -64 -45 -65q-31 0 -31 23q0 4 3 9t8 16t21 41t40 83q10 31 28 68q18 59 22 73t6.5 22t2.5 11v3l10 20q9 12 19 12t16 -4l25 -10q8 -6 8 -16l-21 -80q0 -2 -24.5 -107 t-24.5 -188z" glyph-name="i" horiz-adv-x="399" unicode="i"/><glyph d="M-180 -610q-107 32 -107 151v8q11 111 39.5 153t57.5 73q33 41 81 75l31 23q20 20 78 57l18 13q25 17 27 41t9 71t7 57t13 97l8 67q0 27 6 48q-29 -63 -39 -79q-10 -15 -20 -16q-31 0 -31 23q0 4 3 9t8 17t23 42t36 81l32 80q0 2 2.5 2t13.5 43t19 62t27 18h6 q43 -5 43 -50q0 -46 -14 -67v-2l-2 -4l-15 -61q-21 -73 -26 -125q-12 -53 -14 -79t-4 -32q-1 -4 -8 -55t-19 -125q37 20 79 64l45 43q6 4 18.5 20.5t18.5 20.5l33 39q27 35 46 69t32 35q25 0 27 -21q0 -10 -5 -18l-18 -35q-21 -37 -37 -56t-32 -41t-27 -32l-49 -47 q-61 -55 -82 -72l-33 -22q-19 -13 -21 -22t-2 -11l-6 -35l-6 -43q-3 -13 -14 -82l-8 -55l-29 -119q-52 -157 -152 -194l-2 -2q-12 -2 -31 -2t-30 2h-4zM-225 -446v-9q0 -96 69 -96q39 0 61.5 19.5t34.5 41t25 59.5t29 97t19 91t5 40l7 37q6 37 6 39v8q-2 2 -4 0l-48 -29 q-48 -30 -77 -65q-49 -45 -76 -86l-10 -12l-2 -8q-39 -57 -39 -127zM236 856q18 -18 11.5 -51.5t-46.5 -40.5q-13 0 -27 13t-14 36l4 16v2l6 17v2q13 20 33 20l24 -6q6 -2 9 -8z" glyph-name="j" horiz-adv-x="348" unicode="j"/><glyph d="M106 702q32 0 50 7l22 161q2 24 17.5 91t21.5 101q7 34 25 78q36 84 106 85q76 -9 105 -62q8 -23 8 -74t-41 -151l-23 -53l-28 -54q-27 -48 -62 -81q-26 -33 -57 -53.5t-37 -22.5l-6 -58q-2 -18 -11.5 -59t-10.5 -54t-13 -95l-8 -41v-5q4 4 9 12.5t7 10.5l56 82l38 50 q39 50 113 65h43q37 0 55 -15q66 -57 60 -104v-10q-2 -6 -2 -17q-23 -125 -80 -182q-17 -20 -31 -32t-15 -42q-1 -29 16 -60q31 -57 72 -57q40 1 59 13q42 27 86.5 84.5t66.5 100.5q23 42 41 35t18 -20q0 -6 -2 -14l-12 -24q-37 -63 -72 -110t-39 -50l-20 -21 q-49 -51 -115 -51q-30 0 -56 8t-54 43q-27 37 -31 51t-7 20.5t-5.5 10.5t-2.5 5l-6 24q-4 12 -17 9t-34 -3q-78 8 -88 59q-4 10 0 27q23 76 100 72q45 0 76 -41l10 -10q20 12 39 47l11 18q55 105 28.5 139.5t-63.5 34.5t-78.5 -30.5t-54.5 -61.5l-17 -20q-77 -110 -92 -144 q-2 -12 -10 -22q-31 -75 -37 -125v-4q-4 -29 -8 -45t-8 -50q-4 -18 -25 -18h-10q-18 6 -27 25v2q4 29 8 43l11 53q6 45 21 149t15 111l2 14l5 25q12 49 16 90l10 86q4 29 8 47q-10 -2 -28 -2h-15q-31 2 -55 10t-59 43q-20 14 -31 43l-14 25q-32 53 -29 92t29 39q4 2 10 -2h2 q6 -2 10 -27l10 -61q8 -27 23 -39q43 -64 108 -64zM397 1098q0 65 -43 65q-28 0 -45 -32q-18 -32 -37 -101q-31 -141 -49 -282q41 28 62 60q22 31 49 79l12 22q16 29 29 68l10 31l4 24q8 45 8 66zM320 285q-38 0 -49.5 -32t36.5 -34q13 -2 32 9t7 32q-10 25 -26 25z" glyph-name="k" horiz-adv-x="716" unicode="k"/><glyph d="M156 336v-51q0 -147 49 -199q16 -14 47 -14t43 8q33 22 78 80t73 112q16 25 27 25q25 0 27 -21q0 -6 -2 -14l-13 -24q-25 -50 -59 -91q-47 -66 -51 -69l-21 -21q-51 -55 -123 -55h-12q-45 10 -72.5 37.5t-42.5 97.5q-12 36 -12 107l-2 53q-2 12 -2 41v61l4 43l2 25 q5 58 7.5 71.5t4.5 31.5t3 24v6h-48l-12 2h-2q-2 2 -33 8t-67 49q-20 20 -29 46l-10 28q-14 41 -19 64v18q0 31 13 43t28 4l2 -2q4 -2 9 -29v-24q4 -51 22 -80q-1 -19 55 -57q22 -16 70 -15h25l2 17q0 26 16 106q9 70 23 117t14 52t16 63t31 92q16 35 55 82q34 24 52 24 t38 -8q57 -18 58 -119v-30q-7 -90 -27 -131q-21 -63 -47 -113l-25 -47q-39 -61 -77 -95q-38 -33 -41 -34l-23 -13q-4 -4 -8 -4l-6 -59l-4 -55l-2 -60v-4q-2 -31 -2 -100zM330 1151q-12 0 -27.5 -19.5t-23.5 -39.5q-45 -92 -60 -174l-4 -21q-9 -83 -17 -109q-18 -60 -18 -106 l19 16l28 27q2 4 23 25t56 98q34 76 42 113l17 98l-3 26q-4 66 -32 66z" glyph-name="l" horiz-adv-x="440" unicode="l"/><glyph d="M606 121q0 -32 27 -10q45 47 33 180q-60 -120 -60 -170zM281.5 451q-0.5 57 -37.5 57q-30 0 -46 -16t-35 -44t-32.5 -52t-20.5 -34t-47 -90q-16 -32 -34 -24q-19 8 -19 17t2 18l13 24q10 16 37.5 75t54.5 93l16 23q53 67 84 67q16 4 45 4t52 -22t28 -64v-37q17 21 59 68 q43 47 101 69q58 23 107 5q48 -18 66.5 -45t29.5 -76l2 -2q10 4 18 18q65 65 166 101q37 12 69 12t58 -14q55 -35 55 -123q0 -15 -7 -65t-14.5 -74.5t-11.5 -43.5l-22 -96l-4 -24q-14 -80 47 -80h12q18 2 55 18q66 40 142 178q16 31 34 24t19 -20q0 -6 -2 -14l-12 -24 q-33 -56 -66 -100t-37 -48l-20 -20q-27 -29 -78 -51t-82 -9q-45 14 -55 35q-20 41 -19 66v4q4 72 19 118l6 23q10 33 16 66l8 38q15 75 7 105q-8 29 -22 47t-61 12q-85 -11 -169 -100q-37 -37 -37 -64v-176q-2 -29 -12 -59q-16 -90 -89 -98h-12q-29 -1 -45 27q-49 85 73 302 q28 49 28 60q0 59 -35 94q-17 27 -65 27t-109 -64q-14 -10 -23 -23t-14 -18l-27 -37q-49 -63 -84 -192q-10 -31 -10 -47t-4 -25v-8q-2 -3 -2 -23t-4 -32v-27q4 -27 -19 -37l-12 -4l-10 -2h-4q-16 4 -23 14q-16 25 8 133l29 121l12 62q2 4 3 14t7 31t5.5 78z" glyph-name="m" horiz-adv-x="1263" unicode="m"/><glyph d="M567 594q105 0 115 -150q9 -35 -29 -168l-24 -100l-4 -24q-8 -80 51 -80h12q18 2 55 18q10 6 54 49q57 73 90 133q17 31 35 24t18 -20q0 -6 -2 -14l-12 -24q-33 -56 -66 -100t-37 -48l-20 -20q-27 -29 -78 -51t-82 -9q-47 14 -57 35q-20 41 -20 65t18 113l6 29 q0 2 6 29.5t8 40.5l6 38q21 97 -18 152q-12 14 -52 14t-91 -53q-14 -10 -23 -23t-14 -18l-25 -37q-49 -63 -76 -192q-8 -37 -9 -46l-7 -42q-4 -27 -7 -64t-10.5 -44t-23.5 -7h-8q-29 0 -29 30t4 54l39 182q6 18 6 29l2 33q9 37 15 75l4 89q0 33 -31 32q-52 0 -100 -78 q0 -2 -38 -66t-55 -108q-16 -32 -34 -24q-19 8 -19 17t2 18l11 24q12 20 49 96.5t74 116.5q37 39 55 51l20 11q16 4 45 4t56 -26t26 -68l-4 -43v-3q102 148 223 148z" glyph-name="n" horiz-adv-x="880" unicode="n"/><glyph d="M457 203q12 -4 45 -4t47 6t36 17t50 59q12 16 20 16q27 0 27 -25q0 -24 -47 -71l-21 -19q-51 -32 -118 -32h-29q-14 0 -29 6q-2 -6 -27 -42t-71 -71q-8 -9 -46 -27t-58 -18h-3l-24 2q-102 0 -166 96q-45 65 -45 166l2 37q0 23 6 41l6 22l13 41q16 56 35.5 82.5t33 48.5 t53.5 40q72 32 80 -9q6 -10 0 -17t-26 -18q-27 -8 -47 -32q-31 -27 -54 -70l-18 -43q-12 -35 -16 -104v-31q0 -108 88 -170q18 -12 58 -16t83 18l29 20q38 33 61 78l-16 13q-35 24 -52 55l-14 22q-29 38 -41 127q-6 31 -6 66l6 51q4 14 21 43q35 49 92 49q20 0 47 -13 t45 -40q21 -37 27 -61t6 -65q0 -42 -6 -85l-15 -72l-12 -37l-4 -14zM313 476q0 -34 6 -85l9 -35q7 -31 18 -53l12 -22l15 -21l12 -14q4 -2 10 -8.5t11 -10.5l12 35q22 73 22 128q0 56 -6 82t-24 50q-28 20 -41 21q-14 0 -33 -13q-23 -20 -23 -54z" glyph-name="o" horiz-adv-x="622" unicode="o"/><glyph d="M387 537h-29q-96 -27 -147 -160q-43 -106 -43 -152v-16q4 -53 -4 -109v-39q-4 -121 -10 -174l-4 -30l-15 -187q-2 -41 -14 -90q-4 -4 -4 -8v-4h-2v-4q-2 -4 -9 -39q-35 -102 -102 -117h-2q-10 0 -22 6q-47 23 -56 99q-2 94 17 211l2 4q10 55 55 176q2 12 27 92l22 72 q25 63 35 102l8 20q6 14 14.5 52.5t18.5 70.5q2 33 2 78q-12 -17 -38 -71t-38 -74t-33 -15q-18 8 -18 21q0 4 3 9t8 16t23 43t38 81l32 70q18 49 23 72v116q0 27 35 27t37 -22.5t1 -53t-3 -79t-2 -62.5q18 37 36 57q74 74 160 70q27 0 76 -16q104 -43 121 -174 q18 -63 4 -115l-6 -33q0 -8 -2 -20q-33 -131 -115 -187q-4 -4 -12 -8q100 0 180 80t108 149q17 29 35 23t19 -16q0 -12 -4 -21l-13 -25q-33 -55 -58 -91t-76 -77q-52 -41 -95 -52q-127 -33 -217 -1l-27 11q-33 12 -41 21t-11.5 11.5t-14.5 17.5q-12 15 -12 39t20 23 q10 0 20 -11t13 -11q27 -45 68 -45q40 0 61 14q61 29 100 156q14 35 14 86q8 57 -6 98t-16 41q-27 74 -115 74zM-14 -412v-49q-6 -47 16 -59q20 6 29 35q8 15 22 73q4 33 8 49q5 17 15 97t13 128t7 75q0 31 6 57l-2 18l2 29q4 12 0 22q-42 -125 -79 -262q-37 -169 -37 -213z " glyph-name="p" horiz-adv-x="737" unicode="p"/><glyph d="M174 10q-47 0 -84 21q-74 43 -84 119q-6 38 -6 68t2 60t27 92q46 111 125 175q70 51 139 51h8q23 0 44 -9q47 -20 63 -67q2 -4 -1 -24t-26 -23h-4q-15 0 -29 30t-68 29.5t-106 -55.5q-4 -4 -20 -18t-23 -33q-27 -42 -47 -104t-20 -110t10 -69q23 -73 96 -73t115 53 q43 59 53 74l29 57q27 57 45 156l16 79l29 111q7 16 37 16t30 -26v-4q-6 -29 -32 -111l-13 -53q0 -6 -4 -19t-10 -43t-13.5 -76t-9.5 -53l-8 -59q-4 -23 -10 -70t-9 -67t-5 -52.5t-4 -50.5t-4.5 -53t-4.5 -50t-2 -34v-31l-1 -12l-5 -82v-47q-1 -36 15 -87q16 -52 50 -52 t50 22q37 49 45 101q0 2 8 104v25q0 38 -8 110q-1 6 -13 52t-29 86q-17 39 -33.5 62.5t-24 33.5t-7.5 20t9.5 21.5t19.5 11.5t23.5 -8t51.5 -8t72 30q27 27 39 43l15 19q8 12 29 50t34 38q25 0 27 -21q0 -6 -2 -14l-47 -80q-57 -88 -107 -116q-27 -16 -61 -21q25 -37 32 -65 t14 -55t11 -46l6 -26q12 -86 13 -138v-22l-11 -103q-8 -47 -35 -94l-18 -24q-52 -52 -111 -52q-37 4 -53 17q-71 30 -71 129.5t2 120.5l6 106v10q0 43 6 68l8 92v4l18 166v10l-16 -30q-27 -49 -76 -76t-96 -27z" glyph-name="q" horiz-adv-x="702" unicode="q"/><glyph d="M-90 11q0 -1 -11 -6t-29 -5t-26 12.5t-8 24.5q0 27 22.5 26.5t55.5 17.5t78.5 76.5t63.5 92.5q20 38 51 89t55 112l-25 16q-47 41 -63 106q-6 18 -6 50t18 59q20 39 70 39t80 -27.5t32 -79.5v-8q0 -40 -13 -72t-13 -42.5t36 -10.5q36 1 60 11q26 10 59 53l6 6q4 8 14.5 8 t16.5 -4q27 -7 27 -23t-5 -23t-10 -19t-28 -68l-15 -33q-25 -74 -38 -203q0 -123 69 -123q16 0 49 17q4 2 54 51l38 57q33 49 51 79t27 30q27 0 27 -21q0 -6 -2 -14l-12 -24q-23 -47 -47 -76q-23 -29 -40 -55.5t-24 -32.5l-14 -17q-52 -59 -115 -59q-16 0 -20 2h-5 q-55 11 -79 80q-16 53 -17 100v19l4 43q2 55 21 108l12 35q8 20 16 47q-10 0 -30 -10q-20 -4 -22 -4l-32 2q-25 0 -61 12q-10 -20 -29.5 -56t-21.5 -40l-47 -88l-13 -17q-38 -61 -70 -105t-36 -48l-21 -21q-23 -25 -44 -35t-21 -11zM164 668q-33 0 -37 -50v-4q0 -78 63 -110 q20 41 20.5 61.5t2.5 28.5q0 63 -39 72q-4 2 -10 2z" glyph-name="r" horiz-adv-x="620" unicode="r"/><glyph d="M172 641q-10 0 -22 -10t-13 -54q0 -44 15 -75q13 17 22 37l10 20q34 82 -12 82zM504 297q26 0 26 -21q0 -10 -4 -18l-18 -35l-51 -78q-25 -37 -65 -71t-55 -41q-15 -6 -58 -23l-46 -12l-34 -6q-33 -4 -56 -4h-8q-29 0 -59 10l-25 12q-37 18 -37 41q0 12 10 21q10 8 19 8 h2l18 -19q27 -18 57 -18q69 0 89 28q31 43 31 75t-8 56t-11.5 46.5t-23.5 42.5l-43 76l-9 12l-8 14q-66 -88 -76 -108l-32 -54q-6 -6 -13.5 -24.5t-11.5 -24.5l-18 -47l-15 -35q-8 -26 -17 -58t-24 -32h-4q-10 0 -19 7.5t-9 21.5v8l8 37q2 6 26 68t39 81l17 31l18 29 q13 20 64 90l43 61q-37 70 -37 121t16 94q33 43 72 43q15 0 38 -8q54 -19 54 -76l-2 -18l-4 -22l-12 -31q-4 -12 -9 -19l-30 -49q-6 -10 -23 -30l12 -21l13 -20q6 -12 8 -15l14 -22q2 -4 6 -12.5t9 -12.5l8 -12l12 -23l12 -18l19 -43q16 -37 18 -76v-20q0 -44 -16 -72 l-12 -21q47 18 65 37.5t37 35.5t45 54l14 21q29 45 40 67t24 21z" glyph-name="s" horiz-adv-x="471" unicode="s"/><glyph d="M362 895q0 -92 -61 -211q-14 -33 -39 -74l-12 -20h10l117 -6q33 0 37 -10t0 -35q-4 -12 -23 -13h-4q-66 10 -131 11l-43 2l-20 -33q-15 -25 -22 -69t-10 -62t-7 -43.5t-10 -59.5t-7 -67l3 -41q4 -41 20 -63q16 -23 72.5 -23t112.5 72t73 103q16 31 24 40t22 2 q15 -5 15 -17t-4 -20l-18 -35q-83 -137 -133 -172q-8 -8 -70 -35q-35 -10 -53 -6q-76 14 -101 62q-12 16 -20 57t-2 90q-2 14 4 54t12 51l-4 4q-33 -70 -43 -86t-33 -11q-16 6 -16 21q0 4 3 9t8 16.5t9 15.5l52 100q6 23 20 52.5t20.5 45t8.5 24.5t4 13l-27 -2l-24 2l-43 -2 q-32 8 -29 29q2 12 18 23h19l16 2h35q31 -4 45 -2q6 31 29 131l2 4l18 73q2 6 4 15.5t4 14.5t3 8l10 30q36 74 56 90q19 16 46 16.5t37 -14.5q20 -14 20 -51zM283 766l8 22q12 37 20 73t-18 36q-6 -2 -17 -12v-2q-8 -15 -22 -54l-18 -71l-27 -94l-21 -84q4 8 20 34 q42 66 75 152z" glyph-name="t" horiz-adv-x="419" unicode="t"/><glyph d="M813 295q14 -6 14 -18q-1 -12 -27 -59q-28 -49 -59.5 -91.5t-38.5 -48.5l-20 -21q-25 -27 -80 -51q-20 -6 -58 -6t-52 10t-36 32q-21 22 -36 79q-29 -39 -49 -49l-27 -25q-61 -47 -116 -47t-89 35q-2 4 -10 12v2q-39 39 -45 158l6 86l4 26v9q-4 4 -4 0q-33 -70 -43 -86 t-33 -11q-16 6 -16 21q0 4 3 9t8 16t21 41t40 83q10 31 24 61t27 75q6 10 8 22l4 8q0 2 2 6q12 31 37 25t35 -31q2 -6 -2 -18q-31 -66 -41 -174q-4 -20 -4 -31q-10 -20 -10 -104v-39q0 -31 16 -80q12 -51 55 -51t55 6q61 33 130 123q16 21 18 85t16 130l9 45q7 76 45 145 q16 29 50 29t48 -19q4 -4 4 -6t1 -2t1 -2q16 -25 10 -69l-4 -23q0 -41 -16 -88q-16 -48 -72 -162l-20 -41v-2l-9 -12l-2 -12q1 -59 15 -95t55 -34q41 0 65 16q40 26 84.5 83t61.5 88q16 31 24.5 39.5t22.5 2.5zM553 553v8h-4l-4 2q-2 0 -6 -4v-2q-14 -14 -29 -88l-16 -104 l-2 -9q0 -8 -2.5 -18t-2.5 -14q23 45 46.5 117.5t21.5 90.5t-2 21z" glyph-name="u" horiz-adv-x="768" unicode="u"/><glyph d="M207 635q51 -15 51 -74t-39 -139t-92 -125v-10l-2 -45q0 -76 20 -129l17 -33q18 -23 47 -23q45 6 75 33q73 67 136 182q8 12 4 31q-33 113 -21 171t50 106q41 41 83 28q42 -12 58 -45t-19 -123q0 -7 -26 -63l-12 -25q-5 -14 -21 -43t-16 -39t22 -29q22 -18 37 -22 q14 -4 40 -4q27 0 45 9t41 41t31 32q28 0 29 -25q0 -18 -25 -46t-56 -48h2q-33 -14 -44 -15q-12 -1 -38 -1t-51 12t-35 23l-21 20l-10 12q-23 -45 -36.5 -58.5l-14.5 -14.5l-19 -27q-92 -135 -190 -135q-43 0 -55 18l-17 11h2q-27 18 -38 50t-23 87l-10 102h-19 q-42 0 -82 27l-22 20l-6 8v-2l-11 19q-14 22 -16 66t16 55q16 16 27 7q10 -9 10 -24l-6 -39q0 -27 10 -39v2q18 -41 68 -43q12 0 33 5v10l6 65q6 53 8 68l6 31l12 45q23 68 66 86q18 6 41 6zM459 428q0 -21 14 -78l37 78q33 72 22 104q-15 31 -43 5q-10 -12 -16 -37l-2 -2 q0 -2 -6 -26t-6 -44zM205 537q0 27 -6 32l-9 2q-14 0 -24 -18q-12 -29 -16 -55l-9 -31l-6 -37l-4 -61q74 90 74 168z" glyph-name="v" horiz-adv-x="686" unicode="v"/><glyph d="M905 333q-1 -110 77 -110q36 1 48 11t19 18l18 29q10 16 20 16q27 0 27 -24t-38 -63t-70 -40q-8 -2 -47 -2t-68 31q-27 23 -37 67l-53 -96q-12 -20 -17 -31l-18 -33q-25 -43 -78 -92q-41 -34 -100 -24h-4q-69 0 -105 65q-12 25 -16 37q-25 41 -12 133q-33 -68 -82 -123 l-50 -59q-43 -47 -125 -47q-18 0 -52 22t-50 71q-22 67 -29 171h-16q-55 0 -84 27l-22 20q-29 29 -29 80q-6 87 39 76q14 0 14 -31l-6 -33q0 -25 10 -37q2 -8 21 -26q23 -14 39 -14t37 4v8l6 65q18 200 91 229q57 23 79 -14q18 -14 18 -64t-39 -130t-92 -125l-1 -7l-1 -44 q0 -80 20 -127q6 -20 17 -33q31 -38 66 -20q34 18 54 34t44 52q41 52 53 80t41 78t39 77l10 35q23 68 28 87q16 58 42 58q31 0 43 -18q8 -7 8 -19t-12 -36l-17 -37q-32 -87 -41 -152l-6 -61q-8 -79 6 -113l13 -31l4 -6q16 -41 65 -41q18 0 43 15l43 49q31 35 53 82l11 20 q44 86 71 174l17 45l6 21q24 65 32 77q22 33 60 -16q6 -10 2 -20t-4 -15l-16 -53q-17 -69 -17 -97zM203 537q0 25 -4 27t-4 5h-5q-10 0 -24 -22q-10 -25 -14 -49l-9 -31l-6 -37l-4 -53q70 82 70 160z" glyph-name="w" horiz-adv-x="1054" unicode="w"/><glyph d="M261 526q-22 0 -52 -24q-47 -47 -88 -116q-40 -69 -58 -114q-16 -32 -34 -24q-19 8 -19 17t2 18l11 24q12 20 25.5 49t19.5 38t12 21.5t10 19.5t15.5 24t23.5 35t42 49q42 43 95 43t78 -37q16 -17 20 -31t7.5 -21.5t5.5 -11.5t5 -18t9.5 -28t22.5 -109q2 2 4 6t4 6l37 51 q6 6 18.5 25.5t18.5 27.5t18 22t28 36t33 41l29 35l21 30q25 29 57 -6q5 -17 -23 -47q-6 -13 -29 -39t-30 -39l-27 -33q-6 -10 -27.5 -37.5t-31.5 -43.5l-82 -113v-7q0 -24 22 -81t34 -68q12 -10 17 -16t21 -15t44 -9t48 14t66 55q8 10 24.5 31.5t39.5 51.5t33 53 q11 23 19.5 31.5t27.5 0.5t6 -35l-19 -35q-67 -110 -102 -145l-21 -21q-25 -27 -80 -51q-20 -6 -59 -6q-115 0 -168 188l-33 -38q-57 -75 -123 -121q-14 -12 -39 -23q-31 -8 -40 -10q-43 -2 -72 47q-8 14 -4 33q9 14 27 14q17 0 29 -12t24 -10q42 7 73 38q27 20 47 44t31 36 l45 58l17 20q-23 141 -33 166.5t-13 39.5t-21 35t-39 21z" glyph-name="x" horiz-adv-x="778" unicode="x"/><glyph d="M287 192q0 66 16 132t21 110l4 25q8 80 -52 80h-12q-12 0 -19 -6.5t-27 -17.5t-36 -36q-39 -49 -53 -69t-66 -138q-16 -32 -34 -24q-19 8 -19 17t2 18l11 24q10 18 19 42t46 88t66 95l14 17q52 55 106 55q28 0 35 -4q47 -14 58 -35q20 -41 20 -79q0 -64 -16.5 -130 t-16.5 -170v-12q0 -43 23 -65q47 -49 108 -31q68 14 109 88l6 8l2 6q28 58 48 161t20 108l14 65q0 2 6 39q10 39 45 18q31 -16 25 -49q-6 -34 -14 -62t-11 -48h-2v-9q-7 -7 -29 -142t-22 -165v-4l-12 -86q37 20 80 64l45 43q6 4 18 20.5t18 20.5l33 39q27 35 43 63 t24.5 36.5t27.5 0.5t6 -35l-19 -35q-33 -60 -96 -129l-49 -47q-61 -55 -82 -72l-33 -22q-20 -14 -20 -19l-9 -49l-6 -43q-8 -43 -14 -82l-6 -45l-17 -71l-6 -21l-6 -26q-2 -6 -9 -28t-20.5 -48.5t-47 -67t-73.5 -51.5q-14 -4 -34 -4t-31 2h-4q-42 14 -55 29q-53 41 -52 131 q11 110 62.5 178.5t114.5 111.5l30 23q15 15 78 57l19 13q26 17 26 63t15 86v2l-23 -22q-72 -84 -172 -66q-74 12 -111 70q-28 50 -28 116zM592 -127v8q-2 2 -12 -5t-49.5 -31t-67.5 -58q-48 -45 -84 -88l-2 -8q-41 -61 -40 -125t24 -90q23 -25 58 -17q36 8 58.5 27t40.5 74 q15 23 35 100q20 76 22.5 102.5t4.5 34.5l6 37q6 37 6 39z" glyph-name="y" horiz-adv-x="909" unicode="y"/><glyph d="M207 150q-45 0 -51 -37q2 -20 47 -25q45 4 59 16q-2 20 -20.5 33t-34.5 13zM4 256q0 6 2 14l12 25q48 80 56 91t25.5 35.5t28.5 42t17 23.5l21 21q87 91 186 86q60 0 94 -40t46 -88t8 -93q-4 -14 -7 -38t-19 -74t-93 -157q-21 -24 -21 -37q0 -12 2 -23t3.5 -20.5 t3.5 -21.5t2 -20q16 4 59 30t76 58l45 43q6 4 18.5 20.5t18.5 20.5l33 39q27 35 43 63t23.5 36.5t22.5 2.5q15 -5 15 -17t-4 -20l-19 -35q-33 -60 -96 -129l-49 -47q-39 -35 -82 -67l-33 -23q-2 -2 -30.5 -15t-33.5 -24q-5 -10 -5 -27v-8q0 -4 1 -57t-1 -59l-11 -91 q0 -2 -10 -67q-4 -6 -8 -17q-16 -76 -65.5 -138t-133.5 -60q-4 0 -15 2t-26 4.5t-51 21.5q-16 12 -22 19q-49 37 -41 133q22 111 77 177t93 89t76 48.5t58 36.5t15 48q0 12 -10 47q-8 18 -14 19l-4 -2q-5 0 -25 -6t-74 -6q-23 2 -49.5 18t-34.5 33q-23 53 31 110 q46 43 107 19q57 -31 75 -49t35 4q4 6 39 57q41 68 53 176q4 59 -20 95t-61 44q-84 15 -154 -67q-78 -78 -146 -205q-17 -32 -35 -24t-18 20zM313 -127q-2 2 -4 0l-37 -21q-36 -21 -84 -59q-57 -53 -86 -92q-10 -8 -30.5 -49t-21.5 -90t22 -76q28 -29 74 -31t81 25.5 t43 59.5l9 36q29 85 33.5 165.5t2.5 94.5z" glyph-name="z" horiz-adv-x="665" unicode="z"/><glyph d="M281 -416q-2 0 -17 -4t-40 3t-36 9t-16 7q-44 15 -76 39q-113 80 -125 194q-4 61 11 88q26 78 66 128t55 72t35 43t26 31t20.5 34t18.5 48q12 80 -29 132q-35 35 -65 45q-33 18 -31 51q8 49 49 55h4q16 0 41 14q61 29 78 80q23 55 6 127l-23 94q-40 136 -40 194t8 95 q6 72 37 115q68 114 213 104h8l14 2h16q31 -8 54 -22q16 -18 11 -36t-22 -21l-47 6q-8 0 -20 4h-6q-20 4 -43 6t-51 -16q-55 -27 -69 -58t-32 -119q-4 -37 14 -134t39 -152q20 -70 21 -162q-6 -49 -41 -94q-20 -41 -102 -94q0 -2 10.5 -13.5t17.5 -21.5q43 -39 49 -107 t-8 -102q-27 -80 -71 -125q-96 -100 -134 -182q-48 -95 4 -179q43 -76 136 -106h2l24 -6h4q25 -2 42 6t37 2q22 -6 24 -28t-25 -40l-20 -6h-6z" glyph-name="braceleft" horiz-adv-x="593" unicode="{"/><glyph d="M174 1423q0 25 35 35q17 -2 22 -35l7 -53v-88q-2 -20 -2 -54t2 -48v-363q0 -125 -2 -145l-3 -162l3 -59q0 -27 -5 -93l-2 -36v-222l-4 -309q-2 -6 -2 -37q-4 -23 -26 -22l-2 2h-5h5h-5q-23 0 -22 30v31l2 86v189l4 153q0 47 -2 72l8 170v491l-2 228l-6 170q0 31 2 41v28z " glyph-name="bar" horiz-adv-x="409" unicode="|"/><glyph d="M309 1378q2 0 17 4t40 -3t37 -9t38 -12t53 -33q111 -78 127 -195q4 -61 -11 -88q-25 -74 -67 -126q-43 -52 -57 -74t-34 -42q-20 -22 -41 -57t-24 -57q-12 -80 29 -131q35 -35 65 -45q33 -18 31 -51q-8 -49 -49 -56h-4q-16 0 -41 -14q-61 -29 -78 -80q-23 -55 -6 -127 l22 -94l25 -90q18 -70 18 -116q0 -132 -47 -197q-69 -115 -213 -105h-8l-14 -2h-17q-31 8 -53 23q-16 17 -11 35t21 22l47 -6q8 0 21 -4h6q20 -4 43 -6t51 16q55 26 71 60t32 116q4 38 -16 138t-40 149q-20 70 -20 162q6 49 41 94q20 41 102 94q0 2 -6.5 8.5t-21.5 26.5 q-43 39 -49 106t8 103q27 80 71 125q158 165 158 270q0 49 -29 90q-43 76 -135 107h-2l-24 6h-5q-25 2 -41 -6t-38 -2q-21 5 -23 27t25 40l20 6h6z" glyph-name="braceright" horiz-adv-x="593" unicode="}"/><glyph d="M238 502q-42 0 -78 -64l-25 -22q-10 0 -17 7t-7 14t6 14q55 106 137 114q63 0 137 -37v4q111 -49 170 -49t103 72q2 4 6 10t7 12.5t17 6.5q20 0 21 -27q-54 -143 -193 -143q-61 0 -88 16q-12 4 -83 38t-113 34z" glyph-name="asciitilde" horiz-adv-x="819" unicode="~"/><glyph glyph-name="uni00A0" horiz-adv-x="409" unicode=""/><glyph d="M299 606q21 0 16 -35l-116 -616l-6 -47l-48 -242q-6 -14 -14 -14q-57 0 -57 35l67 307l19 102l22 97q10 39 11 47l24 112q14 68 25 105v2l2 4l30 127q4 16 25 16zM287 808q0 22 22 46.5t44 24.5t38.5 -14.5t16.5 -39.5q0 -57 -66 -71q-25 0 -40 16t-15 38z" glyph-name="exclamdown" horiz-adv-x="450" unicode=""/><glyph d="M483 1122q0 -100 -46 -100q-20 0 -40 20q-6 12 6 36q13 24 11 50t-18.5 36t-39.5 5q-78 -20 -108 -65l-20 -20q-20 -20 -27 -40q-13 -22 -19 -36t-28 -107q-8 -55 0 -98q0 -35 14 -64q41 -81 118 -73q78 8 100 18t40 21q18 2 27.5 -10.5t-2.5 -35.5q-55 -55 -150 -55v-12 q-4 -16 -4 -23l-2 -24q-6 -25 -6 -40q0 -34 -27 -34l-16 8q-12 15 -6 35t6 35l6 49v10q-35 6 -62 19q-78 39 -94 111t-15 119q1 46 23 121t56 126q47 59 51 63q45 39 115 60l10 47l2 33q8 23 8 45t19 26q4 0 20 -10q6 -8 6 -17t-6 -46l-8 -45q0 -10 -4 -31q57 -4 90 -47 q4 -4 4 -6q16 -14 16 -54z" glyph-name="cent" horiz-adv-x="512" unicode=""/><glyph d="M203 944q-12 0 -25 4q-10 0 -18 21q0 27 22 26h23q29 -6 61 -6h4l6 35q23 135 60 195q27 31 90 49l4 2h4q115 0 164 -68q38 -78 0.5 -125t-90.5 -47q-59 0 -59 62l2 12q-1 18 23 18t24 -28q0 -12 8 -13q27 0 43 20.5t16 44.5t-24 46q-13 29 -79 29t-90 -45.5t-33 -93.5 t-9 -52l-8 -41q14 0 43 -4l26 -2h17q45 0 45 -26t-19 -25q-20 0 -26 2l-23 2h-10q-25 0 -68 6q-8 0 -8 -45l7 -1l24 -2q18 -1 22 -1l31 -2l25 2q35 0 34 -29q0 -20 -36 -20h-9l-90 6h-20q0 -18 -15 -77t-26 -81q20 -20 60 -35.5t81 -15.5q41 1 61 17t38.5 37t33.5 20 q20 -16 23 -23q0 -16 -23 -39q-57 -63 -112 -63q-29 0 -43 4q-101 0 -154 53q-33 -33 -48 -33l-61 -2q-27 2 -45 20t-18 38t2 33t24.5 30t52.5 17t60 -19l23 -10q20 33 41 135h-13l-24 2q-37 0 -46 6t-9 27q6 16 28 16q37 -6 66 -6l6 -2l4 16l4 27h-10l-21 2h-24zM119 700 q-25 0 -31 -26q2 -12 22 -12t58 18q-47 20 -49 20z" glyph-name="sterling" horiz-adv-x="645" unicode=""/><glyph d="M645 1214q20 0 29 -45q-6 -14 -21 -22l-57 -33q-10 -6 -21 -16l7 -35q6 -35 8 -51v-13q0 -50 -12 -90q-27 -84 -45.5 -124t-51.5 -52q16 -23 17 -26q10 -6 31.5 -37t21.5 -57t-29 -25h-6q-8 0 -35.5 37t-38.5 49l-22 24q-37 -12 -60 -12q-74 0 -155 49q-14 -14 -50 -29.5 t-44 -23.5l-23 -18q-6 -2 -16 -2q-33 0 -33 34q4 29 78 62l45 26q-39 59 -39 129v25q0 66 12 98t28.5 66.5t22.5 48.5q-7 0 -55 72l-16 22q-8 12 -11 31q0 23 35 33q16 0 32 -23t24 -37t10 -16l18 -23q2 -8 8 -10q61 41 129 45h9q18 0 77 -18l23 -10h6l4 -3h8q2 -6 20 -16.5 t36 -34.5q72 49 90 49q4 2 12 2zM180 942q0 -98 45 -146t122 -48t114 55q69 48 74 203q0 57 -35 106t-86 62l-49 6q-57 -4 -80 -27l-17 -8l-22 -21q-27 -14 -46.5 -76.5t-19.5 -105.5z" glyph-name="currency" horiz-adv-x="716" unicode=""/><glyph d="M115 971h63l12 -2l-16 61q-25 118 -35 158t-6 61q0 18 23 21l26 -6l6 -11v-2l11 -53q6 -39 49 -215l2 -6l49 57q49 56 63 71t37 47t35 46q33 49 47 49h8q3 0 11 -4q10 -6 10 -18t-8 -21l-76 -98q-37 -49 -61.5 -74.5t-51.5 -64.5h16l58 2q10 0 18.5 -8.5t5.5 -22.5 t-18 -14l-92 -4q-26 -4 -35 -15q-10 -37 -10 -55l16 -2l105 2q25 -4 24 -23q-6 -20 -34 -20l-66 4l-49 -2q-7 -7 -25 -116t-37 -109h-16q-14 2 -18 12v20l4 23q2 16 11 59t13 66l9 39q0 2 -7 8l-84 4q-14 0 -18 5t-2 14q2 26 24 24t37 -3t21 -2t8 -1h27v8q4 31 0 66h-49 q-27 0 -44 6q-16 2 -12 20q0 19 21 19z" glyph-name="yen" horiz-adv-x="532" unicode=""/><glyph d="M180 569q0 25 14.5 34t28 -1t13.5 -33l-3 -59l3 -59q0 -27 -5 -93l-2 -36l2 2q-2 -39 -2 -113v-111l-6 -295q-2 -6 -2 -26v-25q-4 -23 -26 -22q-2 0 -7 2h5h-5q-23 0 -22 30v31l4 86v189l4 153q0 47 -2 72l8 170v104zM174 1423q0 25 35 35q17 -2 22 -35l7 -53v-88 q-2 -20 -2 -54t2 -48v-416q0 -29 -27 -31q-27 6 -31 43v180l-2 228l-6 170q0 31 2 41v28z" glyph-name="brokenbar" horiz-adv-x="409" unicode=""/><glyph d="M182 1037q0 66 66 145q66 66 190 65q47 0 113 -33l14 -6q78 -53 78 -135q0 -51 -35 -96t-81 -45t-76 22q-35 16 -35 70t37 53q25 -14 24 -28l-8 -35q16 -31 39 -30q22 1 33 7q47 31 47 74q0 82 -71 103.5t-116 21.5l-26 -4q-61 -6 -99 -61.5t-38 -98.5q0 -70 118 -154 q50 -37 62 -47l16 -14q2 -2 17.5 -13.5t27.5 -31.5l31 -57q10 -55 10 -64q0 -125 -76 -186l-45 -23l19 -20q32 -36 56 -102t24 -106t-13 -67l-6 -20q0 -6 -6 -12q-33 -84 -94 -123q-41 -29 -124 -29t-170 54.5t-87 156.5q0 46 16 104t55.5 84.5t80 26.5t77.5 -24.5t37 -56.5 q0 -67 -39 -69q0 -3 -12 4t-16 15l14 53q-6 23 -49 23q-104 -10 -105 -152q0 -63 64 -117q47 -45 129 -45h14q80 0 135 80q25 45 33 82l4 43q-18 109 -45 129l-33 35q-16 20 -49 47l-24 19q-2 2 -26.5 19t-56.5 48q-32 32 -44 54t-17 26q-31 31 -31 90q1 105 68 160 q25 14 44.5 27.5t27.5 15.5l-14 14q-25 16 -39.5 57t-14.5 77zM168 705q0 -49 32.5 -105.5t98.5 -93.5q10 -4 41 -23q121 27 121 144q0 47 -12.5 73t-61.5 76l-39 31q-16 17 -36 25t-23 12q-121 -45 -121 -139z" glyph-name="section" horiz-adv-x="645" unicode=""/><glyph d="M94 782q0 -21 -20.5 -38t-37 -17t-27.5 12.5t-11 28.5q0 47 51 61q18 0 31.5 -13t13.5 -34zM154 770q0 22 17 38.5t33.5 16.5t31 -12t14.5 -29q0 -49 -57 -61q-14 0 -26.5 12.5t-12.5 34.5z" glyph-name="dieresis" unicode=""/><glyph d="M59 838q0 162 114 266t252 104t261 -104q56 -66 64 -125l8 -29v-4q2 -2 2 -4l2 -10l6 -55q0 -133 -64.5 -236.5t-160.5 -157.5q-164 -71 -295.5 -2t-160 179t-28.5 178zM115 814q0 -138 76.5 -220t189.5 -82q70 0 119 23q49 16 67 34q49 23 94.5 110t45.5 155 q0 123 -29 165q-14 43 -51.5 74.5t-61.5 39.5q-24 9 -78 28l-61 8q-133 0 -222 -98.5t-89 -236.5zM231 791q0 82 48 167q37 70 98 93q10 0 26 7t37 7q66 0 109 -43q18 -18 18 -42t-12.5 -47.5t-28.5 -23.5t-25 9.5t-9 19.5t12 43q0 8 -18.5 15.5t-30.5 7.5q-74 0 -121 -69 t-47 -127t28.5 -103.5t66.5 -45.5q38 -1 55 7t34 34q29 37 43 37t23.5 -10t9.5 -20.5t-2 -13.5t-6 -11q-28 -55 -95 -74q-6 -6 -12 -6h-10l-25 -2q-57 0 -111.5 54.5t-54.5 136.5z" glyph-name="copyright" horiz-adv-x="849" unicode=""/><glyph d="M316 1223q-38 0 -105 -49q0 -2 -14.5 -17.5t-20.5 -30.5l-10 -14q-57 -114 -57 -200q0 -40 10 -58q3 -28 26 -49t28 -22t13.5 -3t21.5 -2q75 0 142 117l6 6l38 101q38 100 38 114l10 58q2 10 6 34t19 23q16 0 25 -6q16 -3 16 -19t-12 -60t-16 -58q-3 -14 -12 -43t-17 -60 q-18 -47 -19 -106q0 -88 55 -88h13q29 0 50 14t33.5 10t13.5 -16.5t-7 -22.5q-45 -45 -107 -45q-11 0 -41 9t-39 30q-22 39 -20 84l-16 -29q-12 -25 -51 -62.5t-107 -37.5q-31 0 -76 25q-66 37 -76 103t-4 108q2 45 40 135t100 137q53 37 126 47l9 -2q47 0 82 -45 q12 -12 12 -42t-31 -32q-14 0 -20 6t-13 27q-4 31 -42 31z" glyph-name="ordfeminine" horiz-adv-x="552" unicode=""/><glyph d="M184 473l-45 -39q8 -10 37 -25t79 -49q51 -35 68 -52t6 -37t-30 -7l-20 8q-25 14 -48 33l-47 33l-49 29l-47 32q-39 23 -10 58q23 23 37 32t44.5 32.5t46.5 34.5t23 16.5t15 12.5t18 13l27 18q4 2 19 12t27.5 5.5t14.5 -17.5q8 -13 -33 -47zM428 487l-63 -53 q8 -10 24 -19t26.5 -15.5t17.5 -12t30 -19.5t67 -46q14 -14 4 -34t-30 -7l-21 8q-25 14 -26 16l-47 33l-50 29l-47 32q-39 23 -10 58q23 23 40 35t50 36q33 25 40 30t15.5 12.5t18.5 13.5l27 18q23 23 41 17.5t20 -17.5q10 -16 -33 -47z" glyph-name="guillemotleft" horiz-adv-x="593" unicode=""/><glyph d="M561 938q0 -98 -71.5 -179t-174.5 -81h-8q-121 8 -184 67q-82 57 -82 203q0 57 40 128t112 102l12 6q35 24 77 24t58 -6l33 -8q143 -29 186 -188q2 -5 2 -68zM518 952v37q-12 74 -65 121q-29 29 -81 42q-51 13 -75 13t-35 -2l-29 -8q-150 -76 -149 -199q0 -182 190 -229 q10 -2 33 -2q66 0 120 40.5t79 108.5q12 49 12 78zM225 1049v10q0 12 4.5 23.5t62.5 11.5t89 -25t31 -48t-22 -48t-42 -25l-18 -8q35 -70 46 -82t11 -30q0 -19 -14 -19q-20 0 -49 59l-7 13l-4 12l-2 2q0 2 -4 8t-8 15l-10 14q-37 -8 -37 -10v-17l-4 -59v-12q0 -20 -19 -21 q-23 0 -22 31l2 35q4 63 10 94q6 30 6 76zM373 1020q0 31 -72 31q-14 0 -31 -7q-8 -33 -8 -61l-2 -10q55 0 102 31q11 6 11 16z" glyph-name="registered" horiz-adv-x="593" unicode=""/><glyph d="M344 805q77 -1 46 -47q-13 -20 -62 -19l-23 2h-24q-20 -2 -62 -2h-57q-20 2 -58 2h-6q-8 0 -16 -2h-29q-43 -1 -51 13t2 30t29 17h2l82 2q74 0 108 2h31q41 0 63 2h25z" glyph-name="macron" unicode=""/><glyph d="M190 911q-102 0 -124 80q-6 25 -7 60q10 61 43 92q74 67 123 67t67 -17t46 -54q14 -25 10 -80t-47 -101.5t-111 -46.5zM297 1077q0 29 -18.5 55.5t-49.5 26.5t-72.5 -31.5t-42.5 -72.5t18.5 -66.5t53.5 -25.5t60 16q51 35 51 98z" glyph-name="degree" horiz-adv-x="409" unicode=""/><glyph d="M420 518v-221q-10 -25 -35 -25q-23 2 -23 31l3 84v131h-218q-27 6 -26 33q0 29 31 29l112 -2l94 -3h7v74q0 88 2 133v11q2 18 14 25t25.5 0t15.5 -25v-50q-2 -12 -2 -129v-39h76q92 0 135 -2h10q27 -4 27 -28.5t-27 -28.5h-90l-21 2h-110zM125 138q0 28 31 28l112 -2 l94 -2h138q90 0 135 -2h10q27 -4 27 -29t-27 -29h-90l-20 2h-383q-27 6 -27 34z" glyph-name="plusminus" horiz-adv-x="819" unicode=""/><glyph d="M383 811q21 0 22 -24t-40 -64l-43 -23l-17 -6q-2 0 -6 -2h-20q-47 0 -89 37q-6 -6 -59 -23q-54 -17 -76 7l-18 20q-8 9 -8 25t24 59q13 21 55 21t62 -21l31 -20q47 31 93 108.5t56 124.5l8 37q0 55 -30 82l-15 8q-17 4 -37 4t-60 -33.5t-40 -83.5q8 -27 33 -26 q12 0 23.5 8t9.5 14q6 14 21 14t24 -22q0 -29 -30 -46t-62 -19q-66 8 -66 82q0 10 2 14l6 27q0 16 8 24l33 45q61 49 109 49q119 0 119 -139q0 -25 -31 -106l-10 -19q-7 -6 -13 -28t-45 -75t-76 -77q25 -18 50 -23h18q27 6 51 35l6 12q6 23 27 23zM152 768q-56 37 -67 18.5 t-7 -27.5t28 -7t46 16z" glyph-name="uni00B2" horiz-adv-x="450" unicode=""/><glyph d="M130 1065q-11 0 -25 12t13 50q26 39 58 61q47 23 88 16h4q4 -2 12 -2q39 0 82 -51q23 -35 15 -84q-7 -49 -29 -73t-47 -38l-2 -2q4 -2 16 -14l15 -14q23 -37 21 -87t-34 -98q-39 -37 -102 -53q-18 -8 -31 -4h-8q-31 0 -63 14q-41 16 -54 66q-4 23 7 72q25 47 63 53 q35 -1 48 -13t10 -25t-12 -19t-25 4t-30 -4q-13 -14 -18 -39q0 -16 13 -33q16 -14 24 -23q18 -6 40 -6t32 1t43 16q47 33 49 73v8q0 97 -86 105q-20 0 -27.5 5t-7.5 21t11 19h-3q8 8 25 8q51 -2 88 33q23 16 25 51t-13 61t-53 25l-12 2q-31 0 -47 -14q-37 -20 -41 -43 l-8 -12l-7 -15q-6 -10 -17 -10z" glyph-name="uni00B3" horiz-adv-x="419" unicode=""/><glyph d="M20 688q-11 0 -18 12q-8 16 10 43q35 39 70 88t42 57q8 8 20 7q12 0 24 -8q2 -4 8 -17t-8 -30q-96 -102 -116 -127t-32 -25z" glyph-name="acute" unicode=""/><glyph d="M570 1202q94 0 124 4h113q29 0 29 -30q0 -23 -21 -29q-4 -4 -67 -4h-29q-4 -4 -4 -10v-5q-6 -37 -17.5 -110.5t-23.5 -120.5l-6 -37q-8 -56 -26 -128q-17 -73 -24 -120l-10 -37q-2 -12 -42 -205t-56 -313l-4 -24v-2q-4 -27 -8 -33q-6 -18 -29 -18h-2q-27 4 -29 24 q-6 10 0 23t6 32q7 21 7 33l45 246l8 51q10 25 11 40t7 40t11 45t9 35q4 16 10.5 49t10.5 49.5t43 200.5t47 282v11h-10q-31 -4 -94 -4h-8v-15q-11 -66 -31 -145q-6 -37 -12 -68q-18 -55 -31 -148t-29 -118q-2 -12 -8 -38.5t-8 -38.5t-7 -34t-11 -48t-15 -70 q-9 -51 -16.5 -80t-7.5 -35l-41 -225q-7 -21 -7 -29q-16 -39 -38 -39q-32 0 -25 57l12 50q10 47 22 119t19 98q6 26 11.5 48t16 80.5t17.5 84.5t19 104l6 37q4 18 6 21v2q-174 -34 -221 28q-37 37 -51 74q-20 37 -19 80v6q5 87 19 117.5t55 91.5q39 51 125 82q43 12 100 20 h66q19 -4 113 -4z" glyph-name="paragraph" horiz-adv-x="819" unicode=""/><glyph d="M248 596q18 0 33 -10q23 -10 23 -42t-24 -50q-22 -18 -31 -21q-9 -2 -38 4q-45 25 -21 78q17 31 58 41z" glyph-name="periodcentered" horiz-adv-x="307" unicode=""/><glyph d="M66 25q20 0 20 -19q0 -8 -41 -84q4 0 16 -4q84 -20 76 -100q-4 -43 -31.5 -78t-65.5 -35t-61.5 17.5t-21.5 44.5q4 27 20 26q9 0 27 -18q18 -19 36 -19t32 17.5t16 44.5q4 49 -57 49l-31 -10q-20 0 -20 24q4 17 12 29t21.5 45t23 51.5t29.5 18.5z" glyph-name="cedilla" horiz-adv-x="124" unicode=""/><glyph d="M131 686q-29 0 -29 21q0 2 8 29.5t11 45.5l8 41l10 35q0 4 14.5 49t14.5 90l16 74q8 16 9 37v10q-6 -6 -9 -6h2q-27 -27 -36 -41l-27 -18q-5 -4 -21 -4t-17 16t7 29l74 65q8 13 32 31t33 18q23 0 23 -26q4 -20 -8 -54l-6 -30l-13 -78l-63 -281q0 -27 -10.5 -40t-22.5 -13 z" glyph-name="uni00B9" horiz-adv-x="327" unicode=""/><glyph d="M419 1280q40 0 68.5 -34t28.5 -64q6 -31 6 -39q0 -76 -28 -164l-15 -35l-10 -26q18 -7 36.5 -7t18.5 -18q0 -25 -39 -25h-10q-8 0 -26 6q-7 -14 -9 -16q-92 -125 -184 -125h-2q-84 0 -141 58q-39 37 -54 127q-4 74 13 122l20 58q16 49 49 88q55 78 111 78q33 0 33 -19 t-12.5 -26t-14.5 -7q-49 -20 -96 -92l-17 -39q-18 -43 -24 -94v-4l-2 -39l12 -65q33 -86 121 -86q47 6 63 16l27 18q33 23 64 70q-34 23 -58 61l-12 21q-8 8 -27 74v12l-4 55v31q-2 63 36 96t78 33zM469 1128q0 43 -23 76q-22 18 -40 19q-51 0 -52 -107l11 -78 q10 -29 18 -43l14 -26l27 -29q45 84 45 188z" glyph-name="ordmasculine" horiz-adv-x="552" unicode=""/><glyph d="M438 420l45 39q-8 10 -39 26t-77 49q-47 32 -66 50q-18 18 -7 38t30 7l20 -8q25 -14 47 -33l47 -33l49 -29l48 -32q39 -23 10 -58q-23 -23 -37 -32t-45 -32.5t-47 -34.5t-22.5 -16.5t-14.5 -12.5t-19 -13l-26 -19q-4 -2 -20 -11t-28 -5t-14 16q-7 12 33 48zM195 406 l63 53q-8 10 -24 19t-20 12l-53 34q-24 15 -69 47q-14 14 -3 34t30 7l20 -8q25 -14 27 -16l47 -33l49 -29l47 -32q39 -23 10 -58q-24 -24 -57 -48t-49 -36t-23.5 -17t-15.5 -12.5t-18 -13.5l-27 -18q-3 -5 -19 -13t-28 -3.5t-14 16.5q-7 12 32 47z" glyph-name="guillemotright" horiz-adv-x="593" unicode=""/><glyph d="M178 686q-29 0 -28 21q0 4 8 33.5t10 41.5l8 41l10 35q0 4 14.5 49t14.5 90l16 74q8 16 9 37v10q-6 -6 -9 -6h2q-27 -27 -36 -41l-27 -18q-6 -4 -22 -4t-16 16q-1 16 7 29l74 65q9 13 31 31t35 18q23 0 22 -26q4 -20 -8 -54l-6 -30l-13 -78l-63 -281q0 -27 -10.5 -40 t-22.5 -13zM-16 405q0 16 12 29l20 10h-2q25 18 64 37l72 35l200 111q33 18 111 69l22 13h-2q6 4 25.5 14t32.5 18l49 31l114 64l66 32q20 0 20 -30l-10 -17l-12 -10l-102 -61l-328 -185q-35 -16 -57 -33l-138 -75q-18 -10 -61 -30.5t-47 -23.5l-37 -14q-12 0 -12 16z M465 438q0 13 4 25v35q0 10 12 17q13 7 25 0t8 -32v-18q0 -59 -51 -178q32 -24 65 -35l33 -6q6 0 12 -2q-1 10 5 30t8 30t5 20t6 21t4 14t9 36l15 54q2 6 4 16t4 14v25q2 6 13 11t18 5q22 0 18 -12v-19q-6 -44 -27 -102v-2l-14 -53l-6 -25l-4 -12l-2 -19l-11 -28q19 0 60 18 q8 8 14 10q4 6 13 6t28 -26t-119 -59h-10q-6 -35 -10 -49t-7 -27t-7 -25t-8 -21t-6 -36q-3 -27 -7 -38t-16 -11h-23q-6 2 -8 10t0 13t6 25t8 32l17 69l18 58h-4l-33 4l-28 8q-20 10 -29 16l-18 11l-11 6q0 -4 -5 -8t-13 -12q-26 -24 -70 -11q-25 10 -33 45q1 29 23 49 q22 21 46 21t40 -15q6 0 11 21.5t9 27.5l19 72v6zM382 276q-7 0 -14 -3t-4 -11t13 -8t24 18q-12 4 -19 4z" glyph-name="onequarter" horiz-adv-x="778" unicode=""/><glyph d="M178 686q-29 0 -28 21q0 4 8 33.5t10 41.5l8 41l10 35q0 4 14.5 49t14.5 90l16 74q8 16 9 37v10q-6 -6 -9 -6h2q-27 -27 -36 -41l-27 -18q-6 -4 -22 -4t-16 16q-1 16 7 29l74 65q9 13 31 31t35 18q23 0 22 -26q4 -20 -8 -54l-6 -30l-13 -78l-63 -281q0 -27 -10.5 -40 t-22.5 -13zM-16 405q0 16 12 29l20 10h-2q25 18 64 37l72 35l200 111q33 18 111 69l22 13h-2q6 4 25.5 14t32.5 18l49 31l114 64l66 32q20 0 20 -30l-10 -17l-12 -10l-102 -61l-328 -185q-35 -16 -57 -33l-138 -75q-18 -10 -61 -30.5t-47 -23.5l-37 -14q-12 0 -12 16z M638 119q22 0 21 -24q0 -24 -41 -64l-8 -6q-31 -14 -35 -17l-16 -6q-2 0 -2 -1t-2 -1h-20q-49 0 -91 37q-4 -4 -40 -16q-36 -13 -60 -13t-35 12l-18 21q-8 8 -8 24t24 60q13 20 55 20t62 -20l31 -21q47 31 93 109t56 125l8 37q0 55 -30 82l-15 8q-17 4 -37 4t-60 -34 t-40 -83q8 -27 33 -26q12 0 23.5 8t9.5 14q6 14 21 14t24 -22q0 -29 -30 -46.5t-62 -19.5q-66 8 -66 82q0 10 2 15l6 26q0 16 8 25l33 45q63 49 111 49q117 0 116 -139q0 -25 -30 -107l-11 -18q-6 -6 -12 -28t-45 -75t-76 -77q25 -18 50 -23h18q27 6 51 35l6 12q6 23 28 23z M360 98q-12 0 -22 -8.5t-10 -15.5q8 -17 32 -15t46 17q-34 22 -46 22z" glyph-name="onehalf" horiz-adv-x="778" unicode=""/><glyph d="M-16 385q0 16 12 29l20 10h-2q25 18 64 37l72 35l200 110q33 18 111 70l22 12h-2q6 4 25.5 14.5t32.5 18.5l49 31l114 63l66 33q20 0 20 -31l-10 -16l-12 -10l-102 -62l-328 -184q-35 -16 -57 -33l-138 -76q-18 -10 -61 -30.5t-47 -22.5l-37 -14q-12 0 -12 16zM465 438 q0 13 4 25v35q0 10 12 17q13 7 25 0t8 -32v-18q0 -59 -51 -178q32 -24 65 -35l33 -6q6 0 12 -2q-1 10 5 30t8 30t5 20t6 21t4 14t9 36l15 54q2 6 4 16t4 14v25q2 6 13 11t18 5q22 0 18 -12v-19q-6 -44 -27 -102v-2l-14 -53l-6 -25l-4 -12l-2 -19l-11 -28q19 0 60 18 q8 8 14 10q4 6 13 6t28 -26t-119 -59h-10q-6 -35 -10 -49t-7 -27t-7 -25t-8 -21t-6 -36q-3 -27 -7 -38t-16 -11h-23q-6 2 -8 10t0 13t6 25t8 32l17 69l18 58h-4l-33 4l-28 8q-20 10 -29 16l-18 11l-11 6q0 -4 -5 -8t-13 -12q-26 -24 -70 -11q-25 10 -33 45q1 29 23 49 q22 21 46 21t40 -15q6 0 11 21.5t9 27.5l19 72v6zM382 276q-7 0 -14 -3t-4 -11t13 -8t24 18q-12 4 -19 4zM130 1065q-11 0 -25 12t13 50q26 39 58 61q47 23 88 16h4q4 -2 12 -2q39 0 82 -51q23 -35 15 -84q-7 -49 -29 -73t-47 -38l-2 -2q4 -2 16 -14l15 -14q23 -37 21 -87 t-34 -98q-39 -37 -102 -53q-18 -8 -31 -4h-8q-31 0 -63 14q-41 16 -54 66q-4 23 7 72q25 47 63 53q35 -1 48 -13t10 -25t-12 -19t-25 4t-30 -4q-13 -14 -18 -39q0 -16 13 -33q16 -14 24 -23q18 -6 40 -6t32 1t43 16q47 33 49 73v8q0 97 -86 105q-20 0 -27.5 5t-7.5 21t11 19 h-3q8 8 25 8q51 -2 88 33q23 16 25 51t-13 61t-53 25l-12 2q-31 0 -47 -14q-37 -20 -41 -43l-8 -12l-7 -15q-6 -10 -17 -10z" glyph-name="threequarters" horiz-adv-x="778" unicode=""/><glyph d="M461 201q27 0 43 -8q63 -12 90 -87q24 -59 10 -114q-4 -37 -16 -64q-41 -72 -84 -106q-106 -92 -257 -92t-243 143q-29 49 -35 73l-11 44t-9 33q-7 159 51 266q53 102 137 133h4q94 33 150 31h16l31 -2q14 -2 29 -2l22 118q0 17 4 25q0 12 4 37v8q4 29 21 33h6 q33 0 39 -33q4 -15 -1 -29t-32 -139v-8l-10 -49q0 -29 -25 -29h-20q-8 0 -13 2h-16q-2 2 -12 2h-23q-6 2 -22 2t-25 -2h-8q-51 -6 -115 -37q-47 -27 -87 -95t-52 -159q-4 -10 0 -24v-13q6 -147 127 -233q59 -39 131 -31l8 -1q8 -1 25 3q72 4 137 45l4 4q69 40 103 111 q23 57 15 115t-63 67q-59 12 -106 -35q-18 -18 -29 -47v-4l-6 -14v-6l-2 -2q-13 -34 -32 -15t-21 29q0 37 11 53t14.5 21.5t7.5 9.5l8 14q55 55 119 58h8zM449 895q21 0 40 -21q1 -4 9 -18t-4 -32q-12 -20 -20 -28t-30 -8t-30 15q-12 12 -13 37q15 55 48 55z" glyph-name="questiondown" horiz-adv-x="768" unicode=""/><glyph d="M606 1526q16 21 31 14q12 0 22 -20q43 -133 49 -155t3 -28q-22 -18 -37 2q0 3 -4 9t-9 24q-10 36 -33 84q-24 47 -24 51l-2 6q0 4 4 13zM1155 276q0 -6 -2 -14l-12 -24q-11 -18 -19 -36t-16 -30t-16 -29l-25 -41q-14 -25 -39 -45q-71 -71 -129 -71h-12q-84 10 -112 51 q-50 73 -50 166l2 76v8l-8 -19l-12 -18q-37 -74 -117 -129q-96 -97 -254 -119q-32 -4 -82 9q-107 29 -143 73l-15 16q-20 20 -37 43t-30 76q-29 82 -28 173t15 153l21 117q15 64 25 80q15 26 29 64q13 38 30 56q8 14 28 39q12 28 31 47q55 74 88 96q6 4 23 21q35 41 102 78 l8 6l72 40l40 15q84 33 159 23q6 -2 18 -2q66 -1 122 -57t59 -68t8 -17q2 6 5 28t6 31t4 14t3 9t3 11q1 8 11 22t31 2l25 -10q8 -6 8 -25l-19 -71l-41 -197l-4 -39q0 -20 -8 -41l-10 -63q-7 -62 -19 -98t-15 -72t-11 -63t-13 -47t-21 -81q-16 -59 -18 -141q-6 -199 93 -201 q14 0 39 10q55 29 84 72q66 83 92 139q16 31 34 24t19 -20zM836 883q4 17 4 56q0 40 -2 51t-19 46t-26 47q-72 78 -148 78q-49 0 -81 -13q-33 -13 -38 -13q-8 -8 -16 -9q-80 -26 -119 -62t-57 -48l-37 -37l-6 -4l-25 -29q-98 -125 -121 -184l-12 -29q-25 -57 -29 -88 l-26 -135q-6 -47 -6 -90v-23q2 -8 1 -49t21 -115v-4q29 -85 105 -127q70 -33 108 -32h21l18 2q36 0 88 26q134 55 228 208q54 87 70 132q18 46 30 94t42 151t30 142t2 52v6z" glyph-name="Agrave" horiz-adv-x="1095" unicode=""/><glyph d="M696 1333q-12 1 -17 11q-8 17 9 45q36 39 70 88t42 56t20 7t24 -8q2 -4 8 -17t-8 -30q-96 -102 -116 -127t-32 -25zM1155 276q0 -6 -2 -14l-12 -24q-11 -18 -19 -36t-16 -30t-16 -29l-25 -41q-14 -25 -39 -45q-71 -71 -129 -71h-12q-84 10 -112 51q-50 73 -50 166l2 76v8 l-8 -19l-12 -18q-37 -74 -117 -129q-96 -97 -254 -119q-32 -4 -82 9q-107 29 -143 73l-15 16q-20 20 -37 43t-30 76q-29 82 -28 173t15 153l21 117q15 64 25 80q15 26 29 64q13 38 30 56q8 14 28 39q12 28 31 47q55 74 88 96q6 4 23 21q35 41 102 78l8 6l72 40l40 15 q84 33 159 23q6 -2 18 -2q66 -1 122 -57t59 -68t8 -17q2 6 5 28t6 31t4 14t3 9t3 11q1 8 11 22t31 2l25 -10q8 -6 8 -25l-19 -71l-41 -197l-4 -39q0 -20 -8 -41l-10 -63q-7 -62 -19 -98t-15 -72t-11 -63t-13 -47t-21 -81q-16 -59 -18 -141q-6 -199 93 -201q14 0 39 10 q55 29 84 72q66 83 92 139q16 31 34 24t19 -20zM836 883q4 17 4 56q0 40 -2 51t-19 46t-26 47q-72 78 -148 78q-49 0 -81 -13q-33 -13 -38 -13q-8 -8 -16 -9q-80 -26 -119 -62t-57 -48l-37 -37l-6 -4l-25 -29q-98 -125 -121 -184l-12 -29q-25 -57 -29 -88l-26 -135 q-6 -47 -6 -90v-23q2 -8 1 -49t21 -115v-4q29 -85 105 -127q70 -33 108 -32h21l18 2q36 0 88 26q134 55 228 208q54 87 70 132q18 46 30 94t42 151t30 142t2 52v6z" glyph-name="Aacute" horiz-adv-x="1095" unicode=""/><glyph d="M629 1329h-4q-25 4 -25 27q-2 10 14 26t23 31q29 37 39 47t15 16t9 9q2 2 16 19t38 17q25 1 37 -28t13 -36t15 -39t15 -35q2 -3 6 -17q8 -12 -9 -20q-6 -6 -22 -7h-8q-21 7 -21 27q-12 18 -17 34t-9 25l-9 21q0 6 -2 10q-41 -35 -86 -104q-10 -23 -28 -23zM1155 276 q0 -6 -2 -14l-12 -24q-11 -18 -19 -36t-16 -30t-16 -29l-25 -41q-14 -25 -39 -45q-71 -71 -129 -71h-12q-84 10 -112 51q-50 73 -50 166l2 76v8l-8 -19l-12 -18q-37 -74 -117 -129q-96 -97 -254 -119q-32 -4 -82 9q-107 29 -143 73l-15 16q-20 20 -37 43t-30 76 q-29 82 -28 173t15 153l21 117q15 64 25 80q15 26 29 64q13 38 30 56q8 14 28 39q12 28 31 47q55 74 88 96q6 4 23 21q35 41 102 78l8 6l72 40l40 15q84 33 159 23q6 -2 18 -2q66 -1 122 -57t59 -68t8 -17q2 6 5 28t6 31t4 14t3 9t3 11q1 8 11 22t31 2l25 -10q8 -6 8 -25 l-19 -71l-41 -197l-4 -39q0 -20 -8 -41l-10 -63q-7 -62 -19 -98t-15 -72t-11 -63t-13 -47t-21 -81q-16 -59 -18 -141q-6 -199 93 -201q14 0 39 10q55 29 84 72q66 83 92 139q16 31 34 24t19 -20zM836 883q4 17 4 56q0 40 -2 51t-19 46t-26 47q-72 78 -148 78q-49 0 -81 -13 q-33 -13 -38 -13q-8 -8 -16 -9q-80 -26 -119 -62t-57 -48l-37 -37l-6 -4l-25 -29q-98 -125 -121 -184l-12 -29q-25 -57 -29 -88l-26 -135q-6 -47 -6 -90v-23q2 -8 1 -49t21 -115v-4q29 -85 105 -127q70 -33 108 -32h21l18 2q36 0 88 26q134 55 228 208q54 87 70 132 q18 46 30 94t42 151t30 142t2 52v6z" glyph-name="Acircumflex" horiz-adv-x="1095" unicode=""/><glyph d="M545 1337q-15 0 -15 21t23 43l4 6q47 41 67 45t37 4q18 0 63 -32q46 -32 75 -31q29 0 39 14q20 10 32 33l9 14q6 10 20 10t14 -18t-20 -47q-20 -30 -33 -39q-13 -10 -16 -10l-10 -7q-8 -8 -43 -8h-3q-40 0 -81 30t-76 31q-36 1 -69 -54q-3 -5 -17 -5zM1155 276 q0 -6 -2 -14l-12 -24q-11 -18 -19 -36t-16 -30t-16 -29l-25 -41q-14 -25 -39 -45q-71 -71 -129 -71h-12q-84 10 -112 51q-50 73 -50 166l2 76v8l-8 -19l-12 -18q-37 -74 -117 -129q-96 -97 -254 -119q-32 -4 -82 9q-107 29 -143 73l-15 16q-20 20 -37 43t-30 76 q-29 82 -28 173t15 153l21 117q15 64 25 80q15 26 29 64q13 38 30 56q8 14 28 39q12 28 31 47q55 74 88 96q6 4 23 21q35 41 102 78l8 6l72 40l40 15q84 33 159 23q6 -2 18 -2q66 -1 122 -57t59 -68t8 -17q2 6 5 28t6 31t4 14t3 9t3 11q1 8 11 22t31 2l25 -10q8 -6 8 -25 l-19 -71l-41 -197l-4 -39q0 -20 -8 -41l-10 -63q-7 -62 -19 -98t-15 -72t-11 -63t-13 -47t-21 -81q-16 -59 -18 -141q-6 -199 93 -201q14 0 39 10q55 29 84 72q66 83 92 139q16 31 34 24t19 -20zM836 883q4 17 4 56q0 40 -2 51t-19 46t-26 47q-72 78 -148 78q-49 0 -81 -13 q-33 -13 -38 -13q-8 -8 -16 -9q-80 -26 -119 -62t-57 -48l-37 -37l-6 -4l-25 -29q-98 -125 -121 -184l-12 -29q-25 -57 -29 -88l-26 -135q-6 -47 -6 -90v-23q2 -8 1 -49t21 -115v-4q29 -85 105 -127q70 -33 108 -32h21l18 2q36 0 88 26q134 55 228 208q54 87 70 132 q18 46 30 94t42 151t30 142t2 52v6z" glyph-name="Atilde" horiz-adv-x="1095" unicode=""/><glyph d="M1155 276q0 -6 -2 -14l-12 -24q-10 -18 -18.5 -37t-16.5 -30t-16 -28l-25 -41q-14 -25 -39 -45q-71 -71 -129 -71h-12q-84 10 -112 51q-50 73 -50 166l2 76v8l-8 -19l-12 -18q-37 -74 -117 -129q-96 -97 -254 -119q-32 -4 -82 9q-107 29 -143 73l-15 16q-20 20 -37 43 t-30 76q-29 82 -28 173t15 153l21 117q15 64 25 80q15 26 29 64q13 38 30 56q8 14 28 39q12 28 31 47q55 74 88 96q6 4 23 21q35 41 102 78l8 6l72 40q24 9 74.5 28.5t124.5 9.5q6 -2 18 -2q66 -1 122 -57t59 -68t8 -17q2 6 5 28t6 31t4 14t3 9t3 11q1 8 11 22t31 2l25 -10 q8 -6 8 -25l-19 -71l-41 -197l-4 -39q0 -20 -8 -41l-10 -63q-7 -62 -19 -98t-15 -72t-11 -63t-13 -47.5t-21 -80.5q-16 -59 -18 -141q-6 -201 93 -201q14 0 39 10q55 29 84 72q66 83 92 139q16 31 34 24t19 -20zM836 883q4 17 4 56q0 40 -2 51t-19 46t-26 47q-72 78 -148 78 q-49 0 -81 -13q-33 -13 -38 -13q-8 -8 -16 -9q-80 -26 -119 -62t-57 -48l-37 -37l-6 -4l-25 -29q-98 -125 -121 -184l-12 -29q-25 -57 -29 -88l-26 -135q-6 -47 -6 -90v-23q2 -8 1 -49t21 -115v-4q29 -85 105 -127q70 -33 108 -32h21l18 2q36 0 88 26q134 55 228 208 q54 87 70 132q18 46 30 94t42 151t30 142t2 52v6zM625 1390q0 -20 -20.5 -37.5t-37 -17.5t-28 12.5t-11.5 28.5q1 48 52 62q18 0 31.5 -14t13.5 -34zM725 1378q0 22 17.5 39t34 17t30.5 -12.5t14 -28.5q0 -50 -57 -62q-14 0 -26.5 12.5t-12.5 34.5z" glyph-name="Adieresis" horiz-adv-x="1095" unicode=""/><glyph d="M1155 276q0 -6 -2 -14l-12 -24q-10 -18 -18.5 -37t-16.5 -30t-16 -28l-25 -41q-14 -25 -39 -45q-71 -71 -129 -71h-12q-84 10 -112 51q-50 73 -50 166l2 76v8l-8 -19l-12 -18q-37 -74 -117 -129q-96 -97 -254 -119q-32 -4 -82 9q-107 29 -143 73l-15 16q-20 20 -37 43 t-30 76q-29 82 -28 173t15 153l21 117q15 64 25 80q15 26 29 64q13 38 30 56q8 14 28 39q12 28 31 47q55 74 88 96q6 4 23 21q35 41 102 78l8 6l72 40q24 9 74.5 28.5t124.5 9.5q6 -2 18 -2q66 -1 122 -57t59 -68t8 -17q2 6 5 28t6 31t4 14t3 9t3 11q1 8 11 22t31 2l25 -10 q8 -6 8 -25l-19 -71l-41 -197l-4 -39q0 -20 -8 -41l-10 -63q-7 -62 -19 -98t-15 -72t-11 -63t-13 -47.5t-21 -80.5q-16 -59 -18 -141q-6 -201 93 -201q14 0 39 10q55 29 84 72q66 83 92 139q16 31 34 24t19 -20zM836 883q4 17 4 56q0 40 -2 51t-19 46t-26 47q-72 78 -148 78 q-49 0 -81 -13q-33 -13 -38 -13q-8 -8 -16 -9q-80 -26 -119 -62t-57 -48l-37 -37l-6 -4l-25 -29q-98 -125 -121 -184l-12 -29q-25 -57 -29 -88l-26 -135q-6 -47 -6 -90v-23q2 -8 1 -49t21 -115v-4q29 -85 105 -127q70 -33 108 -32h21l18 2q36 0 88 26q134 55 228 208 q54 87 70 132q18 46 30 94t42 151t30 142t2 52v6zM713 1376q53 0 53 41q0 33 -43 33q-14 0 -21 -4q-23 -10 -22 -31q0 -39 33 -39zM725 1495q37 0 58.5 -23.5t21.5 -47.5t-2 -31q-23 -61 -76 -62q-86 0 -86 80q0 29 23.5 56.5t60.5 27.5z" glyph-name="Aring" horiz-adv-x="1095" unicode=""/><glyph d="M1400 911q-26 0 -57.5 30t-31.5 63t22 69q9 10 27 10t18 -18t-6 -32.5t-6 -24.5q0 -39 43 -39l33 2q4 0 22 6l2 2q6 2 23 18l10 19q14 39 14 51t-6 25l-12 28q-6 8 -16 13q-19 17 -54 28l-77 10q-37 0 -88 -10h-5l-41 -10l-40 -21l-27 -16l-45 -37l-19 -20l-14 -25 l-14 -31q-12 -20 -19 -40l-6 -25q-6 -20 -6 -43l-2 -43q21 -84 41 -84q1 0 41 10l39 4l33 2h4q37 0 51 -4h4q72 -12 72 -76q-9 -43 -41 -55t-39 -12h-33q-69 0 -143 49q-8 4 -17 4l-12 -2l-27 -14q-41 -23 -47 -29l-63 -70l-21 -30q-2 -4 -7 -14.5t-9 -14.5l-12 -29 q-58 -129 -22.5 -217t40.5 -96l16 -20q8 -12 13 -13l24 -22q49 -33 62 -37l20 -8l60 -17q37 -10 43 -10l36 -2q18 -2 62.5 5t67.5 10t78 31q55 29 87 87l11 21q4 8 7 23.5t11 35.5q0 29 -10 49l-17 29q-30 26 -49 26h-12q-25 0 -41 -10l-10 -10q-29 -12 -29 -36q0 -25 6 -40 q0 -10 -9 -17t-17 -7q-35 0 -39 45q0 61 27.5 84.5t68.5 40.5q25 6 27 6h14q17 0 47 -6l29 -13q14 -4 22 -12l29 -29l14 -26q4 -4 10 -29l7 -35l-4 -26q0 -26 -25 -76l2 2q0 -11 -24.5 -43t-53.5 -51q-4 -5 -39 -27q-35 -21 -63 -33q-8 0 -18 -6t-25 -10q-100 -14 -125 -14 l-23 2l-30 2q-10 0 -66 8l-68 20q-27 10 -32 15l-21 12q-25 7 -57 39q-8 4 -18.5 20.5t-12.5 18.5l-2 4q-25 25 -41 61l-16 43q-14 33 -15 92l-26 -51l-12 -18q-28 -53 -68.5 -88.5t-87.5 -76.5q-47 -40 -111 -61.5t-108 -21.5t-80 10q-104 28 -141 72l-15 16 q-96 96 -96 320q0 27 16 125l21 117q23 80 51 131q8 39 84 147l8 8q55 74 88 96q6 4 23 21q35 41 102 78l21 12q104 74 217 74l57 -4q43 0 108.5 -45t75.5 -84q2 -8 7 -13q2 6 5 28t7 34l8 26q8 33 29 33q14 0 29.5 -9t15.5 -21q2 -2 2 -9l-19 -71l-41 -197q0 -31 -15 -81 t-15 -79q-10 -68 -19 -94l47 41q43 33 60 41l4 4q18 8 22 10l-6 9l-20 53l-13 55v45l11 53q6 36 20 62l15 20q2 4 4 11.5t4 11.5l16 22q12 16 21 25l26 27q4 2 17.5 14t23.5 16l12 8q12 14 46 23l28 12q8 2 24.5 8.5t26.5 8.5l33 4l27 2q66 0 143 -19h2q11 -3 44 -21 q34 -19 40 -28l31 -49l6 -20q4 -16 4 -27l-2 -14q0 -8 -2 -13.5t-4 -12.5t-4 -13l-17 -35q-23 -27 -41 -39q-35 -14 -47 -18l-20 -5q-20 -4 -46 -4zM836 883q4 17 4 57.5t-4 52.5q0 39 -43 90q-72 78 -148 78q-45 0 -106 -22q-20 -12 -29 -13q-74 -25 -139 -79 q-75 -68 -80 -72l-25 -29q-88 -106 -121 -184l-12 -29q-25 -57 -29 -88l-26 -135q-8 -66 -8 -96l4 -39v-15q0 -59 20 -127v-4q27 -74 91.5 -117.5t126.5 -43.5t122 30q127 47 201 168q6 10 65 102.5t76 223.5q57 172 58 256q0 16 2 29v6zM1243 715q-10 8 -50 9t-79 -7l10 -6 l33 -13q14 -6 64 -6q24 5 24 17z" glyph-name="AE" horiz-adv-x="1591" unicode=""/><glyph d="M12 614q0 2 14 69t78 212q41 79 120 159t122 107l55 31q73 32 134 39q61 17 118 -6q6 -6 19 -6q77 -24 98 -45q31 -18 41 -39q9 -12 23 -26q14 -13 22 -45t11 -45t-5 -63q-14 -56 -36 -80t-33 -42q-12 -18 -58 -48t-117 -22h-2q-52 6 -82 43t-20 80v4q14 45 31 51 q4 2 19 0q16 -2 20 -18t-6 -30t-7 -32q2 -19 25 -26q43 -18 93 6q106 52 106 162q0 44 -24 80t-66 53l-7 6l-12 2q-16 8 -69 16q-54 8 -97 -2q-12 0 -28 -8l-21 -6q-70 -29 -82 -39t-16 -10q-76 -53 -137 -125l-52 -78q-10 -10 -18 -35q-10 -18 -19 -45l-20 -47l-12 -31 q-12 -37 -21 -69l-14 -105l-6 -39q-8 -92 16 -184t80 -148q51 -59 111 -84q15 -10 65 -26t134 -14q84 0 130 12q88 23 166 108q48 58 58 78t17.5 28.5t27.5 0.5q19 -8 6 -35l-19 -35q-12 -19 -47 -65q-110 -143 -278 -158l-52 -53q95 -45 64 -125q-14 -41 -51 -67.5 t-73 -16.5t-54.5 32.5t-9.5 47.5q21 45 49 -6l2 -2q8 -14 22 -23q20 -4 39 9.5t28 37.5t-6.5 40t-28.5 20t-24.5 2t-15.5 -2q-20 6 -14 30q10 16 16 21l43 53q-27 0 -106 6l-23 4q-8 0 -29 8l-34 9q-139 41 -205 170q-12 18 -20 27t-11 14v4q-5 18 -25 68t-21 87 q-1 39 -2 75t11 97l2 25v22z" glyph-name="Ccedilla" horiz-adv-x="829" unicode=""/><glyph d="M285 877q25 -91 39 -91l45 11l22 4l19 2l32 2h4q39 0 54 -4h4q74 -16 74 -82l-3 -10q-4 -31 -36 -50q-38 -12 -43 -12h-35q-9 0 -51 9q-42 8 -74 28q-31 20 -39 21l-12 -3l-27 -16q-37 -18 -49 -31l-51 -53l-15 -20q-6 -8 -13 -21t-13 -26t-11 -17l-14 -31 q-26 -84 -26 -126q1 -97 40 -195l7 -10l8 -15l20 -22l25 -23q49 -35 63 -39l23 -10l33 -10l26 -6q41 -10 45 -11l29 -2h8q45 0 135 15q26 5 95 43q39 18 75 84l11 20q4 8 7 24.5t11 39.5q0 29 -10 53l-17 31l-14 12q-28 14 -37 14h-12q-27 0 -43 -10l-10 -10 q-19 -10 -22 -21.5t-5 -18.5t-2 -9l6 -33q0 -25 -29 -25q-34 1 -36 55t28.5 84.5t57.5 36.5l10 5q25 6 29 6h14q17 0 47 -6l31 -13q16 -8 22 -14l19 -16l12 -15l14 -26l11 -31l6 -37l-4 -29q0 -23 -17 -63l-8 -19l2 2q0 -9 -30 -48t-71 -67t-65 -38t-34 -16t-29 -11 q-106 -14 -129 -14l-25 2l-31 2q-11 0 -67 8l-33 10l-35 13q-31 12 -35 14l-22 12q-33 14 -55 41q-12 8 -23 25l-12 18l-2 4q-15 15 -33 45l-10 21l-11 31q-20 47 -20 112v47l2 15q0 25 6 49l2 4l15 55l10 31l8 18l6 15l25 47l30 41l27 31l41 36q6 4 25 18t36 25l5 5 q16 8 24 10q-6 10 -29 65l-10 49l-2 11v47l10 57q11 43 21 66l16 22q2 4 4 11.5t4 11.5l17 24q18 25 24 31l21 18l2 7q6 4 34.5 27t67.5 38l31 12q8 2 24.5 8.5t26.5 8.5l35 6l27 2q61 0 147 -20h2l51 -25q25 -16 33 -29l23 -32l12 -19l6 -22q4 -16 4 -27l-2 -16l-10 -41v-2 q-6 -16 -16 -35l-15 -17q-24 -31 -94 -49h-4q-20 -4 -30.5 -4t-38.5 10t-29 15q-41 25 -41 64t22 83q16 12 33 10q14 -8 14 -20t-7 -32t-3 -36q0 -18 18 -28l25 -7l25 3h2q2 2 6 2t22 6l2 2q10 4 25 18l10 21q14 39 15 51v2q0 14 -7 27l-12 30q-2 3 -21 18q-20 15 -53 25 q-74 12 -96 12t-76 -10h-4l-41 -12l-24 -12l-19 -8l-24 -19q-24 -15 -40 -30q-16 -16 -26 -31l-24 -45q-22 -48 -25 -58l-6 -26q-6 -20 -6 -45zM512 731q-8 10 -50 11t-83 -7l10 -8l35 -12q14 -6 65 -6q25 5 25 16zM508 1546q0 4 9 19q11 18 25.5 10.5t22.5 -23.5 q43 -132 49 -154t2 -28q-22 -17 -36 2q0 2 -4.5 8t-9.5 25t-24.5 61t-24.5 56z" glyph-name="Egrave" horiz-adv-x="870" unicode=""/><glyph d="M699 1552q16 0 28 -8q2 -4 8 -17t-8 -30q-96 -102 -123 -135t-43 -4q-7 15 10 43q35 39 101 129q11 22 27 22zM285 877q25 -91 39 -91l45 11l22 4l19 2l32 2h4q39 0 54 -4h4q74 -16 74 -82l-3 -10q-4 -31 -36 -50q-38 -12 -43 -12h-35q-9 0 -51 9q-42 8 -74 28 q-31 20 -39 21l-12 -3l-27 -16q-37 -18 -49 -31l-51 -53l-15 -20q-6 -8 -13 -21t-13 -25q-6 -13 -11 -18l-14 -31q-45 -139 -14 -236q19 -60 28 -85l7 -10l8 -15l20 -22l25 -23q49 -35 63 -39l23 -10l33 -10l26 -6q41 -10 45 -11l29 -2h8q45 0 135 15q26 5 95 43 q39 18 75 84l11 20q4 8 7 24t11 40q0 29 -10 53l-17 31l-14 12q-28 14 -37 14h-12q-27 0 -43 -10l-10 -10q-19 -10 -24 -29q-1 -4 -3 -11t-2 -9l6 -33q0 -25 -29 -25q-34 1 -36 55t40 96q19 19 46 25l10 5q25 6 29 6h14q17 0 47 -6l31 -13q16 -8 22 -14l19 -16l12 -15 l14 -26l11 -31l6 -37l-4 -29q0 -23 -17 -63l-8 -19l2 2q0 -9 -29 -48q-29 -38 -71 -67q-42 -28 -66 -38t-34 -16t-29 -11q-106 -14 -129 -14l-25 2l-31 2q-11 0 -67 8l-33 10l-35 13q-31 12 -35 14l-22 12q-33 14 -55 41q-12 8 -23 25l-12 18l-2 4q-15 15 -33 45l-10 21 l-11 31q-20 47 -20 112v47l2 15q0 25 6 49l2 4l15 55l10 31l8 18l6 15l25 47l30 41l27 31l41 36q6 4 22 16t39 27l5 5q16 8 24 10q-6 10 -29 65l-10 49l-2 11v47l10 57q11 43 21 66l16 22q2 4 4 11t4 12l17 24q18 25 24 31l21 18l2 7q6 4 32 26t70 39l31 12q9 3 25 9t26 8 l35 6l27 2q61 0 147 -20h2l51 -25q25 -16 33 -29l23 -32l12 -19l6 -22q4 -16 4 -27l-2 -16l-10 -41v-2q-6 -16 -16 -35l-15 -17q-24 -31 -94 -49h-4q-21 -4 -31 -4t-38 10t-29 15q-41 25 -41 64t22 83q16 12 33 10q14 -8 14 -20t-7 -32t-3 -36q0 -18 18 -28l25 -7l25 3h2 q2 2 6 2t22 6l2 2q10 4 25 18l10 21q14 39 15 51v2q0 14 -7 27l-12 30q-2 3 -21 18q-20 15 -53 25q-74 12 -96 12t-76 -10h-4l-41 -12l-24 -12l-19 -8l-24 -19q-24 -15 -40 -30q-16 -16 -26 -31l-24 -45q-22 -48 -25 -58l-6 -26q-6 -20 -6 -45zM512 731q-8 10 -50 11t-83 -7 l10 -8l35 -12q14 -6 65 -6q25 5 25 16z" glyph-name="Eacute" horiz-adv-x="870" unicode=""/><glyph d="M518 1343h-4q-25 4 -25 27q-3 10 13 26t24 31q29 37 45 56q3 2 9 8t10 8q2 1 16 19t38 18t36 -29t13 -35t12 -35q11 -28 16 -35q4 -7 8 -22q8 -12 -8 -20q-6 -6 -23 -6h-8q-20 7 -20 26q-12 18 -18 34t-9 26l-8 20q0 6 -2 10q-41 -35 -86 -104q-10 -23 -29 -23zM285 877 q25 -91 39 -91l45 11l22 4l19 2l32 2h4q39 0 54 -4h4q74 -16 74 -82l-3 -10q-4 -31 -36 -50q-38 -12 -43 -12h-35q-9 0 -51 9q-42 8 -74 28q-31 20 -39 21l-12 -3l-27 -16q-37 -18 -49 -31l-51 -53l-15 -20q-6 -8 -13 -21t-13 -25q-6 -13 -11 -18l-14 -31q-45 -139 -14 -236 q19 -60 28 -85l7 -10l8 -15l20 -22l25 -23q49 -35 63 -39l23 -10l33 -10l26 -6q41 -10 45 -11l29 -2h8q45 0 135 15q26 5 95 43q39 18 75 84l11 20q4 8 7 24t11 40q0 29 -10 53l-17 31l-14 12q-28 14 -37 14h-12q-27 0 -43 -10l-10 -10q-19 -10 -24 -29q-1 -4 -3 -11t-2 -9 l6 -33q0 -25 -29 -25q-34 1 -36 55t40 96q19 19 46 25l10 5q25 6 29 6h14q17 0 47 -6l31 -13q16 -8 22 -14l19 -16l12 -15l14 -26l11 -31l6 -37l-4 -29q0 -23 -17 -63l-8 -19l2 2q0 -9 -29 -48q-29 -38 -71 -67q-42 -28 -66 -38t-34 -16t-29 -11q-106 -14 -129 -14l-25 2 l-31 2q-11 0 -67 8l-33 10l-35 13q-31 12 -35 14l-22 12q-33 14 -55 41q-12 8 -23 25l-12 18l-2 4q-15 15 -33 45l-10 21l-11 31q-20 47 -20 112v47l2 15q0 25 6 49l2 4l15 55l10 31l8 18l6 15l25 47l30 41l27 31l41 36q6 4 22 16t39 27l5 5q16 8 24 10q-6 10 -29 65l-10 49 l-2 11v47l10 57q11 43 21 66l16 22q2 4 4 11t4 12l17 24q18 25 24 31l21 18l2 7q6 4 32 26t70 39l31 12q9 3 25 9t26 8l35 6l27 2q61 0 147 -20h2l51 -25q25 -16 33 -29l23 -32l12 -19l6 -22q4 -16 4 -27l-2 -16l-10 -41v-2q-6 -16 -16 -35l-15 -17q-24 -31 -94 -49h-4 q-21 -4 -31 -4t-38 10t-29 15q-41 25 -41 64t22 83q16 12 33 10q14 -8 14 -20t-7 -32t-3 -36q0 -18 18 -28l25 -7l25 3h2q2 2 6 2t22 6l2 2q10 4 25 18l10 21q14 39 15 51v2q0 14 -7 27l-12 30q-2 3 -21 18q-20 15 -53 25q-74 12 -96 12t-76 -10h-4l-41 -12l-24 -12l-19 -8 l-24 -19q-24 -15 -40 -30q-16 -16 -26 -31l-24 -45q-22 -48 -25 -58l-6 -26q-6 -20 -6 -45zM512 731q-8 10 -50 11t-83 -7l10 -8l35 -12q14 -6 65 -6q25 5 25 16z" glyph-name="Ecircumflex" horiz-adv-x="870" unicode=""/><glyph d="M285 877q25 -91 39 -91l45 11l22 4l19 2l32 2h4q39 0 54 -4h4q74 -16 74 -82l-3 -10q-4 -31 -36 -50q-38 -12 -43 -12h-35q-9 0 -51 9q-42 8 -74 28q-31 20 -39 21l-12 -3l-27 -16q-37 -18 -49 -31l-51 -53l-15 -20q-6 -8 -13 -21t-13 -26t-11 -17l-14 -31 q-26 -84 -26 -126q1 -97 40 -195l7 -10l8 -15l20 -22l25 -23q49 -35 63 -39l23 -10l33 -10l26 -6q41 -10 45 -11l29 -2h8q45 0 135 15q26 5 95 43q39 18 75 84l11 20q4 8 7 24.5t11 39.5q0 29 -10 53l-17 31l-14 12q-28 14 -37 14h-12q-27 0 -43 -10l-10 -10 q-19 -10 -22 -21.5t-5 -18.5t-2 -9l6 -33q0 -25 -29 -25q-34 1 -36 55t28.5 84.5t57.5 36.5l10 5q25 6 29 6h14q17 0 47 -6l31 -13q16 -8 22 -14l19 -16l12 -15l14 -26l11 -31l6 -37l-4 -29q0 -23 -17 -63l-8 -19l2 2q0 -9 -30 -48t-71 -67t-65 -38t-34 -16t-29 -11 q-106 -14 -129 -14l-25 2l-31 2q-11 0 -67 8l-33 10l-35 13q-31 12 -35 14l-22 12q-33 14 -55 41q-12 8 -23 25l-12 18l-2 4q-15 15 -33 45l-10 21l-11 31q-20 47 -20 112v47l2 15q0 25 6 49l2 4l15 55l10 31l8 18l6 15l25 47l30 41l27 31l41 36q6 4 25 18t36 25l5 5 q16 8 24 10q-6 10 -29 65l-10 49l-2 11v47l10 57q11 43 21 66l16 22q2 4 4 11.5t4 11.5l17 24q18 25 24 31l21 18l2 7q6 4 34.5 27t67.5 38l31 12q8 2 24.5 8.5t26.5 8.5l35 6l27 2q61 0 147 -20h2l51 -25q25 -16 33 -29l23 -32l12 -19l6 -22q4 -16 4 -27l-2 -16l-10 -41v-2 q-6 -16 -16 -35l-15 -17q-24 -31 -94 -49h-4q-20 -4 -30.5 -4t-38.5 10t-29 15q-41 25 -41 64t22 83q16 12 33 10q14 -8 14 -20t-7 -32t-3 -36q0 -18 18 -28l25 -7l25 3h2q2 2 6 2t22 6l2 2q10 4 25 18l10 21q14 39 15 51v2q0 14 -7 27l-12 30q-2 3 -21 18q-20 15 -53 25 q-74 12 -96 12t-76 -10h-4l-41 -12l-24 -12l-19 -8l-24 -19q-24 -15 -40 -30q-16 -16 -26 -31l-24 -45q-22 -48 -25 -58l-6 -26q-6 -20 -6 -45zM512 731q-8 10 -50 11t-83 -7l10 -8l35 -12q14 -6 65 -6q25 5 25 16zM590 1440q0 -20 -20.5 -38t-37 -18t-27.5 12.5t-11 28.5 q0 48 51 62q18 0 31.5 -13.5t13.5 -33.5zM690 1426q0 22 17.5 39.5t34 17.5t30.5 -12.5t14 -28.5q0 -50 -57 -62q-14 0 -26.5 12t-12.5 34z" glyph-name="Edieresis" horiz-adv-x="870" unicode=""/><glyph d="M248 242q-12 0 -35 24q1 4 -13 16t-28 13q-66 13 -92 -51q-14 -31 -14 -72q0 -78 108 -115q31 -6 62.5 -6t73.5 12t57 21l24 12q83 42 150 160q44 70 65 146.5t25 86.5q4 9 10 33t13.5 57t17.5 81t18 74q8 27 10 46l7 43q6 27 15 78t26 141l2 23l6 37q4 15 8 57l4 45l2 4 q-8 -2 -18 -12q-8 -4 -36 -26t-60 -33q-32 -12 -58 -24q-25 -12 -50 -20q-24 -7 -66 -17t-68 -11q-167 -13 -219 -80q-41 -45 -33 -100v-11q2 -43 55 -71t102 -4q50 25 50 78q0 12 -26 12t-32 26q-2 8 5.5 18.5t17.5 12.5h31q70 -14 61 -98q-8 -49 -57 -90q-72 -33 -115 -27 h-10q-45 2 -84 35q-25 24 -37 40q-32 41 -24 123q7 82 81 130q39 39 91.5 45t60.5 10t22 6t40 5.5t71 14t67 14.5t38 16q16 10 40 19t58 33.5t41 28.5q18 18 35 32t35 32q18 19 38 14q29 0 29 -37l-10 -45v-10l-5 -25l-14 -88q-8 -32 -8 -51l-4 -35q-3 -19 -8 -55 q-4 -35 -17 -101t-25 -134t-30 -154q-59 -225 -76 -258q-20 -57 -35 -82q-49 -110 -108 -154q-123 -110 -254 -108h-14q-29 0 -43 2h-7q-52 8 -112 40t-72 113q-8 39 0 72q18 94 98 135q25 10 56 11q72 0 114 -70q2 -2 2 -4q12 -33 -10 -43q-4 -6 -16 -6zM788 1452l-71 174 q0 4 9 19t26 8q12 0 22 -21q43 -132 49 -154t2 -28q-21 -17 -37 2z" glyph-name="Igrave" horiz-adv-x="829" unicode=""/><glyph d="M762 1413q-12 0 -19 12q-9 18 18 50q29 32 63 81q34 48 41 56t19 8t25 -8q2 -4 8 -17t-8 -30q-96 -102 -116 -127q-19 -25 -31 -25zM248 242q-12 0 -35 24q1 4 -13 16t-28 13q-66 13 -92 -51q-14 -31 -14 -72q0 -78 108 -115q31 -6 62 -6q32 0 74 12t57 21l24 12 q83 42 150 160q39 62 63 143q23 80 29 96t17 67t18 71q14 74 22 101t10 46l7 43q6 27 15 78t26 141l2 23l6 37q4 15 8 57l4 45l2 4q-8 -2 -18 -12q-8 -4 -36 -26t-60 -33q-32 -12 -59 -25q-26 -13 -50 -19q-23 -7 -65 -17t-68 -11q-167 -13 -219 -80q-41 -45 -33 -100v-11 q2 -43 55 -71t102 -4q50 25 50 78q0 12 -26 12t-32 26q-2 9 5 19t18 12h31q70 -14 61 -98q-8 -49 -57 -90q-72 -33 -115 -27h-10q-45 2 -84 35q-25 24 -37 40q-32 41 -24 123q7 82 81 130q39 39 126 49q18 2 26 6q10 5 53 10q44 5 106 20q63 16 79 26t40 19t59 34 q34 25 40 28q35 35 53 47q32 37 55 31q29 0 29 -37l-10 -45v-10l-5 -25l-14 -88q-8 -32 -8 -51l-4 -35q-3 -19 -8 -55q-4 -35 -16 -94t-26 -144q-15 -86 -30 -151q-59 -225 -76 -258q-20 -57 -35 -82q-49 -110 -108 -154q-123 -110 -254 -108h-14q-29 0 -43 2h-7 q-52 8 -112 40t-72 113q-8 39 0 72q18 94 98 135q25 10 56 11q72 0 114 -70q2 -2 2 -4q12 -33 -10 -43q-4 -6 -16 -6z" glyph-name="Iacute" horiz-adv-x="829" unicode=""/><glyph d="M868 1595q39 0 50 -63q2 -8 16 -41t15 -35t5 -16q8 -12 -8 -21q-6 -6 -22 -6h-9q-20 7 -20 27l-27 59l-8 21q0 6 -2 10q-41 -35 -86 -105q-10 -23 -29 -22h-4q-25 4 -24 27q-3 10 11 24t26 33q29 37 39 47t15 16t8 8t16 20q13 17 38 17zM248 242q-12 0 -35 24q1 4 -13 16 t-28 13q-66 13 -92 -51q-14 -31 -14 -72q0 -78 108 -115q31 -6 62 -6q32 0 74 12t57 21l24 12q83 42 150 160q39 62 63 143q23 80 29 96t17 67t18 71q14 74 22 101t10 46l7 43q6 27 15 78t26 141l2 23l6 37q4 15 8 57l4 45l2 4q-8 -2 -18 -12q-8 -4 -36 -26t-60 -33 q-32 -12 -59 -25q-26 -13 -50 -19q-23 -7 -65 -17t-68 -11q-167 -13 -219 -80q-41 -45 -33 -100v-11q2 -43 55 -71t102 -4q50 25 50 78q0 12 -26 12t-32 26q-2 9 5 19t18 12h31q70 -14 61 -98q-8 -49 -57 -90q-72 -33 -115 -27h-10q-45 2 -84 35q-25 24 -37 40 q-32 41 -24 123q7 82 81 130q39 39 126 49q18 2 26 6q10 5 53 10q44 5 106 20q63 16 79 26t40 19t59 34q34 25 40 28q35 35 53 47q32 37 55 31q29 0 29 -37l-10 -45v-10l-5 -25l-14 -88q-8 -32 -8 -51l-4 -35q-3 -19 -8 -55q-4 -35 -16 -94t-26 -144q-15 -86 -30 -151 q-59 -225 -76 -258q-20 -57 -35 -82q-49 -110 -108 -154q-123 -110 -254 -108h-14q-29 0 -43 2h-7q-52 8 -112 40t-72 113q-8 39 0 72q18 94 98 135q25 10 56 11q72 0 114 -70q2 -2 2 -4q12 -33 -10 -43q-4 -6 -16 -6z" glyph-name="Icircumflex" horiz-adv-x="829" unicode=""/><glyph d="M248 242q-12 0 -35 24q1 4 -13 16t-28 13q-66 13 -92 -51q-14 -31 -14 -72q0 -78 108 -115q31 -6 62.5 -6t73.5 12t57 21l24 12q83 42 150 160q44 70 65 146.5t25 86.5q4 9 10 33t13.5 57t17.5 81t18 74q8 27 10 46l7 43q6 27 15 78t26 141l2 23l6 37q4 15 8 57l4 45l2 4 q-8 -2 -18 -12q-8 -4 -36 -26t-60 -33q-32 -12 -58 -24q-25 -12 -50 -20q-24 -7 -66 -17t-68 -11q-167 -13 -219 -80q-41 -45 -33 -100v-11q2 -43 55 -71t102 -4q50 25 50 78q0 12 -26 12t-32 26q-2 8 5.5 18.5t17.5 12.5h31q70 -14 61 -98q-8 -49 -57 -90q-72 -33 -115 -27 h-10q-45 2 -84 35q-25 24 -37 40q-32 41 -24 123q7 82 81 130q39 39 91.5 45t60.5 10t22 6t40 5.5t71 14t67 14.5t38 16q16 10 40 19t58 33.5t41 28.5q18 18 35 32t35 32q18 19 38 14q29 0 29 -37l-10 -45v-10l-5 -25l-14 -88q-8 -32 -8 -51l-4 -35q-3 -19 -8 -55 q-4 -35 -17 -101t-25 -134t-30 -154q-59 -225 -76 -258q-20 -57 -35 -82q-49 -110 -108 -154q-123 -110 -254 -108h-14q-29 0 -43 2h-7q-52 8 -112 40t-72 113q-8 39 0 72q18 94 98 135q25 10 56 11q72 0 114 -70q2 -2 2 -4q12 -33 -10 -43q-4 -6 -16 -6zM778 1472 q0 -20 -20.5 -37.5t-36.5 -17.5t-27.5 12.5t-11.5 28.5q0 48 51 62q18 0 31.5 -14t13.5 -34zM879 1460q0 22 17 39t33.5 17t31 -12.5t14.5 -28.5q0 -50 -57 -62q-14 0 -26.5 12.5t-12.5 34.5z" glyph-name="Idieresis" horiz-adv-x="829" unicode=""/><glyph d="M400 1221l132 2l54 4q17 0 35 -8q119 1 215 -49q32 -16 43 -17q18 -6 104 -55q8 -10 21 -15l45 -36q3 -8 35 -40q32 -31 38 -49t17.5 -44.5t15.5 -34.5t11 -39t16.5 -65t7.5 -54l4 -94q0 -74 -3 -87t-6 -53.5t-14 -60.5q-8 -61 -30 -133q-10 -23 -13 -23q-4 -8 -12 -26 t-49 -82q-84 -117 -193 -146q-56 -28 -120 -34l-4 -2q-2 -2 -12 -2t-17 4q-75 0 -132 15t-90 20q-34 5 -108 34l-20 6q-10 10 -36 -5t-81 -42q-20 -6 -94 -10q-8 2 -16 2t-64 14h-6q-70 23 -76 84q0 16 6 37q23 82 133 72h6q69 -7 101 -25t59 -20h2q2 -2 8 -2q7 0 13 3 t22 66q0 16 4 23l13 125q4 21 9 69t7 60l-19 2q-12 -2 -62 -2t-54 6q-2 6 -2 12v4q0 35 22 35l76 -4l27 2q12 -2 24 -2v6q-1 27 17 77t20 62q2 11 9 27.5t10 24.5q6 8 12 28t37 68q70 104 159 147l2 3q77 39 95 8t-9 -49t-40 -20q-13 -3 -43 -19t-83 -82q-52 -68 -69 -129 q-12 -24 -12 -37l-17 -39q-2 -14 -10 -43l-10 -33l22 2l45 2q74 0 74 -18v-6q0 -10 -7 -21.5t-15 -11.5l-11 2h-65l-53 -2v-25q-2 -4 -2 -14q-18 -51 -15 -121l-2 -20l-8 -45q0 -10 -3 -31t-5 -37l-13 -57q-12 -12 -8 -23q5 -29 83 -39q34 -4 106 -22q14 -8 49.5 -10.5 t46.5 -6.5h14q63 -8 87 1t93 29t127 101q23 25 31 56l21 35q4 8 11 23t13 24l27 84l10 63q20 72 20 120t0.5 61.5t-4 44t-7.5 73.5t-58 156q-13 25 -59 71q-23 27 -60 47t-47 26.5t-16 8.5l-15 9q-31 25 -65 32q-18 0 -42 10t-71 17q-25 11 -67.5 9.5t-58.5 1.5t-74 3 t-156 -18.5t-133 -42.5q-55 -43 -105 -117q-41 -67 -12 -145q27 -53 90 -58q39 -4 68 15q57 29 45 71q-18 29 -3 48t42 8q43 -18 24 -84q-20 -98 -127 -119q-71 -15 -127 14q-52 35 -72 77t-16 116q0 16 12 53q70 147 189 199q16 8 41.5 10t40.5 6h2q73 25 107 25zM116 74 q18 0 38 -6q36 0 56 7t40 10t20 15l-20 11h-4q-4 2 -17 10t-75 20q-27 2 -66 -10q-18 -9 -19 -23t13 -18q16 -16 34 -16z" glyph-name="Eth" horiz-adv-x="1269" unicode=""/><glyph d="M1036 1346h-2q-37 0 -82 30t-65 31q-20 0 -34 -7t-28 -25q-14 -17 -17 -22t-17 -5q-15 0 -15 20t23 43l4 6q47 41 67 45t38 4q19 0 46 -22q62 -41 91 -41t38 14q20 10 41 47q6 10 19 11q16 0 16 -22q-1 -22 -21 -47t-22 -28q-7 -7 -22 -16q-16 -16 -58 -16zM1010 368 q0 -16 -3 -31t-7 -38t-9 -49q-6 -26 -9 -56q-3 -28 -7 -57t-6 -47v-12q-2 -4 -3 -27t-32 -37h-10q-23 0 -43 17q-6 10 -7 16v4q-4 12 -19 75t-32 107q-16 45 -22 80l-8 25q-17 66 -21 86t-8 32t-9 34q-5 20 -10 46t-11 46q-6 18 -10 29l-6 22t-9 51q-7 26 -11 48t-28 111 q-27 98 -42 177q-14 79 -26 119q0 -19 -24 -103l-9 -26q-4 -26 -27 -105q-22 -78 -42 -168t-31 -131l-18 -80l-35 -135q-2 -8 -6 -22t-6 -31t-13 -48q-10 -30 -13 -37t-11 -37t-33 -85q-16 -49 -53 -80t-48 -31q-43 -18 -83 -18h-19q-45 0 -63 21q-25 12 -35 30 q-23 23 -30 63t-2 58q5 20 22 62q17 29 37 42t30 13q37 0 41 -27q3 -14 -27 -43q-57 -56 -24 -117q12 -29 63 -32t98 44q7 7 15 19q0 6 5 10q5 3 7 9t16 30t23 58t19 55l14 55q4 16 12 37l15 62l12 61q23 79 35 117q11 38 13 49q3 12 31 128t34 144t12 46l13 55q9 37 18 55 l6 22q2 8 5 24t5 24t4 22q7 50 41 64h10q29 -4 34 -10t16 -53q12 -47 14 -65t8 -47t12 -55t12 -67q9 -29 23 -99q15 -68 19 -86t8 -31t6 -23t8 -32q6 -20 8 -33t16 -65t26 -110q14 -56 22 -80t18 -64t17 -58t15 -44t14 -50q7 -23 9 -34v-4q2 6 4 27t11 55q8 34 16 98 q10 39 14 96q22 128 30 155q9 27 9 33q2 6 5 22q2 16 6 26q4 8 7 27t9 28q6 27 20 72l16 55q39 129 67 183t39 76t29 53t29 47q12 16 42 31t58 18q29 3 65 -7t45 -30q4 -29 -2 -39q-2 -12 -29 -7q-51 29 -111 -2q-42 -22 -112 -180q-4 -14 -11 -22q-16 -41 -25 -71l-14 -42 t-10 -36t-17 -57q-11 -31 -17 -53t-10 -40q-2 -18 -20 -72t-38 -170l-2 -35q-4 -7 -4 -23z" glyph-name="Ntilde" horiz-adv-x="1177" unicode=""/><glyph d="M836 954q9 -35 4 -77v-19q-4 -12 2 -22q-2 -8 -2 -28t-2 -30v-14q-13 -153 -23 -172l-4 -27q0 -11 -13.5 -50.5t-25.5 -81.5q-12 -43 -22 -64v-4q-4 0 -11 -19v-4q-2 -2 -5.5 -11t-10.5 -20q-8 -23 -13 -30t-8.5 -13t-5.5 -9l-24 -36q-4 -8 -8 -14l-37 -47 q-41 -51 -90 -90t-76 -39q-45 -25 -105 -25l-6 -2q-23 0 -55 4q-37 0 -70 23q-121 60 -184 205q-6 6 -8 14t-19.5 50.5t-19.5 125.5v25q-4 45 -4 92t16.5 109.5t18.5 66.5t3 7t3 7v4q26 130 137 320q0 8 6 14q4 6 34.5 57t115.5 107q4 6 15 6t17 -10l6 -4q18 -8 7 -33 q-4 -18 -11 -27q-26 -11 -44.5 -32t-26.5 -27q-98 -115 -162 -276q-14 -45 -33 -113l-4 -21q-10 -35 -11 -58t-9 -43q-7 -19 -5 -42t-2 -39l-2 -49v-8q2 -12 4.5 -41t4.5 -45q4 -1 4 -7t13 -52q29 -102 62 -134q2 -4 28 -33q26 -28 61 -38l2 -5q6 -2 19 -7t22 -7h2 q6 -6 26 -10h58q33 4 92 27q41 20 57 38q66 57 112 131t93 193q9 34 22 100q18 18 23 86q4 68 6 76l6 109q2 27 1 46t-9 77q-8 57 -10 60t-2 15q-20 57 -43 76q-5 2 -15 9l-51 24q-17 10 -31 9t-47 -1q-63 -6 -92 -35q-20 -14 -31 -32q-23 -27 -45 -70q0 -11 -20 -57 q-2 -10 -2 -27l-8 -18q2 -31 -2 -48l2 -10q0 -37 45 -65q8 -4 33 2l2 4q25 14 34 14l4 -2q20 -6 29 -31q2 -27 -18 -43q-20 -4 -43 -14q-45 -18 -101 23q-55 47 -55 102v4q-8 43 6 90v19q8 55 58 131l6 18q8 4 16 16t10 13l4 2q48 57 123 76q31 10 86 4l4 -2q74 -6 113 -39 q16 -10 21 -13q8 -10 25 -24q17 -15 37 -63t26 -103v-25zM528 1339l-69 168l-2 6q0 4 9 19t26 8q12 0 22 -20q43 -133 49 -155t2 -28q-21 -17 -37 2z" glyph-name="Ograve" horiz-adv-x="815" unicode=""/><glyph d="M836 954q9 -35 4 -77v-19q-4 -12 2 -22q-2 -8 -2 -28t-2 -30v-14q-13 -153 -23 -172l-4 -27q0 -11 -13.5 -50.5t-25.5 -81.5q-12 -43 -22 -64v-4q-4 0 -11 -19v-4q-2 -2 -5.5 -11t-10.5 -20q-8 -23 -13 -30t-8.5 -13t-5.5 -9l-24 -36q-4 -8 -8 -14l-37 -47 q-41 -51 -90 -90t-76 -39q-45 -25 -105 -25l-6 -2q-23 0 -55 4q-37 0 -70 23q-121 60 -184 205q-6 6 -8 14t-19.5 50.5t-19.5 125.5v25q-4 45 -4 92t16.5 109.5t18.5 66.5t3 7t3 7v4q26 130 137 320q0 8 6 14q4 6 34.5 57t115.5 107q4 6 15 6t17 -10l6 -4q18 -8 7 -33 q-4 -18 -11 -27q-26 -11 -44.5 -32t-26.5 -27q-98 -115 -162 -276q-14 -45 -33 -113l-4 -21q-10 -35 -11 -58t-9 -43q-7 -19 -5 -42t-2 -39l-2 -49v-8q2 -12 4.5 -41t4.5 -45q4 -1 4 -7t13 -52q29 -102 62 -134q2 -4 28 -33q26 -28 61 -38l2 -5q6 -2 19 -7t22 -7h2 q6 -6 26 -10h58q33 4 92 27q41 20 57 38q66 57 112 131t93 193q9 34 22 100q18 18 23 86q4 68 6 76l6 109q2 27 1 46t-9 77q-8 57 -10 60t-2 15q-20 57 -43 76q-5 2 -15 9l-51 24q-17 10 -31 9t-47 -1q-63 -6 -92 -35q-20 -14 -31 -32q-23 -27 -45 -70q0 -11 -20 -57 q-2 -10 -2 -27l-8 -18q2 -31 -2 -48l2 -10q0 -37 45 -65q8 -4 33 2l2 4q25 14 34 14l4 -2q20 -6 29 -31q2 -27 -18 -43q-20 -4 -43 -14q-45 -18 -101 23q-55 47 -55 102v4q-8 43 6 90v19q8 55 58 131l6 18q8 4 16 16t10 13l4 2q48 57 123 76q31 10 86 4l4 -2q74 -6 113 -39 q16 -10 21 -13q8 -10 25 -24q17 -15 37 -63t26 -103v-25zM489 1333q-11 1 -17 11q-9 17 9 45q35 39 70 88t42 56t19 7t25 -8q2 -4 8 -17t-8 -30q-97 -102 -117 -127t-31 -25z" glyph-name="Oacute" horiz-adv-x="815" unicode=""/><glyph d="M836 954q9 -35 4 -77v-19q-4 -12 2 -22q-2 -8 -2 -28t-2 -30v-14q-13 -153 -23 -172l-4 -27q0 -11 -13.5 -50.5t-25.5 -81.5q-12 -43 -22 -64v-4q-4 0 -11 -19v-4q-2 -2 -5.5 -11t-10.5 -20q-8 -23 -13 -30t-8.5 -13t-5.5 -9l-24 -36q-4 -8 -8 -14l-37 -47 q-41 -51 -90 -90t-76 -39q-45 -25 -105 -25l-6 -2q-23 0 -55 4q-37 0 -70 23q-121 60 -184 205q-6 6 -8 14t-19.5 50.5t-19.5 125.5v25q-4 45 -4 92t16.5 109.5t18.5 66.5t3 7t3 7v4q26 130 137 320q0 8 6 14q4 6 34.5 57t115.5 107q4 6 15 6t17 -10l6 -4q18 -8 7 -33 q-4 -18 -11 -27q-26 -11 -44.5 -32t-26.5 -27q-98 -115 -162 -276q-14 -45 -33 -113l-4 -21q-10 -35 -11 -58t-9 -43q-7 -19 -5 -42t-2 -39l-2 -49v-8q2 -12 4.5 -41t4.5 -45q4 -1 4 -7t13 -52q29 -102 62 -134q2 -4 28 -33q26 -28 61 -38l2 -5q6 -2 19 -7t22 -7h2 q6 -6 26 -10h58q33 4 92 27q41 20 57 38q66 57 112 131t93 193q9 34 22 100q18 18 23 86q4 68 6 76l6 109q2 27 1 46t-9 77q-8 57 -10 60t-2 15q-20 57 -43 76q-5 2 -15 9l-51 24q-17 10 -31 9t-47 -1q-63 -6 -92 -35q-20 -14 -31 -32q-23 -27 -45 -70q0 -11 -20 -57 q-2 -10 -2 -27l-8 -18q2 -31 -2 -48l2 -10q0 -37 45 -65q8 -4 33 2l2 4q25 14 34 14l4 -2q20 -6 29 -31q2 -27 -18 -43q-20 -4 -43 -14q-45 -18 -101 23q-55 47 -55 102v4q-8 43 6 90v19q8 55 58 131l6 18q8 4 16 16t10 13l4 2q48 57 123 76q31 10 86 4l4 -2q74 -6 113 -39 q16 -10 21 -13q8 -10 25 -24q17 -15 37 -63t26 -103v-25zM453 1329h-4q-25 2 -25 27q-2 8 15 27t34 43t27 34t15 16.5t9 8.5q2 2 16 18.5t38 17.5t36 -28t14 -36t15 -40t15 -35q19 -26 -3 -36q-6 -6 -22 -7h-8q-21 7 -21 27q-12 18 -17 34t-9 25l-4 15q-5 14 -7 16 q-41 -35 -86 -104q-10 -23 -28 -23z" glyph-name="Ocircumflex" horiz-adv-x="815" unicode=""/><glyph d="M836 954q9 -35 4 -77v-19q-4 -12 2 -22q-2 -8 -2 -28t-2 -30v-14q-13 -153 -23 -172l-4 -27q0 -11 -13.5 -50.5t-25.5 -81.5q-12 -43 -22 -64v-4q-4 0 -11 -19v-4q-2 -2 -5.5 -11t-10.5 -20q-8 -23 -13 -30t-8.5 -13t-5.5 -9l-24 -36q-4 -8 -8 -14l-37 -47 q-41 -51 -90 -90t-76 -39q-45 -25 -105 -25l-6 -2q-23 0 -55 4q-37 0 -70 23q-121 60 -184 205q-6 6 -8 14t-19.5 50.5t-19.5 125.5v25q-4 45 -4 92t16.5 109.5t18.5 66.5t3 7t3 7v4q26 130 137 320q0 8 6 14q4 6 34.5 57t115.5 107q4 6 15 6t17 -10l6 -4q18 -8 7 -33 q-4 -18 -11 -27q-26 -11 -44.5 -32t-26.5 -27q-98 -115 -162 -276q-14 -45 -33 -113l-4 -21q-10 -35 -11 -58t-9 -43q-7 -19 -5 -42t-2 -39l-2 -49v-8q2 -12 4.5 -41t4.5 -45q4 -1 4 -7t13 -52q29 -102 62 -134q2 -4 28 -33q26 -28 61 -38l2 -5q6 -2 19 -7t22 -7h2 q6 -6 26 -10h58q33 4 92 27q41 20 57 38q66 57 112 131t93 193q9 34 22 100q18 18 23 86q4 68 6 76l6 109q2 27 1 46t-9 77q-8 57 -10 60t-2 15q-20 57 -43 76q-5 2 -15 9l-51 24q-17 10 -31 9t-47 -1q-63 -6 -92 -35q-20 -14 -31 -32q-23 -27 -45 -70q0 -11 -20 -57 q-2 -10 -2 -27l-8 -18q2 -31 -2 -48l2 -10q0 -37 45 -65q8 -4 33 2l2 4q25 14 34 14l4 -2q20 -6 29 -31q2 -27 -18 -43q-20 -4 -43 -14q-45 -18 -101 23q-55 47 -55 102v4q-8 43 6 90v19q8 55 58 131l6 18q8 4 16 16t10 13l4 2q48 57 123 76q31 10 86 4l4 -2q74 -6 113 -39 q16 -10 21 -13q8 -10 25 -24q17 -15 37 -63t26 -103v-25zM625 1356h-2q-39 0 -82.5 30.5t-64.5 30.5t-32.5 -6t-18.5 -13t-16.5 -18.5t-12.5 -16.5t-17 -5t-14 20t22 43l4 6q47 41 67 45t36 5q17 0 64 -32q46 -32 75 -32t39 14q21 10 41 48q4 10 19 10t15 -20t-20 -47 t-22.5 -29.5t-6.5 -5.5t-6 -5l-25 -15q-12 -7 -42 -7z" glyph-name="Otilde" horiz-adv-x="815" unicode=""/><glyph d="M836 954q9 -35 4 -77v-19q-4 -12 2 -22q-2 -8 -2 -28t-2 -30v-14q-13 -153 -23 -172l-4 -27q0 -11 -13.5 -50.5t-25.5 -81.5q-12 -43 -22 -64v-4q-4 0 -11 -19v-4q-2 -2 -5.5 -11t-10.5 -20q-8 -23 -13 -30t-8.5 -13t-5.5 -9l-24 -36q-4 -8 -8 -14l-37 -47 q-41 -51 -90 -90t-76 -39q-45 -25 -105 -25l-6 -2q-23 0 -55 4q-37 0 -70 23q-121 60 -184 205q-6 6 -8 14t-19.5 50.5t-19.5 125.5v25q-4 45 -4 92t16.5 109.5t18.5 66.5t3 7t3 7v4q26 130 137 320q0 8 6 14q4 6 34.5 57t115.5 107q4 6 15 6t17 -10l6 -4q18 -8 7 -33 q-4 -18 -11 -27q-26 -11 -44.5 -32t-26.5 -27q-98 -115 -162 -276q-14 -45 -33 -113l-4 -21q-10 -35 -11 -58t-9 -43q-7 -19 -5 -42t-2 -39l-2 -49v-8q2 -12 4.5 -41t4.5 -45q4 -1 4 -7t13 -52q29 -102 62 -134q2 -4 28 -33q26 -28 61 -38l2 -5q6 -2 19 -7t22 -7h2 q6 -6 26 -10h58q33 4 92 27q41 20 57 38q66 57 112 131t93 193q9 34 22 100q18 18 23 86q4 68 6 76l6 109q2 27 1 46t-9 77q-8 57 -10 60t-2 15q-20 57 -43 76q-5 2 -15 9l-51 24q-17 10 -31 9t-47 -1q-63 -6 -92 -35q-20 -14 -31 -32q-23 -27 -45 -70q0 -11 -20 -57 q-2 -10 -2 -27l-8 -18q2 -31 -2 -48l2 -10q0 -37 45 -65q8 -4 33 2l2 4q25 14 34 14l4 -2q20 -6 29 -31q2 -27 -18 -43q-20 -4 -43 -14q-45 -18 -101 23q-55 47 -55 102v4q-8 43 6 90v19q8 55 58 131l6 18q8 4 16 16t10 13l4 2q48 57 123 76q31 10 86 4l4 -2q74 -6 113 -39 q16 -10 21 -13q8 -10 25 -24q17 -15 37 -63t26 -103v-25zM483 1406q0 -20 -20.5 -37t-36.5 -17t-27.5 12t-11.5 29q0 47 51 61q18 0 31.5 -14t13.5 -34zM584 1394q0 22 17 39t33.5 17t31 -12.5t14.5 -28.5q0 -49 -57 -61q-14 0 -26.5 12t-12.5 34z" glyph-name="Odieresis" horiz-adv-x="815" unicode=""/><glyph d="M592 326q12 -20 -2.5 -38t-32.5 -3q-8 4 -10 8l-55 61q-5 5 -13 17l-78 80l-153 -146l-10 -8q-25 -10 -39.5 8.5t18.5 50.5l51 41l94 88l7 7q-74 74 -136 141l-16 20q-10 20 4 37q10 10 23.5 8t17.5 -12l78 -82l61 -69l7 -9l61 60q74 68 106 96q23 16 34 -5t-7 -42 l-31 -31l-100 -88l-27 -27l144 -157q4 -4 4 -6z" glyph-name="multiply" horiz-adv-x="819" unicode=""/><glyph d="M39 739q26 130 137 320q0 8 6 14q4 6 34 56t116 108q4 6 15 6t18 -10l6 -4q18 -8 6 -33q-4 -18 -10 -27q-25 -11 -44.5 -32t-27.5 -27q-98 -115 -162 -276q-14 -45 -33 -113l-4 -21q-10 -35 -11 -52t-6 -35.5t-7 -25.5t0 -30t-2 -39l-2 -49v-8q3 -18 4.5 -44t3.5 -42 q4 -2 4 -10l8 -35q19 -77 42.5 -111.5t25.5 -38.5t13 -14t25 -28t50 -27l2 -5q4 -4 10 -4l23 74q57 186 65 217l53 162q14 35 103 354l61 217q6 23 8 29q-57 -6 -84 -33q-20 -14 -30 -32q-23 -27 -45 -70q0 -11 -21 -57q-2 -10 -2 -27l-8 -18q2 -31 -2 -48q9 -44 -16 -60.5 t-50 11.5q-2 2 -2 29v4q-8 43 6 90v19q8 55 58 131l6 18q8 4 16 16t15 15l4 6q39 41 59 50q71 32 111 28q20 82 30 104l9 23q0 29 43 28q14 -6 14 -26l-12 -66l-23 -73q53 -6 90 -35q16 -10 21 -13q8 -10 25 -24q17 -15 37 -63t26 -103v-25q9 -35 4 -77v-19q-4 -12 2 -22 l-4 -58v-14q-11 -129 -21 -168l-2 -4l-4 -27l-8 -30q-2 -10 -7 -24.5t-7 -23.5l-13 -47q-4 -8 -12 -33.5t-14 -37.5v-4q-4 0 -10 -19v-4q-2 -2 -6 -11.5t-11 -19.5q-8 -23 -13 -30t-8.5 -14t-5.5 -10l-24 -34q-4 -8 -8 -14l-37 -47q-41 -51 -90 -90t-76 -39 q-45 -25 -104 -25l-7 -2q-23 0 -55 4h-14l-33 -114q-6 -10 -6 -13l-10 -22q-6 -15 -18 -15t-17 4l2 -2q-19 4 -19 18t2 19l11 29l-2 -2l26 86l8 33v2q-121 60 -184 205q-6 6 -8 14t-7.5 21t-17.5 49t-14 106v25q-4 45 -4 90t14 100t16.5 64.5t4.5 13.5t3 7t3 7v4zM311 82h62 q33 4 92 27q41 20 57 38q66 57 112 131t93 193q8 31 13 55t10 45q17 17 22 86q4 68 6 76l6 109q2 27 1 46t-9 77q-8 57 -10 60t-2 15q-20 57 -43 76q-6 2 -11 6t-35 19q-30 14 -46 18l-37 -135q-33 -110 -38 -132t-37 -132.5t-44 -138.5l-10 -37q-27 -96 -45 -146l-12 -35 l2 3q-12 -43 -37 -125t-27 -91z" glyph-name="Oslash" horiz-adv-x="880" unicode=""/><glyph d="M637 1305l-70 168l-2 6q0 4 10 19t25 7q13 0 23 -20q43 -133 50 -160t-16 -31q-14 2 -20 11zM975 1004l2 26q2 16 -2 37t-3 26q1 6 -6 28q-7 23 -20 24l-2 2q-19 0 -47 -68q-8 -20 -14 -59l-19 -92q-3 -30 -17 -105q-42 -215 -26 -313q31 56 37 86q40 102 57 156 q3 20 9 36t14 46q8 29 14 43v2q4 16 4 26q16 53 19 84v15zM827 362v-8q-3 -30 11 -80q14 -74 41 -108q20 -32 59 -54t83 -6q104 36 163 166q16 31 34 24t19 -20q0 -6 -2 -14l-12 -24q-47 -80 -69 -108q-60 -76 -140 -93q-14 -4 -64 -4q-71 16 -112 69q-39 55 -62 146 q-4 8 -4 12t-2 8v4q-8 -10 -46 -54q-91 -108 -149 -134q-9 -9 -57 -31l-24 -12q-42 -23 -99 -23t-127 39q-23 16 -39 41q-39 36 -48 86t-9 101t9 125t25 130q16 58 22 93t12 53l6 31q8 30 29 105q22 74 32 138t6 102q-5 38 -29 66q-44 51 -143 39q-8 -4 -19 -7t-17 -6 q-10 -6 -17 -8q-8 -3 -12 -7q-43 -20 -64 -54q-14 -14 -27 -52q-13 -39 -11 -75t44 -73q18 -16 58 -11q31 14 30 44v2h-2q-4 0 -10 -2h-2q-25 -6 -35 11q-11 17 9 38q31 34 86 8q14 -12 18 -27v-2q12 -35 -18 -92q-29 -33 -60 -35q-66 -12 -117 19q-61 43 -67 123 q-12 109 74 190q23 20 55 43q37 18 72 23q14 8 24 8l49 4h27q4 -2 13 -2t38 -8t49 -29q24 -19 41 -45q31 -37 31 -96v-31q0 -67 -47 -234q-4 -23 -17 -67l-6 -37q-4 -10 -11 -39t-11 -43l-6 -29q-2 -6 -31 -157q-18 -150 4 -224q12 -33 34 -51t68 -35q57 -14 129 21 q102 50 161 120q59 71 68 88q10 17 26 40t16 43v6q0 31 -4 45q2 23 0 53t-1 41q1 12 -1 23v39q6 37 6 63t8 61v7q8 53 8 59l4 27v8q2 6 6 25t7 28l20 105q18 86 33 118q26 62 68 84t75 -6q51 -39 51 -104q8 -53 4 -99q-14 -98 -38 -163q-2 -18 -7 -29l-16 -55q0 -24 -16 -48 q0 -4 -4 -14t-13 -33q-2 -14 -12 -28q-18 -64 -30 -87q-13 -24 -18 -36t-9 -20q-3 -8 -7 -11q-4 -4 -10 -22q-6 -9 -10 -19t-7 -14t-5 -14t-8 -16t-5 -26z" glyph-name="Ugrave" horiz-adv-x="1177" unicode=""/><glyph d="M594 1343q-12 1 -18 11q-9 18 10 45q36 39 70 88t41 56t19 7t25 -8l9 -17q6 -13 -9 -30q-96 -102 -116 -127q-19 -25 -31 -25zM975 1004l2 26q2 16 -2 37t-3 26q1 6 -6 28q-7 23 -20 24l-2 2q-19 0 -47 -68q-8 -20 -14 -59l-19 -92q-3 -30 -17 -105q-42 -215 -26 -313 q31 56 37 86q40 102 57 156q3 20 9 36t14 46q8 29 14 43v2q4 16 4 26q16 53 19 84v15zM827 362v-8q-3 -30 11 -80q14 -74 41 -108q20 -32 59 -54t83 -6q104 36 163 166q16 31 34 24t19 -20q0 -6 -2 -14l-12 -24q-47 -80 -69 -108q-60 -76 -140 -93q-14 -4 -64 -4 q-71 16 -112 69q-39 55 -62 146q-4 8 -4 12t-2 8v4q-8 -10 -46 -54q-91 -108 -149 -134q-9 -9 -57 -31l-24 -12q-42 -23 -99 -23t-127 39q-23 16 -39 41q-39 36 -48 86t-9 101t9 125t25 130q16 58 22 93t12 53l6 31q8 30 29 105q22 74 32 138t6 102q-5 38 -29 66 q-44 51 -143 39q-8 -4 -19 -7t-17 -6q-10 -6 -17 -8q-8 -3 -12 -7q-43 -20 -64 -54q-14 -14 -27 -52q-13 -39 -11 -75t44 -73q18 -16 58 -11q31 14 30 44v2h-2q-4 0 -10 -2h-2q-25 -6 -35 11q-11 17 9 38q31 34 86 8q14 -12 18 -27v-2q12 -35 -18 -92q-29 -33 -60 -35 q-66 -12 -117 19q-61 43 -67 123q-12 109 74 190q23 20 55 43q37 18 72 23q14 8 24 8l49 4h27q4 -2 13 -2t38 -8t49 -29q24 -19 41 -45q31 -37 31 -96v-31q0 -67 -47 -234q-4 -23 -17 -67l-6 -37q-4 -10 -11 -39t-11 -43l-6 -29q-2 -6 -31 -157q-18 -150 4 -224 q12 -33 34 -51t68 -35q57 -14 129 21q102 50 161 120q59 71 68 88q10 17 26 40t16 43v6q0 31 -4 45q2 23 0 53t-1 41q1 12 -1 23v39q6 37 6 63t8 61v7q8 53 8 59l4 27v8q2 6 6 25t7 28l20 105q18 86 33 118q26 62 68 84t75 -6q51 -39 51 -104q8 -53 4 -99q-14 -98 -38 -163 q-2 -18 -7 -29l-16 -55q0 -24 -16 -48q0 -4 -4 -14t-13 -33q-2 -14 -12 -28q-18 -64 -30 -87q-13 -24 -18 -36t-9 -20q-3 -8 -7 -11q-4 -4 -10 -22q-6 -9 -10 -19t-7 -14t-5 -14t-8 -16t-5 -26z" glyph-name="Uacute" horiz-adv-x="1177" unicode=""/><glyph d="M567 1298h-4q-25 4 -24 27q-1 11 13 25t23 32q29 38 39 48l16 16q5 6 9 8q2 2 16 20t38 17q24 0 36 -29t13 -36q2 -7 10 -26l20 -48q2 -2 6 -17q8 -12 -8 -20q-6 -6 -22 -6h-9q-20 7 -20 26q-11 19 -17 35t-10 25l-8 20q0 6 -2 10q-41 -35 -86 -104q-10 -23 -29 -23z M975 1004l2 26q2 16 -2 37t-3 26q1 6 -6 28q-7 23 -20 24l-2 2q-19 0 -47 -68q-8 -20 -14 -59l-19 -92q-3 -30 -17 -105q-42 -215 -26 -313q31 56 37 86q40 102 57 156q3 20 9 36t14 46q8 29 14 43v2q4 16 4 26q16 53 19 84v15zM827 362v-8q-3 -30 11 -80q14 -74 41 -108 q20 -32 59 -54t83 -6q104 36 163 166q16 31 34 24t19 -20q0 -6 -2 -14l-12 -24q-47 -80 -69 -108q-60 -76 -140 -93q-14 -4 -64 -4q-71 16 -112 69q-39 55 -62 146q-4 8 -4 12t-2 8v4q-8 -10 -46 -54q-91 -108 -149 -134q-9 -9 -57 -31l-24 -12q-42 -23 -99 -23t-127 39 q-23 16 -39 41q-39 36 -48 86t-9 101t9 125t25 130q16 58 22 93t12 53l6 31q8 30 29 105q22 74 32 138t6 102q-5 38 -29 66q-44 51 -143 39q-8 -4 -19 -7t-17 -6q-10 -6 -17 -8q-8 -3 -12 -7q-43 -20 -64 -54q-14 -14 -27 -52q-13 -39 -11 -75t44 -73q18 -16 58 -11 q31 14 30 44v2h-2q-4 0 -10 -2h-2q-25 -6 -35 11q-11 17 9 38q31 34 86 8q14 -12 18 -27v-2q12 -35 -18 -92q-29 -33 -60 -35q-66 -12 -117 19q-61 43 -67 123q-12 109 74 190q23 20 55 43q37 18 72 23q14 8 24 8l49 4h27q4 -2 13 -2t38 -8t49 -29q24 -19 41 -45 q31 -37 31 -96v-31q0 -67 -47 -234q-4 -23 -17 -67l-6 -37q-4 -10 -11 -39t-11 -43l-6 -29q-2 -6 -31 -157q-18 -150 4 -224q12 -33 34 -51t68 -35q57 -14 129 21q102 50 161 120q59 71 68 88q10 17 26 40t16 43v6q0 31 -4 45q2 23 0 53t-1 41q1 12 -1 23v39q6 37 6 63t8 61 v7q8 53 8 59l4 27v8q2 6 6 25t7 28l20 105q18 86 33 118q26 62 68 84t75 -6q51 -39 51 -104q8 -53 4 -99q-14 -98 -38 -163q-2 -18 -7 -29l-16 -55q0 -24 -16 -48q0 -4 -4 -14t-13 -33q-2 -14 -12 -28q-18 -64 -30 -87q-13 -24 -18 -36t-9 -20q-3 -8 -7 -11q-4 -4 -10 -22 q-6 -9 -10 -19t-7 -14t-5 -14t-8 -16t-5 -26z" glyph-name="Ucircumflex" horiz-adv-x="1177" unicode=""/><glyph d="M975 1004l2 26q2 16 -2 37t-3 26q1 6 -6 28q-7 23 -20 24l-2 2q-19 0 -47 -68q-8 -20 -14 -59l-19 -92q-3 -30 -17 -105q-42 -215 -26 -313q31 56 37 86q40 102 57 156q3 20 9 36t14 45t14 44v2q4 16 4 26q16 53 19 84v15zM827 362v-8q-3 -30 11 -80q14 -74 41 -108 q20 -32 59 -54t83 -6q104 36 163 166q16 31 34 24t19 -20q0 -6 -2 -14l-12 -24q-47 -80 -69 -108q-60 -76 -140 -93q-14 -4 -64 -4q-71 16 -112 69q-39 55 -62 146q-4 8 -4 12t-2 8v4q-8 -10 -46 -54q-91 -108 -149 -134q-9 -9 -57 -31l-24 -12q-42 -23 -99 -23t-127 39 q-23 16 -39 41q-39 36 -48 86t-9 101t9 125t25 130q16 58 20 86t8 40t6 20l6 31q8 30 29 105q22 74 32 138t6 102t-38 77.5t-134 27.5q-8 -4 -20.5 -7t-16.5 -6q-7 -5 -15.5 -8t-12.5 -7q-43 -20 -64 -54q-14 -14 -27 -52q-13 -39 -11 -75t44 -73q18 -16 58 -11q31 14 30 44 v2h-2q-4 0 -10 -2h-2q-25 -6 -35 11q-11 17 9 38q31 34 86 8q14 -12 18 -27v-2q12 -35 -18 -92q-29 -33 -60 -35q-66 -12 -117 19q-61 43 -67 123q-12 109 74 190q23 20 55 43q37 18 72 23q14 8 24 8l49 4h27q4 -2 13 -2t38 -8t49 -29q24 -19 41 -45q31 -37 31 -96v-31 q0 -67 -47 -234q-4 -23 -17 -67l-6 -37q-4 -10 -11 -39t-11 -43l-6 -29q-2 -6 -31 -157q-18 -150 4 -224q12 -33 34 -51t68 -35q57 -14 129 21q102 50 161 120q59 71 68 88q10 17 26 40t16 43v6q0 31 -4 45q2 23 0 53t-1 41q1 12 -1 23v39q6 37 6 63t8 61v7q8 53 8 54l4 32 v8q2 6 6 25.5t7 27.5l20 105q18 86 33 118q26 62 68 84t75 -6q51 -39 51 -104q8 -53 4 -99q-14 -98 -38 -163q-2 -18 -7 -29l-16 -55q0 -24 -16 -48q0 -4 -4 -14t-13 -33q-2 -14 -12 -28q-18 -64 -30 -87q-13 -22 -16 -30t-6 -15.5t-6.5 -12.5t-6.5 -9t-9 -22q-6 -9 -10 -19 t-7 -14t-5 -14t-8 -16t-5 -26zM625 1370q0 -21 -20.5 -38t-37 -17t-28 12t-11.5 29q1 47 52 61q18 0 31.5 -13t13.5 -34zM725 1357q0 22 17.5 39t34 17t30.5 -12t14 -29q0 -49 -57 -61q-14 0 -26.5 12t-12.5 34z" glyph-name="Udieresis" horiz-adv-x="1177" unicode=""/><glyph d="M518 1280q-25 0 -20 33q4 10 12 22q36 39 70 88t42 57t20 7q12 0 24 -8q2 -3 8 -17t-8 -30q-96 -102 -116 -127t-32 -25zM909 1120q0 2 -5 8q-14 17 -32 -8t-24 -53q-29 -74 -51 -184l-2 -6q0 -19 -9 -43q-10 -72 -22 -162v-10l-2 -7v-13t-6 -21q6 6 6 14l2 2q0 5 12 25 t60 153q31 73 42 129t19 74q0 18 12 72v30zM213 -387q0 -6 -1 -15t5 -34q3 -41 51 -53q31 -4 67 14t64 63l31 52q6 14 15 38t17 37q8 15 11 27q4 12 11 35t10 28l14 45q12 38 12 50q-6 -2 -16 -8t-25 -10q-15 -5 -28 -13q-32 -10 -76 -39q-45 -30 -77 -62t-38 -47 q-16 -21 -26 -39l-21 -59v-10zM356 156q-53 0 -112 37q-35 35 -47 57q-29 41 -33 129v6q-4 127 22 258l2 49q9 63 9 101q8 39 12 147v94q-10 109 -94 109h-17q-70 -9 -120 -61t-64 -111q0 -8 -4 -25l-8 -16q-7 -106 45 -115l26 -6q31 -5 54 19t30 14q23 -18 15 -35 q-4 -31 -36 -50t-75 -9t-67 24q-84 51 -35 221q21 85 78 136t118 69q12 6 61 6t79 -24q68 -41 73 -129v-123q-2 -23 -2 -56q-10 -50 -10 -129q-8 -71 -21 -157t-14 -154v-12q-4 -66 5 -104t67 -78q27 -23 61 -23h25q49 10 111 48t82 65q5 6 8 8q2 2 4 6t5 7t68 97q3 6 15 62 t13 78q1 20 7 40t6 46q26 127 30 153q4 25 10 51t8 44q3 20 8 32q16 82 32 124t50 108q25 25 59 24h14q12 -6 33 -18q33 -33 27 -117v-4l-8 -59l-13 -41q-2 -3 -7 -23t-11 -42t-17 -66q-11 -45 -43 -112t-41 -87t-14 -25v-4l-12 -24q-16 -29 -35 -68q-23 -37 -47 -84v-2 l-8 -14q-3 -31 -14 -74q-11 -44 -24 -100t-24 -94l-30 -130l-5 -24q27 8 74 31l31 18q17 10 75 48t88 73l50 57q10 13 24 37t21 33q8 9 27 0q19 -8 6 -35l-19 -35q-23 -39 -63 -85t-58 -58q-37 -33 -75 -55l-76 -43q-11 -6 -31 -16t-41 -19l-24 -10q-19 -4 -25 -27 q-1 -4 -10 -31l-12 -41q-18 -43 -29 -78l-10 -34q-1 -6 -13 -31t-16 -37l-10 -18l-11 -27q-35 -70 -96 -122t-125 -40q-24 4 -30 7t-21 10t-31 28q-47 51 -28 137q29 103 74 151q61 61 147 107l35 17q9 6 86 43l20 8q27 14 33 43l65 252l7 43q-2 -2 -12 -15t-58 -47t-59 -42 l-7 -3q-53 -35 -129 -34h-4z" glyph-name="Yacute" horiz-adv-x="956" unicode=""/><glyph d="M-98 670q2 -4 2 -16t4 -15q26 -59 94 -59q27 0 59 18q35 33 17 72q-8 12 -4 24l26 13q4 2 14 2t25 -25q18 -39 7 -75.5t-50 -62.5t-100 -26l-37 2q-33 6 -70 31q-31 39 -43 71t-12 84q0 165 186 277q25 16 109 45q80 23 180 33l4 2h6q45 141 136 270l6 13q51 64 73 24 q11 -20 -2 -33v-2l-4 -4q0 -4 -10 -12l-26 -39l-62 -106q-12 -29 -16 -43.5t-11 -22.5l-16 -41h31q132 -14 200 -38t125 -75l9 -4q4 -4 12 -10t8 -8l21 -23q4 -2 10 -12q118 -147 115 -309v-25q-4 -10 -5 -33l-6 -49q-4 -16 -10 -22l-8 -31q0 -13 -15 -37l-14 -26 q-14 -31 -26 -45q-16 -27 -52 -58q-87 -87 -204 -100q-8 -2 -39 -2h-4q-97 0 -147 52t-50 116t36 122t103 58t68 -45q0 -14 -10.5 -24.5t-12.5 -10.5l-45 14q-39 0 -57.5 -33.5t-18.5 -77.5t37 -74t90 -30h13q120 0 202 90v3q35 28 54.5 71t21.5 53q3 10 19 44t12 116v7 l-4 44q0 60 -48 138q-48 77 -96 114q-12 12 -20 17q-10 12 -27 18q-47 29 -81 35t-52 14q-51 10 -65 11h-92l-25 -89q-10 -25 -21 -71l-4 -8l-6 -23q1 -17 -17 -73t-38 -171l-2 -34l-4 -31q0 -8 -4 -29l-11 -65q-8 -51 -16 -129q-8 -39 -10 -66l-8 -51q-8 -29 -9 -66l-4 -30 q-6 -33 -2 -72v-4q0 -43 -39 -43t-32 47q4 20 7 56t5 49t8 62.5t8 59.5l13 72l12 102l27 174q8 47 22 119l4 21q2 12 7 27.5t5 21.5l21 84q0 6 6 18q6 27 33 115l6 22q-129 -7 -246 -71h-2q-33 -18 -74 -60t-67 -106l-2 -2q-18 -39 -4 -90z" glyph-name="Thorn" horiz-adv-x="962" unicode=""/><glyph d="M412 135q2 10 2 41q0 46 -39 94l-17 27l-16 18l-14 23l-62 72l-22 30q-38 52 -54 99l-2 20q0 65 32 99q7 8 7 10l21 18l18 19q10 8 22.5 21t18.5 19l23 19l10 12q10 8 43 45q30 40 53 97l6 30q13 80 -1.5 100.5t-16.5 24.5q-24 24 -78 31q-39 -10 -57 -23l-21 -18 q-7 -7 -15.5 -19t-17.5 -25t-17 -30q-7 -16 -13 -28l-27 -68l-14 -43l-6 -33l-15 -61q-4 -33 -4 -45l-4 -15l-8 -43l-8 -75l-6 -43l-2 -13l-2 -24l-11 -70v-6l-4 -43l-4 -39q-6 -25 -6 -27l-8 -80q-4 -16 -4 -26l-6 -55q-4 -12 -5 -19l-8 -82q-10 -47 -14 -57 q-8 -8 -30.5 -6t-24.5 16l2 27l4 37q0 10 4 30l6 31l4 49l4 41l6 29l2 26v15l4 39l9 61l2 17l4 26q4 16 4 27l10 63l12 125v2q1 11 5 29t8 39l4 28l37 160l10 29q7 26 14 39l11 26q16 33 26 48l18 27l31 40q12 12 37 27h2l4 4q60 24 99 24h6q8 0 24 -4l25 -8l20 -10l11 -10 q2 0 4 -2l20 -17q33 -41 33 -137q0 -27 -6 -55l-19 -56q-22 -52 -53 -84l-51 -53l-10 -8l-13 -18q-36 -24 -84 -72l-18 -35q-2 -4 -2 -12v-10q0 -54 35 -89q0 -6 28 -34l13 -19q6 -6 20.5 -23.5t24.5 -29.5l35 -35l18 -31q15 -19 35 -65q12 -37 12 -59l4 -25q2 -23 -2 -47 q33 29 58 67l14 21q29 45 37 61v2l2 2q14 23 32.5 23t18.5 -21q0 -10 -4 -18l-19 -35l-18 -30l-33 -48q-25 -37 -42 -52t-48 -40q-61 -43 -84 -52t-63.5 -16.5t-69.5 -2.5l-27 6q-7 0 -29 8t-38 22q0 4 -8 10t-15 19q-2 12 7.5 24.5t31.5 6.5q17 -12 47 -31l47 -10 q20 0 50 7t32 7q32 16 50 53z" glyph-name="germandbls" horiz-adv-x="579" unicode=""/><glyph d="M414 522q0 -41 -37 -41q-16 0 -22.5 7.5t-10.5 29.5q-6 35 -43 35t-78 -23q-9 0 -43 -32t-41 -52l-12 -16l-10 -20q-52 -107 -54 -205q0 -67 38 -111t99 -32q62 11 132 126l6 9l2 6q23 39 52.5 134t29.5 97l14 64q6 18 6 39q4 25 25 24q16 0 25 -6q18 -5 18 -19t-4 -29 t-11.5 -36.5t-9.5 -34.5q-6 -10 -10 -41q-6 -18 -15.5 -48.5t-23.5 -72.5t-14 -104q0 -98 63 -98h13q27 2 46 13t62 54q57 73 90 133q16 31 37 23t15 -33l-13 -24q-33 -56 -65 -100t-37 -48l-21 -20q-59 -63 -133 -64q-11 0 -41 10t-43 33q-28 57 -26 94l-19 -32 q-14 -25 -55.5 -68t-118.5 -43q-36 0 -98 36t-72 109t-4 117q2 47 42 145t116 158q54 39 139 51l8 -2q62 0 92 -51q10 -10 15 -39v-2zM350 717l-71 174q0 4 9 20t25 7q12 0 23 -21q43 -133 49 -155t2 -27q-21 -17 -37 2z" glyph-name="agrave" horiz-adv-x="690" unicode=""/><glyph d="M414 522q0 -41 -37 -41q-16 0 -22.5 7.5t-10.5 29.5q-6 35 -43 35t-78 -23q-9 0 -43 -32t-41 -52l-12 -16l-10 -20q-52 -107 -54 -205q0 -67 38 -111t99 -32q62 11 132 126l6 9l2 6q23 39 52.5 134t29.5 97l14 64q6 18 6 39q4 25 25 24q16 0 25 -6q18 -5 18 -19t-4 -29 t-11.5 -36.5t-9.5 -34.5q-6 -10 -10 -41q-6 -18 -15.5 -48.5t-23.5 -72.5t-14 -104q0 -98 63 -98h13q27 2 46 13t62 54q57 73 90 133q16 31 37 23t15 -33l-13 -24q-33 -56 -65 -100t-37 -48l-21 -20q-59 -63 -133 -64q-11 0 -41 10t-43 33q-28 57 -26 94l-19 -32 q-14 -25 -55.5 -68t-118.5 -43q-36 0 -98 36t-72 109t-4 117q2 47 42 145t116 158q54 39 139 51l8 -2q62 0 92 -51q10 -10 15 -39v-2zM348 688q-25 0 -20 33q4 10 12 22q36 39 70 88t42 57t20 7q12 0 24 -8q2 -4 8 -17t-8 -30q-96 -102 -116 -127t-32 -25z" glyph-name="aacute" horiz-adv-x="690" unicode=""/><glyph d="M414 522q0 -41 -37 -41q-16 0 -22.5 7.5t-10.5 29.5q-6 35 -43 35t-78 -23q-9 0 -43 -32t-41 -52l-12 -16l-10 -20q-52 -107 -54 -205q0 -67 38 -111t99 -32q62 11 132 126l6 9l2 6q23 39 52.5 134t29.5 97l14 64q6 18 6 39q4 25 25 24q16 0 25 -6q18 -5 18 -19t-4 -29 t-11.5 -36.5t-9.5 -34.5q-6 -10 -10 -41q-6 -18 -15.5 -48.5t-23.5 -72.5t-14 -104q0 -98 63 -98h13q27 2 46 13t62 54q57 73 90 133q16 31 37 23t15 -33l-13 -24q-33 -56 -65 -100t-37 -48l-21 -20q-59 -63 -133 -64q-11 0 -41 10t-43 33q-28 57 -26 94l-19 -32 q-14 -25 -55.5 -68t-118.5 -43q-36 0 -98 36t-72 109t-4 117q2 47 42 145t116 158q54 39 139 51l8 -2q62 0 92 -51q10 -10 15 -39v-2zM322 688h-5q-25 4 -24 27q-3 9 13 25t24 32q29 37 39 47t15 16.5t9 8.5q2 2 16 18.5t38 17.5q25 1 37 -28t12 -36q2 -7 15.5 -40t15.5 -35 q1 -2 5 -16q8 -12 -8 -20q-6 -6 -22 -7h-8q-21 7 -21 27l-27 59l-4 14q-4 15 -6 17q-41 -35 -86 -104q-10 -23 -28 -23z" glyph-name="acircumflex" horiz-adv-x="690" unicode=""/><glyph d="M414 522q0 -41 -37 -41q-16 0 -22.5 7.5t-10.5 29.5q-6 35 -43 35t-78 -23q-9 0 -43 -32t-41 -52l-12 -16l-10 -20q-52 -107 -54 -205q0 -67 38 -111t99 -32q62 11 132 126l6 9l2 6q23 39 52.5 134t29.5 97l14 64q6 18 6 39q4 25 25 24q16 0 25 -6q18 -5 18 -19t-4 -29 t-11.5 -36.5t-9.5 -34.5q-6 -10 -10 -41q-6 -18 -15.5 -48.5t-23.5 -72.5t-14 -104q0 -98 63 -98h13q27 2 46 13t62 54q57 73 90 133q16 31 37 23t15 -33l-13 -24q-33 -56 -65 -100t-37 -48l-21 -20q-59 -63 -133 -64q-11 0 -41 10t-43 33q-28 57 -26 94l-19 -32 q-14 -25 -55.5 -68t-118.5 -43q-36 0 -98 36t-72 109t-4 117q2 47 42 145t116 158q54 39 139 51l8 -2q62 0 92 -51q10 -10 15 -39v-2zM416 705h-2q-39 0 -82.5 30.5t-64.5 30.5t-32.5 -6t-18.5 -13.5t-16.5 -18.5t-12.5 -16t-17 -5q-14 1 -14 21t22 42l4 6q46 41 66 45t39 4 t47 -22q62 -41 91 -41q28 0 38 14q20 10 32 33q13 24 27 25q16 0 17 -21t-22 -49.5t-27.5 -31.5t-6.5 -5l-25 -15q-12 -7 -42 -7z" glyph-name="atilde" horiz-adv-x="690" unicode=""/><glyph d="M272 727q-16 0 -27 12t-12 29q1 47 52 61q18 0 31 -13q14 -13 14 -34t-20 -38q-22 -17 -38 -17zM389 769q-1 22 17 39t34 17t30 -12t15 -29q0 -49 -57 -61q-14 0 -27 12q-12 12 -12 34zM414 522q0 -41 -37 -41q-16 0 -23 7q-6 7 -10 30q-6 35 -43 35t-78 -23q-2 0 -12 -7 q-54 -38 -72 -77l-12 -16l-10 -20q-52 -107 -54 -205q0 -52 21 -86t29 -40q32 -20 53 -20q22 0 33 2q63 12 133 127l6 9l2 6q21 35 52 132q30 97 30 99l14 64q6 18 6 39q4 25 25 24q16 0 25 -6q18 -5 18 -19t-4 -29t-11 -37t-11 -33t-9 -42q-6 -18 -15 -48q-10 -31 -24 -73 t-14 -104q0 -98 63 -98h13q27 2 46 13t62 54q57 73 90 133q16 31 37 23t15 -33l-13 -24q-33 -56 -65 -100t-37 -48l-21 -20q-59 -63 -133 -64q-11 0 -41 10t-43 33q-28 57 -26 94l-19 -32q-14 -25 -40 -52q-57 -59 -134 -59q-36 0 -98 36t-72 109t-4 117q2 47 42 145 t116 158q54 39 139 51l8 -2q62 0 92 -51q10 -10 15 -39v-2z" glyph-name="adieresis" horiz-adv-x="690" unicode=""/><glyph d="M414 522q0 -41 -37 -41q-16 0 -22.5 7.5t-10.5 29.5q-6 35 -43 35t-78 -23q-9 0 -43 -32t-41 -52l-12 -16l-10 -20q-52 -107 -54 -205q0 -67 38 -111t99 -32q62 11 132 126l6 9l2 6q23 39 52.5 134t29.5 97l14 64q6 18 6 39q4 25 25 24q16 0 25 -6q18 -5 18 -19t-4 -29 t-11.5 -36.5t-9.5 -34.5q-6 -10 -10 -41q-6 -18 -15.5 -48.5t-23.5 -72.5t-14 -104q0 -98 63 -98h13q27 2 46 13t62 54q57 73 90 133q16 31 37 23t15 -33l-13 -24q-33 -56 -65 -100t-37 -48l-21 -20q-59 -63 -133 -64q-11 0 -41 10t-43 33q-28 57 -26 94l-19 -32 q-14 -25 -55.5 -68t-118.5 -43q-36 0 -98 36t-72 109t-4 117q2 47 42 145t116 158q54 39 139 51l8 -2q62 0 92 -51q10 -10 15 -39v-2zM401 739q47 0 48 37q0 12 -12.5 21.5t-25.5 9.5q-40 0 -40 -33q-1 -35 30 -35zM412 848q33 0 53 -23t20 -43t-2 -28q-18 -55 -69 -56 q-78 0 -78 72q0 27 21.5 52.5t54.5 25.5z" glyph-name="aring" horiz-adv-x="690" unicode=""/><glyph d="M664 614q45 0 79 -30q23 -27 23 -61t-10 -60q-35 -88 -110 -152t-114.5 -72t-56.5 -22q-16 -6 -24 -10l-5 -10q0 -86 58 -121q23 -23 74 -23q51 -10 115 17t100.5 75.5t52.5 70.5t33 63q11 23 33 15t14 -34l-13 -24q-25 -47 -61 -91q-27 -45 -59 -71q-96 -96 -230 -79 q-72 9 -123 56q-41 49 -55 123q-14 -35 -35 -63q-29 -55 -79 -83t-91 -28q-40 0 -102 36t-72 109t-4 117q2 47 42 145t116 158q54 39 139 51l8 -2q62 0 92 -51q10 -10 15 -39v-2q0 -41 -37 -41q-16 0 -22.5 7.5t-10.5 29.5q-6 35 -43 35t-78 -23q-2 0 -4 -2l-39 -30 q-4 -4 -19 -18t-22 -34l-12 -16l-10 -20q-52 -107 -54 -205q0 -67 38 -111t99 -32q62 11 132 126l6 9l2 6l12 24l-2 -2q31 67 48.5 156.5t17.5 93.5l10 64v31q0 30 27 36q16 0 24 -6q18 -4 19 -22q0 -4 -5.5 -22t-11.5 -48q82 104 150 104h4zM698 524q0 12 -8 24.5t-24 12.5 t-31 -8q-49 -10 -103 -82q-16 -13 -51 -78q-14 -35 -14 -43l-8 -22l-10 -64l8 4l19 6q20 7 29 13t32.5 17t44 24.5t47.5 42.5q26 30 30 39q39 45 39 114z" glyph-name="ae" horiz-adv-x="870" unicode=""/><glyph d="M399 512q0 -104 -39 -104h-6q-23 0 -37 24q-8 8 4 32t11 54q-4 47 -58 37q-55 -15 -75 -35q-23 -16 -33 -31q-41 -45 -47 -65l-8 -8q-3 -8 -5 -13t-9 -21t-25 -95q-8 -55 0 -99q0 -37 14 -57q39 -86 117 -79q77 7 113 23t74 56t52 68q28 35 44 69t38 26q22 -7 13 -34 l-13 -24q-25 -47 -61 -91q-37 -61 -62 -75q-44 -46 -122 -72q-4 -10 -15.5 -30.5t-13.5 -24.5q4 0 16 -4q84 -20 76 -101q-4 -43 -31.5 -77.5t-65.5 -34.5t-61.5 17t-21.5 44q4 27 20 27q8 0 26 -18t36 -19q18 0 32.5 17.5t16.5 43.5q4 48 -57 49l-31 -10q-20 0 -21 25 q4 16 14 30t25 58h-6q-53 0 -108 22q-79 39 -95 112t-15 119q1 45 23 121t58 125v3q39 49 49 61q63 52 137 63q80 0 117 -49q18 -18 18 -37v-6q-2 -4 -2 -12z" glyph-name="ccedilla" horiz-adv-x="481" unicode=""/><glyph d="M227 887q16 21 31 14q13 0 23 -20q43 -133 49 -155t2 -28q-22 -18 -37 2q0 2 -4 8t-9 26q-10 36 -33 83q-24 47 -24 51l-2 6q0 4 4 13zM82 233q0 -120 61 -157q22 -22 53 -23q31 -2 61 -2t85 23t110 97q18 23 34 45t32 63q12 23 34 15t13 -34l-12 -24q-25 -47 -61 -91 q-27 -45 -60 -71q-40 -44 -119 -72q-16 -8 -56 -8t-56 2q-70 8 -121 55q-61 74 -62 191v4q-23 8 -49 35q-29 18 -47 63q-54 135 2 135q4 2 10 -2h3q6 -2 10 -26l10 -62q12 -45 68 -86l4 16q0 11 6 23q0 13 12 37q45 129 141 201q37 32 80 32l17 2h18q45 0 80 -30 q23 -27 23 -68t-7 -57q-55 -136 -194 -205q-61 -20 -94 -21h-29zM308 561q-14 0 -25 -4q-63 -27 -111 -86q-16 -13 -51 -78q-14 -35 -15 -43l-8 -22l-10 -41l25 -2q14 0 39 4q57 20 112 69q86 76 78 168q-2 12 -11 24t-23 11z" glyph-name="egrave" horiz-adv-x="509" unicode=""/><glyph d="M82 233q0 -120 61 -157q22 -22 53 -23q31 -2 61 -2t85 23t91.5 71.5t52.5 70.5t32 63q12 23 34 15t13 -34l-12 -24q-25 -47 -61 -91q-27 -45 -60 -71q-40 -44 -119 -72q-16 -8 -56 -8t-56 2q-70 8 -121 55q-61 74 -62 191v4q-23 8 -49 35q-29 18 -47 63q-54 135 2 135 q4 2 10 -2h3q6 -2 10 -26l10 -62q13 -49 68 -86l4 16q0 11 6 23q0 13 12 37q45 129 141 201q37 32 80 32h4l31 2q45 0 80 -30q23 -27 23 -68t-7 -57q-55 -136 -194 -205q-61 -20 -94 -21h-29zM308 561q-14 0 -25 -4q-63 -27 -111 -86q-16 -13 -51 -78q-14 -35 -15 -43 l-8 -22l-10 -41l25 -2q14 0 39 4q57 20 112 69q86 76 78 168q-2 12 -11 23.5t-23 11.5zM426 911q2 -4 8 -17t-8 -30q-96 -102 -123 -135t-43 -4q-7 15 10 43q35 39 70 88t47 61q11 13 39 -6z" glyph-name="eacute" horiz-adv-x="509" unicode=""/><glyph d="M82 233q0 -120 61 -157q22 -22 53 -23q31 -2 61 -2t85 23t91.5 71.5t52.5 70.5t32 63q12 23 34 15t13 -34l-12 -24q-25 -47 -61 -91q-27 -45 -60 -71q-40 -44 -119 -72q-16 -8 -56 -8t-56 2q-70 8 -121 55q-61 74 -62 191v4q-23 8 -49 35q-29 18 -47 63q-54 135 2 135 q4 2 10 -2h3q6 -2 10 -26l10 -62q13 -49 68 -86l4 16q0 11 6 23q0 13 12 37q45 129 141 201q37 32 80 32h4l31 2q45 0 80 -30q23 -27 23 -68t-7 -57q-55 -136 -194 -205q-61 -20 -94 -21h-29zM308 561q-14 0 -25 -4q-63 -27 -111 -86q-16 -13 -51 -78q-14 -35 -15 -43 l-8 -22l-10 -41l25 -2q14 0 39 4q57 20 112 69q86 76 78 168q-2 12 -11 23.5t-23 11.5zM240 684h-4q-25 4 -25 27q-3 9 13 25t24 32q29 37 39 47t15 16.5t9 8.5q2 2 16 18.5t38 17.5q25 1 37 -28t12 -36q2 -7 15.5 -40t15.5 -35q19 -25 -3 -37q-6 -6 -22 -6h-8q-21 7 -21 27 q-12 19 -17 35t-9 24l-5 14q-4 13 -6 17q-41 -35 -86 -104q-10 -23 -28 -23z" glyph-name="ecircumflex" horiz-adv-x="509" unicode=""/><glyph d="M262 772q0 -21 -20 -38t-36 -17t-29 12q-11 12 -11 29q0 47 51 61q17 0 31 -13t14 -34zM322 759q0 22 17 39t33 17t31 -12q14 -12 15 -29q-1 -49 -58 -61q-14 0 -26 12t-12 34zM82 233q0 -120 61 -157q22 -22 53 -23q31 -2 61 -2t85 23t110 97q18 23 34 45t32 63 q12 23 34 15t13 -34l-12 -24q-25 -47 -61 -91q-27 -45 -60 -71q-40 -44 -119 -72q-16 -8 -56 -8t-56 2q-70 8 -121 55q-61 74 -62 191v4q-23 8 -49 35q-29 18 -47 63q-54 135 2 135q4 2 10 -2h3q6 -2 10 -26l10 -62q12 -45 68 -86l4 16q0 11 6 23q0 13 12 37q45 129 141 201 q37 32 80 32l17 2h18q45 0 80 -30q23 -27 23 -68t-7 -57q-55 -136 -194 -205q-61 -20 -94 -21h-29zM308 561q-14 0 -25 -4q-63 -27 -111 -86q-16 -13 -51 -78q-14 -35 -15 -43l-8 -22l-10 -41l25 -2q14 0 39 4q57 20 112 69q86 76 78 168q-2 12 -11 24t-23 11z" glyph-name="edieresis" horiz-adv-x="509" unicode=""/><glyph d="M201 723l-70 168l-2 6q0 4 10 19t24 10q14 -6 23 -23q43 -133 50 -149q6 -27 2 -33q-22 -18 -37 2zM-2 252q0 4 3 9t8 17t21 40q16 30 40 83q10 31 28 68q18 59 23 82l8 27l10 20q14 20 35 8l25 -10q10 -8 6 -25l-19 -71q0 -2 -24 -103t-24 -186q-2 -143 69 -143 q53 0 116 83t77 108t22 34t27 0q19 -8 8 -32q-30 -60 -56 -95q-27 -36 -43 -58t-24 -30l-21 -21q-61 -64 -128 -54q-57 9 -83 51q-36 59 -24 165q-2 14 4 54t12 51l-4 4l-19 -40q-14 -30 -24 -46t-33 -11q-16 6 -16 21z" glyph-name="igrave" horiz-adv-x="399" unicode=""/><glyph d="M-2 252q0 4 3 9t8 16t21 41t40 83q10 31 28 68q18 59 23 82l8 27l10 20q14 20 35 8l25 -10q10 -8 6 -25l-19 -71q0 -2 -24.5 -107t-24.5 -187q0 -138 70 -138q53 0 112.5 76.5t77.5 107.5q17 32 24.5 40.5t27.5 0.5q19 -8 8 -32q-33 -65 -75 -121t-48 -62l-21 -21 q-61 -64 -128 -54q-57 9 -83 51q-36 57 -24 165q-2 14 4 54t12 51l-4 4q-33 -70 -43 -86t-33 -11q-16 6 -16 21zM352 911q2 -4 8 -17t-8 -30q-96 -102 -123 -135t-43 -4q-8 16 11 43q35 39 69 88t47 61q11 13 39 -6z" glyph-name="iacute" horiz-adv-x="399" unicode=""/><glyph d="M-2 252q0 4 3 9t8 16t21 41t40 83q10 31 28 68q18 59 23 82l8 27l10 20q14 20 35 8l25 -10q10 -8 6 -25l-19 -71q0 -2 -24.5 -107t-24.5 -187q0 -138 70 -138q53 0 112.5 76.5t77.5 107.5q17 32 24.5 40.5t27.5 0.5q19 -8 8 -32q-33 -65 -75 -121t-48 -62l-21 -21 q-61 -64 -128 -54q-57 9 -83 51q-36 57 -24 165q-2 14 4 54t12 51l-4 4q-33 -70 -43 -86t-33 -11q-16 6 -16 21zM283 696h-9q-20 7 -20 27l-27 59q0 4 -5 15t-5 16q-41 -35 -86 -104q-12 -23 -29 -23h-4q-25 2 -24 27q-4 9 12 25t25 32q29 37 39 47t15 16.5t9 8.5 q2 2 15 18.5t38 17.5t39 -30q10 -37 12 -42l29 -67q2 -2 6 -16q8 -12 -8 -21q-6 -6 -22 -6z" glyph-name="icircumflex" horiz-adv-x="399" unicode=""/><glyph d="M182 772q0 -21 -20 -38t-36 -17t-29 12q-11 12 -11 29q0 47 51 61q17 0 31 -13t14 -34zM242 759q0 22 17 39t33 17t32 -12q14 -12 14 -29q0 -49 -57 -61q-14 0 -27 12q-12 12 -12 34zM-2 252q0 4 3 9t8 17t21 40q16 30 40 83q10 31 28 68q18 59 23 82l8 27l10 20 q14 20 35 8l25 -10q10 -8 6 -25l-19 -71q0 -2 -24 -103t-24 -186q-2 -143 69 -143q53 0 116 83t77 108t22 34t27 0q19 -8 8 -32q-30 -60 -56 -95q-27 -36 -43 -58t-24 -30l-21 -21q-61 -64 -128 -54q-57 9 -83 51q-36 59 -24 165q-2 14 4 54t12 51l-4 4l-19 -40 q-14 -30 -24 -46t-33 -11q-16 6 -16 21z" glyph-name="idieresis" horiz-adv-x="399" unicode=""/><glyph d="M672 980q0 -14 -19 -17l-4 -2l-82 -15l8 -16q4 -33 9 -45v-13q6 -92 6 -107t-27 -265q0 -39 -14 -72v-12l-10 -25q-23 -94 -50 -151v-2q-8 -12 -16 -37q-55 -111 -135 -166l-8 -2q-26 -31 -90 -33t-95 10q-10 0 -55 37l-22 25q-53 53 -56 135h-2q-2 10 -2 35 q0 176 80 280q27 41 84 80t119 39t102 -47l35 -45q29 -41 27 -89t-25 -54v-3q-18 0 -31 64q-6 18 -6 22v7q-2 0 -8.5 13t-19.5 30q-41 33 -84 32q-84 0 -131 -59q-86 -94 -87 -225q0 -217 152 -217q63 0 123 43q113 98 162 342q35 169 35 285t-21 194l-22 -10l-23 -9l-23 -4 h-2l-41 -12q-35 -8 -34 19q-2 25 28 32q27 9 49 15q29 2 56 12q-29 72 -68 119l-8 4q-55 43 -98 43q-74 0 -115.5 -71.5t-26.5 -166.5q0 -43 -28.5 -43t-28.5 64l2 6l-2 18q0 131 53.5 191.5t142.5 60.5t142 -51q6 -4 12 -13.5t13 -15.5l4 -8q33 -35 51 -98l6 -10v-9l72 17 q23 6 35 -7t12 -27z" glyph-name="eth" horiz-adv-x="624" unicode=""/><glyph d="M567 594q105 0 115 -150q9 -35 -29 -168l-24 -100l-4 -24q-8 -80 51 -80h12q18 2 55 18q10 6 54 49q57 73 90 133q17 31 35 24t18 -20q0 -6 -2 -14l-12 -24q-33 -56 -66 -100t-37 -48l-20 -20q-27 -29 -78 -51t-82 -9q-47 14 -57 35q-20 41 -20 65t18 113l6 29 q0 2 6 29.5t8 40.5l6 38q21 97 -18 152q-12 14 -52 14t-91 -53q-14 -10 -23 -23t-14 -18l-25 -37q-49 -63 -76 -192q-8 -37 -9 -46l-7 -42q-4 -27 -7 -64t-10.5 -44t-23.5 -7h-8q-29 0 -29 30t4 54l39 182q6 18 6 29l2 33q9 37 15 75l4 89q0 33 -31 32q-52 0 -100 -78 q0 -2 -38 -66t-55 -108q-16 -32 -34 -24q-19 8 -19 17t2 18l11 24q12 20 49 96.5t74 116.5q37 39 55 51l20 11q16 4 45 4t56 -26t26 -68l-4 -43v-3q102 148 223 148zM512 702q-37 0 -81 31t-65 31q-22 0 -33 -6t-18.5 -13.5t-16.5 -18.5t-12 -16q-4 -5 -18 -5t-14 18t27 51 q47 41 66 45t38 4t47 -22q62 -41 91 -41q28 0 38 14q20 10 32 33q13 24 29 24t15 -21q0 -21 -22.5 -49t-26.5 -31t-6 -5l-26 -15q-13 -7 -42 -8h-2z" glyph-name="ntilde" horiz-adv-x="880" unicode=""/><glyph d="M223 877q0 4 10 19t20 11q21 -8 28 -24q43 -133 49 -155t2 -28q-22 -18 -37 2q0 2 -4 8t-9 26q-10 36 -33 83q-24 47 -24 51zM457 203q12 -4 45 -4t47 6t36 17t50 59q12 16 20 16q27 0 27 -25q0 -24 -47 -71l-21 -19q-51 -32 -118 -32h-29q-14 0 -29 6q-2 -6 -27 -42 t-71 -71q-8 -9 -46 -27t-58 -18h-3l-24 2q-101 0 -166 96q-45 65 -45 166l2 37q0 23 6 41l6 22l13 41q16 56 35 83q20 26 23 31q24 39 64 57q72 32 80 -9q6 -10 0 -17t-26 -18q-27 -8 -47 -32q-31 -27 -54 -70l-18 -43q-12 -35 -16 -104v-31q0 -108 88 -170q18 -12 58 -16 t83 18l29 20q38 33 61 78l-16 13q-35 24 -52 55l-14 22q-29 38 -41 127q-6 31 -6 66l6 51q4 14 21 43q35 49 92 49q20 0 47 -13t45 -40q21 -37 27 -61t6 -65q0 -42 -6 -85l-15 -72l-12 -37l-4 -14zM313 476q0 -34 6 -85l9 -35q7 -31 18 -53l12 -22l15 -21l12 -14 q4 -2 21 -19l12 35q22 73 22 128q0 56 -6 82t-24 50q-28 20 -41 21q-14 0 -33 -13q-23 -20 -23 -54z" glyph-name="ograve" horiz-adv-x="622" unicode=""/><glyph d="M256 688q-25 0 -20 33q4 10 12 22q36 39 70 88t42 57t19 7q12 0 24 -8l9 -17q6 -13 -9 -30q-96 -102 -116 -127q-19 -25 -31 -25zM457 203q12 -4 45 -4t47 6t36 17t50 59q12 16 20 16q27 0 27 -25q0 -24 -47 -71l-21 -19q-51 -32 -118 -32h-29q-14 0 -29 6q-2 -6 -27 -42 t-71 -71q-8 -9 -46 -27t-58 -18h-3l-24 2q-101 0 -166 96q-45 65 -45 166l2 37q0 23 6 41l6 22l13 41q16 56 35 83q20 26 23 31q24 39 64 57q72 32 80 -9q6 -10 0 -17t-26 -18q-27 -8 -47 -32q-31 -27 -54 -70l-18 -43q-12 -35 -16 -104v-31q0 -108 88 -170q18 -12 58 -16 t83 18l29 20q38 33 61 78l-16 13q-35 24 -52 55l-14 22q-29 38 -41 127q-6 31 -6 66l6 51q4 14 21 43q35 49 92 49q20 0 47 -13t45 -40q21 -37 27 -61t6 -65q0 -42 -6 -85l-15 -72l-12 -37l-4 -14zM313 476q0 -34 6 -85l9 -35q7 -31 18 -53l12 -22l15 -21l12 -14 q4 -2 21 -19l12 35q22 73 22 128q0 56 -6 82t-24 50q-28 20 -41 21q-14 0 -33 -13q-23 -20 -23 -54z" glyph-name="oacute" horiz-adv-x="622" unicode=""/><glyph d="M254 686h-4q-25 4 -25 27q-3 9 13 25t24 32q29 37 39 47q10 11 15 17t10 8q2 2 15 19t38 17q25 1 37 -28t14 -41t16 -42q15 -30 19 -44q8 -12 -8 -21q-6 -6 -23 -6h-8q-20 7 -20 27q-12 19 -18 35l-9 24l-8 21q0 6 -2 10q-41 -35 -86 -104q-10 -23 -29 -23zM457 203 q12 -4 45 -4t47 6t36 17t50 59q12 16 20 16q27 0 27 -25q0 -24 -47 -71l-21 -19q-51 -32 -118 -32h-29q-14 0 -29 6q-2 -6 -27 -42t-71 -71q-8 -9 -46 -27t-58 -18h-3l-24 2q-101 0 -166 96q-45 65 -45 166l2 37q0 23 6 41l6 22l13 41q16 56 35 83q20 26 23 31q24 39 64 57 q72 32 80 -9q6 -10 0 -17t-26 -18q-27 -8 -47 -32q-31 -27 -54 -70l-18 -43q-12 -35 -16 -104v-31q0 -108 88 -170q18 -12 58 -16t83 18l29 20q38 33 61 78l-16 13q-35 24 -52 55l-14 22q-29 38 -41 127q-6 31 -6 66l6 51q4 14 21 43q35 49 92 49q20 0 47 -13t45 -40 q21 -37 27 -61t6 -65q0 -42 -6 -85l-15 -72l-12 -37l-4 -14zM313 476q0 -34 6 -85l9 -35q7 -31 18 -53l12 -22l15 -21l12 -14q4 -2 21 -19l12 35q22 73 22 128q0 56 -6 82t-24 50q-28 20 -41 21q-14 0 -33 -13q-23 -20 -23 -54z" glyph-name="ocircumflex" horiz-adv-x="622" unicode=""/><glyph d="M457 203q12 -4 45 -4t47 6t36 17t50 59q12 16 20 16q27 0 27 -25q0 -24 -47 -71l-21 -19q-51 -32 -118 -32h-29q-14 0 -29 6q-2 -6 -27 -42t-71 -71q-8 -9 -46 -27t-58 -18h-3l-24 2q-102 0 -166 96q-45 65 -45 166l2 37q0 23 6 41l6 22l13 41q16 56 35.5 82.5t33 48.5 t53.5 40q72 32 80 -9q6 -10 0 -17t-26 -18q-27 -8 -47 -32q-31 -27 -54 -70l-18 -43q-12 -35 -16 -104v-31q0 -108 88 -170q18 -12 58 -16t83 18l29 20q38 33 61 78l-16 13q-35 24 -52 55l-14 22q-29 38 -41 127q-6 31 -6 66l6 51q4 14 21 43q35 49 92 49q20 0 47 -13 t45 -40q21 -37 27 -61t6 -65q0 -42 -6 -85l-15 -72l-12 -37l-4 -14zM313 476q0 -34 6 -85l9 -35q7 -31 18 -53l12 -22l15 -21l12 -14q4 -2 10 -8.5t11 -10.5l12 35q22 73 22 128q0 56 -6 82t-24 50q-28 20 -41 21q-14 0 -33 -13q-23 -20 -23 -54zM84 696q-14 0 -14 21t22 43 l4 6q46 41 66 45t39 4t47 -22q62 -41 91 -41q28 0 38 14q20 10 32 33q13 24 28 24t15 -17t-20 -47q-22 -32 -35 -41t-14 -9l-10 -7q-8 -8 -43 -8h-2q-37 0 -81.5 30t-65.5 31t-32.5 -5.5t-18.5 -13.5t-16.5 -18.5t-12.5 -16.5t-17 -5z" glyph-name="otilde" horiz-adv-x="622" unicode=""/><glyph d="M457 203q12 -4 45 -4t47 6t36 17t50 59q12 16 20 16q27 0 27 -25q0 -24 -47 -71l-21 -19q-51 -32 -118 -32h-29q-14 0 -29 6q-2 -6 -27 -42t-71 -71q-8 -9 -46 -27t-58 -18h-3l-24 2q-102 0 -166 96q-45 65 -45 166l2 37q0 23 6 41l6 22l13 41q16 56 35.5 82.5t33 48.5 t53.5 40q72 32 80 -9q6 -10 0 -17t-26 -18q-27 -8 -47 -32q-31 -27 -54 -70l-18 -43q-12 -35 -16 -104v-31q0 -108 88 -170q18 -12 58 -16t83 18l29 20q38 33 61 78l-16 13q-35 24 -52 55l-14 22q-29 38 -41 127q-6 31 -6 66l6 51q4 14 21 43q35 49 92 49q20 0 47 -13 t45 -40q21 -37 27 -61t6 -65q0 -42 -6 -85l-15 -72l-12 -37l-4 -14zM313 476q0 -34 6 -85l9 -35q7 -31 18 -53l12 -22l15 -21l12 -14q4 -2 10 -8.5t11 -10.5l12 35q22 73 22 128q0 56 -6 82t-24 50q-28 20 -41 21q-14 0 -33 -13q-23 -20 -23 -54zM252 774q0 -21 -20.5 -38 t-37 -17t-27.5 12t-11 29q0 47 51 61q18 0 31.5 -13t13.5 -34zM311 761q0 22 17.5 39t34 17t31 -12t14.5 -29q-1 -49 -58 -61q-14 0 -26.5 12t-12.5 34z" glyph-name="odieresis" horiz-adv-x="622" unicode=""/><glyph d="M393 274q-43 0 -43 45q0 20 18 44t38 24l6 -2h4q4 -2 9 -4t14.5 -9.5t11.5 -25.5t-14.5 -45t-43.5 -27zM397 760q11 0 19 -3t20.5 -13.5t16.5 -24.5q0 -16 -19.5 -45t-40.5 -29q-43 0 -43 49q0 23 18 44.5t29 21.5zM342 537q133 0 205 -2l94 -3q18 0 18 -22.5t-18 -24.5 q-162 0 -240 2l-247 2q-14 2 -14.5 22.5t14.5 23.5q55 2 188 2z" glyph-name="divide" horiz-adv-x="819" unicode=""/><glyph d="M457 203q12 -4 45 -4t47 6t36 17t50 59q12 16 20 16q27 0 27 -25q0 -24 -47 -71l-21 -19q-51 -32 -118 -32h-29q-14 0 -29 6q-2 -6 -27 -42t-71 -71q-8 -9 -46 -27t-58 -18h-3l-24 2q-61 0 -107 31l-28 -49l-11 -13l3 2q-6 -8 -12 -8h-6q-7 0 -13 6t-6 17v2q2 4 2 6h-2 q6 9 6 14l33 53q-4 4 -30 42q-40 58 -40 159l2 37q0 23 6 41l6 22l13 41q16 56 35.5 82.5t33 48.5t53.5 40q72 32 80 -9q6 -10 0 -17t-26 -18q-27 -8 -47 -32q-31 -27 -54 -70l-18 -43q-12 -35 -16 -104v-31q0 -46 11 -72t29 -55l5 4v-2q10 23 31.5 54.5t27.5 45.5l43 66v-2 q33 57 51 86l-2 22q-6 31 -6 66l6 51q4 14 21 43q35 49 67.5 49t48.5 -4l17 31l8 8q8 12 26 12t17 -14v-10l-4 -6l-12 -25l-11 -18q16 -14 27 -27q21 -37 27 -61t6 -65q0 -42 -6 -85l-15 -72l-12 -37l-4 -14zM139 90q77 -51 156 -8l29 20q38 33 61 78l-16 13q-35 24 -52 55 l-14 22q-4 5 -20 43l-11 -12v2l-18 -31l2 2q-33 -49 -35 -51l-6 -14v2l-25 -35l-34 -61zM440 390q0 56 -6 82t-24 50l-4 2l-5 -4l-20 -39q-25 -41 -33 -49l-26 -51l10 -43q4 -14 14 -35l12 -22l15 -21l12 -14q4 -2 10 -8.5t11 -10.5l12 35q22 73 22 128zM362 543 q-8 0 -28 -16t-21 -66v-10q25 41 49 90v2z" glyph-name="oslash" horiz-adv-x="622" unicode=""/><glyph d="M813 295q14 -6 14 -18q-1 -12 -27 -59q-28 -49 -59.5 -91.5t-38.5 -48.5l-20 -21q-25 -27 -80 -51q-20 -6 -58 -6t-52 10t-36 32q-21 22 -36 79q-29 -39 -49 -49l-27 -25q-61 -47 -116 -47t-89 35q-2 4 -10 12v2q-39 39 -45 158l6 86l4 26v9q-4 4 -4 0q-33 -70 -43 -86 t-33 -11q-16 6 -16 21q0 4 3 9t8 16t21 41t40 83q10 31 24 61t27 75q6 10 8 22l4 8q0 2 2 6q12 31 37 25t35 -31q2 -6 -2 -18q-31 -66 -41 -174q-4 -20 -4 -31q-10 -20 -10 -104v-39q0 -31 16 -80q12 -51 55 -51t55 6q61 33 130 123q16 21 18 85t16 130l9 45q7 76 45 145 q16 29 50 29t48 -19q4 -4 4 -6t1 -2t1 -2q16 -25 10 -69l-4 -23q0 -41 -16 -88q-16 -48 -72 -162l-20 -41v-2l-9 -12l-2 -12q1 -59 15 -95t55 -34q41 0 65 16q40 26 84.5 83t61.5 88q16 31 24.5 39.5t22.5 2.5zM553 553v8h-4l-4 2q-2 0 -6 -4v-2q-14 -14 -29 -88l-16 -104 l-2 -9q0 -8 -2.5 -18t-2.5 -14q23 45 46.5 117.5t21.5 90.5t-2 21zM356 735l-69 168l-2 6q0 4 9 19t25 8q15 0 23 -21q43 -133 49 -155t2 -27q-21 -17 -37 2z" glyph-name="ugrave" horiz-adv-x="768" unicode=""/><glyph d="M813 295q14 -6 14 -18q-1 -12 -27 -59q-28 -49 -59.5 -91.5t-38.5 -48.5l-20 -21q-25 -27 -80 -51q-20 -6 -58 -6t-52 10t-36 32q-21 22 -36 79q-29 -39 -49 -49l-27 -25q-61 -47 -116 -47t-89 35q-2 4 -10 12v2q-39 39 -45 158l6 86l4 26v9q-4 4 -4 0q-33 -70 -43 -86 t-33 -11q-16 6 -16 21q0 4 3 9t8 16t21 41t40 83q10 31 24 61t27 75q6 10 8 22l4 8q0 2 2 6q12 31 37 25t35 -31q2 -6 -2 -18q-31 -66 -41 -174q-4 -20 -4 -31q-10 -20 -10 -104v-39q0 -31 16 -80q12 -51 55 -51t55 6q61 33 130 123q16 21 18 85t16 130l9 45q7 76 45 145 q16 29 50 29t48 -19q4 -4 4 -6t1 -2t1 -2q16 -25 10 -69l-4 -23q0 -41 -16 -88q-16 -48 -72 -162l-20 -41v-2l-9 -12l-2 -12q1 -59 15 -95t55 -34q41 0 65 16q40 26 84.5 83t61.5 88q16 31 24.5 39.5t22.5 2.5zM553 553v8h-4l-4 2q-2 0 -6 -4v-2q-14 -14 -29 -88l-16 -104 l-2 -9q0 -8 -2.5 -18t-2.5 -14q23 45 46.5 117.5t21.5 90.5t-2 21zM438 917q12 0 25 -8q2 -4 8 -17t-8 -30q-96 -102 -123 -136t-43 -3q-7 15 10 43q35 39 70 88t42 56t19 7z" glyph-name="uacute" horiz-adv-x="768" unicode=""/><glyph d="M813 295q14 -6 14 -18q-1 -12 -27 -59q-28 -49 -59.5 -91.5t-38.5 -48.5l-20 -21q-25 -27 -80 -51q-20 -6 -58 -6t-52 10t-36 32q-21 22 -36 79q-29 -39 -49 -49l-27 -25q-61 -47 -116 -47t-89 35q-2 4 -10 12v2q-39 39 -45 158l6 86l4 26v9q-4 4 -4 0q-33 -70 -43 -86 t-33 -11q-16 6 -16 21q0 4 3 9t8 16t21 41t40 83q10 31 24 61t27 75q6 10 8 22l4 8q0 2 2 6q12 31 37 25t35 -31q2 -6 -2 -18q-31 -66 -41 -174q-4 -20 -4 -31q-10 -20 -10 -104v-39q0 -31 16 -80q12 -51 55 -51t55 6q61 33 130 123q16 21 18 85t16 130l9 45q7 76 45 145 q16 29 50 29t48 -19q4 -4 4 -6t1 -2t1 -2q16 -25 10 -69l-4 -23q0 -41 -16 -88q-16 -48 -72 -162l-20 -41v-2l-9 -12l-2 -12q1 -59 15 -95t55 -34q41 0 65 16q40 26 84.5 83t61.5 88q16 31 24.5 39.5t22.5 2.5zM553 553v8h-4l-4 2q-2 0 -6 -4v-2q-14 -14 -29 -88l-16 -104 l-2 -9q0 -8 -2.5 -18t-2.5 -14q23 45 46.5 117.5t21.5 90.5t-2 21zM463 696h-8q-21 7 -21 27q-12 18 -19 40t-14 32q0 4 -2 10t-2 8q-41 -35 -86 -104q-12 -23 -28 -23h-4q-25 2 -25 27q-4 9 12 25t25 32q29 37 39 47t15 16.5t9 8.5q2 2 16 18.5t38 17.5q25 1 38 -30 q16 -56 50 -124q6 -13 -11 -22q-6 -6 -22 -6z" glyph-name="ucircumflex" horiz-adv-x="768" unicode=""/><glyph d="M336 776q0 -21 -20 -38t-37 -17q-16 0 -28 12q-11 12 -11 29q0 47 51 61q17 0 31 -13t14 -34zM446 819q16 0 30 -12t16 -29q-1 -49 -58 -61q-14 0 -26 12t-12 34t16 39q18 17 34 17zM815 294q12 -5 12 -17t-30 -65q-30 -52 -53 -82t-29 -38t-13 -14l-20 -21 q-25 -27 -80 -51q-20 -6 -58 -6t-52 10t-36 32q-21 22 -36 79q-29 -39 -49 -49l-27 -25q-61 -47 -116 -47t-89 35q-2 4 -10 12v2q-39 39 -45 158l6 86l4 26v9q-4 4 -4 0l-19 -40q-14 -30 -24 -46t-33 -11q-16 6 -16 21q0 4 3 9t8 17t21 40q16 30 40 83q10 31 24 61t27 75 q6 10 8 22l4 8q0 2 2 6q12 31 37 25t35 -31q2 -6 -2 -18q-31 -66 -41 -174q-4 -20 -4 -31q-10 -20 -10 -104v-39q0 -31 16 -80q12 -51 55 -51t55 6q61 33 130 123q16 21 18 85t16 130l9 45q7 76 45 145q16 29 50 29t48 -19q4 -4 4 -6t1 -2t1 -2q16 -25 10 -69l-4 -23 q0 -61 -35 -136t-53 -114l-20 -41v-2l-9 -12l-2 -12q1 -59 15 -95t55 -34q41 0 65 16t42 34t35 40q17 23 26 32q33 47 48 75t23 32q9 4 21 -1zM553 553v8h-4l-4 2q-2 0 -6 -4v-2q-14 -14 -29 -88l-16 -104l-2 -9q0 -8 -2 -18t-3 -14q23 46 47 118t22 90t-3 21z" glyph-name="udieresis" horiz-adv-x="768" unicode=""/><glyph d="M287 192q0 66 16 132t21 110l4 25q8 80 -52 80h-12q-12 0 -19 -6.5t-27 -17.5t-36 -36q-39 -49 -53 -69t-66 -138q-16 -32 -34 -24q-19 8 -19 17t2 18l11 24q10 18 19 42t46 88t66 95l14 17q52 55 106 55q28 0 35 -4q47 -14 58 -35q20 -41 20 -79q0 -64 -16.5 -130 t-16.5 -170v-12q0 -43 23 -65q47 -49 108 -31q68 14 109 88l6 8l2 6q28 58 48 161t20 108l14 65q0 2 6 39q10 39 45 18q31 -16 25 -49q-6 -34 -14 -62t-11 -48h-2v-9q-7 -7 -29 -142t-22 -165v-4l-12 -86q37 20 80 64l45 43q6 4 18 20.5t18 20.5l33 39q27 35 43 63 t24.5 36.5t27.5 0.5t6 -35l-19 -35q-33 -60 -96 -129l-49 -47q-61 -55 -82 -72l-33 -22q-20 -14 -20 -19l-9 -49l-6 -43q-8 -43 -14 -82l-6 -45l-17 -71l-6 -21l-6 -26q-2 -6 -9 -28t-20.5 -48.5t-47 -67t-73.5 -51.5q-14 -4 -34 -4t-31 2h-4q-42 14 -55 29q-53 41 -52 131 q11 110 62.5 178.5t114.5 111.5l30 23q15 15 78 57l19 13q26 17 26 63t15 86v2l-23 -22q-72 -84 -172 -66q-74 12 -111 70q-28 50 -28 116zM592 -127v8q-2 2 -12 -5t-49.5 -31t-67.5 -58q-48 -45 -84 -88l-2 -8q-41 -61 -40 -125t24 -90q23 -25 58 -17q36 8 58.5 27t40.5 74 q15 23 35 100q20 76 22.5 102.5t4.5 34.5l6 37q6 37 6 39zM512 688q-25 0 -20 33q4 10 12 22q36 39 70 88t42 57t19 7q12 0 24 -8l9 -17q6 -13 -9 -30q-96 -102 -116 -127q-19 -25 -31 -25z" glyph-name="yacute" horiz-adv-x="909" unicode=""/><glyph d="M27 -592q-10 0 -23 6q-51 25 -59 99q-2 98 12 181t84 320l25 72q41 106 63 182q16 113 16 115l9 51l-50 -90q-2 -4 -23.5 -41t-33.5 -61q-13 -24 -31 -18q-18 7 -18 20q0 6 2 14l76 131q8 14 30 51.5t25 46.5l29 60q16 33 18 49t10 55l7 37l24 182q2 24 17.5 91t21.5 101 t24 78q36 84 107 85l17 -2q111 -23 83 -179q-14 -88 -64 -178q-7 -12 -38 -80t-125 -194q-31 -42 -34 -72t-5 -37q12 20 31 43q74 74 160 70q33 0 106 -33q78 -55 90 -157q18 -63 4 -115q0 -3 -3 -22q-24 -152 -119 -218q-4 -4 -13 -8q99 0 179 80q81 80 110 149 q16 29 34 23t19 -17q0 -11 -4 -20l-12 -25q-33 -55 -60 -94t-77 -77t-92 -49q-128 -33 -203 -5q-74 27 -82 36t-10 10t-5.5 6.5t-13.5 16.5t-10 35t20 23q11 0 21 -11t12 -11q27 -45 68 -45t61 14q62 30 101 156q14 49 14 86q8 57 -4 94l-17 43q0 2 -2 2q-27 74 -114 74h-29 q-96 -27 -147 -160q-43 -106 -43 -152v-16l-5 -109v-39q-4 -121 -10 -174l-4 -30l-14 -187q-2 -18 -12 -64t-17 -81q-35 -102 -102 -117h-2zM434 1137q-4 27 -36 27t-49 -33q-17 -32 -40 -125t-33 -167t-11 -88t-4 -29t-3 -26q31 37 74 121q44 85 78 163t24 157zM127 -6 q2 63 0 69l-12 -34q-55 -184 -68 -228q-17 -82 -29 -135t-8 -127q-6 -47 17 -59q20 6 28 35q39 75 59 347q4 48 7 75q0 30 6 57z" glyph-name="thorn" horiz-adv-x="761" unicode=""/><glyph d="M489 799q17 1 31 -13t14 -34t-20 -38q-40 -33 -64 -5q-11 12 -12 28q0 48 51 62zM594 738q0 22 17 39q33 33 65 5q14 -12 14 -28q0 -50 -57 -62q-15 0 -27 12t-12 34zM287 192q0 66 14 121t23 121l4 25q8 80 -52 80h-12q-12 -1 -19 -7t-27 -17t-36 -36q-39 -49 -53 -69 t-66 -138q-16 -32 -34 -24q-19 8 -19 17t2 18l11 24q10 18 19 42t46 88t66 95l14 17q52 55 106 55q28 0 35 -4q47 -14 58 -35q20 -41 20 -79q-1 -64 -17 -130t-16 -170v-12q0 -43 23 -65q47 -49 108 -31q68 14 109 88l6 8l2 6q29 59 48 162q19 102 20 107l14 65q0 2 6 39 q10 39 45 18q31 -16 25 -49q-6 -34 -14 -62t-11 -48h-2v-9q-7 -7 -29 -142t-22 -165v-4l-12 -86q37 20 80 64l45 43q6 4 18 20t18 21l33 39q27 35 43 63q17 28 25 36t27 1q19 -8 6 -35l-19 -35q-33 -60 -96 -129l-49 -47q-61 -55 -82 -72l-33 -22q-20 -14 -22 -32l-7 -36 l-6 -43q-8 -43 -14 -82l-6 -45l-17 -71l-6 -21l-6 -26q-2 -6 -9 -28q-7 -23 -21 -49q-62 -122 -154 -122q-20 0 -31 2h-4q-42 14 -55 29q-53 41 -52 131q6 59 23 103q17 45 29 61q63 83 125 126l30 23q15 15 78 57l19 13q26 17 26 63t15 86v2l-23 -22q-72 -84 -172 -66 q-74 12 -111 70q-28 50 -28 116zM592 -127v8q-2 2 -12 -5t-28 -18t-49 -34q-30 -24 -40 -37q-48 -45 -84 -88l-2 -8q-41 -61 -40 -125t24 -90q23 -25 69 -14q46 10 64 42q18 33 47 110t32 126q4 49 7 57l6 37q6 37 6 39z" glyph-name="ydieresis" horiz-adv-x="909" unicode=""/><glyph d="M762 1395q41 0 63 2h25q77 -1 46 -47q-13 -20 -62 -19l-23 2h-25q-20 -2 -61 -2h-57q-20 2 -58 2h-6q-8 0 -16 -2h-29q-43 -1 -51 13t2 30t29 17h2l82 2q74 0 108 2h31zM1155 276q0 -6 -2 -14l-12 -24q-11 -18 -19 -36t-16 -30t-16 -29l-25 -41q-14 -25 -39 -45 q-71 -71 -129 -71h-12q-84 10 -112 51q-50 73 -50 166l2 76v8l-8 -19l-12 -18q-37 -74 -117 -129q-96 -97 -254 -119q-32 -4 -82 9q-107 29 -143 73l-15 16q-20 20 -37 43t-30 76q-29 82 -28 173t15 153l21 117q15 64 25 80q15 26 29 64q13 38 30 56q8 14 28 39q12 28 31 47 q55 74 88 96q6 4 23 21q35 41 102 78l8 6l72 40l40 15q84 33 159 23q6 -2 18 -2q66 -1 122 -57t59 -68t8 -17q2 6 5 28t6 31t4 14t3 9t3 11q1 8 11 22t31 2l25 -10q8 -6 8 -25l-19 -71l-41 -197l-4 -39q0 -20 -8 -41l-10 -63q-7 -62 -19 -98t-15 -72t-11 -63t-13 -47 t-21 -81q-16 -59 -18 -141q-6 -199 93 -201q14 0 39 10q55 29 84 72q66 83 92 139q16 31 34 24t19 -20zM836 883q4 17 4 56q0 40 -2 51t-19 46t-26 47q-72 78 -148 78q-49 0 -81 -13q-33 -13 -38 -13q-8 -8 -16 -9q-80 -26 -119 -62t-57 -48l-37 -37l-6 -4l-25 -29 q-98 -125 -121 -184l-12 -29q-25 -57 -29 -88l-26 -135q-6 -47 -6 -90v-23q2 -8 1 -49t21 -115v-4q29 -85 105 -127q70 -33 108 -32h21l18 2q36 0 88 26q134 55 228 208q54 87 70 132q18 46 30 94t42 151t30 142t2 52v6z" glyph-name="Amacron" horiz-adv-x="1095" unicode=""/><glyph d="M414 522q0 -41 -37 -41q-16 0 -22.5 7.5t-10.5 29.5q-6 35 -43 35t-78 -23q-9 0 -43 -32t-41 -52l-12 -16l-10 -20q-52 -107 -54 -205q0 -67 38 -111t99 -32q62 11 132 126l6 9l2 6q23 39 52.5 134t29.5 97l14 64q6 18 6 39q4 25 25 24q16 0 25 -6q18 -5 18 -19t-4 -29 t-11.5 -36.5t-9.5 -34.5q-6 -10 -10 -41q-6 -18 -15.5 -48.5t-23.5 -72.5t-14 -104q0 -98 63 -98h13q27 2 46 13t62 54q57 73 90 133q16 31 37 23t15 -33l-13 -24q-33 -56 -65 -100t-37 -48l-21 -20q-59 -63 -133 -64q-11 0 -41 10t-43 33q-28 57 -26 94l-19 -32 q-14 -25 -55.5 -68t-118.5 -43q-36 0 -98 36t-72 109t-4 117q2 47 42 145t116 158q54 39 139 51l8 -2q62 0 92 -51q10 -10 15 -39v-2zM412 791q41 0 63 2h25q77 -1 46 -47q-13 -20 -63 -19l-22 2h-25q-20 -2 -61 -2h-58q-20 2 -57 2h-6q-8 0 -16 -2h-29q-43 0 -51 13t2 32 q10 14 28 14h2l82 2q74 0 109 3h31z" glyph-name="amacron" horiz-adv-x="690" unicode=""/><glyph d="M715 1335q-14 0 -21 6q-77 32 -55 146q0 12 10 18q16 16 27 6q12 -2 15 -9q3 -6 0 -28t3 -51q10 -25 32 -25t36 21q19 19 29 54t18 38h2q17 10 37 -6q12 -11 4 -29t-12 -32l-13 -31l-4 -2q-2 -2 -5 -11q-16 -48 -95 -65h-8zM1155 276q0 -6 -2 -14l-12 -24 q-11 -18 -19 -36t-16 -30t-16 -29l-25 -41q-14 -25 -39 -45q-71 -71 -129 -71h-12q-84 10 -112 51q-50 73 -50 166l2 76v8l-8 -19l-12 -18q-37 -74 -117 -129q-96 -97 -254 -119q-32 -4 -82 9q-107 29 -143 73l-15 16q-20 20 -37 43t-30 76q-29 82 -28 173t15 153l21 117 q15 64 25 80q15 26 29 64q13 38 30 56q8 14 28 39q12 28 31 47q55 74 88 96q6 4 23 21q35 41 102 78l8 6l72 40l40 15q84 33 159 23q6 -2 18 -2q66 -1 122 -57t59 -68t8 -17q2 6 5 28t6 31t4 14t3 9t3 11q1 8 11 22t31 2l25 -10q8 -6 8 -25l-19 -71l-41 -197l-4 -39 q0 -20 -8 -41l-10 -63q-7 -62 -19 -98t-15 -72t-11 -63t-13 -47t-21 -81q-16 -59 -18 -141q-6 -199 93 -201q14 0 39 10q55 29 84 72q66 83 92 139q16 31 34 24t19 -20zM836 883q4 17 4 56q0 40 -2 51t-19 46t-26 47q-72 78 -148 78q-49 0 -81 -13q-33 -13 -38 -13 q-8 -8 -16 -9q-80 -26 -119 -62t-57 -48l-37 -37l-6 -4l-25 -29q-98 -125 -121 -184l-12 -29q-25 -57 -29 -88l-26 -135q-6 -47 -6 -90v-23q2 -8 1 -49t21 -115v-4q29 -85 105 -127q70 -33 108 -32h21l18 2q36 0 88 26q134 55 228 208q54 87 70 132q18 46 30 94t42 151 t30 142t2 52v6z" glyph-name="Abreve" horiz-adv-x="1095" unicode=""/><glyph d="M414 522q0 -41 -37 -41q-16 0 -22.5 7.5t-10.5 29.5q-6 35 -43 35t-78 -23q-9 0 -43 -32t-41 -52l-12 -16l-10 -20q-52 -107 -54 -205q0 -67 38 -111t99 -32q62 11 132 126l6 9l2 6q23 39 52.5 134t29.5 97l14 64q6 18 6 39q4 25 25 24q16 0 25 -6q18 -5 18 -19t-4 -29 t-11.5 -36.5t-9.5 -34.5q-6 -10 -10 -41q-6 -18 -15.5 -48.5t-23.5 -72.5t-14 -104q0 -98 63 -98h13q27 2 46 13t62 54q57 73 90 133q16 31 37 23t15 -33l-13 -24q-33 -56 -65 -100t-37 -48l-21 -20q-59 -63 -133 -64q-11 0 -41 10t-43 33q-28 57 -26 94l-19 -32 q-14 -25 -55.5 -68t-118.5 -43q-36 0 -98 36t-72 109t-4 117q2 47 42 145t116 158q54 39 139 51l8 -2q62 0 92 -51q10 -10 15 -39v-2zM369 686q-14 0 -21 6q-77 32 -55 146q0 12 10 18q16 16 27 6q12 -2 15 -9t0 -29t3 -50q10 -24 32 -24t36 20q21 21 29 54q9 34 18 38h2 q17 10 34 -5t8 -31q-9 -17 -13 -31l-13 -31l-4 -2q-2 -2 -11 -30.5t-89 -45.5h-8z" glyph-name="abreve" horiz-adv-x="690" unicode=""/><glyph d="M1155 276q0 -6 -2 -14l-12 -24q-10 -18 -18.5 -37t-16.5 -30t-16 -28l-25 -41q-14 -25 -39 -45q-67 -67 -95 -112t-22 -97q0 -25 23 -36q12 -11 61 -19q17 -6 11.5 -23.5t-16.5 -26.5t-52 -5q-33 8 -49 22q-49 43 -47 99q-4 25 10 61t41 66h-6q-84 10 -112 51 q-50 73 -50 166l2 76v8l-8 -19l-12 -18q-37 -74 -117 -129q-96 -97 -254 -119q-32 -4 -82 9q-107 29 -143 73l-15 16q-20 20 -37 43t-30 76q-29 82 -28 173t15 153l21 117q15 64 25 80q15 26 29 64q13 38 30 56q8 14 28 39q12 28 31 47q55 74 88 96q6 4 23 21q35 41 102 78 l8 6l72 40q24 9 74.5 28.5t124.5 9.5q6 -2 18 -2q66 -1 122 -57t59 -68t8 -17q2 6 5 28t7 34l8 26q2 13 12 27t31 2l25 -10q8 -6 8 -25l-19 -71l-41 -197l-4 -39q0 -20 -8 -41l-10 -63q-7 -62 -19 -98t-15 -72t-11 -63t-13 -47.5t-21 -80.5q-16 -59 -18 -141 q-6 -201 93 -201q14 0 39 10q55 29 84 72q66 83 92 139q16 31 34 24t19 -20zM836 883q4 17 4 56q0 40 -2 51t-19 46t-26 47q-72 78 -148 78q-49 0 -81 -13q-33 -13 -38 -13q-8 -8 -16 -9q-80 -26 -119 -62t-57 -48l-37 -37l-6 -4l-25 -29q-98 -125 -121 -184l-12 -29 q-25 -57 -29 -88l-26 -135q-6 -47 -6 -90v-23q2 -8 1 -49t21 -115v-4q29 -85 105 -127q70 -33 108 -32h21l18 2q36 0 88 26q134 55 228 208q54 87 70 132q18 46 30 94t42 151t30 142t2 52v6z" glyph-name="Aogonek" horiz-adv-x="1095" unicode=""/><glyph d="M414 522q0 -41 -37 -41q-16 0 -22.5 7.5t-10.5 29.5q-6 35 -43 35t-78 -23q-2 0 -4 -2l-39 -30q-4 -4 -19 -18t-22 -34l-12 -16l-10 -20q-52 -107 -54 -205q0 -67 38 -111t99 -32q62 11 132 126l6 9l2 6q23 39 52.5 134t29.5 97l14 64l6 39q4 25 25 24q16 0 25 -6 q18 -5 18 -19t-4 -29t-11.5 -36.5t-9.5 -34.5q-6 -10 -10 -41q-6 -18 -15.5 -48.5t-23.5 -72.5t-14 -104q0 -98 63 -98h13q27 2 46 13t62 54q57 73 90 133q16 31 37 23t15 -33l-13 -24q-33 -56 -65 -100t-37 -48l-21 -20q-8 -8 -40.5 -31t-65.5 -78t-27 -106q0 -27 23 -37 q12 -11 61 -19q15 -5 10.5 -23t-15.5 -27t-52 -5q-33 8 -49 23q-49 43 -47 98q-9 54 61 141q-7 0 -35 10t-41 33q-29 57 -26 94l-19 -32q-14 -25 -55.5 -68t-118.5 -43q-36 0 -98 36t-72 109t-4 117q2 47 42 145t116 158q54 39 139 51l8 -2q62 0 92 -51q10 -10 15 -39v-2z " glyph-name="aogonek" horiz-adv-x="690" unicode=""/><glyph d="M713 1509q16 0 28 -8l9 -17q6 -13 -9 -30q-96 -102 -122 -135t-44 -4q-8 16 11 43q35 39 100 129q11 22 27 22zM12 607q0 9 14 76t78 212q41 79 120 159t122 107l55 31q73 32 134 39q61 17 118 -6q8 -8 27 -8q19 1 50 -17q32 -18 40 -26q31 -18 41 -39q9 -12 23 -26 q14 -13 22 -45t11 -45t-5 -63q-14 -56 -36 -80t-33 -42q-12 -18 -58 -48t-117 -22h-2q-52 6 -82 43t-20 80v4q14 45 31 51q4 2 19 0q16 -2 20 -18t-6 -30t-7 -32q2 -19 25 -26q43 -18 93 6q106 52 106 162q0 44 -24 80t-66 53l-7 6l-12 2q-16 8 -69 16q-54 8 -97 -2 q-12 0 -26 -6q-14 -5 -54 -21t-51 -26q-12 -10 -18 -12t-11 -7q-104 -83 -129 -124q-39 -53 -47 -70q-10 -10 -18 -35q-10 -18 -20 -45t-24 -63q-15 -37 -28 -84l-14 -105q-18 -114 8 -215q27 -100 82 -156q45 -53 94 -77q5 -1 18 -9q14 -8 64 -24t134 -14q84 0 130 12 q88 23 166 108q48 58 58 78t18 29t27 0q19 -8 6 -35l-19 -35q-12 -19 -47 -65q-123 -160 -325 -160q-63 0 -125 6l-23 4q-8 0 -29 8l-34 9q-139 41 -205 170q-12 18 -20 27t-11 14v4q-5 18 -25 68t-21 87q-1 39 -2 75t11 97l2 25v15z" glyph-name="Cacute" horiz-adv-x="829" unicode=""/><glyph d="M399 512q0 -104 -39 -104h-6q-23 0 -37 24q-8 8 4 32t11 54q-4 47 -58 37q-55 -15 -75 -35q-23 -16 -33 -31q-41 -45 -47 -65l-8 -8q-3 -8 -5 -13t-9 -21t-25 -95q-8 -55 0 -99q0 -37 14 -57q39 -86 117 -79q77 7 113 23t74 56t52 68q28 35 44 69t38 26q22 -7 13 -34 l-13 -24q-25 -47 -61 -91q-37 -61 -62 -75q-47 -49 -110 -68q-31 -12 -79 -12t-103 22q-79 39 -95 112t-15 119q1 45 23 121t58 125v3q39 49 49 61q63 52 137 63q80 0 117 -49q18 -18 18 -37v-6q-2 -4 -2 -12zM386 915q16 0 28 -8q2 -4 8 -17t-8 -30q-96 -102 -123 -136 t-43 -3q-7 15 10 43q35 39 100 129q12 22 28 22z" glyph-name="cacute" horiz-adv-x="481" unicode=""/><glyph d="M12 614q0 2 14 69t78 212q41 79 120 159t122 107l55 31q73 32 134 39q61 17 118 -6q8 -8 26.5 -7.5t50.5 -17.5t40 -26q31 -18 41 -39q9 -12 23 -26q14 -13 22 -45t11 -45t-5 -63q-14 -56 -36 -80t-33 -42q-12 -18 -58 -48t-117 -22h-2q-52 6 -82 43t-20 80v4 q14 45 31 51q4 2 19 0q16 -2 20 -18t-6 -30t-7 -32q2 -19 25 -26q43 -18 93 6q106 52 106 162q0 44 -24 80t-66 53l-7 6l-12 2q-16 8 -69 16q-54 8 -97 -2q-12 0 -26 -6q-14 -5 -54 -21t-51 -26q-12 -10 -19 -12t-10 -7q-104 -83 -129 -124q-39 -53 -47 -70q-10 -10 -18 -35 q-10 -18 -22 -49t-24 -63q-13 -32 -26 -80l-14 -105q-18 -114 8 -215q27 -100 82 -156q51 -59 111 -84q15 -10 65 -26t134 -14q84 0 130 12q88 23 166 108q48 58 58 78t17.5 28.5t27.5 0.5q19 -8 6 -35l-19 -35q-12 -19 -47 -65q-123 -160 -325 -160q-63 0 -125 6l-23 4 q-8 0 -29 8l-34 9q-139 41 -205 170q-12 18 -20 27t-11 14v4q-5 18 -25 68t-21 87q-1 39 -2 75t11 97l2 25v22zM494 1288h-5q-25 2 -24 27q-2 8 15 27t34 43t27 34t15 16.5t9 8.5q2 2 16 18.5t38 17.5q25 1 38 -30q9 -29 11 -35t15.5 -39t15.5 -35q19 -26 -3 -36 q-6 -6 -22 -7h-8q-21 7 -21 27l-27 59l-4 14q-4 15 -6 17q-41 -35 -86 -104q-10 -23 -28 -23z" glyph-name="Ccircumflex" horiz-adv-x="829" unicode=""/></font>
</defs>
</svg>
