<svg xmlns="http://www.w3.org/2000/svg">
<defs>
<font horiz-adv-x="1288" id="ywftsvg"><font-face ascent="1638" bbox="-123 -709 3580 1970" cap-height="1423" descent="-410" font-family="" font-stretch="normal" font-weight="400" panose-1="2 0 5 4 0 0 0 2 0 0" underline-position="0" underline-thickness="0" unicode-range="U+0020-FB05" units-per-em="2048" x-height="1430"/><missing-glyph d="M383 2q-125 0 -146.5 16t-25.5 80t-6 84l-4 40q-4 40 -2 48t0 32t-2 30l2 90l-4 127l6 147l8 336l-8 193l4 94l-4 59q0 51 43 52q53 4 80 4l122 -2l320 8l80 -2l188 8l105 -10h75q45 -2 56 -43q23 -82 22 -203l-2 -57l6 -164l-2 -70l2 -41l-6 -82l8 -98l-2 -246l4 -72 l-2 -32l5 -47q-1 -20 -3 -47t1.5 -121.5t-44.5 -100.5q-152 -16 -282 -16q-188 6 -377 6q-57 4 -84 4l-125 -4h-6zM1337 635l1 82q1 82 5 108v29l-2 82l5 82q0 146 -4 170t-5 35l6 59v45l3 4h4q39 -25 39 -55v-45l1 -33l3 -229l4 -117l-8 -150v-73l4 -64l-4 -57q0 -45 6 -66 v-12l-2 -53l12 -189l-6 -98l2 -72l-8 -26v-4l2 -4l-6 -19q-29 -59 -86 -65l-74 -9l-101 5l-92 -9l-39 4q-8 -4 -77 -4l-93 7l-67 4l-37 -7l-37 7l-154 6l-65 -4q-84 0 -94.5 16t-10.5 21q0 14 19 14l125 4l104 -4l441 -4q92 0 180 6q109 4 112 92v61q4 86 5 130l-5 92v182z M569 229l121 -2l166 4h109q-14 25 -115 158l-74 105q-10 18 -24 20q-16 -18 -97.5 -143t-85.5 -142zM774 1210l-199 -2h-22l184 -286l19 24l102 154q2 4 32 46.5t30 49.5l-2 4v4q-70 6 -144 6zM1063 723q0 203 -19 242q-10 -4 -30 -37t-76 -109q-55 -76 -55 -85t75.5 -109.5 t98.5 -128.5q6 24 6 227zM596 735q0 8 -8 21q-115 172 -146 196l-4 -258q0 -88 6 -170l7 -4q25 33 69 103l68 92q8 12 8 20zM891 283q0 -16 -64 -17l-151 -2h-6q-2 2 -4 2h-12q-11 0 -11 10q0 25 53 25l78 -2l27 4l35 -6l26 2q29 0 29 -16zM530 692q0 -6 -22.5 -37.5 t-28.5 -31.5q-12 0 -12 36l4 70q0 63 2 96q23 -8 25 -32q4 -61 8 -97l20 11q4 -9 4 -15zM758 1004q0 -8 -15 -13q-6 0 -15 13t-40 60.5t-46 67.5t-15 25v2q8 4 14 4q7 0 19 -12t55 -75.5t43 -71.5zM1039 584q-10 0 -35 36t-50 58l-24 35q0 14 15 14t49 -46t39 -51t6 -19.5 t5 -18.5q0 -8 -5 -8z" horiz-adv-x="1497"/><glyph d="M1030 991q60 -1 60 -127q0 -66 -11 -157q0 -18 -14 -25q-39 -16 -78 -16l-96 2l-154 -6q-123 0 -184 -7q-16 0 -18 -16v-96q0 -68 4 -203v-107q6 -117 6 -130t-2 -53t-29 -46q-56 -12 -156 -12t-124 10q-36 15 -35 131l2 92q0 61 -2 130t-3 126.5t-3 77.5t-2.5 43t3 67 t3.5 66l2 168l-2 125l2 33l-2 59l8 160l-4 80q0 25 8 46t39 26q115 4 168 4l55 -4l225 4q262 0 394 -4q20 0 29 -13.5t9 -15.5v-41q0 -92 -12 -180q-2 -23 -26 -29q-57 -10 -68 -10l-49 4l-86 -8l-107 -4l-14 1l-88 -1l-72 2q-47 0 -66 -2t-20 -19q0 -59 6 -119 q0 -12 13 -12h39l102 6l92 -6l125 4l74 -4zM1137 680v111q0 12 -1.5 70.5t19.5 60.5q10 0 18.5 -10.5t8.5 -20.5l6 -148v-81q-8 -100 -133 -109q-53 -4 -80 -4l-182 2l-117 -8q-25 0 -29 -5.5t-4 -41.5l2 -41q0 -6 -4 -27q6 -37 6 -45l-2 -59q0 -373 -8 -395.5t-51 -37 t-76 -14.5l-164 -2q-31 0 -61.5 15.5t-30.5 41.5q0 12 29 13l127 -2l34 -2q59 0 83 7t34 8t20.5 3t10.5 33l-1 16l1 129l-8 289v141q0 33 28 33l136 6q35 0 104 -4h4l47 4l49 -2l60 6q83 0 96.5 20.5t21 29.5t7.5 20zM1182 1397q37 0 37 -90l-9 -64l4 -33l-6 -55 q0 -31 -10 -59t-26.5 -34.5t-48 -10.5t-43.5 -4h-124l-157 -5l-74 5q-53 0 -104 -7q-10 -2 -13.5 -16t-15.5 -14q-25 0 -25 36t9.5 42t52.5 6l135 -4q126 0 166 4t92 4t108 10q25 6 29 35q14 129 15 164l-5 55q0 35 13 35zM2302 991q59 -1 59 -127q0 -66 -10 -157 q0 -18 -14 -25q-39 -16 -78 -16l-96 2l-154 -6q-123 0 -184 -7q-16 0 -19 -16v-96q0 -68 4 -203v-107q6 -117 6 -130q4 -91 -30 -99q-56 -12 -156 -12t-128 12t-32 129l3 92q0 61 -5 181l-2 49l2 280l2 168l-2 125l2 33l-2 59l9 160l-4 80q0 25 8 46t39 26q115 4 168 4 l55 -4l225 4q262 0 393 -4q20 0 29.5 -13.5t9.5 -15.5v-41q0 -92 -12 -180q-2 -23 -27 -29q-57 -10 -67 -10l-49 4l-86 -8l-107 -4l-55 4l-47 -4l-72 2q-46 0 -66 -2t-20 -19q0 -59 6 -119q0 -12 12 -12h39l103 6l92 -6l125 4l74 -4zM2408 680v111q0 12 -1.5 70.5t20.5 60.5 q10 0 18.5 -10.5t8.5 -20.5l6 -148v-81q-8 -100 -133 -109q-53 -4 -80 -4l-183 2l-116 -8q-25 0 -29 -5.5t-4 -41.5l2 -41q0 -6 -4 -27q6 -37 6 -45l-2 -59q0 -373 -8 -395.5t-51 -37t-76 -14.5l-164 -2q-31 0 -61.5 15.5t-30.5 41.5q0 12 28 13l127 -2l35 -2q61 0 84 7 t33 8t20.5 3t10.5 33l-1 16l1 129l-9 289v141q0 33 29 33l135 6q35 0 105 -4h4l47 4l49 -2l60 6q83 0 96.5 20.5t20.5 29.5t7 20zM2454 1397q36 0 36 -90l-8 -64l4 -33l-6 -55q0 -31 -10 -59t-26.5 -34.5t-48 -10.5t-43.5 -4h-124l-157 -5l-74 5q-51 0 -105 -7 q-10 -2 -13 -16t-15 -14q-25 0 -25 36t9.5 42t52.5 6l135 -4q126 0 166 4t92 4t108 10q25 6 29 35q14 129 14 164l-4 55q0 35 13 35z" glyph-name="uniFB00" horiz-adv-x="2543" unicode="ff"/><glyph d="M1030 991q60 -1 60 -127q0 -66 -11 -157q0 -18 -14 -25q-39 -16 -78 -16l-96 2l-154 -6q-123 0 -184 -7q-16 0 -18 -16v-96q0 -68 4 -203v-107q6 -117 6 -130t-2 -53t-29 -46q-56 -12 -156 -12t-124 10q-36 15 -35 131l2 92q0 61 -2 130t-3 126.5t-3 77.5t-2.5 43t3 67 t3.5 66l2 168l-2 125l2 33l-2 59l8 160l-4 80q0 25 8 46t39 26q115 4 168 4l55 -4l225 4q262 0 394 -4q20 0 29 -13.5t9 -15.5v-41q0 -92 -12 -180q-2 -23 -26 -29q-57 -10 -68 -10l-49 4l-86 -8l-107 -4l-14 1l-88 -1l-72 2q-47 0 -66 -2t-20 -19q0 -59 6 -119 q0 -12 13 -12h39l102 6l92 -6l125 4l74 -4zM1137 680v111q0 12 -1.5 70.5t19.5 60.5q10 0 18.5 -10.5t8.5 -20.5l6 -148v-81q-8 -100 -133 -109q-53 -4 -80 -4l-182 2l-117 -8q-25 0 -29 -5.5t-4 -41.5l2 -41q0 -6 -4 -27q6 -37 6 -45l-2 -59q0 -373 -8 -395.5t-51 -37 t-76 -14.5l-164 -2q-31 0 -61.5 15.5t-30.5 41.5q0 12 29 13l127 -2l34 -2q59 0 83 7t34 8t20.5 3t10.5 33l-1 16l1 129l-8 289v141q0 33 28 33l136 6q35 0 104 -4h4l47 4l49 -2l60 6q83 0 96.5 20.5t21 29.5t7.5 20zM1182 1397q37 0 37 -90l-9 -64l4 -33l-6 -55 q0 -31 -10 -59t-26.5 -34.5t-48 -10.5t-43.5 -4h-124l-157 -5l-74 5q-53 0 -104 -7q-10 -2 -13.5 -16t-15.5 -14q-25 0 -25 36t9.5 42t52.5 6l135 -4q126 0 166 4t92 4t108 10q25 6 29 35q14 129 15 164l-5 55q0 35 13 35zM1638 -2q-62 0 -125 16q-33 8 -35 39t-3 74l1 31 l1 217l2 31l-4 151v33q2 35 0 35l-2 98l2 287l-5 174l3 37l-9 112q0 29 2 46t26 30.5t44 13.5h170q31 0 50.5 -10t33.5 -14q20 -7 21 -29t1 -88l3 -84l-3 -162v-141l9 -203q0 -16 -11 -119v-6q-2 -10 4.5 -28.5t6.5 -28.5l-9 -123l3 -29l-5 -213l7 -51q0 -82 -60 -88 q-57 -8 -119 -8zM1808 -53q60 0 60 13l12 108v92l-4 348q0 88 6 129v8l-4 41l-6 485l-8 138q0 63 16 63t30.5 -22.5t14.5 -40.5l-6 -41l6 -68l-2 -78l8 -215l-4 -69l8 -121l-4 -160l2 -25l2 -163l7 -41l2 -135q0 -268 -64 -295l-90 -17h-14l-113 8h-33q-70 16 -69 45 q0 14 18 15l84 -4l61 2h84z" glyph-name="uniFB01" horiz-adv-x="2017" unicode="fi"/><glyph d="M1030 991q60 -1 60 -127q0 -66 -11 -157q0 -18 -14 -25q-39 -16 -78 -16l-96 2l-154 -6q-123 0 -184 -7q-16 0 -18 -16v-96q0 -68 4 -203v-107q6 -117 6 -130t-2 -53t-29 -46q-56 -12 -156 -12t-124 10q-36 15 -35 131l2 92q0 61 -2 130t-3 126.5t-3 77.5t-2.5 43t3 67 t3.5 66l2 168l-2 125l2 33l-2 59l8 160l-4 80q0 25 8 46t39 26q115 4 168 4l55 -4l225 4q262 0 394 -4q20 0 29 -13.5t9 -15.5v-41q0 -92 -12 -180q-2 -23 -26 -29q-57 -10 -68 -10l-49 4l-86 -8l-107 -4l-14 1l-88 -1l-72 2q-47 0 -66 -2t-20 -19q0 -59 6 -119 q0 -12 13 -12h39l102 6l92 -6l125 4l74 -4zM1137 680v111q0 12 -1.5 70.5t19.5 60.5q10 0 18.5 -10.5t8.5 -20.5l6 -148v-81q-8 -100 -133 -109q-53 -4 -80 -4l-182 2l-117 -8q-25 0 -29 -5.5t-4 -41.5l2 -41q0 -6 -4 -27q6 -37 6 -45l-2 -59q0 -373 -8 -395.5t-51 -37 t-76 -14.5l-164 -2q-31 0 -61.5 15.5t-30.5 41.5q0 12 29 13l127 -2l34 -2q59 0 83 7t34 8t20.5 3t10.5 33l-1 16l1 129l-8 289v141q0 33 28 33l136 6q35 0 104 -4h4l47 4l49 -2l60 6q83 0 96.5 20.5t21 29.5t7.5 20zM1182 1397q37 0 37 -90l-9 -64l4 -33l-6 -55 q0 -31 -10 -59t-26.5 -34.5t-48 -10.5t-43.5 -4h-124l-157 -5l-74 5q-53 0 -104 -7q-10 -2 -13.5 -16t-15.5 -14q-25 0 -25 36t9.5 42t52.5 6l135 -4q126 0 166 4t92 4t108 10q25 6 29 35q14 129 15 164l-5 55q0 35 13 35zM2193 111q0 -90 -28 -101q-53 -14 -72 -14l-35 4 l-30 -2l-207 -6q-37 0 -111 4q-205 0 -225 35q-27 46 -19 133h2l2 108l-2 27l7 57l-1 14l1 89l-9 145l9 51l-1 13l3 94q0 131 -2 196l-2 74l4 47l-1 23l3 155l-4 107q0 43 20.5 58.5t65.5 15.5l96 -11l65 3h39q39 0 48.5 -18.5t9.5 -41.5l-11 -139l4 -76l-2 -90l7 -115 l-7 -82l9 -106l-9 -113l9 -127l-7 -102q0 -27 5 -76q0 -18 22 -18l103 4l172 -4l32 2q29 0 38 -24t9 -193zM1569 -72q0 14 18 15l195 2l119 -4l67 6q154 0 236 14q16 2 27.5 23.5t11.5 26.5l8 139q0 18 -2 28t2 32.5t4 31.5q4 12 16 12q33 0 33 -72l4 -61q0 -94 -14 -160 q-14 -72 -119 -72l-119 -6l-86 8h-72l-88 -8l-100 4q-59 0 -68 4t-27.5 6.5t-39.5 22.5q-6 2 -6 8zM1919 397q0 -16 -12 -16q-31 0 -35 7t-4 15l2 138l-2 67v22l-4 156v152l4 72l-2 49l8 119l-4 69l-2 78q0 45 20 45q35 0 35 -9v-54l4 -125q0 -92 -8 -166l-1 -7l5 -65 l-2 -203l2 -149l-4 -119v-76z" glyph-name="uniFB02" horiz-adv-x="2336" unicode="fl"/><glyph d="M1030 991q60 -1 60 -127q0 -66 -11 -157q0 -18 -14 -25q-39 -16 -78 -16l-96 2l-154 -6q-123 0 -184 -7q-16 0 -18 -16v-96q0 -68 4 -203v-107q6 -117 6 -130t-2 -53t-29 -46q-56 -12 -156 -12t-124 10q-36 15 -35 131l2 92q0 61 -2 130t-3 126.5t-3 77.5t-2.5 43t3 67 t3.5 66l2 168l-2 125l2 33l-2 59l8 160l-4 80q0 25 8 46t39 26q115 4 168 4l55 -4l225 4q262 0 394 -4q20 0 29 -13.5t9 -15.5v-41q0 -92 -12 -180q-2 -23 -26 -29q-57 -10 -68 -10l-49 4l-86 -8l-107 -4l-14 1l-88 -1l-72 2q-47 0 -66 -2t-20 -19q0 -59 6 -119 q0 -12 13 -12h39l102 6l92 -6l125 4l74 -4zM1137 680v111q0 12 -1.5 70.5t19.5 60.5q10 0 18.5 -10.5t8.5 -20.5l6 -148v-81q-8 -100 -133 -109q-53 -4 -80 -4l-182 2l-117 -8q-25 0 -29 -5.5t-4 -41.5l2 -41q0 -6 -4 -27q6 -37 6 -45l-2 -59q0 -373 -8 -395.5t-51 -37 t-76 -14.5l-164 -2q-31 0 -61.5 15.5t-30.5 41.5q0 12 29 13l127 -2l34 -2q59 0 83 7t34 8t20.5 3t10.5 33l-1 16l1 129l-8 289v141q0 33 28 33l136 6q35 0 104 -4h4l47 4l49 -2l60 6q83 0 96.5 20.5t21 29.5t7.5 20zM1182 1397q37 0 37 -90l-9 -64l4 -33l-6 -55 q0 -31 -10 -59t-26.5 -34.5t-48 -10.5t-43.5 -4h-124l-157 -5l-74 5q-53 0 -104 -7q-10 -2 -13.5 -16t-15.5 -14q-25 0 -25 36t9.5 42t52.5 6l135 -4q126 0 166 4t92 4t108 10q25 6 29 35q14 129 15 164l-5 55q0 35 13 35zM2302 991q59 -1 59 -127q0 -66 -10 -157 q0 -18 -14 -25q-39 -16 -78 -16l-96 2l-154 -6q-123 0 -184 -7q-16 0 -19 -16v-96q0 -68 4 -203v-107q6 -117 6 -130q4 -91 -30 -99q-56 -12 -156 -12t-128 12t-32 129l3 92q0 61 -5 181l-2 49l2 280l2 168l-2 125l2 33l-2 59l9 160l-4 80q0 25 8 46t39 26q115 4 168 4 l55 -4l225 4q262 0 393 -4q20 0 29.5 -13.5t9.5 -15.5v-41q0 -92 -12 -180q-2 -23 -27 -29q-57 -10 -67 -10l-49 4l-86 -8l-107 -4l-55 4l-47 -4l-72 2q-46 0 -66 -2t-20 -19q0 -59 6 -119q0 -12 12 -12h39l103 6l92 -6l125 4l74 -4zM2408 680v111q0 12 -1.5 70.5t20.5 60.5 q10 0 18.5 -10.5t8.5 -20.5l6 -148v-81q-8 -100 -133 -109q-53 -4 -80 -4l-183 2l-116 -8q-25 0 -29 -5.5t-4 -41.5l2 -41q0 -6 -4 -27q6 -37 6 -45l-2 -59q0 -373 -8 -395.5t-51 -37t-76 -14.5l-164 -2q-31 0 -61.5 15.5t-30.5 41.5q0 12 28 13l127 -2l35 -2q61 0 84 7 t33 8t20.5 3t10.5 33l-1 16l1 129l-9 289v141q0 33 29 33l135 6q35 0 105 -4h4l47 4l49 -2l60 6q83 0 96.5 20.5t20.5 29.5t7 20zM2454 1397q36 0 36 -90l-8 -64l4 -33l-6 -55q0 -31 -10 -59t-26.5 -34.5t-48 -10.5t-43.5 -4h-124l-157 -5l-74 5q-51 0 -105 -7 q-10 -2 -13 -16t-15 -14q-25 0 -25 36t9.5 42t52.5 6l135 -4q126 0 166 4t92 4t108 10q25 6 29 35q14 129 14 164l-4 55q0 35 13 35zM2910 -2q-62 0 -125 16q-33 8 -36 39t-3 74l1 31l1 217l2 31l-4 151l2 33q0 35 -2 35l-2 98l2 287l-4 174l2 37l-8 112q0 29 2 46 t25.5 30.5t44.5 13.5h170q32 0 50.5 -10t33.5 -14q20 -7 21 -29t1 -88l2 -84l-2 -162v-141l8 -203q0 -16 -10 -119v-6q-2 -10 4 -28.5t6 -28.5l-8 -123l3 -29l-5 -213l6 -51q0 -82 -59 -88q-57 -8 -119 -8zM2832 -66q0 14 19 15l84 -4l61 2h84t60 13l12 108v92l-4 348 q0 88 6 129v8l-4 41l-6 485l-9 138q0 63 16.5 63t31 -22.5t14.5 -40.5l-6 -41l6 -68l-2 -78l8 -215l-4 -69l8 -121l-4 -160l2 -25l2 -163l6 -41l2 -135q0 -268 -63 -295l-90 -17h-15l-112 8h-33q-70 16 -70 45z" glyph-name="uniFB03" horiz-adv-x="3289" unicode="ffi"/><glyph d="M1030 991q60 -1 60 -127q0 -66 -11 -157q0 -18 -14 -25q-39 -16 -78 -16l-96 2l-154 -6q-123 0 -184 -7q-16 0 -18 -16v-96q0 -68 4 -203v-107q6 -117 6 -130t-2 -53t-29 -46q-56 -12 -156 -12t-124 10q-36 15 -35 131l2 92q0 61 -2 130t-3 126.5t-3 77.5t-2.5 43t3 67 t3.5 66l2 168l-2 125l2 33l-2 59l8 160l-4 80q0 25 8 46t39 26q115 4 168 4l55 -4l225 4q262 0 394 -4q20 0 29 -13.5t9 -15.5v-41q0 -92 -12 -180q-2 -23 -26 -29q-57 -10 -68 -10l-49 4l-86 -8l-107 -4l-14 1l-88 -1l-72 2q-47 0 -66 -2t-20 -19q0 -59 6 -119 q0 -12 13 -12h39l102 6l92 -6l125 4l74 -4zM1137 680v111q0 12 -1.5 70.5t19.5 60.5q10 0 18.5 -10.5t8.5 -20.5l6 -148v-81q-8 -100 -133 -109q-53 -4 -80 -4l-182 2l-117 -8q-25 0 -29 -5.5t-4 -41.5l2 -41q0 -6 -4 -27q6 -37 6 -45l-2 -59q0 -373 -8 -395.5t-51 -37 t-76 -14.5l-164 -2q-31 0 -61.5 15.5t-30.5 41.5q0 12 29 13l127 -2l34 -2q59 0 83 7t34 8t20.5 3t10.5 33l-1 16l1 129l-8 289v141q0 33 28 33l136 6q35 0 104 -4h4l47 4l49 -2l60 6q83 0 96.5 20.5t21 29.5t7.5 20zM1182 1397q37 0 37 -90l-9 -64l4 -33l-6 -55 q0 -31 -10 -59t-26.5 -34.5t-48 -10.5t-43.5 -4h-124l-157 -5l-74 5q-53 0 -104 -7q-10 -2 -13.5 -16t-15.5 -14q-25 0 -25 36t9.5 42t52.5 6l135 -4q126 0 166 4t92 4t108 10q25 6 29 35q14 129 15 164l-5 55q0 35 13 35zM2302 991q59 -1 59 -127q0 -66 -10 -157 q0 -18 -14 -25q-39 -16 -78 -16l-96 2l-154 -6q-123 0 -184 -7q-16 0 -19 -16v-96q0 -68 4 -203v-107q6 -117 6 -130q4 -91 -30 -99q-56 -12 -156 -12t-128 12t-32 129l3 92q0 61 -5 181l-2 49l2 280l2 168l-2 125l2 33l-2 59l9 160l-4 80q0 25 8 46t39 26q115 4 168 4 l55 -4l225 4q262 0 393 -4q20 0 29.5 -13.5t9.5 -15.5v-41q0 -92 -12 -180q-2 -23 -27 -29q-57 -10 -67 -10l-49 4l-86 -8l-107 -4l-55 4l-47 -4l-72 2q-46 0 -66 -2t-20 -19q0 -59 6 -119q0 -12 12 -12h39l103 6l92 -6l125 4l74 -4zM2408 680v111q0 12 -1.5 70.5t20.5 60.5 q10 0 18.5 -10.5t8.5 -20.5l6 -148v-81q-8 -100 -133 -109q-53 -4 -80 -4l-183 2l-116 -8q-25 0 -29 -5.5t-4 -41.5l2 -41q0 -6 -4 -27q6 -37 6 -45l-2 -59q0 -373 -8 -395.5t-51 -37t-76 -14.5l-164 -2q-31 0 -61.5 15.5t-30.5 41.5q0 12 28 13l127 -2l35 -2q61 0 84 7 t33 8t20.5 3t10.5 33l-1 16l1 129l-9 289v141q0 33 29 33l135 6q35 0 105 -4h4l47 4l49 -2l60 6q83 0 96.5 20.5t20.5 29.5t7 20zM2454 1397q36 0 36 -90l-8 -64l4 -33l-6 -55q0 -31 -10 -59t-26.5 -34.5t-48 -10.5t-43.5 -4h-124l-157 -5l-74 5q-51 0 -105 -7 q-10 -2 -13 -16t-15 -14q-25 0 -25 36t9.5 42t52.5 6l135 -4q126 0 166 4t92 4t108 10q25 6 29 35q14 129 14 164l-4 55q0 35 13 35zM3465 111q0 -90 -28 -101q-53 -14 -72 -14l-35 4l-30 -2l-208 -6q-37 0 -110 4q-205 0 -225 35q-27 46 -19 133h2l2 108l-2 27l6 57l-2 14 l2 89l-8 145l8 51v13l2 94q0 131 -2 196l-2 74l4 47l-2 23l4 155l-4 107q0 43 20.5 58.5t65.5 15.5l97 -11l65 3h40q40 0 48 -19t8 -41l-10 -139l4 -76l-2 -90l6 -115l-6 -82l8 -106l-8 -113l8 -127l-6 -102q0 -27 4 -76q0 -18 23 -18l102 4l172 -4l33 2q29 0 38 -24t9 -193 zM2841 -72q0 14 18 15l195 2l118 -4l68 6q154 0 235 14q16 2 27.5 23.5t11.5 26.5l9 139q0 18 -2.5 28t2 32.5t4.5 31.5q4 12 16 12q33 0 33 -72l4 -61q0 -94 -14 -160q-14 -72 -119 -72l-119 -6l-86 8h-72l-88 -8l-100 4q-58 0 -68 4t-28 6t-39 23q-6 2 -6 8zM3191 397 q0 -16 -13 -16q-30 0 -34 7t-4 15l2 138l-2 67v22l-5 156v152l5 72l-2 49l8 119l-4 69l-2 78q0 45 20 45q35 0 35 -9v-54l4 -125q0 -92 -8 -166l-1 -7l5 -65l-2 -203l2 -149l-4 -119v-76z" glyph-name="uniFB04" horiz-adv-x="3608" unicode="ffl"/><glyph d="M383 2q-125 0 -146.5 16t-25.5 80t-6 84l-4 40q-4 40 -2 48t0 32t-2 30l2 90l-4 127l6 147l8 336l-8 193l4 94l-4 59q0 51 43 52q53 4 80 4l122 -2l320 8l80 -2l188 8l105 -10h75q45 -2 56 -43q23 -82 22 -203l-2 -57l6 -164l-2 -70l2 -41l-6 -82l8 -98l-2 -246l4 -72 l-2 -32l5 -47q-1 -20 -3 -47t1.5 -121.5t-44.5 -100.5q-152 -16 -282 -16q-188 6 -377 6q-57 4 -84 4l-125 -4h-6zM1337 635l1 82q1 82 5 108v29l-2 82l5 82q0 146 -4 170t-5 35l6 59v45l3 4h4q39 -25 39 -55v-45l1 -33l3 -229l4 -117l-8 -150v-73l4 -64l-4 -57q0 -45 6 -66 v-12l-2 -53l12 -189l-6 -98l2 -72l-8 -26v-4l2 -4l-6 -19q-29 -59 -86 -65l-74 -9l-101 5l-92 -9l-39 4q-8 -4 -77 -4l-93 7l-67 4l-37 -7l-37 7l-154 6l-65 -4q-84 0 -94.5 16t-10.5 21q0 14 19 14l125 4l104 -4l441 -4q92 0 180 6q109 4 112 92v61q4 86 5 130l-5 92v182z M569 229l121 -2l166 4h109q-14 25 -115 158l-74 105q-10 18 -24 20q-16 -18 -97.5 -143t-85.5 -142zM774 1210l-199 -2h-22l184 -286l19 24l102 154q2 4 32 46.5t30 49.5l-2 4v4q-70 6 -144 6zM1063 723q0 203 -19 242q-10 -4 -30 -37t-76 -109q-55 -76 -55 -85t75.5 -109.5 t98.5 -128.5q6 24 6 227zM596 735q0 8 -8 21q-115 172 -146 196l-4 -258q0 -88 6 -170l7 -4q25 33 69 103l68 92q8 12 8 20zM891 283q0 -16 -64 -17l-151 -2h-6q-2 2 -4 2h-12q-11 0 -11 10q0 25 53 25l78 -2l27 4l35 -6l26 2q29 0 29 -16zM530 692q0 -6 -22.5 -37.5 t-28.5 -31.5q-12 0 -12 36l4 70q0 63 2 96q23 -8 25 -32q4 -61 8 -97l20 11q4 -9 4 -15zM758 1004q0 -8 -15 -13q-6 0 -15 13t-40 60.5t-46 67.5t-15 25v2q8 4 14 4q7 0 19 -12t55 -75.5t43 -71.5zM1039 584q-10 0 -35 36t-50 58l-24 35q0 14 15 14t49 -46t39 -51t6 -19.5 t5 -18.5q0 -8 -5 -8z" glyph-name=".notdef" horiz-adv-x="1497"/><glyph glyph-name="glyph1" horiz-adv-x="0"/><glyph glyph-name="glyph2" horiz-adv-x="681"/><glyph glyph-name="space" horiz-adv-x="655" unicode=" "/><glyph d="M395 444h-35l-71 -4q-55 0 -84 43q-6 8 -6 60l6 49q0 68 -2 100l-6 41l-2 141l4 64q2 43 2 133t2 133l6 45l-12 66q0 106 75 108l103 2l67 -4q76 0 80 -61l4 -47l-2 -70l-2 -47l8 -63l-14 -95v-53l-4 -82l2 -55l-2 -31l6 -88v-39l4 -39l2 -76l-6 -92q0 -39 -123 -39z M535 152q-1 -30 -7 -42q-6 -10 -10 -26q-47 -92 -137 -92q-20 0 -53 12q-125 39 -125 170q0 76 88 131q15 10 43 10t38.5 -3t24 -8t23.5 -7q45 -14 80 -64.5t35 -80.5zM270 394q0 7 6 7l52 2l96 -4q96 0 118.5 31t22.5 133v223l-2 2v250l4 49l-2 25q0 39 1 118t1 120l45 -50 q0 -61 4 -92q0 -60 5 -92q-6 -18 -7 -37l4 -51l-2 -53l7 -80l-5 -66l5 -47l-7 -73l7 -99l-2 -49l6 -35l-13 -47q-4 -33 -10 -55t-34.5 -43t-57.5 -21l-55 5l-82 -3l-76 5q-6 0 -17.5 10t-11.5 17zM625 126q-1 -20 -13 -78q-12 -60 -60 -92t-108 -32t-84 35h48 q72 -2 119.5 47t47.5 123q0 27 -13 60.5t-13 38t6 8.5q33 -4 43 -33q2 -6 8 -15.5t12 -25.5t7 -36z" glyph-name="exclam" horiz-adv-x="729" unicode="!"/><glyph d="M514 1351l-25 -384q0 -23 -11 -32t-18 -10t-36 -1h-178q-20 0 -27 20l-10 60l-25 204q-10 96 -10 116t8 44q4 23 29 25l72 4q141 12 152 12t57 -4q22 -4 22 -54zM944 1351l-24 -384q0 -23 -11.5 -32t-18.5 -10t-36 -1h-178q-20 0 -27 20l-10 60l-25 204q-10 96 -10 116 t8 44q4 23 29 25l72 4q141 12 152 12t57 -4q22 -4 22 -54zM549 1257l4 93v10q4 -2 41 -29q-2 -14 -2 -133l-21 -246q-2 -118 -133 -118t-144 8t-30 30q6 8 41 9h51q16 -4 27 -4l96 8q45 2 49 65l11 113zM979 1257l4 93v10q4 -2 41 -29q-2 -14 -2 -133l-21 -246 q-2 -118 -133 -118t-144 8t-30 30q6 8 41 9h51q16 -4 27 -4l96 8q45 2 49 65l11 113z" glyph-name="quotedbl" horiz-adv-x="1120" unicode="&quot;"/><glyph d="M1802 1030q0 -25 -20.5 -78t-34.5 -78q-29 -41 -70 -40l-94 -3l-137 3q-16 0 -25 -21l-30 -88q-41 -109 -48 -125q25 -6 27 -6l60 6q102 0 132 -4t52 -16q10 -8 10 -30t-17.5 -84.5t-27.5 -84.5q-20 -53 -109 -43q-14 2 -42.5 0t-36.5 -2h-97l-16 2q-12 0 -24 -39 q-71 -222 -88 -268q-17 -45 -58 -45h-70q-47 0 -97 13t-50 45t45 146.5t49 135.5q-264 6 -272 6t-15 -15l-18 -59q-35 -141 -66 -215q-18 -49 -72 -51t-83 -2q-135 0 -135 61q0 16 94 273q-10 2 -104.5 7t-143.5 15q-37 6 -37 49t45 148q14 37 76 37l86 -2l41 2l117 -5 q20 0 26 23q57 178 66 213l-84 -4l-49 6l-37 -4q-20 0 -80 18q-27 12 -27 47q0 104 35 175q12 27 46 27t149 1q115 0 120 6t15 32t43 127t55 153q16 39 102 39t146 -19q20 -6 20 -48t-92 -282l27 -2l27 1l172 -1q53 0 57 19q10 33 33.5 135t54.5 158q31 55 117 55 q45 0 127 -16q27 -6 27 -33t-72 -242l-17 -63q0 -10 32 -12t130 -3l62 2q73 0 73 -53zM1714 506q0 -8 -11 -66t-46 -157q-20 -57 -164 -58l-113 2q-27 -4 -39 -22q-6 -12 -12 -37.5t-11 -39.5t-26.5 -85t-31.5 -99t-31 -48.5t-37 -18.5h-4q-146 6 -162 9t-29.5 16.5 t-13.5 26t29 12.5l112 -11q57 0 76 31q25 45 28 65t18 68q15 49 30 102.5t24.5 71t38.5 17.5l89 -2q88 -2 126 1t57 35.5t21 54.5t8 29q6 8 19.5 64.5t21.5 62.5q33 -10 33 -24zM858 801q-59 -193 -59 -202t125 -9l43 2l73 -4q10 0 18 17t39 104t36 120h-60l-184 -2 q-20 0 -31 -26zM899 254q0 -37 -46 -37t-52 -2q-19 -1 -27 -23t-27.5 -95.5t-57 -144.5t-126.5 -75q-10 -2 -43 -2t-86 8q-53 9 -62 23t-10 22q0 18 23 18.5t75 -7t78.5 -7.5t52.5 4t45 39t35.5 80t36 112t23.5 79t6 17t7.5 6t8.5 2t11 0t14 -1l90 -4l16 1q15 1 15 -13z M1440 631q-25 0 -25 18q0 5 6 19t31 88q8 26 37 28t69.5 3t90 2.5t81.5 1.5t58.5 53t41.5 105t25.5 52t18.5 -11t8 -21q0 -55 -59 -168q-8 -14 -41 -53q-18 -16 -80 -17l-31 2l-17 -1l-128 -3q-29 0 -37 -24q0 -12 -13.5 -42t-21.5 -30q-4 -2 -14 -2zM1063 778 q0 -45 -96 -45q-41 0 -49.5 -17.5t-15.5 -38t-10 -26.5t-4 -13t-23 -7q-21 0 -21 10t23.5 71.5t29.5 68.5t14 7h70v-2q82 0 82 -8zM1110 1372q20 0 20 -16t-21.5 -94t-31.5 -106t-28 -28l-29 2q0 14 63 224q7 18 27 18zM1577 1126q-20 0 -21 11v4q8 14 14.5 42.5t11.5 40.5 t8 30q3 19 15.5 52t14.5 46q6 10 16 10q31 0 31 -23l-35 -120q0 -6 -28 -84q-2 -8 -13 -9h-14z" glyph-name="numbersign" horiz-adv-x="1935" unicode="#"/><glyph d="M819 995v-104q0 -14 15 -19q130 -41 158 -54t69 -30q180 -79 180 -337q0 -78 -31.5 -168t-83.5 -142q-20 -25 -76 -75t-192 -72q-16 -2 -16 -19q-2 -10 1.5 -65t-48.5 -55q-125 0 -156 16q-19 8 -21 28.5t-2 24.5v33q-4 18 -7 20.5t-13 4.5q-305 61 -385 249 q-15 33 -25 89t-10 77q0 72 35 84q35 13 80 13t71 2l58 2q74 0 74 -56q0 -127 69 -168q6 -6 27 -10q2 37 2 128t-6 196q-108 23 -126 31t-57.5 24t-99.5 68.5t-85 136.5q-26 84 -25 156q0 121 63 219q2 2 8 12.5t15 24.5t37 34.5t46.5 30.5t61 29.5t64.5 31.5t73 23 q8 4 12 33q5 30 9 52t29.5 36t44 15t78.5 1t72 -14q13 -14 15 -29l10 -69q1 -12 17 -16t56 -11t55 -15t68.5 -29.5t80.5 -41.5q45 -41 54 -57q44 -81 44 -142l6 -63q0 -37 -21 -57t-81 -19l-55 4l-103 -10q-23 0 -44 15.5t-25 29.5t-8.5 33.5t-14 36t-37.5 20.5 q-4 -39 -4 -117zM1290 358q0 87 6 129l-16 103v4q55 0 55 -145q0 -39 -3 -97t-26.5 -105t-26.5 -65t-44 -72t-66 -78t-85 -56t-72 -42t-37 -16q-24 -6 -25 -22q0 -94 -48 -114t-109 -22h-76q-23 0 -32.5 7.5t-18.5 39.5q20 4 30 5l19 -2l13 1l54 2q41 1 45 3t14.5 4.5 t30.5 11.5q20 10 21 62l-4 36q0 12 22 21q186 68 240 139q139 181 139 268zM1028 944q225 0 225 76v33q0 119 -49 229q6 2 15 2q29 0 55 -93t26 -140t-12 -78t-40.5 -45.5t-51 -18.5t-72 -7t-64.5 -5t-27.5 -2t-24.5 4t-32 6t-27 9.5t-9 29.5h88zM838 270q49 0 86 50.5 t37 101.5q0 76 -127 110q-5 -35 -5 -79l-6 -154q0 -10 4 -27q4 -2 11 -2zM479 1042q0 -47 38 -88t81 -41q10 0 10 3l-6 108h2l-4 94q-6 20 -14 21q-18 0 -62.5 -25t-44.5 -72zM852 338q0 147 17 147t18.5 -54.5t1.5 -70.5t-7.5 -36.5t-15.5 -20.5q-14 0 -14 35zM864 889 q-23 0 -22 24v37h2q0 53 14 54q19 0 19 -31l-5 -66q0 -18 -8 -18z" glyph-name="dollar" horiz-adv-x="1415" unicode="$"/><glyph d="M987 1118q0 -86 -20 -147l-13 -41q-8 -43 -43 -88q-100 -123 -215 -140q-82 -10 -106 -10l-6 2v-4l-95 17q-58 23 -92.5 33t-66.5 30q-40 30 -98 100t-58 176t40 185.5t107 120.5t89 45t80 18.5t96 14.5q166 0 303 -105q12 -8 41 -47q57 -74 57 -160zM2101 368 q0 -56 -7.5 -89t-29.5 -87t-61 -88q-74 -61 -105 -77q-84 -47 -164 -47t-175 31.5t-160 86.5q-88 70 -88 237q0 209 73.5 256.5t83.5 55.5q61 45 152 55q51 8 117 9q139 0 248 -70q25 -16 73 -74q16 -20 29.5 -81.5t13.5 -117.5zM1578 1430q114 0 114 -23t-18 -51 t-75.5 -118t-201.5 -335l-221 -387q-12 -20 -41 -77t-119 -201t-116 -190q-28 -46 -64 -46h-162q-49 0 -49 28.5t88 172.5q4 6 10 20.5t18 38.5t54.5 99t57.5 106t29.5 49.5t47.5 73.5l178 295q6 10 41.5 63.5t61 105.5t87.5 150l19 25q60 93 85 137t35.5 50.5t25 10 t22.5 4.5t28.5 0t64.5 -1zM1708 1327q14 0 14 -10q0 -35 -32 -84t-37 -74l-37 -61q-37 -62 -48 -77q-12 -15 -16 -29t-32 -63q-28 -50 -37 -68.5t-17 -31.5q-8 -14 -40 -65t-68 -120t-52 -87t-24 -44t-16 -37t-41.5 -61.5t-42.5 -78.5q-8 -28 -26.5 -55t-22.5 -33l-43 -76 q-12 -29 -24 -42q-12 -12 -28 -42t-40 -62t-54 -77q-31 -43 -75 -48t-107 -5t-69.5 2t-10.5 3t-11 15t-7 27l43 6l81 6l56 -4q41 0 59 26q80 94 156 238q141 249 153 275t27 48t27 40t30.5 51t41 71t119.5 212t117 206t42 73.5t31 55.5l43 72q4 8 18 8zM2146 409 q0 118 -53 181q6 0 49 -29q20 -27 26 -34t20 -71.5t14 -125.5q0 -62 -6 -80t-15.5 -46t-12.5 -36t-12.5 -31.5t-14.5 -33t-15 -29t-19.5 -29.5t-21.5 -24.5t-38 -32.5q-103 -70 -198 -99q-33 -8 -119 -8t-177.5 33.5t-116.5 93.5q4 4 8 4t16 -7t70 -33.5t104 -26.5l127 -13 q16 0 41 7.5t35 8.5t23.5 7t19.5 8q59 16 123 70q4 4 20.5 14t22.5 19q76 94 82 151q2 14 10 44t8 148zM1061 1145q0 -207 -51 -309q-11 -22 -11 -29q-4 -4 -33.5 -47t-42.5 -55t-42 -24.5t-38 -18.5t-69 -30t-158 -24q-10 0 -24 3t-41 5t-53 5t-83 33t-59 59l39 -17 q98 -43 205 -43t209 45q215 96 215 428q0 131 -70 199q-12 12 -12 19q0 18 23 -5q41 -32 68.5 -95t27.5 -99zM680 1081q0 54 -44 98t-90 44t-70.5 -50.5t-24.5 -101.5t33.5 -91t86.5 -40t81 43.5t28 97.5zM1671 494q-80 0 -80 -149q0 -54 25.5 -94t73.5 -40t75 39t27 84 l2 28q0 53 -38 92.5t-85 39.5zM1702 438q0 -6 -18.5 -39t-18.5 -53t9 -39.5t9 -29.5t-6 -19q-53 27 -53 92q0 35 16.5 71t47.5 36q14 -1 14 -19zM553 1184q6 0 6 -7t-18.5 -37t-18.5 -60t7.5 -46t15.5 -23t8 -12q0 -12 -9 -12t-18 8q-43 23 -43 90.5t56 94.5q8 4 14 4z" glyph-name="percent" horiz-adv-x="2277" unicode="%"/><glyph d="M714 1450q124 0 237.5 -99.5t113.5 -234.5q0 -20 -8 -57q-27 -92 -35 -113t-69.5 -85t-82.5 -77t-32 -24q14 -18 59.5 -81.5t83.5 -100.5l33 47q2 4 10 16t12 18.5t25 31t49 24.5q29 0 103.5 -41.5t90.5 -59.5t15 -32q0 -14 -8 -34t-21.5 -44.5t-16.5 -32.5t-45 -64.5 t-42 -63.5t46 -66.5t71 -85.5t46 -46t21 -34l-6 -25v-14q0 -15 -2 -17t-4.5 -6t-16.5 -8q-57 -20 -180 -21q-77 0 -127.5 44.5t-52.5 44.5l-29 -13q-54 -38 -71 -43.5t-19 -7.5q-88 -59 -235 -59q-41 0 -110 14t-89 26t-66 31q-77 30 -151 138q-18 29 -18 55l-19 137l6 72 q4 111 43 175t133 157q10 10 10 13t-22 42q-23 38 -29 64t-21 66t-15 81l6 76q0 66 39 119t74 94.5t106 60.5h2q84 43 208 43zM483 427q0 -50 30 -92t77 -42h51q33 0 83 17t62 40q-14 20 -45 57t-73 87t-90 92q-43 -20 -69 -64.5t-26 -94.5zM1393 -16q0 -8 -57.5 -29 t-78.5 -23l-45 -8q-63 0 -157 35q-6 2 -34 18.5t-39 16.5t-28 -8q-162 -92 -323 -92q-90 0 -133 22q-12 6 -57 19t-99 61q-6 6 -6 12t1 11.5t1 7.5q27 -6 47 -19q106 -61 229 -61q212 0 351 102q8 8 14 8t62.5 -38.5t124.5 -38.5q69 0 145 22l53 14q6 0 17.5 -12t11.5 -20z M1143 1134q0 -62 -8 -104t-43 -135q-4 -10 -54 -72q-33 -47 -65 -73q-55 -37 -60 -37q-20 0 -20 18q0 10 29 33q31 20 47 49l73 88q16 31 20 42t22 53q20 42 20 90t-1 61.5t-4 27t-4 21.5t-7.5 22.5t-8.5 19.5t-11 21.5t-11 19.5t-13.5 22.5t-14.5 24.5t-22.5 20.5 t-23.5 23.5q6 2 16.5 2t48.5 -36t66.5 -88t28.5 -114zM719 1079q0 27 -13.5 53.5t-37.5 26.5q-63 0 -80 -35q0 -2 -9 -11t-9 -38q-1 -69 61 -157q88 88 88 161zM1368 496q0 -24 -42 -93t-71 -100l-28 27q8 23 45 78t60 96t26 41q10 -25 10 -49zM625 331q0 -5 -21 -5 t-51.5 29.5t-30.5 73.5t37 87q4 4 10 4t6 -10l-6 -51q0 -27 7 -64t42 -55q7 -4 7 -9zM635 983q-12 0 -22.5 35t-10.5 51t10 31.5t30 15.5t20 -16q-20 -33 -21 -64l6 -39q0 -14 -12 -14z" glyph-name="ampersand" horiz-adv-x="1523" unicode="&amp;"/><glyph d="M514 1351l-25 -384q0 -23 -11 -32t-18 -10t-36 -1h-178q-20 0 -27 20l-10 60l-25 204q-10 96 -10 116t8 44q4 23 29 25l72 4q141 12 152 12t57 -4q22 -4 22 -54zM549 1257l4 93v10q4 -2 41 -29q-2 -14 -2 -133l-21 -246q-2 -118 -133 -118t-144 8t-30 30q6 8 41 9h51 q16 -4 27 -4l96 8q45 2 49 65l11 113z" glyph-name="quotesingle" horiz-adv-x="690" unicode="'"/><glyph d="M745 -12q0 -39 -77.5 -93.5t-120.5 -54.5q-15 0 -30 16.5t-29.5 31.5t-22.5 32q-70 88 -142.5 211t-90.5 189t-38 151q-20 83 -20 179t6 138q27 182 103.5 359.5t195.5 300.5q57 61 88 61q55 0 135 -63q23 -14 35 -62q-10 -28 -58 -94q-47 -66 -67 -106t-73 -144 t-54 -350q0 -104 72 -352q29 -92 76 -164q4 -6 58 -85t54 -101zM780 1396q0 32 -27.5 58.5t-55 41t-27.5 26.5t12 12q6 0 8 -2q90 -41 110 -71t21 -54q0 -24 -3 -45t-20 -45q-17 -25 -42 -73t-55.5 -99t-82.5 -180q-37 -100 -36 -275t28 -238t31 -75q29 -100 74 -168l57 -76 q0 -2 41 -59q39 -64 39 -98t-16 -57q-16 -24 -85 -79t-98 -55t-28 16q0 10 89 64.5t89 109.5q1 23 -9 39t-107.5 161.5t-133.5 346.5l-10 99q-4 45 -4 63l2 100q2 99 55 236q2 6 8 25t16 35t35 64t37 65t19 38q33 61 51 89t18 60z" glyph-name="parenleft" horiz-adv-x="878" unicode="("/><glyph d="M434 -160q-23 0 -22 13q0 14 53 67q131 162 211 349t80 381t-77 418t-228 380q-2 2 -29 23t-27 29q0 9 26 9t81 -61q152 -158 228.5 -380t76.5 -447q0 -88 -53 -283q-37 -131 -159 -314.5t-161 -183.5zM133 -12q0 23 54.5 101.5t58.5 84.5q47 72 76 164q72 248 71 352 q0 184 -55 344q-6 18 -16.5 39t-23 45.5t-32.5 67.5t-66 104t-59 92q12 49 35 64q80 63 135 63q33 0 88 -61q119 -123 196 -300t103 -360q6 -43 7 -152t-54 -298q-23 -86 -113.5 -238.5t-141 -206t-64.5 -53.5q-43 0 -121 54.5t-78 93.5z" glyph-name="parenright" horiz-adv-x="878" unicode=")"/><glyph d="M740 1423q9 0 53.5 -72.5t44.5 -89.5t-18 -27t-48.5 -26t-46.5 -26q133 -68 133 -97q0 -14 -29.5 -66t-46.5 -73q-14 -24 -29 -24t-65.5 29.5t-64.5 31.5q-6 -16 -7 -31l1 -57q1 -57 -29 -57l-78 2l-35 -2q-29 0 -45 3t-19 25t-3 63q0 40 -7 46q-113 -70 -132 -70 q-19 -1 -30 17t-38 81.5t-27 77.5t27.5 30.5t62.5 34t45 28.5l-108 57q-25 12 -25 29q0 41 72 157q10 14 20.5 14.5t63.5 -34.5t67 -39v16l-4 101q0 37 58 36l13 -1l101 1q31 1 38 -25t7 -128q8 4 63.5 34.5t64.5 30.5zM514 760q-18 0 -50 8t-32 21t35 14h141q34 1 36 31 q1 16 -3 58t18 42q15 0 15 -41l-2 -33v-41q-2 -25 -18.5 -38t-34 -14t-44 -2t-35.5 -3q-8 -2 -26 -2zM899 1262q0 -55 -57 -78l-25 -13q-4 -4 -18 -4t-15 13q0 8 43 28.5t43 46.5t-34.5 87t-40.5 73h18q9 0 17 -13t38.5 -61.5t30.5 -78.5zM909 1047q0 -2 -15 -63t-79 -101 q-8 -4 -19 -4q-12 0 -12 10t12 18t40 44.5t35 74t26 37.5q12 0 12 -16zM374 848q-9 0 -15.5 13t-10.5 13t-15 -7t-34 -7t-23 9t39 27.5t53 18.5t13 -32l2 -23q0 -12 -9 -12zM694 1449q0 -7 -20.5 -21.5t-28.5 -16.5q-10 14 -10 29v12q0 45 12 45t13.5 -23.5t7.5 -23.5l16 6 q10 0 10 -7z" glyph-name="asterisk" horiz-adv-x="1032" unicode="*"/><glyph d="M518 1124h121q55 0 84 -2q37 0 40 -43t3 -145t4 -119q41 -8 136 -8t112 -2q43 -2 45 -45q2 -14 2 -102q0 -115 -14.5 -122.5t-102.5 -7.5l-153 4l-35 -2l-2 -34l8 -230q0 -45 -41 -47q-78 -6 -154 -6q-107 0 -110 57q0 142 -4 228q0 25 -21 24l-86 -8q-74 -4 -108 -4 q-78 0 -82 49q-4 43 -4 119t2 90q2 33 37 33q115 4 175 4t75.5 10t15.5 68l-6 131q0 75 18.5 92.5t44.5 17.5zM858 407v-47l-2 -110l4 -33q0 -10 -5 -15t-7 -25.5t-25 -34.5t-44 -14q-21 1 -52 -4t-45 -5l-61 4h-26q-26 0 -29 2t-9 4t-10 5l-10 7.5t-17 26.5l14 1l68 -1 l55 6q6 0 30 -1t51.5 1.5t47 18.5t19.5 51l4 45q2 4 2 10l-4 68q0 2 -3 57t32 55l143 6h75.5t53.5 54q2 23 2 71l-2 138q0 14 10 14t19.5 -16.5t9.5 -28.5l10 -137q0 -113 -33 -131t-57 -19l-129 -8l-33 1q-33 1 -40 -6t-7 -10zM860 946q0 -107 -22 -106q-31 0 -31 80v28 q0 125 10 129l4 2q25 0 29 -32zM408 455v-4q0 -20 -6 -26.5t-78 -9.5t-99 5q-18 8 -18 31q0 14 39 14h121l20 2q21 0 21 -12z" glyph-name="plus" horiz-adv-x="1220" unicode="+"/><glyph d="M561 207q0 -8 -5 -21l-34 -103q-30 -91 -39 -117t-55 -187q-14 -39 -53 -39l-201 2q-43 0 -43 27q0 15 27.5 98t42.5 142q14 59 31.5 114t21.5 71t7 21.5t6 9.5t9.5 6t11.5 4.5t8 2.5h34l94 -5q44 0 113 -6q24 0 24 -20zM199 -295l94 -4q121 0 145 14t86 233.5t70 223.5 q14 -14 24 -39q-16 -68 -71 -243t-74 -201q-14 -14 -18 -17q-37 -18 -101 -18l-94 6q-53 0 -67 4l-13 37q12 4 19 4z" glyph-name="comma" horiz-adv-x="696" unicode=","/><glyph d="M862 780q82 0 82 -18q2 -14 2 -78t-5 -90q-5 -25 -46 -29q-125 -14 -162 -14l-225 6l-184 -6q-76 0 -126 6t-51 37v84l-1 40q-1 40 11.5 46t45.5 6h39q96 -2 317 4t303 6zM1006 750q41 0 41 -166q0 -89 -38 -103.5t-92.5 -16t-78.5 -5.5q-16 4 -23 4l-63 -8l-224 10 l-110 -4l-137 -2q-86 0 -86 35q0 16 77 16l66 -6l164 10l194 -4l88 6l70 -4q10 0 16 2q102 8 114.5 23.5t12.5 119.5l-4 70q0 23 13 23z" glyph-name="hyphen" horiz-adv-x="1105" unicode="-"/><glyph d="M467 135q0 -13 -5 -23t-28.5 -65t-122.5 -55q-16 0 -53 12q-123 39 -123 170q0 76 88 131q17 10 43 10t36.5 -3t24 -8t23.5 -7q45 -14 81 -63.5t36 -98.5zM256 -47v6q22 -6 44 -6t74 8t91 61.5t39 110.5t-35 117v2q72 -22 72 -132t-84 -169q-35 -27 -64 -27h-31l-38 -4 q-8 0 -38 13.5t-30 19.5z" glyph-name="period" horiz-adv-x="598" unicode="."/><glyph d="M1049 1301q0 -39 -47.5 -124t-54.5 -103t-25.5 -59.5t-26.5 -62.5l-123 -290q-10 -23 -92 -227t-110 -263t-51.5 -116t-58 -105.5t-94.5 -48.5q-61 0 -132.5 24.5t-71.5 46.5q0 6 6 17q127 -39 166 -39t72.5 25.5t47 49t37 81t36.5 83.5t48 114.5t58 135.5t61.5 146.5 t48.5 124.5l123 290q11 27 44 103q101 234 128 235q11 1 11 -38zM999 1397q0 -40 -45 -123.5t-58 -116.5t-50 -115l-123 -290q-96 -242 -136 -327q-41 -85 -61 -139t-26 -69l-19 -37q-47 -112 -75 -150t-80 -38t-126 22t-80.5 30.5t-6.5 35.5q0 28 18 62t49 113t43 107 l68 160l51 111q90 205 110 243t51.5 107.5t49.5 102.5q17 33 61 129q77 170 98 204.5t66 34.5q221 0 221 -57z" glyph-name="slash" horiz-adv-x="1112" unicode="/"/><glyph d="M634 -29q-15 0 -49.5 9.5t-50.5 20.5t-47 22q-88 31 -163.5 148.5t-96.5 219.5q-53 262 -53 428t57 326q2 5 44 69t73 91q100 90 150 108q50 19 146 19q95 0 190 -52l24 -12q61 -20 140 -105t116 -257t37 -344l-6 -127q-1 -55 -19 -122t-25 -83t-15 -48t-26 -60 t-29.5 -54t-39.5 -47q-51 -51 -143 -105q-25 -14 -112 -30t-102 -15zM670 1126q-16 0 -36 -12t-28 -14q-47 -20 -59 -72q-43 -227 -43 -362q0 -295 145 -377q8 -4 51 -4t72 108.5t29 173.5l-2 33l12 145l-2 56l4 49v8q-13 177 -53.5 222.5t-89.5 45.5zM700 -125 q-92 0 -186 59q-4 0 -4 8t11 9q11 0 49 -11q38 -12 98 -12q61 0 196 39q55 14 150 92q51 47 57 56q141 219 141 596q0 74 -4 92t-16 125q-31 254 -191 415q7 5 15 5t30.5 -16.5t36.5 -31.5t50.5 -68.5t38.5 -63.5t20 -42q18 -31 59 -243l19 -170l-4 -37q0 -197 -8 -242 t-15 -71.5t-19 -83.5q-11 -57 -27.5 -91t-23.5 -54q-14 -39 -90.5 -119.5t-184.5 -110.5q-106 -29 -198 -29zM680 378q0 -11 -14 -22q-39 16 -72 93t-33 129l-8 49l4 16l-6 74q0 283 102 338q21 -21 21 -32t-10 -28q-33 -43 -41 -129l-9 -47l-10 -123q0 -23 10.5 -96.5 t16.5 -85.5l6 -20q2 -18 22.5 -61.5t20.5 -54.5z" glyph-name="zero" horiz-adv-x="1325" unicode="0"/><glyph d="M465 -10q-35 0 -71 20.5t-36 52.5l11 181l-9 65l2 64l-6 127l13 178l-2 43l6 61l-3 57q-3 57 0 86t3 40l-27 -11q-8 -4 -37 -19t-43 -15t-22 2t-14.5 4t-11.5 8t-9 10t-7 13.5t-10.5 24.5t-7.5 46l-10 76q0 51 51 86q24 17 97.5 86.5t131.5 112.5t107 43q119 0 127 -99 q10 -102 10 -246l-6 -333l6 -344q6 -344 0 -372t-26 -34q-57 -14 -207 -14zM383 -72q0 14 20 15l21 1l129 -3q61 0 139 10q31 4 52.5 32.5t21.5 59.5l-1 9l1 63l-4 59l2 20l2 144l2 63l-8 220l4 79l-4 273l2 57l-4 123l-2 174q0 12 14 12q4 0 8 -5t10 -8t13.5 -10 t12.5 -18.5t9 -21t4 -17.5v-69l-4 -137l1 -21l-5 -139l6 -59l-4 -46l8 -96l-1 -11l-2 -35l-1 -95v-41l-4 -43l4 -31q8 -51 9 -119l4 -69l-7 -68q0 -10 5 -26q-10 -20 -11 -74l4 -37q0 -112 -47 -137q-2 0 -11 -8t-34.5 -15.5t-40 -8.5t-51.5 0t-39 1l-94 -4q-50 0 -76 12 t-49 39q-4 0 -4 6zM334 876q0 -20 -10.5 -28t-29 -15.5t-24.5 -10.5t-10 -3q-16 1 -16 17t7 22t36.5 24.5t36.5 18.5h4q6 -5 6 -25z" glyph-name="one" horiz-adv-x="899" unicode="1"/><glyph d="M1077 1070q0 -42 -18.5 -122t-20.5 -97t-7 -27q-9 -18 -44.5 -68t-85.5 -152q-15 -31 -43 -54t-39.5 -38.5t-31.5 -44.5t-61.5 -77.5t-70.5 -90.5q8 -8 60 -8l166 8l110 -6q59 -6 60 -123q0 -68 -11 -145q-6 -29 -36 -33l-39 -2l-115 12l-121 -10h-2q-111 12 -240 12 l-34 -4l-35 2l-76 -2q-4 0 -40 -1t-74.5 5.5t-51.5 44.5q-2 2 -2 15t10 59q-4 16 -4 27q0 80 32 118t40 52q17 32 82.5 89.5t189.5 227.5q137 176 168 242q23 14 25 34q16 18 16 41q14 20 15 47q0 102 -146 103q-14 0 -29 -10q-100 -22 -161 -72q-10 -6 -65 -60.5t-75 -54.5 t-38.5 11.5t-20.5 23.5q-12 74 -12 160t19 132t36 52q24 12 56 38t66 40t49 24t35.5 15.5t49 8.5t48.5 9t108 6l84 -2q36 -4 92 -32q70 -21 120 -59t64 -85q8 -16 16 -28t20.5 -60.5t12.5 -90.5zM284 -57l112 -2q113 -2 128 -2l174 -7l20 3l152 8l185 6q29 0 34 20.5 t11 28.5t6 22l-1 8l-1 66l-6 111q0 31 22 31q14 0 28.5 -15.5t14.5 -30.5l-2 -36l1 -12l1 -70l2 -68l-14 -70q0 -20 -23 -32q-47 -29 -167 -29h-185l-57 6l-29 -2q-23 -4 -102 -4l-101 8q-104 0 -178 10q-29 4 -61 46q10 6 36 6zM791 354q-17 0 11 33t64 84t76.5 102.5 t62.5 94.5q23 43 51.5 104.5t37.5 77.5q39 76 39 215q0 72 -48 217q39 -10 52 -39q53 -114 53 -196l-6 -62l2 -35q0 -60 -44 -160t-66 -128t-32 -51t-16 -31t-19.5 -30t-25.5 -38t-24.5 -28.5t-45 -57.5t-43.5 -57q-10 -13 -34 -13t-41 -2h-4zM586 1061q92 0 92 -71 q0 -32 -19 -58l-4 4q-14 33 -30.5 42t-53.5 9l-39 -3q-40 -3 -76 -29.5t-52 -26.5t-31 10q9 12 33 28t51.5 37t54.5 39.5t74 18.5z" glyph-name="two" horiz-adv-x="1251" unicode="2"/><glyph d="M1081 389q0 -80 -26.5 -146.5t-71.5 -105.5q-10 -8 -24.5 -28.5t-20.5 -24.5q-156 -102 -315 -102l-129 12q-43 4 -130.5 24.5t-112.5 36.5t-38 15q-39 18 -39 62t14 192q2 23 15 45t29 22q20 0 86.5 -32.5t102.5 -42.5q35 -9 115 -9t146 33q29 12 43 37.5t16 28.5 q13 8 13 16t-13 51q-18 76 -190 76l-84 -6l-43 2h-41q-41 0 -60.5 23.5t-19.5 185.5q0 127 90 127l33 -7q39 7 119 13t127 28.5t47 72.5t-31 72.5t-76 22.5l-45 9q-193 0 -241 -43q-57 -46 -96 -47q-38 -1 -57 27t-19 63l4 143v51q4 29 24 41q154 96 391 96q41 0 59 -3 t55 -5t77 -8t136 -57t111 -103.5t29 -76.5t15 -72l-1 -10l1 -72q0 -39 -16.5 -87.5t-34.5 -64.5t-32 -42t-39 -42t-25 -30t61 -76t69 -84q20 -17 21.5 -42.5t11.5 -51.5t10 -107zM1190 339q0 -9 -3 -17t-7 -43t-11 -54q-43 -131 -159 -237q-16 -16 -82 -49t-94 -38 q-29 -5 -83.5 -17.5t-110.5 -12.5t-161.5 21.5t-169.5 50.5q-16 8 -28 39l12 2q11 0 26 -6t100 -26t113 -20t34.5 2.5t20 -1t17.5 -3.5l78 4q94 0 197 52q4 4 21.5 9t23.5 12t28 18q40 20 135 147q23 29 38.5 97.5t15.5 138.5t-6 100q53 -18 53 -154q2 -6 2 -15zM1167 1042 q0 -125 -55 -208q-16 -47 -86 -121l-4 -2h-2q-2 4 -14.5 14.5t-12.5 18.5t39 58t60.5 119t21.5 131t-39 175q-12 35 -37 59q-2 4 -32 51q37 2 74.5 -48.5t49.5 -78.5t14.5 -47t12.5 -39t10 -82zM682 993q0 -29 -20 -37q-8 6 -18 18t-26 18.5t-36.5 7.5t-36 2.5t-38.5 0 t-39 -1.5t-64 -16t-56 -16t-19.5 14.5t-11.5 18.5t12 9.5t15 8.5q80 35 152 35q186 -1 186 -62zM707 434q0 -14 -9 -14l-59 12q-97 4 -127 9t-53 5l-49 -4q-14 0 -26.5 11.5t-12.5 26.5q1 16 55 16t76 6q4 -2 16 -2l37 4q45 0 98.5 -17.5t53.5 -52.5z" glyph-name="three" horiz-adv-x="1255" unicode="3"/><glyph d="M1110 372q0 -3 -6 -120q0 -29 -37 -33q-2 0 -43 -4t-46 -9t-5 -24l2 -41q0 -59 -7 -94q-6 -35 -50 -46t-103 -11l-100 10q-24 -6 -47 17.5t-25 41.5v37l1 35q1 35 -1 45q-2 23 -25 25h-69l-88 4l-275 -4q-27 0 -28 26q-4 61 -4 147t8 103l43 80q10 18 21 49q12 30 26 50 t66 138t147 308q104 221 156 299q14 18 34 18q92 10 111 11l53 -5l78 5q37 0 45 -33t10 -72t2 -89t2 -73h-2v-80l13 -77l-1 -14l9 -107l-6 -60q0 -113 20 -227q3 -16 35.5 -21.5t36.5 -7.5q39 -14 43 -59q6 -135 6 -138zM1086 100q-12 0 -11 -8l-4 -98q0 -35 -31 -74 q-10 -10 -47 -20q-103 -16 -147 -16t-98 22q-18 10 -33 37l8 2l35 -4l157 6q106 0 107 78l-4 61q0 29 2 43q2 37 37 39q11 0 55 8t47 55v43l-4 224q0 12 12 12t31 -44t19 -65l-1 -15l1 -114q0 -76 -11 -125q-8 -30 -41 -30t-50 -8.5t-29 -8.5zM1059 1260v-29l4 -47 q0 -140 6 -194t6 -87l-4 -53l10 -72q0 -114 -4 -134t-14 -21h-2q-12 -2 -20.5 10t-8.5 26l-6 195q0 53 -4 83t-4 38l-8 237l-4 129q0 16 10 17q43 0 43 -98zM535 514q116 0 116 4v27l-2 86q0 85 -4 139l-6 2q-137 -219 -145 -258h41zM592 131q0 -31 -21 -31l-145 -8l-51 4 q-70 4 -100 4t-56.5 4t-40.5 48h96l103 -5l178 7q37 0 37 -23zM616 651q0 -4 -22.5 -37.5t-24.5 -48.5q47 -10 47 -20t-43 -10h-20q-27 0 -27 12t34 65.5t40 53.5q16 -1 16 -15z" glyph-name="four" horiz-adv-x="1263" unicode="4"/><glyph d="M600 -8q-64 0 -132 16t-156.5 66.5t-114.5 91.5q-23 42 -23 61t23 37q79 59 125 92t72 33q26 -1 50 -31t47.5 -42t34.5 -13l86 -10q10 0 43 6q47 9 63.5 23.5t47.5 46.5t31 114t-35 155t-117 85q-41 4 -71 4t-61.5 -17.5t-43.5 -17.5l-45 2q-72 0 -92 -3t-25 -3 q-66 0 -65 53l2 254q0 101 -6 199t-6 122t20 66.5t59 47.5l76 8q25 2 152 2l149 -8l131 8h82q27 0 100 -19q39 -6 39 -47q4 -74 4 -108l-2 -45l5 -43v-7q-14 -51 -109 -51l-231 8l-71 -3q-71 -3 -75 -17q-2 -16 -2 -24v-72q29 -2 100.5 -4t102.5 -7q219 -33 287 -139 q12 -18 28.5 -54t27.5 -56t11 -72l19 -152l-5 -73q0 -16 -20 -99q-41 -162 -113 -243q-8 -10 -50.5 -38t-62.5 -38t-147 -35q-73 -10 -137 -10zM1182 602q0 106 -29 182q-4 10 -23.5 51.5t-19.5 45.5q31 -8 58.5 -56.5t32.5 -76.5t14.5 -61.5t11.5 -49.5v-6q6 -73 6 -129 t-4 -81t-6.5 -55t-20.5 -94t-32 -94t-48 -74q-6 -19 -26.5 -41t-26.5 -30q-10 -12 -49.5 -38.5t-57.5 -40.5t-40 -19t-64.5 -17t-66.5 -12l-76 -10q-49 -4 -74 -5q-106 0 -295 68q-10 4 -24.5 19.5t-14.5 23.5t10 8t40 -15t125.5 -32.5t142.5 -17.5l135 14q33 0 93.5 21.5 t84.5 35.5t45 33t32 26t22 15t39 46t28 44q78 121 78 422zM1049 1051l-103 -13l-63 2q-78 6 -234 7q-8 0 -11 -8.5t-11 -8.5q-33 0 -33 28t65 27l33 -2l49 7l47 -7h130q113 0 138.5 24t28 58.5t2.5 65.5l-6 121q0 18 5 18q6 0 14 -4t16 -10t12.5 -17.5t5.5 -16.5t0 -23.5 t-1 -22.5l2 -45q0 -178 -86 -180zM750 494q0 -2 -1 -9.5t-1 -11.5q-27 6 -39.5 49t-37 82t-68.5 39t-86 -19.5t-62 -19.5q-93 0 -115 3t-28.5 11.5t-10.5 28.5h78q100 4 162 30t112 -1q97 -49 97 -182z" glyph-name="five" horiz-adv-x="1308" unicode="5"/><glyph d="M1165 561q0 -129 -6 -145q-43 -144 -65 -190t-64 -92t-45 -50q-13 -25 -39 -33t-58 -23.5t-46 -18.5t-62.5 -17.5t-81.5 -14.5q-131 0 -180 33q-10 6 -28.5 12.5t-25.5 10.5t-73 51q-63 51 -135 195q-20 45 -25 73t-12 43q-45 188 -45 269v127q0 11 7 37t25 130t42 164 q70 145 176 217q35 28 55.5 36.5t74 31.5t124.5 23t96 -5q76 -6 140 -48t93 -65.5t58 -65.5t37 -89l6 -43q0 -20 -22 -50t-36 -39t-80 -23t-79 -15q-78 0 -139 127q-14 27 -70 27t-94 -60q-33 -43 -44 -89q-12 -46 -16 -65t-4 -29t6 -21q127 41 177 41q129 0 182 -27 l100 -53q11 -8 27 -22t32.5 -29t17.5 -17l26 -25q23 -23 48 -84t25 -100zM834 441q0 49 -19 96q-35 98 -168 98q-59 0 -91 -56.5t-32 -124.5t46 -110.5t112 -42.5t109 45.5t43 94.5zM946 -82q-86 -49 -224 -49t-196.5 34t-65.5 37q-18 8 -44 60q16 -4 55 -20 q104 -53 234 -54q45 0 196 39q43 12 105.5 62.5t85.5 89.5l57 90q6 10 10 25.5t6 19.5q45 84 45 211l7 55l-7 27q-4 14 -8 56.5t-14 64.5t-10 30q0 16 14 17q12 0 41 -69t29 -91l4 -82q0 -84 -33 -215q-2 -12 -12.5 -31.5t-12.5 -25.5q-39 -94 -103.5 -170t-146.5 -103 q-8 -4 -12 -8zM1147 1016q0 -20 -14.5 -39t-83.5 -46.5t-91 -27.5t-59 12.5t-37 26.5t10 14l46 -4q44 0 99 21.5t73 26.5t29 19.5t16 14.5q12 2 12 -18zM595 377q-11 0 -23.5 26.5t-12.5 42.5q0 117 94 146q7 2 19 2t32.5 -5.5t20.5 -13.5v-4q-2 -8 -8 -9t-66 -36 q-20 -12 -33.5 -47t-13.5 -65l2 -27q0 -10 -11 -10zM594 944q-18 0 -18 30t33.5 79t62.5 49t41 -17q6 -4 23.5 -25.5t17.5 -26.5t-9.5 -11t-17.5 -6l-55 24q-4 0 -8 -4q-31 -23 -33 -41q-12 -51 -37 -51z" glyph-name="six" horiz-adv-x="1341" unicode="6"/><glyph d="M328 72q0 14 8 47t19 47t18 48t19 60q11 27 21.5 79.5t18.5 76.5t29 79t29 77t16 49t11 35t14.5 53t20.5 59t15 29q6 41 32 109t32 88t8 44.5t4 32.5q-16 4 -25 5l-20 -1l-152 3l-49 -2q-47 0 -71 2l-39 6l-92 -11q-25 0 -42.5 29t-17.5 53l-2 82l6 62q0 8 -1 29t4 41.5 t34 37.5q29 16 59.5 16.5t94 -2.5t94.5 -3l65 8l115 -17q41 0 123 4l131 7q84 0 115 -15q6 -2 15 -4t24.5 -7.5t15.5 -100.5l-4 -140l4 -37q0 -10 -20.5 -48t-23.5 -55t-7 -31.5t-10.5 -32t-10.5 -33.5t-44 -135t-78 -238t-48 -163t-27.5 -90t-43 -147.5t-62.5 -150.5 q-14 -14 -32 -14l-58 6l-28 -2l-119 6l-37 -2q-51 0 -51 72zM1133 1310v-46q0 -63 -9 -195q-2 -27 -21.5 -75t-21.5 -72t-13 -52q-11 -30 -28.5 -90.5t-24.5 -71.5t-22.5 -84.5t-22.5 -93.5t-32 -98t-47 -129l-17 -35l-16 -84q-2 -12 -11 -32.5t-13 -30.5t-17.5 -57.5 t-21.5 -63.5q-9 -16 -15 -43t-28 -50t-45 -24l-148 -10l-70 8q-53 0 -79.5 11.5t-47.5 52.5q33 4 50 4l151 -8l13 1l86 3q35 0 49 30q41 82 52 119q47 157 78 257q32 100 38 123q6 24 14 42t14.5 55t16.5 63t31.5 96.5t29.5 96.5l37 103q8 20 45 170q12 45 12 237q0 15 6 15 t12.5 -7.5t10.5 -10.5t14.5 -9.5t10.5 -14.5zM584 1030v-4q-11 -37 -29 -39t-43 -2l-66 4l-55 -4q-59 0 -166 8q-12 0 -14 11l-14 30q18 4 51 4l49 -2l119 8q128 0 148 -3t20 -11z" glyph-name="seven" horiz-adv-x="1161" unicode="7"/><glyph d="M1135 1055q0 -194 -42 -247.5t-42 -63.5t8 -17q27 -16 43 -47q2 -4 16.5 -28.5t18.5 -32t27.5 -51.5t23.5 -104t-18 -142t-19 -92q0 -8 -8 -17q-66 -102 -189 -184q-8 -4 -61 -21.5t-64 -19.5q-90 -8 -143 -8q-128 0 -253.5 43.5t-158.5 89.5q-2 4 -11 14t-13 16 q-49 86 -66 166q-10 31 -10 72q0 141 47 219q2 6 14.5 25t21.5 39t69 84q-6 12 -56.5 79t-51.5 208q-1 142 136 276q14 14 46 29.5t44 25.5q37 33 162 64q16 4 27 4l18 -2l111 10q72 0 115 -17q41 -12 73 -34q14 -6 72 -60q51 -43 82 -123t31 -153zM440 -61q-4 4 -4 11t7 7 t34 -8t88 -8l56 -9q35 -6 132 -6t144 15q121 37 195 116q15 11 36 29q22 18 54 78t48 142q16 81 15 102l-2 30v64q-10 62 -45 118t-38 65t-18.5 26.5t-15.5 25.5t12.5 36t15.5 42t24.5 84t21.5 112t-12 105.5t-30 98.5t-19 40q0 6 14 7q49 0 74.5 -94.5t25.5 -183.5 t-34 -163q-2 -2 -14.5 -41t-12.5 -41t4 -10q26 -23 62 -107t38 -165l7 -56q0 -74 -19 -116q-2 -6 -5.5 -31.5t-25.5 -79.5q-21 -52 -35 -76t-23 -32t-21 -28t-71 -72t-79 -57t-75.5 -24.5t-80.5 -19.5l-24 4q-25 0 -51 -10l-88 -2q-27 0 -76 13t-74 13q-78 6 -115 56z M877 404q0 64 -59.5 116.5t-131.5 52.5t-133 -39.5t-61 -113.5t70 -119t142 -45t122.5 42t50.5 106zM813 1035q0 48 -44 75t-96 27t-96.5 -26t-44.5 -82t46.5 -90t102.5 -34t94 41t38 89zM729 319.5q0 -12.5 -16 -12.5h-39q-45 0 -86 32t-41 77t34.5 80.5t74.5 35.5t38 -18 q0 -6 -44 -18.5t-44 -63.5t31 -70.5t61.5 -24.5t30.5 -17.5zM686 958q0 -4 -33 -4t-54 22.5t-21 47.5q0 72 69 72q14 0 17 -4q0 -14 -16.5 -31t-16.5 -39t27.5 -38t27.5 -26z" glyph-name="eight" horiz-adv-x="1361" unicode="8"/><glyph d="M250 324q0 22 21.5 39.5t65 30t67.5 26.5t75 14t68.5 -53t55.5 -69t76 -17q38 0 79 45t45 96q0 6 2 10q25 33 24 80q0 6 -4 23q-10 -4 -37.5 -17.5t-37 -16.5t-31 -11t-42 -13.5t-74.5 -5.5t-122.5 17.5t-109.5 48.5l-13 8q-86 41 -135 145.5t-49 208.5q0 16 2 38t3 44.5 t3 34.5q43 254 267 350q90 39 124.5 47.5t123.5 8.5t216 -29q55 -12 88 -49q43 -43 61 -78q18 -34 38 -58q22 -24 51 -92t33 -106t13 -90.5t9 -81.5l4 -102q0 -57 -12 -133t-17 -95.5t-7 -27.5l-17 -70q-43 -141 -104 -219l-70 -80q-16 -16 -27 -19t-62 -52t-177 -54 l-103 -4q-17 0 -110 31q-52 12 -110 52t-92 88t-50 132q-2 3 -2 25zM1313 713q-1 -103 -13 -147t-18 -94t-26 -92q-20 -41 -35 -120q-12 -16 -38 -74t-64 -102q-38 -43 -46 -54t-104 -87q-2 -2 -21.5 -7.5t-25.5 -9.5q-98 -47 -215 -47t-189 31q-74 28 -89.5 39t-46.5 37 t-36.5 34.5t-5.5 16.5t12 6t23 -10q133 -88 327 -88q55 0 175 44t161 94t53 61q13 11 63 100t80 237t30 232t-2 95l-11 93q-16 233 -98 348q-6 10 -38 49t-36 48q82 -25 137.5 -126.5t69.5 -205.5q2 -12 8 -38t9 -42l10 -96v-125zM850 983q0 125 -172 158q-6 2 -16 2 q-66 0 -115 -51.5t-49 -118.5q0 -6 12 -62q35 -131 161 -131t171 160q8 29 8 43zM692 1081.5q0 -20.5 -3 -23.5t-47 -16.5t-44 -83.5q0 -71 66 -90q20 -4 20 -16q0 -18 -24 -18t-52 14t-37 31l-22 51v49q0 47 39 85t86 38q18 0 18 -20.5z" glyph-name="nine" horiz-adv-x="1384" unicode="9"/><glyph d="M465 895q0 -14 -8 -29l-11 -22q-45 -92 -137 -92q-6 0 -53 10q-123 39 -123 170q0 74 88 133q17 10 43 10t36.5 -3t24 -8t23.5 -7q45 -14 81 -64.5t36 -97.5zM465 137q0 -14 -5 -23t-8 -16.5t-6 -11.5q-45 -92 -137 -92q-16 0 -53 12q-123 39 -123 170q0 76 88 131 q17 10 43 10t36.5 -3t24 -8t23.5 -7q45 -14 81 -63.5t36 -98.5zM481 223q0 4 4 13q54 -14 54 -112t-56.5 -156t-140.5 -58q-43 0 -106 27q-16 8 -19 30q4 2 14 2l86 -12q47 0 98.5 25.5t63.5 70.5q20 75 2 166v4zM537 858q0 -68 -51.5 -121t-118.5 -53q-23 0 -65 9t-42 24 q0 6 10 6h64q61 -2 112.5 45t51.5 114t-13 91l4 6q18 -18 33 -56t15 -65z" glyph-name="colon" horiz-adv-x="598" unicode=":"/><glyph d="M563 201q0 -8 -5 -21l-34 -103q-30 -91 -40 -120t-54 -184q-14 -39 -53 -39l-201 2q-43 0 -43 26q0 14 27.5 98t42.5 143q14 59 31.5 114t21.5 71t7 21.5t6 9.5t9.5 6t12.5 4t9 2h32l94 -4q44 0 113 -6q24 0 24 -20zM623 912q1 -30 -5 -40t-8 -17t-4 -11 q-45 -92 -137 -92q-20 0 -53 12q-123 39 -123 170q0 37 25.5 72.5t51.5 51.5t52 17q28 0 38.5 -3t24 -8t23.5 -7q45 -14 80 -64.5t35 -80.5zM602 168q19 0 19 -39q1 -39 -19 -88t-30.5 -99.5t-13.5 -60.5t-8 -24.5t-7 -19.5t-23.5 -82t-68.5 -92t-111 -15t-74 1t-49 4.5 t-47 35.5q16 4 94 4l84 -4q33 0 73 13t49 42l52 168q12 68 35 140t27.5 94t17.5 22zM651 977q18 0 30.5 -45t12.5 -72q0 -186 -194 -186q-92 0 -99 43q4 2 7 2l49 -4l57 -2q14 0 51 18q94 51 94 152q0 47 -14 78l-2 8q0 8 8 8z" glyph-name="semicolon" horiz-adv-x="759" unicode=";"/><glyph d="M891 41q31 0 31 32v238q0 19 20 19t21 -31l-5 -264q0 -61 -24 -62q-33 0 -199 105l-63 39q-6 4 -18.5 10t-16.5 8l-92 58q-80 52 -139.5 76t-114.5 59.5t-55 81.5q47 -31 139 -79t129 -71l92 -57q26 -13 35 -19l63 -39q166 -104 197 -104zM877 158q0 -41 -25 -41 q-33 0 -199 104l-63 39q-6 4 -18.5 10t-16.5 9l-92 57q-80 52 -136.5 75t-114.5 59t-58 85l-1 116q-1 116 31 133t121.5 60t133.5 70t145.5 88t169.5 104t110 43q59 0 60 -96l-4 -98v-45q0 -43 -34 -64.5t-68 -41t-45 -26.5t-113 -67t-111 -86q31 -25 98.5 -58t88.5 -49 t83 -52t62 -64l-4 -244v-20zM976 1100q11 0 20.5 -29t9.5 -59l-5 -144q0 -45 -34.5 -67.5t-68.5 -39.5t-83 -49t-85 -54t-44 -31q-23 12 -43 30q7 25 83.5 67t86.5 49t44 24.5t69 40.5t35 67l4 144q0 51 11 51z" glyph-name="less" horiz-adv-x="1097" unicode="&lt;"/><glyph d="M942 723q0 -70 -35 -72q-49 -6 -98 -6l-170 4l-444 -2q-51 0 -52 39q0 4 7 127q4 51 83 51h64l123 2l55 -2l240 4l73 -4l43 4q2 0 64 -6q27 -2 31 -26q16 -99 16 -113zM934 404q0 -47 -12 -85q-12 -23 -121 -22h-70l-90 -2l-47 2l-229 -6q-199 0 -197 57v43l-4 80 q0 43 53 43l440 2l109 -2l72 1q71 1 76.5 -10t12.5 -32.5t7 -68.5zM924 575h-82l-111 -2l-156 2l-124 -4l-195 2l-33 -2q-16 1 -16 21t14 20l25 -4q47 0 51 -2q14 6 31 6l32 -2l33 4l25 -4h11h60q40 4 119 4l166 -2l84 6h66.5t48.5 41l-2 74l-4 80q0 20 10 21q31 0 31 -50 l4 -59l-1 -7l3 -59q0 -37 -14 -48t-26.5 -18t-25.5 -12.5t-24 -5.5zM999 276q0 -10 -6 -18q-31 -31 -65 -33l-94 -6l-76 2h-76l-86 -4l-240 6l-45 -4l-94 8q-23 0 -22 21q0 12 16 12q81 0 101 -3t26 -3l63 6l97 -4h26l176 -2q18 0 31 6l45 -4l78 -2q37 0 70 16h2 q27 6 34 14.5t9 37.5v45q0 100 2 120q4 6 8 7q23 0 22 -21l7 -96l-2 -19z" glyph-name="equal" horiz-adv-x="1105" unicode="="/><glyph d="M280 129q-24 0 -38.5 3t-14.5 44l-4 244q0 31 24.5 41t82.5 52t126 75t99 55q-4 12 -29 29q-51 29 -196 125q-68 39 -113 71q-33 20 -33 60v45l-4 98q0 96 60 96q47 0 136 -59t210 -131t211 -115t127 -63q25 -14 24 -90l2 -156q0 -35 -19 -51t-60.5 -41t-54.5 -35 t-36.5 -17.5t-33.5 -13.5q-10 -5 -112 -67t-183.5 -107t-113.5 -69q-33 -24 -57 -23zM389 124q0 7 7 12t15.5 8t20.5 7.5t22 8.5t41 23.5t47 24.5t26 14q9 10 40 22t55.5 32.5t53.5 24.5l129 80q40 31 60 43t37.5 29.5t25.5 23.5q35 20 35 82t-5 176v13q27 2 38.5 -24 t11.5 -56l6 -103q0 -66 -23 -89t-25 -33q-3 -9 -13 -13t-17 -12q-55 -57 -127 -92q-23 -12 -65 -40t-55 -34t-44.5 -27.5t-53.5 -28.5t-113.5 -56t-110.5 -36t-19 20z" glyph-name="greater" horiz-adv-x="1097" unicode=">"/><glyph d="M154 978q0 11 16 103q14 92 88 176t166 136q27 16 103.5 26.5t144.5 10.5t188 -39q44 -13 60 -29t44 -28t59 -46q30 -32 42.5 -45t26.5 -35t28.5 -103t14.5 -145q1 -64 -53 -141q-54 -76 -109 -110q-96 -63 -211 -91q-18 -4 -33.5 -20t-15.5 -35l2 -49q0 -45 -45 -51 q-127 -10 -152 -10l-76 4q-80 0 -80 108q0 39 17.5 109.5t38.5 93.5q70 72 144 92t116 43q34 15 56 21t45.5 31.5t23.5 67.5t-36 65.5t-87 23.5h-43q-25 -4 -57 -22t-39 -25q-37 -51 -43 -102q-8 -47 -64 -48l-98 3l-72 -3q-86 0 -108 48v2q-2 2 -2 13zM702 147 q0 -56 -44 -105.5t-103 -49.5h-35q-63 2 -114.5 49t-51.5 113q0 29 19.5 77t42.5 62q62 41 116 41t97 -30t58 -66t15 -91zM1223 970q0 -95 -23.5 -149.5t-71.5 -102.5t-86 -67q-49 -33 -57 -35l-29 -8q-12 -4 -32 -14t-38 -16t-71 -31q-12 -6 -19.5 -69.5t-78.5 -84.5 q-47 -14 -92 -14l-9 1l-71 -3l-84 4q-47 0 -53 27q0 6 8 6l63 2l29 -2l49 4q6 0 33.5 -1t61 1.5t58.5 15.5t30 36t8 45t13 45.5t44 35.5q197 68 235 109q8 12 31 30.5t33 30.5q72 100 72 174l2 61q0 104 -32 172t-36 82q36 -6 62 -53t28 -57q23 -80 23 -175zM399 879 q63 0 87 19.5t46 82.5q16 39 60 70t82 31q39 0 66.5 -25t27.5 -66q0 -12 -14 -12q-4 0 -26.5 30.5t-51.5 30.5l-12 -2q-47 -18 -62 -34q-18 -30 -48 -82t-58 -60q-59 -18 -125 -18t-107 1t-61 40q6 2 9 2l81 -8h106zM784 146q0 -95 -54 -153.5t-140 -76.5l-21 -2 q-27 0 -72.5 12.5t-45.5 28.5q0 8 8 12q6 0 32.5 -7t45.5 -7q84 0 144 59.5t60 143.5q0 33 -15 72.5t-15 43.5t4 4q69 -35 69 -130z" glyph-name="question" unicode="?"/><glyph d="M1361 217q-45 1 -111 23t-92 38t-30 15q-4 0 -14 -10q-94 -100 -235 -101l-50 2l-34 -2q-19 0 -33 5t-69.5 23t-86.5 48q-31 29 -65.5 97.5t-41.5 109.5t-7 80q0 145 71 270q49 87 67 109t54.5 49.5t51.5 48.5t52 38t49.5 19t24.5 9t43 9.5t45 6.5t37 4q76 0 156 -49 q35 -23 82 -86q2 4 8.5 21t16.5 32.5t34 15.5l107 7q92 0 92 -54q0 -46 -44 -235t-44 -291q-1 -31 29 -31t52.5 24.5t39 49.5t25.5 43t15.5 50t8.5 46.5t5 55.5t5 53t2 38q-1 26 -21 130t-149 229q-12 15 -35.5 26t-63.5 33t-114 42q-72 20 -123 20q-193 0 -369 -104 q-57 -33 -118.5 -99.5t-89.5 -126.5q-41 -76 -48 -90q-35 -74 -34 -160l-2 -129q0 -127 51 -221q94 -166 209 -231q109 -66 260 -66q237 0 293.5 56.5t70.5 56.5t26 -13t38 -76t26 -79t-22.5 -39t-36.5 -29t-108 -53t-312 -47t-377 100q-115 82 -181.5 161t-118.5 213 t-52 224q0 210 12 284t33 124t24.5 61.5t38.5 78.5t65 107t93 91q67 75 92 84q25 10 76.5 38.5t83.5 35.5q33 8 104 29.5t107.5 24.5t90.5 8t75 5l103 -12l26 4q24 0 124 -35t132 -53q32 -19 41 -29q10 -10 48.5 -37t52.5 -39t31.5 -30.5t25.5 -26.5q43 -37 69 -109l31 -88 q28 -69 30.5 -124.5t5.5 -95.5t3 -52l6 -72l-6 -53q0 -25 -22 -103t-33 -93q-98 -137 -199 -199q-20 -12 -76.5 -22.5t-102.5 -10.5zM780 559q0 -106 115 -106q29 0 96 22q39 12 82 83t43 114t-32.5 85t-73.5 48l-47 8q-12 0 -34 -13.5t-34 -16.5t-42 -27t-36 -39 q-37 -80 -37 -158zM896 -221q130 0 148 6q41 -5 150 27t166 96l10 10q29 18 53 72q4 8 4 27t-26 94l-10 20q1 12 25 12t34 -20q29 -49 29 -119q0 -117 -166 -190q-10 -4 -54 -27t-59 -25q-14 -2 -40 -9t-74 -14t-60 -10t-20 -3l-97 8q-168 0 -262 41q-4 2 -32.5 12t-40.5 17 t-39 13.5t-37.5 10.5t-25.5 15.5t-23 15.5q-45 18 -107 81.5t-76 93.5t-28.5 56.5t-18.5 34.5l12 43q8 -14 34 -46t36 -49t37 -47t31 -36q86 -106 241.5 -158.5t285.5 -52.5zM1821 1018q1 30 -19 65t-32.5 69t-22.5 50q-72 104 -92 118t-35.5 35t-17.5 34h10q18 0 51 -33 q88 -102 115 -140t42 -78t28.5 -67t23.5 -53t21.5 -115t11.5 -149q-1 -60 -9 -110t-14.5 -123.5t-92 -178t-177.5 -160.5q-35 -18 -90 -18l-29 4q-20 0 -20 16q0 8 12 9l51 12q78 23 125 80q8 10 39 37.5t43 52.5l31 51q14 20 34.5 71.5t20.5 71.5l-2 19v6q12 47 16 113 l6 127q0 76 -14 114q-14 40 -14 70zM664 172q10 0 12 -2q102 -31 189 -31t202 60q19 13 46.5 35t29.5 22q14 0 14 -14t-26.5 -41t-53.5 -45l-26 -11q-4 -2 -21.5 -12t-28 -14t-30 -7t-29.5 -8l-65 -2q-98 0 -134 13l-2 2q-23 10 -54 20q-31 11 -31 23q-2 12 8 12zM860 592 v-72h-12q-33 0 -33 58t45 137q10 18 50 40.5t61 22.5q47 1 47 -24q0 -14 -14 -15l-19 2q-23 0 -47 -14q-78 -41 -78 -135z" glyph-name="at" horiz-adv-x="1974" unicode="@"/><glyph d="M1190 31q0 -17 -17.5 -29t-39.5 -12l-74 6h-127l-33 -2q-61 0 -70 26l-26 91q0 5 -15 55q0 22 -3 22h-9l-78 2l-108 -2h-90q-14 0 -21 -3t-26 -132q-10 -51 -60 -53h-16l-105 2l-100 -4q-61 0 -61 39q0 22 26 100q6 25 18.5 81t28.5 106t17 61q19 52 36 118q17 67 67 219 t58 198t36 135q28 88 64 207.5t57 144.5t108 25v4q84 0 111 -20t38 -52q114 -344 115.5 -366.5t1.5 -26.5l22 -64q19 -53 25 -77t15.5 -54.5t14.5 -47.5t12 -54t13 -56l43 -139q59 -189 105.5 -310t46.5 -138zM1164.5 -49.5q62.5 -0.5 62.5 49.5q0 28 -19.5 108t-43.5 130 t-48 138q-24 90 -46 162t-28 102t-17 67.5t-19 73.5t-41 131.5t-40 119.5t-21.5 71t-18.5 63t-10.5 26t-22.5 52t-16 67q0 16 23 16q24 0 66 -145.5t46 -159.5t15.5 -60.5t17.5 -63.5t15 -32.5t13 -33.5t20.5 -71t29.5 -101t14 -50l12 -24q6 -16 12.5 -48.5t31.5 -104.5 q25 -73 42.5 -135t23.5 -80t41 -118t35 -132t-16 -55t-84 -24h-20l-33 -4l-56 6l-84 -4q-49 -1 -71 21t-23 31q0 10 41 10l111 -6q11 0 27 4t78.5 3.5zM729 141v-8q0 -20 -49 -20t-111 -4q-23 -1 -28 -41q-4 -40 -29 -119q-18 -53 -88 -53l-184 -7q-63 0 -101 60v2l-2 4 q0 4 6 4l56 -2l45 2l22 -1l142 -1h14q52 -4 57 76q12 102 24.5 110.5t20.5 8.5h111l47 4q47 -1 47 -15zM733 446q-4 20 -20.5 54.5t-21.5 50.5t-29.5 82.5t-28.5 73.5q-29 -86 -82 -258q8 -2 57 -3h125zM631 492q45 0 45 -27l-43 -2q-37 0 -40 8.5t-3 22.5t26 94q4 8 12 8 t8 -4l-11 -92q0 -8 6 -8z" glyph-name="A" horiz-adv-x="1304" unicode="A"/><glyph d="M612 1440q35 0 99.5 -8.5t116.5 -11.5t108 -29l86 -60l59 -67q10 -10 41 -72q43 -98 43 -143q0 -172 -78 -248q-12 -11 -12 -23q-1 -12 11 -24t16 -14.5t6 -6.5q98 -146 98 -248t-23 -188t-84 -142.5t-75 -72.5t-54 -36q-42 -21 -64 -35.5t-28 -14.5l-184 -6h-82v2 q-160 -6 -161 -6l-86 10q-116 0 -141 22t-25 72l1 36l7 241v223l-4 61l4 41l-6 111l1 15l-5 104l10 53l-6 33l-6 131v190q0 23 2 33q10 59 100 59l37 -2l51 8q96 1 144 7t83 6zM887 446q0 40 -2 62t-20.5 52t-40.5 40t-84 24t-85 13q-22 0 -74 -6t-54.5 -9.5t-4.5 -15.5 v-143q0 -164 9.5 -171t27.5 -7q189 0 235 19t80 81q13 22 13 61zM1211 721q13 0 23.5 -18.5t23.5 -38.5t55 -152q10 -36 10 -106t-35 -175v-8q0 -4 -35.5 -74t-48.5 -80q-12 -10 -19 -20t-9 -12q-84 -88 -215 -131q-30 -10 -66 -10q-14 -4 -49 -7.5t-48 -7.5t-32 -4l-299 4 l-53 -2l-68 10q-18 0 -40.5 10.5t-22.5 26.5q0 6 9 11.5t15 5.5h447q33 0 192 30q70 12 102 46t85 81q61 59 106 189q16 53 25 162v4q-4 12 -6.5 39.5t-9.5 45.5t-7 56l-43 109q0 16 13 16zM829 1018q0 18 -6 38t-10 25q-43 41 -102 41q-129 0 -149 -4t-25 -12 q-10 -27 -11 -141v-26q0 -26 22 -34t101 -8q180 0 180 121zM1180 770q-8 0 -17.5 9t-9.5 18l33 63q33 61 33 101l4 40q0 13 -5 31t-16.5 69t-34 96t-22.5 51t8 12q33 -2 63.5 -67t34.5 -108l13 -88q0 -67 -32 -147t-52 -80zM736 584q3 0 10 -1t16 -10q8 -8 8 -12 q0 -12 -137 -12q-25 -2 -25 -27l4 -90q0 -96 -22 -96t-23 39l-6 137q0 16 7 44t18 28l17 1l106 -1h27zM634 1090h79q30 -1 30 -19q0 -6 -17 -11t-26 -5l-28 4l-35 -4q-8 0 -12 2q-18 2 -19 -72l2 -22q0 -31 -14 -31q-29 0 -29 8v30l2 61q2 40 10.5 46t10.5 8t15 4.5 t19.5 1.5t11.5 -1z" glyph-name="B" horiz-adv-x="1359" unicode="B"/><glyph d="M1245 1016q-8 -25 -27 -25t-35 12l-122 91q-10 8 -76.5 23.5t-94.5 15.5q-28 1 -80 -13t-56 -16q-102 -41 -197 -189q-29 -49 -33 -129l-8 -96q0 -66 37 -168q2 -6 10 -15t12 -15t13.5 -27t15.5 -29q43 -47 70 -59q73 -32 127 -49q57 -23 135 -23t166 47q8 6 44.5 36 t56.5 30q21 0 30 -2q27 -6 27 -125t-11 -187q-2 -37 -41 -55q-96 -53 -162 -55t-164 -2t-137 13t-83 23q-44 11 -121.5 57t-106.5 75l-49 47q-6 4 -22.5 26.5t-79.5 108.5t-86 215t-23 141l4 39q0 49 6 88t33 115q69 210 180 292.5t126 95.5t38 23.5t51.5 20.5t42.5 17 q98 47 193 47l47 -2l66 2q87 0 105.5 -6.5t32 -11.5t21.5 -7q43 -8 107 -63q27 -25 26 -68l9 -104q0 -78 -17 -160zM493 45q13 0 29 -12t50 -24.5t54 -22.5t74 -18.5t66 -12.5l41 -6l82 -10l106 6l45 -6q29 0 60 13t70 21q39 7 63 25t30.5 27.5t10.5 13.5q33 31 33 82 q6 74 6 76l-4 157q0 14 10 15q31 0 35 -41v-47l4 -95q4 -96 -3 -134t-16.5 -52t-33.5 -29q-45 -45 -134 -69t-122 -25l-107 -2q-70 0 -220.5 35.5t-201.5 93.5l-12 8q-18 8 -31 31q4 2 16 2zM873 1073q129 0 161 -39q6 -6 6 -8q0 -12 -10 -12l-22 2q-35 0 -46 8q-10 8 -24 8 t-26 -5t-75.5 -16.5t-99.5 -62.5q-2 -4 -10 -12q-98 -86 -98 -291q0 -18 11 -49t13 -47t21.5 -36.5t19.5 -36.5t-7 -15q-7 0 -20.5 10t-18.5 17t-20.5 21.5t-19.5 22.5q-31 70 -33 91l-8 63q0 106 35 195q12 29 62 86q80 106 209 106zM1300.5 969q-20.5 0 -20.5 22 q0 14 14 45t13 149q0 118 8 118q31 0 31 -56v-37l2 -123q0 -27 -13.5 -72.5t-34 -45.5z" glyph-name="C" horiz-adv-x="1394" unicode="C"/><glyph d="M254 1423q184 -1 216 5t60 6t136 -27q155 -25 268 -98q15 -15 45 -33q139 -84 221 -217t82 -297t-81 -329t-214 -271q-45 -35 -195.5 -95.5t-198.5 -65.5t-118 -9v2l-117 4l-30 -2q-18 0 -26 3t-30 7.5t-37.5 14t-21.5 54.5t-6 179v74l-4 57l8 80l-4 168l4 121l-4 92 l-4 149l4 62q0 66 -6 84t-6 37l12 63l-10 109q0 27 15 50t42 23zM578 373q2 0 66 8t87 22q70 47 78 55t17.5 21t25.5 27t52 94q34 80 34 164q0 24 -6 47t-12 47t-29 53q-82 106 -178 148l-47 20q-74 39 -127 39q-12 0 -13 -22l4 -232l-3 -139q-3 -139 1 -217l11 -100 q2 -35 39 -35zM295 -67q0 15 29 16l41 -4l112 -6l96 2l39 12l15 -2q17 0 125 36q196 66 340 193q8 6 21 21.5t17 19.5q74 66 99 121q63 131 71 184q2 6 6.5 18.5t5.5 23.5t12 56.5t11 71.5l4 74q0 41 -16.5 116t-31 110t-40.5 79q-27 43 -40 57t-13 21.5t2 9.5 q6 -4 18.5 -12t25.5 -18.5t18 -20.5q6 -10 14 -17t22 -31t43 -99.5t29 -114.5l2 -27q12 -49 12 -100l-8 -111q0 -23 -12 -59q0 -12 -4 -36.5t-6 -42.5t-15.5 -46.5t-32 -63t-22.5 -46.5t-31.5 -53.5t-73.5 -89.5t-59 -58q-10 -12 -33.5 -28.5t-31.5 -25.5q-53 -53 -172 -104 q-4 -2 -36 -11t-44 -20q-10 -4 -119 -26.5t-118 -20.5t-13 2l-31 -8l-41 6h-26l-23 2l-22 -8l-23 4q-47 4 -69.5 21.5t-22.5 32.5zM584 456l-13 475q0 73 1 93t16 20q4 0 47 -16t47 -18l23 -17q53 -37 53 -47q0 -16 -12 -16t-52.5 25.5t-62.5 29.5q-2 -55 -2 -168l6 -266 v-33l4 -51q0 -14 -12.5 -25.5t-24.5 -11.5t-15 5t-3 21z" glyph-name="D" horiz-adv-x="1456" unicode="D"/><glyph d="M287 -2q-66 0 -73 59.5t-11 63.5v8l4 334l-2 80l8 131l-10 112l4 97l-6 149l4 96l-3 18l-3 148l-2 47q0 33 25.5 62t58.5 29l81 -9l44 4q51 -1 67 5t25 6l90 2l53 -2l143 8l35 -4l203 -8l78 2q23 0 42 -17.5t19 -40.5q0 -133 -2 -196q-4 -37 -22 -52q-18 -6 -21 -6l-51 4 l-70 -4l-104 2q-123 0 -369 -8v-72q0 -72 21.5 -83t48.5 -11l98 11l66 -5l82 3l59 -3l41 5l76 -7q33 0 40.5 -6t27.5 -13q34 -12 34 -134l-2 -70q0 -37 -10 -54t-47 -22q-147 -12 -152 -12l-153 6q-145 0 -203 -10q-16 -2 -17 -33q-10 -117 -10 -211v-73q2 -16 17 -17 q45 -4 135 -4l86 2l96 -2l43 2q133 0 199 -4l35 -2q43 0 43 -68l-5 -75l7 -41q0 -80 -50 -101q-63 -23 -116 -22l-359 12l-88 -4l-116 6l-70 -8h-92zM1233 94q0 170 20 170q10 0 20.5 -12t13.5 -41t3 -133t-27.5 -142t-132.5 -47l-55 -8l-125 8l-90 -4l-164 4l-34 -1l-246 1 q-48 -1 -63 19t-15 26q0 14 31 15h514l47 -6l74 8l8 -2l59 -2q94 10 118.5 22.5t34 42t9.5 82.5zM1187.5 922q24.5 0 24.5 -127l-4 -105v-42q0 -42 -27.5 -69.5t-64.5 -27.5l-16 -2h-99l-45 -6l-112 6l-12 -1l-97 1l-26 -6q-36 -6 -56 -6t-20 -13l-10 -135l4 -24 q0 -17 -19 -17t-24.5 8.5t-5.5 34.5v137q0 25 6 45q2 17 26 21t142 4q117 0 157 -8l80 6l47 -2l41 4q56 0 74 38t18 45v103l-6 109q0 29 24.5 29zM608 979q-33 0 -33 41q1 41 15 44t215 3v2q317 0 373 18q32 11 36 49t5 152q4 42 4 60t10 18q27 0 27 -68l2 -118 q0 -35 -17 -101q-9 -33 -44.5 -40t-70.5 -14t-135 -7l-43 2l-61 -6l-51 6l-43 -2q-43 -2 -97 -2l-49 4q-20 0 -23 -20.5t-20 -20.5z" glyph-name="E" horiz-adv-x="1331" unicode="E"/><glyph d="M1034 991q60 -1 60 -127q0 -66 -11 -157q0 -18 -14 -25q-39 -16 -78 -16l-96 2l-154 -6q-123 0 -184 -7q-16 0 -18 -16v-96q0 -68 4 -203v-107q6 -117 6 -130t-2 -53t-29 -46q-55 -12 -155 -12t-124 10t-28 39q-8 61 -8 92l2 92q0 61 -4 181l-1 49l1 280l2 168l-2 125 l2 33l-2 59l8 160l-4 80q0 25 8 46t39 26q115 4 168 4l55 -4l225 4q262 0 394 -4q20 0 29.5 -13.5t9.5 -15.5v-41q0 -92 -13 -180q-2 -23 -26 -29q-57 -10 -68 -10l-49 4l-86 -8l-107 -4l-14 1l-88 -1l-72 2q-47 0 -66 -2t-20 -19q0 -59 6 -119q0 -12 13 -12h39l102 6l92 -6 l125 4l74 -4zM1141 680v111q0 12 -1.5 70.5t19.5 60.5q10 0 18.5 -10.5t8.5 -20.5l6 -148v-81q-8 -100 -133 -109q-53 -4 -80 -4l-182 2l-117 -8q-25 0 -29 -5.5t-4 -41.5l2 -41q0 -6 -4 -27q6 -37 6 -45l-2 -59q0 -373 -8 -395.5t-51 -37t-76 -14.5l-164 -2 q-31 0 -61.5 15.5t-30.5 41.5q0 12 29 13l127 -2l35 -2q59 0 83 7t33.5 8t20 3t10.5 33l-1 16l1 129l-8 289v141q0 33 28 33l136 6q35 0 104 -4h4l47 4l49 -2l60 6q83 0 96.5 20.5t21 29.5t7.5 20zM1186 1397q37 0 37 -90l-9 -64l5 -33l-7 -55q0 -31 -10 -59t-26.5 -34.5 t-48 -10.5t-43.5 -4h-123l-158 -5l-74 5q-53 0 -104 -7q-10 -2 -13.5 -16t-15.5 -14q-25 0 -25 36t9.5 42t52.5 6l135 -4q126 0 166 4t92 4t109 10q25 6 28 35q14 129 15 164l-4 55q0 35 12 35z" glyph-name="F" unicode="F"/><glyph d="M1135 827q6 0 35 1t63 -4.5t45 -37.5q12 -33 12 -50q0 -18 8 -114t9 -192l-2 -37l2 -211q-1 -43 -9 -62t-34 -46q-76 -82 -264 -82t-270 31q-80 31 -106 33t-65 27.5t-86 59t-67 45.5q-43 25 -121 140q-8 14 -22.5 49t-24.5 51q-41 68 -48 135l-12 49l-4 97q0 17 8 53 t14 90.5t103 234.5q37 66 92 116t98 71q33 27 72 44t84.5 38.5t68.5 27.5q23 7 34.5 8t17.5 3q119 29 266 28q84 0 211 -65q14 -8 14 -25l9 -129h-4q4 -70 4 -108t-2 -61q-2 -22 -28 -21q-25 0 -61 20t-79 31l-17 6q-35 21 -157 21t-254.5 -97.5t-132.5 -241.5t57 -222 t106 -97l115 -43q45 -16 90 -16l39 2h20q19 0 19 1v16l1 64q1 49 -12 55.5t-48 6.5l-52 -2q-27 0 -47 6t-30.5 40t-10.5 94t15 133q8 37 55 36l59 -2l25 2l15 -1l98 1h86zM1417 108q0 -27 -20 -57l-11 -39q-4 -10 -35.5 -38.5t-37.5 -29.5t-40 -23t-69 -21h-14 q-46 -20 -92 -20t-154 9l-88 11q-43 0 -63 9q-19 9 -53 15t-94 37t-60 35q0 16 16 16l33 -8q31 -6 35 -6q197 -49 270 -49l61 6l46 -8l38 2q57 0 91 13t56 15t60 37t43 43q33 49 29 123v13q-6 103 -6 161v29l-6 166l-4 98q0 39 -4 55t3 23.5t19 7.5t23.5 -18.5t13.5 -36.5 l10 -184l4 -111l-2 -29l6 -45l-4 -71v-130zM633 690q0 -51 23.5 -97t46 -73.5t22.5 -35.5t-13 -7q-13 0 -24 10q-45 31 -76.5 96.5t-31.5 123.5q0 150 110.5 247t261.5 97q29 0 54 -29l-78 -8q-23 0 -36 -8.5t-15 -8.5q-37 -4 -97 -43t-71 -52q-12 -13 -37 -56t-32 -74 t-7 -82zM1313 1327q37 0 37 -84l-2 -51l6 -66l-2 -43q0 -70 -41 -69q-12 0 -13 30v5q12 23 13 155l-13 107q0 16 15 16z" glyph-name="G" horiz-adv-x="1501" unicode="G"/><glyph d="M549 585v-25l-2 -126l8 -72l-6 -69q0 -25 3 -106.5t-5 -153.5q-2 -25 -30 -33t-81 -8t-151 4q-45 4 -59 48t-15 71l4 98l-8 227l10 64l-6 61q-2 18 -2 27v88l-2 45l4 39l-10 289v112l-4 27l-2 108l6 60q4 70 168 70q76 0 120 -10t53 -53q9 -44 11 -75v-114l12 -146l4 -39 q0 -8 -2 -13t3 -11t24 -10.5t26 -4.5h74l88 7q35 4 102.5 4t98.5 1t31 23q2 39 2 115l-6 162q0 57 6 116q2 18 19.5 30.5t37.5 12.5l76 -8l84 2l57 -4l35 4q59 0 59 -71l-2 -64l4 -225l-4 -51l13 -168l-6 -82l1 -11l-1 -61l2 -57l2 -150l-7 -61l5 -56v-202q2 -10 2 -29 l-4 -80q0 -29 -26 -39t-114 -10l-80 2h-88q-16 2 -25.5 11.5t-11.5 82.5l3 78l-5 176l2 189q0 61 -3 74t-15 14l-39 -2l-69 2l-62 -4l-172 8l-109 -4q-23 -4 -24 -23q-2 -14 -2 -21zM1443 -102q-17 0 -33 -8t-44 -9l-53 2q-85 0 -115 2t-44.5 17.5t-14.5 30.5t18 16l82 2 l82 -6q23 0 36 4t31.5 6t26.5 6q35 25 37 57v86l4 52q0 2 -6 32q-8 136 -5 276t3 210t-6 119v18l4 37l-4 51v53l-4 80l4 191l-4 114q0 39 16 39q10 0 23.5 -13t13.5 -24l2 -82l-2 -40l4 -99l-4 -37q10 -60 10 -141l-1 -9l5 -71l-8 -80l4 -176v-47l2 -72v-55l8 -197l-2 -90 l7 -123q0 -63 -27 -86q-5 -4 -17 -20t-29 -16zM600 481q0 70 10.5 80t77.5 10h240q53 1 53 -30q0 -14 -16 -15h-70l-139 -4l-58 4l-36 -6q-8 -2 -8.5 -16.5t-1.5 -43t-1 -42.5l6 -268l-6 -93l6 -47q0 -10 -10 -71q-6 -27 -35 -37q-57 -20 -90 -21l-57 6l-7 -1l-57 1l-65 -4 q-20 0 -42 13.5t-22 33.5q0 12 60 13l49 -2l68 4q72 0 124 10q29 6 29 49l-2 182v295zM641 985q-31 0 -31 53l2 31l-10 164v41l-4 49v33q0 23 23 22q34 0 24 -51q8 -56 8 -59l-2 -45q0 -63 4 -187l4 -26q0 -6 -6 -15.5t-12 -9.5z" glyph-name="H" horiz-adv-x="1589" unicode="H"/><glyph d="M368 -2q-62 0 -124 16q-33 8 -36 39t-3 74l1 31l1 217l2 31l-4 151v68l-2 98l2 287l-4 174l2 37l-8 112q0 29 2 46t25.5 30.5t43.5 13.5h170q31 0 50.5 -10t33.5 -14q20 -7 22 -29t1 -88l2 -84l-2 -162v-141l8 -203q0 -16 -10 -119v-6q-2 -10 4 -28.5t6 -28.5l-8 -123 l3 -29l-5 -213l6 -51q0 -82 -60 -88q-57 -8 -119 -8zM538.5 -53q59.5 0 59.5 13l12 108v92l-4 348q0 88 6 129v8l-4 41l-6 485l-8 138q0 63 16.5 63t30.5 -22.5t14 -40.5l-6 -41l6 -68l-2 -78l9 -215l-5 -69l9 -121l-4 -160l2 -25l2 -163l6 -41l2 -135q0 -269 -64 -295 l-90 -17h-14l-113 8h-33q-70 16 -69 45q0 14 18 15l84 -4l62 2h83.5z" glyph-name="I" horiz-adv-x="747" unicode="I"/><glyph d="M133 297q0 16 21 37q23 20 90 63t86 43q47 0 80 -37q45 -55 118 -79q2 -2 12 -2t33 10q63 25 75 122t11 138l-6 156l2 200l-6 123l6 268v31q12 57 90 57l21 -4l121 2q88 0 96 -47l14 -61l2 -273l-2 -40l11 -107l-4 -51l3 -20l1 -136l-2 -129l4 -59l-13 -96q0 -52 -14 -97 q-12 -66 -51 -104q-8 -8 -10 -12q-16 -45 -86 -111q-32 -31 -102 -52t-87 -22q-111 0 -133 2q-104 6 -200 69.5t-111 80.5q-43 51 -51 86q-2 6 -10.5 20.5t-8.5 30.5zM391 -12q20 0 98 -18t116 -19q39 0 105 10t75.5 18.5t39.5 18.5t125 106q61 61 103 228q12 66 12 172 l-2 38l-2 203l-4 347v63l-1 9l-1 59v80l-6 49q0 18 18 18q37 0 37 -49q10 -201 10 -240l-2 -24l4 -152v-94l-4 -61l2 -13v-78l2 -63l1 -26l-7 -191q0 -88 -47 -203q-16 -49 -21 -53q-158 -231 -346 -232q-82 -1 -121 1t-147 47q-43 18 -55 49h18z" glyph-name="J" horiz-adv-x="1189" unicode="J"/><glyph d="M1245 1401q1 -19 -75 -125t-114 -164t-65.5 -108t-38.5 -66l-55 -82q4 -10 25.5 -76.5t35.5 -99.5q244 -569 244 -653q0 -29 -80 -29l-51 2l-115 -2l-53 2q-32 0 -38.5 11.5t-11.5 24.5t-7 17l-74 187q-16 45 -54 131t-56 131q-78 -123 -119 -185l-2 -258l2 -24 q0 -35 -56 -35l-30 -4q-35 -2 -93 -2q-125 0 -144 18.5t-19 200.5l4 74l-4 442v197l-6 161l4 97l-4 47l2 115q2 55 18 68t203 16l33 -3h16q49 -4 60.5 -21t11.5 -42l-4 -221q0 -70 8 -209q39 55 107.5 160.5t97.5 148.5l30 47q38 47 58 89t65 48q12 2 78 3h156l55 4 q55 0 55 -33zM1288 -4q0 6 -12 40t-29 85l-26 74q-6 14 -26.5 60.5t-24.5 64.5t-25 74.5t-28 68.5t-19 45l-19 43q-6 9 -11 29t-22.5 58t-49.5 118t-31 88q0 8 51 84q49 76 59 97t24.5 40.5t32.5 46.5t50 72t53.5 91t38.5 46q8 0 16 -13.5t8 -24.5t-11 -25t-17 -23.5 t-13.5 -21t-43.5 -62.5t-80 -129q-68 -106 -75 -122t-20.5 -38t-13.5 -34q0 -13 18 -50q4 -16 17.5 -46t15.5 -36l58 -135q29 -63 33 -81t14 -32t32 -71l82 -225q17 -57 36.5 -91.5t19.5 -107.5q0 -10 -18.5 -31.5t-26.5 -23.5q-59 -14 -171 -14t-135 10q-23 11 -36 53 q45 -4 69 -4l125 6q131 0 131 47zM666 369q16 -1 16 -25t-31 -61q-8 -10 -8 -119l4 -131q0 -143 -63 -146l-49 -10h-76l-7 1l-61 -3h-4q-12 4 -54 6t-68.5 12.5t-26.5 40.5q0 14 55 14t69 -5h9q33 -2 69 -2t51 -1t23 0t24 2.5t29 18.5q12 18 17.5 43t6.5 41t0 49t-1 41l6 74 l-2 53q0 16 28 61.5t44 45.5zM600 1106q-10 0 -19.5 8t-9.5 19l7 151l-5 51q0 55 23 56q12 0 20.5 -14.5t8.5 -26.5l-4 -33l1 -105q1 -106 -22 -106z" glyph-name="K" horiz-adv-x="1398" unicode="K"/><glyph d="M922 111q0 -90 -29 -101q-53 -14 -72 -14l-35 4l-30 -2l-207 -6q-37 0 -111 4q-205 0 -225 35t-20 73t2 60h2l2 108l-2 27l6 57l-1 14l1 89l-8 145l8 51l-1 13l3 94q0 131 -2 196l-2 74l4 47l-1 23l3 155l-4 107q0 43 20.5 58.5t65.5 15.5l96 -11l66 3h40q40 0 48 -19 t8 -41l-10 -139l4 -76l-2 -90l6 -115l-6 -82l8 -106l-8 -113l8 -127l-6 -102q0 -27 4 -76q0 -18 22 -18l103 4l172 -4l32 2q29 0 41 -31q7 -16 7 -186zM297 -72q0 14 18 15l195 2l119 -4l67 6q154 0 236 14q16 2 27.5 23.5t11.5 26.5l8 139q0 18 -2 28t2 32.5t4 31.5 q4 12 16 12q33 0 33 -72l4 -61q0 -94 -14 -160q-14 -72 -119 -72l-119 -6l-86 8h-71l-88 -8l-101 4q-57 0 -67 4t-28.5 6.5t-39.5 22.5q-6 2 -6 8zM647 397q0 -16 -12 -16q-31 0 -35 7t-4 15l2 138l-2 67v22l-4 156v152l4 72l-2 49l8 119l-4 69l-2 78q0 45 20 45q35 0 35 -9 v-54l4 -125q0 -92 -8 -166l-1 -7l5 -65l-2 -203l2 -149l-4 -119v-76z" glyph-name="L" horiz-adv-x="1079" unicode="L"/><glyph d="M1317 -6q-68 0 -98 18q-14 8 -15 88l2 21v86l-30 287l-13 90q0 16 -14 49q-25 -33 -30 -44t-13 -27t-19 -44t-35 -65t-40 -69t-41 -60q-7 -12 -25 -50t-37 -69q-6 -10 -45 -35q-7 0 -26 30t-40 73t-86 152t-89.5 156.5t-38.5 71.5q-27 -8 -27 -32l-6 -80l-8 -35 q0 -31 -8 -109l-13 -200l-10 -97l2 -69v-17q-4 -20 -80 -20l-59 2l-78 -4l-29 2l-55 -8q-35 0 -39 39q8 23 8 81t6 142l9 90l18 154l-4 47l16 161q2 27 8.5 80.5t7.5 85.5t15 102q14 72 14 111l-2 29q0 68 10 101t9 65q8 63 12 93q7 56 110 56t140 -53q12 -18 32.5 -54 t58.5 -94t118 -219q80 -160 104 -192l58 96q10 18 36 55t62 110t172 314q25 45 98 46l33 -2q67 0 89 -23t22 -57t4 -67.5t11 -74.5t13 -104t31 -203v-8q0 -47 12.5 -143.5t12.5 -141.5l12 -147q4 -41 8 -86t9 -100.5t7 -86.5l15 -86l4 -73q0 -16 -17 -23q-51 -12 -239 -12z M1688 8q0 -66 -54.5 -93.5t-124.5 -27.5l-32 -2l-45 2l-41 -4q-4 0 -60 13q-61 6 -61 36q0 12 16 13l74 -4l110 -2l80 18q10 0 28 -2t34 25.5t16 47.5t-6 54q-6 33 -10 113.5t-12 128.5t-13 206l-10 45q0 25 -7 59t-8 53.5t-3 29.5l-25 227q-12 131 -28 254t-16 140t15 18 q16 0 28.5 -13.5t12.5 -29.5q17 -136 17 -150l8 -43q2 -12 5 -75.5t9 -87.5q6 -23 7 -60t8 -79q8 -42 8 -64t5 -40t11 -74t12 -94q27 -167 27 -276l6 -92q-1 -78 9 -115t10 -55zM608 469q8 0 58.5 -78t50.5 -88q-1 -10 -15 -10t-21 5t-17.5 17.5t-12.5 14.5 q-12 -55 -12 -111l-14 -149l-4 -56l4 -39q0 -45 -35 -84q-4 -6 -12 -6h-11q-20 -14 -45 -14l-30 2l-48 -10l-57 6l-49 -1q-50 -1 -70 32l-16 18q0 14 47 14l11 -1l35 -1l93 -2l25 2q6 2 27 5t46 13t25 44l10 76v32l7 70l-3 43q10 78 11 92l-4 55l4 29q0 80 22 80zM1133 428 q-1 -32 -3 -60t-22.5 -60t-47 -70t-32.5 -50q-13 -24 -65 -77q-17 -30 -40.5 -18.5t-23.5 17.5t7 12q7 7 22.5 30.5t22.5 30.5t76 114t76 130q8 23 17 32q13 0 13 -31z" glyph-name="M" horiz-adv-x="1746" unicode="M"/><glyph d="M1212 1423q52 0 57 -2t12.5 -4t17.5 -13t10 -30l-6 -153l2 -70l-7 -90l5 -131l-9 -78l4 -53l-2 -348l7 -103l-3 -55l2 -143q2 -142 -44 -149q-20 -3 -136 -3q-114 0 -147 18q-57 35 -74 66q-47 82 -104 160t-79 120t-54 90q-43 64 -68 108t-55 69q-8 -16 -9 -64l5 -78 q0 -90 2 -135l6 -80q0 -66 -2 -100l-2 -31l2 -73q1 -20 -13 -41t-45 -21q-205 0 -243 12t-39 60l6 209q0 98 -4 291l-10 393l2 108q0 223 16 301q12 57 135 58l37 -6l25 4q29 0 55 -35q33 -49 90 -145.5t70 -116.5l69 -103l23 -37q8 -10 23.5 -31.5t33.5 -45.5t75.5 -117.5 t92.5 -142.5h6q8 51 8 157l-2 105l11 387l-4 65q0 28 10 36.5t15 13t18.5 6.5t18.5 3t9 1h31l49 2h2q46 -15 98 -15zM1138 -121q-16 0 -65 17q-14 6 -29 38v5q0 6 11 6q180 0 260 14q43 8 47 70q2 29 2 180v377l-6 129l4 82v15v40l-2 98v297l-4 113q0 12 20 12q4 0 6 -2 t20.5 -11.5t18.5 -39.5l-2 -29q1 -322 7 -371t6 -53l-9 -69l2 -68l-4 -41v-12q11 -62 11 -146l-7 -69l7 -139l-5 -183l5 -69l-15 -97q-2 -84 -117 -88q-146 -6 -162 -6zM244 -55q0 10 20 10l14 -1l97 1l96 -6q111 0 111 33l6 73l1 27l5 197l-6 75q0 84 11 84t27.5 -42 t18.5 -54t2 -44t4 -73q-4 -16 -4 -22l8 -70v-12q-2 -12 -3.5 -90t-8.5 -94q-14 -41 -53 -41l-115 -7h-49l-57 -4l-68 2q-23 0 -40 17.5t-17 40.5z" glyph-name="N" horiz-adv-x="1503" unicode="N"/><glyph d="M1649 770q0 -163 -27 -217q0 -18 -15 -59t-37 -74t-34 -74l-6 -14q-104 -156 -246 -234t-160 -82q-203 -35 -272 -18q-236 47 -316.5 97t-181.5 136q-47 43 -63 75t-39 54q-18 29 -33.5 89.5t-21.5 74.5q-4 14 -13.5 74.5t-9.5 77.5l12 147q0 20 27 74q72 211 141 277 l105 94q2 2 16.5 20t68.5 47t95 39q125 51 167 53t109 3l58 -3l39 3q73 0 223 -50q27 -8 93 -46t110 -99q42 -42 68 -82q26 -41 73 -133t55 -154zM1278 731q0 49 -30 129t-107 154q-18 18 -91 41.5t-104 23.5h-65q-39 2 -76 -12t-55 -16q-18 -3 -38 -17q-18 -14 -45 -32 t-45 -34t-65 -94q-49 -96 -49 -222q0 -62 31 -109q37 -66 147.5 -129.5t185.5 -63.5q16 0 46 4l108 11q23 2 63.5 24.5t56.5 34.5t30 32.5t20 26.5t16.5 15.5t14.5 15.5q51 90 51 217zM1757 715q0 -233 -47 -324l-18 -41q-30 -68 -46 -85t-24 -37.5t-12 -24.5 q-90 -104 -156 -148l-90 -67q-6 -2 -55 -21.5t-93 -26.5q-44 -6 -66 -20t-36 -14l-149 -2q-29 0 -84.5 9t-53.5 26l4 2l16 1h43l79 5h30q66 16 74 16l25 -2q92 10 188 70l33 22q157 85 205 163q14 24 37 53t43 59t29 65t25 61t30 114t14 138t-8 128t-16 96t-12 30l-48 125 l8 9q39 -12 57 -56q74 -176 74 -323zM842 1026q121 0 174 -18q4 -2 20.5 -6t16.5 -17q0 -18 -31 -18l-53 6l-23 -2l-35 8q-6 0 -38.5 -9.5t-39.5 -13.5t-56 -10t-122 -117q-8 -12 -12 -27.5t-6 -19.5q-25 -40 -25 -114t33 -119q4 -8 4 -14q0 -7 -21 -7t-41 34t-20 56l-8 58 l4 41q0 83 47 151.5t71.5 87t78.5 45.5l8 7q68 18 74 18z" glyph-name="O" horiz-adv-x="1822" unicode="O"/><glyph d="M555 180l6 -137q0 -49 -26 -49q-31 0 -80 4l-54 8l-127 -8q-27 0 -45 19.5t-18 45.5q0 115 -4 173l-2 32l12 72l-6 94l2 148l-8 104v35q2 33 0 33l-10 112l10 90q0 4 -6 97h2l-4 86l4 78l-2 59q0 36 12 96q8 39 47 39q10 0 57 2t88 3t80 13t94 6q55 -7 171 -13.5 t150 -17.5t66 -21t54 -25q96 -72 119 -101q108 -129 108 -397q0 -16 -4 -53q-25 -123 -59.5 -184.5t-128.5 -128.5l-17 -13q-18 -25 -100 -59t-256 -51q-16 -2 -24 -2h-70q-25 -2 -27 -27q-4 -94 -4 -162zM901 936q0 92 -78 143t-176 51l-84 -2q-25 -2 -24 -24l8 -371 l-1 -33q-1 -32 40 -32l69 6q70 0 144 51q20 15 56 61t41 88t5 62zM1366 911q0 -233 -78 -356l-22 -39q-14 -29 -23 -37l-47 -43q-70 -72 -123 -94q-12 -4 -47 -18.5t-54 -20.5q-19 -7 -142 -29t-132 -22q-27 -4 -26 -33l2 -49l-1 -18l1 -121l-6 -33q0 -59 -37 -96 q-18 -20 -72 -21l-39 4l-61 -6l-35 2h-35l-49 6q-14 0 -21 -4l-4 2q-33 33 -39 47q102 4 152 5h43l86 8q18 2 43 22q8 6 8 84q4 47 4 144l-4 79q0 27 31 31q10 2 49 6t51.5 6t46 6.5t50 8.5t45 10t58 16t81.5 36q50 26 80 52t48 38.5t32 31.5q14 18 70 87.5t56 263.5 q1 194 -61 311v2l-18 39v4l2 2l16 -6q55 -6 88 -119t33 -189zM649 730q0 -9 -26 -9q-13 0 -19 4t-6 66v45l-6 86l4 43l-2 79q0 23 18 25l56 6q18 0 32 -5t42 -13t39.5 -18.5t20.5 -26.5t9 -24q0 -7 -11 -7l-98 31q-10 0 -40 -6q-9 0 -9 -158z" glyph-name="P" horiz-adv-x="1398" unicode="P"/><glyph d="M1665 687q0 -59 -10 -91t-20 -83t-26 -81q-15 -31 -96 -170q14 -29 120 -141t106 -139q0 -14 -58 -15l-194 4l-74 -4q-35 0 -60 4t-62.5 48t-50.5 44t-26 -12q-25 -14 -54 -19t-42 -9q-74 -25 -205 -25q-4 0 -20 4q-17 10 -73 12t-173 33t-183 72t-142 129 q-37 42 -74 135l-25 37q-41 70 -41 147l2 33l-2 22l-2 146v20q0 29 66 216q51 137 172 256q53 53 173 105q119 52 183 60t162 9l102 -4q16 0 109 -21q139 -38 225 -102q41 -23 148 -160q59 -80 82.5 -142.5t43.5 -160.5t19 -157zM1309 727q0 49 -41 160q-10 29 -51 82 t-75 84t-98 47t-110 14q-45 0 -115 -16q-115 -20 -254 -176q-20 -25 -39.5 -85.5t-19.5 -91.5l10 -100q0 -68 37 -121q2 -2 8 -14t10 -18q78 -84 154 -129.5t177 -45.5t134 35q-162 194 -183 215t-22 33q0 37 89.5 34t121.5 -1l105 10q39 0 59.5 -20.5t39 -46t24.5 -31.5 q24 35 27 84t7 69t5 29zM1776 647q0 -4 -8 -53t-17.5 -84t-11.5 -49.5t-15.5 -39.5t-21.5 -53t-26 -50t-20 -33q-3 -10 -19.5 -33t-25.5 -23t-17.5 12.5t-8.5 20.5t39 76t66.5 174t27.5 178t-18 177.5t-49 151.5t-31 61.5t24 15.5t31 -29q3 -10 13 -21t38 -79 q33 -66 39 -185q6 -49 7 -51l-5 -24l9 -56v-4zM949 1051q36 0 75 -13q8 -2 16.5 -18.5t8.5 -20.5q-2 -2 -11 -2l-80 7q-134 0 -208 -68q-8 -10 -25 -18q-45 -35 -77 -100.5t-32 -134.5t23 -128q-16 -4 -23 -4q-18 0 -33.5 30.5t-15.5 53.5l-4 63l4 39q0 100 45 137 q2 0 18.5 28.5t40.5 54.5t38 28t20 8q33 51 168 64q16 -6 52 -6zM1796 -113q0 -10 -15.5 -18t-27.5 -8h-100l-121 4l-74 -4q-55 0 -55 35q0 24 27.5 24h42.5l49 -4l118 8l64 -6l46 1q46 1 46 -32zM1260 -23q0 -20 -66 -39.5t-85 -19.5q-52 0 -52 23q0 18 18 22 q125 25 143 35t22 10q5 0 12.5 -11.5t7.5 -19.5z" glyph-name="Q" horiz-adv-x="1910" unicode="Q"/><glyph d="M1036 484q0 -5 142 -195.5t164 -218.5t22 -41q0 -14 -14.5 -25.5t-30.5 -11.5l-107 2l-116 -4q-96 0 -138 67q-12 23 -131 172q-62 62 -89 101q-26 39 -50 53l-18 6q-70 0 -107 -2q-4 -152 -4 -227l1 -66q1 -65 -12 -82.5t-32 -17.5l-13 1l-40 1l-119 -4q-31 0 -84 8 q-33 8 -37 55q-10 93 -10 143t-3 69t-3 159l-2 72l12 90l-10 119l1 31l-5 204v248l-6 139q0 43 4 66q5 23 31 29t171 12q43 6 46 6l67 -4l92 2q86 -4 116 -4t88 -12q59 -12 97.5 -13.5t63.5 -10t49 -28.5t44 -29t34 -39t42 -52.5t36 -62.5t24 -63q25 -27 25 -114l-2 -25 l4 -49q0 -70 -2 -104l-13 -52q-4 -36 -16 -64t-20 -54t-19 -41l-92 -107q-5 -5 -18 -16t-13 -16zM606 1143h-32q-33 0 -33 -27l1 -64l17 -323q2 -25 5 -28t28 -7l31 -2q71 0 91.5 11.5t36 24t37.5 26.5t60.5 56t38.5 73l-6 32l8 39q0 94 -68.5 125t-128 47.5t-86.5 16.5z M1337 847q0 -118 -55 -216l-35 -78q-10 -8 -35.5 -40t-25.5 -36q0 -3 10 -21t54 -72t56 -78t36 -50q24 -24 59 -87t47 -79q70 -86 70 -138t-52 -61q-92 -16 -100 -16l-111 -2l-43 6q-94 0 -94 39q0 8 12 15t119 8l76 -4q125 0 125 36q0 27 -104 183q-10 14 -31 45t-34 49 t-70 90t-77 98t-20 40t16 26t41 45t35 45t16 28t13 33q8 16 41 111q12 42 12 102t-4 84t-8 56t-6 40.5t-6 32t-7.5 34.5t-10 36.5t-27.5 73.5h2l4 2l12 -4l8 2q53 4 90 -244q2 -16 2 -134zM309 -61q209 0 260 20q39 12 39 53l2 56l-2 149l-4 80q0 37 8 37q47 0 47 -98v-9 l-2 -55l9 -135q0 -29 -4 -82q-6 -37 -48 -47q-82 -18 -247 -19q-18 0 -44 16.5t-26 31.5q2 2 12 2zM594 782v97l-10 186q0 23 12 22q37 0 116 -24t79 -53q-1 -18 -7 -18t-73 22q-18 12 -72 16l6 -67l-4 -35l8 -82q0 -66 -2 -98q0 -14 -22 -14q-23 0 -27 18t-4 30z" glyph-name="R" horiz-adv-x="1536" unicode="R"/><glyph d="M547 1034q0 -22 10.5 -50t116.5 -68q45 -16 156.5 -46t188.5 -68t120 -106q6 -8 31.5 -34.5t31.5 -38.5q35 -78 35 -121l-6 -68l4 -76q0 -33 -14.5 -60.5t-25.5 -61.5t-62 -95q-63 -68 -84 -84q-80 -35 -122 -50q-41 -15 -139 -15t-188 22t-137 49l-57 29 q-98 63 -144 141q-86 143 -86 224q0 74 143 73q55 0 162 -4q25 -4 39 -32.5t24.5 -75t79 -80t128.5 -33.5q154 0 153 139q0 43 -49 77q-50 34 -242 88q-192 53 -209 59t-32 18q-45 45 -75 72t-55.5 101.5t-25.5 144.5t23 114q26 61 32 89t60 81q66 74 90 84q160 66 293 66 q33 0 54 -4t34.5 -6.5t48.5 -6.5t121.5 -43.5t102.5 -77.5q17 -37 55 -93t38 -189l-2 -27q0 -61 -57 -69q-37 -6 -121 -6t-133 28q-18 8 -20 29q-16 127 -76 147t-90 20q-31 0 -72 -24q-6 -4 -33 -35q-18 -25 -18 -47zM1335 384q0 -149 -39 -214q-6 -8 -20.5 -48.5 t-91.5 -115.5q-43 -43 -176 -102q-41 -18 -117 -19l-74 -10l-63 8q-46 -1 -108 17t-94 23t-146 77q-25 12 -25 29q0 8 12 8t87 -37q74 -37 108 -39t71 -11t107 -9l53 4q92 0 152 22q190 76 251 198q62 122 64 214l2 92q0 35 -12 95.5t-29 80.5l6 4q20 -12 51 -65t31 -202z M1268 965q0 -106 -82 -117l-111 -12q-27 0 -60.5 9t-33.5 25q0 10 8 11h72q118 10 135.5 37.5t17.5 85.5t-16 134q-16 74 -32.5 104.5t-35.5 57.5q-18 39 -65 76q-4 4 -64 39l19 2q41 0 80 -35t69 -67q29 -25 35 -47t17 -38q11 -18 21.5 -53.5t14 -59t5.5 -70t4 -58.5t2 -24 zM870 432q0 -35 -38.5 -65.5t-83.5 -30.5t-132 57q-14 12 -14 33q121 -35 155 -35t62.5 27.5t34.5 27.5q16 0 16 -14zM690 1053q-43 0 -43 -27q0 -10 33 -35l31 -22q0 -12 -13 -13h-4q-4 4 -19.5 9.5t-25.5 10.5t-29.5 16.5t-19.5 41.5q0 58 70 58t84 -52l2 -4q0 -2 -2 -4 h-2q-8 2 -29 11.5t-33 9.5z" glyph-name="S" horiz-adv-x="1409" unicode="S"/><glyph d="M157 1235q-3 29 -3 85q0 99 77 99l23 -1l160 1l143 -2l98 6l127 -4l113 -8l207 8q88 0 96 -26q10 -41 10 -80t-3 -109t-14 -84t-54 -16l-60 -8l-13 1l-89 -1q-94 0 -113 -4q-10 -55 -10 -101l10 -186l-4 -90q0 -102 10 -172l-10 -80l6 -127l-2 -100q0 -205 -12 -218.5 t-19.5 -15.5t-13.5 -11t-20 -9l-47 4q-135 4 -169 9t-51 32l-10 57l6 109l-12 151l6 66l-10 180l10 88l-4 74v114l-6 178q0 41 -35 41l-61 -4l-160 9l-49 -5q-35 0 -39 37q-6 84 -9 113zM1191 999l-160 -10h-38q-23 0 -25.5 -8t-2.5 -27l2 -47l-6 -61l4 -37l-2 -57l4 -72 q0 -121 2 -180l6 -62l-8 -147l4 -31v-84l-2 -57l2 -33l-4 -63l2 -46q1 -18 -7 -29t-16 -29t-24 -21q-66 -16 -93 -17h-77l-119 8h-21q-14 -2 -27.5 12.5t-13.5 26.5t11 11l45 -7h196q43 0 61.5 9.5t20.5 46.5l8 57l-4 41l2 31l4 73l-4 136l4 65l3 111l-7 53v276l2 97l-2 73 q-1 37 23 40t104 5t140 9q61 0 61 41q10 143 10 172l-2 67q0 39 19 39q12 0 16 -10q10 -51 10 -94l-6 -51l4 -43q0 -111 -18 -140q-55 -37 -81 -37zM471 1008q0 -25 -43 -25h-22v2q-37 -4 -56 -4l-18 3q-17 3 -67 0t-50 40q0 12 41 12h14h103l45 -4q53 1 53 -24z" glyph-name="T" horiz-adv-x="1363" unicode="T"/><glyph d="M712 -4q-294 0 -399 145q-70 98 -94 211q-2 8 -11 41t-9 76t-13 92l-2 25l2 55l-8 145l8 107q0 63 -5 95t-5 50l4 52l-6 84q0 66 8 192q4 49 39 56t94 8l117 -3q25 0 35 -16q15 -9 25 -29t10 -100l-4 -61l10 -205l2 -150l-2 -96q0 -116 8 -182t10 -84.5t14.5 -62.5 t42 -79.5t103.5 -35.5q154 0 154 174l-2 82l6 206l-2 64l4 96l-4 45l4 51l-10 230l2 104q2 57 86 58q139 0 180 -8t53 -50t10 -184t0 -156l9 -102l-5 -64l5 -120l-13 -142q0 -242 -39 -340q-118 -274 -412 -274zM754 -115q-208 0 -293 78q-4 4 -4 8t10 4t70.5 -17t78.5 -17 l31 2l37 -6h6q16 4 45 5t88 9q59 7 84 25t72 40t65 40t21.5 23t21 19.5t59.5 85.5q42 70 54 166l8 72q4 88 10 122t5 87l10 395l-6 240l-2 41q-2 41 6 41h2q31 -16 31 -37l2 -21q2 -20 -2 -28q10 -29 10 -134l6 -299l-4 -84l4 -127l-10 -145l-19 -170q0 -29 -8 -49 t-21.5 -54t-28 -68t-21.5 -40l-52 -53q-25 -37 -90 -72t-121 -49l-22 -8q-45 -25 -133 -25zM689 424q23 0 39.5 11t23.5 11q20 0 20 -18q0 -6 -10 -12q-31 -37 -83 -37t-81 48t-29 112l-10 178v104l-6 92q0 225 2 340l4 80q0 12 12 15h4q25 0 25 -17l6 -51l-2 -33l2 -53 l-4 -115l4 -65l2 -107v-49l2 -18l4 -84l-2 -68q0 -29 2 -41t4.5 -59t6.5 -77t22.5 -58.5t41.5 -28.5z" glyph-name="U" horiz-adv-x="1349" unicode="U"/><glyph d="M1290 1407q0 -59 -35.5 -155.5t-40 -106.5t-43.5 -152q-39 -115 -47 -137t-26 -86t-36 -120t-90 -254.5t-81.5 -238t-22.5 -64.5q-12 -25 -20 -55.5t-37 -35.5l-37 -6l-22 2l-109 -6q-66 0 -84 45q-31 73 -109 321t-127 387t-62 183q-59 196 -71 213q-10 27 -27.5 77 t-25.5 68q-23 76 -23 86t3 20q2 10 25.5 19.5t47.5 9.5t66.5 9.5t74.5 9.5t47 -1t37.5 -15t27.5 -32t35 -93t69 -196.5t51 -156.5l64 -178q31 -86 32 -90l6 4q16 45 45 129.5t38 110.5t23 75.5t26 71.5q24 46 59 184q18 55 61 142q12 25 43 28.5t99 3.5l49 -2l67 2l60 -6 q20 0 20 -14zM1365 1384q9 0 18.5 -14.5t9.5 -28.5l-68 -229q0 -29 -37.5 -136.5t-55.5 -175.5t-36 -118t-26 -88t-29 -87.5t-24 -79.5t-20.5 -62.5t-23.5 -62.5t-40 -123t-42 -128t-26.5 -67.5t-22.5 -44.5q-18 -45 -100 -64q-40 6 -68 6t-66 -1.5t-64 19.5q-27 21 -28 23 q0 12 39 12l133 7l52 4q27 1 42 23t33.5 79t26.5 71q26 48 57 171l9 20q14 31 28 77t82.5 243t78.5 247t20 64l34 113q10 29 24.5 82t19.5 69t8.5 41t9.5 41t18 57q4 33 25 39q0 2 9 2zM727 912q0 -47 -16 -60q-20 8 -27 35q-56 171 -78 237t-41.5 122.5t-37 106.5t-17.5 56 t5 6t9 -2t22 -5.5t21 -18.5q18 -37 43 -123q117 -307 117 -354z" glyph-name="V" horiz-adv-x="1400" unicode="V"/><glyph d="M1579 1360q0 -26 -9 -72t-16.5 -68t-10.5 -80q-8 -158 -58 -294q-17 -47 -27 -124t-23 -104t-21.5 -86t-11.5 -70t-13.5 -45t-14.5 -52t-10 -57.5t-10 -59.5l-51 -209q-14 -59 -91 -59l-110 10q-74 0 -111 55q-5 7 -21 61t-27.5 82.5t-15 68t-15.5 57.5t-27 92 q-18 106 -37 147q-14 -8 -19 -27q-31 -139 -37 -164t-15 -68.5t-14 -61.5t-9 -50t-9 -47q-39 -150 -75 -149l-64 12l-129 -10q-84 0 -87 60q-1 18 -17.5 80t-16.5 80t-24 116q-29 100 -41 189q-13 89 -25 134t-16 89t-14 74t-16 62t-14 62t-20 90t-42.5 170.5t-30.5 144.5 q0 68 55 72q29 0 88 12.5t90 12.5q74 0 87 -34t23.5 -92.5t14.5 -74.5l33 -135q2 -8 10 -58t16 -68t10 -63t19 -98q18 43 19 94v13q0 59 17 115q17 57 21 81t19.5 86t23.5 104q9 42 23 66q14 26 40 37.5t42 11.5h108q92 0 103 -30q29 -67 40 -123t25 -110t38 -156t61 -199 q12 19 16 83q5 64 19 120t30 151q35 145 42 191t25.5 60.5t34 16.5t52.5 2l96 -4l25 2q37 0 68.5 -19.5t31.5 -45.5zM1657 1036q-1 -24 -13 -72t-18 -89t-17 -73t-25 -123t-39 -171q-24 -80 -36 -146t-18 -88q-6 -20 -19.5 -85t-22.5 -93t-21 -100t-37 -92q-55 -49 -138 -49 l-90 6l-20 -2q-18 0 -39 22.5t-21 40.5q0 12 13 12l75 -4q4 0 31 -1t57.5 2t57 14.5t37.5 42.5q33 106 35 130q3 35 29.5 117.5t35.5 153.5q25 135 26 144t12 37t20.5 96t17.5 90t15 76t21 82t25 108q13 80 27 142q14 64 24.5 101.5t14.5 54.5t15 17t16 -18l12 -51 q0 -23 -19.5 -96.5t-21.5 -91.5q-2 -20 -2 -44zM874 288q0 -60 -18 -112l-2 -10q-4 -88 -51 -244q-16 -57 -82 -61q-27 -2 -82 -2t-79 5t-38 5q-45 0 -59 29l-10 14q0 18 26 18l209 -2q39 0 59.5 35t40 111t24.5 114t22.5 100t23.5 66q16 -6 16 -66zM1051 1357 q0 22 20.5 21.5t23.5 -21.5t13 -52t14 -45l17 -91q8 -37 8 -53l4 -65q0 -13 -6 -13q-18 -1 -31 56q-14 57 -38 149t-25 114zM561 1116q-10 0 -19 48t-28.5 127t-19.5 100q0 22 22 22t33 -53q11 -86 21 -120t11 -55.5t7 -31.5q0 -37 -27 -37z" glyph-name="W" horiz-adv-x="1691" unicode="W"/><glyph d="M117 37q0 25 17 48t38 65l45 65q121 184 258 426q51 82 51 92t-10 31q-140 195 -232 342.5t-149 224.5l-20 31q-2 2 -2 13q0 38 184 38q185 0 199 -12t31 -41t47 -67q30 -37 80 -119t60 -96t17 -13q49 49 120 175t85 150t40 30q26 5 85 5h231q47 0 47 -22 q0 -11 -24.5 -47t-40.5 -62t-72 -124t-150 -254t-94 -168.5t36 -58.5t64 -91t55.5 -81.5t40.5 -58.5t49 -68t45 -61t85 -124.5t76 -134.5l-2 -15q-13 -38 -24 -42.5t-30 -6.5t-37 -6t-38 -4l-64 4l-74 -3q-75 -3 -85 -1q-45 8 -78 78q-20 39 -62.5 109.5t-78.5 136.5t-52 86 q-6 -6 -19 -26t-29 -36t-40 -55q-72 -147 -172 -273q-25 -31 -75 -30l-68 2q-166 4 -215 9t-49 40zM489 -74q47 0 68 31q72 111 84 127t42 65.5t57.5 90.5t37.5 41t20.5 -11.5t10.5 -17.5t-9 -23.5t-20.5 -38t-13.5 -28.5t-80 -130t-86 -132q-35 -37 -123 -37l-225 12 q-84 0 -84 51q0 12 8 13l37 -5l45 3q12 1 61 -5t170 -6zM1397 1293q0 -5 -13 -29q-14 -18 -33.5 -55t-30.5 -55t-50 -93.5t-70 -119.5t-46 -73t-22 -40l-75 -113q-2 -4 -10 -4t-15.5 13t-7.5 24v6q6 16 45 80t57 84t55.5 94.5t51.5 96.5t35.5 62.5t27.5 52.5t20.5 31 t20.5 34t31 44q8 -4 18.5 -19.5t10.5 -20.5zM1458 33q0 23 -20.5 66.5t-20.5 52.5q0 18 21 18q31 0 56.5 -66.5t25.5 -107.5t-28 -69.5t-82 -32.5t-87 -5h-113q-72 0 -77 9q-25 29 -33 45q20 6 88 6l59 -2l113 10q98 0 98 76z" glyph-name="X" horiz-adv-x="1521" unicode="X"/><glyph d="M1356 1393q0 -28 -40 -90t-52 -84l-52 -91q-70 -124 -87 -162t-59 -120t-64.5 -122t-28.5 -58t-28.5 -51t-24.5 -66v-21l6 -137l2 -108l-4 -82l4 -39l-10 -109q-2 -61 -121 -61q-12 0 -111 16q-61 6 -79.5 20.5t-18.5 71.5q0 4 -6 312v90q0 15 -12 30t-36 67t-28 60 l-96 177q-29 44 -39 71t-34 66t-37 65t-62.5 112.5t-86.5 149.5q-38 62 -38 83t19.5 36t39.5 15h143q2 0 71 2.5t106 -31.5q35 -45 67 -115l117 -231q45 -92 65 -123q39 56 61 109t74 156t97 200q22 39 96 41l180 -10q66 0 86 -7q19 -5 21 -28v-4zM847 -133q-11 0 -61 6 q-141 0 -141 59q0 16 25 17h8q12 -2 45 -3t46 -4t55 -3t100 6q61 8 65 110q2 72 2 211t-6 273v6q0 27 40 94q40 68 44 76l61 123q51 98 68 126t61.5 118t72.5 138t52 103q24 32 32.5 32.5t19 -10t10.5 -18.5v-8q-4 -27 -27.5 -70t-32.5 -67q-10 -24 -22 -42t-23.5 -43 t-24.5 -43t-36 -71t-37 -73t-19 -36t-18.5 -35t-23.5 -43t-14 -34t-21 -39t-22 -44t-58 -106q-10 -16 -11 -62t-2 -53t-1 -12l-2 -2l6 -57l-6 -51l6 -62l-4 -38l4 -41l-10 -103l4 -41l-4 -47l2 -20q0 -53 -52 -97q-6 -6 -72.5 -13t-77.5 -7z" glyph-name="Y" horiz-adv-x="1468" unicode="Y"/><glyph d="M238 1112q-41 0 -41 64l4 63l-8 129q0 59 90 59h39l66 1q67 2 80 2l130 4l55 -2l105 4l188 -2q37 0 54.5 -2t28.5 -19.5t13 -29t9 -52.5l6 -59l-2 -74q0 -31 -13 -41q-30 -57 -42 -75t-68 -125q-56 -106 -86 -151.5t-54 -95.5t-55 -75q-6 -6 -21.5 -41t-23.5 -47 t-33 -57.5t-43 -71.5t-28 -68l71 -6l78 2l68 -4l59 6q106 4 166 4q43 0 43 -65l2 -160q0 -29 -10 -70t-32 -43t-142 -8l-60 -4l-129 4l-143 -8l-104 2l-15 -1l-90 7h-69l-62 -6q-45 0 -45 43l10 145l-8 97q0 55 88 202q0 2 9.5 15.5t18.5 37.5q10 24 40 70q30 45 33 52 l36 86q4 10 17.5 28t27.5 58t33 77l25 37q66 121 65 150q0 16 -26 16h-178l-56 4zM276.5 -86q-8.5 0 -15.5 6t-7 15t12 10l90 2l101 -4l153 2l105 10l41 -2l100 4l45 -4q27 0 43 2t67 3.5t84 16.5t33 97l-2 34l11 130q0 74 6 73q29 0 43 -45t14 -84v-8v-24l-6 -91 q0 -129 -51 -143q-98 -29 -142 -29l-45 6l-102 -10h-125l-19 1l-118 -7l-25 4l-49 -4l-76 6l-77 -2q-66 0 -74 25q-6 10 -14.5 10zM736 406q-30 0 -29 22q0 8 24 57q45 68 65 107t82 142.5t78 141.5t33 62q18 26 103 172q16 27 16 53l-2 31l6 113q0 68 8 67q51 1 51 -67 l-1 -9l-2 -30v-39l1 -68q0 -80 -86 -198q-14 -18 -43 -71.5t-57 -86.5q-10 -16 -26.5 -50t-22.5 -43t-10 -23.5t-12 -23.5t-21.5 -38t-37.5 -63t-30 -64l-4 -6q-12 -8 -32.5 -48t-50.5 -40zM494 1043q0 -13 -11.5 -22t-23.5 -9l-9 -1l-79 -1l-66 -2q-18 0 -49 11t-31 24 t24.5 13.5t70 2.5t69.5 2l64 -4q41 -1 41 -14z" glyph-name="Z" horiz-adv-x="1249" unicode="Z"/><glyph d="M532 987l-10 -401l2 -125l-2 -72l4 -176q0 -49 -6 -182.5t0 -167.5q37 8 58 8l22 -1l172 1q81 0 90.5 -13.5t12 -26.5t3.5 -22.5t0 -26t-1 -53.5q1 -37 -1 -67t-20 -33h-37l-315 -10h-10q-16 -4 -25 -4l-68 2q-61 0 -115 8t-67.5 21t-13.5 80.5t-6 97.5l-4 129l3 22 l11 175q0 76 2 92l1 8l-3 59l6 97l-4 75l2 45l-2 56l4 82l-4 30l4 101q0 2 -6 168v172q-6 190 -6 202t4 28.5t9 28t18.5 18.5t28 12.5t29.5 5.5h156q54 0 70 -11q37 8 60 8l22 -1l172 1q79 0 89.5 -12t13 -26.5t3.5 -22.5t0 -25.5t-1 -53.5q1 -35 -1 -67t-20 -32 q-4 -2 -14 -2h-23q-119 4 -225 -8h-66q-2 -12 -2 -66t2 -94zM635 -55q0 -14 -4 -15l-43 -14q-4 0 -13 4l-4 49l9 66l-5 47l7 188l-4 56l-3 471l7 188q0 124 5 130.5t64 6.5l113 -2l104 13q16 0 36 9t20 23l-2 21l1 16l1 111q0 82 26 82t27 -80v-31l1 -11l-1 -63v-28l2 -25 q0 -41 -41 -58.5t-88 -17.5l-41 4l-47 -8l-7 1l-53 1q-66 0 -67 -10l-6 -43l2 -27l-6 -51v-106l-9 -62l7 -10q2 -10 2 -37l-4 -88l2 -47l-1 -18l3 -123l-4 -29l4 -55l6 -293v-92q4 -29 4 -43zM774 -481h-65t-37 4h-4q-12 -4 -14 -4l-50 4l-80 -8l-98 8l-55 -4l-76 4 q-25 16 -39 43l4 8l41 2h107l110 -8l64 4h55l65 4l35 -8q8 0 34 5t70 8t65.5 28.5t21.5 58.5l-4 125q0 25 20 25q14 0 24.5 -18.5t10.5 -32.5l4 -127q0 -57 -40 -83t-56 -26z" glyph-name="bracketleft" horiz-adv-x="1032" unicode="["/><glyph d="M1020 53q0 -55 -221 -55q-33 0 -51 17t-44 71t-69 150t-61 128t-49 102t-52 108t-111 243l-51 111q-67 159 -104 251.5t-55 128.5t-18 62t6.5 35t80.5 31t111 22q66 0 102 -49q20 -25 68 -139l18 -37q6 -13 22 -55t60 -140q45 -98 141 -340l123 -290q36 -82 50 -116 t59 -113.5t45 -125.5zM506 1398q0 5 17 5t26 -14q12 -27 50 -101t51 -119t51 -121t153 -386q57 -141 94 -203q23 -28 43.5 -81.5t30.5 -72.5q115 -237 115 -303q-1 -27 -15 -47t-73.5 -36.5t-92.5 -16.5t-94 4q-14 4 -18 12q-16 16 -21 27q8 12 54 12l32 -2q12 0 117 16 q29 6 47 41v4l2 4l-4 19q-6 84 -45 143l-12 25q-6 23 -30 71t-42 91t-26 58t-24 41t-20 35t-9 30.5t-7 25.5q-38 57 -58 111t-44.5 117t-30.5 87t-12 37t-15.5 29t-16.5 33t-25.5 68t-26.5 68t-64.5 150.5t-56.5 138.5z" glyph-name="backslash" horiz-adv-x="1153" unicode="\"/><glyph d="M242 -424q0 12 22 12l408 -14q27 -2 76 7t69 9q63 4 64 230l-2 92v41q-10 809 -11 1132l2 203v41q0 43 12 43t20.5 -26.5t8.5 -57.5v-41l-2 -203q0 -324 11 -1132v-41l2 -92q0 -227 -64 -230q-14 -2 -65.5 -10t-79.5 -6l-418 14q-53 4 -53 29zM827 -252q0 -53 -6 -77 t-14.5 -31t-60.5 -11t-145 -5t-212 2t-176 3h-37q-18 3 -19 33t-1 67t-2.5 82.5t28.5 51.5q49 8 78 8l26 -1l169 1l57 -8q6 34 0 167.5t-6 182.5l4 176l-2 72v31l-4 245q-4 168 -4 250l4 29q2 42 2 96t-2 66h-66q-106 12 -225 8h-37q-18 2 -19 34t-1 68t-2.5 80t34.5 53 q27 6 72 6l26 -1l169 1q23 0 59 -8q16 11 70 11h99.5t65 -2.5t50 -14t30.5 -69.5q0 -19 -6 -209v-172q-14 -59 0 -813l1 -27l14 -170l-4 -129q-7 -23 -7 -76zM258 1104q-14 0 -20 41h16q199 0 199 -23v-26l-158 8h-37z" glyph-name="bracketright" horiz-adv-x="1032" unicode="]"/><glyph d="M1190 762q0 -20 -3.5 -35.5t-43.5 -15.5l-244 -4q-31 0 -41 24q-12 33 -54 87t-74 123t-54 99q-18 -8 -29 -30q-92 -160 -180 -289q-20 -33 -61 -33l-46 2l-98 -6q-96 0 -96 59q0 43 46 115t66 110t78 132t101 182t63 125q14 25 88 25l156 4q35 0 51 -20t41 -60t36 -54 t18.5 -37t21.5 -51t64 -108t98 -167t72 -122t24 -55zM1307 711q0 -84 -166 -84l-131 4h-15q-6 6 -33.5 18.5t-31.5 22.5h78l151 -2q82 0 82 57q0 37 -46 116t-49 92t-12 27q-8 14 -24 44t-35.5 57t-22.5 41t-67 123q2 6 -2 16l-76 127q0 11 -12 35q33 -12 49 -16 q42 -59 68 -112t54 -95t35 -56t27.5 -44.5t30.5 -62.5t79 -144.5t69 -163.5zM393 608l-133 6h-14q-6 6 -33 17.5t-31 23.5h221q72 1 70 -34v-7q-39 -6 -80 -6z" glyph-name="asciicircum" horiz-adv-x="1359" unicode="^"/><glyph d="M946 -231v-21q-4 -25 -49 -30t-106 -5l-63 2h-447h-209l-140 -6q-37 0 -46 18.5t-9 59.5l2 68q0 74 37 77q43 8 107 9l81 -11l125 7l37 -3l36 1l261 -1q100 0 152 3l57 2h31l59 2q31 0 41 -15q4 -4 20.5 -12t18.5 -23q4 -81 4 -122zM999 -96q33 0 33 -70q0 -35 4 -55v-2 q0 -150 -96 -154h-31l-178 2l-59 -6l-86 4l-127 -8l-148 -2l-9 1l-60 1l-54 4l-59 -4l-11 2l-33 3l-93 5l-31 -2q-16 0 -36.5 9.5t-20.5 21.5t12 12l80 2l39 -2l201 -2h96l20 2h154l166 4l141 -4q127 0 154 19q18 8 18 30l8 56l-6 108q0 25 12 25z" glyph-name="underscore" horiz-adv-x="823" unicode="_"/><glyph d="M51 1411q0 20 197 21q68 0 90 -33q6 -6 94 -148t88 -157q0 -25 -127 -25l-53 4q-30 0 -54 29t-129.5 164t-105.5 145z" glyph-name="grave" horiz-adv-x="571" unicode="`"/><glyph d="M1180 29q0 -15 -17.5 -27t-40.5 -12l-73 6h-127l-33 -2q-61 0 -70 26l-26 91q-2 8 -8.5 26.5t-6.5 34.5t-3 16h-21l-66 2l-108 -2h-91q-14 0 -20 -3t-27 -132q-10 -51 -59 -53h-16l-105 2l-100 -4q-61 0 -62 39q0 19 27 100q6 25 18.5 81t28.5 106t16 61q22 48 38 116 q16 69 66 221t58 198t36 135q28 88 64.5 208.5t56.5 144.5q21 24 107 24v4q86 0 113 -21t37 -51q114 -344 115.5 -366.5t1.5 -26.5l22 -64q19 -53 25 -77t15 -54.5t14 -47.5t12.5 -54t13.5 -56l43 -139q56 -180 104 -307.5t48 -142.5zM1154 -49.5q63 -0.5 63 49.5 q0 28 -19.5 108t-45.5 130t-48 138q-22 90 -44 162t-28 102t-17 67.5t-19 73.5t-41 131.5t-50 152.5t-26 87t-15 40t-22 52t-17 67q0 16 23 16q18 0 40.5 -67.5t34 -105.5t22.5 -78t15 -54t16.5 -60.5t17.5 -63.5t14.5 -32.5t13.5 -33.5t33.5 -111.5t29.5 -110.5l13 -24 q6 -16 12.5 -48.5t31.5 -104.5q25 -73 42.5 -135.5t58.5 -181t41 -149.5t-16 -54t-84 -24h-21l-33 -4l-55 6l-84 -4q-49 -1 -71 21t-23 32q0 10 41 9l111 -6q10 0 26 4t79 3.5zM719 141v-8q1 -20 -49 -20t-111 -4q-21 -1 -27 -41t-30 -119q-18 -53 -88 -53l-185 -7 q-63 0 -100 60q0 2 -2 6q0 4 6 4l13 -1l87 1l86 -6l78 4h15q52 -4 57 76q4 33 13 69t13.5 43t18.5 7h111l47 4q47 -1 47 -15zM723 446q-4 20 -20.5 54.5t-21.5 50.5t-29.5 82.5t-28.5 73.5q-29 -86 -82 -258q8 -2 57 -3h125zM580 494q0 14 26 94q4 8 12 8t8.5 -14.5t-6 -41 t-6.5 -37.5t7 -11q45 0 45 -27l-43 -2q-37 0 -40 8.5t-3 22.5z" glyph-name="a" unicode="a"/><glyph d="M612 1440q35 0 99.5 -8.5t116.5 -11.5t108 -29l86 -60l59 -67q10 -10 41 -72q43 -98 43 -143q0 -172 -78 -248q-12 -11 -12 -23q-1 -12 11 -24t16 -14.5t6 -6.5q98 -146 98 -248t-23 -188t-84 -142.5t-75 -72.5t-54 -36q-42 -21 -64 -35.5t-28 -14.5l-184 -6h-82v2 q-160 -6 -161 -6l-86 10q-116 0 -141 22t-25 72l1 36l7 241v223l-4 61l4 41l-6 111l1 15l-5 104l10 53l-6 33l-6 131v190q0 23 2 33q10 59 100 59l37 -2l51 8q96 1 144 7t83 6zM887 446q0 40 -2 62t-20.5 52t-40.5 40t-84 24t-85 13q-22 0 -74 -6t-54.5 -9.5t-4.5 -15.5 v-143q0 -164 9.5 -171t27.5 -7q189 0 235 19t80 81q13 22 13 61zM1211 721q13 0 23.5 -18.5t23.5 -38.5t55 -152q10 -36 10 -106t-35 -175v-8q0 -4 -35.5 -74t-48.5 -80q-12 -10 -19 -20t-9 -12q-84 -88 -215 -131q-30 -10 -66 -10q-14 -4 -49 -7.5t-48 -7.5t-32 -4l-299 4 l-53 -2l-68 10q-18 0 -40.5 10.5t-22.5 26.5q0 6 9 11.5t15 5.5h447q33 0 192 30q70 12 102 46t85 81q61 59 106 189q16 53 25 162v4q-4 12 -6.5 39.5t-9.5 45.5t-7 56l-43 109q0 16 13 16zM829 1018q0 18 -6 38t-10 25q-43 41 -102 41q-129 0 -149 -4t-25 -12 q-10 -27 -11 -141v-26q0 -26 22 -34t101 -8q180 0 180 121zM1180 770q-8 0 -17.5 9t-9.5 18l33 63q33 61 33 101l4 40q0 13 -5 31t-16.5 69t-34 96t-22.5 51t8 12q33 -2 63.5 -67t34.5 -108l13 -88q0 -67 -32 -147t-52 -80zM736 584q3 0 10 -1t16 -10q8 -8 8 -12 q0 -12 -137 -12q-25 -2 -25 -27l4 -90q0 -96 -22 -96t-23 39l-6 137q0 16 7 44t18 28l17 1l106 -1h27zM634 1090h79q30 -1 30 -19q0 -6 -17 -11t-26 -5l-28 4l-35 -4q-8 0 -12 2q-18 2 -19 -72l2 -22q0 -31 -14 -31q-29 0 -29 8v30l2 61q2 40 10.5 46t10.5 8t15 4.5 t19.5 1.5t11.5 -1z" glyph-name="b" horiz-adv-x="1355" unicode="b"/><glyph d="M1247 1016q-8 -25 -27 -25t-35 12l-122 91q-10 8 -76.5 23.5t-94.5 15.5q-28 1 -80 -13t-56 -16q-102 -41 -197 -189q-29 -49 -33 -129l-8 -96q0 -66 37 -168q2 -6 10 -15t12 -15t13.5 -27t15.5 -29q42 -47 86 -66t111 -42q57 -23 136 -23t165 47q8 6 44.5 36t56.5 30 q21 0 30 -2q27 -6 27 -125t-11 -187q-2 -37 -41 -55q-96 -53 -162 -55t-164 -2t-130 10t-83 23q-51 14 -128.5 60t-106.5 75l-49 47q-6 4 -22.5 26.5t-79.5 108.5t-86 215t-23 141l4 39q0 49 6 88t33 115q69 210 180 292.5t126 95.5t38 23.5t51.5 20.5t42.5 17q98 47 193 47 l47 -2l66 2q87 0 105.5 -6.5t32 -11.5t21.5 -7q43 -8 107 -63q27 -25 26 -68l9 -104q0 -78 -17 -160zM496 45q12 0 28 -12t50 -24.5t54 -22.5t74 -18.5t66 -12.5l41 -6l82 -10l106 6l45 -6q29 0 60 13t70 21q39 7 63 25t30.5 27.5t10.5 13.5q33 31 33 82q6 74 6 76l-4 157 q0 14 10 15q31 0 35 -41v-47l4 -95q4 -96 -3 -134t-16.5 -52t-33.5 -29q-45 -45 -134 -69t-122 -25l-107 -2q-70 0 -220.5 35.5t-201.5 93.5l-12 8q-18 8 -31 31q5 2 17 2zM875 1073q129 0 161 -39q6 -6 6 -8q0 -12 -10 -12l-22 2q-35 0 -46 8q-10 8 -24 8t-26 -5t-75 -16.5 t-100 -62.5q-2 -4 -10 -12q-98 -86 -98 -291q0 -18 11 -49t13 -47t21.5 -36.5t19.5 -36.5t-7 -15q-7 0 -20.5 10t-18.5 17t-20.5 21.5t-19.5 22.5q-31 70 -32 91l-9 63q0 106 35 195q12 29 62 86q80 106 209 106zM1302.5 969q-20.5 0 -20.5 22q0 14 14 45t13 149 q0 118 8 118q31 0 31 -56v-37l2 -123q0 -27 -13.5 -72.5t-34 -45.5z" glyph-name="c" horiz-adv-x="1411" unicode="c"/><glyph d="M258 1423q184 -1 216 5t60 6t136 -27q157 -26 268 -98q15 -15 45 -33q139 -84 221 -217t82 -297t-81 -329t-214 -271q-45 -35 -195.5 -95.5t-198.5 -65.5t-118 -9v2l-117 4l-30 -2q-18 0 -26 3t-30 7.5t-37.5 14t-21.5 54.5t-6 179v74l-4 57l8 80l-4 168l4 121l-4 92 l-4 149l4 62q0 66 -6 84t-6 37l12 63l-10 109q0 27 15 50t42 23zM582 373q2 0 66 8t87 22q70 47 78 55t17.5 21t25.5 27t52 94q34 80 34 164q0 24 -6 47t-12 47t-29 53q-82 106 -178 148l-47 20q-74 39 -127 39q-12 0 -13 -22l5 -232l-3 -139q-4 -139 0 -217l11 -100 q2 -35 39 -35zM299 -67q0 15 29 16l41 -4l112 -6l97 2l38 12l15 -2q18 0 126 36q195 65 339 193q8 6 21 21.5t18 19.5q74 66 98 121q63 131 72 184q10 30 11 42t12 57t11 71l4 74q0 41 -16.5 116t-31 110t-40.5 79q-27 43 -40 57t-13 21.5t2 9.5q6 -4 18.5 -12t25.5 -18.5 t18 -20.5q6 -10 14 -17t22 -31t43 -99.5t29 -114.5l2 -27q13 -49 13 -100l-9 -111q0 -23 -12 -59q0 -12 -4 -36.5t-6 -42.5t-15.5 -46.5t-32 -63t-22.5 -46.5t-31.5 -53.5t-73.5 -89.5t-59 -58q-10 -12 -33.5 -28.5t-31.5 -25.5q-53 -53 -172 -104q-4 -2 -36 -11t-44 -20 q-10 -4 -118.5 -26.5t-118.5 -20.5t-13 2l-31 -8l-41 6h-26l-23 2l-22 -8l-23 4q-47 4 -69.5 21.5t-22.5 32.5zM588 456l-13 475q-1 73 1 93t16 20q4 0 47 -16t47 -18l23 -17q53 -37 53 -47q0 -16 -12 -16t-52.5 25.5t-62.5 29.5q-2 -55 -2 -168l6 -266v-33l4 -51 q0 -14 -12.5 -25.5t-24.5 -11.5t-15 5t-3 21z" glyph-name="d" horiz-adv-x="1449" unicode="d"/><glyph d="M287 -2q-66 0 -73 59.5t-11 63.5v8l4 334l-2 80l8 131l-10 112l4 97l-6 149l4 96l-3 18l-3 148l-2 47q0 33 25.5 62t58.5 29l81 -9l44 4q51 -1 67 5t25 6l90 2l53 -2l143 8l35 -4l203 -8l78 2q23 0 42 -17.5t19 -40.5q0 -133 -2 -196q-4 -37 -22 -52q-18 -6 -21 -6l-51 4 l-70 -4l-104 2q-123 0 -369 -8v-72q0 -72 21.5 -83t48.5 -11l98 11l66 -5l82 3l59 -3l41 5l76 -7q33 0 40.5 -6t27.5 -13q34 -12 34 -134l-2 -70q0 -37 -10 -54t-47 -22q-147 -12 -152 -12l-153 6q-145 0 -203 -10q-16 -2 -17 -33q-10 -117 -10 -211v-73q2 -16 17 -17 q45 -4 135 -4l86 2l96 -2l43 2q133 0 199 -4l35 -2q43 0 43 -68l-5 -75l7 -41q0 -80 -50 -101q-63 -23 -116 -22l-359 12l-88 -4l-116 6l-70 -8h-92zM1233 94q0 170 20 170q10 0 20.5 -12t13.5 -41t3 -133t-27.5 -142t-132.5 -47l-55 -8l-125 8l-90 -4l-164 4l-34 -1l-246 1 q-48 -1 -63 19t-15 26q0 14 31 15h514l47 -6l74 8l8 -2l59 -2q94 10 118.5 22.5t34 42t9.5 82.5zM1187.5 922q24.5 0 24.5 -127l-4 -105v-42q0 -42 -27.5 -69.5t-64.5 -27.5l-16 -2h-99l-45 -6l-112 6l-12 -1l-97 1l-26 -6q-36 -6 -56 -6t-20 -13l-10 -135l4 -24 q0 -17 -19 -17t-24.5 8.5t-5.5 34.5v137q0 25 6 45q2 17 26 21t142 4q117 0 157 -8l80 6l47 -2l41 4q56 0 74 38t18 45v103l-6 109q0 29 24.5 29zM608 979q-33 0 -33 41q1 41 15 44t215 3v2q317 0 373 18q32 11 36 49t5 152q4 42 4 60t10 18q27 0 27 -68l2 -118 q0 -35 -17 -101q-9 -33 -44.5 -40t-70.5 -14t-135 -7l-43 2l-61 -6l-51 6l-43 -2q-43 -2 -97 -2l-49 4q-20 0 -23 -20.5t-20 -20.5z" glyph-name="e" horiz-adv-x="1335" unicode="e"/><glyph d="M1030 991q60 -1 60 -127q0 -66 -11 -157q0 -18 -14 -25q-39 -16 -78 -16l-96 2l-154 -6q-123 0 -184 -7q-16 0 -18 -16v-96q0 -68 4 -203v-107q6 -117 6 -130t-2 -53t-29 -46q-56 -12 -156 -12t-124 10q-36 15 -35 131l2 92q0 61 -2 130t-3 126.5t-3 77.5t-2.5 43t3 67 t3.5 66l2 168l-2 125l2 33l-2 59l8 160l-4 80q0 25 8 46t39 26q115 4 168 4l55 -4l225 4q262 0 394 -4q20 0 29 -13.5t9 -15.5v-41q0 -92 -12 -180q-2 -23 -26 -29q-57 -10 -68 -10l-49 4l-86 -8l-107 -4l-14 1l-88 -1l-72 2q-47 0 -66 -2t-20 -19q0 -59 6 -119 q0 -12 13 -12h39l102 6l92 -6l125 4l74 -4zM1137 680v111q0 12 -1.5 70.5t19.5 60.5q10 0 18.5 -10.5t8.5 -20.5l6 -148v-81q-8 -100 -133 -109q-53 -4 -80 -4l-182 2l-117 -8q-25 0 -29 -5.5t-4 -41.5l2 -41q0 -6 -4 -27q6 -37 6 -45l-2 -59q0 -373 -8 -395.5t-51 -37 t-76 -14.5l-164 -2q-31 0 -61.5 15.5t-30.5 41.5q0 12 29 13l127 -2l34 -2q59 0 83 7t34 8t20.5 3t10.5 33l-1 16l1 129l-8 289v141q0 33 28 33l136 6q35 0 104 -4h4l47 4l49 -2l60 6q83 0 96.5 20.5t21 29.5t7.5 20zM1182 1397q37 0 37 -90l-9 -64l4 -33l-6 -55 q0 -31 -10 -59t-26.5 -34.5t-48 -10.5t-43.5 -4h-124l-157 -5l-74 5q-53 0 -104 -7q-10 -2 -13.5 -16t-15.5 -14q-25 0 -25 36t9.5 42t52.5 6l135 -4q126 0 166 4t92 4t108 10q25 6 29 35q14 129 15 164l-5 55q0 35 13 35z" glyph-name="f" horiz-adv-x="1271" unicode="f"/><glyph d="M1124 834q6 0 36.5 1.5t63 -5t44.5 -38.5t12 -50t8 -114t8 -192l-2 -37l2 -211q0 -45 -8 -63t-35 -45q-76 -82 -264 -82t-269 31q-80 31 -106 33t-65 27.5t-86 59t-67 45.5q-41 24 -122 140q-8 14 -22 49t-40 77t-32 109l-12 49l-4 97q0 17 1 22l11 43q4 25 9 76t104 238 q37 66 91 115t99 71q33 27 71 44t89.5 41t69.5 28t29.5 5t17.5 3q119 29 266 29q84 0 211 -66q14 -8 14 -25l8 -129h-4q4 -70 4 -108t-2 -61q-2 -22 -27 -21q-25 0 -61 20t-80 31l-16 6q-35 21 -157 21t-255 -97.5t-133 -240.5t57.5 -222t106.5 -98l115 -43q45 -16 90 -16 l39 2h20q19 0 19 1v16l1 64q1 49 -13 55.5t-48 6.5l-51 -2q-25 0 -47 6q-41 12 -41 134q0 60 14 133q8 37 56 37l59 -3l25 3l15 -2l97 2h86zM1405 217v-78q-4 -61 -19 -82l-10 -39q-4 -10 -36 -38.5t-38 -30.5t-24 -10q-49 -33 -84 -33h-14q-44 -20 -92 -20t-154 10l-88 10 q-44 0 -64 9t-53 15t-93 36t-61 36q0 16 17 16l31 -6q33 -8 36 -8q197 -49 271 -49l61 6l45 -8l39 2q59 0 92 13t43 16q33 2 72 36t43 43q33 49 29 123v13q-6 103 -6 161v29l-7 166l-4 98q0 39 -3 55t3.5 23.5t18.5 7.5t23.5 -18.5t13.5 -36.5l10 -184l4 -111l-2 -29l6 -45 l-4 -71q-2 -18 -2 -27zM995 1028l-83 -8q-18 0 -31 -8t-15 -8q-37 -4 -96 -46q-60 -37 -72 -50t-36.5 -56t-31.5 -74t-7 -83t22.5 -97t46 -72.5t23.5 -29.5q1 -12 -13 -12t-24 10q-45 31 -77 96t-32 123q0 150 111 247t262 97q28 0 53 -29zM1303 1333q37 0 36 -84l-2 -51 l6 -65l-2 -43q0 -70 -41 -70q-12 0 -12 31q12 48 12 159l-12 107q0 16 15 16z" glyph-name="g" horiz-adv-x="1476" unicode="g"/><glyph d="M532 544q0 -7 -2 -22l-2 -88l9 -72l-7 -69q0 -25 3.5 -101.5t-5.5 -158.5q-2 -25 -30 -33t-80 -8q-53 0 -152 4q-45 4 -59 48t-14 71l4 98l-9 227l11 64l-6 61v49q0 48 -3 66l-2 45l5 39l-11 289v112l-4 27l-2 108l6 60q4 70 168 70q76 0 120 -10t53 -53q9 -44 12 -75 v-114l12 -146l4 -39q0 -8 -2 -13t3 -11t24 -10.5t26 -4.5h74l88 7q35 4 102.5 4t98.5 1t30 23q2 39 2 115l-6 162q0 57 6 116q2 18 19.5 30.5t38.5 12.5l75 -8l84 2l58 -4l35 4q59 0 59 -71l-2 -64l4 -225l-4 -51l12 -168l-6 -82v-11v-61l2 -57l2 -150l-6 -61l4 -56v-202 q2 -10 2 -29l-4 -80q0 -29 -26 -39t-113 -10l-80 2h-88q-16 2 -26.5 11.5t-10.5 82.5l2 78l-4 176l2 189q0 61 -3 74t-15 14l-39 -2l-17 1l-114 -3l-172 8l-109 -4q-23 -4 -25 -23v-62zM1422 -102q-18 0 -32 -8t-42 -9l-54 2q-86 0 -116 2t-44 17.5t-14 30.5t19 16l82 2 l82 -6q23 0 35 4t31.5 6t27.5 6q35 25 37 57v86l4 52q0 2 -6 32q-9 153 -5.5 284.5t3.5 201.5t-7 119v18l4 37l-4 51v53l-4 80l4 191l-4 114q-1 39 13 39t27.5 -13t13.5 -24l2 -82l-2 -40l4 -99l-4 -37q10 -60 10 -141l-1 -9l5 -71l-8 -80l4 -176v-47l2 -72v-55l8 -197 l-2 -90l6 -123q0 -63 -27 -86q-6 -4 -18 -20t-30 -16zM582 481q0 70 10 80t78 10h239q54 1 54 -30q0 -14 -17 -15h-69l-140 -4l-57 4l-37 -6q-8 -2 -8 -6l-2 -96l6 -268l-6 -93l6 -47q0 -10 -10 -71q-6 -27 -35 -37q-57 -20 -90 -21l-58 6l-8 -1l-55 1l-66 -4 q-20 0 -41.5 13.5t-21.5 33.5q0 12 59 13l49 -2l68 4q72 0 125 10q29 6 29 49l-2 182v295zM623 985q-31 0 -31 53l2 31l-10 164v41l-4 49v33q0 23 22 22q27 0 27 -41l-2 -10q8 -56 8 -59l-2 -45q0 -63 4 -187l4 -26q0 -6 -6 -15.5t-12 -9.5z" glyph-name="h" horiz-adv-x="1560" unicode="h"/><glyph d="M366 -2q-62 0 -124 16q-33 8 -36 39t-3 74l1 31l1 217l2 31l-4 151v68l-2 98l2 287l-4 174l2 37l-8 112q0 29 2 46t25.5 30.5t43.5 13.5h170q31 0 50.5 -10t33.5 -14q20 -7 22 -29t1 -88l2 -84l-2 -162v-141l8 -203q0 -16 -10 -119v-6q-2 -10 4 -28.5t6 -28.5l-8 -123 l3 -29l-5 -213l6 -51q0 -82 -60 -88q-57 -8 -119 -8zM536.5 -53q59.5 0 59.5 13l12 108v92l-4 348q0 88 6 129v8l-4 41l-6 485l-8 138q0 63 16.5 63t30.5 -22.5t14 -40.5l-6 -41l6 -68l-2 -78l8 -215l-4 -69l9 -121l-5 -160l3 -25l2 -163l6 -41l2 -135q0 -269 -64 -295 l-90 -17h-14l-113 8h-33q-70 16 -69 45q0 14 18 15l84 -4l62 2h83.5z" glyph-name="i" horiz-adv-x="745" unicode="i"/><glyph d="M637 0q-113 0 -133 2q-124 7 -260 109q-85 58 -103 127q-2 4 -10 19t-8 31t20 38q23 20 90.5 63t85.5 43q47 0 80 -37q45 -55 119 -80q2 -2 10.5 -2t34.5 11q63 25 75 122t11 138l-6 155l2 201l-6 123l6 268v31q12 57 90 57l21 -4l121 2q88 0 96 -47l14 -61l2 -273 l-2 -41l10 -106l-4 -51l3 -20l1 -136l-2 -129l4 -59l-12 -97q0 -54 -14 -96q-12 -66 -51 -104q-8 -8 -11 -13q-16 -45 -86 -110q-33 -30 -102 -52t-86 -22zM381 -20q20 0 98 -19t115 -19t158 19q14 2 23 10.5t38 18.5t127 106q61 61 102 228q12 66 13 172l-2 38l-2 203 l-4 346v64l-1 9l-2 58v80l-6 49q0 18 19 19q37 0 37 -49q10 -199 10 -240l-6 -96l8 -80v-94l-4 -62l2 -13v-77l2 -63l1 -26l-7 -191q0 -88 -47 -203q-16 -49 -21 -53q-158 -231 -346 -232q-82 0 -121 1t-147 46q-43 18 -56 50h19z" glyph-name="j" horiz-adv-x="1165" unicode="j"/><glyph d="M1249 1401q1 -19 -75 -125t-114 -164t-65.5 -108t-38.5 -66l-55 -82q4 -10 25.5 -76.5t36.5 -99.5q244 -569 243 -653q0 -29 -80 -29l-51 2l-114 -2l-54 2q-32 0 -38.5 11.5t-11.5 24.5t-7 17l-74 187q-16 45 -54 131t-56 131q-78 -123 -119 -185l-2 -258l2 -24 q0 -35 -55 -35l-31 -4q-35 -2 -93 -2q-125 0 -144 18.5t-19 200.5l4 74l-4 442v197l-6 161l4 97l-4 47l2 115q2 55 18 68t203 16l33 -3h16q49 -4 60.5 -21t11.5 -42l-4 -221q0 -70 8 -209q39 55 107.5 160.5t97.5 148.5l30 47q38 47 58 89t65 48q12 2 78 3h156l55 4 q55 0 55 -33zM1292 -4q0 6 -12 40t-29 85l-26 74q-6 14 -26.5 60.5t-24.5 64.5t-25 74.5t-28 68.5t-19 45l-19 43q-6 9 -11 29t-22.5 58t-49.5 118t-31 88q0 8 51 84q49 76 59 97t24.5 40.5t32.5 46.5t50 72t53.5 91t38.5 46q8 0 16.5 -13.5t8.5 -24.5q1 -11 -11 -25 t-18 -23.5t-13.5 -21t-43.5 -62.5t-80 -129q-66 -106 -74 -122t-21.5 -38t-13.5 -34q0 -13 19 -50q4 -16 17 -46t15 -36l58 -135q27 -63 31 -81t16 -32q10 -14 33 -71l81 -225q17 -57 36.5 -91.5t19.5 -107.5q0 -10 -18.5 -31.5t-26.5 -23.5q-59 -14 -171 -14t-135 11 q-23 12 -36 52q45 -4 69 -4l125 6q131 0 131 47zM670 369q16 -1 16 -25t-31 -61q-8 -10 -8 -119l4 -131q0 -143 -63 -146l-49 -10h-76l-7 1l-61 -3h-4q-12 4 -54 6t-68.5 12.5t-26.5 40.5q0 14 55 14t70 -5h8q33 -2 69 -2t51 -1t23 0t24 2.5t29 18.5q12 18 17.5 43t6.5 41 t0 49t-1 41l6 74l-2 53q0 16 28 61.5t44 45.5zM604 1106q-10 0 -19.5 8t-9.5 19l7 151l-4 51q0 55 22 56q12 0 20.5 -14.5t8.5 -26.5l-4 -33l1 -105q1 -106 -22 -106z" glyph-name="k" horiz-adv-x="1374" unicode="k"/><glyph d="M922 111q0 -90 -29 -101q-53 -14 -72 -14l-35 4l-30 -2l-207 -6q-37 0 -111 4q-205 0 -225 35t-20 73t2 60h2l2 108l-2 27l6 57l-1 14l1 89l-8 145l8 51l-1 13l3 94q0 131 -2 196l-2 74l4 47l-1 23l3 155l-4 107q0 43 20.5 58.5t65.5 15.5l96 -11l66 3h40q40 0 48 -19 t8 -41l-10 -139l4 -76l-2 -90l6 -115l-6 -82l8 -106l-8 -113l8 -127l-6 -102q0 -27 4 -76q0 -18 22 -18l103 4l172 -4l32 2q29 0 41 -31q7 -16 7 -186zM297 -72q0 14 18 15l195 2l119 -4l67 6q154 0 236 14q16 2 27.5 23.5t11.5 26.5l8 139q0 18 -2 28t2 32.5t4 31.5 q4 12 16 12q33 0 33 -72l4 -61q0 -94 -14 -160q-14 -72 -119 -72l-119 -6l-86 8h-71l-88 -8l-101 4q-57 0 -67 4t-28.5 6.5t-39.5 22.5q-6 2 -6 8zM647 397q0 -16 -12 -16q-31 0 -35 7t-4 15l2 138l-2 67v22l-4 156v152l4 72l-2 49l8 119l-4 69l-2 78q0 45 20 45q35 0 35 -9 v-54l4 -125q0 -92 -8 -166l-1 -7l5 -65l-2 -203l2 -149l-4 -119v-76z" glyph-name="l" horiz-adv-x="1064" unicode="l"/><glyph d="M1307 -6q-68 0 -99 18q-14 8 -14 88l2 21v86l-31 287l-12 90q0 16 -14 49q-25 -33 -30 -44t-13.5 -27t-19.5 -44q-10 -28 -34 -65t-40 -69t-41 -60q-8 -12 -26 -50t-36 -69q-6 -10 -45 -35q-16 0 -39.5 48t-35.5 73t-77 134t-89.5 156.5t-39.5 71.5q-27 -8 -26 -32 l-6 -80l-9 -35q0 -31 -8 -109l-12 -200l-10 -97l2 -69v-17q-4 -20 -80 -20l-59 2l-78 -4l-29 2l-55 -8q-35 0 -39 39q8 23 8 81t6 142l8 90l19 154l-4 47l16 161q2 27 8 80.5t7 85.5t16 102q15 72 14 111l-2 29q0 68 10 103t9 63q8 63 12 93q7 56 110 56t140 -53 q12 -18 32.5 -54t58.5 -94t118 -219q80 -160 104 -192l57 96q10 18 36.5 55t62.5 110t172 314q25 45 98 46l33 -2q67 0 89 -23t22 -57t4 -67.5t11 -74.5t13 -104t31 -203v-8l37 -432q4 -41 8 -86t9 -100.5t7 -86.5l15 -86l4 -73q0 -16 -17 -23q-51 -12 -239 -12zM1677 8 q0 -66 -54 -93.5t-124 -27.5l-33 -2l-11 1l-75 -3q-4 0 -59 13q-61 6 -61 36q0 12 16 13l74 -4l110 -2l80 18q10 0 28 -2t34 25.5t16 47.5t-6 54q-6 33 -10.5 113.5t-12.5 128.5t-12 206l-10 45q1 25 -7 59t-9 53.5t-3 29.5l-24 227q-12 131 -28 254t-16 140t15 18 q16 0 28.5 -13.5t20.5 -85.5t8 -94l9 -43q2 -12 5 -75.5t9 -87.5q6 -23 7 -60t8 -79t7 -64t11 -56l22 -168q4 -20 6 -60t9 -88t8 -112l6 -92q0 -78 9 -115t9 -55zM598 469q8 0 58.5 -78t50.5 -88q-1 -10 -15 -10t-21 5t-17.5 17.5t-12.5 14.5q-12 -55 -12 -111l-15 -149 l-4 -56l4 -39q0 -45 -34 -84q-8 -8 -13.5 -6t-17.5 -6t-37 -8l-8 1l-70 -9l-57 6l-49 -1q-50 -1 -70 32l-16 18q0 14 47 14l11 -1l35 -1l93 -2l25 2q6 2 27 5t46 13t25 44l10 76v32l6 70l-2 43q10 78 10 92l-4 55l4 29q0 80 23 80zM1122 428q0 -32 -2 -60t-22.5 -60t-47 -70 t-32.5 -50t-30 -39.5t-36 -37.5q-16 -29 -39.5 -18t-23.5 17t7 12q7 7 22.5 30.5t22.5 30.5t76 116t77 130q7 21 16 30q12 0 12 -31z" glyph-name="m" horiz-adv-x="1732" unicode="m"/><glyph d="M1210 1423q52 0 57 -2t12.5 -4t17.5 -13t10 -30l-7 -153l3 -70l-7 -90l4 -131l-8 -78l4 -53l-2 -348l6 -103l-2 -55l1 -143q1 -142 -43 -149q-20 -3 -136 -3q-114 0 -147 18q-57 35 -74 66q-47 82 -104 160t-79 120t-54 90q-43 64 -68 108t-55 69q-8 -16 -9 -64l5 -78 q0 -90 2 -135l6 -80q0 -66 -2 -100l-2 -31l2 -73q1 -20 -13 -41t-45 -21q-205 0 -243 12t-39 60l6 209q0 98 -4 291l-10 393l2 108q0 223 16 301q12 57 135 58l37 -6l25 4q29 0 55 -35q33 -49 90 -145.5t70 -116.5l69 -103l23 -37q8 -10 23.5 -31.5t33.5 -45.5t75.5 -117.5 t92.5 -142.5h6q8 51 8 157l-2 105l11 387l-5 65q0 60 21 60h82l49 2h2q46 -15 98 -15zM1417 1290q0 -372 13 -424l-9 -69l2 -68l-4 -41v-12q11 -62 11 -146l-7 -69l7 -139l-5 -183l5 -69l-15 -97q-2 -84 -117 -88q-146 -6 -162 -6t-65 17q-14 6 -29 38v5q0 6 11 6 q180 0 260 14q43 8 47 70q2 29 2 180v377l-6 129l4 82v15v40l-2 98v297l-4 113q0 12 20 12q4 0 6 -2t20.5 -11.5t18.5 -39.5zM242 -55q0 10 20 10l14 -1l97 1l96 -6q111 0 111 33l6 73l1 27l5 197l-6 75q0 84 11 84t27.5 -42t18.5 -54t2 -44t4 -73q-4 -16 -4 -22l8 -70v-12 q-2 -12 -3.5 -90t-8.5 -94q-14 -41 -53 -41l-115 -7h-49l-14 -1l-111 -1q-20 0 -38.5 17.5t-18.5 40.5z" glyph-name="n" horiz-adv-x="1497" unicode="n"/><glyph d="M1628 770q0 -165 -26 -217q0 -18 -15 -59t-37 -74t-34 -74l-7 -14q-103 -156 -245 -234t-160 -82q-204 -35 -273 -18q-234 47 -315.5 97t-181.5 136q-47 43 -66 79t-37 50q-18 29 -33.5 89.5t-21.5 74.5q-4 14 -13 74.5t-9 77.5l12 147q0 16 12 43t15 31q72 211 141 277 l104 94q2 2 17.5 20.5t69.5 47.5q53 29 93 38q126 51 168 53t109 3l57 -3l39 3q73 0 223 -50q26 -8 92 -46t111 -99q42 -42 68 -82q26 -41 73 -133t56 -154zM1257 731q0 49 -38 152q-20 57 -99 131q-18 18 -91 41.5t-103 23.5h-66q-39 2 -75.5 -12t-55.5 -16q-19 -3 -37 -17 t-44.5 -32t-45.5 -34t-65 -94q-50 -98 -50 -222q0 -62 31 -109q37 -66 147.5 -129.5t186.5 -63.5q16 0 45 4l109 11q23 2 63.5 24.5t55.5 34.5t29.5 32.5t30.5 35.5t21 22q51 90 51 217zM1737 715q0 -233 -47 -324l-19 -41q-31 -68 -46 -85t-23.5 -37.5t-12.5 -24.5 q-90 -104 -155 -148l-91 -67q-6 -2 -55 -21.5t-93 -26.5q-45 -6 -67 -20t-34 -14l-150 -2q-29 0 -84 9t-53 26l4 2l15 1h42l80 5h31q66 16 74 16l24 -2q92 10 189 70l32 22q159 87 205 163q14 24 37.5 53t43.5 59t29 65t15 47q25 41 39 128.5t14 137.5t-8 128t-15 96t-12 30 l-49 125l9 9q39 -12 57 -56q74 -176 74 -323zM821 1026q121 0 174 -18q4 -2 20.5 -6t16.5 -19q0 -16 -31 -16l-53 6l-22 -2l-35 8q-6 0 -39 -9.5t-40 -13.5t-55.5 -10t-121.5 -117q-8 -12 -12.5 -27.5t-6.5 -19.5q-24 -40 -24 -114t33 -119q4 -8 4 -14q1 -7 -21 -7t-41.5 34 t-19.5 56l-8 58l4 41q0 84 29.5 126.5t53.5 74.5t113 83l9 7q68 18 73 18z" glyph-name="o" horiz-adv-x="1785" unicode="o"/><glyph d="M547 180l6 -137q0 -49 -29 -49t-78 4l-53 8l-127 -8q-27 0 -45 19.5t-18 45.5q0 115 -4 173l-2 32l12 72l-6 94l2 148l-8 104v35q2 33 0 33l-11 112l11 90q0 4 -7 97h3l-5 86l5 78l-3 59q0 16 2.5 31.5t5.5 35t5 29.5q8 39 47 39q10 0 57 2t88 3t79 13t94 6 q56 -7 172 -13.5t150 -17.5t64 -20.5t56 -25.5q96 -72 118 -101q109 -129 109 -397q0 -16 -4 -53q-25 -123 -59.5 -184.5t-129.5 -128.5l-16 -13q-18 -25 -100 -59t-256 -51q-16 -2 -24 -2h-70q-25 -2 -27 -27q-4 -94 -4 -162zM893 936q0 92 -78 143t-176 51l-84 -2 q-25 -2 -25 -24l9 -371l-1 -33q-1 -32 40 -32l69 6q70 0 144 51q20 15 56 61t41 88t5 62zM1358 911q0 -233 -78 -356l-23 -39q-14 -29 -22 -37l-47 -43q-70 -72 -123 -94q-12 -4 -47 -18.5t-54 -20.5q-19 -7 -142 -29t-132 -22q-27 -4 -26 -33l2 -49l-1 -18l1 -121l-7 -33 q0 -59 -36 -96q-18 -20 -72 -21l-39 4l-61 -6l-35 2h-35l-49 6q-14 0 -21 -4l-4 2q-33 33 -39 47q102 4 152 5h43l86 8q18 2 43 22q8 6 8 84q4 47 4 144l-4 79q0 27 31 31q10 2 49 6t51 6t46 6.5t50.5 8.5t45 10t58 16t81.5 36q50 26 80 52t44.5 36t24 20t17.5 21t64 80.5 t56 263.5t-61 311v2l-18 39v4l2 2l16 -6q55 -6 88 -119t33 -189zM640 730q0 -9 -26 -9q-12 0 -18 4t-6 66v45l-6 86l4 43l-2 79q0 23 18 25l55 6q17 0 31 -5t43 -13t40 -18.5t21 -26.5t9 -24q0 -7 -11 -7l-98 31q-10 0 -41 -6q-8 0 -8 -158z" glyph-name="p" horiz-adv-x="1390" unicode="p"/><glyph d="M1663 687q0 -59 -10 -91t-20 -83t-26 -81q-15 -31 -96 -170q14 -29 120 -141t106 -139q0 -14 -58 -15l-194 4l-74 -4q-35 0 -60 4t-62.5 48t-50.5 44t-26 -12q-25 -14 -54 -19t-42 -9q-74 -25 -205 -25q-4 0 -20 4q-17 10 -73 12t-173 33t-183 72t-143 129 q-35 40 -73 135l-25 37q-41 70 -41 147l2 33l-2 22l-2 146v20q0 29 66 216q51 137 172 256q53 53 173 105q119 52 183 60t162 9l60 -2q59 -2 155 -26t137 -46t57.5 -34.5t26.5 -18.5q41 -23 148 -160q59 -80 82.5 -142.5t43.5 -160.5t19 -157zM1307 727q0 49 -41 160 q-10 29 -51 82t-75 84t-98 47t-110 14q-45 0 -115 -16q-115 -20 -254 -176q-20 -25 -39.5 -85.5t-19.5 -91.5l10 -100q0 -68 37 -121q2 -2 8 -14t10 -18q78 -84 154 -129.5t177 -45.5t134 35q-162 194 -183 215t-22 33q0 37 89.5 34t121.5 -1l105 10q39 0 59.5 -20.5t39 -46 t24.5 -31.5q24 35 27 84t7 69t5 29zM1774 647q0 -4 -8 -53t-17.5 -84t-11.5 -49.5t-15.5 -39.5t-21.5 -53t-26 -50t-20 -33q-3 -10 -19.5 -33t-25.5 -23t-17.5 12.5t-8.5 20.5t39 76t66.5 174t27.5 178t-16.5 166t-29.5 122t-25.5 47t-19.5 34.5t-7 26t24 10.5t31 -29 q2 -10 10 -16q12 -16 41 -84q33 -66 39 -185q6 -49 6 -51l-4 -24l9 -56v-4zM946 1051q37 0 76 -13q8 -2 16.5 -18.5t8.5 -20.5q-2 -2 -11 -2l-80 7q-134 0 -208 -68q-10 -10 -25 -18q-45 -35 -77 -100.5t-32 -134.5t23 -128q-16 -4 -23 -4q-18 0 -33.5 30.5t-15.5 53.5 l-4 63l4 39q0 100 45 137q2 0 20 31t38 49q25 29 39 31t20 8q33 51 168 64q14 -6 51 -6zM1794 -113q0 -10 -15.5 -18t-27.5 -8h-100l-121 4l-74 -4q-55 0 -55 35q0 24 27 24h42l50 -4l118 8l64 -6l46 1q46 1 46 -32zM1257 -23q0 -20 -65.5 -39.5t-84.5 -19.5q-52 0 -52 23 q0 18 18 22q125 25 143 35t22 10q5 0 12 -11.5t7 -19.5z" glyph-name="q" horiz-adv-x="1910" unicode="q"/><glyph d="M616 1425q40 0 97 -4t219 -35q29 -6 60.5 -23t43.5 -22q78 -31 131 -118q69 -106 73.5 -148.5t15.5 -93.5q12 -51 12 -84t-39 -184q-8 -35 -64 -133q-20 -29 -39 -37t-56 -45t-37.5 -43t21.5 -30.5t54 -57.5q33 -33 50 -63t97 -128.5t80 -148.5q0 -25 -49 -25l-84 2 l-39 -2q-111 0 -158 5t-73 40t-82 119l-123 176q-20 27 -47 27q-78 0 -100 -3t-23 -37q0 -34 4 -120l2 -129q0 -33 -1 -44t-12 -27.5t-38 -16.5l-96 -2l-39 2l-70 -4q-47 0 -69 34t-23 314l8 96l-4 31q-2 45 -2 135l-22 754q0 76 51 75l37 -2l57 5q16 0 49 -5h227zM895 898 q0 62 -54 151q-54 88 -227 88q-72 0 -84 -15v-30l2 -150l-2 -55q0 -35 11 -215q0 -31 28 -33l45 -2q66 0 164 43q64 29 86 86t26.5 63.5t4.5 68.5zM1473 -29q0 -23 -18.5 -46t-41.5 -27q-78 -14 -121 -14t-166 10q-23 2 -61 55l29 2l80 -6l79 4l74 -6q88 0 88 39 q0 47 -141 254l-141 206l18 25q59 75 66 80q4 6 40 69q70 142 70 283q0 140 -33.5 209.5t-38.5 87.5q23 -4 35.5 -16.5t26.5 -28.5t17 -19t10.5 -28t14.5 -55.5t14 -51.5t7 -34l-2 -23l6 -55l-8 -60q0 -55 -7 -75t-7 -36q0 -18 -8 -41.5t-25 -50t-35 -66.5t-65 -93l-19 -33 q0 -8 59.5 -92t68.5 -98q8 -14 18 -23q10 -7 19 -27t53.5 -85t44.5 -134zM668 76q0 -106 -9 -146q-10 -35 -45 -41q-88 -10 -104 -10l-59 2q-39 0 -60 2q-29 8 -49 8t-27 17q-16 16 -16 24t16 9l86 -4l68 6l54 -1q54 -1 70.5 18t16.5 65v114l-6 78v88q4 29 27 29 q31 0 31 -80l-3 -23v-8q9 -41 9 -147zM758 1033q0 -11 -5 -11t-21.5 8t-29.5 8l-57 -8l-12 2q-4 -16 -4 -22l2 -27l-1 -67q-1 -68 5 -87v-4l-2 -32l1 -39q0 -38 -12 -42q-12 -3 -26 -3t-14 45l-7 278l-2 21q-1 31 61 31t118 -29q6 -11 6 -22z" glyph-name="r" horiz-adv-x="1509" unicode="r"/><glyph d="M1174 996q0 -70 -97 -70q-43 0 -194 22q-33 4 -48.5 56.5t-31.5 66.5q-78 70 -137 70q-33 0 -74 -24.5t-41 -55.5l10 -53q10 -53 49 -68q6 -2 118.5 -44t179.5 -60q67 -17 114 -52q63 -41 93.5 -78.5t56.5 -116.5t26 -130t-13 -99t-53 -118q-40 -68 -102 -128.5 t-106 -79.5t-107 -30.5t-119 -11.5t-143 16l-86 27q-74 23 -160 94q-40 31 -65 91.5t-31 72.5q-39 78 -39 128t18 77t74 22h39l2 -2q147 12 169 12t50 -22q10 -8 39 -117q8 -27 25.5 -42t19.5 -17q14 -20 60 -32t91 -11q45 0 86.5 31.5t41.5 95.5t-64 100q-125 74 -198 74 q-11 0 -130 39t-190 112q-53 59 -69.5 90t-23.5 81t-7 74t16.5 104.5t30.5 101.5l33 43q14 15 25 37t23.5 35.5t23 20.5t31 20.5t26.5 17.5q94 63 250 64l92 -5l59 -14q32 0 61 -16.5t44 -22.5q61 -23 118.5 -75t75.5 -109q2 -6 8 -17t28 -75t22 -100zM369 14h4l75 -28 q74 -27 103 -27l115 -20l22 2q18 2 117.5 8.5t153 44t75.5 50.5t54 48q30 35 47.5 51.5t23.5 26.5q86 164 86 279q0 172 -106 299q-23 27 -23 28h8q8 0 34 -18t45.5 -43t36 -71t24.5 -62t8 -23l14 -160q0 -55 -8 -81t-10 -44t-4 -26q-41 -121 -160 -234q-66 -61 -225 -112 q-45 -14 -170 -14t-289 79q-27 15 -51 39v8zM1219 994q0 30 -2 38t-11.5 40t-12.5 41t-12.5 37t-15.5 40t-16 35.5t-20.5 37t-25.5 33.5t-44 41t-48.5 41.5t-29.5 26.5q7 2 29 2t73 -45q76 -61 109 -123l27 -49q8 -12 15.5 -39t21.5 -57t14 -80q0 -52 -10 -92t-47 -58 t-72 -18q-211 0 -209 35q0 18 37 18l108 -8q53 0 90 15t44.5 36.5t7.5 51.5zM840 392q0 -24 -32 -43t-76 -19q-95 0 -142 121v6q10 -2 55 -37t105 -35q22 0 61 25l16 6q13 0 13 -24zM647 1036v-6q10 -25 46 -37t38 -37l-4 -2q-129 27 -129 84q0 27 23 41.5t45 14.5 t44.5 -9.5t22.5 -22.5t-20 -13l-35 4q-31 0 -31 -17z" glyph-name="s" horiz-adv-x="1372" unicode="s"/><glyph d="M1159 1357v-48q0 -147 -13 -181t-77 -32l-104 -4h-86q-45 -2 -45 -156l6 -199l-4 -131l2 -49l-7 -49l5 -80l10 -121l-4 -43l8 -127q0 -31 -4 -92q-4 -37 -41 -41q-143 -16 -195 -16t-85 17q-32 17 -31 79l4 78l-11 184l2 84l-2 27l9 43l4 78l-4 90v247q0 53 -2 80l-13 60 q0 41 -13 43t-16 2h-34l-176 -4q-72 0 -78 32q-10 51 -10 95v18h2q0 127 4 150q0 23 32 25t64 9h6l62 -2q84 0 125 4q33 -12 112 -12l127 10l31 -2l61 7h123l158 -7h31q33 0 46 -13t15 -23.5t4 -16.5t2 -13zM1206 1317q0 61 13 61t25.5 -14t16 -26.5t4.5 -17.5t0 -23.5 t-1 -105.5t-6 -111t-7 -29q-6 -61 -63 -62l-113 -8q-90 0 -100 -2q-16 0 -17 -18q0 -170 -4 -203v-10l2 -41l-2 -72l11 -223l-2 -80l6 -254q0 -143 -43 -164q-66 -35 -113 -35t-96 -6q-4 6 -12 6l-21 -6q-12 -2 -84 -2l-25 8q-6 0 -10 -4q-6 4 -18 8q-31 37 -31 39 q0 14 76 15l63 -5l131 9q51 4 83 32.5t32 79.5v45l2 92v19q-4 193 -4 289q-4 70 -4 102l1 15l-3 96l4 151l-2 84q0 23 4 72q2 18 23 18l39 -2l165 13q51 0 74 28q6 6 6 10l4 50l2 135zM449 1020q0 -25 -27 -27q-20 -2 -118 -2t-101 10q-10 20 -10 35q0 6 12 6h61l39 -4l98 6 q46 1 46 -24z" glyph-name="t" horiz-adv-x="1314" unicode="t"/><glyph d="M821 4q-78 0 -88 -12h-104v2h-66q-14 2 -39.5 9t-38.5 9q-79 10 -123 50t-75 79q-80 90 -92 424l-15 205l4 82l-8 139l6 185l-2 86q0 82 15 129q16 41 151 43l78 -4q60 0 76 -12t22 -70q0 -49 4 -148l9 -110v-37h-3l-2 -142q0 -68 -3 -80t-3 -22l13 -145q0 -272 36 -332 q29 -45 108 -45t118 62.5t39 146.5v16q8 16 8 100t-10 125l2 19l-4 69q0 129 -5 195l-4 39l6 26l3 41l-9 189q0 55 4 69q4 23 27 29q122 33 229 10q41 -6 63.5 -30t22.5 -101l-6 -114l4 -80l-2 -111q4 -78 4 -117l-6 -39l4 -81l-4 -45l11 -84l-7 -46q0 -45 -10 -106 t-17 -109.5t-14 -73.5t-41 -79q-39 -79 -113 -141t-153 -62zM1233 1165l-4 125q0 47 10 53q49 -24 49 -157l-8 -404v-35l-6 -241q0 -221 -68 -359q-53 -124 -114 -170q-6 -4 -25.5 -23.5t-41.5 -27.5q-168 -61 -243 -61l-63 4q-166 0 -260 72q-17 10 -17 19t9 9l12 -2 q92 -35 164 -35l22 5l84 -5q29 0 78 9q205 31 297 163q18 27 43 89q66 160 66 256l8 178v336zM706 416q8 0 13.5 -8.5t5.5 -21.5t-21.5 -29.5t-39.5 -16.5q-80 0 -80 176l-9 168v8l3 99v75l-3 41l9 80l-1 19l-1 129l-9 133q0 43 17 43q6 0 19.5 -10.5t15.5 -18.5 q8 -70 8 -123t-6 -74q4 -33 4 -49l-2 -80l-4 -82l-4 -155l4 -57q0 -16 10 -109v-6l-6 -55q0 -94 37 -95q10 0 21 9.5t19 9.5z" glyph-name="u" horiz-adv-x="1347" unicode="u"/><glyph d="M1298 1401q0 -25 -38 -130t-48 -155t-28 -104t-22 -79t-44 -192q-49 -98 -61.5 -184t-30.5 -122q-18 -37 -26.5 -67t-14.5 -69t-11 -55t-12 -32q-8 -15 -28.5 -75.5t-34.5 -89.5q-35 -66 -149 -65q-49 0 -100.5 10t-67.5 51q-45 115 -70 164q-18 45 -22 80t-27 79t-32 76 t-33 102q-24 68 -40 124q-18 48 -26 74t-24.5 54t-21.5 42t-10.5 39.5t-8.5 33.5t-15 49.5t-22 59.5t-19.5 56t-53.5 142.5t-44 129.5q0 57 44 65q192 35 240 35q47 0 62 -35q4 -12 14 -30.5t41 -98.5t38 -122q6 -42 26 -87t29 -91q12 -60 55 -165l45 -143q14 -31 20 -31 q23 0 24 40t29 119q28 78 58 208q32 130 35 153t24 104t33 109t25.5 40t76.5 12t102 -6t48 -5l61 2q55 0 55 -20zM668 -76q0 14 28 15h86v2h47q55 0 64 6q51 35 71 91t50 158q28 102 60.5 202t39.5 147q8 47 31 99t31 89t35.5 130t32.5 113t18.5 85t25.5 97t20 66t16.5 60.5 t9.5 43.5t18 18q12 0 24.5 -17t12.5 -35t-24 -93t-25 -96t-24 -101q-22 -80 -28 -102q-6 -23 -15 -44q-9 -22 -15 -54t-27 -89q-22 -57 -42 -131t-29 -105t-10 -47t-18.5 -49t-15.5 -53v-8q0 -8 -3 -12t-27 -84t-31 -98q-8 -18 -12 -50q-4 -33 -28 -92.5t-52 -81.5 q-20 -10 -23 -10l-94 -15l-66 4h-24q-6 2 -47 5t-41 36zM748 908q0 -28 -7.5 -49t-13.5 -21q-12 0 -35 67q-45 166 -133 406q-20 61 -20 77t14 17q31 0 43 -39q8 -23 30.5 -82.5t28.5 -85.5t49.5 -144t43.5 -146z" glyph-name="v" horiz-adv-x="1411" unicode="v"/><glyph d="M792 1442q62 0 152 -15q35 -6 45 -43q20 -82 27 -122q61 -330 106 -455q12 24 22.5 96.5t15.5 94.5t17.5 72t30 157.5t37.5 165.5q10 35 53 39h213q54 -1 54 -50q0 -41 -42 -227t-70 -341t-40 -217t-44.5 -210t-46 -233.5t-28.5 -110.5q-18 -37 -161 -37q-57 0 -97 10 q-51 16 -67 71t-36.5 182.5t-37.5 186.5q-18 60 -29 125.5t-28 80.5q-8 -23 -18.5 -102.5t-36.5 -176.5q-25 -97 -25 -121t-22.5 -119.5t-30.5 -113.5q-14 -37 -52 -37q-129 0 -194 16t-80 82q-1 18 -11 53t-30 135t-53 216t-33 128t-6 43t-13 73t-26 110q-27 72 -27 110 t-23 152.5t-32 210.5q-12 68 -12 70q0 39 120 39l113 -7q61 0 82 -12.5t41 -138.5q7 -76 35 -189t38.5 -180t20.5 -102h4q12 23 23.5 86t11.5 96l47 309l15 74q0 29 28 51q38 25 100 25zM1222 -45q3 0 16 1t20.5 2t18.5 3t24.5 9t25.5 21.5t22 57.5t33 138t27 126t9 51 t21.5 105t31.5 141t23 114t17 82q8 26 15.5 67.5t14.5 74.5t35 172.5t46 214.5q8 20 23 21q10 0 17 -25t7 -41t-7 -37t-12 -46t-9.5 -57t-7.5 -45t-9 -40t-9 -47t-13.5 -61t-12.5 -67t-13 -77t-13 -63t-8.5 -39t-10.5 -65t-17 -75q-13 -38 -15.5 -56.5t-13.5 -48.5t-30 -181 q-2 -7 -17 -67t-18 -82t-11 -38t-13 -51q-7 -35 -31 -86t-52 -60.5t-112 -9.5q-84 -1 -108 3t-39 26l-10 19q0 14 18 14l43 -4l60 6h44zM835 360q13 0 22 -27t9 -63t-8 -58t-8 -52q0 -31 -18 -77t-25.5 -84t-21 -59.5t-37.5 -39.5t-50 -19l-90 -4q-55 0 -102 6t-53 33 l-11 27q6 2 15 2l69 -8l60 4l65 -9q78 0 102 82q32 108 50.5 227t31.5 119zM1120 1057q-20 0 -35 119q-2 16 -10 45t-9 39t-19 98l-9 24q0 16 21 17q19 0 26 -33q2 -6 43 -180l17 -86q0 -10 -8.5 -26.5t-16.5 -16.5zM584 1139q0 -12 -5.5 -41t-11.5 -29q-16 0 -20.5 34.5 t-11.5 61.5q-6 27 -16.5 96t-17.5 93t-7 30q0 16 14 17q10 0 22.5 -14.5t14.5 -27.5t11 -46t14 -80t14 -84v-10z" glyph-name="w" horiz-adv-x="1677" unicode="w"/><glyph d="M1372 1378q0 -14 -10 -29t-34 -39t-53 -80q-30 -56 -51.5 -79t-28.5 -36t-40 -55t-62 -97q-28 -54 -62 -111t-34 -69q0 -13 13.5 -40t24.5 -39t55.5 -89.5t75.5 -118.5t80 -126q50 -84 62 -112t29 -56.5t37 -56.5q70 -95 70 -106q0 -43 -34 -43l-144 2v-2l-121 6l-29 -4 q-18 0 -51 8q-37 4 -61 41t-101.5 149.5t-118.5 174.5q-18 39 -32 39q-8 0 -31 -31l-201 -313q-16 -29 -26 -43q-31 -31 -58 -31l-65 8l-103 -6l-73 4q-55 0 -67 3t-13 22l8 51q3 24 29 52t94 138t171 301t103 200t-14 35.5t-33.5 57.5t-23.5 38t-35 41.5t-41 56.5t-43 66 t-39 53t-33 52t-43 64t-37.5 67t-33.5 64t-11 29q0 35 41 38q66 4 96 5l203 -13q47 0 71.5 -28.5t76 -104.5t84.5 -110q12 -25 33.5 -50.5t27.5 -25.5t51 71.5t94.5 152.5t65.5 98t45 18l80 -2q135 0 217 -4q16 -2 34.5 -22t18.5 -34zM772 241q0 -11 -11 -29t-40 -61.5 t-53 -88.5t-32 -54q-7 -8 -42 -57t-57 -68q-25 -16 -41 -16h-121l-168 6h-9q-8 0 -15.5 -4t-14.5 27l-6 28q0 16 26 17l174 -7q74 0 107 2t57 24q24 24 110 163q87 139 109 164q8 0 17.5 -17.5t9.5 -28.5zM1573 12q0 -50 -26.5 -81t-46.5 -31t-70 -12.5t-74 -12.5l-178 2 q-18 -2 -42 15.5t-24 35.5q0 12 23 13l49 -7q90 0 126 6t50 5q152 0 151 67l-4 19q0 45 -38.5 94t-45.5 65q56 14 80 -28q10 -20 31 -41q39 -59 39 -109zM1466 1313q0 -10 -43 -72.5t-50 -81.5t-42 -62t-44 -63t-41 -63t-74 -115q-41 -72 -52.5 -84t-21.5 -24t-20 -11 q-10 0 -19.5 11.5t-9.5 20.5t15 29t36 54t98.5 142t103.5 153t77 120.5t59 75.5t18 -10t10 -20z" glyph-name="x" horiz-adv-x="1554" unicode="x"/><glyph d="M1059 1440h63q215 0 232 -23q6 -7 6 -29t-37 -96q-57 -102 -77 -128t-36 -63.5t-24 -53.5q-66 -109 -77 -135t-51 -81q-59 -82 -72.5 -129.5t-33.5 -62.5q-2 -6 -16 -33.5t-14 -54.5l-7 -150l7 -110l2 -197q0 -73 -12.5 -82.5t-30.5 -11.5h-31l-143 4l-29 -4 q-76 0 -92 16t-17 52l9 104q4 80 4 176t-9 148l2 12q0 20 -22 55l-80 142q-51 85 -118 188.5t-81 126.5q-12 38 -48 104t-74.5 142.5t-38.5 115.5v4q29 33 53 39q24 7 140 7t122 2l23 2q35 0 71 -33q18 -18 90 -174q10 -18 33 -51.5t28 -43.5t21 -40q14 -43 56 -90 q14 20 38 58t46 68t44 82q22 50 54.5 107t39.5 71t23.5 22.5t26.5 14t20 9.5t17 4zM1428 1247q-30 -52 -44 -87t-31.5 -63t-23.5 -42t-22 -43q-35 -53 -66 -129q-8 -14 -29.5 -44.5t-33.5 -56.5t-50 -87.5t-47 -78.5l-30 -65q-8 -14 -9 -111l7 -43l-2 -237l1 -84 q1 -85 -10 -129q-14 -63 -127 -64l-13 1l-93 -7l-76 6l-18 -2q-18 0 -37 19.5t-23 40.5l2 6q6 4 54 4l53 -6l80 4q4 0 25.5 -1t49.5 2t47 13.5t19 42.5l10 129v6q-8 47 -8 162l2 53l-4 121q0 76 12 101q74 160 189 331q4 8 10 23.5t11 23.5t28 40t33 64t40 76t48 80t27 50 t23 51.5t26 37.5q12 1 21 -11.5t9 -28.5t-30 -68z" glyph-name="y" horiz-adv-x="1474" unicode="y"/><glyph d="M946 1430q82 0 82 -102q0 -139 -14 -174q-40 -100 -51 -122l-23 -41q-20 -37 -108 -188t-191 -365q-47 -104 -53 -123q76 -10 180 -10l205 8q86 0 86 -88q0 -194 -27 -207q-25 -6 -47 -6l-94 2l-19 -2l-147 -10l-53 12l-76 -4q-99 0 -154 -10q-16 6 -47 6h-59l-72 2h-28 q-20 -2 -40 16t-20 118t3 122t15 39q12 16 32 54t25 46t22.5 43t31.5 58q13 23 19 35t133 264t127 295q0 18 -33 18l-76 2l-31 -2l-190 -2h-45.5t-30.5 10l4 70l-8 72l4 28q0 121 33 121q147 6 340 6l111 -6zM1120 283q0 4 16 4t27 -37t11 -64l-2 -14l-3 -84 q0 -125 -31.5 -161t-103.5 -36l-180 -10l-39 2l-153 -6h-162l-82 6h-115q-18 2 -36.5 16.5t-18.5 31t78 16.5l88 -4l51 4l242 -6l124 8l15 -2h88l86 8l18 -2q31 0 48.5 28.5t20.5 61.5t4 78t3 57l6 68v37zM1085 1380q16 0 32 -27.5t16 -42.5q-1 -15 -5 -38t-4 -101l-6 -73 q0 -18 -16.5 -43t-20.5 -37t-53 -104t-55 -114q-7 -20 -55 -98t-48 -94t-5 -23t-17 -31t-24 -38t-28 -55t-21 -51t-27.5 -29t-31.5 -19t-18.5 9.5t-9.5 16.5q0 8 28 62t62.5 122.5t48.5 95.5t46 81t62 106.5t50 101.5q20 48 48 95.5t32 77.5q12 123 12 124l-4 38 q-2 23 -2 70l-2 8q0 10 16 10zM508 1036q0 -16 -38 -23t-64 -7l-18 -1l-120 5l-18 -4q-8 0 -20.5 8t-12.5 16q0 29 57 29l172 4q62 0 62 -27z" glyph-name="z" horiz-adv-x="1232" unicode="z"/><glyph d="M561 -227q-242 0 -325 145l-17 27q-37 63 -37 141q0 10 7 38t8 93l-1 7l1 25l4 81q0 121 -64 153q-37 18 -65 21q-47 8 -47 41q-5 102 -5 153t31 56q59 6 89 54t30 114l-8 75v31q-4 12 -4 36t9 72q9 49 13 86.5t10 57.5t15 47q14 37 21 45l42 41q33 39 94 49q25 6 119 24 q95 18 111 18t26 -6q10 -5 28 -8t30 -12.5t12 -201.5q0 -41 -38 -49t-69.5 -10.5t-43.5 -4.5t-35 -27t-23 -89l1 -14l1 -89l5 -59q6 -60 3 -68l7 -51q0 -25 -10 -38t-21 -45q-12 -32 -66 -95q72 -45 80 -125l15 -150l-5 -81l5 -43l-15 -97q0 -39 31 -69.5t75 -30.5t68 -2 q33 -2 43 -41q4 -27 5 -76t4 -65l6 -31q0 -53 -150 -53zM732 1450q11 0 22.5 -14.5t13.5 -26.5q8 -68 8 -124t-3 -72.5t-14 -29t-16.5 -19.5t-26 -12t-28.5 -8t-76 -14q-40 -6 -39 -69l13 -219q0 -129 -45 -174q-13 -12 -13 -16t7 -15q45 -63 45 -176l-2 -55l4 -99v-98 q4 -51 15 -75t9 -30v-6q-4 0 -14 2t-21 4t-25 21q-13 19 -14 182l5 109q0 169 -54 215q-14 8 -14 17q0 8 6 16t14.5 21t17.5 30t20 35t12 112l-17 207q0 98 82 107q10 2 22 7t41 6t47 15t17 109l-10 100q0 37 11 37zM795 -160q0 -36 -4.5 -53.5t-8.5 -30t-16 -22.5 t-19.5 -16.5t-26 -11.5t-29 -8t-19.5 -3h-101q-80 0 -133 53h6q20 0 62 -8t95 -8q52 0 108 22q39 16 39 86l-9 105v32q37 -23 41 -40q15 -61 15 -97z" glyph-name="braceleft" horiz-adv-x="864" unicode="{"/><glyph d="M205 -210l-4 140l-2 4l-4 132l12 86l2 108q0 80 2 94l2 31l-4 35l6 98l-4 76l1 11l-1 91l4 80l-4 31l4 102l-6 168v172l-6 195q0 66 23.5 78t34 18t25.5 6h166q58 0 70.5 -14t12.5 -49l-3 -60l-6 -168q0 -84 2 -125l4 -28q0 -86 -4 -250l-6 -154l2 -125l-2 -71l4 -178 l-8 -338l4 -78q0 -92 -4 -139q-6 -43 -49 -43h-68q-29 0 -79 7t-70 9t-33.5 14t-13.5 34zM621 -39q0 -98 -5 -149l-6 -76q-2 -16 -18 -45q-35 -59 -103 -62l-83 -4l-101 13q-4 2 -14 2l-27 41v6q85 -17 92 -17l56 4h51q14 0 59 15q45 12 45 186v29l4 90v59l7 234l-1 51 l7 340l-4 74l-2 254l2 145l-5 80v4q6 12 7 41l2 147l2 54l-1 14q-1 14 3 18l10 -6q4 -10 16.5 -14t12.5 -16l6 -197l-4 -156l-4 -409l2 -219l-2 -154l6 -64l-6 -55l4 -141l-8 -76v-41z" glyph-name="bar" horiz-adv-x="729" unicode="|"/><glyph d="M793 819q0 -8 -11 -14q-51 29 -51 106l12 131q0 66 -12 84q-20 168 -20 177l2 2q29 0 45 -109q2 -16 14 -65.5t12 -83.5l-8 -132q0 -23 8.5 -55.5t8.5 -40.5zM348 1126q-6 0 -12 3t-17.5 4.5t-33 5t-27.5 45.5q6 -2 28.5 -8t43 -15t20.5 -26l-2 -5v-4zM344 -268 q246 0 326 143l16 29q37 63 37 141q0 8 -9 48q-9 39 -9 177t63 170q12 6 44 14.5t50.5 18.5t18.5 31q0 168 14 168q24 -4 28.5 -29t5.5 -36t0 -36.5t-1 -33.5q0 -104 -54 -115q-129 -10 -129 -174q0 -31 5.5 -125.5t9.5 -102.5t4 -16q0 -78 -37 -141l-16 -29 q-80 -143 -326 -143q-149 0 -149 53q45 -12 108 -12zM303 -227q-149 0 -149 53q6 143 14 172q10 51 83 49t103.5 20.5t30.5 73.5l-14 97l4 43l-4 81q0 213 94 275q-96 111 -96 178l6 51q-2 8 -2 12l10 115l-1 13l3 90q0 32 -6 62t-39 44.5t-98.5 14.5t-65.5 59q0 90 6 176 q2 27 34 39t70 12t142 -26q106 -18 162.5 -63.5t85.5 -135.5q10 -92 20.5 -149.5t10.5 -77.5l-1 -9l-4 -45l-8 -75q0 -66 30 -114t89 -54q31 -4 31 -54q0 -10 1 -51.5t-4.5 -89t-47.5 -55.5q-133 -10 -134 -213l23 -205q0 -78 -37 -141l-16 -29q-80 -143 -326 -143z" glyph-name="braceright" horiz-adv-x="864" unicode="}"/><glyph d="M1198 764q0 -150 -86 -254q-14 -14 -72 -59t-138 -45q-135 0 -254.5 122.5t-158.5 122.5q-63 0 -90 -151q-6 -51 -61 -51q-12 0 -73.5 11t-74.5 15q-34 14 -34 43t26 135q16 84 79 154t145 98q18 6 74 6t123 -38.5t144 -123.5t144 -85q41 0 48.5 37t6 72.5t-1.5 39.5 q4 29 27 39q35 18 164 18q31 0 45 -18t16 -34.5t2 -53.5zM496 590q34 0 91.5 -71.5t139 -111.5t131.5 -40t100 4t101 35.5t69 55.5t28 38t18 24t18 37t14 35q23 35 31 168q0 6 7 12t19.5 6t12.5 -18l-2 -39q0 -59 -2 -66q-31 -131 -71 -190t-146 -121q-27 -14 -60 -18 l-96 -13q-93 0 -213 60q-16 14 -54 40.5t-49 38.5t-36 42t-36 30t-23.5 -42t-44 -84t-104.5 -42t-151 48q-12 6 -12 10q0 16 21 16l106 -20l51 -11q43 0 66.5 46.5t39 93.5t36.5 47z" glyph-name="asciitilde" horiz-adv-x="1351" unicode="~"/><glyph glyph-name="uni00A0" horiz-adv-x="655" unicode=""/><glyph d="M395 8h-35l-71 -4q-55 0 -84 43q-6 8 -6 59l6 50q0 68 -2 100l-6 41l-2 141l4 64q2 43 2 133t2 133l6 45l-12 66q0 106 75 108l103 2l67 -4q76 0 80 -61l4 -47l-2 -70l-2 -47l8 -64l-14 -94v-53l-4 -82l2 -55l-2 -31l6 -88v-39l4 -39l2 -76l-6 -92q0 -39 -123 -39z M528 1262q0 -30 -6 -41q-6 -10 -10 -27q-45 -92 -137 -92q-20 0 -53 12q-125 39 -125 170q0 76 88 131q15 10 43 10t38.5 -3t23.5 -8t24 -7q45 -14 79.5 -64.5t34.5 -80.5zM270 -42q0 7 6 7l52 2l96 -4q96 0 118.5 31t22.5 133v223l-2 2v250l4 49l-2 25q0 39 1 117.5 t1 119.5l45 -49q0 -61 4 -92q0 -62 5 -92q-6 -18 -7 -37l4 -51l-2 -53l2 -21v-125l5 -47l-7 -74l7 -98l-2 -49l6 -35l-13 -47q-4 -33 -10 -55t-34.5 -43t-57.5 -21l-55 4l-82 -2l-76 4q-6 0 -17.5 10.5t-11.5 17.5zM618 1236q0 -20 -12 -78q-12 -60 -60 -92t-108 -32t-84 35 h47q72 -2 120 47t48 123q0 27 -13 60.5t-13 38t6 8.5q33 -4 43 -33q2 -6 8 -15.5t12 -25.5t6 -36z" glyph-name="exclamdown" horiz-adv-x="729" unicode=""/><glyph d="M1174 418q0 -18 -3 -25q-31 -166 -176 -289q-35 -30 -103 -60t-87 -34.5t-19 -25.5l2 -88q0 -23 -15 -38.5t-27 -15.5t-130 6q-51 2 -51 60l4 51q0 39 -18 39q-23 0 -59 20t-148 86q-34 21 -82 101q-41 49 -74.5 132t-33.5 144l8 105q0 86 41 197.5t98 164.5 q18 16 33.5 30.5t34 26t29 18.5t32 17.5t29.5 13.5t37.5 16t43.5 19t13 21v104q0 16 5 21.5t24 7.5l125 4l34 2q39 0 41 -28l4 -97q0 -18 16 -23t50.5 -12t60.5 -20q115 -59 172.5 -140t55.5 -204v-8q0 -23 -11 -36t-110 -13q-98 0 -129 4t-41 20.5t-14 53.5t-45 71l-7 -2 q6 -88 8.5 -266t8.5 -268q39 20 46 76.5t27.5 82t92.5 25.5l73 -2l72 2q27 0 44.5 -14.5t17.5 -32.5zM457 521q0 -77 15 -122t46 -83t45 -37h4q2 6 2 16l-2 86l4 174l-6 213q0 27 -8 39q-49 -23 -74.5 -116t-25.5 -170zM823 -122q0 38 3 69q3 32 20 39q174 76 232.5 138 t133.5 243l5 2q22 0 22 -25q0 -4 -31 -88q-78 -186 -272 -283q-4 -2 -36 -10.5t-32 -19.5l4 -43q0 -23 -4 -68q-4 -76 -157 -76l-84 15q-27 0 -27 22q0 12 51 12h54q4 0 28.5 -1t33.5 0t25.5 6.5t23.5 17.5t7 50zM549 707l-19 -57t-18 -116t17.5 -113t17.5 -61t-10 -10 q-23 0 -37.5 65.5t-14.5 103.5t13.5 124t33.5 86q17 1 17 -22zM1147 618q0 -18 -66 -18q-16 0 -37 6q-49 -8 -59 -8q-109 0 -108 20q0 19 13 19l83 -2l141 6l2 2q31 0 31 -25zM844 1210l2 -26v-10l-2 -48h-25q-12 29 -6 48q-2 12 -2 32l6 19q9 -9 27 -15z" glyph-name="cent" horiz-adv-x="1327" unicode=""/><glyph d="M1006 669q0 -89 -18 -109t-48 -19q-168 0 -215 -4q6 -43 6 -99t-24 -116l12 -7h53q45 -4 69.5 -4t103.5 -2t118 -4t41 -37q4 -73 4 -108l-2 -64q0 -90 -64 -94q-92 -10 -114 -10l-150 12l-196 2l-166 -12q-39 0 -84 12t-45 41l8 105l-6 90q0 49 60.5 88t60.5 98 q0 26 -14 56t-54.5 38t-81.5 5t-73.5 11.5t-32.5 55.5l4 57l-4 107q0 90 45 90l37 -4q14 0 14 18t-9 43t-10 78l5 80q0 137 63 213l37 47q27 33 85 63.5t103 36.5l103 17q14 2 45 2q117 0 216 -60.5t165 -162.5q35 -57 35 -79t-33 -49.5t-58 -40.5t-36 -26q-63 -51 -103 -51 q-25 0 -78 69.5t-94 69.5t-79 -17t-38 -92t29 -133q6 -14 45 -22t64 -8l22 2l55 -2l138 10q41 0 60 -23.5t21.5 -46t2.5 -111.5zM1198 135q0 -76 -10 -99t-10 -44q-2 -39 -55.5 -59.5t-100.5 -20.5l-72 4l-100 -6l-203 6h-203l-43 2q-59 0 -59 14q0 23 64 23l106 -2l59 4 l91 -4l40 4h89l98 -6l61 10l47 -4q86 0 121 36t35 124l-8 119q0 25 14 24q23 0 27 -16q12 -33 12 -109zM788 498q26 2 66 2h58q57 0 68 7t30 16t26 58q6 49 6 121t5 76l13 -13q13 -13 19 -17q4 -38 4 -53t-3 -35t-4 -57t-4 -65t-38 -51.5t-76 -25.5l-122 -6q-18 0 -21.5 -2 t-5.5 -21l-14 -74q0 -14 -11 -14l-18 4l-12 -2l-4 2q18 100 20 124t18 26zM1137 1074q0 -9 -41 -44.5t-68 -55.5q-28 -20 -36 -22t-37 -19.5t-46 -19.5q-25 10 -24.5 20.5t10.5 14.5l25 10q31 14 133 89l29 29q28 28 31 28t13.5 -10.5t10.5 -19.5zM638 889q-13 0 -25.5 40 t-12.5 60q0 57 35 78q4 2 15.5 3t17.5 4t11 3t10 -10t5 -15t-26.5 -24.5t-26.5 -50.5t6 -57l10 -27v-2q-6 -2 -19 -2zM362 465q0 -12 -38 -12l-48 4q-57 0 -80 1t-24 15q0 25 18 25l5 -2l98 -7l26 3q12 0 27.5 -7.5t15.5 -19.5z" glyph-name="sterling" horiz-adv-x="1261" unicode=""/><glyph d="M955 1038q9 0 74 61.5t93 61.5t98 -82t70 -105q0 -24 -17 -38t-53 -44t-55 -46q70 -122 70 -194t-6.5 -115t-38.5 -146q4 -4 26.5 -23.5t52 -49t29.5 -54.5t-26 -43q-125 -106 -156 -106t-84 49t-67 61q-129 -55 -241 -55t-198 25q-25 12 -43 12q-18 1 -31 -17t-57.5 -58 t-59.5 -40t-32 17l-65 57l-76 61q-38 22 0 60q51 39 102 102q-57 101 -57 205t22 166q31 61 31 68t-63.5 57.5t-63.5 67.5q-1 17 17 37t88.5 85.5t78.5 65.5q23 0 80.5 -55.5t64.5 -55.5t18.5 5t24.5 10.5t17 7.5q102 29 201 28l84 -4l35 4q12 0 58 -21.5t55 -21.5zM920 635 q0 70 -39 101.5t-91 44.5t-79 14q-123 0 -179 -111q-16 -30 -16 -66t31 -90q51 -86 155 -86q135 0 179 68q39 55 39 125zM967 137q0 -29 -86 -47t-130 -18t-88 5t-81 15t-61 10t-52.5 -29.5t-54.5 -29.5t-25 20q0 8 48 50.5t69 42.5q4 0 20 -4q86 -31 184 -31t150 12 q51 12 69.5 19.5t20.5 7.5q17 0 17 -23zM643 492q-4 0 -6 2q-80 42 -80 120t70 125q23 17 31 17t16 -5.5t8 -11.5l-12 -12q-61 -33 -62 -113q0 -45 25 -77l24 -31q0 -14 -14 -14zM1343 196q0 -22 -77.5 -89.5t-100.5 -67.5q-8 0 -30 22q10 10 34.5 25.5t31.5 23.5t35 32 t51.5 45.5t39.5 29.5q16 1 16 -21z" glyph-name="currency" horiz-adv-x="1431" unicode=""/><glyph d="M1319 1403q0 -25 -66.5 -153t-145.5 -275.5t-97 -194.5q14 -2 53 -3t61 -6t23 -39q2 -34 2 -94t-11.5 -69.5t-39.5 -9.5l-111 -2h-49q-16 0 -20.5 -4t-4.5 -21v-14q0 -4 -1 -13t0 -15.5t2.5 -17.5t17.5 -11q188 0 208.5 -7.5t20.5 -81.5q0 -75 -15.5 -92.5t-86.5 -17.5 l-125 4q-14 0 -14 -4l6 -96q0 -60 -7 -106t-51 -50q-123 -8 -188 -8q-100 0 -98 59q0 147 -4 191q-12 4 -19 4l-174 -4q-47 0 -47 35l-4 121q0 43 20.5 48t24.5 6t9 1h36q29 4 45 4l86 -6q18 0 18 9l-2 65q0 10 -12 14q-31 2 -92 2l-61 -2q-52 0 -63 8t-14 17.5t-6.5 18.5 t-3.5 13v57q0 54 1.5 57t2.5 9t4 8t6 6.5t9 7.5t62 3t55 14q0 2 -40 78q-72 138 -131 218.5t-167 289.5q-8 10 -8 24q0 53 123 54l36 -2l101 4q43 0 67 -3t48 -42q26 -39 63 -104.5t79 -148t58 -112.5t28 -30.5t89 132.5q78 133 110 207q51 88 60 92q25 10 45 11l125 6 q104 0 139 -7t35 -32zM1231 324q0 -128 -74 -127l-80 -13l-37 2q-23 0 -31 -7t-8 -29l-4 -79q-4 -79 -16 -100.5t-29 -23.5q-96 -23 -106 -23l-21 4h-80l-47 -4l-20 2q-16 25 -27 35v2l2 8l54 -6l57 4q150 0 172 30t20 62l7 140q0 16 16 16q57 4 92 4t90 17q33 10 33 79 l-4 82q0 47 8 47q23 0 27 -22q6 -42 6 -100zM1380 1350q0 -10 -47 -108t-59 -116t-28 -57t-34 -69q-20 -30 -56 -110q-36 -79 -56 -79h-39q6 10 18.5 33.5t24.5 41.5t47 81q145 287 186 383q12 25 23 24q6 0 13 -7t7 -17zM1182 713q0 39 14 39q4 0 11 -13t11 -29t3 -111 q0 -95 -37 -97l-88 -8l-41 4q-70 0 -86 -13q-8 -4 -13 -4q-16 0 -16 22t16 21l113 4q61 0 82 7q19 3 25 33t6 145zM547 207v-6q0 -15 -25 -15h-59v-2h-68q-35 0 -35 20t19 19l82 -4l67 2q19 0 19 -14zM526 513q0 -15 -24 -15l-133 -4h-2q-10 -2 -22.5 2t-12.5 17t14 13 l127 2q53 0 53 -15z" glyph-name="yen" horiz-adv-x="1431" unicode=""/><glyph d="M324 -268q-62 0 -107 32q-25 18 -24 76l4 299l-4 240q0 67 9 127t18 70t32 10h18v-4l111 12l65 -8q40 0 58 -3t26 -27t9 -138l-4 -92v-267l-3 -73l5 -144q0 -35 -1 -49t-15.5 -32.5t-43.5 -20.5q-91 -8 -153 -8zM252 846q-29 0 -46.5 21.5t-17.5 50.5l7 131l-5 139 q-2 60 -2 158t11 184q6 55 59 55h74v2l13 -1l89 3q62 0 74 -15t15 -35.5t4 -34t0 -38t-1 -26.5l-4 -398l2 -127q0 -28 -15.5 -44.5t-70.5 -16.5l-32 2l-119 -10h-35zM631 -8q0 -154 -4 -197q-8 -133 -148 -149q-49 -6 -110 -6t-77 9t-21 19t-11 15q14 6 31 6l17 -1l106 -1 l61 4q115 4 115 174l-6 143l4 107l-6 172l2 188q0 27 8 27q31 0 31 -103l-5 -47l5 -51l8 -160v-149zM569 883v526q0 152 4 158q35 -33 35 -97l-2 -77l4 -95l-4 -176l6 -39l-8 -180v-4l6 -39q0 -66 -55 -80q-49 -16 -78 -16l-110 4l-62 -4q-43 0 -59 45l11 1l67 -3l49 6 l73 -2q123 0 123 72z" glyph-name="brokenbar" horiz-adv-x="735" unicode=""/><glyph d="M1159 260q0 -92 -37 -162q-4 -8 -9 -36t-23 -44t-33 -35t-46 -32t-49 -23t-115 -29.5t-141 -19.5t-128 10t-199 53.5t-158 90.5q-6 6 -37.5 29.5t-31.5 41.5t49 87t66 85t33 17q16 0 36 -14q51 -43 132.5 -79t155.5 -36t134 57q6 6 6 12.5t-12 42.5q-2 37 -35 46 q-68 16 -88 19t-131 31t-115 29h-2q-4 2 -6 2q-63 8 -123 68q-2 4 -16.5 17.5t-20.5 23.5q-37 66 -37 112t9 100t34 93t47.5 64.5t22.5 33.5t-31 37t-55.5 88.5t-24.5 116.5q0 178 193 256q82 29 147 31q66 2 111 2q143 0 364 -68q57 -14 92 -69q11 -18 -4 -36 q-14 -19 -34.5 -66.5t-45 -67t-69.5 -19.5t-78 23q-34 23 -116 40t-134 17q-88 0 -88 -49q0 -25 20 -37t42 -20.5t59 -17.5t42 -10t55 -14.5t67.5 -18.5t67 -20.5t119 -55t85.5 -89.5q31 -78 31 -151l-10 -51q0 -45 -14.5 -73t-31 -51.5t-24.5 -39.5q54 -40 76 -68 q57 -82 57 -174zM724 -172q76 0 111 11t50 11t45 11q174 66 223 174q35 78 47 178q4 -6 27 -45v-45q-1 -15 -17 -61t-31 -74t-37 -50t-42.5 -36.5t-31.5 -23.5t-22.5 -17t-20.5 -14.5t-23.5 -12.5t-21.5 -8t-25.5 -9t-26.5 -10q-74 -29 -206 -29t-165 9q-219 49 -326 150 q-16 16 -16 36q19 -7 103 -47t100 -42t45 -16q29 -13 107 -26.5t154 -13.5zM780 684q0 33 -46 65.5t-87 32.5t-89 -22.5t-48 -54.5t31 -43q98 -52 141 -52t70.5 20.5t27.5 53.5zM1094 902q0 7 9 7t19 -10q29 -35 35 -45q29 -64 29 -124t-9 -99t-33 -93.5t-36 -54.5 q-6 0 -16.5 8.5t-10.5 14.5q25 52 39 80t19 86l8 45l-5 43q-5 43 -16 77t-21 46q-11 12 -11 19zM1137 1232q0 -28 -58 -122q-20 -31 -52 -31t-32 13q0 4 4 8q56 34 93 106q23 55 28 56q17 -2 17 -30zM586 1118q-6 0 -18.5 11.5t-12.5 19.5q0 25 37 25q92 0 151 -23 q2 -2 10.5 -6t8.5 -11t-8 -8l-64 8q-63 7 -80.5 -4.5t-23.5 -11.5zM668 735q0 -6 -22 -6t-47.5 -22.5t-35.5 -22.5q-18 0 -18 18t28.5 35t61.5 17t33 -19z" glyph-name="section" horiz-adv-x="1314" unicode=""/><glyph d="M774 1275q0 -62 -39 -102t-102.5 -40t-105.5 39.5t-42 103t40 107.5t101.5 44t104.5 -45t43 -107zM350 1264q0 -66 -37 -105t-100 -39q-16 0 -84 23q-78 25 -78 114q0 59 46 111.5t108 52.5t103.5 -45.5t41.5 -111.5z" glyph-name="dieresis" horiz-adv-x="825" unicode=""/><glyph d="M1622 759q0 -248 -108.5 -426.5t-223.5 -264.5q-43 -35 -116 -54q-198 -39 -263 -28q-2 0 -77 6q-72 10 -216 47q-80 23 -177 90.5t-140 121.5q-72 91 -99.5 250.5t-27.5 237.5t51 205q4 12 20 61t87 162q23 35 59 68q137 119 262 156q27 6 79 13t96 13t140.5 6 t202.5 -37q8 -4 35.5 -12.5t48.5 -21.5q150 -104 227 -206t124 -292q16 -56 16 -95zM1362 711q0 89 -40 223.5t-103 177.5l-89 59q-57 33 -106 35t-54 2h-79q-41 0 -121 -22t-127 -53q-63 -45 -84 -70q-12 -20 -20 -29q-93 -93 -97 -344q0 -90 33 -200t116 -172t167 -82 t121 -21q38 0 180 16q94 14 143 78l21 23q41 31 112 219q27 71 27 160zM1068 606q30 0 30 -81q0 -3 -6 -44t-59.5 -65.5t-98.5 -24.5q-111 0 -174 41q-18 10 -43 20.5t-36 21.5t-32 46l-20 35q-35 86 -35 143q0 139 51 209t62 80t18 10q33 25 95.5 39.5t99.5 14.5 q37 1 90 -13t66.5 -28.5t13.5 -95.5t-29 -80q-8 0 -51 28.5t-72 28.5q-70 0 -117 -46t-47 -116q0 -31 10 -65t56.5 -66.5t89.5 -32.5t81.5 20.5t56.5 20.5zM896 -117q-36 0 -230 47q-12 4 -50 23.5t-48 19.5q-10 1 -30 13t-20 21t10 9t31 -4q92 -33 132 -41t56 -13t27 -5 q82 -18 184 -19h68q242 23 369 158l45 41q18 17 59 67t45 62t18 35t72 170q12 35 24.5 107.5t12.5 113.5v39q0 51 -22.5 153t-34.5 126t-18.5 38.5t-12.5 20.5l-2 4q0 8 8 12q14 -6 26 -19t64 -116q7 -21 7 -33l2 -4v-14q-2 -6 4 -13.5t6 -13.5l-4 -10q0 -2 9 -26t9 -74 l-2 -70l4 -67l-10 -74q0 -51 -12 -72t-12 -39t-4.5 -26.5t-18.5 -49.5q-13 -12 -23 -40t-26.5 -57t-29.5 -59t-65 -75q-8 -8 -22 -27.5t-25 -27.5q-156 -141 -303 -170q-60 -11 -129.5 -14t-85.5 -5t-52 -2zM1122 571q29 0 29 -53q0 -23 -4 -63q-6 -59 -81 -89t-171 -30 t-96 24q0 14 22 15l53 -7q52 -6 97 1.5t57 13.5q39 25 47 27t14.5 13t8.5 13q23 16 22 47v37l-6 39q0 12 8 12zM809 753q0 37 35.5 72t71.5 35t73 -18v-4q0 -4 -6 -10.5t-8 -6.5l-35 4q-49 0 -72.5 -25.5t-36.5 -74.5q-2 0 -5 -6t-7 -4l-8 -13q-2 14 -2 51zM1114 936 q0 50 10 49q10 0 16.5 -9.5t6.5 -17.5l-12 -131q0 -23 -13 -23t-20 15v6q12 61 12 111z" glyph-name="copyright" horiz-adv-x="1796" unicode=""/><glyph d="M768 743h-46q-47 0 -65 9.5t-18 27.5v19l-4 6q-105 -45 -121 -48t-68 -13.5t-115 -10.5t-116 53.5t-53 120.5l-8 82q0 18 16 55q35 84 192 144q38 12 94 12t104 -11t57 -11t14 2q-6 88 -137 88q-62 0 -124 -28t-83 -28t-31 25q-31 92 -31 111q0 37 97.5 68.5t150.5 31.5 l68 -4q117 0 190 -31q23 -7 69 -47t56 -65t16.5 -69t15.5 -82t9 -116l4 -188q0 -27 -2 -63t-31 -38q-43 -2 -100 -2zM358 958q0 -47 103 -47q49 0 106.5 15.5t57.5 50.5q0 26 -11.5 35.5t-22.5 15.5t-19 14t-21 9l-76 -4q-41 -2 -79 -27t-38 -62zM880 1356q6 0 13 -6 q39 -45 49 -156q2 -18 14.5 -71t12.5 -103t-2 -59l6 -35q0 -57 -4 -92t-5 -51.5t-2 -22.5t-3.5 -20.5t-14.5 -39t-24 -24.5l-111 -4q-90 0 -102 7q-13 7 -13 16t8 10q162 0 193 8q41 10 41 102l2 80l-8 131l4 51q0 76 -29 172l-31 99q0 8 6 8zM612 743q0 -25 -21 -37 t-104.5 -28t-111.5 -16q-168 0 -232 90q-29 42 -29 116t10.5 74t10.5 -43q4 -109 69 -158q66 -49 150 -49t258 56v-5zM242 1176q-27 0 -45.5 48t-18.5 79t6 30q18 0 29 -71q0 -8 23 -52q4 -6 19 -9t19 -7q-14 -18 -32 -18zM520 1011.5q0 -10.5 -10 -10.5q-84 -12 -84 -32 q0 -6 14.5 -10.5t14.5 -13.5t-21 -9q-43 0 -43 29t38.5 43t64.5 14t26 -10.5z" glyph-name="ordfeminine" horiz-adv-x="1054" unicode=""/><glyph d="M324 367q0 -5 94 6.5t131 19.5q18 0 37 -20q0 -14 -53.5 -21.5t-98.5 -7.5l-40 -1q-40 -1 -64 15q-6 2 -6 9zM506 434q0 -8 -9 -11t-33 -5t-42 -8t-88 -6q-71 0 -84 24q-2 4 -10 10t-34 46t-44 65q-121 143 -121 169t64.5 98.5t89.5 86.5l75 84q16 16 54 17l131 -5 q55 0 55 -12l-8 -20q-4 -19 -18 -29t-38 -38t-52.5 -63.5t-33.5 -41.5l-77 -86q29 -31 126 -149t97 -126zM530 905l-8 -20q-4 -19 -18 -29t-150 -170l-26 25q131 157 145 165t19 29l6 13q33 -4 32 -13zM807 367q0 -6 94 6t131 20q18 0 37 -20q0 -14 -53 -21.5t-98 -7.5 l-40 -1q-41 -1 -65 15q-6 2 -6 9zM989 434q0 -8 -9 -11t-32.5 -5t-41.5 -8t-89 -6t-84 24q-2 4 -9 10t-25 33t-54 78q-121 143 -121 169t64.5 98.5t89.5 86.5l76 84q16 16 53 17l131 -5q55 0 55 -12l-8 -20q-4 -19 -18 -29t-59.5 -63.5t-63.5 -79.5l-78 -86q29 -31 126 -149 t97 -126zM1014 905l-8 -20q-4 -19 -18 -29t-150 -170l-27 25q131 157 145 165t19 29l6 13q33 -4 33 -13z" glyph-name="guillemotleft" horiz-adv-x="1165" unicode=""/><glyph d="M1110 632q0 -48 -1 -58t-2 -31t-3 -28t-13 -19.5t-41 -20.5t-57 -8l-43 4h-102l-27 -2q-35 0 -45 22.5t-10 60.5t-4 48t-20 14t-126 4l-34 -4l-62 4l-112 5l-48 -2q-59 0 -92 -9h-12q-35 0 -66.5 14.5t-31.5 43.5l1 16l-3 119q0 35 37 45q10 2 33.5 11t39.5 11l86 5 l74 -5l49 2l248 -6l49 2h240q43 0 84 -34q10 -10 10 -66l-6 -55q0 -7 5 -21t5 -62zM1143 799q19 0 33 -49q-2 -4 -2 -13l4 -151q0 -96 -35 -145.5t-127 -49.5q-166 0 -166 31q0 12 3 12l155 -4q84 0 106.5 36t22.5 124l1 30v104q-1 75 5 75zM692 543l-102 6l-359 -8 q-33 0 -32 18q0 15 17 19t87 4l309 4q80 0 95 -2q29 0 28 -23q0 -18 -43 -18z" glyph-name="logicalnot" horiz-adv-x="1263" unicode=""/><glyph d="M746 791q82 0 83 -19q2 -14 2 -80t-5 -89q-5 -24 -46 -28q-125 -14 -162 -14l-83 6l-185 -6q-76 0 -125 6t-51 37v84l-1 40q-1 40 11 46t45 6h39q94 -2 245 4.5t233 6.5zM891 760q41 0 41 -166q0 -88 -37.5 -103t-92 -16.5t-79.5 -5.5q-16 4 -23 4l-63 -8l-82 10l-111 -4 l-137 -2q-86 0 -86 35q0 16 78 16l66 -6l163 10l54 -4l88 6l69 -4q10 0 17 2q102 8 114.5 23.5t12.5 120.5l-4 69q0 23 12 23z" glyph-name="uni00AD" horiz-adv-x="1009" unicode=""/><glyph d="M1622 759q0 -357 -262 -632q-26 -26 -70 -60t-116 -53q-198 -39 -263 -28q-2 0 -77 6q-72 10 -216 47q-80 23 -177 90.5t-140 121.5q-72 91 -99.5 250.5t-27.5 237.5t51 205q4 12 20 61t87 162q23 35 59 68q137 119 262 156q27 6 79 13t96 13t140.5 6t202.5 -37 q8 -4 36.5 -11.5t47.5 -22.5q150 -104 227 -206t124 -292q16 -56 16 -95zM1362 711q0 89 -40 223.5t-103 177.5l-89 59q-57 33 -106 35t-54 2h-79q-41 0 -121 -22t-127 -53q-63 -45 -84 -70q-12 -20 -20 -29q-93 -93 -97 -344q0 -90 33 -200t116 -172t167 -82t121 -21 q38 0 180 16q94 14 143 78l21 23q41 33 112 219q27 71 27 160zM780 1067q211 0 303 -94q45 -45 58 -150q-4 -12 -8.5 -37.5t-8.5 -33.5t-13 -24.5t-11 -21t-18.5 -29t-53.5 -42.5q8 -20 67.5 -102t59.5 -109q1 -16 -57 -16t-90 3t-56 35q-25 32 -67 99q-14 25 -76 24 q-12 0 -12 -16l4 -117q0 -27 -11.5 -33t-41.5 -6l-66 2q-25 2 -29 25q-4 70 -4 137l-6 152l-2 190v78l-2 55q0 31 141 31zM1622 1051q14 0 20 -19q8 -12 28 -64.5t24 -70.5q18 -123 18 -129l-10 -76l1 -8l1 -49q-10 -103 -26 -151t-32 -110t-31 -84q-15 -24 -43 -75t-46 -69 t-42 -48t-42 -44t-32 -30q-18 -21 -70 -48t-64 -31q-74 -39 -146 -39l-24 -4q-104 -6 -132 -6t-149 16q-33 6 -59 35q23 -4 70 -6t73 -9l27 -2q25 0 77.5 10t94.5 5q1 0 29 8q16 0 26 5t13 5l16 -2q6 0 43 14.5t45 22.5t39 18q6 8 25.5 20.5t25.5 22.5t92 91q6 6 48 66 t78 143t47 144t19 95t9 53l6 56q0 172 -41 276q-8 18 -20 59l-2 2v5q2 2 16 2zM1133 600q0 -8 43 -83t43 -91q0 -41 -32 -62.5t-77 -21.5l-55 14q-20 2 -37 25l74 -4q90 0 90 57q0 20 -51.5 98t-51.5 81t13 16q76 74 76 188t-74 174q-10 4 -11 10q0 10 11 11 q29 0 62.5 -51.5t37.5 -86.5l8 -71q0 -68 -34.5 -131.5t-34.5 -71.5zM944 825q0 12 -10 36t-32.5 35t-36 12t-52.5 1q-12 0 -12 -24l2 -107h2v-8q0 -8 -3.5 -26.5t19.5 -18.5q123 0 123 100zM804 334q-24 0 -71 8t-47 18t23 11h28q2 0 50.5 -2.5t48.5 41.5l-7 114q0 14 7 15 q29 0 28 -70l4 -63q0 -27 -20 -49.5t-44 -22.5zM867.5 856q-21.5 0 -21.5 -18v-8l2 -58q0 -16 -10 -16q-25 0 -22 33.5t3 35.5v41q0 20 19 21q49 0 49 -8l2 -7q0 -16 -21.5 -16z" glyph-name="registered" horiz-adv-x="1796" unicode=""/><glyph d="M401 1219h-10l-201 4l-67 -4q-72 0 -72 47q0 116 4 136t18.5 24t45.5 4l31 -1q30 -1 50 3t79 4l137 -4l76 2q10 0 53 -17l4 -51q0 -25 -4 -79t-41 -60q-66 -8 -103 -8z" glyph-name="macron" horiz-adv-x="600" unicode=""/><glyph d="M682 1156q0 -92 -64 -192q-64 -98 -204 -98h-8h-54q-49 0 -99 54.5t-80 122.5t-15 167q2 90 110 183q12 12 43 25.5t45 21.5t37 8l53 2q47 0 111.5 -38t84.5 -79t30 -63t10 -114zM715 1200q0 104 -97 209q-6 8 -21 16.5t-22 16.5q3 2 11 2t16 -4q106 -66 133 -180v-7 q13 -53 13 -102q0 -178 -76 -252q-53 -53 -97.5 -76.5t-109.5 -23.5q-154 0 -182 55h6q6 0 47 -10t61 -10l27 4l31 -4q66 0 126 42t95 103q12 20 39 125v96zM504 1171q0 33 -25.5 56.5t-56.5 23.5t-60.5 -29.5t-29.5 -58.5t21.5 -47t54.5 -18h28q31 0 49.5 20t18.5 53z" glyph-name="degree" horiz-adv-x="835" unicode=""/><glyph d="M520 1124h121q55 0 84 -2q37 0 40 -43t3 -145t4 -119q41 -8 136 -8t112 -2q43 -2 45 -45q2 -14 2 -102q0 -113 -13 -121.5t-104 -8.5l-153 4l-35 -2l-2 -34l8 -230q0 -45 -41 -47q-76 -6 -168 -6t-96 57q0 142 -4 228q0 25 -21 24l-86 -8q-74 -4 -108 -4q-78 0 -82 49 q-4 43 -4 119t2 90q2 33 37 33q115 4 175 4t75.5 10t15.5 68l-6 131q0 75 18.5 92.5t44.5 17.5zM158 -112q0 76 2 89q2 33 37 33l176 4q84 2 357 2t290 -2q43 -2 45 -45q2 -14 2 -102q0 -114 -13.5 -121.5t-103.5 -7.5l-598 -14q-74 -4 -108 -5q-78 0 -82 50q-4 43 -4 119z M209 -340q0 14 39 14h121l612 21h75.5t53.5 53q2 23 2 72l-2 137q0 14 10 14t19.5 -16t9.5 -29l10 -137q0 -113 -33 -131t-57 -18l-100 -9q-2 -2 -488 -2q-221 -10 -254 0q-18 8 -18 31zM860 407v-47l-2 -110l4 -33q0 -10 -5 -15t-7 -25.5t-25 -34.5t-44 -14q-21 1 -52 -4 t-45 -5l-61 4h-26q-26 0 -29 2t-16.5 6.5t-29.5 36.5l56 4l26 -4l55 6q6 0 30 -1t51.5 1.5t47 18t19.5 51.5l4 45q2 4 2 10l-4 68q0 2 -3 57t32 55l143 6h75.5t53.5 54q2 23 2 71l-2 138q0 14 10 14t19.5 -16.5t9.5 -28.5l10 -137q0 -113 -33 -131t-57 -19l-129 -8l-33 1 q-33 1 -40 -6t-7 -10zM862 946q0 -107 -22 -106q-31 0 -31 80v28q0 125 10 129l4 2q25 0 29 -32zM410 455v-4q0 -20 -6 -26.5t-78 -9.5t-99 5q-18 8 -18 31q0 14 39 14h121l20 2q21 0 21 -12z" glyph-name="plusminus" horiz-adv-x="1220" unicode=""/><glyph d="M499 1448q50 0 91 -6q80 -12 123 -88t43 -140t-27 -131q-45 -96 -123 -151l-14 -10l-66 -66q-29 -25 -37 -35q68 -6 134 -6l71 2q31 0 43.5 -9.5t15.5 -63.5t3 -93t-39 -39l-338 -10l-148 2q-29 0 -30 29q-2 12 -2 66t22 117t41 81q10 20 16 24q4 3 44 31t84 57t82 60.5 t42 71.5l7 41q0 25 -20.5 44t-36.5 19q-24 0 -35.5 -16.5t-24.5 -46.5q-20 -43 -70 -45h-12q-18 -6 -37 -7l-61 5q-63 0 -64 49q0 33 34 96t80 107.5t102 52.5t107 8zM796.5 788q18.5 0 18.5 -126q0 -43 -4 -64q-10 -41 -53 -49q-102 -12 -154 -12l-11 1l-87 -1l-189 -2 q-29 0 -37 3t-26 25q33 4 53 4l9 -1l69 3q27 2 159 2t201 13q41 6 41 80l-8 116q0 8 18.5 8zM815 1212q0 -211 -192 -352q-17 -12 -31 -12t-19 2q0 10 36 34t93 99q86 102 86 238q0 57 -22 100l-18 37q23 2 45 -39t22 -107zM504 1174q0 -12 -8 -13l-15 4q-2 0 -15 -23.5 t-39 -46t-60 -22.5l-109 -2q-16 0 -32.5 8t-18.5 23q151 0 181 10t55.5 53t33.5 43q27 1 27 -34z" glyph-name="uni00B2" horiz-adv-x="927" unicode=""/><glyph d="M774 870q0 -96 -56 -175t-145 -99q-57 -14 -141 -14t-161.5 41t-86.5 131l-10 94q0 45 12.5 53t57.5 8l73 -2l45 -4l23 2q14 0 20.5 -23.5t12.5 -54t20 -43.5q29 -18 41 -18t36 11t34 26.5t10 66.5t-42.5 64.5t-76.5 13.5t-57 -1t-45 2t-33.5 18t-11.5 53q0 86 43 86 q201 0 201 57q0 27 -21.5 48.5t-57.5 21.5t-55.5 -34t-40.5 -34l-81 6l-45 -1q-46 -1 -46 26q0 18 24 81t83 111t127 48l65 4q68 0 110 -12t49 -17.5t15.5 -13.5t12.5 -13.5t11 -17.5t16.5 -26t9.5 -25q49 -116 17 -168.5t-58 -87.5l30 -31q72 -62 72 -158zM772 1222 q0 53 -29 119l5 2q27 -10 41 -51t14 -89t-31 -132l-1 -5q-1 -5 27.5 -55t35.5 -70q8 -19 10 -59t4 -48t2 -22q0 -15 -15.5 -65.5t-27.5 -74.5q-76 -152 -252 -162l-55 -4q-86 0 -158 26q-8 0 -42 13.5t-34 29.5q0 6 4 7l47 -17q63 -23 159.5 -22.5t179.5 42.5t119 122 q36 81 36 145t-8 80q-16 48 -44 84t-28 42t20.5 58.5t20.5 105.5zM450 1208q18 0 17 -14q0 -8 -19 -15t-25.5 -33t-80.5 -26h-133q-14 0 -14 17q0 10 51 10l84 -2q20 0 53 4q8 0 28.5 29.5t38.5 29.5zM530 862q0 -30 -14 -48.5t-30 -18.5t-34 15t-18 28v2l4 -2 q33 -33 51.5 -7.5t18.5 36.5t-4 32q26 -7 26 -37z" glyph-name="uni00B3" horiz-adv-x="948" unicode=""/><glyph d="M51 1094q0 16 78 139t104 161t91 38q196 -1 196 -19t-241 -319q-18 -20 -48 -21l-53 -4q-127 0 -127 25z" glyph-name="acute" horiz-adv-x="571" unicode=""/><glyph d="M1126 -10h-84l-47 6h-43q-44 0 -66 5t-22 33t-2 50q-14 -6 -39.5 -19.5t-75 -32t-167.5 2.5q-10 -20 -11 -33l4 -41l-4 -80l6 -61q3 -46 3 -106t-41 -60l-111 8h-39l-80 -2q-88 0 -88 104l4 39q0 63 -11 81t-11 90t4 96t4 53l-10 117l6 39l2 83l-6 84l-6 46l6 436l-6 67 q0 27 36 64q6 6 78.5 11t130.5 5t70 -14q23 -18 22 -51l-8 -148l4 -78v-32q0 -33 2 -45l5 -60l8 -129l10 -94q0 -86 29.5 -121t101.5 -35t113 30t45 85t12 109t8 61l-4 195l-12 272q0 25 12 34t46 17t42 8l72 -10l102 -6l29 4q8 0 17.5 -9t11.5 -9q28 -15 28 -48l-4 -73 l4 -80l-12 -252l8 -188q0 -68 -6 -101v-20l6 -78l-8 -80q0 -57 -2 -86q0 -53 -66 -53zM908 -90q-3 0 -3 18q0 27 72 27l106 -6q135 0 150 96q8 63 8 195v317l-2 201l4 135l-4 72q0 6 2 10h4l29 -33l10 -61v-205l-2 -42l4 -302l-4 -117q0 -92 -6 -188q-6 -121 -152 -121 l-180 4h-36zM685 348q42 0 42 -14q0 -29 -29 -29q-88 0 -96 63.5t-14 99.5t-10 116l-15 426q0 27 25 26q27 0 26 -92l-4 -131l4 -57l9 -166l-2 -23l10 -67l-2 -31l14 -51q0 -70 42 -70zM655 -295q0 -23 -8 -63q-12 -70 -135 -70l-47 4l-23 -2l-86 8q-49 0 -59 23q0 2 -2 6 q0 16 67 16l68 -4h19l102 -4q66 0 65 100l-8 172v46q0 53 25 53q14 0 16 -10q6 -66 6 -125l-2 -39l1 -11l1 -75v-25z" glyph-name="uni00B5" horiz-adv-x="1400" unicode=""/><glyph d="M1362 -201q0 -43 -31 -71q-8 -4 -10 -9q-18 -31 -98 -30l-60 4l-71 -4q-39 0 -68 35q-12 20 -12 69l10 78l-4 152v53l-4 80l2 51l-2 11v71l-6 88q-2 61 -2 186l4 137l-4 195l4 76q0 74 -6 143q-2 20 -23 23l-35 6q-26 0 -26 -135l2 -37v-7l2 -55l-2 -59v-35l-2 -21 l2 -157l-2 -13v-96l6 -184l-13 -367l9 -100l-2 -27l6 -104q0 -23 -19.5 -39t-42.5 -16l-82 4l-88 -10q-90 0 -90 94l4 151l-8 267l2 73q4 102 4 156v92q0 14 -14 21q-45 21 -97 47t-86.5 42.5t-54.5 27.5t-75.5 72t-110.5 171q-14 27 -14 62l2 32l-2 39q0 98 60 200.5 t144 137.5t164 46t82 11q186 0 279 5l112 6l9 -1l65 1l141 -6l45 6q12 0 42 -22t42.5 -43t12.5 -75l2 -165l-2 -125l8 -271v-17v-120l2 -127l-6 -55l2 -27l-4 -41v-137l-4 -51l6 -105q6 -127 6 -258zM1456 -250q0 -82 -49 -119t-121 -37l-115 3q-16 -2 -43.5 12t-33.5 29 q16 6 46 6t52 4h4l9 -1l59 5l16 -2q8 0 16 4l29 6q33 4 54.5 44t21.5 75l6 110v334l-4 146l4 104l-1 23l5 155q0 4 -6 72q-4 68 -4 211l6 59l-8 162l4 82l-2 37q0 8 4 16l14 -12q25 -16 29 -51q6 -74 6 -146l-4 -139l8 -168l-2 -94l4 -135l-2 -58l1 -45l-3 -309l4 -39 q2 -12 2 -129l-4 -90q0 -16 2 -25q-4 -18 -4 -100zM561 504q0 -10 -22.5 -16.5t-37 -6.5t-44.5 15q-31 6 -82 28.5t-67 35.5q-16 12 -34 24t-51.5 54t-53.5 74q-19 33 -41 97t-22 86t5 59q10 -33 32.5 -94.5t28.5 -79.5t42 -59t44 -53q35 -50 99.5 -81.5t84.5 -42.5t101 -30 q18 0 18 -10zM696 -406q-14 0 -35.5 10.5t-21.5 21.5t16 12q177 -1 269 26l4 -2q-2 -37 -41 -55.5t-82 -18.5l-88 6h-21z" glyph-name="paragraph" horiz-adv-x="1556" unicode=""/><glyph d="M483 756q0 -14 -5 -24t-28.5 -64.5t-121.5 -55.5q-16 0 -54 13q-123 39 -122 170q0 76 88 131q16 10 42 10t37 -3t24 -8t24 -7q45 -14 80.5 -63.5t35.5 -98.5zM272 573v7q44 -11 107 -1q63 11 102 64t39 111t-35 116v2q72 -20 72 -130t-84 -171q-35 -27 -63 -26h-31 l-39 -4q-8 0 -38 13t-30 19z" glyph-name="periodcentered" horiz-adv-x="638" unicode=""/><glyph d="M111 -18q0 43 110 188q23 27 125 27q31 0 31 -19q0 -12 -20.5 -52t-22.5 -50q76 -31 111.5 -67.5t35.5 -90.5t-16 -92q-49 -137 -225 -137q-117 0 -174 55q-14 10 -14 24t36 99q14 25 30 25t51.5 -15.5t53.5 -15.5q41 0 41 37q0 12 -9 24t-22 12l-30 -4q-29 0 -60.5 14.5 t-31.5 37.5z" glyph-name="cedilla" horiz-adv-x="532" unicode=""/><glyph d="M301 692v164h2l-4 217q-2 16 -7 21.5t-22 5.5l-63 4q-27 2 -29 24q-4 14 -4 58t5 85q5 40 36 62q119 94 133 97q43 6 133 6q57 0 58 -105l-7 -278l13 -289l-4 -92l4 -35q0 -47 -25 -47l-92 6l-72 -2q-47 0 -49 29q-6 49 -6 69zM414 551q76 0 113 3q36 3 48 30 q10 16 11 65l-6 62l4 125l-9 208l3 175q0 137 4 165q22 -6 26 -32t4 -64l-4 -137l8 -297v-6l-2 -105l4 -129q0 -82 -48 -95t-70 -13l-27 4l-39 -4q-84 0 -98 41q2 4 78 4z" glyph-name="uni00B9" horiz-adv-x="718" unicode=""/><glyph d="M829 1108q0 -37 -16 -111q-35 -152 -127 -216t-192 -64q-141 0 -240.5 89t-99.5 228q0 203 102 295q37 37 57 53q70 57 207 58q63 0 125 -22.5t90 -69.5q6 -8 50 -64t44 -176zM901 1087q0 -123 -33 -198q0 -19 -4 -26t-16 -32.5t-25 -35.5q-30 -52 -76 -88 q-46 -35 -70 -40q-23 -5 -59 -20q-52 -22 -75 -19l-123 21q-33 2 -91.5 29t-58.5 53q0 4 5 4q5 1 32 -15t85 -29t112 -13q127 0 224 76.5t116 175.5t24 114q0 115 -47 240q-10 23 -38.5 60.5t-42.5 47.5t-15 16q0 7 13 7q13 1 41 -23t37 -42t14.5 -26.5t11.5 -18t10 -15.5 q49 -80 49 -203zM592 1094q0 74 -43 108q-31 27 -47 27q-47 0 -76 -42t-29 -94t21.5 -98.5t68.5 -46.5q105 1 105 146zM475 981q-27 0 -40 33t-13 61q0 94 57 113q4 -8 4 -13t-16 -36t-16 -51t20 -82l16 -25h-12z" glyph-name="ordmasculine" horiz-adv-x="983" unicode=""/><glyph d="M1133 732q0 -19 -121 -177l-72 -100q-16 -16 -18 -21q-12 -24 -80 -24t-90 7t-53 8.5t-31 12.5q0 20 221 279q-50 50 -116.5 132.5t-82.5 93.5t-20 30l-8 20q0 12 55 13l131 4q37 0 53 -17l76 -84q25 -14 90.5 -86t65.5 -91zM312 406q-158 0 -158 21q0 5 32 40t41 39 q6 10 26.5 32.5t28.5 34.5t49.5 63.5t46.5 56.5t8 10.5t5 7.5q-27 23 -63 75q-25 31 -75.5 81.5l-62.5 62.5t-40 53q20 14 223 14q10 0 35.5 -19.5t37.5 -33.5q115 -145 164 -215q11 -10 11 -22.5t-11 -22.5q-62 -86 -84 -112t-49.5 -64.5t-46.5 -56.5q-42 -45 -118 -45z M662 710q0 20 -103.5 145.5t-103.5 131.5q25 -4 49 -12q20 -23 97 -118t86 -111t9 -31q0 -14 -10 -36t-80 -115.5t-86 -109.5t-24 -28q-23 -39 -68 -72q-16 -14 -47 -14q-150 0 -186 12q-14 8 -15 21q0 6 29 6l86 -6q102 0 127 20q37 37 138.5 167t101.5 150zM1171 728 q0 19 -16 40q-135 158 -165 188t-38 45q45 -10 66 -26q10 -10 91 -102.5t89 -106.5t8 -36q0 -24 -73 -130t-95 -130t-36 -48q-14 -26 -44 -52t-52 -26t-105.5 7t-94.5 10t-12 18q0 10 35 10l137 -10q49 0 72 20q39 41 136 175.5t97 153.5z" glyph-name="guillemotright" horiz-adv-x="1165" unicode=""/><glyph d="M1534 1403q0 -18 -76 -131l-76 -115l-86 -147q-16 -29 -56 -89.5t-57 -90.5q-129 -227 -171 -289l-49 -80q-6 -8 -60 -84q-145 -223 -217 -348q-20 -37 -86 -37t-145 26q-21 6 -21 35t45 88q17 27 33 60t56 87t114 171q64 109 84 136q27 35 101 161t92 148q18 21 69 104 t79 126.5t38 61.5t52 99t67 111t79 30h25v2q9 0 74 -5.5t71 -7.5q21 -4 21 -22zM1712 416q66 0 80 -12t14 -58t-2 -78q-2 -30 -22 -36t-46 -10q-26 -3 -28 -21q-12 -86 -12 -135l4 -31q0 -45 -70 -45q-102 0 -112 22t-11 193q-122 19 -183 15.5t-88 1.5t-30 28q-6 49 -6 86 t10 57q66 131 90 167t71.5 116t75.5 115t83 38l112 5q25 0 33 -8.5t11 -32.5l8 -117l-4 -62q0 -90 6 -178q4 -20 16 -20zM303 692v164h2l-4 217q-2 16 -7 21.5t-22 5.5l-63 4q-27 2 -29 24q-4 14 -4 58t5 85q5 40 36 62q119 94 133 97q43 6 133 6q57 0 58 -105l-6 -278 l12 -289l-4 -92l4 -35q0 -47 -25 -47l-92 6l-72 -2q-47 0 -49 29q-6 49 -6 69zM640 -45q46 0 71 35q88 118 179 270t218 359q128 207 156 256t75 122t61 99t33 45t23 27t46 100.5t69 103.5q14 0 14 -26q1 -26 -27 -71q-28 -44 -42.5 -77t-24.5 -49q-95 -141 -105 -153 t-21 -35t-27 -45t-55.5 -91t-53.5 -91t-67.5 -102.5t-123.5 -206.5q-70 -125 -86 -145t-26.5 -38t-22.5 -38q-13 -20 -45 -79t-66 -106.5t-47 -59.5q-33 -39 -67 -39l-31 -8q-100 0 -194 39q-16 6 -17 20q0 19 79 1.5t125 -17.5zM416 551q76 0 113 3q36 3 49 30q10 16 10 65 l-6 62l4 125l-8 208l2 175q0 137 4 165q22 -6 26 -32t4 -64l-4 -137l8 -297v-6l-2 -105l5 -129q-1 -82 -49 -95t-70 -13l-27 4l-39 -4q-84 0 -98 41q2 4 78 4zM1843 385q29 0 29 -50q0 -49 -6 -73t-6 -31q-2 -37 -45 -54t-43 -27q-2 -20 -2 -83t-13 -106q-6 -18 -30.5 -28.5 t-47.5 -10.5l-67 -2l-31 2q-31 2 -41 9.5t-10 16.5t8 9q130 0 150 5t34.5 21t14.5 148q4 33 6 50t14 18l39 6q41 8 41 108l-4 52q0 20 10 20zM1757 456q0 -10 -17 -10t-18 31v6l4 56l-4 41l-4 82q0 80 -4 120v6q0 29 12 29t15 -8q10 -23 10 -197l4 -82l-2 -30q-2 -6 1 -20.5 t3 -23.5zM1518 412q0 119 -9 139q-53 -59 -94 -143l4 -5q10 0 40 -4t44.5 -3.5t14.5 16.5zM1485 168q0 -8 -7.5 -15.5t-15.5 -7.5l-97 5q-97 6 -114 10l-2 2l-12 35l78 -9l125 -4q45 0 45 -16zM1466 414q-16 0 -16 10t17.5 39t23.5 26h4v-2l-20 -53l6 -14q1 -6 -15 -6z" glyph-name="onequarter" horiz-adv-x="1957" unicode=""/><glyph d="M1534 1403q0 -18 -76 -131l-76 -115l-86 -147q-16 -29 -56 -89.5t-57 -90.5q-129 -227 -171 -289l-49 -80q-6 -8 -60 -84q-145 -223 -217 -348q-20 -37 -86 -37t-145 26q-21 6 -21 35t45 88q17 27 33 60t56 87t114 171q64 109 84 136q27 35 101 161t92 148q18 21 69 104 t79 126.5t38 61.5t52 99t67 111t79 30h25v2q9 0 74 -5.5t71 -7.5q21 -4 21 -22zM1662 858q56 0 83 -4q80 -12 123 -89t43 -141t-27 -130q-45 -96 -137 -162l-66 -64q-4 -4 -17 -15.5t-19 -21.5q45 -4 133 -4h71q31 0 46.5 -11t15.5 -155q0 -37 -39 -36l-338 -13l-148 2 q-29 0 -30 31q-2 10 -2 65t22 117t33 73q10 11 19 24.5t49 39.5q40 25 82 53.5t81 62.5t46 73l6 39q0 25 -20.5 44t-45 19t-51.5 -63q-23 -43 -70 -43h-1l-48 -8l-61 6q-63 0 -64 47q0 27 45 117q23 43 69 87t85 50q76 10 132 10zM303 692v164h2l-4 217q-2 16 -7 21.5 t-22 5.5l-63 4q-27 2 -29 24q-4 14 -4 58t5 85q5 40 36 62q119 94 133 97q43 6 133 6q57 0 58 -105l-6 -278l12 -289l-4 -92l4 -35q0 -47 -25 -47l-92 6l-72 -2q-47 0 -49 29q-6 49 -6 69zM640 -45q46 0 71 35q88 118 179 270t218 359q128 207 156 256t75 122t61 99t33 45 t23 27t46 100.5t69 103.5q14 0 14 -26q1 -26 -27 -71q-28 -44 -42.5 -77t-24.5 -49q-95 -141 -105 -153t-21 -35t-27 -45t-55.5 -91t-53.5 -91t-67.5 -102.5t-123.5 -206.5q-70 -125 -86 -145t-26.5 -38t-22.5 -38q-13 -20 -45 -79t-66 -106.5t-47 -59.5q-33 -39 -67 -39 l-31 -8q-100 0 -194 39q-16 6 -17 20q0 19 79 1.5t125 -17.5zM416 551q76 0 113 3q36 3 49 30q10 16 10 65l-6 62l4 125l-8 208l2 175q0 137 4 165q22 -6 26 -32t4 -64l-4 -137l8 -297v-6l-2 -105l5 -129q-1 -82 -49 -95t-70 -13l-27 4l-39 -4q-84 0 -98 41q2 4 78 4z M1970 90q0 -60 -5 -84q-5 -23 -16.5 -33t-35.5 -14q-102 -12 -154 -12l-11 1l-87 -1l-188 -2q-29 0 -37.5 4t-26.5 24q49 6 53 7l9 -1l69 1q27 2 159 2t202 12q41 8 41 82l-9 114q-1 8 11 8t16 -10q10 -38 10 -98zM1970 623q0 -209 -192 -353q-20 -12 -32.5 -12t-16.5 4 q0 8 14 19q55 35 115 112q86 102 86 238q0 66 -20.5 97t-20.5 40q23 2 45 -38.5t22 -106.5zM1659 586q0 -14 -8 -15l-15 4q-2 0 -15 -22.5t-39 -45t-60 -22.5l-109 -4q-16 0 -32.5 8.5t-18.5 22.5q150 0 180 10t56 53t34 43q27 1 27 -32z" glyph-name="onehalf" horiz-adv-x="2084" unicode=""/><glyph d="M1673 1405q0 -16 -78 -133q-12 -23 -39.5 -64.5t-37.5 -57.5t-24.5 -40.5t-31 -54t-29.5 -51.5t-53.5 -83t-57.5 -91q-135 -238 -171 -289l-49 -80q-53 -76 -60 -84q-92 -141 -157 -252q-33 -51 -57 -92t-90 -41t-146 26q-18 6 -18 35t44 88q18 27 34 60t70 111 q56 78 118 180t75 118q12 16 93 149.5t104 162.5q23 30 96 155q77 119 122.5 209t71.5 120t81 30h24v2q6 0 42 -3t67 -5.5t37 -4.5q20 -4 20 -20zM774 870q0 -96 -56 -175t-145 -99q-57 -14 -141 -14t-161.5 41t-86.5 131l-10 94q0 45 12.5 53t57.5 8l73 -2l45 -4l23 2 q14 0 20.5 -23.5t12.5 -54t20 -43.5q29 -18 41 -18t36 11t34 26.5t10 66.5t-42.5 64.5t-76.5 13.5t-57 -1t-45 2t-33.5 18t-11.5 53q0 86 43 86q201 0 201 57q0 27 -21.5 48.5t-57.5 21.5t-55.5 -34t-40.5 -34l-81 6l-45 -1q-46 -1 -46 26q0 18 24 81t83 111t127 48l65 4 q68 0 110 -12t49 -17.5t15.5 -13.5t12.5 -13.5t11 -17.5t16.5 -26t9.5 -25q49 -116 17 -168.5t-58 -87.5l30 -31q72 -62 72 -158zM1849 416q66 0 80.5 -12t14.5 -58t-2 -78q-2 -30 -29 -39q-17 -4 -41 -7t-27 -21q-12 -86 -12 -135l2 -31q0 -45 -68 -45q-102 0 -112 20.5 t-10 194.5q-124 19 -184 15.5t-89 1.5t-31 28q-4 66 -4 94t11 49q66 131 89 167t71 116t75 115t82 38l115 5q23 0 32 -8.5t11 -32.5l8 -117l-4 -62q0 -90 6 -178q0 -20 16 -20zM778 -45q45 0 72 35q88 118 179 270t195 322t156 256q51 86 98.5 159t60.5 99t31.5 45t23.5 29 q13 25 53.5 109t62.5 93q14 0 14 -20t-6 -31l-41 -76q-8 -14 -22.5 -47.5t-66.5 -109.5t-60 -88t-41 -70q-23 -33 -62 -100.5t-53 -89.5t-69 -105.5t-125 -209.5q-70 -125 -88 -145t-26.5 -40t-20.5 -38t-62 -108t-96 -135q-33 -39 -68 -39l-31 -8q-96 0 -196 39 q-14 6 -15 20q0 19 79 1.5t124 -17.5zM772 1222q0 53 -29 119l5 2q27 -10 41 -51t14 -89t-31 -132l-1 -5q-1 -5 27.5 -55t35.5 -70q8 -19 10 -59t4 -48t2 -22q0 -15 -15.5 -65.5t-27.5 -74.5q-76 -152 -252 -162l-55 -4q-86 0 -158 26q-8 0 -42 13.5t-34 29.5q0 6 4 7 l47 -17q63 -23 159.5 -22.5t179.5 42.5t119 122q36 81 36 145t-8 80q-16 48 -44 84t-28 42t20.5 58.5t20.5 105.5zM1980 385q29 0 29 -51t-10 -88l-2 -15q-2 -37 -46 -54t-44 -19l-2 -68q-1 -94 -9 -120q-15 -47 -79 -48l-68 -2l-51 4q-10 0 -20.5 7.5t-10.5 16.5t8 9 q129 0 150 5q39 9 44 52t5 117l4 49q0 18 16 19l37 6q43 8 43 108l-4 52q0 20 10 20zM1860 450v33l2 56l-2 41l-5 82q0 80 -4 120v6q1 29 13 29t14 -8q10 -23 10 -197l2 -82q0 -20 -2 -30l6 -41q0 -13 -17 -13t-17 4zM1655 412q0 113 -8 139q-53 -59 -95 -143l4 -5l82 -8 q17 1 17 17zM1622 168q0 -8 -8 -15.5t-17 -7.5l-97 5q-97 6 -114 10v2l-12 35l76 -9l127 -4q45 0 45 -16zM450 1208q18 0 17 -14q0 -8 -19 -15t-25.5 -33t-80.5 -26h-133q-14 0 -14 17q0 10 51 10l84 -2q20 0 53 4q8 0 28.5 29.5t38.5 29.5zM530 862q0 -30 -14 -48.5 t-30 -18.5t-34 15t-18 28v2l4 -2q33 -33 51.5 -7.5t18.5 36.5t-4 32q26 -7 26 -37zM1600 414q-16 0 -15 10q0 10 18.5 39t24.5 26h2v-2q2 -10 -8 -27.5t-10 -25.5l4 -14q0 -6 -16 -6z" glyph-name="threequarters" horiz-adv-x="2095" unicode=""/><glyph d="M979 1284q10 0 26.5 -30.5t16.5 -63.5q0 -78 -55.5 -129t-118.5 -51t-92 21.5t-29 26.5t6 5l25 -6q25 -6 41 -6q72 0 127 51t55 129l-6 41q0 8 2 12h2zM454 0q10 0 76 -22t134 -23q68 0 143.5 10t103.5 27q123 70 197 179.5t74 244.5l-2 2q12 -4 27.5 -17.5t15.5 -25.5 q0 -135 -74 -245t-197 -179q-29 -16 -104.5 -26.5t-139.5 -10.5t-145.5 19.5t-118.5 58.5q0 8 10 8zM1141 448q1 -12 -15 -104t-89.5 -176t-166.5 -135q-27 -16 -103.5 -26.5t-144.5 -10.5t-188 39q-44 13 -60 29t-44 28t-58 45t-43 46t-27 35t-28 103t-14 145t53 140 q105 150 319 201q18 4 34 20.5t16 34.5l-2 49q0 45 45 52q127 10 151 10l76 -4q80 0 80 -109q0 -39 -17.5 -109.5t-37.5 -93.5q-70 -72 -144 -92t-117 -43q-34 -14 -56 -20t-45 -32t-23 -68t35.5 -65.5t86.5 -23.5h43q25 4 57 22t40 25q37 51 43 103q8 47 63 47l98 -2l72 2 q86 0 109 -47v-2q2 -2 2 -13zM592 1279q0 56 44 105.5t103 49.5h35q63 -2 114.5 -49.5t51.5 -112.5q0 -29 -19.5 -77t-41.5 -62q-63 -41 -117 -41t-96 29.5t-58 65.5t-16 92zM973 819q0 39 -8 64q49 -16 49 -105q0 -37 -18.5 -100.5t-41.5 -85.5q-62 -68 -130 -86t-102 -36 t-47 -25t-23 -10t-48 -40q-27 -22 -47 -14q-23 58 59 84q8 2 41 16q43 23 117 43t144 92q20 23 37.5 93.5t17.5 109.5z" glyph-name="questiondown" unicode=""/><glyph d="M1190 31q0 -17 -17.5 -29t-39.5 -12l-74 6h-127l-33 -2q-61 0 -70 26l-26 91q0 5 -15 55q0 22 -3 22h-9l-78 2l-108 -2h-90q-14 0 -21 -3t-26 -132q-10 -51 -60 -53h-16l-105 2l-100 -4q-61 0 -61 39q0 22 26 100q6 25 18.5 81t28.5 106t17 61q19 52 36 118q17 67 67 219 t58 198t36 135q28 88 64 207.5t57 144.5t108 25v4q84 0 111 -20t38 -52q114 -344 115.5 -366.5t1.5 -26.5l22 -64q19 -53 25 -77t15.5 -54.5t14.5 -47.5t12 -54t13 -56l43 -139q59 -189 105.5 -310t46.5 -138zM1164.5 -49.5q62.5 -0.5 62.5 49.5q0 28 -19.5 108t-43.5 130 t-48 138q-24 90 -46 162t-28 102t-17 67.5t-19 73.5t-41 131.5t-40 119.5t-21.5 71t-18.5 63t-10.5 26t-22.5 52t-16 67q0 16 23 16q24 0 66 -145.5t46 -159.5t15.5 -60.5t17.5 -63.5t15 -32.5t13 -33.5t20.5 -71t29.5 -101t14 -50l12 -24q6 -16 12.5 -48.5t31.5 -104.5 q25 -73 42.5 -135t23.5 -80t41 -118t35 -132t-16 -55t-84 -24h-20l-33 -4l-56 6l-84 -4q-49 -1 -71 21t-23 31q0 10 41 10l111 -6q11 0 27 4t78.5 3.5zM729 141v-8q0 -20 -49 -20t-111 -4q-23 -1 -28 -41q-4 -40 -29 -119q-18 -53 -88 -53l-184 -7q-63 0 -101 60v2l-2 4 q0 4 6 4l56 -2l45 2l22 -1l142 -1h14q52 -4 57 76q12 102 24.5 110.5t20.5 8.5h111l47 4q47 -1 47 -15zM733 446q-4 20 -20.5 54.5t-21.5 50.5t-29.5 82.5t-28.5 73.5q-29 -86 -82 -258q8 -2 57 -3h125zM631 492q45 0 45 -27l-43 -2q-37 0 -40 8.5t-3 22.5t26 94q4 8 12 8 t8 -4l-11 -92q0 -8 6 -8zM238 1853q0 20 196 21q68 0 90 -33q23 -23 103 -160t80 -145q0 -25 -127 -25l-54 5q-31 0 -45 20q-33 37 -138 172t-105 145z" glyph-name="Agrave" horiz-adv-x="1304" unicode=""/><glyph d="M1190 31q0 -17 -17.5 -29t-39.5 -12l-74 6h-127l-33 -2q-61 0 -70 26l-26 91q0 5 -15 55q0 22 -3 22h-9l-78 2l-108 -2h-90q-14 0 -21 -3t-26 -132q-10 -51 -60 -53h-16l-105 2l-100 -4q-61 0 -61 39q0 22 26 100q6 25 18.5 81t28.5 106t17 61q19 52 36 118q17 67 67 219 t58 198t36 135q28 88 64 207.5t57 144.5t108 25v4q84 0 111 -20t38 -52q114 -344 115.5 -366.5t1.5 -26.5l22 -64q19 -53 25 -77t15.5 -54.5t14.5 -47.5t12 -54t13 -56l43 -139q59 -189 105.5 -310t46.5 -138zM1164.5 -49.5q62.5 -0.5 62.5 49.5q0 28 -19.5 108t-43.5 130 t-48 138q-24 90 -46 162t-28 102t-17 67.5t-19 73.5t-41 131.5t-40 119.5t-21.5 71t-18.5 63t-10.5 26t-22.5 52t-16 67q0 16 23 16q24 0 66 -145.5t46 -159.5t15.5 -60.5t17.5 -63.5t15 -32.5t13 -33.5t20.5 -71t29.5 -101t14 -50l12 -24q6 -16 12.5 -48.5t31.5 -104.5 q25 -73 42.5 -135t23.5 -80t41 -118t35 -132t-16 -55t-84 -24h-20l-33 -4l-56 6l-84 -4q-49 -1 -71 21t-23 31q0 10 41 10l111 -6q11 0 27 4t78.5 3.5zM729 141v-8q0 -20 -49 -20t-111 -4q-23 -1 -28 -41q-4 -40 -29 -119q-18 -53 -88 -53l-184 -7q-63 0 -101 60v2l-2 4 q0 4 6 4l56 -2l45 2l22 -1l142 -1h14q52 -4 57 76q12 102 24.5 110.5t20.5 8.5h111l47 4q47 -1 47 -15zM733 446q-4 20 -20.5 54.5t-21.5 50.5t-29.5 82.5t-28.5 73.5q-29 -86 -82 -258q8 -2 57 -3h125zM631 492q45 0 45 -27l-43 -2q-37 0 -40 8.5t-3 22.5t26 94q4 8 12 8 t8 -4l-11 -92q0 -8 6 -8zM678 1516q-127 0 -127 23t184 306q23 33 88 33q197 0 197 -20q0 -10 -102.5 -141.5t-139.5 -176.5q-18 -20 -47 -20z" glyph-name="Aacute" horiz-adv-x="1304" unicode=""/><glyph d="M1190 31q0 -17 -17.5 -29t-39.5 -12l-74 6h-127l-33 -2q-61 0 -70 26l-26 91q0 5 -15 55q0 22 -3 22h-9l-78 2l-108 -2h-90q-14 0 -21 -3t-26 -132q-10 -51 -60 -53h-16l-105 2l-100 -4q-61 0 -61 39q0 22 26 100q6 25 18.5 81t28.5 106t17 61q19 52 36 118q17 67 67 219 t58 198t36 135q28 88 64 207.5t57 144.5t108 25v4q84 0 111 -20t38 -52q114 -344 115.5 -366.5t1.5 -26.5l22 -64q19 -53 25 -77t15.5 -54.5t14.5 -47.5t12 -54t13 -56l43 -139q59 -189 105.5 -310t46.5 -138zM1164.5 -49.5q62.5 -0.5 62.5 49.5q0 28 -19.5 108t-43.5 130 t-48 138q-24 90 -46 162t-28 102t-17 67.5t-19 73.5t-41 131.5t-40 119.5t-21.5 71t-18.5 63t-10.5 26t-22.5 52t-16 67q0 16 23 16q24 0 66 -145.5t46 -159.5t15.5 -60.5t17.5 -63.5t15 -32.5t13 -33.5t20.5 -71t29.5 -101t14 -50l12 -24q6 -16 12.5 -48.5t31.5 -104.5 q25 -73 42.5 -135t23.5 -80t41 -118t35 -132t-16 -55t-84 -24h-20l-33 -4l-56 6l-84 -4q-49 -1 -71 21t-23 31q0 10 41 10l111 -6q11 0 27 4t78.5 3.5zM729 141v-8q0 -20 -49 -20t-111 -4q-23 -1 -28 -41q-4 -40 -29 -119q-18 -53 -88 -53l-184 -7q-63 0 -101 60v2l-2 4 q0 4 6 4l56 -2l45 2l22 -1l142 -1h14q52 -4 57 76q12 102 24.5 110.5t20.5 8.5h111l47 4q47 -1 47 -15zM733 446q-4 20 -20.5 54.5t-21.5 50.5t-29.5 82.5t-28.5 73.5q-29 -86 -82 -258q8 -2 57 -3h125zM631 492q45 0 45 -27l-43 -2q-37 0 -40 8.5t-3 22.5t26 94q4 8 12 8 t8 -4l-11 -92q0 -8 6 -8zM378 1501q-52 0 -52 30t85 150.5t87 124.5q36 49 116 49t116 -6t107.5 -96.5t125.5 -163.5q16 -20 16 -47q0 -35 -10 -35h-128q-81 0 -103 5t-36 26l-55 88q-18 -8 -55 -67.5t-78 -59.5l-53 2h-83z" glyph-name="Acircumflex" horiz-adv-x="1304" unicode=""/><glyph d="M1190 31q0 -17 -17.5 -29t-39.5 -12l-74 6h-127l-33 -2q-61 0 -70 26l-26 91q0 5 -15 55q0 22 -3 22h-9l-78 2l-108 -2h-90q-14 0 -21 -3t-26 -132q-10 -51 -60 -53h-16l-105 2l-100 -4q-61 0 -61 39q0 22 26 100q6 25 18.5 81t28.5 106t17 61q19 52 36 118q17 67 67 219 t58 198t36 135q28 88 64 207.5t57 144.5t108 25v4q84 0 111 -20t38 -52q114 -344 115.5 -366.5t1.5 -26.5l22 -64q19 -53 25 -77t15.5 -54.5t14.5 -47.5t12 -54t13 -56l43 -139q59 -189 105.5 -310t46.5 -138zM1164.5 -49.5q62.5 -0.5 62.5 49.5q0 28 -19.5 108t-43.5 130 t-48 138q-24 90 -46 162t-28 102t-17 67.5t-19 73.5t-41 131.5t-40 119.5t-21.5 71t-18.5 63t-10.5 26t-22.5 52t-16 67q0 16 23 16q24 0 66 -145.5t46 -159.5t15.5 -60.5t17.5 -63.5t15 -32.5t13 -33.5t20.5 -71t29.5 -101t14 -50l12 -24q6 -16 12.5 -48.5t31.5 -104.5 q25 -73 42.5 -135t23.5 -80t41 -118t35 -132t-16 -55t-84 -24h-20l-33 -4l-56 6l-84 -4q-49 -1 -71 21t-23 31q0 10 41 10l111 -6q11 0 27 4t78.5 3.5zM729 141v-8q0 -20 -49 -20t-111 -4q-23 -1 -28 -41q-4 -40 -29 -119q-18 -53 -88 -53l-184 -7q-63 0 -101 60v2l-2 4 q0 4 6 4l56 -2l45 2l22 -1l142 -1h14q52 -4 57 76q12 102 24.5 110.5t20.5 8.5h111l47 4q47 -1 47 -15zM733 446q-4 20 -20.5 54.5t-21.5 50.5t-29.5 82.5t-28.5 73.5q-29 -86 -82 -258q8 -2 57 -3h125zM631 492q45 0 45 -27l-43 -2q-37 0 -40 8.5t-3 22.5t26 94q4 8 12 8 t8 -4l-11 -92q0 -8 6 -8zM1012 1815v-9q-2 -12 -13.5 -90t-69 -148.5t-138.5 -70.5q-14 0 -64 13t-77 31t-64 67l-23 30q-12 12 -22 13q-33 0 -52 -127q-6 -16 -18 -17q-92 0 -158 15q-18 4 -18 67q0 109 62.5 192t168.5 83q55 0 108.5 -45t87.5 -89t41 -44t17 10 q25 33 29 123q0 29 27 30q133 23 154.5 4.5t21.5 -38.5z" glyph-name="Atilde" horiz-adv-x="1304" unicode=""/><glyph d="M1190 31q0 -17 -17.5 -29t-39.5 -12l-74 6h-127l-33 -2q-61 0 -70 26l-26 91q0 5 -15 55q0 22 -3 22h-9l-78 2l-108 -2h-90q-14 0 -21 -3t-26 -132q-10 -51 -60 -53h-16l-105 2l-100 -4q-61 0 -61 39q0 22 26 100q6 25 18.5 81t28.5 106t17 61q19 52 36 118q17 67 67 219 t58 198t36 135q28 88 64 207.5t57 144.5t108 25v4q84 0 111 -20t38 -52q114 -344 115.5 -366.5t1.5 -26.5l22 -64q19 -53 25 -77t15.5 -54.5t14.5 -47.5t12 -54t13 -56l43 -139q59 -189 105.5 -310t46.5 -138zM1164.5 -49.5q62.5 -0.5 62.5 49.5q0 28 -19.5 108t-43.5 130 t-48 138q-24 90 -46 162t-28 102t-17 67.5t-19 73.5t-41 131.5t-40 119.5t-21.5 71t-18.5 63t-10.5 26t-22.5 52t-16 67q0 16 23 16q24 0 66 -145.5t46 -159.5t15.5 -60.5t17.5 -63.5t15 -32.5t13 -33.5t20.5 -71t29.5 -101t14 -50l12 -24q6 -16 12.5 -48.5t31.5 -104.5 q25 -73 42.5 -135t23.5 -80t41 -118t35 -132t-16 -55t-84 -24h-20l-33 -4l-56 6l-84 -4q-49 -1 -71 21t-23 31q0 10 41 10l111 -6q11 0 27 4t78.5 3.5zM729 141v-8q0 -20 -49 -20t-111 -4q-23 -1 -28 -41q-4 -40 -29 -119q-18 -53 -88 -53l-184 -7q-63 0 -101 60v2l-2 4 q0 4 6 4l56 -2l45 2l22 -1l142 -1h14q52 -4 57 76q12 102 24.5 110.5t20.5 8.5h111l47 4q47 -1 47 -15zM733 446q-4 20 -20.5 54.5t-21.5 50.5t-29.5 82.5t-28.5 73.5q-29 -86 -82 -258q8 -2 57 -3h125zM631 492q45 0 45 -27l-43 -2q-37 0 -40 8.5t-3 22.5t26 94q4 8 12 8 t8 -4l-11 -92q0 -8 6 -8zM1014 1639q0 -62 -39 -102t-102.5 -40t-105.5 40t-42 103.5t40 107.5t101.5 44t104.5 -45.5t43 -107.5zM590 1628q0 -66 -37 -104.5t-100 -38.5q-16 -1 -89 23t-73 114q0 59 45.5 111.5t107.5 52.5t104 -46t42 -112z" glyph-name="Adieresis" horiz-adv-x="1304" unicode=""/><glyph d="M1190 31q0 -17 -17.5 -29t-39.5 -12l-74 6h-127l-33 -2q-61 0 -70 26l-26 91q0 5 -15 55q0 22 -3 22h-9l-78 2l-108 -2h-90q-14 0 -21 -3t-26 -132q-10 -51 -60 -53h-16l-105 2l-100 -4q-61 0 -61 39q0 22 26 100q6 25 18.5 81t28.5 106t17 61q19 52 36 118q17 67 67 219 t58 198t36 135q28 88 64 207.5t57 144.5t108 25v4q84 0 111 -20t38 -52q114 -344 115.5 -366.5t1.5 -26.5l22 -64q19 -53 25 -77t15.5 -54.5t14.5 -47.5t12 -54t13 -56l43 -139q59 -189 105.5 -310t46.5 -138zM1164.5 -49.5q62.5 -0.5 62.5 49.5q0 28 -19.5 108t-43.5 130 t-48 138q-24 90 -46 162t-28 102t-17 67.5t-19 73.5t-41 131.5t-40 119.5t-21.5 71t-18.5 63t-10.5 26t-22.5 52t-16 67q0 16 23 16q24 0 66 -145.5t46 -159.5t15.5 -60.5t17.5 -63.5t15 -32.5t13 -33.5t20.5 -71t29.5 -101t14 -50l12 -24q6 -16 12.5 -48.5t31.5 -104.5 q25 -73 42.5 -135t23.5 -80t41 -118t35 -132t-16 -55t-84 -24h-20l-33 -4l-56 6l-84 -4q-49 -1 -71 21t-23 31q0 10 41 10l111 -6q11 0 27 4t78.5 3.5zM729 141v-8q0 -20 -49 -20t-111 -4q-23 -1 -28 -41q-4 -40 -29 -119q-18 -53 -88 -53l-184 -7q-63 0 -101 60v2l-2 4 q0 4 6 4l56 -2l45 2l22 -1l142 -1h14q52 -4 57 76q12 102 24.5 110.5t20.5 8.5h111l47 4q47 -1 47 -15zM733 446q-4 20 -20.5 54.5t-21.5 50.5t-29.5 82.5t-28.5 73.5q-29 -86 -82 -258q8 -2 57 -3h125zM631 492q45 0 45 -27l-43 -2q-37 0 -40 8.5t-3 22.5t26 94q4 8 12 8 t8 -4l-11 -92q0 -8 6 -8zM913 1774q0 -119 -77 -209q-12 -13 -70 -49t-115 -36q-56 0 -162 52q-10 4 -14 8q-84 70 -84 172t70.5 180t179.5 78q51 0 94 -15t55.5 -23.5t21.5 -14.5t20.5 -18.5t16.5 -17.5t18.5 -22.5t29.5 -37.5t16 -47zM727 1758q0 18 -20.5 38.5 t-51.5 20.5q-84 0 -84 -84q0 -33 20.5 -52.5t55.5 -19.5t49.5 10t22.5 39q8 30 8 48z" glyph-name="Aring" horiz-adv-x="1304" unicode=""/><glyph d="M1925 1114l-156 -2l-36 2q-20 0 -62 -4q-320 -6 -327 -13t-9 -30l-2 -61l6 -43h31q129 0 256 6l121 8l74 -6q25 -4 33 -12.5t8 -32.5v-224q0 -25 -27 -24l-84 2l-76 -2h-84l-17 -2l-130 -8l-66 2q-25 0 -28 -29q-4 -93 -4 -127t6 -96t12 -69t27 -7h4l27 -2l78 -4l206 -2 l88 8q124 0 140 -16t16 -84t-4 -138q-8 -25 -8 -44t-1.5 -31.5t-5.5 -19.5t-11 -9t-17.5 -4t-24.5 0t-35 0h-69l-312 8l-92 -6l-37 2l-213 -18q-68 0 -97.5 30.5t-27.5 97.5t-43 74q-20 2 -59 2l-148 -6q-123 0 -137 -2q-35 -4 -61 -61q-9 -20 -33 -49t-36.5 -50.5 t-68.5 -21.5q-57 0 -111 5t-140 5q-12 0 -28.5 9.5t-16.5 16.5t20.5 40.5t47 75.5t35.5 60t61.5 102.5t78.5 131.5l144 252q14 27 44.5 76t45.5 74l31 69q4 6 12 16.5t16 22.5t48.5 81t86.5 133q72 102 81.5 131.5t29.5 45.5q53 41 98 55.5t115 14.5l37 -4l86 12 q66 -4 96 -4l39 4h53q27 0 80 4h88l88 7h133q96 0 111 -52q2 -6 5.5 -25.5t10.5 -29.5l11 -68l2 -94q0 -49 -23 -49zM829 467l78 -2q33 0 90 4q9 49 9 72l-2 39l2 112q0 123 -11 170q-68 -100 -69 -102q-28 -18 -50 -64t-59 -90q-35 -47 -41 -69q-33 -49 -43 -60 q29 -12 49 -12zM1915 961q14 0 14 -15q12 -53 13 -82v-30q0 -4 2 -16t-3 -26t-5 -33t2 -59.5t-10 -71t-81 -30.5l-63 2l-28 -2l-187 -2l-119 -8q-14 0 -15 -21t-1 -65l2 -68q0 -33 -17 -33q-27 0 -29 27t-4 164q0 43 60 43l11 -1l77 1l68 8l219 -6q45 0 61 14.5t16 61.5 l3 139l2 59l-2 25q0 25 14 25zM918 121q0 -31 -54.5 -31h-87.5l-59 4l-58 -4q-20 0 -28 -15t-35 -51t-42 -61t-57 -43t-81 -18h-8l-50 8q-56 0 -104 6h-45l-23 8l-14 -2q-18 0 -39 35q8 6 13 6l100 -2l51 2l88 -6q123 0 164 84q8 14 28.5 38.5t26.5 38.5t31 17 q102 10 127 10l76 -8l61 6q6 0 12.5 -8t6.5 -14zM1917 -61q0 -29 -82 -29l-127 4l-137 -4l-107 6q-16 0 -56 -5t-114 -5t-102 2l-55 6q-12 0 -19 -2l-26 31q5 5 26 12q14 -2 43 -2l240 4q29 0 43 -2l35 4l45 2l32 -6l68 4h80l70 -4l100 2q43 0 43 -18zM1907 1056 q0 -15 -13 -18l-53 -6l-31 2q-14 0 -22 -2q-12 4 -23 4l-47 -4l-57 4l-64 -6h-36l-64 -8l-53 2h-33q-4 -37 -29 -37q-14 0 -14 38t16 38l66 6l29 -6q4 0 48 7t191 7l123 -8l57 2q9 0 9 -15zM956 735q8 0 7 -14q0 -14 -33 -76.5t-45 -76.5t-13 -33v-3q41 -12 46 -24 q-6 -6 -62 -6t-55 8q0 8 5 14t41 60.5t68.5 102.5t40.5 48z" glyph-name="AE" horiz-adv-x="2103" unicode=""/><glyph d="M1247 1016q-8 -25 -27 -25t-35 12l-122 91q-10 8 -76.5 23.5t-94.5 15.5q-28 1 -80 -13t-56 -16q-102 -41 -197 -189q-29 -49 -33 -129l-8 -96q0 -66 37 -168q2 -6 10 -15t12 -15t13.5 -27t15.5 -29q42 -47 86 -66t111 -42q57 -23 136 -23t165 47q8 6 44.5 36t56.5 30 q21 0 30 -2q27 -6 27 -125t-11 -187q-2 -37 -41 -55q-96 -53 -162 -55t-164 -2t-130 10t-83 23q-51 14 -128.5 60t-106.5 75l-49 47q-12 11 -24 31t-58 77q-85 117 -107 244t-22 139l4 39q0 49 6 88t33 115q69 210 180 292.5t126 95.5t38 23.5t51.5 20.5t42.5 17 q98 47 193 47l47 -2l66 2q87 0 105.5 -6.5t32 -11.5t21.5 -7q43 -8 107 -63q27 -25 26 -68l9 -104q0 -78 -17 -160zM1161 -354q0 -52 -14 -95q-51 -135 -227 -135q-119 0 -175 54q-14 14 -14 34t39 88q10 25 28 25t51.5 -15.5t53.5 -15.5q41 0 41 37q0 12 -9 24.5t-22 12.5 l-30 -4q-29 0 -60.5 14t-31.5 42t98 167q-295 39 -367 125q-2 2 -16 11.5t-27 27.5q5 2 17 2t28 -12t50 -24.5t54 -22.5t74 -18.5t66 -12.5l41 -6l82 -10l106 6l45 -6q29 0 60 13t70 21q39 7 63 25t30.5 27.5t10.5 13.5q33 31 33 82q6 74 6 76l-4 157q0 14 10 15 q31 0 35 -41v-47l4 -95q4 -96 -3 -134t-16.5 -52t-33.5 -29q-45 -45 -136 -69t-122 -25l-35 -74q76 -31 111.5 -68t35.5 -89zM875 1073q129 0 161 -39q6 -6 6 -8q0 -12 -10 -12l-22 2q-35 0 -46 8q-10 8 -24 8t-26 -5t-75 -16.5t-100 -62.5q-2 -4 -10 -12q-98 -86 -98 -291 q0 -18 11 -49t13 -47t21.5 -36.5t19.5 -36.5t-7 -15q-7 0 -20.5 10t-18.5 17t-20.5 21.5t-19.5 22.5q-31 70 -32 91l-9 63q0 106 35 195q12 29 62 86q80 106 209 106zM1302.5 969q-20.5 0 -20.5 22q0 14 14 45t13 149q0 118 8 118q31 0 31 -56v-37l2 -123q0 -27 -13.5 -72.5 t-34 -45.5z" glyph-name="Ccedilla" horiz-adv-x="1394" unicode=""/><glyph d="M287 -2q-66 0 -73 59.5t-11 63.5v8l4 334l-2 80l8 131l-10 112l4 97l-6 149l4 96l-3 18l-3 148l-2 47q0 33 25.5 62t58.5 29l81 -9l44 4q51 -1 67 5t25 6l90 2l53 -2l143 8l35 -4l203 -8l78 2q23 0 42 -17.5t19 -40.5q0 -133 -2 -196q-4 -37 -22 -52q-18 -6 -21 -6l-51 4 l-70 -4l-104 2q-123 0 -369 -8v-72q0 -72 21.5 -83t48.5 -11l98 11l66 -5l82 3l59 -3l41 5l76 -7q33 0 40.5 -6t27.5 -13q34 -12 34 -134l-2 -70q0 -37 -10 -54t-47 -22q-147 -12 -152 -12l-153 6q-145 0 -203 -10q-16 -2 -17 -33q-10 -117 -10 -211v-73q2 -16 17 -17 q45 -4 135 -4l86 2l96 -2l43 2q133 0 199 -4l35 -2q43 0 43 -68l-5 -75l7 -41q0 -80 -50 -101q-63 -23 -116 -22l-359 12l-88 -4l-116 6l-70 -8h-92zM1233 94q0 170 20 170q10 0 20.5 -12t13.5 -41t3 -133t-27.5 -142t-132.5 -47l-55 -8l-125 8l-90 -4l-164 4l-34 -1l-246 1 q-48 -1 -63 19t-15 26q0 14 31 15h514l47 -6l74 8l8 -2l59 -2q94 10 118.5 22.5t34 42t9.5 82.5zM1187.5 922q24.5 0 24.5 -127l-4 -105v-42q0 -42 -27.5 -69.5t-64.5 -27.5l-16 -2h-99l-45 -6l-112 6l-12 -1l-97 1l-26 -6q-36 -6 -56 -6t-20 -13l-10 -135l4 -24 q0 -17 -19 -17t-24.5 8.5t-5.5 34.5v137q0 25 6 45q2 17 26 21t142 4q117 0 157 -8l80 6l47 -2l41 4q56 0 74 38t18 45v103l-6 109q0 29 24.5 29zM608 979q-33 0 -33 41q1 41 15 44t215 3v2q317 0 373 18q32 11 36 49t5 152q4 42 4 60t10 18q27 0 27 -68l2 -118 q0 -35 -17 -101q-9 -33 -44.5 -40t-70.5 -14t-135 -7l-43 2l-61 -6l-51 6l-43 -2q-43 -2 -97 -2l-49 4q-20 0 -23 -20.5t-20 -20.5zM293 1864q0 20 196 20q68 0 91 -33q8 -8 95 -148.5t87 -156.5q0 -25 -127 -24l-53 4q-30 0 -54 28t-129.5 163.5t-105.5 146.5z" glyph-name="Egrave" horiz-adv-x="1331" unicode=""/><glyph d="M287 -2q-66 0 -73 59.5t-11 63.5v8l4 334l-2 80l8 131l-10 112l4 97l-6 149l4 96l-3 18l-3 148l-2 47q0 33 25.5 62t58.5 29l81 -9l44 4q51 -1 67 5t25 6l90 2l53 -2l143 8l35 -4l203 -8l78 2q23 0 42 -17.5t19 -40.5q0 -133 -2 -196q-4 -37 -22 -52q-18 -6 -21 -6l-51 4 l-70 -4l-104 2q-123 0 -369 -8v-72q0 -72 21.5 -83t48.5 -11l98 11l66 -5l82 3l59 -3l41 5l76 -7q33 0 40.5 -6t27.5 -13q34 -12 34 -134l-2 -70q0 -37 -10 -54t-47 -22q-147 -12 -152 -12l-153 6q-145 0 -203 -10q-16 -2 -17 -33q-10 -117 -10 -211v-73q2 -16 17 -17 q45 -4 135 -4l86 2l96 -2l43 2q133 0 199 -4l35 -2q43 0 43 -68l-5 -75l7 -41q0 -80 -50 -101q-63 -23 -116 -22l-359 12l-88 -4l-116 6l-70 -8h-92zM1233 94q0 170 20 170q10 0 20.5 -12t13.5 -41t3 -133t-27.5 -142t-132.5 -47l-55 -8l-125 8l-90 -4l-164 4l-34 -1l-246 1 q-48 -1 -63 19t-15 26q0 14 31 15h514l47 -6l74 8l8 -2l59 -2q94 10 118.5 22.5t34 42t9.5 82.5zM1187.5 922q24.5 0 24.5 -127l-4 -105v-42q0 -42 -27.5 -69.5t-64.5 -27.5l-16 -2h-99l-45 -6l-112 6l-12 -1l-97 1l-26 -6q-36 -6 -56 -6t-20 -13l-10 -135l4 -24 q0 -17 -19 -17t-24.5 8.5t-5.5 34.5v137q0 25 6 45q2 17 26 21t142 4q117 0 157 -8l80 6l47 -2l41 4q56 0 74 38t18 45v103l-6 109q0 29 24.5 29zM608 979q-33 0 -33 41q1 41 15 44t215 3v2q317 0 373 18q32 11 36 49t5 152q4 42 4 60t10 18q27 0 27 -68l2 -118 q0 -35 -17 -101q-9 -33 -44.5 -40t-70.5 -14t-135 -7l-43 2l-61 -6l-51 6l-43 -2q-43 -2 -97 -2l-49 4q-20 0 -23 -20.5t-20 -20.5zM768 1530q-127 0 -127 24t184 306q23 33 88 32q197 0 197 -20q0 -10 -102.5 -141.5t-139.5 -176.5q-18 -20 -47 -20z" glyph-name="Eacute" horiz-adv-x="1331" unicode=""/><glyph d="M287 -2q-66 0 -73 59.5t-11 63.5v8l4 334l-2 80l8 131l-10 112l4 97l-6 149l4 96l-3 18l-3 148l-2 47q0 33 25.5 62t58.5 29l81 -9l44 4q51 -1 67 5t25 6l90 2l53 -2l143 8l35 -4l203 -8l78 2q23 0 42 -17.5t19 -40.5q0 -133 -2 -196q-4 -37 -22 -52q-18 -6 -21 -6l-51 4 l-70 -4l-104 2q-123 0 -369 -8v-72q0 -72 21.5 -83t48.5 -11l98 11l66 -5l82 3l59 -3l41 5l76 -7q33 0 40.5 -6t27.5 -13q34 -12 34 -134l-2 -70q0 -37 -10 -54t-47 -22q-147 -12 -152 -12l-153 6q-145 0 -203 -10q-16 -2 -17 -33q-10 -117 -10 -211v-73q2 -16 17 -17 q45 -4 135 -4l86 2l96 -2l43 2q133 0 199 -4l35 -2q43 0 43 -68l-5 -75l7 -41q0 -80 -50 -101q-63 -23 -116 -22l-359 12l-88 -4l-116 6l-70 -8h-92zM1233 94q0 170 20 170q10 0 20.5 -12t13.5 -41t3 -133t-27.5 -142t-132.5 -47l-55 -8l-125 8l-90 -4l-164 4l-34 -1l-246 1 q-48 -1 -63 19t-15 26q0 14 31 15h514l47 -6l74 8l8 -2l59 -2q94 10 118.5 22.5t34 42t9.5 82.5zM1187.5 922q24.5 0 24.5 -127l-4 -105v-42q0 -42 -27.5 -69.5t-64.5 -27.5l-16 -2h-99l-45 -6l-112 6l-12 -1l-97 1l-26 -6q-36 -6 -56 -6t-20 -13l-10 -135l4 -24 q0 -17 -19 -17t-24.5 8.5t-5.5 34.5v137q0 25 6 45q2 17 26 21t142 4q117 0 157 -8l80 6l47 -2l41 4q56 0 74 38t18 45v103l-6 109q0 29 24.5 29zM608 979q-33 0 -33 41q1 41 15 44t215 3v2q317 0 373 18q32 11 36 49t5 152q4 42 4 60t10 18q27 0 27 -68l2 -118 q0 -35 -17 -101q-9 -33 -44.5 -40t-70.5 -14t-135 -7l-43 2l-61 -6l-51 6l-43 -2q-43 -2 -97 -2l-49 4q-20 0 -23 -20.5t-20 -20.5zM402 1518q-52 0 -52 32q0 24 85 146.5t87 126.5q35 49 116 49t117 -6t109.5 -99t106.5 -137t33 -71q0 -35 -10 -35h-128q-81 0 -103 5 t-36 25l-55 88q-18 -8 -55 -67t-78 -59l-54 2h-83z" glyph-name="Ecircumflex" horiz-adv-x="1331" unicode=""/><glyph d="M287 -2q-66 0 -73 59.5t-11 63.5v8l4 334l-2 80l8 131l-10 112l4 97l-6 149l4 96l-3 18l-3 148l-2 47q0 33 25.5 62t58.5 29l81 -9l44 4q51 -1 67 5t25 6l90 2l53 -2l143 8l35 -4l203 -8l78 2q23 0 42 -17.5t19 -40.5q0 -133 -2 -196q-4 -37 -22 -52q-18 -6 -21 -6l-51 4 l-70 -4l-104 2q-123 0 -369 -8v-72q0 -72 21.5 -83t48.5 -11l98 11l66 -5l82 3l59 -3l41 5l76 -7q33 0 40.5 -6t27.5 -13q34 -12 34 -134l-2 -70q0 -37 -10 -54t-47 -22q-147 -12 -152 -12l-153 6q-145 0 -203 -10q-16 -2 -17 -33q-10 -117 -10 -211v-73q2 -16 17 -17 q45 -4 135 -4l86 2l96 -2l43 2q133 0 199 -4l35 -2q43 0 43 -68l-5 -75l7 -41q0 -80 -50 -101q-63 -23 -116 -22l-359 12l-88 -4l-116 6l-70 -8h-92zM1233 94q0 170 20 170q10 0 20.5 -12t13.5 -41t3 -133t-27.5 -142t-132.5 -47l-55 -8l-125 8l-90 -4l-164 4l-34 -1l-246 1 q-48 -1 -63 19t-15 26q0 14 31 15h514l47 -6l74 8l8 -2l59 -2q94 10 118.5 22.5t34 42t9.5 82.5zM1187.5 922q24.5 0 24.5 -127l-4 -105v-42q0 -42 -27.5 -69.5t-64.5 -27.5l-16 -2h-99l-45 -6l-112 6l-12 -1l-97 1l-26 -6q-36 -6 -56 -6t-20 -13l-10 -135l4 -24 q0 -17 -19 -17t-24.5 8.5t-5.5 34.5v137q0 25 6 45q2 17 26 21t142 4q117 0 157 -8l80 6l47 -2l41 4q56 0 74 38t18 45v103l-6 109q0 29 24.5 29zM608 979q-33 0 -33 41q1 41 15 44t215 3v2q317 0 373 18q32 11 36 49t5 152q4 42 4 60t10 18q27 0 27 -68l2 -118 q0 -35 -17 -101q-9 -33 -44.5 -40t-70.5 -14t-135 -7l-43 2l-61 -6l-51 6l-43 -2q-43 -2 -97 -2l-49 4q-20 0 -23 -20.5t-20 -20.5zM1059 1666q0 -62 -39 -102t-102.5 -40t-105.5 40t-42 103.5t40 107.5t101.5 44t104.5 -45.5t43 -107.5zM635 1656q0 -66 -37 -105.5 t-100 -39.5q-16 0 -84 23q-78 25 -78 115q0 59 46 111t108 52t103.5 -45t41.5 -111z" glyph-name="Edieresis" horiz-adv-x="1331" unicode=""/><glyph d="M368 -2q-62 0 -124 16q-33 8 -36 39t-3 74l1 31l1 217l2 31l-4 151v68l-2 98l2 287l-4 174l2 37l-8 112q0 29 2 46t25.5 30.5t43.5 13.5h170q31 0 50.5 -10t33.5 -14q20 -7 22 -29t1 -88l2 -84l-2 -162v-141l8 -203q0 -16 -10 -119v-6q-2 -10 4 -28.5t6 -28.5l-8 -123 l3 -29l-5 -213l6 -51q0 -82 -60 -88q-57 -8 -119 -8zM538.5 -53q59.5 0 59.5 13l12 108v92l-4 348q0 88 6 129v8l-4 41l-6 485l-8 138q0 63 16.5 63t30.5 -22.5t14 -40.5l-6 -41l6 -68l-2 -78l9 -215l-5 -69l9 -121l-4 -160l2 -25l2 -163l6 -41l2 -135q0 -269 -64 -295 l-90 -17h-14l-113 8h-33q-70 16 -69 45q0 14 18 15l84 -4l62 2h83.5zM-12 1849q0 20 196 21q68 0 90 -33q23 -23 103 -160t80 -145q0 -25 -127 -25l-54 4q-31 0 -45 21q-33 37 -138 172t-105 145z" glyph-name="Igrave" horiz-adv-x="747" unicode=""/><glyph d="M368 -2q-62 0 -124 16q-33 8 -36 39t-3 74l1 31l1 217l2 31l-4 151v68l-2 98l2 287l-4 174l2 37l-8 112q0 29 2 46t25.5 30.5t43.5 13.5h170q31 0 50.5 -10t33.5 -14q20 -7 22 -29t1 -88l2 -84l-2 -162v-141l8 -203q0 -16 -10 -119v-6q-2 -10 4 -28.5t6 -28.5l-8 -123 l3 -29l-5 -213l6 -51q0 -82 -60 -88q-57 -8 -119 -8zM538.5 -53q59.5 0 59.5 13l12 108v92l-4 348q0 88 6 129v8l-4 41l-6 485l-8 138q0 63 16.5 63t30.5 -22.5t14 -40.5l-6 -41l6 -68l-2 -78l9 -215l-5 -69l9 -121l-4 -160l2 -25l2 -163l6 -41l2 -135q0 -269 -64 -295 l-90 -17h-14l-113 8h-33q-70 16 -69 45q0 14 18 15l84 -4l62 2h83.5zM287 1526q0 16 77.5 139t103.5 161t91 38q197 -1 197 -21q0 -10 -102.5 -141t-139.5 -176q-18 -20 -47 -21l-53 -4q-127 0 -127 25z" glyph-name="Iacute" horiz-adv-x="747" unicode=""/><glyph d="M368 -2q-62 0 -124 16q-33 8 -36 39t-3 74l1 31l1 217l2 31l-4 151v68l-2 98l2 287l-4 174l2 37l-8 112q0 29 2 46t25.5 30.5t43.5 13.5h170q31 0 50.5 -10t33.5 -14q20 -7 22 -29t1 -88l2 -84l-2 -162v-141l8 -203q0 -16 -10 -119v-6q-2 -10 4 -28.5t6 -28.5l-8 -123 l3 -29l-5 -213l6 -51q0 -82 -60 -88q-57 -8 -119 -8zM538.5 -53q59.5 0 59.5 13l12 108v92l-4 348q0 88 6 129v8l-4 41l-6 485l-8 138q0 63 16.5 63t30.5 -22.5t14 -40.5l-6 -41l6 -68l-2 -78l9 -215l-5 -69l9 -121l-4 -160l2 -25l2 -163l6 -41l2 -135q0 -269 -64 -295 l-90 -17h-14l-113 8h-33q-70 16 -69 45q0 14 18 15l84 -4l62 2h83.5zM99 1495q-52 0 -52 33q0 25 85 146.5t87 125.5q35 49 116 49t117 -6t109.5 -99t106.5 -137q32 -44 32 -71q0 -35 -10 -35h-127q-81 0 -103 5t-36 26l-55 88q-18 -8 -55.5 -67.5t-77.5 -59.5l-54 2h-83z " glyph-name="Icircumflex" horiz-adv-x="747" unicode=""/><glyph d="M368 -2q-62 0 -124 16q-33 8 -36 39t-3 74l1 31l1 217l2 31l-4 151v68l-2 98l2 287l-4 174l2 37l-8 112q0 29 2 46t25.5 30.5t43.5 13.5h170q31 0 50.5 -10t33.5 -14q20 -7 22 -29t1 -88l2 -84l-2 -162v-141l8 -203q0 -16 -10 -119v-6q-2 -10 4 -28.5t6 -28.5l-8 -123 l3 -29l-5 -213l6 -51q0 -82 -60 -88q-57 -8 -119 -8zM538.5 -53q59.5 0 59.5 13l12 108v92l-4 348q0 88 6 129v8l-4 41l-6 485l-8 138q0 63 16.5 63t30.5 -22.5t14 -40.5l-6 -41l6 -68l-2 -78l9 -215l-5 -69l9 -121l-4 -160l2 -25l2 -163l6 -41l2 -135q0 -269 -64 -295 l-90 -17h-14l-113 8h-33q-70 16 -69 45q0 14 18 15l84 -4l62 2h83.5zM735 1648q0 -62 -39 -102.5t-102.5 -40.5t-105.5 40t-42 103.5t40 107.5t101.5 44t104.5 -45t43 -107zM311 1636q0 -66 -36.5 -104.5t-100.5 -38.5q-16 0 -84 23q-78 25 -78 114q0 59 46 111.5t108 52.5 t103.5 -46t41.5 -112z" glyph-name="Idieresis" horiz-adv-x="747" unicode=""/><glyph d="M1319 592q1 -53 -49 -159t-121 -177l-66 -70q-19 -18 -71 -56t-91.5 -57.5t-105.5 -41.5q-65 -21 -83 -27t-69 -9t-67 -7t-35 -4l-170 6q-4 0 -28 -1t-53 4.5t-29 37.5l4 26q0 106 -4 312l-7 157l1 27q1 27 -23 27l-86 -2q-31 0 -42 12t-11 41l4 98l-4 49q0 48 69.5 45.5 t71.5 -2.5q6 18 6 37l-2 62l2 98q0 133 -6 170t-6 101q0 65 11 103t89 38l125 -7l41 2l145 -14l39 4q28 0 62 -12t116 -39t142 -72q59 -45 95 -73.5t78.5 -76.5t72.5 -114t61 -149q6 -17 6 -68l-2 -90l-10 -109v-20zM686 573q-39 0 -65 -6q-20 -2 -21 -26q0 -125 4 -187 q0 -23 19 -22q66 0 143 41l22 12q14 4 66 41q129 86 129 291q0 68 -6 90q-45 147 -103 197q-29 26 -99 64q-69 38 -123 38t-58 -12q-2 -4 -2 -11v-135q0 -74 6 -112h6l53 2q37 0 57.5 -16.5t24.5 -32t7.5 -55.5t5.5 -54l8 -49q0 -23 -17.5 -40.5t-56.5 -17.5zM1139 1289 q0 7 10 7q68 0 184 -198q47 -82 49 -93t12.5 -46t12.5 -49t11 -41.5t9 -110.5l-8 -123l-8 -74q-11 -123 -50.5 -186t-47.5 -83t-36 -57.5t-34 -48.5q-10 -6 -25.5 -25.5t-25.5 -27.5t-40 -36.5t-49 -40.5t-52 -32t-50 -29t-42 -19.5t-56 -22.5t-47 -19l-31 -6 q-195 -39 -284 -39l-90 -2h-51q-52 0 -85 33v4q0 14 41 15l88 -7q18 0 46 4t97 6.5t93 7.5t62 12t59.5 12.5t70 17.5t86.5 37q23 6 91 55l28 16l4 2l31 33q77 62 108 102q30 40 47 70.5t24 48t23 55t32 77.5t26 155q8 45 8 70l-2 47v61q-2 141 -143 355q-27 42 -61 74 t-35 39zM786 811q25 0 37.5 -82.5t12.5 -116.5t-9 -71q-6 -25 -48.5 -36t-68.5 -11t-26 -15l-2 -47l4 -29q0 -27 -31 -26q-18 0 -18 33v100q0 24 54 22t79 16.5t25 57.5l-19 197q0 8 10 8zM637 1059q41 0 121 -29.5t80 -60.5q0 -13 -8 -13t-68 29t-86 29q-10 0 -10 -62 t-27 -61q-16 0 -16 24l2 97l-1 24q-1 23 13 23zM168 498q-37 0 -37 28v4q4 8 107 9q10 -1 10 -20t-10 -19l-56 -2h-14z" glyph-name="Eth" horiz-adv-x="1507" unicode=""/><glyph d="M1212 1423q52 0 57 -2t12.5 -4t17.5 -13t10 -30l-6 -153l2 -70l-7 -90l5 -131l-9 -78l4 -53l-2 -348l7 -103l-3 -55l2 -143q2 -142 -44 -149q-20 -3 -136 -3q-114 0 -147 18q-57 35 -74 66q-47 82 -104 160t-79 120t-54 90q-43 64 -68 108t-55 69q-8 -16 -9 -64l5 -78 q0 -90 2 -135l6 -80q0 -66 -2 -100l-2 -31l2 -73q1 -20 -13 -41t-45 -21q-205 0 -243 12t-39 60l6 209q0 98 -4 291l-10 393l2 108q0 223 16 301q12 57 135 58l37 -6l25 4q29 0 55 -35q33 -49 90 -145.5t70 -116.5l69 -103l23 -37q8 -10 23.5 -31.5t33.5 -45.5t75.5 -117.5 t92.5 -142.5h6q8 51 8 157l-2 105l11 387l-4 65q0 28 10 36.5t15 13t18.5 6.5t18.5 3t9 1h31l49 2h2q46 -15 98 -15zM1138 -121q-16 0 -65 17q-14 6 -29 38v5q0 6 11 6q180 0 260 14q43 8 47 70q2 29 2 180v377l-6 129l4 82v15v40l-2 98v297l-4 113q0 12 20 12q4 0 6 -2 t20.5 -11.5t18.5 -39.5l-2 -29q1 -322 7 -371t6 -53l-9 -69l2 -68l-4 -41v-12q11 -62 11 -146l-7 -69l7 -139l-5 -183l5 -69l-15 -97q-2 -84 -117 -88q-146 -6 -162 -6zM244 -55q0 10 20 10l14 -1l97 1l96 -6q111 0 111 33l6 73l1 27l5 197l-6 75q0 84 11 84t27.5 -42 t18.5 -54t2 -44t4 -73q-4 -16 -4 -22l8 -70v-12q-2 -12 -3.5 -90t-8.5 -94q-14 -41 -53 -41l-115 -7h-49l-57 -4l-68 2q-23 0 -40 17.5t-17 40.5zM1114 1829v-8q-2 -12 -12 -88.5t-68.5 -149t-140.5 -72.5q-13 -1 -63 13t-77.5 31.5t-64.5 66.5l-22 31q-12 12 -23 12 q-33 0 -51 -127q-6 -16 -19 -16q-92 0 -157 14q-18 4 -18 90t62 169t169 83q55 0 108.5 -44t87 -89t40.5 -45t18 10q25 33 28 123q0 29 27 31q57 10 102 10q74 0 74 -45z" glyph-name="Ntilde" horiz-adv-x="1503" unicode=""/><glyph d="M1649 770q0 -163 -27 -217q0 -18 -15 -59t-37 -74t-34 -74l-6 -14q-104 -156 -246 -234t-160 -82q-203 -35 -272 -18q-236 47 -316.5 97t-181.5 136q-47 43 -63 75t-39 54q-18 29 -33.5 89.5t-21.5 74.5q-4 14 -13.5 74.5t-9.5 77.5l12 147q0 20 27 74q72 211 141 277 l105 94q2 2 16.5 20t68.5 47t95 39q125 51 167 53t109 3l58 -3l39 3q73 0 223 -50q27 -8 93 -46t110 -99q42 -42 68 -82q26 -41 73 -133t55 -154zM1278 731q0 49 -30 129t-107 154q-18 18 -91 41.5t-104 23.5h-65q-39 2 -76 -12t-55 -16q-18 -3 -38 -17q-18 -14 -45 -32 t-45 -34t-65 -94q-49 -96 -49 -222q0 -62 31 -109q37 -66 147.5 -129.5t185.5 -63.5q16 0 46 4l108 11q23 2 63.5 24.5t56.5 34.5t30 32.5t20 26.5t16.5 15.5t14.5 15.5q51 90 51 217zM1757 715q0 -233 -47 -324l-18 -41q-30 -68 -46 -85t-24 -37.5t-12 -24.5 q-90 -104 -156 -148l-90 -67q-6 -2 -55 -21.5t-93 -26.5q-44 -6 -66 -20t-36 -14l-149 -2q-29 0 -84.5 9t-53.5 26l4 2l16 1h43l79 5h30q66 16 74 16l25 -2q92 10 188 70l33 22q157 85 205 163q14 24 37 53t43 59t29 65t25 61t30 114t14 138t-8 128t-16 96t-12 30l-48 125 l8 9q39 -12 57 -56q74 -176 74 -323zM842 1026q121 0 174 -18q4 -2 20.5 -6t16.5 -17q0 -18 -31 -18l-53 6l-23 -2l-35 8q-6 0 -38.5 -9.5t-39.5 -13.5t-56 -10t-122 -117q-8 -12 -12 -27.5t-6 -19.5q-25 -40 -25 -114t33 -119q4 -8 4 -14q0 -7 -21 -7t-41 34t-20 56l-8 58 l4 41q0 83 47 151.5t71.5 87t78.5 45.5l8 7q68 18 74 18zM475 1872q0 20 197 20q68 0 90 -32q6 -6 94 -148t88 -158q0 -25 -127 -24l-53 4q-31 0 -45 20q-33 37 -138.5 172.5t-105.5 145.5z" glyph-name="Ograve" horiz-adv-x="1822" unicode=""/><glyph d="M1649 770q0 -163 -27 -217q0 -18 -15 -59t-37 -74t-34 -74l-6 -14q-104 -156 -246 -234t-160 -82q-203 -35 -272 -18q-236 47 -316.5 97t-181.5 136q-47 43 -63 75t-39 54q-18 29 -33.5 89.5t-21.5 74.5q-4 14 -13.5 74.5t-9.5 77.5l12 147q0 20 27 74q72 211 141 277 l105 94q2 2 16.5 20t68.5 47t95 39q125 51 167 53t109 3l58 -3l39 3q73 0 223 -50q27 -8 93 -46t110 -99q42 -42 68 -82q26 -41 73 -133t55 -154zM1278 731q0 49 -30 129t-107 154q-18 18 -91 41.5t-104 23.5h-65q-39 2 -76 -12t-55 -16q-18 -3 -38 -17q-18 -14 -45 -32 t-45 -34t-65 -94q-49 -96 -49 -222q0 -62 31 -109q37 -66 147.5 -129.5t185.5 -63.5q16 0 46 4l108 11q23 2 63.5 24.5t56.5 34.5t30 32.5t20 26.5t16.5 15.5t14.5 15.5q51 90 51 217zM1757 715q0 -233 -47 -324l-18 -41q-30 -68 -46 -85t-24 -37.5t-12 -24.5 q-90 -104 -156 -148l-90 -67q-6 -2 -55 -21.5t-93 -26.5q-44 -6 -66 -20t-36 -14l-149 -2q-29 0 -84.5 9t-53.5 26l4 2l16 1h43l79 5h30q66 16 74 16l25 -2q92 10 188 70l33 22q157 85 205 163q14 24 37 53t43 59t29 65t25 61t30 114t14 138t-8 128t-16 96t-12 30l-48 125 l8 9q39 -12 57 -56q74 -176 74 -323zM842 1026q121 0 174 -18q4 -2 20.5 -6t16.5 -17q0 -18 -31 -18l-53 6l-23 -2l-35 8q-6 0 -38.5 -9.5t-39.5 -13.5t-56 -10t-122 -117q-8 -12 -12 -27.5t-6 -19.5q-25 -40 -25 -114t33 -119q4 -8 4 -14q0 -7 -21 -7t-41 34t-20 56l-8 58 l4 41q0 83 47 151.5t71.5 87t78.5 45.5l8 7q68 18 74 18zM827 1550q0 16 78 139t104 161t91 38q196 0 196 -20q0 -10 -102 -141.5t-139 -176.5q-18 -20 -47 -20l-54 -4q-127 0 -127 24z" glyph-name="Oacute" horiz-adv-x="1822" unicode=""/><glyph d="M1649 770q0 -163 -27 -217q0 -18 -15 -59t-37 -74t-34 -74l-6 -14q-104 -156 -246 -234t-160 -82q-203 -35 -272 -18q-236 47 -316.5 97t-181.5 136q-47 43 -63 75t-39 54q-18 29 -33.5 89.5t-21.5 74.5q-4 14 -13.5 74.5t-9.5 77.5l12 147q0 20 27 74q72 211 141 277 l105 94q2 2 16.5 20t68.5 47t95 39q125 51 167 53t109 3l58 -3l39 3q73 0 223 -50q27 -8 93 -46t110 -99q42 -42 68 -82q26 -41 73 -133t55 -154zM1278 731q0 49 -30 129t-107 154q-18 18 -91 41.5t-104 23.5h-65q-39 2 -76 -12t-55 -16q-18 -3 -38 -17q-18 -14 -45 -32 t-45 -34t-65 -94q-49 -96 -49 -222q0 -62 31 -109q37 -66 147.5 -129.5t185.5 -63.5q16 0 46 4l108 11q23 2 63.5 24.5t56.5 34.5t30 32.5t20 26.5t16.5 15.5t14.5 15.5q51 90 51 217zM1757 715q0 -233 -47 -324l-18 -41q-30 -68 -46 -85t-24 -37.5t-12 -24.5 q-90 -104 -156 -148l-90 -67q-6 -2 -55 -21.5t-93 -26.5q-44 -6 -66 -20t-36 -14l-149 -2q-29 0 -84.5 9t-53.5 26l4 2l16 1h43l79 5h30q66 16 74 16l25 -2q92 10 188 70l33 22q157 85 205 163q14 24 37 53t43 59t29 65t25 61t30 114t14 138t-8 128t-16 96t-12 30l-48 125 l8 9q39 -12 57 -56q74 -176 74 -323zM842 1026q121 0 174 -18q4 -2 20.5 -6t16.5 -17q0 -18 -31 -18l-53 6l-23 -2l-35 8q-6 0 -38.5 -9.5t-39.5 -13.5t-56 -10t-122 -117q-8 -12 -12 -27.5t-6 -19.5q-25 -40 -25 -114t33 -119q4 -8 4 -14q0 -7 -21 -7t-41 34t-20 56l-8 58 l4 41q0 83 47 151.5t71.5 87t78.5 45.5l8 7q68 18 74 18zM636 1489q-52 0 -52 30t85 150.5t87 124.5q36 49 116 49t116 -6t69 -47t93 -120t74 -96t13 -44q0 -35 -10 -35h-128q-81 0 -103 5t-35 26l-56 88q-18 -8 -55 -67.5t-78 -59.5l-53 2h-83z" glyph-name="Ocircumflex" horiz-adv-x="1822" unicode=""/><glyph d="M1649 770q0 -163 -27 -217q0 -18 -15 -59t-37 -74t-34 -74l-6 -14q-104 -156 -246 -234t-160 -82q-203 -35 -272 -18q-236 47 -316.5 97t-181.5 136q-47 43 -63 75t-39 54q-18 29 -33.5 89.5t-21.5 74.5q-4 14 -13.5 74.5t-9.5 77.5l12 147q0 20 27 74q72 211 141 277 l105 94q2 2 16.5 20t68.5 47t95 39q125 51 167 53t109 3l58 -3l39 3q73 0 223 -50q27 -8 93 -46t110 -99q42 -42 68 -82q26 -41 73 -133t55 -154zM1278 731q0 49 -30 129t-107 154q-18 18 -91 41.5t-104 23.5h-65q-39 2 -76 -12t-55 -16q-18 -3 -38 -17q-18 -14 -45 -32 t-45 -34t-65 -94q-49 -96 -49 -222q0 -62 31 -109q37 -66 147.5 -129.5t185.5 -63.5q16 0 46 4l108 11q23 2 63.5 24.5t56.5 34.5t30 32.5t20 26.5t16.5 15.5t14.5 15.5q51 90 51 217zM1757 715q0 -233 -47 -324l-18 -41q-30 -68 -46 -85t-24 -37.5t-12 -24.5 q-90 -104 -156 -148l-90 -67q-6 -2 -55 -21.5t-93 -26.5q-44 -6 -66 -20t-36 -14l-149 -2q-29 0 -84.5 9t-53.5 26l4 2l16 1h43l79 5h30q66 16 74 16l25 -2q92 10 188 70l33 22q157 85 205 163q14 24 37 53t43 59t29 65t25 61t30 114t14 138t-8 128t-16 96t-12 30l-48 125 l8 9q39 -12 57 -56q74 -176 74 -323zM842 1026q121 0 174 -18q4 -2 20.5 -6t16.5 -17q0 -18 -31 -18l-53 6l-23 -2l-35 8q-6 0 -38.5 -9.5t-39.5 -13.5t-56 -10t-122 -117q-8 -12 -12 -27.5t-6 -19.5q-25 -40 -25 -114t33 -119q4 -8 4 -14q0 -7 -21 -7t-41 34t-20 56l-8 58 l4 41q0 83 47 151.5t71.5 87t78.5 45.5l8 7q68 18 74 18zM1270 1810v-8q-2 -12 -12 -88.5t-69 -148.5t-140 -72q-14 0 -64 13t-77 30.5t-64 67.5l-23 30q-12 12 -22 13q-33 0 -51 -127q-6 -16 -19 -17q-92 0 -158 15q-18 4 -18 67q0 109 62.5 192t168.5 83q55 0 108.5 -45.5 t87.5 -89.5t41 -44t25 22t21 112q0 29 27 30q57 10 102 10q74 0 74 -45z" glyph-name="Otilde" horiz-adv-x="1822" unicode=""/><glyph d="M1649 770q0 -163 -27 -217q0 -18 -15 -59t-37 -74t-34 -74l-6 -14q-104 -156 -246 -234t-160 -82q-203 -35 -272 -18q-236 47 -316.5 97t-181.5 136q-47 43 -63 75t-39 54q-18 29 -33.5 89.5t-21.5 74.5q-4 14 -13.5 74.5t-9.5 77.5l12 147q0 20 27 74q72 211 141 277 l105 94q2 2 16.5 20t68.5 47t95 39q125 51 167 53t109 3l58 -3l39 3q73 0 223 -50q27 -8 93 -46t110 -99q42 -42 68 -82q26 -41 73 -133t55 -154zM1278 731q0 49 -30 129t-107 154q-18 18 -91 41.5t-104 23.5h-65q-39 2 -76 -12t-55 -16q-18 -3 -38 -17q-18 -14 -45 -32 t-45 -34t-65 -94q-49 -96 -49 -222q0 -62 31 -109q37 -66 147.5 -129.5t185.5 -63.5q16 0 46 4l108 11q23 2 63.5 24.5t56.5 34.5t30 32.5t20 26.5t16.5 15.5t14.5 15.5q51 90 51 217zM1757 715q0 -233 -47 -324l-18 -41q-30 -68 -46 -85t-24 -37.5t-12 -24.5 q-90 -104 -156 -148l-90 -67q-6 -2 -55 -21.5t-93 -26.5q-44 -6 -66 -20t-36 -14l-149 -2q-29 0 -84.5 9t-53.5 26l4 2l16 1h43l79 5h30q66 16 74 16l25 -2q92 10 188 70l33 22q157 85 205 163q14 24 37 53t43 59t29 65t25 61t30 114t14 138t-8 128t-16 96t-12 30l-48 125 l8 9q39 -12 57 -56q74 -176 74 -323zM842 1026q121 0 174 -18q4 -2 20.5 -6t16.5 -17q0 -18 -31 -18l-53 6l-23 -2l-35 8q-6 0 -38.5 -9.5t-39.5 -13.5t-56 -10t-122 -117q-8 -12 -12 -27.5t-6 -19.5q-25 -40 -25 -114t33 -119q4 -8 4 -14q0 -7 -21 -7t-41 34t-20 56l-8 58 l4 41q0 83 47 151.5t71.5 87t78.5 45.5l8 7q68 18 74 18zM1272 1631q0 -62 -39 -102t-102.5 -40t-105.5 40t-42 103.5t40 107.5t101.5 44t104.5 -45.5t43 -107.5zM848 1620q0 -66 -37 -104.5t-100 -38.5q-16 -1 -89 23t-73 114q0 59 45.5 111.5t107.5 52.5t104 -46t42 -112z " glyph-name="Odieresis" horiz-adv-x="1822" unicode=""/><glyph d="M164 557q0 22 147 152q-19 42 -75 87.5t-69 57.5t-13 30t13 28q13 11 33.5 30t38 34t34 27.5t36.5 32.5q21 20 35 20t54 -41.5t59 -70.5l30 -31l60 58q94 94 113 94t49 -26.5t63.5 -61.5t53.5 -49t20 -40t-26 -45t-48 -48q-35 -35 -72 -66q8 -16 74 -74.5t66 -76.5 t-30 -50t-73 -70t-54 -47t-32 -9t-82 61t-69 61t-49 -46t-59 -68t-41 -23q-24 0 -105.5 74t-81.5 96zM512 473q8 0 8 -16q0 -17 -14 -31t-43 -46t-55 -53.5t-60 -21.5q-57 0 -125 72l-37 37q-36 36 -36 52t13 17q13 0 105 -92q20 -21 53 -33t37 -12q27 0 86.5 63.5 t67.5 63.5zM653 371q57 0 110 61.5t85 87.5q4 0 9 -7t5 -14t-25.5 -36t-60.5 -63.5t-39 -39.5q-56 -56 -107.5 -28t-51.5 46t10 17q10 0 29.5 -12t35.5 -12zM862 805q-4 -10 -45 -54t-53 -53q-18 18 -25 23q2 5 26 25t60 71q18 18 27 19l4 -5z" glyph-name="multiply" horiz-adv-x="999" unicode=""/><glyph d="M1061 1413q29 0 145 -35q2 -2 20.5 -10t24.5 -8t51.5 51t71.5 51t158 -100q14 -10 27.5 -30t13.5 -36t-22.5 -37.5t-22.5 -28t30 -38.5t42 -67q14 -35 28 -62t28 -57t25 -100t11 -172t-43 -255q-10 -41 -44 -105t-65 -100t-39 -47q-23 -33 -123 -104q-129 -102 -317 -137 q-14 -2 -102 -2q-89 0 -123 5t-109 29q-72 18 -160 60q-4 -4 -42 -55.5t-72 -51.5t-142 101q-12 12 -12 30q-1 18 19 43t27 30t11 9t10.5 15.5t8.5 13.5l-6 6q-63 51 -115 145t-66 166t-14 162t21 156q2 8 7 33t15 39l23 79q20 65 60 112.5t66.5 80t51.5 57.5q24 25 106 79 t119 62t89 22.5t122 17.5l182 -17h25zM1348 729q0 45 -21.5 105.5t-52.5 83.5q-16 -14 -40 -44t-72 -86t-70.5 -88t-104.5 -128q-81 -96 -131 -156t-61 -86q49 -18 120 -19q160 0 229 44t89 69q115 151 115 305zM976 -125q-13 0 -85 12q-48 0 -60 3l-97 21q-14 3 -57 15.5 t-59 12.5t-52 -37t-82 -37t-66 10q-104 49 -129 84q-4 6 -19.5 21.5t-15.5 29.5t8 15l33 -27q104 -80 129 -80q84 0 119 35q20 25 26 37t16 12t50 -20q213 -56 300 -56t136 3t88 17t52.5 16.5t18.5 5.5t88.5 40.5t107.5 63.5t32 29t13.5 8.5t10 11t36.5 39.5t98 130t76 144 t30.5 105t20.5 177t-29 237q-29 118 -63 169q-4 8 -18.5 40t-47.5 59l-6 10q0 6 6 10q4 4 20.5 44t16.5 51t-32 35t-54 43q-20 19 -52 42t-46 39q4 2 12 1.5t58 -20.5t66 -36q17 -16 33.5 -31.5t22.5 -23t22.5 -27.5t16.5 -40q0 -19 -18 -52l-17 -31q0 -2 4 -10 q49 -62 79 -141.5t39.5 -117.5t13.5 -50q30 -78 30 -223q0 -146 -49 -269l-18 -53q-31 -86 -138 -207q-12 -14 -32.5 -48t-63.5 -55q-8 -10 -33.5 -27.5t-35.5 -25.5q-74 -55 -130 -71q-6 -2 -23 -12.5t-29 -10.5t-32 -11.5t-38 -11.5l-60 -10q-129 -6 -142 -6zM541 692 q0 -35 20.5 -99.5t40.5 -84.5q36 28 90 105t168 225t182 241q-43 20 -112 21q-172 0 -280.5 -117t-108.5 -291zM616 670q0 -34 -24 -62q-14 37 -14 79t14 93q37 127 110.5 187.5t210.5 85.5h7l14 -15q-82 -33 -141 -77l-43 -31q-50 -26 -92 -126t-42 -134zM1270 800 q0 -7 -103 -153q-41 -47 -47 -59t-38 -46t-101 -134q-41 -57 -72 -58q-14 0 -26 6q1 10 25 40t57.5 74t60.5 76t45 58t42.5 52.5t73 98.5t58.5 72t17.5 -10t7.5 -17z" glyph-name="Oslash" horiz-adv-x="1865" unicode=""/><glyph d="M712 -4q-294 0 -399 145q-70 98 -94 211q-2 8 -11 41t-9 76t-13 92l-2 25l2 55l-8 145l8 107q0 63 -5 95t-5 50l4 52l-6 84q0 66 8 192q4 49 39 56t94 8l117 -3q25 0 35 -16q15 -9 25 -29t10 -100l-4 -61l10 -205l2 -150l-2 -96q0 -116 8 -182t10 -84.5t14.5 -62.5 t42 -79.5t103.5 -35.5q154 0 154 174l-2 82l6 206l-2 64l4 96l-4 45l4 51l-10 230l2 104q2 57 86 58q139 0 180 -8t53 -50t10 -184t0 -156l9 -102l-5 -64l5 -120l-13 -142q0 -242 -39 -340q-118 -274 -412 -274zM754 -115q-208 0 -293 78q-4 4 -4 8t10 4t70.5 -17t78.5 -17 l31 2l37 -6h6q16 4 45 5t88 9q59 7 84 25t72 40t65 40t21.5 23t21 19.5t59.5 85.5q42 70 54 166l8 72q4 88 10 122t5 87l10 395l-6 240l-2 41q-2 41 6 41h2q31 -16 31 -37l2 -21q2 -20 -2 -28q10 -29 10 -134l6 -299l-4 -84l4 -127l-10 -145l-19 -170q0 -29 -8 -49 t-21.5 -54t-28 -68t-21.5 -40l-52 -53q-25 -37 -90 -72t-121 -49l-22 -8q-45 -25 -133 -25zM689 424q23 0 39.5 11t23.5 11q20 0 20 -18q0 -6 -10 -12q-31 -37 -83 -37t-81 48t-29 112l-10 178v104l-6 92q0 225 2 340l4 80q0 12 12 15h4q25 0 25 -17l6 -51l-2 -33l2 -53 l-4 -115l4 -65l2 -107v-49l2 -18l4 -84l-2 -68q0 -29 2 -41t4.5 -59t6.5 -77t22.5 -58.5t41.5 -28.5zM307 1778q0 20 197 20q68 0 90 -33q8 -8 95 -148.5t87 -156.5q0 -25 -127 -24l-53 4q-31 0 -45 20q-33 37 -138.5 172t-105.5 146z" glyph-name="Ugrave" horiz-adv-x="1349" unicode=""/></font>
</defs>
</svg>
